<?xml version="1.0" encoding="UTF-8" standalone="no"?>
<svg
   xmlns:dc="http://purl.org/dc/elements/1.1/"
   xmlns:cc="http://creativecommons.org/ns#"
   xmlns:rdf="http://www.w3.org/1999/02/22-rdf-syntax-ns#"
   xmlns:svg="http://www.w3.org/2000/svg"
   xmlns="http://www.w3.org/2000/svg"
   xmlns:sodipodi="http://sodipodi.sourceforge.net/DTD/sodipodi-0.dtd"
   xmlns:inkscape="http://www.inkscape.org/namespaces/inkscape"
   id="Layer_1"
   data-name="Layer 1"
   viewBox="0 0 2145.1248 802.72101"
   version="1.1"
   sodipodi:docname="Toplogic-Logo.new2.svg"
   width="2145.1248"
   height="802.72101"
   inkscape:export-filename="C:\Users\bhu\Downloads\Toplogic-Logo.new.png"
   inkscape:export-xdpi="6.5776277"
   inkscape:export-ydpi="6.5776277"
   inkscape:version="0.92.3 (2405546, 2018-03-11)">
  <metadata
     id="metadata81">
    <rdf:RDF>
      <cc:Work
         rdf:about="">
        <dc:format>image/svg+xml</dc:format>
        <dc:type
           rdf:resource="http://purl.org/dc/dcmitype/StillImage" />
        <dc:title>Toplogic-Logo</dc:title>
      </cc:Work>
    </rdf:RDF>
  </metadata>
  <sodipodi:namedview
     pagecolor="#ffffff"
     bordercolor="#666666"
     borderopacity="1"
     objecttolerance="10"
     gridtolerance="10"
     guidetolerance="10"
     inkscape:pageopacity="0"
     inkscape:pageshadow="2"
     inkscape:window-width="1639"
     inkscape:window-height="850"
     id="namedview79"
     showgrid="false"
     fit-margin-top="0"
     fit-margin-left="0"
     fit-margin-right="0"
     fit-margin-bottom="0"
     inkscape:zoom="0.2205"
     inkscape:cx="1063.4921"
     inkscape:cy="406.59125"
     inkscape:window-x="0"
     inkscape:window-y="0"
     inkscape:window-maximized="0"
     inkscape:current-layer="Layer_1" />
  <defs
     id="defs4">
    <style
       id="style2">.cls-1{fill:#0190b8;}</style>
  </defs>
  <title
     id="title6">Toplogic-Logo</title>
  <path
     class="cls-1"
     d="m 703.06207,187.14974 h -137.28 v 54.46 l 9.41,16.62 a 158.45,158.45 0 0 1 10.06,21.32 v -72.92 h 117.81 a 88.54,88.54 0 0 1 0,177.08 h -117.81 v -35.33 h -0.39 c 0.25,-3.58 0.39,-7.18 0.39,-10.82 v 0 a 150.43,150.43 0 0 0 -150.4,-150.41 v 0 -0.16 H 63.492061 v 19.48 H 191.21207 v 281.49 h 19.48 v -281.49 h 224.16 v 0.16 0 c 72.19,0 130.93,58.73 130.93,130.93 v 0 c 0,72.19 -58.74,130.93 -130.93,130.93 -72.19,0 -130.93,-58.74 -130.93,-130.94 a 131.07,131.07 0 0 1 73.91,-117.83 h -36.34 a 150.38,150.38 0 1 0 224.29,191.83 v 76.41 h 19.47 v -84.77 h 117.81 a 108,108 0 0 0 0,-216 z m -133.3,216.85 c -0.15,0.32 -0.32,0.63 -0.48,1 0.21,-0.37 0.33,-0.68 0.48,-1 z m 6.34,-14.78 v 0.1 z m -2.87,7.23 -0.39,0.91 z"
     id="path8"
     inkscape:connector-curvature="0"
     style="fill:#0190b8" />
  <path
     class="cls-1"
     d="m 835.75207,189.68974 h 66 v 240.07 H 1051.362 v 60 H 835.75207 Z"
     id="path10"
     inkscape:connector-curvature="0"
     style="fill:#0190b8" />
  <path
     class="cls-1"
     d="m 1038.492,340.54974 v -0.85 c 0,-85.27 67.33,-155.15 159.93,-155.15 92.6,0 159,69 159,154.33 v 0.86 c 0,85.31 -67.31,155.18 -159.9,155.18 -92.59,0 -159.03,-69.02 -159.03,-154.37 z m 250,0 v -0.85 c 0,-51.45 -37.73,-94.31 -90.88,-94.31 -53.15,0 -90,42 -90,93.45 v 0.86 c 0,51.44 37.72,94.31 90.89,94.31 53.17,0 89.99,-41.97 89.99,-93.46 z"
     id="path12"
     inkscape:connector-curvature="0"
     style="fill:#0190b8" />
  <path
     class="cls-1"
     d="m 1370.742,340.54974 v -0.85 c 0,-85.31 66.44,-155.19 157.33,-155.19 54,0 86.59,14.58 117.89,41.15 l -41.59,50.16 c -23.14,-19.29 -43.72,-30.43 -78.44,-30.43 -48,0 -86.18,42.44 -86.18,93.45 v 0.86 c 0,54.87 37.73,95.17 90.89,95.17 24,0 45.44,-6 62.16,-18 v -42.84 h -66.45 v -57 h 130.33 v 130.31 c -30.87,26.15 -73.31,47.58 -128.19,47.58 -93.45,0 -157.75,-65.59 -157.75,-154.37 z"
     id="path14"
     inkscape:connector-curvature="0"
     style="fill:#0190b8" />
  <path
     class="cls-1"
     d="m 1690.972,189.68974 h 66 v 300.09 h -66 z"
     id="path16"
     inkscape:connector-curvature="0"
     style="fill:#0190b8" />
  <path
     class="cls-1"
     d="m 1786.562,340.54974 v -0.85 c 0,-85.31 64.3,-155.19 156.47,-155.19 56.59,0 90.45,18.86 118.32,46.3 l -42,48.44 c -23.14,-21 -46.72,-33.86 -76.73,-33.86 -50.58,0 -87,42 -87,93.45 v 0.86 c 0,51.44 35.59,94.31 87,94.31 34.3,0 55.3,-13.72 78.88,-35.15 l 42,42.44 c -30.86,33 -65.16,53.58 -123,53.58 -88.35,0.04 -153.94,-68.12 -153.94,-154.33 z"
     id="path18"
     inkscape:connector-curvature="0"
     style="fill:#0190b8" />
  <path
     class="cls-1"
     d="m 81.372061,559.86974 h -17.88 v -11.91 h 48.680009 v 11.91 H 94.292061 v 46.84 h -12.92 z"
     id="path20"
     inkscape:connector-curvature="0"
     style="fill:#0190b8" />
  <path
     class="cls-1"
     d="m 130.49207,547.95974 h 12.9 v 23.24 h 23.83 v -23.24 h 12.93 v 58.75 h -12.93 v -23.59 h -23.83 v 23.59 h -12.9 z"
     id="path22"
     inkscape:connector-curvature="0"
     style="fill:#0190b8" />
  <path
     class="cls-1"
     d="m 202.64207,547.95974 h 44.31 v 11.49 h -31.46 v 11.92 h 27.69 v 11.5 h -27.69 v 12.34 h 31.89 v 11.5 h -44.74 z"
     id="path24"
     inkscape:connector-curvature="0"
     style="fill:#0190b8" />
  <path
     class="cls-1"
     d="m 320.97207,547.54974 h 11.92 l 25.18,59.17 h -13.52 l -5.37,-13.17 h -24.84 l -5.37,13.18 h -13.18 z m 13.6,34.58 -7.81,-19.06 -7.8,19.06 z"
     id="path26"
     inkscape:connector-curvature="0"
     style="fill:#0190b8" />
  <path
     class="cls-1"
     d="m 372.49207,581.54974 v -33.59 h 12.93 v 33.23 c 0,9.57 4.78,14.52 12.67,14.52 7.89,0 12.67,-4.78 12.67,-14.1 v -33.65 h 12.93 v 33.15 c 0,17.79 -10,26.52 -25.77,26.52 -15.77,0 -25.43,-8.81 -25.43,-26.08 z"
     id="path28"
     inkscape:connector-curvature="0"
     style="fill:#0190b8" />
  <path
     class="cls-1"
     d="m 458.94207,559.86974 h -17.87 v -11.91 h 48.67 v 11.91 h -17.87 v 46.84 h -12.93 z"
     id="path30"
     inkscape:connector-curvature="0"
     style="fill:#0190b8" />
  <path
     class="cls-1"
     d="m 502.92207,577.54974 v -0.17 c 0,-16.7 13.18,-30.38 31.3,-30.38 18.12,0 31.14,13.51 31.14,30.21 v 0.17 c 0,16.7 -13.18,30.38 -31.3,30.38 -18.12,0 -31.14,-13.56 -31.14,-30.21 z m 48.93,0 v -0.17 c 0,-10.07 -7.39,-18.46 -17.79,-18.46 -10.4,0 -17.63,8.22 -17.63,18.29 v 0.17 c 0,10.07 7.39,18.46 17.79,18.46 10.4,0 17.63,-8.29 17.63,-18.29 z"
     id="path32"
     inkscape:connector-curvature="0"
     style="fill:#0190b8" />
  <path
     class="cls-1"
     d="m 585.25207,547.95974 h 13.93 l 15.44,24.84 15.44,-24.84 h 13.94 v 58.75 h -12.84 v -38.36 l -16.54,25.1 h -0.33 l -16.37,-24.85 v 38.11 h -12.67 z"
     id="path34"
     inkscape:connector-curvature="0"
     style="fill:#0190b8" />
  <path
     class="cls-1"
     d="m 686.63207,547.54974 h 11.92 l 25.18,59.17 h -13.52 l -5.37,-13.17 h -24.84 l -5.37,13.18 h -13.14 z m 13.6,34.58 -7.81,-19.06 -7.81,19.06 z"
     id="path36"
     inkscape:connector-curvature="0"
     style="fill:#0190b8" />
  <path
     class="cls-1"
     d="m 747.31207,559.86974 h -17.88 v -11.91 h 48.68 v 11.91 h -17.88 v 46.84 h -12.92 z"
     id="path38"
     inkscape:connector-curvature="0"
     style="fill:#0190b8" />
  <path
     class="cls-1"
     d="m 796.40207,547.95974 h 44.32 v 11.49 h -31.48 v 11.92 h 27.7 v 11.5 h -27.7 v 12.34 h 31.9 v 11.5 h -44.74 z"
     id="path40"
     inkscape:connector-curvature="0"
     style="fill:#0190b8" />
  <path
     class="cls-1"
     d="m 861.02207,547.95974 h 22.92 c 18.46,0 31.22,12.67 31.22,29.2 v 0.17 c 0,16.54 -12.76,29.38 -31.22,29.38 h -22.92 z m 12.93,11.66 v 35.42 h 10 c 10.57,0 17.7,-7.13 17.7,-17.54 v -0.17 c 0,-10.41 -7.13,-17.71 -17.7,-17.71 z"
     id="path42"
     inkscape:connector-curvature="0"
     style="fill:#0190b8" />
  <path
     class="cls-1"
     d="m 988.76207,547.54974 h 11.91993 l 25.17,59.17 h -13.51 l -5.37,-13.17 h -24.83993 l -5.37,13.18 h -13.18 z m 13.58993,34.58 -7.79993,-19.06 -7.81,19.06 z"
     id="path44"
     inkscape:connector-curvature="0"
     style="fill:#0190b8" />
  <path
     class="cls-1"
     d="m 1043.312,547.95974 h 24 c 14,0 22.49,8.31 22.49,20.31 v 0.17 c 0,13.59 -10.57,20.64 -23.75,20.64 h -9.82 v 17.63 h -12.92 z m 23.18,29.59 c 6.46,0 10.24,-3.86 10.24,-8.89 v -0.11 c 0,-5.79 -4,-8.9 -10.49,-8.9 h -10 v 18 z"
     id="path46"
     inkscape:connector-curvature="0"
     style="fill:#0190b8" />
  <path
     class="cls-1"
     d="m 1107.762,547.95974 h 24 c 14,0 22.5,8.31 22.5,20.31 v 0.17 c 0,13.59 -10.58,20.64 -23.75,20.64 h -9.82 v 17.63 h -12.93 z m 23.17,29.59 c 6.46,0 10.23,-3.86 10.23,-8.89 v -0.11 c 0,-5.79 -4,-8.9 -10.49,-8.9 h -10 v 18 z"
     id="path48"
     inkscape:connector-curvature="0"
     style="fill:#0190b8" />
  <path
     class="cls-1"
     d="m 1172.222,547.95974 h 12.92 v 47 h 29.29 v 11.75 h -42.21 z"
     id="path50"
     inkscape:connector-curvature="0"
     style="fill:#0190b8" />
  <path
     class="cls-1"
     d="m 1233.142,547.95974 h 12.93 v 58.75 h -12.93 z"
     id="path52"
     inkscape:connector-curvature="0"
     style="fill:#0190b8" />
  <path
     class="cls-1"
     d="m 1266.552,577.54974 v -0.17 c 0,-16.7 12.58,-30.38 30.63,-30.38 11.08,0 17.71,3.69 23.16,9.06 l -8.22,9.49 c -4.53,-4.11 -9.15,-6.63 -15,-6.63 -9.9,0 -17,8.22 -17,18.29 v 0.17 c 0,10.07 7,18.46 17,18.46 6.72,0 10.83,-2.68 15.45,-6.88 l 8.22,8.31 c -6,6.46 -12.75,10.49 -24.09,10.49 -17.31,-0.05 -30.15,-13.39 -30.15,-30.21 z"
     id="path54"
     inkscape:connector-curvature="0"
     style="fill:#0190b8" />
  <path
     class="cls-1"
     d="m 1359.622,547.54974 h 11.92 l 25.17,59.17 h -13.51 l -5.37,-13.17 h -24.84 l -5.37,13.18 h -13.13 z m 13.59,34.58 -7.8,-19.06 -7.81,19.06 z"
     id="path56"
     inkscape:connector-curvature="0"
     style="fill:#0190b8" />
  <path
     class="cls-1"
     d="m 1420.302,559.86974 h -17.88 v -11.91 h 48.68 v 11.91 h -17.88 v 46.84 h -12.92 z"
     id="path58"
     inkscape:connector-curvature="0"
     style="fill:#0190b8" />
  <path
     class="cls-1"
     d="m 1469.982,547.95974 h 12.92 v 58.75 h -12.92 z"
     id="path60"
     inkscape:connector-curvature="0"
     style="fill:#0190b8" />
  <path
     class="cls-1"
     d="m 1503.382,577.54974 v -0.17 c 0,-16.7 13.18,-30.38 31.31,-30.38 18.13,0 31.13,13.51 31.13,30.21 v 0.17 c 0,16.7 -13.17,30.38 -31.3,30.38 -18.13,0 -31.14,-13.56 -31.14,-30.21 z m 48.93,0 v -0.17 c 0,-10.07 -7.38,-18.46 -17.79,-18.46 -10.41,0 -17.63,8.22 -17.63,18.29 v 0.17 c 0,10.07 7.39,18.46 17.8,18.46 10.41,0 17.62,-8.29 17.62,-18.29 z"
     id="path62"
     inkscape:connector-curvature="0"
     style="fill:#0190b8" />
  <path
     class="cls-1"
     d="m 1585.712,547.95974 h 11.92 l 27.52,36.17 v -36.17 h 12.76 v 58.75 h -11 l -28.42,-37.35 v 37.35 h -12.76 z"
     id="path64"
     inkscape:connector-curvature="0"
     style="fill:#0190b8" />
  <path
     class="cls-1"
     d="m 1693.972,547.95974 h 44.32 v 11.49 h -31.48 v 11.92 h 27.68 v 11.5 h -27.7 v 12.34 h 31.89 v 11.5 h -44.73 z"
     id="path66"
     inkscape:connector-curvature="0"
     style="fill:#0190b8" />
  <path
     class="cls-1"
     d="m 1758.592,547.95974 h 11.9 l 27.53,36.17 v -36.17 h 12.76 v 58.75 h -11 l -28.45,-37.35 v 37.35 h -12.74 z"
     id="path68"
     inkscape:connector-curvature="0"
     style="fill:#0190b8" />
  <path
     class="cls-1"
     d="m 1830.682,577.54974 v -0.17 c 0,-16.7 13,-30.38 30.81,-30.38 10.57,0 17,2.85 23.07,8.06 l -8.14,9.82 c -4.53,-3.78 -8.56,-6 -15.35,-6 -9.41,0 -16.87,8.31 -16.87,18.29 v 0.17 c 0,10.74 7.38,18.63 17.79,18.63 a 20.64,20.64 0 0 0 12.17,-3.52 v -8.4 h -13 v -11.17 h 25.51 v 25.52 a 38.12,38.12 0 0 1 -25.09,9.31 c -18.31,0 -30.9,-12.84 -30.9,-30.16 z"
     id="path70"
     inkscape:connector-curvature="0"
     style="fill:#0190b8" />
  <path
     class="cls-1"
     d="m 1908.062,547.95974 h 12.93 v 58.75 h -12.93 z"
     id="path72"
     inkscape:connector-curvature="0"
     style="fill:#0190b8" />
  <path
     class="cls-1"
     d="m 1944.062,547.95974 h 11.92 l 27.51,36.17 v -36.17 h 12.76 v 58.75 h -11 l -28.45,-37.35 v 37.35 h -12.76 z"
     id="path74"
     inkscape:connector-curvature="0"
     style="fill:#0190b8" />
  <path
     class="cls-1"
     d="m 2018.762,547.95974 h 44.31 v 11.49 h -31.47 v 11.92 h 27.69 v 11.5 h -27.69 v 12.34 h 31.89 v 11.5 h -44.73 z"
     id="path76"
     inkscape:connector-curvature="0"
     style="fill:#0190b8" />
  <rect
     style="fill:none;fill-opacity:1;stroke:none;stroke-width:3.77952766;stroke-linecap:round;stroke-linejoin:round;stroke-miterlimit:4;stroke-dasharray:none;stroke-opacity:1"
     id="rect4591"
     width="2145.1248"
     height="802.72101"
     x="0"
     y="0" />
</svg>
