<svg id="visual" xmlns="http://www.w3.org/2000/svg" viewBox="0 0 120 120"><defs><style>.cls-1{fill:#fbfbfd;}.cls-2{fill:none;stroke:#4c4c4c;stroke-miterlimit:10;stroke-width:5px;}.cls-3{fill:#4c4c4c;}</style></defs><circle class="cls-1" cx="60" cy="62" r="53"/><path class="cls-2" d="M90.5,91H47V33H76L90.5,47.53Z"/><polyline class="cls-2" points="76 33 76 47.5 90.5 47.5"/><line class="cls-2" x1="56" y1="67.5" x2="81" y2="67.5"/><line class="cls-2" x1="56" y1="57.5" x2="81" y2="57.5"/><line class="cls-2" x1="56" y1="77.5" x2="81" y2="77.5"/><path class="cls-3" d="M40.21,46.17A13.89,13.89,0,1,1,54.1,32.28,13.9,13.9,0,0,1,40.21,46.17Z"/><path class="cls-1" d="M40.21,19.9A12.39,12.39,0,1,1,27.83,32.28,12.39,12.39,0,0,1,40.21,19.9m0-3A15.39,15.39,0,1,0,55.6,32.28,15.4,15.4,0,0,0,40.21,16.9Z"/><path class="cls-3" d="M18.25,62.33v-1.5A21.86,21.86,0,0,1,28.42,42.34l1-.64.86.82a14.19,14.19,0,0,0,19.87,0L51,41.7l1,.64A21.85,21.85,0,0,1,62.18,60.83v1.5Z"/><path class="cls-1" d="M51.2,43.6a20.44,20.44,0,0,1,9.48,17.23H19.75A20.41,20.41,0,0,1,29.23,43.6a15.71,15.71,0,0,0,22,0m-.39-3.81-1.7,1.66a12.71,12.71,0,0,1-17.79,0l-1.7-1.66-2,1.28A23.37,23.37,0,0,0,16.75,60.83v3H63.68v-3A23.35,23.35,0,0,0,52.81,41.07l-2-1.28Z"/></svg>