<svg id="visual" xmlns="http://www.w3.org/2000/svg" viewBox="0 0 22 22"><defs><style>.cls-1{fill:#bb0a30;}</style></defs><path class="cls-1" d="M12.42,4,13.7,5.27,16.38,8V18H5.77V4h6.65m.83-2H3.77V20H18.38V7.12L13.25,2Z"/><path class="cls-1" d="M7.58,11.18a6.18,6.18,0,0,1,.77-3.4,2.61,2.61,0,0,1,2.3-1.14A2.61,2.61,0,0,1,13,7.78a6.18,6.18,0,0,1,.77,3.4A6.1,6.1,0,0,1,13,14.56a2.6,2.6,0,0,1-2.3,1.15,2.6,2.6,0,0,1-2.3-1.15A6.1,6.1,0,0,1,7.58,11.18Zm3.07-3a1,1,0,0,0-1,.7,6.38,6.38,0,0,0-.3,2.29,6.26,6.26,0,0,0,.3,2.27,1,1,0,0,0,1.94,0,6.26,6.26,0,0,0,.3-2.27,6.38,6.38,0,0,0-.3-2.29A1,1,0,0,0,10.65,8.19Z"/></svg>