<svg id="visual" xmlns="http://www.w3.org/2000/svg" viewBox="0 0 22 22"><defs><style>.cls-1{fill:#bb0a30;}.cls-2{fill:#fbfbfd;}</style></defs><path class="cls-1" d="M18.38,20H3.77V2h9.48l5.13,5.12Z"/><path class="cls-2" d="M7.66,12.66a3.34,3.34,0,0,1-1.32-.78A1.61,1.61,0,0,1,6,10.77a1.79,1.79,0,0,1,.57-1.4,2.26,2.26,0,0,1,1.57-.51A4,4,0,0,1,9,9a4.32,4.32,0,0,1,.9.3v1.27a3.33,3.33,0,0,0-.85-.45,2.6,2.6,0,0,0-.85-.16,1.23,1.23,0,0,0-.72.19.64.64,0,0,0-.25.54.58.58,0,0,0,.18.45,2.5,2.5,0,0,0,.76.4l.56.21a2.52,2.52,0,0,1,1.17.77,2,2,0,0,1,.37,1.21,1.83,1.83,0,0,1-.59,1.48,2.69,2.69,0,0,1-1.77.49,4.11,4.11,0,0,1-1-.12,4.15,4.15,0,0,1-1-.34V13.87a4.61,4.61,0,0,0,1,.55,2.72,2.72,0,0,0,1,.18,1.15,1.15,0,0,0,.74-.22A.75.75,0,0,0,9,13.77a.8.8,0,0,0-.18-.52,1.2,1.2,0,0,0-.51-.34Z"/><path class="cls-2" d="M12.27,9h1.78a3.15,3.15,0,0,1,2,.48A1.94,1.94,0,0,1,16.6,11,1.92,1.92,0,0,1,16,12.6a3.14,3.14,0,0,1-2,.49h-.48v2.45h-1.3Zm1.3,1.09V12h.53a1.43,1.43,0,0,0,.89-.22.9.9,0,0,0,.26-.75.89.89,0,0,0-.26-.74,1.36,1.36,0,0,0-.89-.22Z"/></svg>