<svg id="visual" xmlns="http://www.w3.org/2000/svg" viewBox="0 0 22 22"><defs><style>.cls-1{fill:#bb0a30;}.cls-2{fill:#fbfbfd;}</style></defs><path class="cls-1" d="M3,19.24a2.33,2.33,0,0,1-2.15-1,2.33,2.33,0,0,1,.2-2.38L9,2.31A2.36,2.36,0,0,1,11,1a2.36,2.36,0,0,1,2,1.34l8,13.51a2.33,2.33,0,0,1,.2,2.38,2.33,2.33,0,0,1-2.15,1Z"/><path class="cls-2" d="M11,1.52a1.84,1.84,0,0,1,1.52,1.07l8,13.51c.84,1.42.17,2.59-1.48,2.59H3c-1.65,0-2.32-1.17-1.48-2.59l8-13.51A1.84,1.84,0,0,1,11,1.52m0-1.1A2.93,2.93,0,0,0,8.53,2l-8,13.51a2.91,2.91,0,0,0-.2,2.93A2.89,2.89,0,0,0,3,19.79H19a2.89,2.89,0,0,0,2.63-1.32,2.91,2.91,0,0,0-.2-2.93L13.47,2A2.93,2.93,0,0,0,11,.42Z"/><path class="cls-2" d="M9.84,15.13a1.17,1.17,0,1,1,2.33,0,1.17,1.17,0,1,1-2.33,0Zm.44-6.39,0-1.52h1.54l0,1.52-.21,4.17h-1Z"/></svg>