<svg id="visual" xmlns="http://www.w3.org/2000/svg" viewBox="0 0 22 22"><defs><style>.cls-1{fill:#d9d9d9;stroke:#d9d9d9;stroke-miterlimit:10;stroke-width:0.5px;}</style></defs><path class="cls-1" d="M19.23,3.39,18.84,3,17.41,4l-.32,1L9.27,12.83,8.69,13l-.52-.52a.3.3,0,0,0-.5.27,1.22,1.22,0,0,1-.41,1.06,1.13,1.13,0,0,1-.79.34,1.27,1.27,0,0,0-.85.35L2.43,17.65a.31.31,0,0,0-.09.18l-.07.8a.31.31,0,0,0,.08.24l1.41,1.4a.27.27,0,0,0,.21.09H4l.79-.08A.34.34,0,0,0,5,20.19L8.16,17a1.3,1.3,0,0,0,.35-.86,1.13,1.13,0,0,1,.34-.79A1.27,1.27,0,0,1,9.91,15a.28.28,0,0,0,.33-.14.32.32,0,0,0-.05-.36l-.53-.52.13-.58,7.82-7.82,1-.32,1-1.43Z"/><path class="cls-1" d="M19.69,18.14,9.19,7.55a3.72,3.72,0,0,0-.65-4.36A11.3,11.3,0,0,0,5.92,2l-.48.48,2,2L6.87,6.76l-2.25.61-2-2-.47.48A9,9,0,0,0,3.3,8.43a3.69,3.69,0,0,0,4.35.65L18.14,19.67a1.07,1.07,0,0,0,.77.32,1.08,1.08,0,0,0,.77-.31A1.1,1.1,0,0,0,19.69,18.14Z"/></svg>