<svg id="visual" xmlns="http://www.w3.org/2000/svg" viewBox="0 0 120 120"><defs><style>.cls-1{fill:#bb0a30;}.cls-2,.cls-3{fill:none;stroke:#fbfbfd;stroke-width:4px;}.cls-2{stroke-miterlimit:10;}.cls-3{stroke-linecap:round;stroke-linejoin:round;}</style></defs><circle class="cls-1" cx="60.5" cy="60.5" r="47.5"/><path class="cls-2" d="M51.55,78.24c0-12.45-14.79-14.78-14.79-31.9a23.34,23.34,0,1,1,46.68,0c0,18.67-14.78,19.45-14.78,31.9Z"/><rect class="cls-2" x="49.31" y="78.24" width="21.6" height="6.38" rx="3.19"/><rect class="cls-2" x="49.31" y="84.62" width="21.6" height="6.38" rx="3.19"/><polygon class="cls-2" points="63.61 98 56.59 98 52.21 91 68 91 63.61 98"/><polygon class="cls-3" points="69.64 53.97 65.13 50.62 60.1 53.97 55.08 50.62 50.57 53.97 54 58 54 78 66 78 66 58 69.64 53.97"/></svg>