<svg id="visual" xmlns="http://www.w3.org/2000/svg" viewBox="0 0 120 120"><defs><style>.cls-1{fill:#fbfbfd;}.cls-2,.cls-3{fill:none;stroke:#454952;stroke-miterlimit:10;}.cls-2{stroke-width:5px;}.cls-3{stroke-width:3px;}.cls-4{fill:#454952;}</style></defs><title>zip</title><circle class="cls-1" cx="60" cy="62" r="53"/><path class="cls-2" d="M81.5,91H38V33H67L81.5,47.53Z"/><polyline class="cls-2" points="67 33 67 47.5 81.5 47.5"/><line class="cls-3" x1="45" y1="36.5" x2="51" y2="36.5"/><line class="cls-3" x1="51" y1="39.5" x2="57" y2="39.5"/><line class="cls-3" x1="45" y1="42.5" x2="51" y2="42.5"/><line class="cls-3" x1="51" y1="45.5" x2="57" y2="45.5"/><line class="cls-3" x1="45" y1="48.5" x2="51" y2="48.5"/><line class="cls-3" x1="51" y1="51.5" x2="57" y2="51.5"/><line class="cls-3" x1="45" y1="54.5" x2="51" y2="54.5"/><line class="cls-3" x1="51" y1="57.5" x2="57" y2="57.5"/><line class="cls-3" x1="45" y1="60.5" x2="51" y2="60.5"/><line class="cls-3" x1="51" y1="63.5" x2="57" y2="63.5"/><path class="cls-4" d="M54,68v1.5A2.5,2.5,0,0,1,51.5,72h-1A2.5,2.5,0,0,1,48,69.5V68h6m3-3H45v4.5A5.5,5.5,0,0,0,50.5,75h1A5.5,5.5,0,0,0,57,69.5V65Z"/></svg>