<svg id="visual" xmlns="http://www.w3.org/2000/svg" viewBox="0 0 22 22"><defs><style>.cls-1{fill:none;stroke:#bb0a30;stroke-miterlimit:10;stroke-width:2px;}.cls-2{fill:#bb0a30;}</style></defs><path class="cls-1" d="M17,19H5V3h8.3L17,6.7Z"/><polyline class="cls-1" points="13 3 13 7 17 7"/><path class="cls-2" d="M7.06,13.87a3.75,3.75,0,0,1,.42-2,1.39,1.39,0,0,1,1.26-.66,1.4,1.4,0,0,1,1.27.66,3.75,3.75,0,0,1,.42,2,3.74,3.74,0,0,1-.42,2,1.4,1.4,0,0,1-1.27.66,1.39,1.39,0,0,1-1.26-.66A3.74,3.74,0,0,1,7.06,13.87Zm1.68-1.8c-.23,0-.4.15-.51.43a4.45,4.45,0,0,0-.16,1.37c0,.19,0,.37,0,.53l1.17-1.88v0A.54.54,0,0,0,8.74,12.07Zm-.51,3.16c.11.29.28.43.51.43s.41-.14.51-.43a4,4,0,0,0,.17-1.36,6.11,6.11,0,0,0,0-.64L8.2,15.13Z"/><path class="cls-2" d="M11.49,15.53h1.13V12.21l-1,.26v-.91l1.06-.25h1v4.22h1.13v.89H11.49Z"/></svg>