<?xml version="1.0" encoding="UTF-8" standalone="no"?>
<svg
   xmlns:dc="http://purl.org/dc/elements/1.1/"
   xmlns:cc="http://creativecommons.org/ns#"
   xmlns:rdf="http://www.w3.org/1999/02/22-rdf-syntax-ns#"
   xmlns:svg="http://www.w3.org/2000/svg"
   xmlns="http://www.w3.org/2000/svg"
   xmlns:sodipodi="http://sodipodi.sourceforge.net/DTD/sodipodi-0.dtd"
   xmlns:inkscape="http://www.inkscape.org/namespaces/inkscape"
   id="visual"
   viewBox="0 0 120 120"
   version="1.1"
   sodipodi:docname="toggleShowAllCommandsActive.svg"
   inkscape:version="0.92.3 (2405546, 2018-03-11)">
  <metadata
     id="metadata19">
    <rdf:RDF>
      <cc:Work
         rdf:about="">
        <dc:format>image/svg+xml</dc:format>
        <dc:type
           rdf:resource="http://purl.org/dc/dcmitype/StillImage" />
      </cc:Work>
    </rdf:RDF>
  </metadata>
  <sodipodi:namedview
     pagecolor="#ffffff"
     bordercolor="#666666"
     borderopacity="1"
     objecttolerance="10"
     gridtolerance="10"
     guidetolerance="10"
     inkscape:pageopacity="0"
     inkscape:pageshadow="2"
     inkscape:window-width="1920"
     inkscape:window-height="1017"
     id="namedview17"
     showgrid="false"
     inkscape:zoom="1.9666667"
     inkscape:cx="-51.101694"
     inkscape:cy="60.000001"
     inkscape:window-x="-8"
     inkscape:window-y="-8"
     inkscape:window-maximized="1"
     inkscape:current-layer="visual" />
  <defs
     id="defs4">
    <style
       id="style2">.cls-1{fill:#eaeef1;}</style>
  </defs>
  <title
     id="title6">toggleShowAllCommandsActive</title>
  <path
     class="cls-1"
     d="M104,23H16a4,4,0,0,0-4,4V93a4,4,0,0,0,4,4h88a4,4,0,0,0,4-4V27A4,4,0,0,0,104,23ZM94,26a3,3,0,1,1-3,3A3,3,0,0,1,94,26Zm-8,0a3,3,0,1,1-3,3A3,3,0,0,1,86,26Zm18,66H16V35h88Zm-2-60a3,3,0,1,1,3-3A3,3,0,0,1,102,32Z"
     id="path8"
     style="fill:#bb0a30;fill-opacity:1" />
  <path
     class="cls-1"
     d="M29.38,66.59a13,13,0,0,0,7.33,2.6c2.51,0,3.86-1,3.86-2.62,0-4.13-12.17-3.4-12.17-10.57,0-3.9,3.37-6.39,8.35-6.39a10.24,10.24,0,0,1,7.75,3.24l-2.35,2.68a8.58,8.58,0,0,0-5.71-2.15c-2.23,0-3.56,1-3.56,2.54,0,3.61,12.17,3,12.17,10.33,0,3.89-3.4,6.71-9,6.71a14.45,14.45,0,0,1-8.76-3.2ZM35,44.47h3.16v6.69H35Zm3.16,26.7v7.55H35V71.17Z"
     id="path10"
     style="fill:#bb0a30;fill-opacity:1" />
  <path
     class="cls-1"
     d="M52.43,68.47l11.29-7.35V61L52.43,53.62V49.33L67.62,59.38v3.33L52.43,72.76Z"
     id="path12"
     style="fill:#bb0a30;fill-opacity:1" />
  <path
     class="cls-1"
     d="M74.74,76.77H93.93v3.65H74.74Z"
     id="path14"
     style="fill:#bb0a30;fill-opacity:1" />
</svg>
