<svg id="visual" xmlns="http://www.w3.org/2000/svg" viewBox="0 0 120 120"><defs><style>.cls-1{fill:#d9d9d9;}</style></defs><path class="cls-1" d="M104,23H16a4,4,0,0,0-4,4V93a4,4,0,0,0,4,4h88a4,4,0,0,0,4-4V27A4,4,0,0,0,104,23ZM94,26a3,3,0,1,1-3,3A3,3,0,0,1,94,26Zm-8,0a3,3,0,1,1-3,3A3,3,0,0,1,86,26Zm18,66H16V35h88Zm-2-60a3,3,0,1,1,3-3A3,3,0,0,1,102,32Z"/><path class="cls-1" d="M29.38,66.59a13,13,0,0,0,7.33,2.6c2.51,0,3.86-1,3.86-2.62,0-4.13-12.17-3.4-12.17-10.57,0-3.9,3.37-6.39,8.35-6.39a10.24,10.24,0,0,1,7.75,3.24l-2.35,2.68a8.58,8.58,0,0,0-5.71-2.15c-2.23,0-3.56,1-3.56,2.54,0,3.61,12.17,3,12.17,10.33,0,3.89-3.4,6.71-9,6.71a14.45,14.45,0,0,1-8.76-3.2ZM35,44.47h3.16v6.69H35Zm3.16,26.7v7.55H35V71.17Z"/><path class="cls-1" d="M52.43,68.47l11.29-7.34V61L52.43,53.62V49.33L67.62,59.38v3.33L52.43,72.76Z"/><path class="cls-1" d="M74.74,76.77H93.93v3.65H74.74Z"/></svg>