<svg width="32" height="32" viewBox="0 0 32 32" fill="none" xmlns="http://www.w3.org/2000/svg">
<path d="M0 4C0 1.79086 1.79086 0 4 0H32V32H4C1.79086 32 0 30.2091 0 28V4Z" fill="#F0F1F2"/>
<path fill-rule="evenodd" clip-rule="evenodd" d="M12.6464 9.64645C12.8417 9.45118 13.1583 9.45118 13.3536 9.64645L19.3536 15.6464C19.5488 15.8417 19.5488 16.1583 19.3536 16.3536L13.3536 22.3536C13.1583 22.5488 12.8417 22.5488 12.6464 22.3536C12.4512 22.1583 12.4512 21.8417 12.6464 21.6464L18.2929 16L12.6464 10.3536C12.4512 10.1583 12.4512 9.84171 12.6464 9.64645Z" fill="black"/>
</svg>
