<svg width="32" height="64" viewBox="0 0 32 64" fill="none" xmlns="http://www.w3.org/2000/svg">
<g clip-path="url(#clip0_2148_13105)">
<path d="M0 4C0 1.79086 1.79086 0 4 0H32V64H4C1.79086 64 0 62.2091 0 60V4Z" fill="white" style="mix-blend-mode:multiply"/>
<rect width="32" height="64" fill="#F0F1F2"/>
<rect width="16" height="16" transform="translate(8 24)" fill="white" style="mix-blend-mode:multiply"/>
<path fill-rule="evenodd" clip-rule="evenodd" d="M12.6464 25.6464C12.8417 25.4512 13.1583 25.4512 13.3536 25.6464L19.3536 31.6464C19.5488 31.8417 19.5488 32.1583 19.3536 32.3536L13.3536 38.3536C13.1583 38.5488 12.8417 38.5488 12.6464 38.3536C12.4512 38.1583 12.4512 37.8417 12.6464 37.6464L18.2929 32L12.6464 26.3536C12.4512 26.1583 12.4512 25.8417 12.6464 25.6464Z" fill="#505358"/>
</g>
<defs>
<clipPath id="clip0_2148_13105">
<path d="M0 4C0 1.79086 1.79086 0 4 0H32V64H4C1.79086 64 0 62.2091 0 60V4Z" fill="white"/>
</clipPath>
</defs>
</svg>
