<?xml version="1.0" encoding="UTF-8" standalone="no"?>
<!-- Created with Inkscape (http://www.inkscape.org/) -->

<svg
   xmlns:dc="http://purl.org/dc/elements/1.1/"
   xmlns:cc="http://creativecommons.org/ns#"
   xmlns:rdf="http://www.w3.org/1999/02/22-rdf-syntax-ns#"
   xmlns:svg="http://www.w3.org/2000/svg"
   xmlns="http://www.w3.org/2000/svg"
   xmlns:sodipodi="http://sodipodi.sourceforge.net/DTD/sodipodi-0.dtd"
   xmlns:inkscape="http://www.inkscape.org/namespaces/inkscape"
   width="10"
   height="10"
   viewBox="0 0 2.645835 2.6458332"
   version="1.1"
   id="svg8"
   inkscape:version="0.92.3 (2405546, 2018-03-11)"
   sodipodi:docname="columnsLayout.svg">
  <defs
     id="defs2" />
  <sodipodi:namedview
     id="base"
     pagecolor="#ffffff"
     bordercolor="#666666"
     borderopacity="1.0"
     inkscape:pageopacity="0.0"
     inkscape:pageshadow="2"
     inkscape:zoom="63.35677"
     inkscape:cx="3.4745363"
     inkscape:cy="7.3447569"
     inkscape:document-units="mm"
     inkscape:current-layer="layer1"
     showgrid="false"
     fit-margin-top="0"
     fit-margin-left="0"
     fit-margin-right="0"
     fit-margin-bottom="0"
     inkscape:window-width="1920"
     inkscape:window-height="1137"
     inkscape:window-x="1912"
     inkscape:window-y="-8"
     inkscape:window-maximized="1"
     units="px" />
  <metadata
     id="metadata5">
    <rdf:RDF>
      <cc:Work
         rdf:about="">
        <dc:format>image/svg+xml</dc:format>
        <dc:type
           rdf:resource="http://purl.org/dc/dcmitype/StillImage" />
        <dc:title></dc:title>
      </cc:Work>
    </rdf:RDF>
  </metadata>
  <g
     inkscape:label="Ebene 1"
     inkscape:groupmode="layer"
     id="layer1"
     transform="translate(69.654832,-222.07892)">
    <g
       id="layer1-3"
       inkscape:label="Ebene 1"
       transform="matrix(0.02633951,0,0,0.02633951,-71.140645,220.1346)">
      <path
         inkscape:connector-curvature="0"
         id="rect3713"
         d="m 61.621051,73.993932 c -2.77,0 -5.000213,1.935174 -5.000213,4.338727 v 78.093481 c 0,2.40355 2.230213,4.33872 5.000213,4.33872 h 89.999719 c 2.77,0 5.00021,-1.93517 5.00021,-4.33872 V 78.332659 c 0,-2.403553 -2.23021,-4.338727 -5.00021,-4.338727 z m 7.71064,6.72377 h 75.000119 c 2.77,0 4.9997,1.934725 4.9997,4.338276 v 65.078202 c 0,2.40355 -2.2297,4.33872 -4.9997,4.33872 H 69.331691 c -2.770002,0 -5.000212,-1.93517 -5.000212,-4.33872 V 85.055978 c 0,-2.403551 2.23021,-4.338276 5.000212,-4.338276 z"
         style="stroke-width:0.24646166;" />
      <rect
         style="fill-opacity:0;stroke-width:10.04511166"
         id="rect815"
         width="11.256933"
         height="43.125153"
         x="100.01084"
         y="78.981178" />
      <rect
         style="fill-opacity:0;stroke-width:10.04511166"
         id="rect817"
         width="4.5979023"
         height="43.6008"
         x="103.18182"
         y="79.298271" />
      <rect
         style="fill-opacity:0;stroke-width:10.04511166"
         id="rect819"
         width="6.9761338"
         height="76.10321"
         x="100.01084"
         y="78.981178" />
      <rect
         style="fill-opacity:0;stroke-width:10.04511166"
         id="rect821"
         width="13.318068"
         height="77.054504"
         x="100.01084"
         y="78.981178" />
      <rect
         style="fill-opacity:0;stroke-width:10.04511166"
         id="rect823"
         width="13.318069"
         height="77.054497"
         x="100.01084"
         y="78.981178" />
      <rect
         style="fill-opacity:0;stroke-width:10.04511166"
         id="rect825"
         width="12.208224"
         height="46.454666"
         x="103.02326"
         y="83.103432" />
      <path
         sodipodi:type="star"
         style="fill-opacity:0;stroke-width:10.04511166;"
         id="path4532"
         sodipodi:sides="4"
         sodipodi:cx="103.18182"
         sodipodi:cy="79.298271"
         sodipodi:r1="77.405373"
         sodipodi:r2="54.733864"
         sodipodi:arg1="1.4393277"
         sodipodi:arg2="2.2247259"
         inkscape:flatsided="true"
         inkscape:rounded="3"
         inkscape:randomized="0"
         d="M 113.32891,156.03567 C -212.2403,199.08612 69.494876,415.01457 26.444425,89.44536 -16.606026,-236.12385 -232.53447,45.611324 93.034735,2.5608728 418.60394,-40.489578 136.86877,-256.41803 179.91922,69.151183 222.96967,394.72039 438.89812,112.98522 113.32891,156.03567 Z" />
      <rect
         style="fill-opacity:0;"
         id="rect4534"
         width="10.147089"
         height="76.737396"
         x="103.18182"
         y="79.298271" />
      <rect
         style="fill-opacity:0;stroke-width:10.04511166"
         id="rect4553"
         width="12.208237"
         height="63.102242"
         x="90.973587"
         y="92.933434"
         ry="0" />
      <rect
         style="fill-opacity:0;stroke-width:10.04511166"
         id="rect4555"
         width="13.635154"
         height="32.185314"
         x="97.632622"
         y="89.921013" />
    </g>
    <rect
       y="-224.25317"
       x="68.222313"
       height="2.0298977"
       width="0.20057756"
       id="rect3724-3"
       style="stroke-width:0.01099592"
       transform="scale(-1)" />
  </g>
</svg>
