<?xml version="1.0" encoding="UTF-8" standalone="no"?>
<svg
   xmlns:dc="http://purl.org/dc/elements/1.1/"
   xmlns:cc="http://creativecommons.org/ns#"
   xmlns:rdf="http://www.w3.org/1999/02/22-rdf-syntax-ns#"
   xmlns:svg="http://www.w3.org/2000/svg"
   xmlns="http://www.w3.org/2000/svg"
   xmlns:sodipodi="http://sodipodi.sourceforge.net/DTD/sodipodi-0.dtd"
   xmlns:inkscape="http://www.inkscape.org/namespaces/inkscape"
   id="visual"
   viewBox="0 0 22 22"
   version="1.1"
   sodipodi:docname="newElement.svg"
   inkscape:version="0.92.3 (2405546, 2018-03-11)">
  <metadata
     id="metadata29">
    <rdf:RDF>
      <cc:Work
         rdf:about="">
        <dc:format>image/svg+xml</dc:format>
        <dc:type
           rdf:resource="http://purl.org/dc/dcmitype/StillImage" />
        <dc:title>newElement</dc:title>
      </cc:Work>
    </rdf:RDF>
  </metadata>
  <sodipodi:namedview
     pagecolor="#ffffff"
     bordercolor="#666666"
     borderopacity="1"
     objecttolerance="10"
     gridtolerance="10"
     guidetolerance="10"
     inkscape:pageopacity="0"
     inkscape:pageshadow="2"
     inkscape:window-width="1680"
     inkscape:window-height="987"
     id="namedview27"
     showgrid="false"
     inkscape:zoom="10.727273"
     inkscape:cx="11"
     inkscape:cy="11"
     inkscape:window-x="1912"
     inkscape:window-y="-8"
     inkscape:window-maximized="1"
     inkscape:current-layer="visual" />
  <defs
     id="defs4">
    <style
       id="style2">.cls-1{fill:none;stroke:#fbfbfd;stroke-miterlimit:10;}.cls-2{fill:#fbfbfd;}</style>
  </defs>
  <title
     id="title6">newElement</title>
  <line
     class="cls-1"
     x1="17"
     y1="3"
     x2="17"
     y2="9"
     id="line8"
     style="stroke:#008fb8;stroke-opacity:1" />
  <line
     class="cls-1"
     x1="14"
     y1="6"
     x2="20"
     y2="6"
     id="line10"
     style="stroke:#008fb8;stroke-opacity:1" />
  <line
     class="cls-1"
     x1="14.88"
     y1="8.1199999"
     x2="19.120001"
     y2="3.8800001"
     id="line12"
     style="display:inline;fill:none;stroke:#008fb8;stroke-miterlimit:10;stroke-opacity:1" />
  <line
     class="cls-1"
     x1="19.120001"
     y1="8.1199999"
     x2="14.88"
     y2="3.8800001"
     id="line14"
     style="display:inline;fill:none;stroke:#008fb8;stroke-miterlimit:10;stroke-opacity:1" />
  <path
     class="cls-2"
     d="M15,9.45A3.92,3.92,0,0,1,14.38,9H5v2H15Z"
     id="path16"
     style="fill:#008fb8;fill-opacity:1" />
  <rect
     class="cls-2"
     x="5"
     y="15"
     width="10"
     height="2"
     id="rect18"
     style="fill:#008fb8;fill-opacity:1" />
  <rect
     class="cls-2"
     x="5"
     y="12"
     width="10"
     height="2"
     id="rect20"
     style="fill:#008fb8;fill-opacity:1" />
  <path
     class="cls-2"
     d="M5,8h8.55A4,4,0,0,1,13,6H5Z"
     id="path22"
     style="fill:#008fb8;fill-opacity:1" />
  <path
     class="cls-2"
     d="M17,10a4.09,4.09,0,0,1-1-.14V18H4V5h9.14a4,4,0,0,1,1.24-2H2V20H18V9.86A4.09,4.09,0,0,1,17,10Z"
     id="path24"
     style="fill:#008fb8;fill-opacity:1" />
</svg>
