<?xml version="1.0" encoding="UTF-8" standalone="no"?>
<svg
   xmlns:dc="http://purl.org/dc/elements/1.1/"
   xmlns:cc="http://creativecommons.org/ns#"
   xmlns:rdf="http://www.w3.org/1999/02/22-rdf-syntax-ns#"
   xmlns:svg="http://www.w3.org/2000/svg"
   xmlns="http://www.w3.org/2000/svg"
   xmlns:sodipodi="http://sodipodi.sourceforge.net/DTD/sodipodi-0.dtd"
   xmlns:inkscape="http://www.inkscape.org/namespaces/inkscape"
   id="visual"
   viewBox="0 0 22 22"
   version="1.1"
   sodipodi:docname="keywords.svg"
   inkscape:version="0.92.3 (2405546, 2018-03-11)">
  <metadata
     id="metadata29">
    <rdf:RDF>
      <cc:Work
         rdf:about="">
        <dc:format>image/svg+xml</dc:format>
        <dc:type
           rdf:resource="http://purl.org/dc/dcmitype/StillImage" />
        <dc:title>newElementDisabled</dc:title>
      </cc:Work>
    </rdf:RDF>
  </metadata>
  <sodipodi:namedview
     pagecolor="#ffffff"
     bordercolor="#666666"
     borderopacity="1"
     objecttolerance="10"
     gridtolerance="10"
     guidetolerance="10"
     inkscape:pageopacity="0"
     inkscape:pageshadow="2"
     inkscape:window-width="1920"
     inkscape:window-height="1017"
     id="namedview27"
     showgrid="false"
     inkscape:pagecheckerboard="true"
     inkscape:zoom="8"
     inkscape:cx="-34.885171"
     inkscape:cy="35.094012"
     inkscape:window-x="-8"
     inkscape:window-y="-8"
     inkscape:window-maximized="1"
     inkscape:current-layer="visual" />
  <defs
     id="defs4">
    <style
       id="style2">.cls-1{fill:none;stroke:#cfd1d2;stroke-miterlimit:10;}.cls-2{fill:#cfd1d2;}</style>
  </defs>
  <title
     id="title6">newElementDisabled</title>
  <path
     d="m 5,14 v -2 h 10 v 0.273438 A 4.2584896,4.2584896 0 0 0 11.947266,14 Z"
     id="path16"
     style="fill:#fbfbfd;fill-opacity:1"
     inkscape:connector-curvature="0" />
  <rect
     class="cls-2"
     x="5"
     y="-8"
     width="10"
     height="2"
     id="rect18"
     style="fill:#fbfbfd;fill-opacity:1"
     transform="scale(1,-1)" />
  <rect
     class="cls-2"
     x="5"
     y="-11"
     width="10"
     height="2"
     id="rect20"
     style="fill:#fbfbfd;fill-opacity:1"
     transform="scale(1,-1)" />
  <path
     d="m 5,17 v -2 h 6.416016 A 4.2584896,4.2584896 0 0 0 11.121094,16.556641 4.2584896,4.2584896 0 0 0 11.144531,17 Z"
     id="path22"
     style="fill:#fbfbfd;fill-opacity:1"
     inkscape:connector-curvature="0" />
  <path
     d="M 2,20 V 3 H 18 V 13.140625 A 4.09,4.09 0 0 0 17.855469,13.109375 4.2584896,4.2584896 0 0 0 16,12.324219 V 5 H 4 v 13 h 7.333984 a 4.2584896,4.2584896 0 0 0 1.535157,2 z"
     id="path24"
     style="fill:#fbfbfd;fill-opacity:1"
     inkscape:connector-curvature="0" />
  <path
     inkscape:connector-curvature="0"
     id="path8"
     d="m 17.626492,18.351546 -0.8772,-0.877199 a 1.7519482,1.7519482 0 1 0 -0.286683,0.286682 l 0.87965,0.882101 a 0.20618067,0.20618067 0 1 0 0.291583,-0.291584 z m -3.574955,-1.979824 a 1.3378514,1.3378514 0 1 1 1.337851,1.337852 1.3403016,1.3403016 0 0 1 -1.337851,-1.337852 z"
     style="display:inline;stroke:#fbfbfd;stroke-width:1.22904396;stroke-miterlimit:4;stroke-dasharray:none;stroke-opacity:1" />
</svg>
