<svg id="visual" xmlns="http://www.w3.org/2000/svg" viewBox="0 0 22 22"><defs><style>.cls-1{fill:#008fb8;}</style></defs><title>root</title><path class="cls-1" d="M12.42,4,13.7,5.27,16.38,8V18H5.77V4h6.65m.83-2H3.77V20H18.38V7.12L13.25,2Z"/><path class="cls-1" d="M11.77,11.41a.91.91,0,0,1,.44.24,3,3,0,0,1,.47.75l1.58,3.14h-1.9l-1-2.21-.12-.25c-.31-.66-.68-1-1.09-1H9.55v3.46H7.82V6.79h2.49a3.87,3.87,0,0,1,2.43.6,2.37,2.37,0,0,1,.73,2A2.18,2.18,0,0,1,13,10.77,1.84,1.84,0,0,1,11.77,11.41ZM9.55,8.25v2.38h.81a1.5,1.5,0,0,0,1-.28,1.19,1.19,0,0,0,.3-.91,1.21,1.21,0,0,0-.3-.92,1.52,1.52,0,0,0-1-.27Z"/></svg>