<svg id="visual" xmlns="http://www.w3.org/2000/svg" viewBox="0 0 22 22"><defs><style>.cls-1{fill:#008fb8;}.cls-2{fill:#fbfbfd;}</style></defs><title>wp</title><path class="cls-1" d="M18.38,20H3.77V2h9.48l5.13,5.12Z"/><path class="cls-2" d="M5.24,9H6.38l.47,4.82.56-3.12H8.49l.66,3.12L9.52,9h1.14L9.9,15.54H8.7L8,12.1l-.7,3.44H6.05Z"/><path class="cls-2" d="M12.45,9h1.78a3.15,3.15,0,0,1,2,.48A1.94,1.94,0,0,1,16.78,11a1.92,1.92,0,0,1-.59,1.57,3.14,3.14,0,0,1-2,.49h-.48v2.45h-1.3Zm1.3,1.09V12h.53a1.43,1.43,0,0,0,.89-.22.9.9,0,0,0,.26-.75.89.89,0,0,0-.26-.74,1.36,1.36,0,0,0-.89-.22Z"/></svg>