<svg id="visual" xmlns="http://www.w3.org/2000/svg" viewBox="0 0 22 22"><defs><style>.cls-1{fill:#4c4c4c;}</style></defs><path class="cls-1" d="M13.68,14.32A6.29,6.29,0,0,0,10.75,9,4.85,4.85,0,0,1,4,9a6.31,6.31,0,0,0-2.92,5.32Z"/><path class="cls-1" d="M7.36,1.68a3.83,3.83,0,1,0,3.82,3.83A3.83,3.83,0,0,0,7.36,1.68Z"/><path class="cls-1" d="M13.53,13H11v1h2.66A6.51,6.51,0,0,0,13.53,13Z"/><path class="cls-1" d="M9,10.08a4.92,4.92,0,0,1-1.64.3l-.36,0v4H9Z"/><path class="cls-1" d="M11,11v1h2.23a6.27,6.27,0,0,0-.51-1Z"/><polygon class="cls-1" points="17 15 14.68 15 14.68 15.32 13.68 15.32 11 15.32 11 16 17 16 17 15"/><path class="cls-1" d="M7,9.29c.12,0,.24,0,.36,0A3.76,3.76,0,0,0,9,9V4h1.87a3.81,3.81,0,0,0-2-2H7Z"/><path class="cls-1" d="M11,9.18V10h1A6.22,6.22,0,0,0,11,9.18Z"/><path class="cls-1" d="M17,9H12.35a7.07,7.07,0,0,1,.9,1H17Z"/><path class="cls-1" d="M16.71,2H10.65a4.83,4.83,0,0,1,1.27,2H15V8h4V18H9V15.32H7V20H21V6.29ZM17,6V5.12l.88.88Z"/><path class="cls-1" d="M17,11H13.87a8.8,8.8,0,0,1,.42,1H17Z"/><path class="cls-1" d="M17,13H14.54a8.27,8.27,0,0,1,.12,1H17Z"/></svg>