<?xml version="1.0" encoding="UTF-8" standalone="no"?>
<!-- Created with Inkscape (http://www.inkscape.org/) -->

<svg
   xmlns:dc="http://purl.org/dc/elements/1.1/"
   xmlns:cc="http://creativecommons.org/ns#"
   xmlns:rdf="http://www.w3.org/1999/02/22-rdf-syntax-ns#"
   xmlns:svg="http://www.w3.org/2000/svg"
   xmlns="http://www.w3.org/2000/svg"
   xmlns:sodipodi="http://sodipodi.sourceforge.net/DTD/sodipodi-0.dtd"
   xmlns:inkscape="http://www.inkscape.org/namespaces/inkscape"
   width="22mm"
   height="22mm"
   viewBox="0 0 22 22"
   version="1.1"
   id="svg948"
   inkscape:version="0.92.3 (2405546, 2018-03-11)"
   sodipodi:docname="garbage-can-open.svg">
  <defs
     id="defs942" />
  <sodipodi:namedview
     id="base"
     pagecolor="#ffffff"
     bordercolor="#666666"
     borderopacity="1.0"
     inkscape:pageopacity="0.0"
     inkscape:pageshadow="2"
     inkscape:zoom="3.959798"
     inkscape:cx="38.931258"
     inkscape:cy="58.860326"
     inkscape:document-units="mm"
     inkscape:current-layer="layer1"
     showgrid="false"
     inkscape:window-width="1680"
     inkscape:window-height="987"
     inkscape:window-x="1912"
     inkscape:window-y="-8"
     inkscape:window-maximized="1" />
  <metadata
     id="metadata945">
    <rdf:RDF>
      <cc:Work
         rdf:about="">
        <dc:format>image/svg+xml</dc:format>
        <dc:type
           rdf:resource="http://purl.org/dc/dcmitype/StillImage" />
        <dc:title></dc:title>
      </cc:Work>
    </rdf:RDF>
  </metadata>
  <g
     inkscape:label="Ebene 1"
     inkscape:groupmode="layer"
     id="layer1"
     transform="translate(0,-275)">
    <path
       style="fill:#008fb8;fill-opacity:1;fill-rule:nonzero;stroke:none;stroke-width:0.44164908"
       d="m 4.163497,282.17395 v 11.3693 c 0,1.7874 0.8765889,3.2285 1.9654464,3.2285 H 16.238708 c 1.088857,0 1.965445,-1.4411 1.965445,-3.2285 v -11.3693 z m 11.239897,1.54474 c 0.03725,-0.008 0.0723,0 0.110557,0 0.612198,0 1.105563,1.10232 1.105563,2.47158 v 5.82367 c 0,1.36927 -0.493365,2.4716 -1.105563,2.4716 -0.6122,0 -1.105565,-1.10233 -1.105565,-2.4716 v -5.82367 c 0,-1.28368 0.436424,-2.34546 0.995008,-2.47158 z m -8.5251246,0.0927 c 0.037241,-0.008 0.072294,0 0.1105532,0 0.6122001,0 1.1055645,1.10233 1.1055645,2.4716 v 5.82367 c 0,1.36925 -0.4933644,2.47159 -1.1055645,2.47159 -0.6121983,0 -1.105563,-1.10234 -1.105563,-2.47159 v -5.82367 c 0,-1.28369 0.4364243,-2.34549 0.9950069,-2.4716 z m 4.4222546,0.0465 c 0.612198,0 1.105563,1.10233 1.105563,2.47158 v 5.83912 c 0,1.36926 -0.493365,2.47159 -1.105563,2.47159 -0.612198,0 -1.105565,-1.10233 -1.105565,-2.47159 v -5.83912 c 0,-1.36925 0.493367,-2.47158 1.105565,-2.47158 z"
       id="rect3938"
       inkscape:connector-curvature="0"
       inkscape:export-filename="D:\Development\Workspaces\CWS_20232\com.top_logic\webapp\themes\default\colorchooser\resetColors.png"
       inkscape:export-xdpi="31"
       inkscape:export-ydpi="31" />
    <g
       id="g4037"
       transform="matrix(0.42691109,-0.11314088,0.11314088,0.42691109,-5.1605467,275.0755)"
       inkscape:export-filename="D:\Development\Workspaces\CWS_20232\com.top_logic\webapp\themes\default\colorchooser\resetColors.png"
       inkscape:export-xdpi="31"
       inkscape:export-ydpi="31"
       style="fill:#008fb8;fill-opacity:1">
      <path
         inkscape:connector-curvature="0"
         id="rect3938-1"
         d="m 18.233234,14.883558 c -2.606161,0 -4.706183,2.173904 -4.878848,4.960329 h 36.545336 c -0.172666,-2.786425 -2.272686,-4.960329 -4.878848,-4.960329 z"
         style="fill:#008fb8;fill-opacity:1;fill-rule:nonzero;stroke:none" />
      <path
         inkscape:connector-curvature="0"
         id="rect3964"
         d="m 25.757978,10.173506 c -0.869235,0 -1.569015,1.752236 -1.569015,3.928783 v 0.654797 h 0.866227 c 0.187148,-1.53933 0.700183,-2.660114 1.307513,-2.660114 h 10.018814 c 0.607331,0 1.120365,1.120784 1.307513,2.660114 h 0.996978 v -0.654797 c 0,-2.176547 -0.699781,-3.928783 -1.569015,-3.928783 z"
         style="fill:#008fb8;fill-opacity:1;fill-rule:nonzero;stroke:none" />
    </g>
  </g>
</svg>
