<?xml version="1.0" encoding="UTF-8" standalone="no"?>
<svg
   xmlns:dc="http://purl.org/dc/elements/1.1/"
   xmlns:cc="http://creativecommons.org/ns#"
   xmlns:rdf="http://www.w3.org/1999/02/22-rdf-syntax-ns#"
   xmlns:svg="http://www.w3.org/2000/svg"
   xmlns="http://www.w3.org/2000/svg"
   xmlns:sodipodi="http://sodipodi.sourceforge.net/DTD/sodipodi-0.dtd"
   xmlns:inkscape="http://www.inkscape.org/namespaces/inkscape"
   id="visual"
   viewBox="0 0 22 22"
   version="1.1"
   sodipodi:docname="gear-double.svg"
   inkscape:version="0.92.3 (2405546, 2018-03-11)">
  <metadata
     id="metadata3302">
    <rdf:RDF>
      <cc:Work
         rdf:about="">
        <dc:format>image/svg+xml</dc:format>
        <dc:type
           rdf:resource="http://purl.org/dc/dcmitype/StillImage" />
        <dc:title />
      </cc:Work>
    </rdf:RDF>
  </metadata>
  <sodipodi:namedview
     pagecolor="#ffffff"
     bordercolor="#666666"
     borderopacity="1"
     objecttolerance="10"
     gridtolerance="10"
     guidetolerance="10"
     inkscape:pageopacity="0"
     inkscape:pageshadow="2"
     inkscape:window-width="1680"
     inkscape:window-height="987"
     id="namedview3300"
     showgrid="false"
     inkscape:zoom="2.6818182"
     inkscape:cx="-38.961413"
     inkscape:cy="-22.730482"
     inkscape:window-x="1912"
     inkscape:window-y="-8"
     inkscape:window-maximized="1"
     inkscape:current-layer="visual" />
  <defs
     id="defs3295">
    <style
       id="style3293">.cls-1{fill:#d9d9d9;}</style>
  </defs>
  <path
     id="path3297"
     style="fill:#008fb8;fill-opacity:1;stroke-width:0.7876178"
     d="m 21.87454,16.849863 a 5.970143,5.970143 0 0 0 0,-2.362853 h -1.614617 a 4.3397741,4.3397741 0 0 0 -0.504075,-1.181428 l 1.149922,-1.181427 a 6.4742181,6.4742181 0 0 0 -1.669749,-1.669749 l -1.181428,1.149922 A 4.3397741,4.3397741 0 0 0 16.873167,11.100253 V 9.4856362 a 5.970143,5.970143 0 0 0 -2.362853,0 v 1.6146168 a 4.3397741,4.3397741 0 0 0 -1.181427,0.504075 L 12.14746,10.454406 a 6.4742181,6.4742181 0 0 0 -1.669749,1.669749 l 1.149922,1.181427 A 4.3397741,4.3397741 0 0 0 11.123557,14.48701 H 9.5089413 a 5.970143,5.970143 0 0 0 0,2.362853 h 1.6146157 a 4.3397741,4.3397741 0 0 0 0.504076,1.181425 l -1.149922,1.181429 a 6.4742181,6.4742181 0 0 0 1.669749,1.669749 l 1.181427,-1.149922 a 4.3397741,4.3397741 0 0 0 1.212932,0.504075 v 1.614617 a 5.970143,5.970143 0 0 0 2.362853,0 v -1.614617 a 4.3397741,4.3397741 0 0 0 1.149921,-0.504075 l 1.149923,1.149922 a 6.4742181,6.4742181 0 0 0 1.66975,-1.669749 l -1.118418,-1.181429 a 4.3397741,4.3397741 0 0 0 0.504075,-1.212931 z m -6.1828,1.181425 a 2.3628534,2.3628534 0 1 1 2.362853,-2.362852 2.3628534,2.3628534 0 0 1 -2.362853,2.362852 z"
     inkscape:connector-curvature="0" />
  <path
     id="path3297-4"
     style="fill:#008fb8;fill-opacity:1;stroke-width:0.79346639"
     d="M 9.5450044,0.88285788 A 6.0144755,6.0144755 0 0 0 7.3227095,0.02980024 L 6.739786,1.5483681 A 4.3719999,4.3719999 0 0 0 5.4466525,1.595928 L 4.7506598,0.0878816 A 6.5222937,6.5222937 0 0 0 2.5774117,1.0554741 L 3.2323979,2.5817779 A 4.3719999,4.3719999 0 0 0 2.3317792,3.5109389 L 0.81321158,2.9280153 A 6.0144755,6.0144755 0 0 0 -0.03984718,5.1503091 L 1.4787205,5.7332327 a 4.3719999,4.3719999 0 0 0 0.047555,1.293133 L 0.01823501,7.7223586 a 6.5222937,6.5222937 0 0 0 0.9675926,2.1732479 L 2.5121302,9.2406195 A 4.3719999,4.3719999 0 0 0 3.441292,10.14124 l -0.5829234,1.518566 a 6.0144755,6.0144755 0 0 0 2.222294,0.853058 l 0.5829228,-1.518566 a 4.3719999,4.3719999 0 0 0 1.2931314,-0.0476 l 0.6959936,1.508043 A 6.5222937,6.5222937 0 0 0 9.8259605,11.487192 L 9.1709722,9.9608875 A 4.3719999,4.3719999 0 0 0 10.082965,9.0020961 L 11.601534,9.58502 A 6.0144755,6.0144755 0 0 0 12.454591,7.3627257 L 10.936025,6.7798026 A 4.3719999,4.3719999 0 0 0 10.87709,5.5162997 L 12.373761,4.8499383 A 6.5222937,6.5222937 0 0 0 11.406169,2.6766884 L 9.8912395,3.3020449 A 4.3719999,4.3719999 0 0 0 8.9324489,2.3900517 Z M 8.4239787,7.1243913 A 2.3803992,2.3803992 0 1 1 7.0547445,4.0490394 2.3803992,2.3803992 0 0 1 8.4239787,7.1243913 Z"
     inkscape:connector-curvature="0" />
</svg>
