<svg id="visual" xmlns="http://www.w3.org/2000/svg" viewBox="0 0 22 22"><defs><style>.cls-1{fill:none;stroke:#008fb8;stroke-miterlimit:10;stroke-width:2px;}.cls-2{fill:#008fb8;}.cls-3{fill:#fbfbfd;}</style></defs><title>excelImportButtonIcon</title><polygon class="cls-1" points="12 19.37 2.81 17.65 2.81 4.35 12 2.63 12 19.37"/><path class="cls-2" d="M9.84,7.71,7.73,11,10,14.68l-1.95-.17L6.93,12.23,5.84,14.32l-1.59-.13L6.19,11,4.4,8.12,6,8l.93,1.86,1-2Z"/><rect class="cls-1" x="12" y="5" width="7" height="12"/><line class="cls-1" x1="12" y1="8" x2="17" y2="8"/><line class="cls-1" x1="12" y1="11" x2="17" y2="11"/><line class="cls-1" x1="12" y1="14" x2="17" y2="14"/><circle class="cls-3" cx="17" cy="17" r="4"/><line class="cls-1" x1="17" y1="19" x2="17" y2="16.89"/><polygon class="cls-2" points="14.81 17.19 19.19 17.19 17 15 14.81 17.19"/></svg>