<svg id="visual" xmlns="http://www.w3.org/2000/svg" viewBox="0 0 22 22"><defs><style>.cls-1{fill:#fbfbfd;}.cls-2{fill:#008fb8;}</style></defs><title>info</title><rect class="cls-1" x="2.45" y="2.45" width="17.1" height="17.1" rx="3.32"/><path class="cls-2" d="M16.23,3A2.77,2.77,0,0,1,19,5.77V16.23A2.77,2.77,0,0,1,16.23,19H5.77A2.77,2.77,0,0,1,3,16.23V5.77A2.77,2.77,0,0,1,5.77,3H16.23m0-1.1H5.77A3.87,3.87,0,0,0,1.9,5.77V16.23A3.87,3.87,0,0,0,5.77,20.1H16.23a3.87,3.87,0,0,0,3.87-3.87V5.77A3.87,3.87,0,0,0,16.23,1.9Z"/><path class="cls-2" d="M8.42,8.87h3.79v5.84h2.37v1.47H7.91V14.71h2.38V10.34H8.42Zm1.87-3.56h1.92V7.54H10.29Z"/></svg>