<svg id="visual" xmlns="http://www.w3.org/2000/svg" viewBox="0 0 120 120"><defs><style>.cls-1{fill:#fbfbfd;}.cls-2,.cls-3{fill:none;stroke:#454952;stroke-miterlimit:10;}.cls-2{stroke-width:4px;}.cls-3{stroke-width:7px;}</style></defs><title>Project</title><circle class="cls-1" cx="60" cy="62" r="53"/><line class="cls-2" x1="24" y1="89.45" x2="96" y2="89.45"/><line class="cls-2" x1="36.66" y1="76" x2="36.66" y2="89.45"/><line class="cls-2" x1="74.64" y1="76.4" x2="74.64" y2="89.85"/><line class="cls-3" x1="30.73" y1="89.45" x2="42.59" y2="89.45"/><line class="cls-3" x1="68.7" y1="89.45" x2="80.57" y2="89.45"/><polygon class="cls-2" points="25.58 43.56 37.45 35.65 54.86 35.65 54.86 65.72 45.36 76 25.58 76 25.58 43.56"/><line class="cls-2" x1="45.36" y1="43.56" x2="54.86" y2="35.65"/><line class="cls-2" x1="29.93" y1="49.89" x2="40.62" y2="49.89"/><polyline class="cls-2" points="25.58 43.56 45.36 43.56 45.36 76"/><polygon class="cls-2" points="65.14 43.56 77.01 35.65 94.42 35.65 94.42 65.72 84.92 76 65.14 76 65.14 43.56"/><line class="cls-2" x1="84.92" y1="43.56" x2="94.42" y2="35.65"/><line class="cls-2" x1="69.49" y1="49.89" x2="80.18" y2="49.89"/><polyline class="cls-2" points="65.14 43.56 84.92 43.56 84.92 76"/></svg>