<svg id="visual" xmlns="http://www.w3.org/2000/svg" viewBox="0 0 120 120"><defs><style>.cls-1{fill:#fbfbfd;}.cls-2{fill:#454952;}</style></defs><title>role</title><circle class="cls-1" cx="60" cy="60" r="53"/><circle class="cls-2" cx="60" cy="43.37" r="19.37"/><path class="cls-2" d="M76.25,60.43a23.51,23.51,0,0,1-32.5,0A32,32,0,0,0,28,88H92A32,32,0,0,0,76.25,60.43Z"/><circle class="cls-1" cx="82.2" cy="81.1" r="18.93"/><path class="cls-2" d="M97.2,83.1v-4H93.52A11.33,11.33,0,0,0,93,77.18l3.19-1.84-2-3.47L91,73.71a11.82,11.82,0,0,0-1.42-1.41l1.84-3.19-3.46-2-1.84,3.2a11.19,11.19,0,0,0-1.93-.52V66.1h-4v3.69a11.33,11.33,0,0,0-1.92.52l-1.85-3.2-3.46,2,1.84,3.19a11.74,11.74,0,0,0-1.41,1.41l-3.19-1.84-2,3.47,3.19,1.84a11.31,11.31,0,0,0-.51,1.92H67.2v4h3.69A11.17,11.17,0,0,0,71.4,85l-3.19,1.84,2,3.47L73.4,88.5a11.74,11.74,0,0,0,1.41,1.41L73,93.09l3.46,2,1.85-3.19a11.33,11.33,0,0,0,1.92.52V96.1h4V92.42a11.19,11.19,0,0,0,1.93-.52L88,95.09l3.46-2-1.84-3.18A11.82,11.82,0,0,0,91,88.5l3.18,1.84,2-3.47L93,85a11.19,11.19,0,0,0,.52-1.93Zm-15,5a7,7,0,1,1,7-7A7,7,0,0,1,82.2,88.14Z"/></svg>