<svg id="visual" xmlns="http://www.w3.org/2000/svg" viewBox="0 0 120 120"><defs><style>.cls-1{fill:#008fb8;}</style></defs><title>dialog-question</title><path class="cls-1" d="M99.14,21.14H21.86A12.42,12.42,0,0,0,9.59,33.67V78.56A12.42,12.42,0,0,0,21.86,91.08H28V106L49.3,91.08H99.14a12.42,12.42,0,0,0,12.27-12.52V33.67A12.42,12.42,0,0,0,99.14,21.14Zm-33,59.51H55.52V70.19H66.18ZM72.3,55.59c-2.93,2.17-6,3.94-6.66,7.95v2.58H56.47V63.06c.41-5.91,3.19-8.56,5.91-10.66s5-3.67,5-7.34c0-4.14-2.18-6.11-5.78-6.11-4.89,0-6.92,4-7,8.83h-10C44.79,38.07,51.17,31,61.09,31,73.93,31,78,38.88,78,44.11,78,50.7,75.22,53.35,72.3,55.59Z"/></svg>