<svg id="visual" xmlns="http://www.w3.org/2000/svg" viewBox="0 0 22 22"><defs><style>.cls-1{fill:none;stroke-width:2px;}.cls-1,.cls-3{stroke:#4c4c4c;stroke-miterlimit:10;}.cls-2{fill:#4c4c4c;}.cls-3{fill:#fbfbfd;}.cls-4{fill:#bb0a30;}</style></defs><circle class="cls-1" cx="11" cy="11" r="9"/><circle class="cls-2" cx="11" cy="11" r="6"/><circle class="cls-3" cx="6.25" cy="6.25" r="5.75"/><path class="cls-4" d="M3.94,3.32H5.11V6.81h.63v1H5.11V9H4V7.77H1.78V6.69ZM4,4.57,2.6,6.81H4Z"/><path class="cls-4" d="M7.58,8H10V9H6.37V8L7,7.39,8.3,6a2.86,2.86,0,0,0,.41-.58,1.15,1.15,0,0,0,.12-.5A.74.74,0,0,0,8.6,4.3,1,1,0,0,0,8,4.1a2.27,2.27,0,0,0-.68.12,3.76,3.76,0,0,0-.78.35V3.52a5.11,5.11,0,0,1,.8-.23A4,4,0,0,1,8,3.21a2.16,2.16,0,0,1,1.41.42A1.41,1.41,0,0,1,10,4.78a1.85,1.85,0,0,1-.11.63,2.93,2.93,0,0,1-.39.65q-.2.26-1.11,1.17Z"/></svg>