<svg id="visual" xmlns="http://www.w3.org/2000/svg" viewBox="0 0 120 120"><defs><style>.cls-1{fill:#bb0a30;}</style></defs><path class="cls-1" d="M110.25,51.27,109.68,48h-9.32a41.84,41.84,0,0,0-3.31-8l6.59-6.59-1.94-2.75A50.93,50.93,0,0,0,89.36,18.3l-2.75-1.94L80,23a41.84,41.84,0,0,0-8-3.31V10.32l-3.32-.57a51.58,51.58,0,0,0-17.44,0L48,10.32v9.32A41.84,41.84,0,0,0,40,23l-6.59-6.59L30.64,18.3A50.93,50.93,0,0,0,18.3,30.64l-1.94,2.75L23,40a41.84,41.84,0,0,0-3.31,8H10.32l-.57,3.31a51.18,51.18,0,0,0,0,17.46L10.32,72h9.32A41.84,41.84,0,0,0,23,80l-6.59,6.59,1.94,2.75A50.93,50.93,0,0,0,30.64,101.7l2.75,1.94L40,97.05a41.84,41.84,0,0,0,8,3.31v9.32l3.31.57a51.18,51.18,0,0,0,17.46,0l3.31-.57v-9.32a41.84,41.84,0,0,0,8-3.31l6.59,6.59,2.75-1.94A50.93,50.93,0,0,0,101.7,89.36l1.94-2.75L97.05,80a41.84,41.84,0,0,0,3.31-8h9.32l.57-3.31a51.18,51.18,0,0,0,0-17.46ZM102.81,64H94l-.68,3.16a33.56,33.56,0,0,1-4.67,11.28L86.92,81.2l6.21,6.21a42.94,42.94,0,0,1-5.72,5.72L81.2,86.92l-2.72,1.75A33.56,33.56,0,0,1,67.2,93.34L64,94v8.79a43.62,43.62,0,0,1-8.08,0V94l-3.16-.68a33.56,33.56,0,0,1-11.28-4.67L38.8,86.92l-6.21,6.21a42.94,42.94,0,0,1-5.72-5.72l6.21-6.21-1.75-2.72A33.56,33.56,0,0,1,26.66,67.2L26,64H17.19c-.13-1.34-.19-2.69-.19-4s.06-2.7.19-4H26l.68-3.16a33.56,33.56,0,0,1,4.67-11.28l1.75-2.72-6.21-6.21a42.35,42.35,0,0,1,5.72-5.72l6.21,6.21,2.72-1.75A33.56,33.56,0,0,1,52.8,26.66L56,26V17.19a43.62,43.62,0,0,1,8.08,0V26l3.16.68a33.56,33.56,0,0,1,11.28,4.67l2.72,1.75,6.21-6.21a42.35,42.35,0,0,1,5.72,5.72L86.92,38.8l1.75,2.72A33.56,33.56,0,0,1,93.34,52.8L94,56h8.79c.13,1.34.19,2.69.19,4S102.94,62.7,102.81,64Z"/><path class="cls-1" d="M60,39.53H58.73V34.76l-15.2,8.77,15.2,8.78V47.53H60A12.49,12.49,0,0,1,72.47,60h8A20.49,20.49,0,0,0,60,39.53Z"/><path class="cls-1" d="M61.27,72.47H60A12.49,12.49,0,0,1,47.53,60h-8A20.49,20.49,0,0,0,60,80.47h1.27v4.77l15.2-8.77-15.2-8.78Z"/></svg>