<svg id="visual" xmlns="http://www.w3.org/2000/svg" viewBox="0 0 120 120"><defs><style>.cls-1{fill:#fbfbfd;}.cls-2{fill:#4c4c4c;}</style></defs><circle class="cls-1" cx="60" cy="62" r="53"/><circle class="cls-2" cx="47.66" cy="40.11" r="12.39"/><circle class="cls-2" cx="71.53" cy="63.99" r="12.39"/><path class="cls-2" d="M82.52,75.3a15.68,15.68,0,0,1-22,0,20.42,20.42,0,0,0-9.48,17.23H92A20.42,20.42,0,0,0,82.52,75.3Z"/><path class="cls-2" d="M55.74,64a15.74,15.74,0,0,1,4.74-11.26,21.1,21.1,0,0,0-1.84-1.3,15.71,15.71,0,0,1-22,0,20.42,20.42,0,0,0-9.48,17.23H56.52A15.76,15.76,0,0,1,55.74,64Z"/></svg>