<?xml version="1.0" standalone="no"?>
<!DOCTYPE svg PUBLIC "-//W3C//DTD SVG 1.1//EN" "http://www.w3.org/Graphics/SVG/1.1/DTD/svg11.dtd" >
<svg xmlns="http://www.w3.org/2000/svg" xmlns:xlink="http://www.w3.org/1999/xlink" version="1.1">
<metadata></metadata>
<defs>
<font id="droid_serifbold_italic" horiz-adv-x="1145" >
<font-face units-per-em="2048" ascent="1638" descent="-410" />
<missing-glyph horiz-adv-x="532" />
<glyph unicode="&#xd;" horiz-adv-x="1044" />
<glyph unicode=" "  horiz-adv-x="532" />
<glyph unicode="&#x09;" horiz-adv-x="532" />
<glyph unicode="&#xa0;" horiz-adv-x="532" />
<glyph unicode="!" horiz-adv-x="809" d="M430 1462h356l-354 -995h-119zM502 168q0 -51 -15.5 -86.5t-41 -57t-57.5 -31t-64 -9.5q-75 0 -120.5 36t-45.5 111q0 42 12.5 76t35.5 58t56 37t74 13q35 0 65.5 -9t53 -27t35 -46t12.5 -65z" />
<glyph unicode="&#x22;" horiz-adv-x="1040" d="M807 1462h319l-213 -563h-135zM360 1462h320l-234 -563h-135z" />
<glyph unicode="#" d="M1036 551l-14 -141h-256l-119 -410h-145l119 410h-213l-121 -410h-146l121 410h-205l15 141h231l111 371h-238l17 143h264l112 397h148l-115 -397h213l117 397h145l-116 -397h196l-16 -143h-223l-109 -371h227zM449 551h215l110 371h-215z" />
<glyph unicode="$" d="M1030 481q0 -95 -34.5 -169t-99 -126t-156 -80t-205.5 -30l-50 -238h-114l51 240q-187 15 -279 87t-92 187q0 97 59.5 141t168.5 44q0 -72 12 -127t34.5 -95t53.5 -66t70 -40l92 436q-73 39 -129 78.5t-94.5 86t-58 102t-19.5 126.5q0 85 33.5 152.5t94.5 114.5t146.5 73 t190.5 29l32 149h115l-35 -153q162 -13 243 -68t81 -139q0 -42 -12 -75t-39 -56t-71.5 -35t-109.5 -12q0 37 -7 75.5t-21 74t-36.5 64t-53.5 44.5l-86 -404l47 -24q141 -74 209.5 -162t68.5 -205zM768 389q0 28 -5 52.5t-19 47.5t-38.5 47t-62.5 50l-84 -393q48 1 86.5 15.5 t65.5 40.5t42 62t15 78zM504 1106q0 -59 24.5 -98t73.5 -74l76 356q-35 -5 -66.5 -17.5t-55.5 -35t-38 -55t-14 -76.5z" />
<glyph unicode="%" horiz-adv-x="1835" d="M526 0h-159l1015 1462h154zM147 872q0 64 12 134t37.5 138t63.5 129.5t90.5 108t119 74t148.5 27.5q78 0 134 -23t92 -64t53.5 -97t17.5 -121q0 -59 -12.5 -127t-37.5 -135t-64 -129t-92.5 -109.5t-121.5 -76t-151 -28.5q-66 0 -119.5 19.5t-91 57.5t-58 93.5 t-20.5 128.5zM612 1376q-40 0 -73.5 -27.5t-60.5 -71.5t-47.5 -100t-34 -114t-20.5 -112.5t-7 -94.5q0 -81 20 -129.5t70 -48.5q40 0 73.5 27.5t60.5 71.5t47.5 100.5t34 114.5t20.5 112.5t7 95.5q0 82 -19.5 128t-70.5 48zM997 279q0 64 12 134t37.5 138t63.5 129 t90.5 107.5t119 74t148.5 27.5q78 0 134 -23t92 -64t53.5 -97t17.5 -121q0 -59 -12.5 -126.5t-37.5 -135t-64 -129t-92.5 -109t-121.5 -76t-151 -28.5q-66 0 -119.5 19.5t-91 57t-58 93.5t-20.5 129zM1462 782q-40 0 -73.5 -27.5t-60.5 -71.5t-47.5 -100t-34 -114 t-20.5 -112.5t-7 -94.5q0 -81 20 -129.5t70 -48.5q40 0 73.5 27.5t60.5 71.5t47.5 100.5t34 114.5t20.5 112.5t7 95.5q0 82 -19.5 128t-70.5 48z" />
<glyph unicode="&#x26;" horiz-adv-x="1640" d="M1110 0l-102 141q-85 -72 -197.5 -116.5t-261.5 -44.5q-124 0 -214 29t-149 81t-87.5 122t-28.5 153q0 102 36 174.5t97 125.5t142 91t171 71q-46 79 -71 155t-25 148q0 88 31 154t89.5 110t144 66.5t194.5 22.5q94 0 162.5 -20.5t113.5 -56.5t66.5 -84.5t21.5 -104.5 q0 -71 -21 -124.5t-68.5 -98.5t-123.5 -85.5t-186 -85.5l252 -331q35 74 60 151t40 152l16 77h410l-23 -108h-18q-35 0 -68 -4t-64.5 -18.5t-59.5 -41.5t-52 -73q-31 -60 -65.5 -127.5t-79.5 -137.5l129 -169q31 -42 77.5 -63t112.5 -21h15l-23 -109h-393zM371 381 q0 -57 16 -105.5t47 -83.5t76 -55t102 -20q96 0 174.5 36.5t141.5 98.5l-334 463q-61 -34 -103.5 -70t-69 -76.5t-38.5 -87t-12 -100.5zM1010 1188q0 81 -36.5 126.5t-109.5 45.5q-36 0 -67 -14t-53.5 -41t-35 -67t-12.5 -91q0 -59 20 -112t60 -113q63 27 107.5 54t72.5 58 t41 68.5t13 85.5z" />
<glyph unicode="'" horiz-adv-x="594" d="M340 1462h319l-213 -563h-135z" />
<glyph unicode="(" horiz-adv-x="819" d="M401 285q0 -63 9 -126t30 -120.5t55.5 -107t84.5 -85.5l-27 -131q-124 43 -212.5 111t-145 154.5t-83 188t-26.5 212.5q0 127 23.5 256t70.5 251t118 233t166.5 202t215 157.5t264.5 100.5l-20 -129q-77 -42 -137.5 -97t-107.5 -117t-82 -129t-60.5 -133t-43 -128 t-30.5 -115q-38 -154 -50 -264.5t-12 -183.5z" />
<glyph unicode=")" horiz-adv-x="819" d="M453 1014q0 63 -9 126t-30 120t-55.5 106.5t-84.5 85.5l27 131q124 -43 212.5 -111t145 -154.5t83 -188t26.5 -211.5q0 -127 -23.5 -256t-70.5 -251t-118 -233t-166.5 -202t-215 -158t-264.5 -103l20 131q77 42 137.5 97t107.5 117t82 129t60.5 133t43 128t30.5 115 q38 155 50 264.5t12 184.5z" />
<glyph unicode="*" horiz-adv-x="1266" d="M295 1323l133 184l252 -280l4 340l225 -47l-141 -308l344 146l47 -219l-328 -13l295 -147l-133 -178l-256 272l2 -340l-223 47l135 314l-342 -150l-49 217l330 17z" />
<glyph unicode="+" d="M678 659v-366h-148v366h-364v146h364v366h148v-366h366v-146h-366z" />
<glyph unicode="," horiz-adv-x="602" d="M428 127q0 -78 -28.5 -148t-85 -127t-141 -98.5t-196.5 -62.5l23 108q211 50 211 170q0 21 -8.5 36.5t-21.5 28t-27.5 24.5t-27.5 27.5t-21.5 36t-8.5 50.5q0 33 12.5 59t33.5 44.5t49 28t59 9.5q37 0 69.5 -12.5t56.5 -36t38 -58t14 -79.5z" />
<glyph unicode="-" horiz-adv-x="635" d="M20 451l48 215h532l-47 -215h-533z" />
<glyph unicode="." horiz-adv-x="623" d="M434 168q0 -51 -15.5 -86.5t-41 -57t-57.5 -31t-64 -9.5q-74 0 -120 36t-46 111q0 42 12.5 76t36 58t56 37t73.5 13q35 0 65.5 -9t53 -27t35 -46t12.5 -65z" />
<glyph unicode="/" horiz-adv-x="590" d="M-51 -248h-160l873 1804h159z" />
<glyph unicode="0" d="M76 473q0 106 17.5 222t53 228.5t89.5 214.5t127.5 179t166.5 122.5t207 45.5q88 0 164 -27.5t132.5 -85t89 -146t32.5 -210.5q0 -103 -17 -220.5t-51.5 -233t-87.5 -221.5t-125.5 -187t-165.5 -129t-206 -48q-95 0 -173.5 32t-134.5 95t-87 155.5t-31 213.5zM356 385 q0 -137 43 -202.5t115 -65.5q60 0 111 47.5t92 126.5t72.5 180t52.5 208.5t32 212.5t11 191q0 135 -41.5 200t-116.5 65q-58 0 -108 -47t-91 -125t-73 -179t-54 -208t-33.5 -212t-11.5 -192z" />
<glyph unicode="1" d="M969 1470l-260 -1222q-3 -13 -8 -36t-5 -36q0 -22 11.5 -35.5t32.5 -20.5t49 -9t61 -2h100l-22 -109h-846l22 109h121q73 0 118 29.5t60 103.5l158 745q13 62 25 113t22 89q11 44 21 79h-8q-48 -50 -88.5 -89.5t-75.5 -67t-67.5 -42t-65.5 -14.5q-44 0 -71.5 39.5 t-27.5 111.5q35 9 72 21t79 30t90.5 43.5t106.5 63.5l166 106h230z" />
<glyph unicode="2" d="M-29 0l43 211l478 403q104 88 171 161t106 137.5t54 125t15 125.5q0 42 -9.5 77.5t-28 61t-45.5 40t-61 14.5q-51 0 -90.5 -27t-67.5 -73.5t-44.5 -109.5t-20.5 -136q-51 0 -94 10.5t-74.5 32t-49 55t-17.5 78.5q0 61 31.5 115t92 94.5t150 64t205.5 23.5q105 0 186 -20 t136 -56.5t83.5 -89.5t28.5 -119q0 -68 -28 -133.5t-83.5 -134.5t-138.5 -144.5t-192 -164.5l-492 -396h477q49 0 83.5 14.5t58.5 38t40.5 53.5t30.5 62l15 37h120l-100 -430h-969z" />
<glyph unicode="3" d="M457 125q51 0 99 20t85 60.5t59.5 100.5t22.5 140q0 118 -76 182t-213 64h-88l21 127h65q86 0 159 26t126.5 74t83.5 115t30 148q0 38 -8.5 70.5t-25.5 56t-43.5 36.5t-63.5 13q-56 0 -95.5 -25t-66.5 -67t-44 -97.5t-27 -115.5q-49 0 -91.5 6.5t-73.5 21.5t-49 40 t-18 63q0 63 39.5 117.5t107.5 95t159.5 63.5t195.5 23q94 0 171.5 -19.5t133 -57t85.5 -92t30 -124.5q0 -72 -25.5 -141t-77 -126.5t-129 -100t-180.5 -60.5q71 -8 128 -31t96.5 -61t61 -90.5t21.5 -118.5q0 -91 -26 -162t-71 -124t-105 -90.5t-128 -60.5t-140.5 -33.5 t-141.5 -10.5q-120 0 -202.5 22.5t-133.5 58t-73.5 79.5t-22.5 87q0 81 59.5 127.5t165.5 46.5q0 -60 14 -110.5t43 -87t73 -57.5t104 -21z" />
<glyph unicode="4" d="M674 874q8 41 19 89.5t23.5 100.5t26.5 104t29 100q-22 -35 -51 -77t-59.5 -84.5t-59.5 -80.5t-51 -65l-363 -445h410zM264 0l21 109h59q30 0 61 3.5t58 18t48 44t32 81.5l26 125h-569l29 127l784 954h287l-203 -946h213l-29 -135h-213l-26 -127q-3 -12 -5.5 -33 t-2.5 -31q0 -26 9.5 -42t27 -24.5t42.5 -11.5t56 -3h37l-23 -109h-719z" />
<glyph unicode="5" d="M434 123q67 0 121.5 23t93 69t59.5 115.5t21 161.5q0 66 -19 115t-52 82t-78.5 49t-98.5 16q-37 0 -67 -4t-55 -10.5t-47 -14.5t-42 -16l-86 43l209 710h774l-59 -372h-125q2 26 4 55.5t2 42.5q0 23 -21 37t-79 14h-412l-121 -383q38 11 88 22t125 11q106 0 192 -25 t146.5 -73.5t93.5 -120t33 -164.5q0 -112 -43 -208.5t-123.5 -167t-196.5 -110.5t-263 -40q-107 0 -181 19t-120 51.5t-66.5 76t-20.5 92.5q0 34 11.5 63.5t35 52t59.5 35.5t85 13q1 -44 10.5 -90t34 -84t67.5 -62t111 -24z" />
<glyph unicode="6" d="M829 1362q-132 0 -231 -140.5t-162 -426.5q23 18 53 36t67.5 32.5t82 24t96.5 9.5q89 0 154.5 -29t108 -78.5t63 -115.5t20.5 -139q0 -108 -33.5 -208t-102 -177t-172 -123.5t-243.5 -46.5q-88 0 -165.5 30.5t-135.5 92.5t-91.5 154.5t-33.5 217.5q0 128 23.5 252t69 236 t111.5 207t150.5 165t187 109t220.5 39q84 0 147.5 -17t106.5 -46.5t64.5 -67.5t21.5 -80q0 -82 -67 -128t-189 -46q0 50 -3.5 97.5t-16 84.5t-36.5 59.5t-65 22.5zM641 772q-33 0 -65.5 -9.5t-62.5 -24.5t-56 -34t-47 -38q-25 -149 -25 -256q0 -155 47 -226t127 -71 q52 0 95 31t74 85.5t48 128.5t17 160q0 124 -38.5 189t-113.5 65z" />
<glyph unicode="7" d="M213 0l809 1239h-526q-56 0 -92 -26.5t-50 -77.5l-28 -103h-125l84 430h977l-23 -121l-852 -1341h-174z" />
<glyph unicode="8" d="M506 -20q-108 0 -196 26t-151 73t-97.5 111.5t-34.5 141.5q0 86 31 148t85 109t127.5 83t159.5 69q-44 33 -80 73.5t-62 86.5t-40.5 97t-14.5 106q0 77 28.5 146t91 120.5t161 82t238.5 30.5q97 0 173 -22.5t128.5 -62.5t80 -95t27.5 -119q0 -78 -25 -137.5t-70.5 -106.5 t-109 -84.5t-139.5 -71.5q53 -34 98.5 -72.5t78.5 -84t52 -98.5t19 -115q0 -112 -41 -194t-115.5 -135t-177 -79t-225.5 -26zM522 98q54 0 102 16t84 48.5t57 80.5t21 113q0 50 -15 92t-44 79.5t-72.5 71t-101.5 65.5q-117 -48 -183.5 -131t-66.5 -209q0 -106 58 -166 t161 -60zM903 1169q0 42 -9.5 77.5t-29.5 61.5t-50.5 41t-72.5 15q-48 0 -89 -17.5t-71 -50t-47.5 -78.5t-17.5 -104q0 -160 174 -266q59 31 100 66.5t66 75.5t36 85t11 94z" />
<glyph unicode="9" d="M391 109q75 0 135.5 39t111 114t92.5 185.5t81 254.5q-26 -27 -58 -52t-70 -44.5t-83 -31t-98 -11.5q-82 0 -146 25.5t-107.5 70.5t-66 107.5t-22.5 136.5q0 128 46.5 235t125.5 183.5t183.5 119t221.5 42.5q92 0 166.5 -27t127 -78.5t80.5 -126.5t28 -172q0 -24 -2 -60 t-6.5 -78t-12 -88.5t-18.5 -92.5q-22 -99 -55.5 -195t-80 -182.5t-106 -160.5t-133.5 -127.5t-162.5 -84t-193.5 -30.5q-82 0 -141 17t-97 45.5t-56 66.5t-18 81q0 69 42.5 105.5t117.5 36.5q1 -39 11 -79t31 -72t53.5 -52t78.5 -20zM606 711q40 1 74.5 15t64 36.5 t53.5 50.5t42 57q6 25 11.5 55t9.5 60t6.5 58t2.5 49q0 67 -11 115.5t-31.5 79t-48 45t-60.5 14.5q-58 0 -106.5 -38t-83.5 -99.5t-54.5 -139t-19.5 -156.5q0 -100 41 -151t110 -51z" />
<glyph unicode=":" horiz-adv-x="733" d="M434 168q0 -51 -15.5 -86.5t-41 -57t-57.5 -31t-64 -9.5q-74 0 -120 36t-46 111q0 42 12.5 76t36 58t56 37t73.5 13q35 0 65.5 -9t53 -27t35 -46t12.5 -65zM614 961q0 -52 -15.5 -87.5t-41 -57t-57.5 -31t-64 -9.5q-74 0 -120 36t-46 112q0 41 12.5 75t36 58t56.5 37.5 t74 13.5q35 0 65.5 -9t52.5 -27t34.5 -46t12.5 -65z" />
<glyph unicode=";" horiz-adv-x="733" d="M428 127q0 -78 -28.5 -148t-85 -127t-141 -98.5t-196.5 -62.5l23 108q211 50 211 170q0 21 -8.5 36.5t-21.5 28t-27.5 24.5t-27.5 27.5t-21.5 36t-8.5 50.5q0 33 12.5 59t33.5 44.5t49 28t59 9.5q37 0 69.5 -12.5t56.5 -36t38 -58t14 -79.5zM614 961q0 -52 -15.5 -87.5 t-41 -57t-57.5 -31t-64 -9.5q-74 0 -120 36t-46 112q0 41 12.5 75t36 58t56.5 37.5t74 13.5q35 0 65.5 -9t52.5 -27t34.5 -46t12.5 -65z" />
<glyph unicode="&#x3c;" d="M166 690v84l878 479v-161l-659 -361l659 -356v-162z" />
<glyph unicode="=" d="M1053 604v-143h-887v143h887zM1053 1001v-143h-887v143h887z" />
<glyph unicode="&#x3e;" d="M166 213v162l659 356l-659 361v161l878 -479v-84z" />
<glyph unicode="?" horiz-adv-x="1096" d="M1122 1143q0 -89 -39 -162.5t-107 -134t-161.5 -109.5t-202.5 -88l-73 -182h-131l-5 254q91 33 164.5 72.5t126 90t81 115t28.5 148.5q0 51 -11.5 90t-31 66t-47 41t-58.5 14q-48 0 -82.5 -25t-57.5 -66.5t-36 -95.5t-20 -112q-252 0 -252 158q0 55 33 103.5t94.5 84.5 t149 57t196.5 21q102 0 184 -20t139 -62t88 -106t31 -152zM602 168q0 -51 -15.5 -86.5t-41 -57t-57.5 -31t-64 -9.5q-74 0 -120 36t-46 111q0 42 12.5 76t36 58t56 37t73.5 13q35 0 65.5 -9t53 -27t35 -46t12.5 -65z" />
<glyph unicode="@" horiz-adv-x="1886" d="M1790 803q0 -153 -37 -273t-97 -202.5t-135.5 -126t-152.5 -43.5q-91 0 -154.5 44.5t-97.5 147.5h-12q-21 -40 -48 -75t-61 -61t-77 -41t-97 -15q-65 0 -123 21t-102 64t-70 109t-26 156q0 55 13 119t41 127.5t72 123t105 105t140.5 73t179.5 27.5q71 0 121.5 -18 t82.5 -43l86 43h50l-86 -512q-3 -12 -5.5 -31t-4.5 -39t-3.5 -38.5t-1.5 -30.5q0 -42 9 -69t23 -42.5t32 -21t35 -5.5q40 0 82 34t76 99.5t55.5 162.5t21.5 223q0 140 -42.5 245.5t-118.5 176t-180.5 106t-227.5 35.5q-97 0 -191.5 -27t-180 -79t-157.5 -127.5t-125 -172 t-82.5 -213.5t-29.5 -252q0 -181 54 -309t146.5 -209t216 -118t261.5 -37q83 0 162 15t150 39t132 55t109 63l49 -78q-54 -41 -123 -77t-149 -63t-171 -43t-188 -16q-117 0 -225 21.5t-202.5 65.5t-172.5 109.5t-133.5 153.5t-86 198t-30.5 243q0 137 33.5 262t95 231.5 t149.5 193t197 148t236.5 94.5t269.5 33q177 0 312 -51t226 -139.5t137 -209t46 -259.5zM752 487q0 -102 36 -156.5t95 -54.5q43 0 74.5 21t53.5 55.5t36 77.5t22 88l82 418q-6 14 -17.5 24.5t-26.5 18t-32 11t-33 3.5q-52 0 -93.5 -26t-73.5 -68.5t-55.5 -97t-38.5 -110.5 t-22 -109.5t-7 -94.5z" />
<glyph unicode="A" horiz-adv-x="1542" d="M438 481l-100 -184q-20 -37 -29.5 -65t-9.5 -50q0 -38 28 -55.5t87 -17.5h41l-23 -109h-532l22 109h43q28 0 49.5 6.5t41.5 24.5t41.5 49t49.5 79l695 1194h280l172 -1206q5 -32 13.5 -59t22.5 -46.5t35.5 -30.5t53.5 -11h37l-22 -109h-676l22 109h47q66 0 105 20.5 t39 65.5q0 17 -1 33.5t-3 31.5l-31 221h-498zM885 950q-5 45 -9.5 84.5t-8 76.5t-6 72t-3.5 72q-15 -37 -30 -68.5t-32 -64t-37.5 -69t-47.5 -84.5l-203 -363h414z" />
<glyph unicode="B" horiz-adv-x="1376" d="M-25 109h27q32 0 62.5 4t55.5 17t43.5 37t26.5 64l209 986q5 20 9 39.5t4 27.5q0 22 -11 36t-30.5 21.5t-47 10t-59.5 2.5h-26l22 108h635q238 0 358.5 -77.5t120.5 -229.5q0 -84 -25.5 -148t-70.5 -110.5t-106 -76.5t-132 -46l-2 -8q55 -10 101 -34t79 -61.5t51.5 -88.5 t18.5 -115q0 -112 -38 -199t-112 -146.5t-184.5 -90.5t-255.5 -31h-745zM489 125h142q87 0 147.5 23t98.5 68t55.5 111.5t17.5 153.5q0 112 -51 166.5t-158 54.5h-129zM639 829h115q145 0 209.5 75.5t64.5 215.5q0 109 -49 163t-143 54h-91z" />
<glyph unicode="C" horiz-adv-x="1368" d="M823 152q71 0 128 16t102 42.5t79 59.5t60 68q12 -9 23.5 -28t11.5 -42q0 -51 -31 -102.5t-91.5 -93t-149.5 -67t-205 -25.5q-147 0 -262.5 36.5t-195 107t-121.5 173t-42 233.5q0 123 29 242t84 226t134.5 197t180 156t220.5 103t257 37q102 0 178.5 -17.5t127 -49 t75.5 -77t25 -100.5q0 -45 -22 -79t-60.5 -57.5t-91.5 -35.5t-115 -12q0 43 -6 95t-24.5 97t-52.5 75t-91 30q-81 0 -149.5 -37t-125 -100.5t-100 -147.5t-73 -177.5t-45 -191t-15.5 -188.5q0 -175 89 -270.5t265 -95.5z" />
<glyph unicode="D" horiz-adv-x="1573" d="M-27 109h29q32 0 62.5 4t55.5 17t43.5 37t26.5 64l213 1006q4 11 6.5 25t2.5 22q0 22 -11 36t-30.5 21.5t-47 10t-59.5 2.5h-26l22 108h655q147 0 262.5 -36t195 -106.5t121.5 -174.5t42 -240q0 -122 -25.5 -236.5t-75 -215t-122.5 -184t-169 -143.5t-214.5 -93 t-257.5 -33h-721zM584 127q144 0 257 58.5t191 164t119 251.5t41 321q0 107 -25 185.5t-71.5 129.5t-113 75.5t-148.5 24.5h-86l-256 -1210h92z" />
<glyph unicode="E" horiz-adv-x="1296" d="M-25 109h27q32 0 62.5 4t55.5 17t43.5 37t26.5 64l213 1006q4 11 6.5 25t2.5 22q0 22 -11 36t-30.5 21.5t-47 10t-59.5 2.5h-26l22 108h1112l-72 -381h-145q1 7 2.5 25t3 37.5t3 36t1.5 20.5q0 28 -8 53t-25 44t-44.5 29.5t-67.5 10.5h-272l-109 -512h465l-27 -123h-465 l-123 -577h324q48 0 86 13.5t66 36.5t47.5 53.5t31.5 64.5l33 88h146l-95 -381h-1175z" />
<glyph unicode="F" horiz-adv-x="1272" d="M514 242q-5 -23 -7.5 -39.5t-2.5 -24.5q0 -22 11 -35.5t31 -21t47.5 -10t59.5 -2.5h27l-23 -109h-704l22 109h27q32 0 62.5 4t55.5 17t43.5 37t26.5 64l209 983q13 53 13 70q0 22 -11 36t-30.5 21.5t-47 10t-59.5 2.5h-26l22 108h1126l-71 -381h-146q2 17 4 36t3.5 36.5 t2.5 30t1 16.5q0 29 -8 54t-26 43.5t-47.5 29t-72.5 10.5h-278l-119 -559h485l-24 -121h-486z" />
<glyph unicode="G" horiz-adv-x="1630" d="M1544 590h-2q-34 0 -65.5 -4.5t-57 -17.5t-44.5 -38t-27 -65l-78 -391q-62 -24 -121.5 -41.5t-121 -29.5t-126.5 -17.5t-137 -5.5q-158 0 -276.5 38t-198.5 109t-120 172.5t-40 228.5q0 132 31 254.5t89 228.5t142 193t189 149t230.5 96t266.5 34q118 0 205 -21t145 -55 t86.5 -78t28.5 -90q0 -40 -23.5 -74.5t-63.5 -60t-94.5 -40.5t-115.5 -15q0 64 -13.5 119.5t-42 96.5t-72 64t-103.5 23q-78 0 -149 -32t-132 -89t-110.5 -136t-84.5 -173t-54 -200.5t-19 -217.5q0 -86 17 -156.5t54.5 -121.5t96 -79t141.5 -28q47 0 96 8t86 20l68 304 q12 54 12 69q0 22 -11 36t-30.5 21.5t-46.5 10t-59 2.5h-27l23 108h682z" />
<glyph unicode="H" horiz-adv-x="1677" d="M807 0l22 109h27q33 0 64 4t57 17.5t44.5 37.5t27.5 65l98 467h-535l-100 -475q-3 -11 -5.5 -25t-2.5 -22q0 -22 11 -35.5t31 -21t47.5 -10t59.5 -2.5h27l-23 -109h-704l22 109h27q32 0 62.5 4t55.5 17t43.5 37t26.5 64l209 983q13 53 13 70q0 22 -11 36t-30.5 21.5 t-47 10t-59.5 2.5h-26l22 108h707l-23 -108h-26q-34 0 -65.5 -4.5t-57.5 -17.5t-45 -38t-27 -65l-84 -404h535l86 398q5 21 7.5 37t2.5 24q0 22 -11.5 36t-31.5 21.5t-47.5 10t-59.5 2.5h-26l22 108h707l-23 -108h-26q-33 0 -64 -4.5t-57 -17.5t-44.5 -38t-27.5 -65 l-211 -1004q-3 -11 -5.5 -25t-2.5 -22q0 -22 11 -35.5t30.5 -21t46.5 -10t59 -2.5h27l-23 -109h-706z" />
<glyph unicode="I" horiz-adv-x="821" d="M-47 0l22 109h27q32 0 62.5 4t55.5 17t43.5 37t26.5 64l213 1006q4 11 6.5 25t2.5 22q0 22 -11 36t-30.5 21.5t-47 10t-59.5 2.5h-26l22 108h707l-23 -108h-26q-34 0 -65.5 -4.5t-57.5 -17.5t-45 -38t-27 -65l-211 -1004q-2 -11 -5 -25t-3 -22q0 -22 11 -35.5t31 -21 t47.5 -10t59.5 -2.5h27l-23 -109h-704z" />
<glyph unicode="J" horiz-adv-x="821" d="M463 -6q-26 -125 -87 -216.5t-144 -151.5t-183 -89t-205 -29q-55 0 -92.5 6t-75.5 17l29 113q13 -5 29.5 -8.5t34.5 -6t36 -3.5t33 -1q53 0 98.5 19t83 62.5t67.5 114t52 173.5l264 1243q4 11 6.5 25t2.5 22q0 22 -11 36t-30.5 21.5t-47 10t-59.5 2.5h-26l22 108h707 l-23 -108h-26q-34 0 -65.5 -4.5t-57.5 -17.5t-45 -38t-27 -65z" />
<glyph unicode="K" horiz-adv-x="1518" d="M1036 1110q42 37 68.5 66.5t42 53t21.5 41.5t6 32q0 26 -20 39.5t-71 13.5l23 106h553l-23 -106q-41 0 -79 -10t-77 -31t-81.5 -53t-91.5 -76l-332 -293l239 -576q25 -57 45.5 -97t42 -64.5t47 -35.5t60.5 -11h6l-20 -109h-107q-102 0 -169.5 12.5t-114 44.5t-79 86.5 t-65.5 139.5l-151 391l-121 -86l-76 -363q-2 -11 -5 -25t-3 -22q0 -22 11 -35.5t31 -21t47.5 -10t59.5 -2.5h27l-23 -109h-704l22 109h27q32 0 62.5 4t55.5 17t43.5 37t26.5 64l209 983q13 53 13 70q0 22 -11 36t-30.5 21.5t-47 10t-59.5 2.5h-26l22 108h707l-23 -108h-26 q-34 0 -65.5 -4.5t-57.5 -17.5t-45 -38t-27 -65l-102 -486z" />
<glyph unicode="L" horiz-adv-x="1339" d="M834 125q56 0 97 14t71.5 41.5t53.5 69.5t42 98l37 109h131l-113 -457h-1200l22 109h27q32 0 62.5 4t55.5 17t43.5 37t26.5 64l209 983q13 53 13 70q0 22 -11 36t-30.5 21.5t-47 10t-59.5 2.5h-26l22 108h707l-23 -108h-26q-34 0 -65.5 -4.5t-57.5 -17.5t-45 -38t-27 -65 l-231 -1104h342z" />
<glyph unicode="M" horiz-adv-x="1950" d="M2097 1462l-22 -108h-27q-33 0 -64 -4.5t-57 -17.5t-44.5 -38t-27.5 -65l-210 -1004q-4 -11 -6.5 -25t-2.5 -22q0 -22 11 -35.5t30.5 -21t47 -10t59.5 -2.5h26l-22 -109h-698l22 109h27q33 0 64 4t56.5 17.5t44.5 37.5t27 65l217 1027l-678 -1260h-141l-166 1260 l-217 -1018q-5 -23 -7.5 -39.5t-2.5 -24.5q0 -22 11 -35.5t31 -21t47.5 -10t59.5 -2.5h7l-23 -109h-516l22 109h27q32 0 62.5 4t55.5 17t43.5 37t26.5 64l209 983q13 53 13 70q0 22 -11 36t-30.5 21.5t-47 10t-59.5 2.5h-26l22 108h571l138 -995l536 995h592z" />
<glyph unicode="N" horiz-adv-x="1614" d="M1094 0l-555 1159l-193 -917q-5 -23 -7.5 -39.5t-2.5 -24.5q0 -22 11 -35.5t31 -21t47.5 -10t59.5 -2.5h7l-23 -109h-516l22 109h27q32 0 62.5 4t55.5 17t43.5 37t26.5 64l209 983q13 53 13 70q0 22 -11 36t-30.5 21.5t-47 10t-59.5 2.5h-26l22 108h455l499 -1050 l172 809q11 47 11 63q0 22 -11.5 36t-31.5 21.5t-47.5 10t-59.5 2.5h-6l23 108h516l-23 -108h-26q-32 0 -62.5 -4.5t-55.5 -17.5t-43.5 -37t-27.5 -64l-260 -1231h-188z" />
<glyph unicode="O" horiz-adv-x="1622" d="M129 545q0 98 24.5 206t73.5 212.5t122 199t169.5 166t217.5 114t265 42.5q113 0 215.5 -33t180.5 -102t124 -175t46 -253q0 -94 -23.5 -201t-71 -212t-119 -201t-168 -169.5t-218 -117.5t-267.5 -44q-121 0 -225.5 36.5t-181 108.5t-120.5 178t-44 245zM463 496 q0 -101 21.5 -173.5t59 -119t88.5 -68.5t109 -22q85 0 154.5 41t124.5 109.5t95.5 157t67 183.5t39.5 189.5t13 175.5q0 100 -21 172t-57.5 119t-87.5 69.5t-111 22.5q-85 0 -154.5 -41t-124.5 -109.5t-96 -157t-67.5 -184t-39.5 -190t-13 -174.5z" />
<glyph unicode="P" horiz-adv-x="1358" d="M610 678h86q93 0 157.5 28t104.5 78.5t58 120t18 152.5q0 77 -17.5 131t-48.5 88t-74.5 49.5t-94.5 15.5h-45zM512 225q-3 -11 -5.5 -25t-2.5 -22q0 -22 11 -35.5t31 -21t47.5 -10t59.5 -2.5h68l-23 -109h-745l22 109h27q32 0 62.5 4t55.5 17t43.5 37t26.5 64l209 983 q13 53 13 70q0 22 -11 36t-30.5 21.5t-47 10t-59.5 2.5h-26l22 108h586q120 0 217 -25.5t164.5 -76t104 -125t36.5 -172.5q0 -52 -10 -110t-35.5 -114t-70.5 -106.5t-114.5 -89t-167 -61.5t-229.5 -23h-155z" />
<glyph unicode="Q" horiz-adv-x="1612" d="M127 545q0 98 24.5 206t73.5 212.5t122 199t169.5 166t217.5 114t265 42.5q113 0 215.5 -33t180.5 -102t124 -175t46 -253q0 -84 -18.5 -177t-55 -186.5t-92.5 -182t-130.5 -163t-168.5 -130.5t-207 -83q3 -113 21 -185.5t49 -114t72.5 -57.5t92.5 -16h33l-26 -119h-148 q-92 0 -171 27.5t-137.5 86t-92.5 150.5t-37 222q-93 19 -170.5 63.5t-133.5 114t-87 163t-31 210.5zM461 496q0 -101 21.5 -173.5t59 -119t88.5 -68.5t109 -22q85 0 154.5 41t124.5 109.5t95.5 157t67 183.5t39.5 189.5t13 175.5q0 100 -21 172t-57.5 119t-87.5 69.5 t-111 22.5q-85 0 -154.5 -41t-124.5 -109.5t-96 -157t-67.5 -184t-39.5 -190t-13 -174.5zM700 -23z" />
<glyph unicode="R" horiz-adv-x="1448" d="M621 754h127q65 0 121.5 19t98 59.5t65.5 105t24 156.5q0 69 -12 116t-37 76.5t-63 42t-89 12.5h-104zM918 1462q245 0 366 -85t121 -257q0 -104 -33.5 -177t-86 -122.5t-117.5 -78.5t-128 -44l142 -381q21 -58 41 -98t42.5 -64.5t49 -35t61.5 -10.5h8l-22 -109h-21 q-107 0 -185.5 9t-134.5 34.5t-93 71t-60 118.5l-129 402h-141l-80 -375q-8 -37 -11 -55.5t-3 -26.5q0 -22 11 -35.5t31 -21t47.5 -10t59.5 -2.5h68l-23 -109h-745l22 109h27q32 0 62.5 4t55.5 17t43.5 37t26.5 64l209 983q13 53 13 70q0 22 -11 36t-30.5 21.5t-47 10 t-59.5 2.5h-26l22 108h658z" />
<glyph unicode="S" horiz-adv-x="1200" d="M535 -20q-127 0 -222 23t-158 63t-94.5 94.5t-31.5 118.5q0 48 19.5 84t55 60t84 36t107.5 12q0 -94 20 -163t56 -114.5t86 -67.5t110 -22q58 0 103 16.5t76.5 45t48 67t16.5 82.5q0 43 -10.5 79t-38.5 70t-77 69t-126 77q-80 44 -140.5 90.5t-101 100.5t-61 118.5 t-20.5 145.5q0 92 37 169t106 132.5t167 86t220 30.5q114 0 199 -18t141.5 -49t84.5 -73t28 -90q0 -83 -63 -130.5t-206 -47.5q0 46 -9 96t-32 91.5t-62 68.5t-99 27q-41 0 -81.5 -13t-72.5 -39t-52 -65.5t-20 -93.5t17 -92t51 -70.5t85 -63t120 -67.5q155 -84 229 -185.5 t74 -232.5q0 -109 -39.5 -194t-113 -143t-177.5 -88.5t-233 -30.5z" />
<glyph unicode="T" horiz-adv-x="1337" d="M213 0l23 109h26q32 0 62.5 4t55.5 17t43.5 37t27.5 64l231 1106h-164q-48 0 -81.5 -12t-58 -35.5t-41.5 -57.5t-32 -79l-29 -88h-137l94 397h1274l-71 -397h-138q1 7 3.5 31.5t5.5 52.5t5.5 51.5t2.5 28.5q0 54 -32.5 81t-111.5 27h-163l-236 -1112q-2 -11 -5 -25 t-3 -22q0 -22 11 -35.5t31 -21t47.5 -10t59.5 -2.5h27l-22 -109h-705z" />
<glyph unicode="U" horiz-adv-x="1530" d="M772 125q93 0 157 27t107 74.5t69 113t42 143.5l158 740q3 17 5.5 35t2.5 26q0 22 -11 36t-30.5 21.5t-47 10t-59.5 2.5h-26l22 108h539l-23 -108h-26q-33 0 -64 -4.5t-57 -17.5t-44.5 -38t-27.5 -65l-164 -778q-24 -115 -71.5 -203t-121 -147.5t-173.5 -90t-230 -30.5 q-120 0 -212 23.5t-155 69t-95.5 111.5t-32.5 150q0 16 2 40t5 49.5t7 50t8 42.5l150 698q12 55 12 70q0 22 -11 36t-30.5 21.5t-46.5 10t-59 2.5h-27l23 108h708l-22 -108h-27q-34 0 -65.5 -4.5t-57.5 -17t-44.5 -36.5t-27.5 -63l-155 -721q-4 -18 -8.5 -40t-8 -45.5 t-6 -47.5t-2.5 -45q0 -103 64 -156t188 -53z" />
<glyph unicode="V" horiz-adv-x="1430" d="M659 1272q0 -17 1.5 -36.5t3.5 -33.5l65 -540q4 -36 7.5 -83.5t5 -96t2.5 -92t1 -71.5q12 28 25.5 59t26 60t23.5 54t20 40l368 662q20 35 28.5 61t8.5 48q0 30 -30 40.5t-89 10.5h-47l21 108h534l-22 -108h-49q-30 0 -51.5 -5t-40.5 -19.5t-38 -41.5t-44 -71l-682 -1217 h-205l-172 1255q-5 31 -16.5 50.5t-28 30.5t-38 14.5t-46.5 3.5h-27l23 108h675l-22 -108h-47q-66 0 -105 -16.5t-39 -65.5z" />
<glyph unicode="W" horiz-adv-x="2185" d="M2367 1354h-49q-30 0 -53 -6t-42.5 -22.5t-39 -46t-41.5 -75.5l-573 -1204h-234l-141 977l-498 -977h-254l-110 1255q-3 31 -14 50.5t-28.5 30.5t-39.5 14.5t-47 3.5h-27l23 108h669l-22 -108h-47q-66 0 -105 -16.5t-39 -65.5q0 -17 1 -39t3 -51l39 -510q3 -27 6 -71.5 t5.5 -93.5t4 -96.5t1.5 -80.5q21 60 49 120.5t59 120.5l457 877h150l116 -782q14 -97 24.5 -185.5t10.5 -154.5q12 34 29 79t37.5 95.5t43.5 102.5t46 102l227 489q14 29 22.5 58t8.5 51q0 30 -27 40.5t-86 10.5h-47l20 108h535z" />
<glyph unicode="X" horiz-adv-x="1499" d="M1610 1354h-19q-30 0 -55 -7t-51.5 -24t-56 -45t-68.5 -70l-385 -405l252 -586q28 -63 65.5 -85.5t75.5 -22.5h27l-23 -109h-676l23 109h31q61 0 88.5 18.5t27.5 52.5q0 29 -10 64.5t-29 77.5l-125 282l-286 -297q-37 -38 -59.5 -73t-22.5 -64q0 -15 5 -26t17.5 -19 t34 -12t55.5 -4h7l-23 -109h-516l23 109h20q31 0 57.5 7.5t54 24.5t59 45t71.5 70l452 467l-229 526q-15 34 -30.5 55t-34.5 32t-42.5 14.5t-52.5 3.5h-18l22 108h678l-22 -108h-48q-51 0 -73.5 -15t-22.5 -43q0 -20 9.5 -49.5t27.5 -72.5l109 -254l241 258q28 29 50 63 t22 62q0 26 -25 38.5t-73 12.5h-6l22 108h477z" />
<glyph unicode="Y" horiz-adv-x="1419" d="M227 0l23 109h55q32 0 62 4.5t55 18t43 37.5t27 64l59 285l-221 727q-9 30 -18.5 51t-22.5 33.5t-32.5 18.5t-49.5 6h-27l23 108h665l-22 -108h-92q-47 0 -66.5 -16t-19.5 -44q0 -18 6 -52t18 -81l74 -289q7 -30 15 -64t14.5 -68t11 -66.5t6.5 -57.5q19 41 58 104t92 138 l202 289q25 35 43.5 76t18.5 75q0 28 -28.5 42t-96.5 14h-43l24 108h537l-23 -108h-38q-23 0 -42.5 -6t-39.5 -21.5t-42.5 -41t-50.5 -64.5l-507 -705l-62 -291q-2 -11 -5 -25t-3 -22q0 -22 11 -35.5t31 -21t47.5 -10t59.5 -2.5h50l-23 -109h-756z" />
<glyph unicode="Z" horiz-adv-x="1364" d="M1423 1358l-1011 -1233h422q46 0 87 12t75 38t61 68.5t45 104.5l22 74h148l-98 -422h-1178l18 102l1010 1235h-356q-93 0 -149.5 -42t-82.5 -136l-35 -119h-147l100 422h1090z" />
<glyph unicode="[" horiz-adv-x="848" d="M43 -262l387 1818h567l-22 -108h-88q-34 0 -65.5 -5t-58.5 -20.5t-47 -44.5t-30 -78l-276 -1306q-3 -16 -5 -28t-2 -23q0 -32 11 -51t30.5 -29t45.5 -13.5t55 -3.5h88l-23 -108h-567z" />
<glyph unicode="\" horiz-adv-x="590" d="M221 1556h144l110 -1804h-143z" />
<glyph unicode="]" horiz-adv-x="848" d="M844 1556l-387 -1818h-566l23 108h88q34 0 65.5 5t57.5 20.5t46 45t30 77.5l276 1306q6 31 6 52q0 31 -11 50t-30 29.5t-45 13.5t-55 3h-88l22 108h568z" />
<glyph unicode="^" d="M569 1462h88l435 -925h-160l-320 702l-315 -702h-160z" />
<glyph unicode="_" horiz-adv-x="940" d="M772 -291h-958l26 121h959z" />
<glyph unicode="`" horiz-adv-x="1182" d="M831 1241q-44 26 -93.5 66t-95.5 83.5t-84.5 85.5t-59.5 72l6 21h301q12 -37 31.5 -80t40.5 -84t42.5 -77t38.5 -60l-6 -27h-121z" />
<glyph unicode="a" horiz-adv-x="1362" d="M969 -20q-91 0 -146 41.5t-55 121.5q0 32 3 62.5t11 70.5h-14q-38 -71 -75.5 -126.5t-83.5 -93t-102.5 -57t-131.5 -19.5q-73 0 -128 28.5t-91.5 78.5t-55 118.5t-18.5 148.5t18.5 167.5t55.5 172.5t91.5 162t126 135t159.5 92.5t192 34.5q40 0 81.5 -6.5t79.5 -16.5 t71.5 -22.5t56.5 -25.5l108 49h109l-135 -639q-4 -17 -10 -45t-11.5 -59.5t-9.5 -61t-4 -49.5q0 -51 20 -76t52 -25q29 0 55.5 12.5t58.5 30.5l45 -82q-26 -20 -59 -41.5t-73.5 -39.5t-88 -29.5t-102.5 -11.5zM393 352q0 -59 8.5 -99t23 -64.5t35 -35t44.5 -10.5q45 0 93 39 t90 102.5t75.5 143.5t50.5 162l72 340q-20 29 -55.5 43t-75.5 14q-60 0 -109.5 -31t-89.5 -83t-70.5 -118t-51 -137t-30.5 -140t-10 -126z" />
<glyph unicode="b" horiz-adv-x="1276" d="M315 1274q3 13 6 27t5 26.5t3 21.5t1 13q0 28 -6 45t-19 26t-34 12t-50 3h-47l19 108h497l-82 -389q-4 -19 -12.5 -48t-19 -63t-23 -69.5t-23.5 -67.5t-20 -58t-14 -40h10q37 75 77 130.5t87 92.5t102 55.5t123 18.5q65 0 120 -24t94.5 -70.5t62 -116t22.5 -159.5 q0 -83 -20 -172t-59 -174.5t-95.5 -162t-130 -134t-162.5 -91.5t-192 -34q-42 0 -81 6t-72.5 16t-61 23t-46.5 28l-116 -59h-115zM883 733q0 61 -8.5 103t-23.5 68t-35 38t-42 12q-38 0 -73 -22.5t-66.5 -58.5t-58 -80.5t-47 -89t-34.5 -84t-20 -64.5l-84 -387 q22 -25 56 -41t77 -16q60 0 110 31.5t90 83t69.5 117.5t49.5 135t30 135.5t10 119.5z" />
<glyph unicode="c" horiz-adv-x="1081" d="M621 135q54 0 97.5 14.5t78.5 38.5t62 54t48 61q13 -12 22 -35.5t9 -54.5q0 -40 -23.5 -81.5t-73 -75t-125.5 -55t-181 -21.5q-93 0 -175.5 26t-144 79t-97.5 132t-36 186q0 76 19 158.5t57 162t94.5 151t131.5 125.5t168 86t204 32q85 0 146.5 -17.5t101 -47t58.5 -69 t19 -83.5q0 -32 -13.5 -62.5t-43.5 -55t-77.5 -39.5t-115.5 -15q0 54 -9.5 102.5t-28.5 85t-46.5 57.5t-64.5 21q-44 0 -82.5 -29.5t-70.5 -78t-56.5 -111t-42 -129t-26.5 -131t-9 -117.5q0 -125 57 -194.5t169 -69.5z" />
<glyph unicode="d" horiz-adv-x="1362" d="M393 352q0 -58 8.5 -98t23 -64.5t35 -35.5t44.5 -11q45 0 92.5 39t89.5 102t75.5 143t51.5 163l72 340q-22 28 -60 42.5t-75 14.5q-58 0 -107 -31.5t-88.5 -83t-70 -118t-50.5 -137t-30.5 -140t-10.5 -125.5zM1092 440l-8.5 -42.5t-10.5 -57.5t-8.5 -59t-3.5 -48 q0 -48 22 -70t50 -22q26 0 57.5 14t56.5 29l45 -80q-27 -22 -61 -44t-74.5 -40t-87.5 -29t-100 -11q-45 0 -82 10.5t-63.5 30.5t-41 50.5t-14.5 71.5q0 19 1 34t2.5 29.5t4 31t6.5 38.5h-12q-38 -79 -80 -135t-89.5 -92t-102 -52.5t-117.5 -16.5q-79 0 -135.5 30t-93 81 t-53.5 119t-17 144q0 80 18.5 167.5t55 172.5t90 162t123.5 135t155.5 92.5t186.5 34.5q60 0 112 -13t92 -36q3 13 6 30.5t6.5 35t7 33t5.5 24.5l18 82q3 13 6 27t5 26.5t3 21.5t1 13q0 28 -6 45t-19 26t-34 12t-50 3h-47l19 108h493z" />
<glyph unicode="e" horiz-adv-x="1096" d="M618 135q50 0 95 14.5t83.5 38t69 53t52.5 60.5q12 -15 19 -38.5t7 -49.5q0 -37 -24 -78t-73.5 -75.5t-126 -57t-181.5 -22.5q-94 0 -177 26t-145.5 78.5t-98.5 132t-36 186.5q0 76 20 159t59.5 162.5t98 151t135.5 125.5t172.5 85.5t208.5 31.5q147 0 228 -63.5 t81 -177.5q0 -83 -46 -159t-127 -133.5t-193 -91.5t-244 -34h-37t-39 2q-3 -20 -3.5 -40.5t-0.5 -37.5q0 -119 55.5 -183.5t167.5 -64.5zM690 995q-50 0 -95 -37.5t-81 -97.5t-62 -134.5t-38 -147.5h18q76 0 141.5 20t114 57.5t76 89.5t27.5 117q0 63 -26.5 98t-74.5 35z " />
<glyph unicode="f" horiz-adv-x="827" d="M870 958h-260l-194 -915q-23 -109 -59.5 -191t-82 -141.5t-98.5 -98.5t-109 -62t-114 -32.5t-113 -9.5q-15 0 -33 1.5t-35 4t-32 5.5t-25 6l25 119q17 -5 44 -10t50 -5q50 0 88.5 17t69 57.5t55 108.5t45.5 170l207 976h-186l20 97l197 43l16 76q24 101 64 176.5t99 126 t138.5 75.5t183.5 25q79 0 139.5 -14t101 -38t61 -56.5t20.5 -69.5q0 -68 -60 -106t-175 -38q0 39 -4.5 75.5t-15.5 64.5t-29 44.5t-46 16.5q-65 0 -99.5 -56t-55.5 -171l-27 -131h258z" />
<glyph unicode="g" horiz-adv-x="1188" d="M182 674q0 71 31.5 149.5t95 144t159.5 108t226 42.5q68 0 127.5 -15.5t104.5 -49.5q23 29 49 54.5t55 44t62 29.5t71 11q63 0 92 -30.5t29 -78.5q0 -25 -6.5 -51t-21.5 -47t-40.5 -34t-62.5 -13q0 42 -18.5 65t-53.5 23q-28 0 -51 -10t-43 -27q22 -29 36.5 -73t14.5 -91 q0 -45 -13 -94.5t-39 -98t-66 -93t-95 -78.5t-125 -54t-155 -20q-9 0 -23.5 0.5t-29.5 1t-29 1.5t-23 3q-48 -21 -80 -48.5t-32 -59.5q0 -17 8.5 -28t23 -17.5t34.5 -10.5t44 -6l230 -22q150 -14 233.5 -81.5t83.5 -197.5q0 -93 -42.5 -169.5t-124 -130.5t-200 -84 t-270.5 -30q-125 0 -213.5 18.5t-144.5 52.5t-82.5 82.5t-26.5 107.5q0 54 27.5 98t73.5 76.5t105 54.5t122 33q-20 10 -39 27.5t-33.5 40t-23.5 48t-9 52.5q0 32 13 60t40 55t69 54.5t100 59.5q-68 32 -106 95t-38 151zM721 -174q0 58 -44.5 89t-150.5 40l-182 16 q-45 -6 -84.5 -23t-69.5 -42t-47.5 -56.5t-17.5 -66.5q0 -32 11.5 -59.5t40 -48t78 -32.5t124.5 -12q90 0 154.5 16t106 43t61.5 62.5t20 73.5zM551 512q36 0 66 17t54 45t42 63.5t29.5 73.5t17.5 74.5t6 66.5q0 72 -28.5 105.5t-82.5 33.5q-53 0 -93 -35t-67 -87 t-41 -110.5t-14 -105.5q0 -75 29 -108t82 -33z" />
<glyph unicode="h" horiz-adv-x="1343" d="M754 190q0 44 7.5 105t24.5 139l35 162q5 20 11.5 49t12 60.5t9.5 63t4 56.5q0 19 -3.5 40t-12.5 38t-26 28t-44 11q-35 0 -69.5 -23.5t-66.5 -62t-60.5 -88t-52 -101.5t-40.5 -102t-26 -90l-107 -475h-307l270 1274q3 13 6 27t5 26.5t3 21.5t1 13q0 28 -6 45t-19 26 t-34 12t-50 3h-43l19 108h495l-96 -450q-8 -31 -17.5 -70t-18.5 -74q-11 -41 -21 -83h12q39 61 80.5 106t89.5 74.5t104.5 44t124.5 14.5q65 0 110 -19t72.5 -51.5t39.5 -75t12 -89.5q0 -26 -4 -55.5t-9.5 -59.5t-12 -60t-11.5 -57l-47 -219q-13 -56 -21 -104.5t-8 -91.5 q0 -45 19 -69t53 -24q32 0 58.5 12t62.5 35l49 -69q-25 -26 -56 -51.5t-69.5 -45.5t-85.5 -32t-103 -12q-117 0 -180 55.5t-63 154.5z" />
<glyph unicode="i" horiz-adv-x="725" d="M621 1098l-142 -666q-12 -56 -20 -104.5t-8 -91.5q0 -45 18.5 -69t52.5 -24q32 0 59 12t62 35l49 -69q-24 -26 -55 -51.5t-70 -45.5t-85.5 -32t-102.5 -12q-118 0 -181 55.5t-63 154.5q0 44 8 105t25 139l80 381q3 13 5.5 27t4.5 26.5t3 21.5t1 13q0 28 -6 45t-19 26 t-33.5 12t-49.5 3h-37l18 109h486zM479 1282q-34 0 -63 7.5t-50.5 23.5t-34 40t-12.5 56q0 45 15.5 76.5t41.5 52t61 30t73 9.5q33 0 62.5 -7t52 -23t36 -40.5t13.5 -58.5q0 -42 -16.5 -73.5t-44 -52t-62.5 -30.5t-72 -10z" />
<glyph unicode="j" horiz-adv-x="692" d="M479 1282q-34 0 -63 7.5t-50.5 23.5t-34 40t-12.5 56q0 45 15.5 76.5t41.5 52t61 30t73 9.5q33 0 62.5 -7t52 -23t36 -40.5t13.5 -58.5q0 -42 -16.5 -73.5t-44 -52t-62.5 -30.5t-72 -10zM621 1098l-238 -1114q-28 -137 -75 -228.5t-108.5 -146.5t-133.5 -78t-150 -23 q-65 0 -112 7t-91 18l25 107q15 -5 42.5 -10t49.5 -5q48 0 83.5 17.5t63.5 59.5t50.5 111t44.5 171l176 831q3 13 5.5 27t4.5 26.5t3 21.5t1 13q0 28 -6 45t-19 26t-33.5 12t-49.5 3h-37l18 109h486z" />
<glyph unicode="k" horiz-adv-x="1223" d="M438 408l-88 -408h-307l270 1274q3 13 6 27t5 26.5t3 21.5t1 13q0 28 -6 45t-19 26t-34 12t-50 3h-43l19 108h495l-108 -499q-18 -81 -31.5 -144.5t-27 -120.5t-28 -114t-32.5 -125l319 289q25 22 40 39t23.5 29.5t11.5 22t3 17.5q0 22 -25 33.5t-71 11.5l20 103h516 l-20 -103q-71 0 -149 -41.5t-177 -132.5l-163 -151l153 -334q33 -72 64 -116t58 -69t50 -33.5t41 -8.5h8l-22 -109h-105q-75 0 -134 10.5t-104 34t-77 60t-53 88.5l-121 286z" />
<glyph unicode="l" horiz-adv-x="725" d="M489 143q32 0 59 12t62 35l49 -69q-24 -26 -55 -51.5t-69.5 -45.5t-85.5 -32t-103 -12q-118 0 -181 55.5t-63 154.5q0 88 33 244l178 840q3 13 6 27t5 26.5t3 21.5t1 13q0 28 -6 45t-19 26t-34 12t-50 3h-43l19 108h495l-244 -1124q-12 -56 -20 -104.5t-8 -91.5 q0 -45 18.5 -69t52.5 -24z" />
<glyph unicode="m" horiz-adv-x="1985" d="M1638 -14q-117 0 -180 56t-63 155q0 43 7.5 104t24.5 139l35 162q5 20 11.5 49t12 60.5t9.5 63t4 56.5q0 19 -3.5 40t-12.5 38t-25 28t-41 11q-33 0 -65.5 -23t-63.5 -60.5t-58.5 -86t-50 -99.5t-38.5 -100.5t-23 -89.5l-16 -86q-4 -21 -9.5 -57.5t-11.5 -78.5t-12 -86 t-10.5 -81.5t-7 -64.5t-2.5 -35h-318q0 12 3.5 42t9.5 70.5t14 87.5l16 94t16 89.5t15 73.5l31 143q4 19 9.5 48t11 60.5t9.5 63.5t4 57q0 19 -2 39t-8.5 36.5t-20 27t-36.5 10.5q-34 0 -67.5 -21t-64.5 -56t-59 -80t-50.5 -92.5t-39 -94t-24.5 -84.5l-115 -514h-307 l172 815q3 13 5.5 27t4.5 26.5t3 21.5t1 13q0 28 -6 45t-19 26t-33.5 12t-49.5 3h-37l18 109h475l-39 -209h15q40 62 82.5 105.5t89.5 71t99.5 40t113.5 12.5q64 0 107 -18t69 -49t37.5 -71t11.5 -85v-16h12q38 61 78.5 107t87.5 76.5t102 46t121 15.5q63 0 106 -19 t70 -51.5t38.5 -75t11.5 -89.5q0 -26 -4 -55.5t-9.5 -59.5t-12 -60t-11.5 -57l-47 -219q-13 -55 -21 -104t-8 -92q0 -45 19 -68.5t53 -23.5q32 0 58.5 12t62.5 35l49 -70q-25 -26 -56 -51.5t-69.5 -45.5t-85.5 -32t-103 -12z" />
<glyph unicode="n" horiz-adv-x="1376" d="M786 190q0 88 33 244l33 162q4 20 10 49t12 60.5t10.5 63t4.5 56.5q0 19 -3.5 40t-13 38t-26 28t-43.5 11q-35 0 -69.5 -23.5t-66.5 -62t-61 -88t-52.5 -101.5t-40.5 -102t-26 -90l-104 -475h-307l172 815q3 13 5.5 27t4.5 26.5t3 21.5t1 13q0 28 -6 45t-19 26t-33.5 12 t-49.5 3h-37l18 109h455l-23 -219h13q39 61 80.5 106t89.5 74.5t104.5 44t124.5 14.5q65 0 109.5 -19t72 -51.5t39.5 -75t12 -89.5q0 -26 -3.5 -55.5t-9 -59.5t-12 -60t-11.5 -57l-46 -219q-12 -56 -20 -104.5t-8 -91.5q0 -45 18.5 -69t53.5 -24q32 0 58.5 12t61.5 35 l49 -69q-24 -26 -55 -51.5t-69.5 -45.5t-85.5 -32t-103 -12q-118 0 -181 55.5t-63 154.5z" />
<glyph unicode="o" horiz-adv-x="1266" d="M82 410q0 77 18 159t54.5 161t91.5 149.5t129.5 123.5t169 84t209.5 31q88 0 166 -24.5t136 -76.5t92 -133.5t34 -195.5q0 -74 -17 -155t-52.5 -159.5t-90 -150t-128.5 -125.5t-168 -86t-210 -32q-96 0 -176 26.5t-137 80t-89 134.5t-32 189zM553 127q55 0 99.5 31.5 t80 83t61.5 117.5t42.5 136t25 137.5t8.5 121.5q0 121 -41.5 174t-113.5 53q-52 0 -96 -30t-79.5 -80t-62.5 -114.5t-45.5 -133.5t-27.5 -137.5t-9 -125.5q0 -125 42 -179t116 -54z" />
<glyph unicode="p" horiz-adv-x="1276" d="M885 733q0 42 -5.5 81.5t-18 70.5t-34 50t-53.5 19q-34 0 -67.5 -19.5t-65 -52.5t-59 -76t-50 -89.5t-39 -93.5t-24.5 -88l-78 -367q9 -9 24 -19.5t34 -18.5t41.5 -13.5t46.5 -5.5q55 0 102.5 30t86 80t68.5 114.5t50 133.5t30.5 137.5t10.5 126.5zM-61 -492l278 1307 q3 13 5.5 27t4.5 26.5t3 21.5t1 13q0 28 -6 45t-19 26t-33.5 12t-49.5 3h-37l18 109h441l-53 -273h14q35 64 72 118t82 93t102 60.5t133 21.5q67 0 122.5 -24t94.5 -71t60.5 -116t21.5 -159q0 -74 -17.5 -159.5t-52.5 -171t-87.5 -164.5t-123.5 -139.5t-159.5 -97 t-194.5 -36.5q-62 0 -115.5 12.5t-93.5 34.5q-1 -16 -4 -33q-2 -14 -5 -31.5t-7 -34.5l-29 -137q-3 -13 -5.5 -27t-4.5 -26.5t-3 -21.5t-1 -13q0 -28 6 -45t19 -26t33.5 -12t49.5 -3h78l-18 -109h-520z" />
<glyph unicode="q" horiz-adv-x="1292" d="M393 360q0 -59 8.5 -100t23 -67t35 -38t44.5 -12q31 0 62.5 18.5t62.5 51t59.5 76.5t52 94t42 103.5t28.5 105.5l74 338q-14 23 -49 40t-84 17q-61 0 -111 -32t-90 -84.5t-69.5 -119.5t-49 -136.5t-29.5 -136t-10 -118.5zM705 -82q3 16 8 39.5t11 51.5t12.5 58.5 t12.5 60.5q15 70 33 148h-12q-35 -67 -72 -121.5t-82.5 -93.5t-104.5 -60t-138 -21q-65 0 -118.5 24t-91.5 71t-59.5 117t-21.5 162q0 80 19.5 167.5t56.5 172.5t91.5 162t124.5 135t154.5 92.5t182.5 34.5q45 0 88 -6t82 -15.5t72 -21.5t59 -24l121 67h102l-281 -1327 q-6 -26 -10 -55t-4 -49q0 -37 25 -53.5t84 -16.5h77l-18 -109h-485z" />
<glyph unicode="r" horiz-adv-x="1128" d="M262 918q0 38 -25 54.5t-83 16.5h-37l18 109h453l-43 -281h10q35 74 70.5 130t78 94t96.5 57.5t126 19.5q109 0 162 -41t53 -119q0 -106 -62 -158t-180 -52q0 46 -4.5 83.5t-16 64t-31 40.5t-48.5 14t-61 -23.5t-64 -64.5t-62.5 -97.5t-58.5 -123t-51 -139.5t-39 -148 l-78 -354h-309l174 823q3 17 7.5 45t4.5 50z" />
<glyph unicode="s" horiz-adv-x="1053" d="M457 102q42 0 78 10.5t62 30t41 48t15 65.5q0 35 -13.5 62t-42 50.5t-72 46.5t-103.5 52q-60 28 -108.5 60t-82.5 71t-52.5 87t-18.5 108q0 75 32 135t92 102.5t145.5 65t193.5 22.5q103 0 174.5 -16t116 -42.5t64 -61.5t19.5 -72q0 -82 -63 -119t-172 -37q0 41 -8 82.5 t-27 75.5t-49 55t-74 21q-40 0 -71.5 -11.5t-54 -31t-34.5 -45.5t-12 -56q0 -34 13.5 -59t42 -47t72.5 -43.5t104 -48.5q66 -30 114 -63.5t79.5 -73t47 -86t15.5 -103.5q0 -83 -31.5 -149t-94.5 -112t-156 -70.5t-216 -24.5q-88 0 -159.5 15t-122 44t-78 71t-27.5 95 q0 48 19 81t49.5 53.5t70 30t80.5 9.5q0 -55 11 -105t35 -88.5t62.5 -61t94.5 -22.5z" />
<glyph unicode="t" horiz-adv-x="854" d="M553 147q48 0 87 16t73 38l47 -78q-34 -29 -71.5 -55t-81.5 -45.5t-94.5 -31t-109.5 -11.5q-56 0 -104.5 14.5t-84.5 44t-56.5 74.5t-20.5 106q0 18 1.5 40t4.5 45t7 45.5t8 41.5l123 567h-158l22 105q44 0 96 15t106.5 49t109 89t102.5 134h119l-53 -252h247l-28 -140 h-250l-123 -561q-11 -45 -15.5 -81.5t-4.5 -65.5q0 -51 28 -77t74 -26z" />
<glyph unicode="u" horiz-adv-x="1378" d="M793 176q0 9 1 21t2.5 25t3 24.5t3.5 19.5h-17q-45 -64 -88.5 -116t-92.5 -89.5t-106 -58t-130 -20.5q-66 0 -111 18.5t-72 49.5t-39 72.5t-12 86.5q0 51 12 112t23 113l74 361q8 42 13 76t5 51q0 41 -25 54t-83 13h-37l18 109h492l-135 -613q-6 -24 -12 -54t-11 -60 t-8.5 -57t-3.5 -46q0 -45 19 -71.5t69 -26.5q45 0 92.5 40.5t91 105t77.5 144t52 156.5l109 482h305l-139 -666q-13 -56 -21 -104.5t-8 -91.5q0 -45 18.5 -69t53.5 -24q32 0 58.5 12t61.5 35l50 -69q-25 -26 -56 -51.5t-69.5 -45.5t-85.5 -32t-103 -12q-68 0 -113.5 15.5 t-73.5 42t-40 62t-12 76.5z" />
<glyph unicode="v" horiz-adv-x="1200" d="M195 881q-6 32 -17.5 53t-29 33t-41.5 17t-54 5h-20l24 109h402l94 -606q15 -104 21.5 -185.5t11.5 -132.5h6q70 72 134 155t113 166.5t78 162t29 141.5q0 69 -39 101t-96 32q0 84 46 134t124 50q32 0 60 -10.5t49 -33.5t33 -59t12 -87q0 -80 -26 -167t-68.5 -174.5 t-97.5 -172t-113.5 -160t-115.5 -140t-104 -110.5l-270 -20z" />
<glyph unicode="w" horiz-adv-x="1792" d="M1745 944q0 -106 -45 -224t-120 -240.5t-172 -244t-200 -233.5l-250 -22q0 63 -1.5 136.5t-3 151.5l-3 156t-3.5 149t-4 131t-3 103q-80 -190 -183 -394.5t-239 -406.5l-268 -18l-21 852q-1 47 -12 76t-29.5 45.5t-44 22t-55.5 5.5h-12l33 109h395q6 -102 11 -203.5 t8 -190t5 -159t2 -111.5q0 -78 -1 -125.5t-1 -52.5h15q51 81 102 177t101 202t98 218.5t92 225.5l250 8q6 -51 11.5 -125t10.5 -158t9.5 -172t8 -166.5t5.5 -142t2 -98.5h14q90 111 149 200.5t93.5 163.5t48.5 134t14 111q0 30 -9 54t-23 41.5t-32.5 28t-37.5 15.5 q3 39 16.5 66.5t34 45t46.5 25.5t55 8q68 0 105.5 -45t37.5 -129z" />
<glyph unicode="x" horiz-adv-x="1237" d="M-41 0l21 109h26q29 0 52.5 4.5t47 18.5t51.5 40t66 68l258 284l-141 340q-16 39 -31.5 63t-33.5 38t-40 19t-51 5h-24l20 109h385l144 -389l284 389h250l-20 -109h-37q-30 0 -53.5 -6t-47 -22.5t-50 -45t-62.5 -73.5l-211 -244l149 -344q19 -43 35.5 -71t34.5 -44.5 t40 -23t52 -6.5h27l-21 -109h-397l-154 414l-319 -414h-250z" />
<glyph unicode="y" horiz-adv-x="1200" d="M160 881q-17 61 -49.5 84.5t-92.5 23.5h-20l25 109h401l135 -531q10 -40 21 -93.5t21 -107t17 -100t9 -71.5h6q61 82 115 165t94.5 161.5t64 149.5t23.5 130q0 69 -33.5 105t-93.5 36q0 40 12.5 72.5t34.5 55.5t52 35.5t65 12.5q83 0 125.5 -46t42.5 -128q0 -80 -27 -169 t-77 -189t-121.5 -212t-161.5 -237q-74 -104 -139 -191t-127.5 -157t-127 -122.5t-137 -88t-158 -53t-190.5 -17.5q-59 0 -114.5 10t-98.5 27l31 115q24 -8 67.5 -17.5t106.5 -9.5q94 0 172 25t144.5 67.5t125 99.5t113.5 122z" />
<glyph unicode="z" horiz-adv-x="1143" d="M715 139q35 0 62 16.5t47.5 43t36.5 59.5t30 66l20 47h119l-88 -371h-942l23 104l684 854h-261q-41 0 -69 -13.5t-49.5 -37.5t-39 -58t-36.5 -75l-4 -8h-125l90 332h879l-23 -107l-686 -852h332z" />
<glyph unicode="{" horiz-adv-x="905" d="M487 -256q-146 0 -219 59t-73 164q0 9 0.5 20t2.5 27t6 39.5t11 57.5l61 286q7 29 7 56q0 40 -15.5 66t-43 41.5t-64.5 21.5t-80 8l26 125q51 1 96.5 9.5t82 29.5t62.5 57.5t38 93.5l74 352q16 77 46 133.5t78.5 93t119.5 54.5t169 18h195l-23 -108h-79q-44 0 -74.5 -13 t-52 -38t-35.5 -62.5t-25 -85.5l-76 -348q-20 -93 -84.5 -152.5t-189.5 -86.5l-4 -17q93 -25 136.5 -70.5t43.5 -113.5q0 -27 -6 -58l-76 -350q-6 -26 -8 -49t-2 -43q0 -53 26 -80.5t89 -27.5h80l-25 -109h-195z" />
<glyph unicode="|" d="M678 -492h-148v2048h148v-2048z" />
<glyph unicode="}" horiz-adv-x="905" d="M469 1559q147 0 220 -59t73 -165q0 -9 -0.5 -20t-3 -27t-6.5 -39t-11 -57l-61 -287q-6 -30 -6 -55q0 -41 15.5 -67t43 -41t64.5 -21.5t80 -7.5l-27 -125q-51 -2 -96 -10t-81.5 -29t-63 -57.5t-38.5 -94.5l-73 -352q-16 -77 -46 -133.5t-79 -93t-120 -54.5t-169 -18h-195 l23 109h80q44 0 74.5 13t52 38t35 62t24.5 85l76 348q20 93 84.5 152.5t189.5 87.5l4 16q-92 25 -136 71t-44 114q0 27 6 57l76 350q6 26 8 49t2 43q0 53 -25.5 81t-88.5 28h-80l24 109h195z" />
<glyph unicode="~" horiz-adv-x="1149" d="M528 664q-37 16 -64.5 26.5t-50 17t-43 9t-42.5 2.5q-29 0 -58.5 -9.5t-59 -25.5t-57.5 -38.5t-53 -47.5v158q100 108 248 108q29 0 54 -2.5t52.5 -9t61 -19t80.5 -32.5q37 -16 64.5 -27t51 -17.5t43.5 -9t42 -2.5q28 0 58 9.5t59 26t57 38.5t53 47v-157 q-50 -54 -111 -81.5t-137 -27.5q-29 0 -54 2.5t-52.5 9.5t-61 19.5t-80.5 32.5z" />
<glyph unicode="&#xa1;" horiz-adv-x="809" d="M381 -367h-356l354 996h119zM309 928q0 51 15.5 86.5t41 57t57.5 31t64 9.5q75 0 120.5 -36t45.5 -111q0 -42 -12.5 -76t-35.5 -58t-56 -37.5t-74 -13.5q-35 0 -65.5 9t-53 27t-35 46t-12.5 66z" />
<glyph unicode="&#xa2;" d="M692 324q59 0 106 14.5t84.5 38.5t66.5 54t52 61q13 -13 23 -36.5t10 -54.5q0 -38 -23 -78t-71 -73.5t-122 -56t-175 -25.5l-35 -168h-127l37 174q-81 12 -151 43.5t-121 83.5t-80 124.5t-29 166.5q0 71 17.5 148.5t52.5 153.5t87.5 145.5t121.5 125.5t154.5 93.5 t187.5 48.5l33 155h127l-33 -151q77 -5 132.5 -24t91 -48t52.5 -66t17 -77q0 -32 -14 -62.5t-44 -55t-77.5 -39.5t-114.5 -15q0 74 -19 135t-57 96l-176 -831h16zM451 588q0 -84 26.5 -142.5t79.5 -89.5l174 830q-44 -10 -81.5 -44.5t-68.5 -84.5t-55 -111t-41 -124 t-25.5 -124t-8.5 -110z" />
<glyph unicode="&#xa3;" d="M600 711q1 -8 2 -20t2 -26t1.5 -29t0.5 -28q0 -63 -20 -114.5t-58 -95t-93 -81t-126 -71.5l2 -8q54 20 98 28t83 8q46 0 95 -11.5t95.5 -25t88 -25t73.5 -11.5q35 0 62 4.5t50.5 14t46.5 24.5t50 37l65 -103q-24 -25 -64 -59t-88.5 -65t-102.5 -52.5t-105 -21.5 t-99.5 14.5t-99 32.5t-105.5 32.5t-118 14.5q-41 0 -75.5 -3.5t-66 -11t-63 -19.5t-65.5 -28l-33 -14l-45 108l69 44q51 30 102.5 71.5t93 94.5t67.5 118.5t26 143.5q0 34 -3.5 66.5t-8.5 64.5h-236l29 125h192q-6 38 -13 91t-7 103q0 108 38 193t107.5 143t168 88.5 t218.5 30.5q87 0 154 -17.5t112.5 -48t69 -71t23.5 -86.5q0 -88 -66 -134.5t-190 -46.5q0 140 -40 209.5t-110 69.5q-103 0 -158 -86t-55 -244q0 -60 7 -109.5t12 -84.5h364l-28 -125z" />
<glyph unicode="&#xa4;" d="M227 729q0 59 17 113.5t49 99.5l-123 123l102 102l123 -123q45 29 96.5 45.5t110.5 16.5q57 0 109.5 -16.5t97.5 -47.5l127 127l102 -104l-125 -127q31 -45 48.5 -97.5t17.5 -111.5t-16 -110.5t-45 -96.5l120 -121l-102 -102l-121 121q-46 -31 -100 -48.5t-113 -17.5 t-112.5 16.5t-98.5 47.5l-119 -119l-104 104l119 119q-60 92 -60 207zM367 729q0 -49 18.5 -92t50 -75.5t74.5 -51t92 -18.5q51 0 94 18.5t74.5 51t49.5 75.5t18 92q0 51 -18 94.5t-49.5 76t-74.5 51t-94 18.5q-49 0 -92 -18.5t-74.5 -51t-50 -76t-18.5 -94.5z" />
<glyph unicode="&#xa5;" horiz-adv-x="1104" d="M762 698h262l-25 -120h-286l-27 -119h287l-25 -121h-286l-23 -98q-5 -22 -7.5 -38t-2.5 -24q0 -22 11 -35.5t30.5 -21t46.5 -10t59 -2.5h49l-22 -109h-733l22 109h55q32 0 62 4.5t55 18t43 37.5t27 64l22 105h-286l24 121h287l27 119h-287l24 120h271l-125 547 q-7 31 -14 51.5t-18.5 33.5t-30 18.5t-48.5 5.5h-26l22 108h559l-22 -108h-58q-46 0 -66 -16t-20 -44q0 -18 8 -55.5t17 -85.5l37 -195q12 -65 21.5 -125t9.5 -102q11 28 32 67t47 83l158 266q22 37 42 77t20 74q0 28 -23 42t-57 14h-41l24 108h434l-22 -108h-6 q-47 0 -91.5 -39t-97.5 -121z" />
<glyph unicode="&#xa6;" d="M676 737h-148v819h148v-819zM676 -492h-148v820h148v-820z" />
<glyph unicode="&#xa7;" horiz-adv-x="1114" d="M444 -236q-93 0 -167 18t-125.5 50.5t-79 78t-27.5 99.5q0 52 19 85.5t48 52t63 25.5t63 7q0 -65 15.5 -120t45 -95t72 -63t96.5 -23q53 0 95.5 17t72 46t45.5 69t16 85q0 41 -11 73.5t-41 64t-82 65.5t-134 78q-78 41 -129 82t-81 83t-42 87t-12 94q0 50 16.5 91.5 t43.5 76t61.5 62t70.5 48.5q-18 29 -33.5 76t-15.5 109q0 88 35.5 157t96 116t140.5 72t169 25q93 0 160.5 -17.5t112 -47.5t66 -70.5t21.5 -85.5q0 -44 -14.5 -73.5t-41.5 -47t-64.5 -25t-82.5 -7.5q0 55 -11.5 103t-34 83t-55.5 55.5t-75 20.5q-37 0 -73.5 -12t-66 -37 t-47.5 -63.5t-18 -90.5q0 -45 12.5 -78.5t41.5 -63t76.5 -58.5t117.5 -66q75 -40 127 -77.5t84.5 -76t46.5 -79t14 -87.5q0 -48 -15.5 -91t-42.5 -81.5t-62.5 -71t-75.5 -57.5q18 -29 32.5 -72.5t14.5 -97.5q0 -87 -32 -163.5t-91 -133.5t-142.5 -90t-185.5 -33zM639 784 q-66 31 -120.5 62.5t-100.5 68.5q-32 -24 -53 -53.5t-21 -73.5q0 -33 11 -61t37 -54.5t70.5 -54t112.5 -59.5q57 -28 111.5 -60t89.5 -61q32 26 51 60.5t19 76.5q0 23 -9 48t-32.5 51t-63.5 53.5t-102 56.5z" />
<glyph unicode="&#xa8;" horiz-adv-x="1182" d="M616 1417q0 -40 -11 -67t-28 -44t-39 -24.5t-44 -7.5q-51 0 -82 27.5t-31 84.5q0 66 33 105t90 39q49 0 80.5 -28t31.5 -85zM1044 1417q0 -40 -11 -67t-28 -44t-39 -24.5t-44 -7.5q-51 0 -82 27.5t-31 84.5q0 66 33 105t90 39q49 0 80.5 -28t31.5 -85z" />
<glyph unicode="&#xa9;" horiz-adv-x="1731" d="M129 731q0 104 27 200.5t75.5 180t117.5 152.5t152.5 118t179.5 76t200 27t200 -27t179.5 -76t152.5 -118t118 -152.5t76 -180t27 -200.5t-27 -200t-76 -179.5t-118 -152t-152.5 -117.5t-179.5 -75.5t-200 -26.5t-200 26.5t-179.5 75.5t-152.5 117.5t-117.5 152 t-75.5 179.5t-27 200zM242 731q0 -88 23 -169.5t64.5 -152.5t99.5 -129.5t129 -100t153 -64.5t170 -23q89 0 170.5 23t153 64.5t130 100t100 129.5t64.5 152.5t23 169.5q0 133 -50.5 249.5t-137.5 203.5t-203.5 137.5t-249.5 50.5q-88 0 -170 -23t-153 -64.5t-129 -100 t-99.5 -130t-64.5 -153.5t-23 -170zM918 365q46 0 86 12t72.5 32t55.5 44.5t37 50.5q13 -9 21 -25.5t8 -38.5q0 -28 -19 -57t-57.5 -53t-96 -39t-134.5 -15q-102 0 -179 33t-128.5 93t-77 144t-25.5 187q0 100 28 183t83.5 143t137.5 93.5t190 33.5q70 0 123 -11.5t87.5 -31 t52 -46t17.5 -57.5q0 -22 -11 -40t-29.5 -30.5t-44 -19t-54.5 -6.5q0 28 -7.5 56t-24.5 50.5t-45 36t-69 13.5q-72 0 -122.5 -24t-82.5 -71t-46.5 -115.5t-14.5 -156.5q0 -177 69 -272.5t200 -95.5z" />
<glyph unicode="&#xaa;" horiz-adv-x="883" d="M772 782q-68 0 -105.5 27.5t-37.5 75.5q0 25 3.5 57t6.5 55h-8q-26 -48 -55.5 -87t-63.5 -67t-73.5 -43.5t-84.5 -15.5q-51 0 -88.5 17.5t-62 48t-36 71.5t-11.5 89t12 101t37 104.5t63.5 97.5t90 81t117 55.5t145.5 20.5q55 0 91.5 -12t67.5 -31l72 29h70l-76 -373 q-8 -42 -15.5 -75.5t-7.5 -59.5q0 -53 43 -53q20 0 42.5 9.5t45.5 23.5l27 -49q-13 -14 -34.5 -31t-48.5 -31.5t-59.5 -24.5t-66.5 -10zM395 1022q0 -34 5 -56.5t14 -36.5t20.5 -20t24.5 -6q27 0 56 24.5t54 62t45 80.5t29 81l49 195q-12 18 -37.5 28t-50.5 10 q-34 0 -63 -17.5t-52 -47t-40.5 -67.5t-29.5 -78t-18 -79.5t-6 -72.5z" />
<glyph unicode="&#xab;" horiz-adv-x="1135" d="M143 621l389 342h144l-293 -410l119 -410h-144l-237 371zM555 621l389 342h143l-292 -410l118 -410h-143l-238 371z" />
<glyph unicode="&#xac;" d="M1044 805v-512h-147v366h-731v146h878z" />
<glyph unicode="&#xad;" horiz-adv-x="635" d="M20 451l48 215h532l-47 -215h-533z" />
<glyph unicode="&#xae;" horiz-adv-x="1731" d="M494 358h26q20 0 38 2.5t32 10t22.5 21.5t8.5 38v600q0 24 -8.5 38t-22.5 21.5t-32 10t-38 2.5h-26v72h368q352 0 352 -244q0 -49 -16 -86t-42 -64t-59.5 -45.5t-68.5 -29.5l182 -293q10 -17 19.5 -27.5t22.5 -16.5t30 -8t43 -2v-69h-217l-225 381h-109v-240 q1 -24 9.5 -38t22 -21.5t31 -10t37.5 -2.5h29v-69h-409v69zM774 748h86q55 0 92.5 11t59.5 33t31.5 56t9.5 80q0 45 -11 77t-35 51.5t-61.5 28.5t-91.5 9h-80v-346zM129 731q0 104 27 200.5t75.5 180t117.5 152.5t152.5 118t179.5 76t200 27t200 -27t179.5 -76t152.5 -118 t118 -152.5t76 -180t27 -200.5t-27 -200t-76 -179.5t-118 -152t-152.5 -117.5t-179.5 -75.5t-200 -26.5t-200 26.5t-179.5 75.5t-152.5 117.5t-117.5 152t-75.5 179.5t-27 200zM242 731q0 -88 23 -169.5t64.5 -152.5t99.5 -129.5t129 -100t153 -64.5t170 -23q89 0 170.5 23 t153 64.5t130 100t100 129.5t64.5 152.5t23 169.5q0 133 -50.5 249.5t-137.5 203.5t-203.5 137.5t-249.5 50.5q-88 0 -170 -23t-153 -64.5t-129 -100t-99.5 -130t-64.5 -153.5t-23 -170z" />
<glyph unicode="&#xaf;" horiz-adv-x="940" d="M950 1556h-960v121h960v-121z" />
<glyph unicode="&#xb0;" horiz-adv-x="819" d="M225 1151q0 64 24 121t66 99t98.5 66.5t121.5 24.5q64 0 121 -24.5t99 -66.5t66.5 -99t24.5 -121q0 -65 -24.5 -121t-66.5 -98t-99 -66t-121 -24q-65 0 -121.5 24t-98.5 66t-66 98t-24 121zM367 1151q0 -35 13 -65.5t36 -54t53.5 -37t65.5 -13.5q36 0 67 13.5t54 37 t36 54t13 65.5q0 36 -13 67.5t-36 54.5t-54 36.5t-67 13.5q-35 0 -65.5 -13.5t-53.5 -36.5t-36 -54.5t-13 -67.5z" />
<glyph unicode="&#xb1;" d="M1044 0h-878v145h878v-145zM678 659v-366h-148v366h-364v146h364v366h148v-366h366v-146h-366z" />
<glyph unicode="&#xb2;" horiz-adv-x="819" d="M59 586l29 147l303 221q62 45 104 86.5t67 81.5t35.5 80.5t10.5 83.5q0 20 -4.5 39t-14.5 33.5t-26.5 23.5t-40.5 9q-29 0 -52 -17t-40.5 -45t-29 -64.5t-15.5 -76.5q-72 0 -114 29t-42 75q0 42 22 77t63.5 60.5t100.5 39.5t134 14q64 0 115.5 -13.5t87.5 -37.5t55.5 -58 t19.5 -76q0 -43 -14.5 -82.5t-50 -82t-93.5 -92t-145 -111.5l-256 -185h301q48 0 72.5 25t36.5 59l16 43h80l-57 -286h-658z" />
<glyph unicode="&#xb3;" horiz-adv-x="819" d="M360 573q-149 0 -225 44.5t-76 121.5q0 28 11.5 49.5t32 36.5t48.5 23t60 8q0 -29 9 -60.5t29 -57t52 -42t78 -16.5q37 0 69.5 9t56.5 29.5t38 52.5t14 77q0 28 -11 54t-33.5 45t-58 30.5t-83.5 11.5h-68l16 96h70q43 0 82 14.5t68.5 41.5t47 66.5t17.5 90.5 q0 41 -18.5 67t-59.5 26q-33 0 -57.5 -14.5t-42 -39.5t-28 -57t-15.5 -68q-75 0 -120.5 22.5t-45.5 72.5q0 36 22 68t63.5 56t101.5 38t135 14q73 0 126.5 -14.5t88.5 -40t52 -59.5t17 -73q0 -54 -19 -94t-53.5 -69t-82 -48t-103.5 -30l-2 -11q94 -11 150.5 -57t56.5 -131 q0 -69 -31 -122t-85.5 -88.5t-130 -54t-163.5 -18.5z" />
<glyph unicode="&#xb4;" horiz-adv-x="1182" d="M504 1268q28 29 61 67t65.5 78.5t63 80.5t54.5 75h321l-6 -21q-16 -18 -44 -42.5t-63.5 -52.5t-76 -57.5t-82.5 -57.5t-83 -53.5t-77 -43.5h-139z" />
<glyph unicode="&#xb5;" horiz-adv-x="1386" d="M803 188q-35 -47 -68.5 -85.5t-70.5 -65.5t-79 -42t-93 -15q-91 0 -154 40.5t-100 106.5q-7 -36 -12.5 -74t-9 -74t-5.5 -68.5t-2 -57.5q0 -35 6.5 -63.5t25 -49.5t51 -34.5t83.5 -18.5q-8 -45 -31.5 -79t-57 -56t-74.5 -33t-83 -11q-29 0 -53.5 7.5t-42 25t-27.5 45.5 t-10 70q0 61 17 137t44 173t60 219t65 276l135 637h312l-137 -643l-7 -35t-7.5 -42.5t-6 -45t-2.5 -41.5q0 -28 6.5 -53t21 -43.5t36 -29.5t51.5 -11q95 0 160 91.5t106 286.5l121 566h311l-141 -666q-13 -56 -21 -104.5t-8 -91.5q0 -45 19 -69t53 -24q32 0 58.5 12t62.5 35 l49 -69q-25 -26 -56 -51.5t-71 -45.5t-89 -32t-110 -12q-63 0 -104.5 17.5t-66 46t-34.5 66t-10 78.5h-10z" />
<glyph unicode="&#xb6;" horiz-adv-x="1284" d="M909 1430h-172v-1657h-342v108h27q34 0 65 4.5t53.5 20t36 44.5t13.5 77v764h-146q-90 0 -150 32.5t-96 88t-51.5 128t-15.5 152.5q0 82 17 149t55 115t98.5 74t147.5 26h802v-108h-26q-35 0 -65.5 -5t-53 -20.5t-36 -44.5t-13.5 -78v-1273q0 -48 13.5 -77t36 -44.5 t53 -20t65.5 -4.5h26v-108h-342v1657z" />
<glyph unicode="&#xb7;" horiz-adv-x="623" d="M518 746q0 -51 -15.5 -86.5t-41 -57t-57.5 -31t-64 -9.5q-74 0 -120 36t-46 111q0 42 12.5 76t36 58t56 37t73.5 13q35 0 65.5 -9t53 -27t35 -46t12.5 -65z" />
<glyph unicode="&#xb8;" horiz-adv-x="682" d="M387 -70q41 -5 74.5 -20t57.5 -37.5t37 -51t13 -61.5q0 -66 -30.5 -113.5t-81.5 -78.5t-116.5 -45.5t-135.5 -14.5q-32 0 -75.5 7.5t-78.5 19.5l27 121q35 -8 70 -12t63 -4q31 0 59 6t48 18.5t32 32t12 47.5q0 20 -10.5 36.5t-28.5 29t-43 19.5t-53 9l82 180h117z" />
<glyph unicode="&#xb9;" horiz-adv-x="819" d="M717 1473l-146 -689q-5 -18 -6.5 -33t-1.5 -20q0 -18 6.5 -28.5t17.5 -16t25.5 -7t30.5 -1.5h84l-18 -90h-578l19 90h104q19 0 36.5 2.5t31.5 10.5t24.5 23.5t15.5 41.5l123 581q-58 -57 -103.5 -92t-82.5 -35q-29 0 -44 29.5t-15 71.5q24 4 48 11t50 18t56 27t65 38 l106 68h152z" />
<glyph unicode="&#xba;" horiz-adv-x="834" d="M922 1219q0 -43 -12 -92t-37 -98t-62.5 -94t-89 -79.5t-116.5 -55t-144 -20.5q-71 0 -129 16.5t-99 49.5t-63.5 81t-22.5 111q0 46 13.5 96.5t39.5 98.5t65 91.5t91 76.5t116 52.5t140 19.5q64 0 120.5 -15t98.5 -46t66.5 -79t24.5 -114zM692 1225q0 68 -21 103.5 t-69 35.5q-52 0 -93.5 -33t-70 -83.5t-44 -109.5t-15.5 -110q0 -69 23 -107t69 -38q55 0 96.5 34.5t69 86.5t41.5 111.5t14 109.5z" />
<glyph unicode="&#xbb;" horiz-adv-x="1135" d="M987 487l-387 -344h-143l295 410l-121 410h143l236 -369zM575 487l-387 -344h-143l295 410l-121 410h143l236 -369z" />
<glyph unicode="&#xbc;" horiz-adv-x="1720" d="M1466 240l-8 -36q-5 -22 -6.5 -39t-1.5 -23q0 -17 5.5 -27t15.5 -15.5t23 -7t27 -1.5h41l-18 -90h-471l18 90h58q17 0 32.5 2.5t29 10.5t23.5 23.5t15 41.5l14 71h-387l17 82l528 564h182l-112 -537h159l-24 -109h-160zM1335 578q6 32 17 63.5t22 69.5q-11 -17 -24 -33 t-19 -24l-287 -305h244zM640 1473l-146 -689q-5 -18 -6.5 -33t-1.5 -20q0 -18 6.5 -28.5t17.5 -16t25.5 -7t30.5 -1.5h84l-18 -90h-578l19 90h104q19 0 36.5 2.5t31.5 10.5t24.5 23.5t15.5 41.5l123 581q-58 -57 -103.5 -92t-82.5 -35q-29 0 -44 29.5t-15 71.5q24 4 48 11 t50 18t56 27t65 38l106 68h152zM460 0h-174l1039 1462h172z" />
<glyph unicode="&#xbd;" horiz-adv-x="1720" d="M640 1473l-146 -689q-5 -18 -6.5 -33t-1.5 -20q0 -18 6.5 -28.5t17.5 -16t25.5 -7t30.5 -1.5h84l-18 -90h-578l19 90h104q19 0 36.5 2.5t31.5 10.5t24.5 23.5t15.5 41.5l123 581q-58 -57 -103.5 -92t-82.5 -35q-29 0 -44 29.5t-15 71.5q24 4 48 11t50 18t56 27t65 38 l106 68h152zM450 0h-174l1039 1462h172zM899 1l29 147l303 221q62 45 104 86.5t67 81.5t35.5 80.5t10.5 83.5q0 20 -4.5 39t-14.5 33.5t-26.5 23.5t-40.5 9q-29 0 -52 -17t-40.5 -45t-29 -64.5t-15.5 -76.5q-72 0 -114 29t-42 75q0 42 22 77t63.5 60.5t100.5 39.5t134 14 q64 0 115.5 -13.5t87.5 -37.5t55.5 -58t19.5 -76q0 -43 -14.5 -82.5t-50 -82t-93.5 -92t-145 -111.5l-256 -185h301q48 0 72.5 25t36.5 59l16 43h80l-57 -286h-658z" />
<glyph unicode="&#xbe;" horiz-adv-x="1720" d="M1474 240l-8 -36q-5 -22 -6.5 -39t-1.5 -23q0 -17 5.5 -27t15.5 -15.5t23 -7t27 -1.5h41l-18 -90h-471l18 90h58q17 0 32.5 2.5t29 10.5t23.5 23.5t15 41.5l14 71h-387l17 82l528 564h182l-112 -537h159l-24 -109h-160zM1343 578q6 32 17 63.5t22 69.5q-11 -17 -24 -33 t-19 -24l-287 -305h244zM514 0h-174l1039 1462h172zM357 573q-149 0 -225 44.5t-76 121.5q0 28 11.5 49.5t32 36.5t48.5 23t60 8q0 -29 9 -60.5t29 -57t52 -42t78 -16.5q37 0 69.5 9t56.5 29.5t38 52.5t14 77q0 28 -11 54t-33.5 45t-58 30.5t-83.5 11.5h-68l16 96h70 q43 0 82 14.5t68.5 41.5t47 66.5t17.5 90.5q0 41 -18.5 67t-59.5 26q-33 0 -57.5 -14.5t-42 -39.5t-28 -57t-15.5 -68q-75 0 -120.5 22.5t-45.5 72.5q0 36 22 68t63.5 56t101.5 38t135 14q73 0 126.5 -14.5t88.5 -40t52 -59.5t17 -73q0 -54 -19 -94t-53.5 -69t-82 -48 t-103.5 -30l-2 -11q94 -11 150.5 -57t56.5 -131q0 -69 -31 -122t-85.5 -88.5t-130 -54t-163.5 -18.5z" />
<glyph unicode="&#xbf;" horiz-adv-x="1096" d="M4 -49q0 89 39 162.5t107 134t161.5 109t202.5 87.5l74 183h131l4 -254q-91 -33 -164.5 -72.5t-125.5 -90t-80.5 -115t-28.5 -148.5q0 -51 11 -90t31 -66t46.5 -41t58.5 -14q48 0 82.5 25t57.5 66t36.5 95t20.5 113q252 0 252 -158q0 -55 -33 -103.5t-94.5 -84.5 t-149.5 -57t-197 -21q-102 0 -184 20t-139 61.5t-88 105.5t-31 153zM524 926q0 51 15.5 86.5t41 57t57.5 31t64 9.5q75 0 120.5 -36t45.5 -111q0 -42 -12.5 -76t-35.5 -58t-56 -37.5t-74 -13.5q-35 0 -65.5 9t-53 27t-35 46t-12.5 66z" />
<glyph unicode="&#xc0;" horiz-adv-x="1542" d="M438 481l-100 -184q-20 -37 -29.5 -65t-9.5 -50q0 -38 28 -55.5t87 -17.5h41l-23 -109h-532l22 109h43q28 0 49.5 6.5t41.5 24.5t41.5 49t49.5 79l695 1194h280l172 -1206q5 -32 13.5 -59t22.5 -46.5t35.5 -30.5t53.5 -11h37l-22 -109h-676l22 109h47q66 0 105 20.5 t39 65.5q0 17 -1 33.5t-3 31.5l-31 221h-498zM885 950q-5 45 -9.5 84.5t-8 76.5t-6 72t-3.5 72q-15 -37 -30 -68.5t-32 -64t-37.5 -69t-47.5 -84.5l-203 -363h414zM987 1579q-44 26 -93.5 66t-95.5 83.5t-84.5 85.5t-59.5 72l6 21h301q12 -37 31.5 -80t40.5 -84t42.5 -77 t38.5 -60l-6 -27h-121z" />
<glyph unicode="&#xc1;" horiz-adv-x="1542" d="M438 481l-100 -184q-20 -37 -29.5 -65t-9.5 -50q0 -38 28 -55.5t87 -17.5h41l-23 -109h-532l22 109h43q28 0 49.5 6.5t41.5 24.5t41.5 49t49.5 79l695 1194h280l172 -1206q5 -32 13.5 -59t22.5 -46.5t35.5 -30.5t53.5 -11h37l-22 -109h-676l22 109h47q66 0 105 20.5 t39 65.5q0 17 -1 33.5t-3 31.5l-31 221h-498zM885 950q-5 45 -9.5 84.5t-8 76.5t-6 72t-3.5 72q-15 -37 -30 -68.5t-32 -64t-37.5 -69t-47.5 -84.5l-203 -363h414zM864 1606q28 29 61 67t65.5 78.5t63 80.5t54.5 75h321l-6 -21q-16 -18 -44 -42.5t-63.5 -52.5t-76 -57.5 t-82.5 -57.5t-83 -53.5t-77 -43.5h-139z" />
<glyph unicode="&#xc2;" horiz-adv-x="1542" d="M438 481l-100 -184q-20 -37 -29.5 -65t-9.5 -50q0 -38 28 -55.5t87 -17.5h41l-23 -109h-532l22 109h43q28 0 49.5 6.5t41.5 24.5t41.5 49t49.5 79l695 1194h280l172 -1206q5 -32 13.5 -59t22.5 -46.5t35.5 -30.5t53.5 -11h37l-22 -109h-676l22 109h47q66 0 105 20.5 t39 65.5q0 17 -1 33.5t-3 31.5l-31 221h-498zM885 950q-5 45 -9.5 84.5t-8 76.5t-6 72t-3.5 72q-15 -37 -30 -68.5t-32 -64t-37.5 -69t-47.5 -84.5l-203 -363h414zM619 1606q30 29 68 66.5t78 77.5t78 80.5t67 76.5h276q13 -32 33 -72t42.5 -81t44.5 -80t40 -68l-6 -27h-129 q-18 17 -42 40t-49 48t-49.5 50t-42.5 46q-27 -21 -61 -46t-69 -50t-68 -48t-58 -40h-159z" />
<glyph unicode="&#xc3;" horiz-adv-x="1542" d="M438 481l-100 -184q-20 -37 -29.5 -65t-9.5 -50q0 -38 28 -55.5t87 -17.5h41l-23 -109h-532l22 109h43q28 0 49.5 6.5t41.5 24.5t41.5 49t49.5 79l695 1194h280l172 -1206q5 -32 13.5 -59t22.5 -46.5t35.5 -30.5t53.5 -11h37l-22 -109h-676l22 109h47q66 0 105 20.5 t39 65.5q0 17 -1 33.5t-3 31.5l-31 221h-498zM885 950q-5 45 -9.5 84.5t-8 76.5t-6 72t-3.5 72q-15 -37 -30 -68.5t-32 -64t-37.5 -69t-47.5 -84.5l-203 -363h414zM1188 1774q26 0 45 9t32.5 24t22 34.5t13.5 40.5h123q-11 -49 -33.5 -102.5t-56 -98t-78 -73.5t-99.5 -29 t-99 20t-81 44.5t-69.5 44.5t-65.5 20q-21 0 -40 -9t-34 -24t-25 -34.5t-14 -40.5h-122q9 46 32.5 99.5t59.5 98.5t82.5 75t101.5 30q54 0 96.5 -20t78 -44.5t67 -44.5t63.5 -20z" />
<glyph unicode="&#xc4;" horiz-adv-x="1542" d="M438 481l-100 -184q-20 -37 -29.5 -65t-9.5 -50q0 -38 28 -55.5t87 -17.5h41l-23 -109h-532l22 109h43q28 0 49.5 6.5t41.5 24.5t41.5 49t49.5 79l695 1194h280l172 -1206q5 -32 13.5 -59t22.5 -46.5t35.5 -30.5t53.5 -11h37l-22 -109h-676l22 109h47q66 0 105 20.5 t39 65.5q0 17 -1 33.5t-3 31.5l-31 221h-498zM885 950q-5 45 -9.5 84.5t-8 76.5t-6 72t-3.5 72q-15 -37 -30 -68.5t-32 -64t-37.5 -69t-47.5 -84.5l-203 -363h414zM913 1755q0 -40 -11 -67t-28 -44t-39 -24.5t-44 -7.5q-51 0 -82 27.5t-31 84.5q0 66 33 105t90 39 q49 0 80.5 -28t31.5 -85zM1341 1755q0 -40 -11 -67t-28 -44t-39 -24.5t-44 -7.5q-51 0 -82 27.5t-31 84.5q0 66 33 105t90 39q49 0 80.5 -28t31.5 -85z" />
<glyph unicode="&#xc5;" horiz-adv-x="1542" d="M438 481l-100 -184q-20 -37 -29.5 -65t-9.5 -50q0 -38 28 -55.5t87 -17.5h41l-23 -109h-532l22 109h43q28 0 49.5 6.5t41.5 24.5t41.5 49t49.5 79l695 1194h280l172 -1206q5 -32 13.5 -59t22.5 -46.5t35.5 -30.5t53.5 -11h37l-22 -109h-676l22 109h47q66 0 105 20.5 t39 65.5q0 17 -1 33.5t-3 31.5l-31 221h-498zM885 950q-5 45 -9.5 84.5t-8 76.5t-6 72t-3.5 72q-15 -37 -30 -68.5t-32 -64t-37.5 -69t-47.5 -84.5l-203 -363h414zM1217 1573q0 -55 -19 -96.5t-52.5 -70t-78.5 -43t-96 -14.5t-96 14.5t-78.5 43t-52.5 70t-19 96.5 q0 54 19 96t52.5 70t78.5 42.5t96 14.5t96 -14.5t78.5 -42.5t52.5 -70t19 -96zM1092 1573q0 30 -10 50.5t-26.5 34t-38.5 19.5t-46 6q-25 0 -47 -6t-38.5 -19.5t-26 -34t-9.5 -50.5t9.5 -51t26 -34.5t38.5 -19.5t47 -6q24 0 46 6t38.5 19.5t26.5 34.5t10 51z" />
<glyph unicode="&#xc6;" horiz-adv-x="2034" d="M2083 1462l-72 -381h-145q1 7 2.5 25t3 37.5t3 36t1.5 20.5q0 28 -8 53t-25 44t-44.5 29.5t-67.5 10.5h-273l-108 -512h465l-27 -123h-465l-123 -577h324q48 0 85.5 13.5t66 36.5t48 53.5t31.5 64.5l33 88h145l-94 -381h-1175l22 109h27q32 0 62.5 4t55.5 17t43.5 37 t26.5 64l49 238h-467l-121 -172q-30 -43 -43.5 -76.5t-13.5 -50.5q0 -32 28 -46.5t81 -14.5h35l-23 -109h-516l22 109h25q27 0 52 9.5t50.5 29t52.5 49.5t58 71l805 1075l-133 11l22 108h1219zM1114 1337l-539 -745h402l158 745h-21z" />
<glyph unicode="&#xc7;" horiz-adv-x="1368" d="M823 152q71 0 128 16t102 42.5t79 59.5t60 68q12 -9 23.5 -28t11.5 -42q0 -51 -31 -102.5t-91.5 -93t-149.5 -67t-205 -25.5q-147 0 -262.5 36.5t-195 107t-121.5 173t-42 233.5q0 123 29 242t84 226t134.5 197t180 156t220.5 103t257 37q102 0 178.5 -17.5t127 -49 t75.5 -77t25 -100.5q0 -45 -22 -79t-60.5 -57.5t-91.5 -35.5t-115 -12q0 43 -6 95t-24.5 97t-52.5 75t-91 30q-81 0 -149.5 -37t-125 -100.5t-100 -147.5t-73 -177.5t-45 -191t-15.5 -188.5q0 -175 89 -270.5t265 -95.5zM684 -70q41 -5 74.5 -20t57.5 -37.5t37 -51t13 -61.5 q0 -66 -30.5 -113.5t-81.5 -78.5t-116.5 -45.5t-135.5 -14.5q-32 0 -75.5 7.5t-78.5 19.5l27 121q35 -8 70 -12t63 -4q31 0 59 6t48 18.5t32 32t12 47.5q0 20 -10.5 36.5t-28.5 29t-43 19.5t-53 9l82 180h117z" />
<glyph unicode="&#xc8;" horiz-adv-x="1296" d="M-25 109h27q32 0 62.5 4t55.5 17t43.5 37t26.5 64l213 1006q4 11 6.5 25t2.5 22q0 22 -11 36t-30.5 21.5t-47 10t-59.5 2.5h-26l22 108h1112l-72 -381h-145q1 7 2.5 25t3 37.5t3 36t1.5 20.5q0 28 -8 53t-25 44t-44.5 29.5t-67.5 10.5h-272l-109 -512h465l-27 -123h-465 l-123 -577h324q48 0 86 13.5t66 36.5t47.5 53.5t31.5 64.5l33 88h146l-95 -381h-1175zM870 1579q-44 26 -93.5 66t-95.5 83.5t-84.5 85.5t-59.5 72l6 21h301q12 -37 31.5 -80t40.5 -84t42.5 -77t38.5 -60l-6 -27h-121z" />
<glyph unicode="&#xc9;" horiz-adv-x="1296" d="M-25 109h27q32 0 62.5 4t55.5 17t43.5 37t26.5 64l213 1006q4 11 6.5 25t2.5 22q0 22 -11 36t-30.5 21.5t-47 10t-59.5 2.5h-26l22 108h1112l-72 -381h-145q1 7 2.5 25t3 37.5t3 36t1.5 20.5q0 28 -8 53t-25 44t-44.5 29.5t-67.5 10.5h-272l-109 -512h465l-27 -123h-465 l-123 -577h324q48 0 86 13.5t66 36.5t47.5 53.5t31.5 64.5l33 88h146l-95 -381h-1175zM748 1606q28 29 61 67t65.5 78.5t63 80.5t54.5 75h321l-6 -21q-16 -18 -44 -42.5t-63.5 -52.5t-76 -57.5t-82.5 -57.5t-83 -53.5t-77 -43.5h-139z" />
<glyph unicode="&#xca;" horiz-adv-x="1296" d="M-25 109h27q32 0 62.5 4t55.5 17t43.5 37t26.5 64l213 1006q4 11 6.5 25t2.5 22q0 22 -11 36t-30.5 21.5t-47 10t-59.5 2.5h-26l22 108h1112l-72 -381h-145q1 7 2.5 25t3 37.5t3 36t1.5 20.5q0 28 -8 53t-25 44t-44.5 29.5t-67.5 10.5h-272l-109 -512h465l-27 -123h-465 l-123 -577h324q48 0 86 13.5t66 36.5t47.5 53.5t31.5 64.5l33 88h146l-95 -381h-1175zM557 1606q30 29 68 66.5t78 77.5t78 80.5t67 76.5h276q13 -32 33 -72t42.5 -81t44.5 -80t40 -68l-6 -27h-129q-18 17 -42 40t-49 48t-49.5 50t-42.5 46q-27 -21 -61 -46t-69 -50t-68 -48 t-58 -40h-159z" />
<glyph unicode="&#xcb;" horiz-adv-x="1296" d="M-25 109h27q32 0 62.5 4t55.5 17t43.5 37t26.5 64l213 1006q4 11 6.5 25t2.5 22q0 22 -11 36t-30.5 21.5t-47 10t-59.5 2.5h-26l22 108h1112l-72 -381h-145q1 7 2.5 25t3 37.5t3 36t1.5 20.5q0 28 -8 53t-25 44t-44.5 29.5t-67.5 10.5h-272l-109 -512h465l-27 -123h-465 l-123 -577h324q48 0 86 13.5t66 36.5t47.5 53.5t31.5 64.5l33 88h146l-95 -381h-1175zM811 1755q0 -40 -11 -67t-28 -44t-39 -24.5t-44 -7.5q-51 0 -82 27.5t-31 84.5q0 66 33 105t90 39q49 0 80.5 -28t31.5 -85zM1239 1755q0 -40 -11 -67t-28 -44t-39 -24.5t-44 -7.5 q-51 0 -82 27.5t-31 84.5q0 66 33 105t90 39q49 0 80.5 -28t31.5 -85z" />
<glyph unicode="&#xcc;" horiz-adv-x="821" d="M-47 0l22 109h27q32 0 62.5 4t55.5 17t43.5 37t26.5 64l213 1006q4 11 6.5 25t2.5 22q0 22 -11 36t-30.5 21.5t-47 10t-59.5 2.5h-26l22 108h707l-23 -108h-26q-34 0 -65.5 -4.5t-57.5 -17.5t-45 -38t-27 -65l-211 -1004q-2 -11 -5 -25t-3 -22q0 -22 11 -35.5t31 -21 t47.5 -10t59.5 -2.5h27l-23 -109h-704zM629 1579q-44 26 -93.5 66t-95.5 83.5t-84.5 85.5t-59.5 72l6 21h301q12 -37 31.5 -80t40.5 -84t42.5 -77t38.5 -60l-6 -27h-121z" />
<glyph unicode="&#xcd;" horiz-adv-x="821" d="M-47 0l22 109h27q32 0 62.5 4t55.5 17t43.5 37t26.5 64l213 1006q4 11 6.5 25t2.5 22q0 22 -11 36t-30.5 21.5t-47 10t-59.5 2.5h-26l22 108h707l-23 -108h-26q-34 0 -65.5 -4.5t-57.5 -17.5t-45 -38t-27 -65l-211 -1004q-2 -11 -5 -25t-3 -22q0 -22 11 -35.5t31 -21 t47.5 -10t59.5 -2.5h27l-23 -109h-704zM501 1606q28 29 61 67t65.5 78.5t63 80.5t54.5 75h321l-6 -21q-16 -18 -44 -42.5t-63.5 -52.5t-76 -57.5t-82.5 -57.5t-83 -53.5t-77 -43.5h-139z" />
<glyph unicode="&#xce;" horiz-adv-x="821" d="M-47 0l22 109h27q32 0 62.5 4t55.5 17t43.5 37t26.5 64l213 1006q4 11 6.5 25t2.5 22q0 22 -11 36t-30.5 21.5t-47 10t-59.5 2.5h-26l22 108h707l-23 -108h-26q-34 0 -65.5 -4.5t-57.5 -17.5t-45 -38t-27 -65l-211 -1004q-2 -11 -5 -25t-3 -22q0 -22 11 -35.5t31 -21 t47.5 -10t59.5 -2.5h27l-23 -109h-704zM272 1606q30 29 68 66.5t78 77.5t78 80.5t67 76.5h276q13 -32 33 -72t42.5 -81t44.5 -80t40 -68l-6 -27h-129q-18 17 -42 40t-49 48t-49.5 50t-42.5 46q-27 -21 -61 -46t-69 -50t-68 -48t-58 -40h-159z" />
<glyph unicode="&#xcf;" horiz-adv-x="821" d="M-47 0l22 109h27q32 0 62.5 4t55.5 17t43.5 37t26.5 64l213 1006q4 11 6.5 25t2.5 22q0 22 -11 36t-30.5 21.5t-47 10t-59.5 2.5h-26l22 108h707l-23 -108h-26q-34 0 -65.5 -4.5t-57.5 -17.5t-45 -38t-27 -65l-211 -1004q-2 -11 -5 -25t-3 -22q0 -22 11 -35.5t31 -21 t47.5 -10t59.5 -2.5h27l-23 -109h-704zM556 1755q0 -40 -11 -67t-28 -44t-39 -24.5t-44 -7.5q-51 0 -82 27.5t-31 84.5q0 66 33 105t90 39q49 0 80.5 -28t31.5 -85zM984 1755q0 -40 -11 -67t-28 -44t-39 -24.5t-44 -7.5q-51 0 -82 27.5t-31 84.5q0 66 33 105t90 39 q49 0 80.5 -28t31.5 -85z" />
<glyph unicode="&#xd0;" horiz-adv-x="1573" d="M-27 109h29q32 0 62.5 4t55.5 17t43.5 37t26.5 64l99 471h-168l26 125h168l88 410q3 11 5.5 25t2.5 22q0 22 -11 36t-30.5 21.5t-46.5 10t-59 2.5h-27l23 108h655q147 0 262 -36t195 -106.5t122 -174.5t42 -240q0 -122 -25.5 -236.5t-75 -215t-122.5 -184t-169 -143.5 t-214.5 -93t-257.5 -33h-721zM584 127q144 0 257 58.5t191 164t119 251.5t41 321q0 107 -25 185.5t-72 129.5t-113.5 75.5t-148.5 24.5h-86l-108 -510h258l-27 -125h-258l-121 -575h93z" />
<glyph unicode="&#xd1;" horiz-adv-x="1614" d="M1094 0l-555 1159l-193 -917q-5 -23 -7.5 -39.5t-2.5 -24.5q0 -22 11 -35.5t31 -21t47.5 -10t59.5 -2.5h7l-23 -109h-516l22 109h27q32 0 62.5 4t55.5 17t43.5 37t26.5 64l209 983q13 53 13 70q0 22 -11 36t-30.5 21.5t-47 10t-59.5 2.5h-26l22 108h455l499 -1050 l172 809q11 47 11 63q0 22 -11.5 36t-31.5 21.5t-47.5 10t-59.5 2.5h-6l23 108h516l-23 -108h-26q-32 0 -62.5 -4.5t-55.5 -17.5t-43.5 -37t-27.5 -64l-260 -1231h-188zM1247 1774q26 0 45 9t32.5 24t22 34.5t13.5 40.5h123q-11 -49 -33.5 -102.5t-56 -98t-78 -73.5 t-99.5 -29t-99 20t-81 44.5t-69.5 44.5t-65.5 20q-21 0 -40 -9t-34 -24t-25 -34.5t-14 -40.5h-122q9 46 32.5 99.5t59.5 98.5t82.5 75t101.5 30q54 0 96.5 -20t78 -44.5t67 -44.5t63.5 -20z" />
<glyph unicode="&#xd2;" horiz-adv-x="1622" d="M129 545q0 98 24.5 206t73.5 212.5t122 199t169.5 166t217.5 114t265 42.5q113 0 215.5 -33t180.5 -102t124 -175t46 -253q0 -94 -23.5 -201t-71 -212t-119 -201t-168 -169.5t-218 -117.5t-267.5 -44q-121 0 -225.5 36.5t-181 108.5t-120.5 178t-44 245zM463 496 q0 -101 21.5 -173.5t59 -119t88.5 -68.5t109 -22q85 0 154.5 41t124.5 109.5t95.5 157t67 183.5t39.5 189.5t13 175.5q0 100 -21 172t-57.5 119t-87.5 69.5t-111 22.5q-85 0 -154.5 -41t-124.5 -109.5t-96 -157t-67.5 -184t-39.5 -190t-13 -174.5zM983 1579q-44 26 -93.5 66 t-95.5 83.5t-84.5 85.5t-59.5 72l6 21h301q12 -37 31.5 -80t40.5 -84t42.5 -77t38.5 -60l-6 -27h-121z" />
<glyph unicode="&#xd3;" horiz-adv-x="1622" d="M129 545q0 98 24.5 206t73.5 212.5t122 199t169.5 166t217.5 114t265 42.5q113 0 215.5 -33t180.5 -102t124 -175t46 -253q0 -94 -23.5 -201t-71 -212t-119 -201t-168 -169.5t-218 -117.5t-267.5 -44q-121 0 -225.5 36.5t-181 108.5t-120.5 178t-44 245zM463 496 q0 -101 21.5 -173.5t59 -119t88.5 -68.5t109 -22q85 0 154.5 41t124.5 109.5t95.5 157t67 183.5t39.5 189.5t13 175.5q0 100 -21 172t-57.5 119t-87.5 69.5t-111 22.5q-85 0 -154.5 -41t-124.5 -109.5t-96 -157t-67.5 -184t-39.5 -190t-13 -174.5zM881 1606q28 29 61 67 t65.5 78.5t63 80.5t54.5 75h321l-6 -21q-16 -18 -44 -42.5t-63.5 -52.5t-76 -57.5t-82.5 -57.5t-83 -53.5t-77 -43.5h-139z" />
<glyph unicode="&#xd4;" horiz-adv-x="1622" d="M129 545q0 98 24.5 206t73.5 212.5t122 199t169.5 166t217.5 114t265 42.5q113 0 215.5 -33t180.5 -102t124 -175t46 -253q0 -94 -23.5 -201t-71 -212t-119 -201t-168 -169.5t-218 -117.5t-267.5 -44q-121 0 -225.5 36.5t-181 108.5t-120.5 178t-44 245zM463 496 q0 -101 21.5 -173.5t59 -119t88.5 -68.5t109 -22q85 0 154.5 41t124.5 109.5t95.5 157t67 183.5t39.5 189.5t13 175.5q0 100 -21 172t-57.5 119t-87.5 69.5t-111 22.5q-85 0 -154.5 -41t-124.5 -109.5t-96 -157t-67.5 -184t-39.5 -190t-13 -174.5zM652 1606q30 29 68 66.5 t78 77.5t78 80.5t67 76.5h276q13 -32 33 -72t42.5 -81t44.5 -80t40 -68l-6 -27h-129q-18 17 -42 40t-49 48t-49.5 50t-42.5 46q-27 -21 -61 -46t-69 -50t-68 -48t-58 -40h-159z" />
<glyph unicode="&#xd5;" horiz-adv-x="1622" d="M129 545q0 98 24.5 206t73.5 212.5t122 199t169.5 166t217.5 114t265 42.5q113 0 215.5 -33t180.5 -102t124 -175t46 -253q0 -94 -23.5 -201t-71 -212t-119 -201t-168 -169.5t-218 -117.5t-267.5 -44q-121 0 -225.5 36.5t-181 108.5t-120.5 178t-44 245zM463 496 q0 -101 21.5 -173.5t59 -119t88.5 -68.5t109 -22q85 0 154.5 41t124.5 109.5t95.5 157t67 183.5t39.5 189.5t13 175.5q0 100 -21 172t-57.5 119t-87.5 69.5t-111 22.5q-85 0 -154.5 -41t-124.5 -109.5t-96 -157t-67.5 -184t-39.5 -190t-13 -174.5zM1184 1774q26 0 45 9 t32.5 24t22 34.5t13.5 40.5h123q-11 -49 -33.5 -102.5t-56 -98t-78 -73.5t-99.5 -29t-99 20t-81 44.5t-69.5 44.5t-65.5 20q-21 0 -40 -9t-34 -24t-25 -34.5t-14 -40.5h-122q9 46 32.5 99.5t59.5 98.5t82.5 75t101.5 30q54 0 96.5 -20t78 -44.5t67 -44.5t63.5 -20z" />
<glyph unicode="&#xd6;" horiz-adv-x="1622" d="M129 545q0 98 24.5 206t73.5 212.5t122 199t169.5 166t217.5 114t265 42.5q113 0 215.5 -33t180.5 -102t124 -175t46 -253q0 -94 -23.5 -201t-71 -212t-119 -201t-168 -169.5t-218 -117.5t-267.5 -44q-121 0 -225.5 36.5t-181 108.5t-120.5 178t-44 245zM463 496 q0 -101 21.5 -173.5t59 -119t88.5 -68.5t109 -22q85 0 154.5 41t124.5 109.5t95.5 157t67 183.5t39.5 189.5t13 175.5q0 100 -21 172t-57.5 119t-87.5 69.5t-111 22.5q-85 0 -154.5 -41t-124.5 -109.5t-96 -157t-67.5 -184t-39.5 -190t-13 -174.5zM942 1755q0 -40 -11 -67 t-28 -44t-39 -24.5t-44 -7.5q-51 0 -82 27.5t-31 84.5q0 66 33 105t90 39q49 0 80.5 -28t31.5 -85zM1370 1755q0 -40 -11 -67t-28 -44t-39 -24.5t-44 -7.5q-51 0 -82 27.5t-31 84.5q0 66 33 105t90 39q49 0 80.5 -28t31.5 -85z" />
<glyph unicode="&#xd7;" d="M604 631l-301 -303l-104 104l301 303l-301 301l104 103l301 -301l301 303l105 -105l-303 -303l303 -303l-103 -102z" />
<glyph unicode="&#xd8;" horiz-adv-x="1622" d="M129 545q0 98 24.5 206t73.5 212.5t122 199t169.5 166t217.5 114t265 42.5q162 0 295 -68l97 129h143l-145 -192q80 -69 128 -176t48 -256q0 -94 -23.5 -201t-71 -212t-119 -201t-168 -169.5t-218 -117.5t-267.5 -44q-81 0 -154 17t-138 49l-93 -125h-145l143 186 q-86 73 -135 182.5t-49 258.5zM463 496q0 -96 18 -166l686 915q-37 54 -90.5 80.5t-118.5 26.5q-85 0 -154.5 -41t-124.5 -109.5t-96 -157t-67.5 -184t-39.5 -190t-13 -174.5zM1235 969q0 43 -4 82t-12 71l-682 -909q37 -53 89.5 -76.5t114.5 -23.5q85 0 154.5 41 t124.5 109.5t95.5 157t67 183.5t39.5 189.5t13 175.5z" />
<glyph unicode="&#xd9;" horiz-adv-x="1530" d="M772 125q93 0 157 27t107 74.5t69 113t42 143.5l158 740q3 17 5.5 35t2.5 26q0 22 -11 36t-30.5 21.5t-47 10t-59.5 2.5h-26l22 108h539l-23 -108h-26q-33 0 -64 -4.5t-57 -17.5t-44.5 -38t-27.5 -65l-164 -778q-24 -115 -71.5 -203t-121 -147.5t-173.5 -90t-230 -30.5 q-120 0 -212 23.5t-155 69t-95.5 111.5t-32.5 150q0 16 2 40t5 49.5t7 50t8 42.5l150 698q12 55 12 70q0 22 -11 36t-30.5 21.5t-46.5 10t-59 2.5h-27l23 108h708l-22 -108h-27q-34 0 -65.5 -4.5t-57.5 -17t-44.5 -36.5t-27.5 -63l-155 -721q-4 -18 -8.5 -40t-8 -45.5 t-6 -47.5t-2.5 -45q0 -103 64 -156t188 -53zM1015 1579q-44 26 -93.5 66t-95.5 83.5t-84.5 85.5t-59.5 72l6 21h301q12 -37 31.5 -80t40.5 -84t42.5 -77t38.5 -60l-6 -27h-121z" />
<glyph unicode="&#xda;" horiz-adv-x="1530" d="M772 125q93 0 157 27t107 74.5t69 113t42 143.5l158 740q3 17 5.5 35t2.5 26q0 22 -11 36t-30.5 21.5t-47 10t-59.5 2.5h-26l22 108h539l-23 -108h-26q-33 0 -64 -4.5t-57 -17.5t-44.5 -38t-27.5 -65l-164 -778q-24 -115 -71.5 -203t-121 -147.5t-173.5 -90t-230 -30.5 q-120 0 -212 23.5t-155 69t-95.5 111.5t-32.5 150q0 16 2 40t5 49.5t7 50t8 42.5l150 698q12 55 12 70q0 22 -11 36t-30.5 21.5t-46.5 10t-59 2.5h-27l23 108h708l-22 -108h-27q-34 0 -65.5 -4.5t-57.5 -17t-44.5 -36.5t-27.5 -63l-155 -721q-4 -18 -8.5 -40t-8 -45.5 t-6 -47.5t-2.5 -45q0 -103 64 -156t188 -53zM914 1606q28 29 61 67t65.5 78.5t63 80.5t54.5 75h321l-6 -21q-16 -18 -44 -42.5t-63.5 -52.5t-76 -57.5t-82.5 -57.5t-83 -53.5t-77 -43.5h-139z" />
<glyph unicode="&#xdb;" horiz-adv-x="1530" d="M772 125q93 0 157 27t107 74.5t69 113t42 143.5l158 740q3 17 5.5 35t2.5 26q0 22 -11 36t-30.5 21.5t-47 10t-59.5 2.5h-26l22 108h539l-23 -108h-26q-33 0 -64 -4.5t-57 -17.5t-44.5 -38t-27.5 -65l-164 -778q-24 -115 -71.5 -203t-121 -147.5t-173.5 -90t-230 -30.5 q-120 0 -212 23.5t-155 69t-95.5 111.5t-32.5 150q0 16 2 40t5 49.5t7 50t8 42.5l150 698q12 55 12 70q0 22 -11 36t-30.5 21.5t-46.5 10t-59 2.5h-27l23 108h708l-22 -108h-27q-34 0 -65.5 -4.5t-57.5 -17t-44.5 -36.5t-27.5 -63l-155 -721q-4 -18 -8.5 -40t-8 -45.5 t-6 -47.5t-2.5 -45q0 -103 64 -156t188 -53zM697 1606q30 29 68 66.5t78 77.5t78 80.5t67 76.5h276q13 -32 33 -72t42.5 -81t44.5 -80t40 -68l-6 -27h-129q-18 17 -42 40t-49 48t-49.5 50t-42.5 46q-27 -21 -61 -46t-69 -50t-68 -48t-58 -40h-159z" />
<glyph unicode="&#xdc;" horiz-adv-x="1530" d="M772 125q93 0 157 27t107 74.5t69 113t42 143.5l158 740q3 17 5.5 35t2.5 26q0 22 -11 36t-30.5 21.5t-47 10t-59.5 2.5h-26l22 108h539l-23 -108h-26q-33 0 -64 -4.5t-57 -17.5t-44.5 -38t-27.5 -65l-164 -778q-24 -115 -71.5 -203t-121 -147.5t-173.5 -90t-230 -30.5 q-120 0 -212 23.5t-155 69t-95.5 111.5t-32.5 150q0 16 2 40t5 49.5t7 50t8 42.5l150 698q12 55 12 70q0 22 -11 36t-30.5 21.5t-46.5 10t-59 2.5h-27l23 108h708l-22 -108h-27q-34 0 -65.5 -4.5t-57.5 -17t-44.5 -36.5t-27.5 -63l-155 -721q-4 -18 -8.5 -40t-8 -45.5 t-6 -47.5t-2.5 -45q0 -103 64 -156t188 -53zM956 1755q0 -40 -11 -67t-28 -44t-39 -24.5t-44 -7.5q-51 0 -82 27.5t-31 84.5q0 66 33 105t90 39q49 0 80.5 -28t31.5 -85zM1384 1755q0 -40 -11 -67t-28 -44t-39 -24.5t-44 -7.5q-51 0 -82 27.5t-31 84.5q0 66 33 105t90 39 q49 0 80.5 -28t31.5 -85z" />
<glyph unicode="&#xdd;" horiz-adv-x="1419" d="M227 0l23 109h55q32 0 62 4.5t55 18t43 37.5t27 64l59 285l-221 727q-9 30 -18.5 51t-22.5 33.5t-32.5 18.5t-49.5 6h-27l23 108h665l-22 -108h-92q-47 0 -66.5 -16t-19.5 -44q0 -18 6 -52t18 -81l74 -289q7 -30 15 -64t14.5 -68t11 -66.5t6.5 -57.5q19 41 58 104t92 138 l202 289q25 35 43.5 76t18.5 75q0 28 -28.5 42t-96.5 14h-43l24 108h537l-23 -108h-38q-23 0 -42.5 -6t-39.5 -21.5t-42.5 -41t-50.5 -64.5l-507 -705l-62 -291q-2 -11 -5 -25t-3 -22q0 -22 11 -35.5t31 -21t47.5 -10t59.5 -2.5h50l-23 -109h-756zM832 1606q28 29 61 67 t65.5 78.5t63 80.5t54.5 75h321l-6 -21q-16 -18 -44 -42.5t-63.5 -52.5t-76 -57.5t-82.5 -57.5t-83 -53.5t-77 -43.5h-139z" />
<glyph unicode="&#xde;" horiz-adv-x="1307" d="M-47 0l22 109h27q32 0 62.5 4t55.5 17t43.5 37t26.5 64l213 1006q4 11 6.5 25t2.5 22q0 22 -11 36t-30.5 21.5t-47 10t-59.5 2.5h-26l22 108h707l-23 -108h-26q-34 0 -65.5 -4.5t-57.5 -17.5t-45 -38t-27 -65l-6 -31h67q121 0 217.5 -25.5t164.5 -76t104.5 -125 t36.5 -172.5q0 -52 -10 -110t-35.5 -114t-70.5 -106.5t-114.5 -89t-167.5 -61.5t-229 -23h-154l-14 -70q-2 -11 -5 -25t-3 -22q0 -22 11 -35.5t31 -21t47.5 -10t59.5 -2.5h27l-23 -109h-704zM551 414h84q93 0 157.5 28t104.5 78t58 120t18 153q0 76 -17.5 130t-49 88.5 t-75 50t-94.5 15.5h-45z" />
<glyph unicode="&#xdf;" horiz-adv-x="1423" d="M895 1460q-55 0 -97.5 -19.5t-74 -56t-53 -89t-33.5 -119.5l-256 -1192q-20 -94 -54.5 -166t-78 -125t-94.5 -88.5t-105 -57t-109.5 -30.5t-107.5 -9q-40 0 -75.5 6.5t-55.5 14.5l29 113q17 -5 40.5 -9t55.5 -4q45 0 81 19.5t65.5 62t53.5 109.5t46 162l207 976h-166 l26 140h170l17 63q27 116 81.5 195.5t130.5 129t170 71.5t201 22q111 0 194 -23t138.5 -64.5t83 -100.5t27.5 -131q0 -26 -3.5 -58.5t-8.5 -66.5t-11.5 -67.5t-13.5 -61.5h-117q-61 0 -105 -12t-72.5 -33.5t-42 -51.5t-13.5 -67q0 -29 8.5 -53t28.5 -47t54.5 -47.5 t86.5 -55.5q99 -57 141.5 -129.5t42.5 -171.5q0 -81 -32.5 -147t-92 -113t-143 -72.5t-185.5 -25.5q-77 0 -140 15t-108 44t-69.5 70t-24.5 94q0 40 15 71.5t43 53t66.5 32.5t86.5 11q0 -48 8 -95t26.5 -85t48 -61.5t71.5 -23.5q68 0 103.5 45t35.5 119q0 32 -6 60.5 t-23 55.5t-47.5 53t-78.5 55q-96 55 -149.5 131t-53.5 176q0 83 31.5 142.5t83 98t116.5 56.5t133 18q10 47 15.5 85.5t5.5 72.5q0 84 -41 135t-127 51z" />
<glyph unicode="&#xe0;" horiz-adv-x="1362" d="M969 -20q-91 0 -146 41.5t-55 121.5q0 32 3 62.5t11 70.5h-14q-38 -71 -75.5 -126.5t-83.5 -93t-102.5 -57t-131.5 -19.5q-73 0 -128 28.5t-91.5 78.5t-55 118.5t-18.5 148.5t18.5 167.5t55.5 172.5t91.5 162t126 135t159.5 92.5t192 34.5q40 0 81.5 -6.5t79.5 -16.5 t71.5 -22.5t56.5 -25.5l108 49h109l-135 -639q-4 -17 -10 -45t-11.5 -59.5t-9.5 -61t-4 -49.5q0 -51 20 -76t52 -25q29 0 55.5 12.5t58.5 30.5l45 -82q-26 -20 -59 -41.5t-73.5 -39.5t-88 -29.5t-102.5 -11.5zM393 352q0 -59 8.5 -99t23 -64.5t35 -35t44.5 -10.5q45 0 93 39 t90 102.5t75.5 143.5t50.5 162l72 340q-20 29 -55.5 43t-75.5 14q-60 0 -109.5 -31t-89.5 -83t-70.5 -118t-51 -137t-30.5 -140t-10 -126zM758 1241q-44 26 -93.5 66t-95.5 83.5t-84.5 85.5t-59.5 72l6 21h301q12 -37 31.5 -80t40.5 -84t42.5 -77t38.5 -60l-6 -27h-121z" />
<glyph unicode="&#xe1;" horiz-adv-x="1362" d="M969 -20q-91 0 -146 41.5t-55 121.5q0 32 3 62.5t11 70.5h-14q-38 -71 -75.5 -126.5t-83.5 -93t-102.5 -57t-131.5 -19.5q-73 0 -128 28.5t-91.5 78.5t-55 118.5t-18.5 148.5t18.5 167.5t55.5 172.5t91.5 162t126 135t159.5 92.5t192 34.5q40 0 81.5 -6.5t79.5 -16.5 t71.5 -22.5t56.5 -25.5l108 49h109l-135 -639q-4 -17 -10 -45t-11.5 -59.5t-9.5 -61t-4 -49.5q0 -51 20 -76t52 -25q29 0 55.5 12.5t58.5 30.5l45 -82q-26 -20 -59 -41.5t-73.5 -39.5t-88 -29.5t-102.5 -11.5zM393 352q0 -59 8.5 -99t23 -64.5t35 -35t44.5 -10.5q45 0 93 39 t90 102.5t75.5 143.5t50.5 162l72 340q-20 29 -55.5 43t-75.5 14q-60 0 -109.5 -31t-89.5 -83t-70.5 -118t-51 -137t-30.5 -140t-10 -126zM637 1268q28 29 61 67t65.5 78.5t63 80.5t54.5 75h321l-6 -21q-16 -18 -44 -42.5t-63.5 -52.5t-76 -57.5t-82.5 -57.5t-83 -53.5 t-77 -43.5h-139z" />
<glyph unicode="&#xe2;" horiz-adv-x="1362" d="M969 -20q-91 0 -146 41.5t-55 121.5q0 32 3 62.5t11 70.5h-14q-38 -71 -75.5 -126.5t-83.5 -93t-102.5 -57t-131.5 -19.5q-73 0 -128 28.5t-91.5 78.5t-55 118.5t-18.5 148.5t18.5 167.5t55.5 172.5t91.5 162t126 135t159.5 92.5t192 34.5q40 0 81.5 -6.5t79.5 -16.5 t71.5 -22.5t56.5 -25.5l108 49h109l-135 -639q-4 -17 -10 -45t-11.5 -59.5t-9.5 -61t-4 -49.5q0 -51 20 -76t52 -25q29 0 55.5 12.5t58.5 30.5l45 -82q-26 -20 -59 -41.5t-73.5 -39.5t-88 -29.5t-102.5 -11.5zM393 352q0 -59 8.5 -99t23 -64.5t35 -35t44.5 -10.5q45 0 93 39 t90 102.5t75.5 143.5t50.5 162l72 340q-20 29 -55.5 43t-75.5 14q-60 0 -109.5 -31t-89.5 -83t-70.5 -118t-51 -137t-30.5 -140t-10 -126zM389 1268q30 29 68 66.5t78 77.5t78 80.5t67 76.5h276q13 -32 33 -72t42.5 -81t44.5 -80t40 -68l-6 -27h-129q-18 17 -42 40t-49 48 t-49.5 50t-42.5 46q-27 -21 -61 -46t-69 -50t-68 -48t-58 -40h-159z" />
<glyph unicode="&#xe3;" horiz-adv-x="1362" d="M969 -20q-91 0 -146 41.5t-55 121.5q0 32 3 62.5t11 70.5h-14q-38 -71 -75.5 -126.5t-83.5 -93t-102.5 -57t-131.5 -19.5q-73 0 -128 28.5t-91.5 78.5t-55 118.5t-18.5 148.5t18.5 167.5t55.5 172.5t91.5 162t126 135t159.5 92.5t192 34.5q40 0 81.5 -6.5t79.5 -16.5 t71.5 -22.5t56.5 -25.5l108 49h109l-135 -639q-4 -17 -10 -45t-11.5 -59.5t-9.5 -61t-4 -49.5q0 -51 20 -76t52 -25q29 0 55.5 12.5t58.5 30.5l45 -82q-26 -20 -59 -41.5t-73.5 -39.5t-88 -29.5t-102.5 -11.5zM393 352q0 -59 8.5 -99t23 -64.5t35 -35t44.5 -10.5q45 0 93 39 t90 102.5t75.5 143.5t50.5 162l72 340q-20 29 -55.5 43t-75.5 14q-60 0 -109.5 -31t-89.5 -83t-70.5 -118t-51 -137t-30.5 -140t-10 -126zM979 1436q26 0 45 9t32.5 24t22 34.5t13.5 40.5h123q-11 -49 -33.5 -102.5t-56 -98t-78 -73.5t-99.5 -29t-99 20t-81 44.5t-69.5 44.5 t-65.5 20q-21 0 -40 -9t-34 -24t-25 -34.5t-14 -40.5h-122q9 46 32.5 99.5t59.5 98.5t82.5 75t101.5 30q54 0 96.5 -20t78 -44.5t67 -44.5t63.5 -20z" />
<glyph unicode="&#xe4;" horiz-adv-x="1362" d="M969 -20q-91 0 -146 41.5t-55 121.5q0 32 3 62.5t11 70.5h-14q-38 -71 -75.5 -126.5t-83.5 -93t-102.5 -57t-131.5 -19.5q-73 0 -128 28.5t-91.5 78.5t-55 118.5t-18.5 148.5t18.5 167.5t55.5 172.5t91.5 162t126 135t159.5 92.5t192 34.5q40 0 81.5 -6.5t79.5 -16.5 t71.5 -22.5t56.5 -25.5l108 49h109l-135 -639q-4 -17 -10 -45t-11.5 -59.5t-9.5 -61t-4 -49.5q0 -51 20 -76t52 -25q29 0 55.5 12.5t58.5 30.5l45 -82q-26 -20 -59 -41.5t-73.5 -39.5t-88 -29.5t-102.5 -11.5zM393 352q0 -59 8.5 -99t23 -64.5t35 -35t44.5 -10.5q45 0 93 39 t90 102.5t75.5 143.5t50.5 162l72 340q-20 29 -55.5 43t-75.5 14q-60 0 -109.5 -31t-89.5 -83t-70.5 -118t-51 -137t-30.5 -140t-10 -126zM659 1417q0 -40 -11 -67t-28 -44t-39 -24.5t-44 -7.5q-51 0 -82 27.5t-31 84.5q0 66 33 105t90 39q49 0 80.5 -28t31.5 -85z M1087 1417q0 -40 -11 -67t-28 -44t-39 -24.5t-44 -7.5q-51 0 -82 27.5t-31 84.5q0 66 33 105t90 39q49 0 80.5 -28t31.5 -85z" />
<glyph unicode="&#xe5;" horiz-adv-x="1362" d="M969 -20q-91 0 -146 41.5t-55 121.5q0 32 3 62.5t11 70.5h-14q-38 -71 -75.5 -126.5t-83.5 -93t-102.5 -57t-131.5 -19.5q-73 0 -128 28.5t-91.5 78.5t-55 118.5t-18.5 148.5t18.5 167.5t55.5 172.5t91.5 162t126 135t159.5 92.5t192 34.5q40 0 81.5 -6.5t79.5 -16.5 t71.5 -22.5t56.5 -25.5l108 49h109l-135 -639q-4 -17 -10 -45t-11.5 -59.5t-9.5 -61t-4 -49.5q0 -51 20 -76t52 -25q29 0 55.5 12.5t58.5 30.5l45 -82q-26 -20 -59 -41.5t-73.5 -39.5t-88 -29.5t-102.5 -11.5zM393 352q0 -59 8.5 -99t23 -64.5t35 -35t44.5 -10.5q45 0 93 39 t90 102.5t75.5 143.5t50.5 162l72 340q-20 29 -55.5 43t-75.5 14q-60 0 -109.5 -31t-89.5 -83t-70.5 -118t-51 -137t-30.5 -140t-10 -126zM1049 1432q0 -55 -19 -96.5t-52.5 -70t-78.5 -43t-96 -14.5t-96 14.5t-78.5 43t-52.5 70t-19 96.5q0 54 19 96t52.5 70t78.5 42.5 t96 14.5t96 -14.5t78.5 -42.5t52.5 -70t19 -96zM924 1432q0 30 -10 50.5t-26.5 34t-38.5 19.5t-46 6q-25 0 -47 -6t-38.5 -19.5t-26 -34t-9.5 -50.5t9.5 -51t26 -34.5t38.5 -19.5t47 -6q24 0 46 6t38.5 19.5t26.5 34.5t10 51z" />
<glyph unicode="&#xe6;" horiz-adv-x="1802" d="M1325 135q50 0 95 14.5t83 38t69 53t52 60.5q12 -15 19.5 -38.5t7.5 -49.5q0 -37 -24 -78t-73.5 -75.5t-126.5 -57t-182 -22.5q-187 0 -299.5 75t-150.5 221h-19q-38 -71 -77 -126.5t-86 -93t-105 -57t-133 -19.5q-73 0 -128 28.5t-91.5 78.5t-55 118.5t-18.5 148.5 t18.5 167.5t55.5 172.5t91.5 162t126 135t159.5 92.5t192 34.5q103 0 186 -31.5t154 -93.5q80 62 181.5 95.5t226.5 33.5q154 0 236.5 -63.5t82.5 -177.5q0 -83 -46 -159.5t-127 -135t-193 -93t-244 -34.5h-37.5t-38.5 2q-3 -20 -3.5 -40.5t-0.5 -37.5q0 -119 55.5 -183.5 t167.5 -64.5zM393 352q0 -59 8.5 -99t23 -64.5t35 -35t44.5 -10.5q37 0 77 28t77.5 74.5t70.5 108t57 129.5q10 53 24 107.5t33.5 106.5t44 101t56.5 91q-10 15 -29.5 32t-45 31.5t-55 24.5t-60.5 10q-60 0 -109.5 -31t-89.5 -83t-70.5 -118t-51 -137t-30.5 -140t-10 -126z M1397 999q-33 0 -64.5 -17.5t-59.5 -48t-52 -71.5t-44 -88t-34.5 -97t-22.5 -99h19q76 0 141.5 21t113.5 58.5t75.5 90.5t27.5 118q0 63 -26 98t-74 35z" />
<glyph unicode="&#xe7;" horiz-adv-x="1081" d="M621 135q54 0 97.5 14.5t78.5 38.5t62 54t48 61q13 -12 22 -35.5t9 -54.5q0 -40 -23.5 -81.5t-73 -75t-125.5 -55t-181 -21.5q-93 0 -175.5 26t-144 79t-97.5 132t-36 186q0 76 19 158.5t57 162t94.5 151t131.5 125.5t168 86t204 32q85 0 146.5 -17.5t101 -47t58.5 -69 t19 -83.5q0 -32 -13.5 -62.5t-43.5 -55t-77.5 -39.5t-115.5 -15q0 54 -9.5 102.5t-28.5 85t-46.5 57.5t-64.5 21q-44 0 -82.5 -29.5t-70.5 -78t-56.5 -111t-42 -129t-26.5 -131t-9 -117.5q0 -125 57 -194.5t169 -69.5zM487 -70q41 -5 74.5 -20t57.5 -37.5t37 -51t13 -61.5 q0 -66 -30.5 -113.5t-81.5 -78.5t-116.5 -45.5t-135.5 -14.5q-32 0 -75.5 7.5t-78.5 19.5l27 121q35 -8 70 -12t63 -4q31 0 59 6t48 18.5t32 32t12 47.5q0 20 -10.5 36.5t-28.5 29t-43 19.5t-53 9l82 180h117z" />
<glyph unicode="&#xe8;" horiz-adv-x="1096" d="M618 135q50 0 95 14.5t83.5 38t69 53t52.5 60.5q12 -15 19 -38.5t7 -49.5q0 -37 -24 -78t-73.5 -75.5t-126 -57t-181.5 -22.5q-94 0 -177 26t-145.5 78.5t-98.5 132t-36 186.5q0 76 20 159t59.5 162.5t98 151t135.5 125.5t172.5 85.5t208.5 31.5q147 0 228 -63.5 t81 -177.5q0 -83 -46 -159t-127 -133.5t-193 -91.5t-244 -34h-37t-39 2q-3 -20 -3.5 -40.5t-0.5 -37.5q0 -119 55.5 -183.5t167.5 -64.5zM690 995q-50 0 -95 -37.5t-81 -97.5t-62 -134.5t-38 -147.5h18q76 0 141.5 20t114 57.5t76 89.5t27.5 117q0 63 -26.5 98t-74.5 35z M762 1241q-44 26 -93.5 66t-95.5 83.5t-84.5 85.5t-59.5 72l6 21h301q12 -37 31.5 -80t40.5 -84t42.5 -77t38.5 -60l-6 -27h-121z" />
<glyph unicode="&#xe9;" horiz-adv-x="1096" d="M618 135q50 0 95 14.5t83.5 38t69 53t52.5 60.5q12 -15 19 -38.5t7 -49.5q0 -37 -24 -78t-73.5 -75.5t-126 -57t-181.5 -22.5q-94 0 -177 26t-145.5 78.5t-98.5 132t-36 186.5q0 76 20 159t59.5 162.5t98 151t135.5 125.5t172.5 85.5t208.5 31.5q147 0 228 -63.5 t81 -177.5q0 -83 -46 -159t-127 -133.5t-193 -91.5t-244 -34h-37t-39 2q-3 -20 -3.5 -40.5t-0.5 -37.5q0 -119 55.5 -183.5t167.5 -64.5zM690 995q-50 0 -95 -37.5t-81 -97.5t-62 -134.5t-38 -147.5h18q76 0 141.5 20t114 57.5t76 89.5t27.5 117q0 63 -26.5 98t-74.5 35z M633 1268q28 29 61 67t65.5 78.5t63 80.5t54.5 75h321l-6 -21q-16 -18 -44 -42.5t-63.5 -52.5t-76 -57.5t-82.5 -57.5t-83 -53.5t-77 -43.5h-139z" />
<glyph unicode="&#xea;" horiz-adv-x="1096" d="M618 135q50 0 95 14.5t83.5 38t69 53t52.5 60.5q12 -15 19 -38.5t7 -49.5q0 -37 -24 -78t-73.5 -75.5t-126 -57t-181.5 -22.5q-94 0 -177 26t-145.5 78.5t-98.5 132t-36 186.5q0 76 20 159t59.5 162.5t98 151t135.5 125.5t172.5 85.5t208.5 31.5q147 0 228 -63.5 t81 -177.5q0 -83 -46 -159t-127 -133.5t-193 -91.5t-244 -34h-37t-39 2q-3 -20 -3.5 -40.5t-0.5 -37.5q0 -119 55.5 -183.5t167.5 -64.5zM690 995q-50 0 -95 -37.5t-81 -97.5t-62 -134.5t-38 -147.5h18q76 0 141.5 20t114 57.5t76 89.5t27.5 117q0 63 -26.5 98t-74.5 35z M371 1268q30 29 68 66.5t78 77.5t78 80.5t67 76.5h276q13 -32 33 -72t42.5 -81t44.5 -80t40 -68l-6 -27h-129q-18 17 -42 40t-49 48t-49.5 50t-42.5 46q-27 -21 -61 -46t-69 -50t-68 -48t-58 -40h-159z" />
<glyph unicode="&#xeb;" horiz-adv-x="1096" d="M618 135q50 0 95 14.5t83.5 38t69 53t52.5 60.5q12 -15 19 -38.5t7 -49.5q0 -37 -24 -78t-73.5 -75.5t-126 -57t-181.5 -22.5q-94 0 -177 26t-145.5 78.5t-98.5 132t-36 186.5q0 76 20 159t59.5 162.5t98 151t135.5 125.5t172.5 85.5t208.5 31.5q147 0 228 -63.5 t81 -177.5q0 -83 -46 -159t-127 -133.5t-193 -91.5t-244 -34h-37t-39 2q-3 -20 -3.5 -40.5t-0.5 -37.5q0 -119 55.5 -183.5t167.5 -64.5zM690 995q-50 0 -95 -37.5t-81 -97.5t-62 -134.5t-38 -147.5h18q76 0 141.5 20t114 57.5t76 89.5t27.5 117q0 63 -26.5 98t-74.5 35z M634 1417q0 -40 -11 -67t-28 -44t-39 -24.5t-44 -7.5q-51 0 -82 27.5t-31 84.5q0 66 33 105t90 39q49 0 80.5 -28t31.5 -85zM1062 1417q0 -40 -11 -67t-28 -44t-39 -24.5t-44 -7.5q-51 0 -82 27.5t-31 84.5q0 66 33 105t90 39q49 0 80.5 -28t31.5 -85z" />
<glyph unicode="&#xec;" horiz-adv-x="725" d="M621 1098l-142 -666q-12 -56 -20 -104.5t-8 -91.5q0 -45 18.5 -69t52.5 -24q32 0 59 12t62 35l49 -69q-24 -26 -55 -51.5t-70 -45.5t-85.5 -32t-102.5 -12q-118 0 -181 55.5t-63 154.5q0 44 8 105t25 139l80 381q3 13 5.5 27t4.5 26.5t3 21.5t1 13q0 28 -6 45t-19 26 t-33.5 12t-49.5 3h-37l18 109h486zM457 1241q-44 26 -93.5 66t-95.5 83.5t-84.5 85.5t-59.5 72l6 21h301q12 -37 31.5 -80t40.5 -84t42.5 -77t38.5 -60l-6 -27h-121z" />
<glyph unicode="&#xed;" horiz-adv-x="725" d="M621 1098l-142 -666q-12 -56 -20 -104.5t-8 -91.5q0 -45 18.5 -69t52.5 -24q32 0 59 12t62 35l49 -69q-24 -26 -55 -51.5t-70 -45.5t-85.5 -32t-102.5 -12q-118 0 -181 55.5t-63 154.5q0 44 8 105t25 139l80 381q3 13 5.5 27t4.5 26.5t3 21.5t1 13q0 28 -6 45t-19 26 t-33.5 12t-49.5 3h-37l18 109h486zM345 1268q28 29 61 67t65.5 78.5t63 80.5t54.5 75h321l-6 -21q-16 -18 -44 -42.5t-63.5 -52.5t-76 -57.5t-82.5 -57.5t-83 -53.5t-77 -43.5h-139z" />
<glyph unicode="&#xee;" horiz-adv-x="725" d="M621 1098l-142 -666q-12 -56 -20 -104.5t-8 -91.5q0 -45 18.5 -69t52.5 -24q32 0 59 12t62 35l49 -69q-24 -26 -55 -51.5t-70 -45.5t-85.5 -32t-102.5 -12q-118 0 -181 55.5t-63 154.5q0 44 8 105t25 139l80 381q3 13 5.5 27t4.5 26.5t3 21.5t1 13q0 28 -6 45t-19 26 t-33.5 12t-49.5 3h-37l18 109h486zM69 1268q30 29 68 66.5t78 77.5t78 80.5t67 76.5h276q13 -32 33 -72t42.5 -81t44.5 -80t40 -68l-6 -27h-129q-18 17 -42 40t-49 48t-49.5 50t-42.5 46q-27 -21 -61 -46t-69 -50t-68 -48t-58 -40h-159z" />
<glyph unicode="&#xef;" horiz-adv-x="725" d="M621 1098l-142 -666q-12 -56 -20 -104.5t-8 -91.5q0 -45 18.5 -69t52.5 -24q32 0 59 12t62 35l49 -69q-24 -26 -55 -51.5t-70 -45.5t-85.5 -32t-102.5 -12q-118 0 -181 55.5t-63 154.5q0 44 8 105t25 139l80 381q3 13 5.5 27t4.5 26.5t3 21.5t1 13q0 28 -6 45t-19 26 t-33.5 12t-49.5 3h-37l18 109h486zM355 1417q0 -40 -11 -67t-28 -44t-39 -24.5t-44 -7.5q-51 0 -82 27.5t-31 84.5q0 66 33 105t90 39q49 0 80.5 -28t31.5 -85zM783 1417q0 -40 -11 -67t-28 -44t-39 -24.5t-44 -7.5q-51 0 -82 27.5t-31 84.5q0 66 33 105t90 39 q49 0 80.5 -28t31.5 -85z" />
<glyph unicode="&#xf0;" horiz-adv-x="1260" d="M82 410q0 63 16.5 135t49.5 143t83 137t118 116t153.5 80t189.5 30q51 0 98.5 -15t79.5 -41q-14 81 -46.5 146t-82.5 119l-321 -150l29 143l194 90q-48 35 -102 59.5t-113 43.5l39 125q91 -22 177.5 -59t164.5 -91l305 140l-31 -146l-170 -78q59 -56 108 -122t84 -144.5 t54 -170.5t19 -200q0 -89 -17.5 -177t-53 -168t-89.5 -148.5t-128 -119t-168.5 -79t-209.5 -28.5q-95 0 -174 26.5t-136 79.5t-88.5 134t-31.5 190zM393 393q0 -69 11.5 -117.5t33 -78.5t52.5 -44t69 -14q55 0 99 25.5t78 68t58.5 97.5t40 114t22.5 117.5t7 108.5 q0 125 -42.5 182t-121.5 57q-56 0 -100.5 -25.5t-78.5 -68t-58 -96.5t-39.5 -111.5t-23 -113.5t-7.5 -101z" />
<glyph unicode="&#xf1;" horiz-adv-x="1376" d="M800 190q0 88 33 244l33 162q4 20 10 49t12 60.5t10.5 63t4.5 56.5q0 19 -3.5 40t-13 38t-26 28t-43.5 11q-35 0 -69.5 -23.5t-66.5 -62t-61 -88t-52.5 -101.5t-40.5 -102t-26 -90l-104 -475h-307l172 815q3 13 5.5 27t4.5 26.5t3 21.5t1 13q0 28 -6 45t-19 26t-33.5 12 t-49.5 3h-37l18 109h455l-23 -219h13q39 61 80.5 106t89.5 74.5t104.5 44t124.5 14.5q65 0 109.5 -19t72 -51.5t39.5 -75t12 -89.5q0 -26 -3.5 -55.5t-9 -59.5t-12 -60t-11.5 -57l-46 -219q-12 -56 -20 -104.5t-8 -91.5q0 -45 18.5 -69t53.5 -24q32 0 58.5 12t61.5 35 l49 -69q-24 -26 -55 -51.5t-69.5 -45.5t-85.5 -32t-103 -12q-118 0 -181 55.5t-63 154.5zM995 1436q26 0 45 9t32.5 24t22 34.5t13.5 40.5h123q-11 -49 -33.5 -102.5t-56 -98t-78 -73.5t-99.5 -29t-99 20t-81 44.5t-69.5 44.5t-65.5 20q-21 0 -40 -9t-34 -24t-25 -34.5 t-14 -40.5h-122q9 46 32.5 99.5t59.5 98.5t82.5 75t101.5 30q54 0 96.5 -20t78 -44.5t67 -44.5t63.5 -20z" />
<glyph unicode="&#xf2;" horiz-adv-x="1266" d="M82 410q0 77 18 159t54.5 161t91.5 149.5t129.5 123.5t169 84t209.5 31q88 0 166 -24.5t136 -76.5t92 -133.5t34 -195.5q0 -74 -17 -155t-52.5 -159.5t-90 -150t-128.5 -125.5t-168 -86t-210 -32q-96 0 -176 26.5t-137 80t-89 134.5t-32 189zM553 127q55 0 99.5 31.5 t80 83t61.5 117.5t42.5 136t25 137.5t8.5 121.5q0 121 -41.5 174t-113.5 53q-52 0 -96 -30t-79.5 -80t-62.5 -114.5t-45.5 -133.5t-27.5 -137.5t-9 -125.5q0 -125 42 -179t116 -54zM758 1241q-44 26 -93.5 66t-95.5 83.5t-84.5 85.5t-59.5 72l6 21h301q12 -37 31.5 -80 t40.5 -84t42.5 -77t38.5 -60l-6 -27h-121z" />
<glyph unicode="&#xf3;" horiz-adv-x="1266" d="M82 410q0 77 18 159t54.5 161t91.5 149.5t129.5 123.5t169 84t209.5 31q88 0 166 -24.5t136 -76.5t92 -133.5t34 -195.5q0 -74 -17 -155t-52.5 -159.5t-90 -150t-128.5 -125.5t-168 -86t-210 -32q-96 0 -176 26.5t-137 80t-89 134.5t-32 189zM553 127q55 0 99.5 31.5 t80 83t61.5 117.5t42.5 136t25 137.5t8.5 121.5q0 121 -41.5 174t-113.5 53q-52 0 -96 -30t-79.5 -80t-62.5 -114.5t-45.5 -133.5t-27.5 -137.5t-9 -125.5q0 -125 42 -179t116 -54zM674 1268q28 29 61 67t65.5 78.5t63 80.5t54.5 75h321l-6 -21q-16 -18 -44 -42.5 t-63.5 -52.5t-76 -57.5t-82.5 -57.5t-83 -53.5t-77 -43.5h-139z" />
<glyph unicode="&#xf4;" horiz-adv-x="1266" d="M82 410q0 77 18 159t54.5 161t91.5 149.5t129.5 123.5t169 84t209.5 31q88 0 166 -24.5t136 -76.5t92 -133.5t34 -195.5q0 -74 -17 -155t-52.5 -159.5t-90 -150t-128.5 -125.5t-168 -86t-210 -32q-96 0 -176 26.5t-137 80t-89 134.5t-32 189zM553 127q55 0 99.5 31.5 t80 83t61.5 117.5t42.5 136t25 137.5t8.5 121.5q0 121 -41.5 174t-113.5 53q-52 0 -96 -30t-79.5 -80t-62.5 -114.5t-45.5 -133.5t-27.5 -137.5t-9 -125.5q0 -125 42 -179t116 -54zM408 1268q30 29 68 66.5t78 77.5t78 80.5t67 76.5h276q13 -32 33 -72t42.5 -81t44.5 -80 t40 -68l-6 -27h-129q-18 17 -42 40t-49 48t-49.5 50t-42.5 46q-27 -21 -61 -46t-69 -50t-68 -48t-58 -40h-159z" />
<glyph unicode="&#xf5;" horiz-adv-x="1266" d="M82 410q0 77 18 159t54.5 161t91.5 149.5t129.5 123.5t169 84t209.5 31q88 0 166 -24.5t136 -76.5t92 -133.5t34 -195.5q0 -74 -17 -155t-52.5 -159.5t-90 -150t-128.5 -125.5t-168 -86t-210 -32q-96 0 -176 26.5t-137 80t-89 134.5t-32 189zM553 127q55 0 99.5 31.5 t80 83t61.5 117.5t42.5 136t25 137.5t8.5 121.5q0 121 -41.5 174t-113.5 53q-52 0 -96 -30t-79.5 -80t-62.5 -114.5t-45.5 -133.5t-27.5 -137.5t-9 -125.5q0 -125 42 -179t116 -54zM958 1436q26 0 45 9t32.5 24t22 34.5t13.5 40.5h123q-11 -49 -33.5 -102.5t-56 -98 t-78 -73.5t-99.5 -29t-99 20t-81 44.5t-69.5 44.5t-65.5 20q-21 0 -40 -9t-34 -24t-25 -34.5t-14 -40.5h-122q9 46 32.5 99.5t59.5 98.5t82.5 75t101.5 30q54 0 96.5 -20t78 -44.5t67 -44.5t63.5 -20z" />
<glyph unicode="&#xf6;" horiz-adv-x="1266" d="M82 410q0 77 18 159t54.5 161t91.5 149.5t129.5 123.5t169 84t209.5 31q88 0 166 -24.5t136 -76.5t92 -133.5t34 -195.5q0 -74 -17 -155t-52.5 -159.5t-90 -150t-128.5 -125.5t-168 -86t-210 -32q-96 0 -176 26.5t-137 80t-89 134.5t-32 189zM553 127q55 0 99.5 31.5 t80 83t61.5 117.5t42.5 136t25 137.5t8.5 121.5q0 121 -41.5 174t-113.5 53q-52 0 -96 -30t-79.5 -80t-62.5 -114.5t-45.5 -133.5t-27.5 -137.5t-9 -125.5q0 -125 42 -179t116 -54zM690 1417q0 -40 -11 -67t-28 -44t-39 -24.5t-44 -7.5q-51 0 -82 27.5t-31 84.5q0 66 33 105 t90 39q49 0 80.5 -28t31.5 -85zM1118 1417q0 -40 -11 -67t-28 -44t-39 -24.5t-44 -7.5q-51 0 -82 27.5t-31 84.5q0 66 33 105t90 39q49 0 80.5 -28t31.5 -85z" />
<glyph unicode="&#xf7;" d="M492 1120q0 70 32.5 97.5t81.5 27.5q24 0 45 -6.5t36.5 -21t24.5 -38.5t9 -59t-9 -58.5t-24.5 -38.5t-36.5 -21.5t-45 -6.5q-49 0 -81.5 28t-32.5 97zM492 344q0 70 32.5 97.5t81.5 27.5q24 0 45 -6.5t36.5 -21t24.5 -38.5t9 -59t-9 -58.5t-24.5 -38.5t-36.5 -21.5 t-45 -6.5q-49 0 -81.5 28t-32.5 97zM1044 659h-878v146h878v-146z" />
<glyph unicode="&#xf8;" horiz-adv-x="1266" d="M82 410q0 77 18 159t54.5 161t91.5 149.5t129.5 123.5t169 84t209.5 31q60 0 114.5 -11t102.5 -34l92 107h154l-146 -179q51 -52 81 -129.5t30 -183.5q0 -74 -17 -155t-52.5 -159.5t-90 -150t-128.5 -125.5t-168 -86t-210 -32q-137 0 -240 53l-94 -115h-155l153 188 q-48 54 -73 129.5t-25 174.5zM553 127q55 0 99.5 31.5t80 83t61.5 117.5t42.5 136t25 137.5t8.5 121.5v4l-450 -549q20 -43 53.5 -62.5t79.5 -19.5zM715 981q-52 0 -95.5 -29.5t-79 -78t-62.5 -112t-45 -131.5t-28 -135.5t-10 -125.5l443 542q-20 35 -51.5 52.5t-71.5 17.5z " />
<glyph unicode="&#xf9;" horiz-adv-x="1378" d="M793 176q0 9 1 21t2.5 25t3 24.5t3.5 19.5h-17q-45 -64 -88.5 -116t-92.5 -89.5t-106 -58t-130 -20.5q-66 0 -111 18.5t-72 49.5t-39 72.5t-12 86.5q0 51 12 112t23 113l74 361q8 42 13 76t5 51q0 41 -25 54t-83 13h-37l18 109h492l-135 -613q-6 -24 -12 -54t-11 -60 t-8.5 -57t-3.5 -46q0 -45 19 -71.5t69 -26.5q45 0 92.5 40.5t91 105t77.5 144t52 156.5l109 482h305l-139 -666q-13 -56 -21 -104.5t-8 -91.5q0 -45 18.5 -69t53.5 -24q32 0 58.5 12t61.5 35l50 -69q-25 -26 -56 -51.5t-69.5 -45.5t-85.5 -32t-103 -12q-68 0 -113.5 15.5 t-73.5 42t-40 62t-12 76.5zM752 1241q-44 26 -93.5 66t-95.5 83.5t-84.5 85.5t-59.5 72l6 21h301q12 -37 31.5 -80t40.5 -84t42.5 -77t38.5 -60l-6 -27h-121z" />
<glyph unicode="&#xfa;" horiz-adv-x="1378" d="M793 176q0 9 1 21t2.5 25t3 24.5t3.5 19.5h-17q-45 -64 -88.5 -116t-92.5 -89.5t-106 -58t-130 -20.5q-66 0 -111 18.5t-72 49.5t-39 72.5t-12 86.5q0 51 12 112t23 113l74 361q8 42 13 76t5 51q0 41 -25 54t-83 13h-37l18 109h492l-135 -613q-6 -24 -12 -54t-11 -60 t-8.5 -57t-3.5 -46q0 -45 19 -71.5t69 -26.5q45 0 92.5 40.5t91 105t77.5 144t52 156.5l109 482h305l-139 -666q-13 -56 -21 -104.5t-8 -91.5q0 -45 18.5 -69t53.5 -24q32 0 58.5 12t61.5 35l50 -69q-25 -26 -56 -51.5t-69.5 -45.5t-85.5 -32t-103 -12q-68 0 -113.5 15.5 t-73.5 42t-40 62t-12 76.5zM688 1268q28 29 61 67t65.5 78.5t63 80.5t54.5 75h321l-6 -21q-16 -18 -44 -42.5t-63.5 -52.5t-76 -57.5t-82.5 -57.5t-83 -53.5t-77 -43.5h-139z" />
<glyph unicode="&#xfb;" horiz-adv-x="1378" d="M793 176q0 9 1 21t2.5 25t3 24.5t3.5 19.5h-17q-45 -64 -88.5 -116t-92.5 -89.5t-106 -58t-130 -20.5q-66 0 -111 18.5t-72 49.5t-39 72.5t-12 86.5q0 51 12 112t23 113l74 361q8 42 13 76t5 51q0 41 -25 54t-83 13h-37l18 109h492l-135 -613q-6 -24 -12 -54t-11 -60 t-8.5 -57t-3.5 -46q0 -45 19 -71.5t69 -26.5q45 0 92.5 40.5t91 105t77.5 144t52 156.5l109 482h305l-139 -666q-13 -56 -21 -104.5t-8 -91.5q0 -45 18.5 -69t53.5 -24q32 0 58.5 12t61.5 35l50 -69q-25 -26 -56 -51.5t-69.5 -45.5t-85.5 -32t-103 -12q-68 0 -113.5 15.5 t-73.5 42t-40 62t-12 76.5zM451 1268q30 29 68 66.5t78 77.5t78 80.5t67 76.5h276q13 -32 33 -72t42.5 -81t44.5 -80t40 -68l-6 -27h-129q-18 17 -42 40t-49 48t-49.5 50t-42.5 46q-27 -21 -61 -46t-69 -50t-68 -48t-58 -40h-159z" />
<glyph unicode="&#xfc;" horiz-adv-x="1378" d="M793 176q0 9 1 21t2.5 25t3 24.5t3.5 19.5h-17q-45 -64 -88.5 -116t-92.5 -89.5t-106 -58t-130 -20.5q-66 0 -111 18.5t-72 49.5t-39 72.5t-12 86.5q0 51 12 112t23 113l74 361q8 42 13 76t5 51q0 41 -25 54t-83 13h-37l18 109h492l-135 -613q-6 -24 -12 -54t-11 -60 t-8.5 -57t-3.5 -46q0 -45 19 -71.5t69 -26.5q45 0 92.5 40.5t91 105t77.5 144t52 156.5l109 482h305l-139 -666q-13 -56 -21 -104.5t-8 -91.5q0 -45 18.5 -69t53.5 -24q32 0 58.5 12t61.5 35l50 -69q-25 -26 -56 -51.5t-69.5 -45.5t-85.5 -32t-103 -12q-68 0 -113.5 15.5 t-73.5 42t-40 62t-12 76.5zM731 1417q0 -40 -11 -67t-28 -44t-39 -24.5t-44 -7.5q-51 0 -82 27.5t-31 84.5q0 66 33 105t90 39q49 0 80.5 -28t31.5 -85zM1159 1417q0 -40 -11 -67t-28 -44t-39 -24.5t-44 -7.5q-51 0 -82 27.5t-31 84.5q0 66 33 105t90 39q49 0 80.5 -28 t31.5 -85z" />
<glyph unicode="&#xfd;" horiz-adv-x="1200" d="M160 881q-17 61 -49.5 84.5t-92.5 23.5h-20l25 109h401l135 -531q10 -40 21 -93.5t21 -107t17 -100t9 -71.5h6q61 82 115 165t94.5 161.5t64 149.5t23.5 130q0 69 -33.5 105t-93.5 36q0 40 12.5 72.5t34.5 55.5t52 35.5t65 12.5q83 0 125.5 -46t42.5 -128q0 -80 -27 -169 t-77 -189t-121.5 -212t-161.5 -237q-74 -104 -139 -191t-127.5 -157t-127 -122.5t-137 -88t-158 -53t-190.5 -17.5q-59 0 -114.5 10t-98.5 27l31 115q24 -8 67.5 -17.5t106.5 -9.5q94 0 172 25t144.5 67.5t125 99.5t113.5 122zM508 1268q28 29 61 67t65.5 78.5t63 80.5 t54.5 75h321l-6 -21q-16 -18 -44 -42.5t-63.5 -52.5t-76 -57.5t-82.5 -57.5t-83 -53.5t-77 -43.5h-139z" />
<glyph unicode="&#xfe;" horiz-adv-x="1276" d="M885 733q0 42 -5.5 81.5t-18 70.5t-34 50t-53.5 19q-34 0 -67.5 -19.5t-65 -52.5t-59 -76t-50 -89.5t-39 -93.5t-24.5 -88l-78 -367q9 -9 24 -19.5t34 -18.5t41.5 -13.5t46.5 -5.5q55 0 102.5 30t86 80t68.5 114.5t50 133.5t30.5 137.5t10.5 126.5zM506 825q35 64 72 118 t82 93t102 60.5t133 21.5q67 0 122.5 -24t94.5 -71t60.5 -116t21.5 -159q0 -74 -17.5 -159.5t-52.5 -171t-87.5 -164.5t-123.5 -139.5t-159.5 -97t-194.5 -36.5q-62 0 -115.5 12.5t-93.5 34.5q-1 -16 -4 -33q-2 -14 -5 -31.5t-7 -34.5l-29 -137q-3 -13 -5.5 -27t-4.5 -26.5 t-3 -21.5t-1 -13q0 -28 6 -45t19 -26t33.5 -12t49.5 -3h78l-18 -109h-520l376 1766q3 13 6 27t5 26.5t3 21.5t1 13q0 28 -6 45t-19 26t-34 12t-50 3h-47l19 108h497l-82 -389q-4 -19 -13 -48t-20 -62t-23.5 -68t-24 -66.5t-21 -57.5t-14.5 -40h14z" />
<glyph unicode="&#xff;" horiz-adv-x="1200" d="M160 881q-17 61 -49.5 84.5t-92.5 23.5h-20l25 109h401l135 -531q10 -40 21 -93.5t21 -107t17 -100t9 -71.5h6q61 82 115 165t94.5 161.5t64 149.5t23.5 130q0 69 -33.5 105t-93.5 36q0 40 12.5 72.5t34.5 55.5t52 35.5t65 12.5q83 0 125.5 -46t42.5 -128q0 -80 -27 -169 t-77 -189t-121.5 -212t-161.5 -237q-74 -104 -139 -191t-127.5 -157t-127 -122.5t-137 -88t-158 -53t-190.5 -17.5q-59 0 -114.5 10t-98.5 27l31 115q24 -8 67.5 -17.5t106.5 -9.5q94 0 172 25t144.5 67.5t125 99.5t113.5 122zM556 1417q0 -40 -11 -67t-28 -44t-39 -24.5 t-44 -7.5q-51 0 -82 27.5t-31 84.5q0 66 33 105t90 39q49 0 80.5 -28t31.5 -85zM984 1417q0 -40 -11 -67t-28 -44t-39 -24.5t-44 -7.5q-51 0 -82 27.5t-31 84.5q0 66 33 105t90 39q49 0 80.5 -28t31.5 -85z" />
<glyph unicode="&#x100;" horiz-adv-x="1542" d="M438 481l-100 -184q-20 -37 -29.5 -65t-9.5 -50q0 -38 28 -55.5t87 -17.5h41l-23 -109h-532l22 109h43q28 0 49.5 6.5t41.5 24.5t41.5 49t49.5 79l695 1194h280l172 -1206q5 -32 13.5 -59t22.5 -46.5t35.5 -30.5t53.5 -11h37l-22 -109h-676l22 109h47q66 0 105 20.5 t39 65.5q0 17 -1 33.5t-3 31.5l-31 221h-498zM885 950q-5 45 -9.5 84.5t-8 76.5t-6 72t-3.5 72q-15 -37 -30 -68.5t-32 -64t-37.5 -69t-47.5 -84.5l-203 -363h414zM1285 1579h-594l34 162h594z" />
<glyph unicode="&#x101;" horiz-adv-x="1362" d="M969 -20q-91 0 -146 41.5t-55 121.5q0 32 3 62.5t11 70.5h-14q-38 -71 -75.5 -126.5t-83.5 -93t-102.5 -57t-131.5 -19.5q-73 0 -128 28.5t-91.5 78.5t-55 118.5t-18.5 148.5t18.5 167.5t55.5 172.5t91.5 162t126 135t159.5 92.5t192 34.5q40 0 81.5 -6.5t79.5 -16.5 t71.5 -22.5t56.5 -25.5l108 49h109l-135 -639q-4 -17 -10 -45t-11.5 -59.5t-9.5 -61t-4 -49.5q0 -51 20 -76t52 -25q29 0 55.5 12.5t58.5 30.5l45 -82q-26 -20 -59 -41.5t-73.5 -39.5t-88 -29.5t-102.5 -11.5zM393 352q0 -59 8.5 -99t23 -64.5t35 -35t44.5 -10.5q45 0 93 39 t90 102.5t75.5 143.5t50.5 162l72 340q-20 29 -55.5 43t-75.5 14q-60 0 -109.5 -31t-89.5 -83t-70.5 -118t-51 -137t-30.5 -140t-10 -126zM1055 1241h-594l34 162h594z" />
<glyph unicode="&#x102;" horiz-adv-x="1542" d="M438 481l-100 -184q-20 -37 -29.5 -65t-9.5 -50q0 -38 28 -55.5t87 -17.5h41l-23 -109h-532l22 109h43q28 0 49.5 6.5t41.5 24.5t41.5 49t49.5 79l695 1194h280l172 -1206q5 -32 13.5 -59t22.5 -46.5t35.5 -30.5t53.5 -11h37l-22 -109h-676l22 109h47q66 0 105 20.5 t39 65.5q0 17 -1 33.5t-3 31.5l-31 221h-498zM885 950q-5 45 -9.5 84.5t-8 76.5t-6 72t-3.5 72q-15 -37 -30 -68.5t-32 -64t-37.5 -69t-47.5 -84.5l-203 -363h414zM991 1579q-68 0 -119 23t-86 65.5t-55 102t-24 131.5h135q8 -72 54 -106t118 -34q74 0 129 32.5t86 107.5 h127q-15 -59 -46.5 -117t-77.5 -103.5t-106.5 -73.5t-134.5 -28z" />
<glyph unicode="&#x103;" horiz-adv-x="1362" d="M969 -20q-91 0 -146 41.5t-55 121.5q0 32 3 62.5t11 70.5h-14q-38 -71 -75.5 -126.5t-83.5 -93t-102.5 -57t-131.5 -19.5q-73 0 -128 28.5t-91.5 78.5t-55 118.5t-18.5 148.5t18.5 167.5t55.5 172.5t91.5 162t126 135t159.5 92.5t192 34.5q40 0 81.5 -6.5t79.5 -16.5 t71.5 -22.5t56.5 -25.5l108 49h109l-135 -639q-4 -17 -10 -45t-11.5 -59.5t-9.5 -61t-4 -49.5q0 -51 20 -76t52 -25q29 0 55.5 12.5t58.5 30.5l45 -82q-26 -20 -59 -41.5t-73.5 -39.5t-88 -29.5t-102.5 -11.5zM393 352q0 -59 8.5 -99t23 -64.5t35 -35t44.5 -10.5q45 0 93 39 t90 102.5t75.5 143.5t50.5 162l72 340q-20 29 -55.5 43t-75.5 14q-60 0 -109.5 -31t-89.5 -83t-70.5 -118t-51 -137t-30.5 -140t-10 -126zM759 1241q-68 0 -119 23t-86 65.5t-55 102t-24 131.5h135q8 -72 54 -106t118 -34q74 0 129 32.5t86 107.5h127q-15 -59 -46.5 -117 t-77.5 -103.5t-106.5 -73.5t-134.5 -28z" />
<glyph unicode="&#x104;" horiz-adv-x="1542" d="M438 481l-100 -184q-20 -37 -29.5 -65t-9.5 -50q0 -38 28 -55.5t87 -17.5h41l-23 -109h-532l22 109h43q28 0 49.5 6.5t41.5 24.5t41.5 49t49.5 79l695 1194h280l172 -1206q5 -32 13.5 -59t22.5 -46.5t35.5 -30.5t53.5 -11h37l-22 -109h-676l22 109h47q66 0 105 20.5 t39 65.5q0 17 -1 33.5t-3 31.5l-31 221h-498zM885 950q-5 45 -9.5 84.5t-8 76.5t-6 72t-3.5 72q-15 -37 -30 -68.5t-32 -64t-37.5 -69t-47.5 -84.5l-203 -363h414zM1057 -492q-124 0 -193 53.5t-69 155.5q0 55 22.5 100.5t62.5 81t95.5 61t122.5 40.5h158q-35 -10 -77.5 -30 t-79.5 -50t-62 -70t-25 -90q0 -48 32 -76t85 -28q28 0 61.5 4t71.5 12l-27 -131q-38 -15 -84 -24t-94 -9z" />
<glyph unicode="&#x105;" horiz-adv-x="1362" d="M969 -20q-91 0 -146 41.5t-55 121.5q0 32 3 62.5t11 70.5h-14q-38 -71 -75.5 -126.5t-83.5 -93t-102.5 -57t-131.5 -19.5q-73 0 -128 28.5t-91.5 78.5t-55 118.5t-18.5 148.5t18.5 167.5t55.5 172.5t91.5 162t126 135t159.5 92.5t192 34.5q40 0 81.5 -6.5t79.5 -16.5 t71.5 -22.5t56.5 -25.5l108 49h109l-135 -639q-4 -17 -10 -45t-11.5 -59.5t-9.5 -61t-4 -49.5q0 -51 20 -76t52 -25q29 0 55.5 12.5t58.5 30.5l45 -82q-26 -20 -59 -41.5t-73.5 -39.5t-88 -29.5t-102.5 -11.5zM393 352q0 -59 8.5 -99t23 -64.5t35 -35t44.5 -10.5q45 0 93 39 t90 102.5t75.5 143.5t50.5 162l72 340q-20 29 -55.5 43t-75.5 14q-60 0 -109.5 -31t-89.5 -83t-70.5 -118t-51 -137t-30.5 -140t-10 -126zM905 -492q-124 0 -193 53.5t-69 155.5q0 55 22.5 100.5t62.5 81t95.5 61t122.5 40.5h158q-35 -10 -77.5 -30t-79.5 -50t-62 -70 t-25 -90q0 -48 32 -76t85 -28q28 0 61.5 4t71.5 12l-27 -131q-38 -15 -84 -24t-94 -9z" />
<glyph unicode="&#x106;" horiz-adv-x="1368" d="M823 152q71 0 128 16t102 42.5t79 59.5t60 68q12 -9 23.5 -28t11.5 -42q0 -51 -31 -102.5t-91.5 -93t-149.5 -67t-205 -25.5q-147 0 -262.5 36.5t-195 107t-121.5 173t-42 233.5q0 123 29 242t84 226t134.5 197t180 156t220.5 103t257 37q102 0 178.5 -17.5t127 -49 t75.5 -77t25 -100.5q0 -45 -22 -79t-60.5 -57.5t-91.5 -35.5t-115 -12q0 43 -6 95t-24.5 97t-52.5 75t-91 30q-81 0 -149.5 -37t-125 -100.5t-100 -147.5t-73 -177.5t-45 -191t-15.5 -188.5q0 -175 89 -270.5t265 -95.5zM928 1606q28 29 61 67t65.5 78.5t63 80.5t54.5 75 h321l-6 -21q-16 -18 -44 -42.5t-63.5 -52.5t-76 -57.5t-82.5 -57.5t-83 -53.5t-77 -43.5h-139z" />
<glyph unicode="&#x107;" horiz-adv-x="1081" d="M621 135q54 0 97.5 14.5t78.5 38.5t62 54t48 61q13 -12 22 -35.5t9 -54.5q0 -40 -23.5 -81.5t-73 -75t-125.5 -55t-181 -21.5q-93 0 -175.5 26t-144 79t-97.5 132t-36 186q0 76 19 158.5t57 162t94.5 151t131.5 125.5t168 86t204 32q85 0 146.5 -17.5t101 -47t58.5 -69 t19 -83.5q0 -32 -13.5 -62.5t-43.5 -55t-77.5 -39.5t-115.5 -15q0 54 -9.5 102.5t-28.5 85t-46.5 57.5t-64.5 21q-44 0 -82.5 -29.5t-70.5 -78t-56.5 -111t-42 -129t-26.5 -131t-9 -117.5q0 -125 57 -194.5t169 -69.5zM664 1268q28 29 61 67t65.5 78.5t63 80.5t54.5 75h321 l-6 -21q-16 -18 -44 -42.5t-63.5 -52.5t-76 -57.5t-82.5 -57.5t-83 -53.5t-77 -43.5h-139z" />
<glyph unicode="&#x108;" horiz-adv-x="1368" d="M823 152q71 0 128 16t102 42.5t79 59.5t60 68q12 -9 23.5 -28t11.5 -42q0 -51 -31 -102.5t-91.5 -93t-149.5 -67t-205 -25.5q-147 0 -262.5 36.5t-195 107t-121.5 173t-42 233.5q0 123 29 242t84 226t134.5 197t180 156t220.5 103t257 37q102 0 178.5 -17.5t127 -49 t75.5 -77t25 -100.5q0 -45 -22 -79t-60.5 -57.5t-91.5 -35.5t-115 -12q0 43 -6 95t-24.5 97t-52.5 75t-91 30q-81 0 -149.5 -37t-125 -100.5t-100 -147.5t-73 -177.5t-45 -191t-15.5 -188.5q0 -175 89 -270.5t265 -95.5zM649 1606q30 29 68 66.5t78 77.5t78 80.5t67 76.5 h276q13 -32 33 -72t42.5 -81t44.5 -80t40 -68l-6 -27h-129q-18 17 -42 40t-49 48t-49.5 50t-42.5 46q-27 -21 -61 -46t-69 -50t-68 -48t-58 -40h-159z" />
<glyph unicode="&#x109;" horiz-adv-x="1081" d="M621 135q54 0 97.5 14.5t78.5 38.5t62 54t48 61q13 -12 22 -35.5t9 -54.5q0 -40 -23.5 -81.5t-73 -75t-125.5 -55t-181 -21.5q-93 0 -175.5 26t-144 79t-97.5 132t-36 186q0 76 19 158.5t57 162t94.5 151t131.5 125.5t168 86t204 32q85 0 146.5 -17.5t101 -47t58.5 -69 t19 -83.5q0 -32 -13.5 -62.5t-43.5 -55t-77.5 -39.5t-115.5 -15q0 54 -9.5 102.5t-28.5 85t-46.5 57.5t-64.5 21q-44 0 -82.5 -29.5t-70.5 -78t-56.5 -111t-42 -129t-26.5 -131t-9 -117.5q0 -125 57 -194.5t169 -69.5zM408 1268q30 29 68 66.5t78 77.5t78 80.5t67 76.5h276 q13 -32 33 -72t42.5 -81t44.5 -80t40 -68l-6 -27h-129q-18 17 -42 40t-49 48t-49.5 50t-42.5 46q-27 -21 -61 -46t-69 -50t-68 -48t-58 -40h-159z" />
<glyph unicode="&#x10a;" horiz-adv-x="1368" d="M823 152q71 0 128 16t102 42.5t79 59.5t60 68q12 -9 23.5 -28t11.5 -42q0 -51 -31 -102.5t-91.5 -93t-149.5 -67t-205 -25.5q-147 0 -262.5 36.5t-195 107t-121.5 173t-42 233.5q0 123 29 242t84 226t134.5 197t180 156t220.5 103t257 37q102 0 178.5 -17.5t127 -49 t75.5 -77t25 -100.5q0 -45 -22 -79t-60.5 -57.5t-91.5 -35.5t-115 -12q0 43 -6 95t-24.5 97t-52.5 75t-91 30q-81 0 -149.5 -37t-125 -100.5t-100 -147.5t-73 -177.5t-45 -191t-15.5 -188.5q0 -175 89 -270.5t265 -95.5zM1050 1620q-34 0 -63 7.5t-50.5 23.5t-34 40 t-12.5 56q0 45 15.5 76.5t41.5 52t61 30t73 9.5q33 0 62.5 -7t52 -23t36 -40.5t13.5 -58.5q0 -42 -16.5 -73.5t-44 -52t-62.5 -30.5t-72 -10z" />
<glyph unicode="&#x10b;" horiz-adv-x="1081" d="M621 135q54 0 97.5 14.5t78.5 38.5t62 54t48 61q13 -12 22 -35.5t9 -54.5q0 -40 -23.5 -81.5t-73 -75t-125.5 -55t-181 -21.5q-93 0 -175.5 26t-144 79t-97.5 132t-36 186q0 76 19 158.5t57 162t94.5 151t131.5 125.5t168 86t204 32q85 0 146.5 -17.5t101 -47t58.5 -69 t19 -83.5q0 -32 -13.5 -62.5t-43.5 -55t-77.5 -39.5t-115.5 -15q0 54 -9.5 102.5t-28.5 85t-46.5 57.5t-64.5 21q-44 0 -82.5 -29.5t-70.5 -78t-56.5 -111t-42 -129t-26.5 -131t-9 -117.5q0 -125 57 -194.5t169 -69.5zM782 1282q-34 0 -63 7.5t-50.5 23.5t-34 40t-12.5 56 q0 45 15.5 76.5t41.5 52t61 30t73 9.5q33 0 62.5 -7t52 -23t36 -40.5t13.5 -58.5q0 -42 -16.5 -73.5t-44 -52t-62.5 -30.5t-72 -10z" />
<glyph unicode="&#x10c;" horiz-adv-x="1368" d="M823 152q71 0 128 16t102 42.5t79 59.5t60 68q12 -9 23.5 -28t11.5 -42q0 -51 -31 -102.5t-91.5 -93t-149.5 -67t-205 -25.5q-147 0 -262.5 36.5t-195 107t-121.5 173t-42 233.5q0 123 29 242t84 226t134.5 197t180 156t220.5 103t257 37q102 0 178.5 -17.5t127 -49 t75.5 -77t25 -100.5q0 -45 -22 -79t-60.5 -57.5t-91.5 -35.5t-115 -12q0 43 -6 95t-24.5 97t-52.5 75t-91 30q-81 0 -149.5 -37t-125 -100.5t-100 -147.5t-73 -177.5t-45 -191t-15.5 -188.5q0 -175 89 -270.5t265 -95.5zM1458 1880q-30 -29 -68.5 -66.5t-78 -77.5 t-77.5 -80.5t-67 -76.5h-276q-13 31 -33 71t-42.5 81.5t-44.5 80.5t-40 68l6 27h129q18 -17 41.5 -40t48.5 -48.5t49.5 -50.5t42.5 -46q28 21 62 46t68.5 50.5t67.5 48.5t58 40h160z" />
<glyph unicode="&#x10d;" horiz-adv-x="1081" d="M621 135q54 0 97.5 14.5t78.5 38.5t62 54t48 61q13 -12 22 -35.5t9 -54.5q0 -40 -23.5 -81.5t-73 -75t-125.5 -55t-181 -21.5q-93 0 -175.5 26t-144 79t-97.5 132t-36 186q0 76 19 158.5t57 162t94.5 151t131.5 125.5t168 86t204 32q85 0 146.5 -17.5t101 -47t58.5 -69 t19 -83.5q0 -32 -13.5 -62.5t-43.5 -55t-77.5 -39.5t-115.5 -15q0 54 -9.5 102.5t-28.5 85t-46.5 57.5t-64.5 21q-44 0 -82.5 -29.5t-70.5 -78t-56.5 -111t-42 -129t-26.5 -131t-9 -117.5q0 -125 57 -194.5t169 -69.5zM1163 1542q-30 -29 -68.5 -66.5t-78 -77.5t-77.5 -80.5 t-67 -76.5h-276q-13 31 -33 71t-42.5 81.5t-44.5 80.5t-40 68l6 27h129q18 -17 41.5 -40t48.5 -48.5t49.5 -50.5t42.5 -46q28 21 62 46t68.5 50.5t67.5 48.5t58 40h160z" />
<glyph unicode="&#x10e;" horiz-adv-x="1573" d="M-27 109h29q32 0 62.5 4t55.5 17t43.5 37t26.5 64l213 1006q4 11 6.5 25t2.5 22q0 22 -11 36t-30.5 21.5t-47 10t-59.5 2.5h-26l22 108h655q147 0 262.5 -36t195 -106.5t121.5 -174.5t42 -240q0 -122 -25.5 -236.5t-75 -215t-122.5 -184t-169 -143.5t-214.5 -93 t-257.5 -33h-721zM584 127q144 0 257 58.5t191 164t119 251.5t41 321q0 107 -25 185.5t-71.5 129.5t-113 75.5t-148.5 24.5h-86l-256 -1210h92zM1335 1880q-30 -29 -68.5 -66.5t-78 -77.5t-77.5 -80.5t-67 -76.5h-276q-13 31 -33 71t-42.5 81.5t-44.5 80.5t-40 68l6 27h129 q18 -17 41.5 -40t48.5 -48.5t49.5 -50.5t42.5 -46q28 21 62 46t68.5 50.5t67.5 48.5t58 40h160z" />
<glyph unicode="&#x10f;" horiz-adv-x="1362" d="M403 352q0 -58 8.5 -98t23 -64.5t35 -35.5t44.5 -11q45 0 92.5 39t89.5 102t75.5 143t51.5 163l72 340q-22 28 -60 42.5t-75 14.5q-58 0 -107 -31.5t-88.5 -83t-70 -118t-50.5 -137t-30.5 -140t-10.5 -125.5zM1102 440l-8.5 -42.5t-10.5 -57.5t-8.5 -59t-3.5 -48 q0 -48 22 -70t50 -22q26 0 57.5 14t56.5 29l45 -80q-27 -22 -61 -44t-74.5 -40t-87.5 -29t-100 -11q-45 0 -82 10.5t-63.5 30.5t-41 50.5t-14.5 71.5q0 19 1 34t2.5 29.5t4 31t6.5 38.5h-12q-38 -79 -80 -135t-89.5 -92t-102 -52.5t-117.5 -16.5q-79 0 -135.5 30t-93 81 t-53.5 119t-17 144q0 80 18.5 167.5t55 172.5t90 162t123.5 135t155.5 92.5t186.5 34.5q60 0 112 -13t92 -36q3 13 6 30.5t6.5 35t7 33t5.5 24.5l18 82q3 13 6 27t5 26.5t3 21.5t1 13q0 28 -6 45t-19 26t-34 12t-50 3h-47l19 108h493zM1378 1255q34 72 67 149.5t58 151.5 h258l-6 -20q-21 -32 -50.5 -71t-64 -80t-72 -81.5t-73.5 -74.5h-123z" />
<glyph unicode="&#x110;" horiz-adv-x="1573" d="M-27 109h29q32 0 62.5 4t55.5 17t43.5 37t26.5 64l99 471h-168l26 125h168l88 410q3 11 5.5 25t2.5 22q0 22 -11 36t-30.5 21.5t-46.5 10t-59 2.5h-27l23 108h655q147 0 262 -36t195 -106.5t122 -174.5t42 -240q0 -122 -25.5 -236.5t-75 -215t-122.5 -184t-169 -143.5 t-214.5 -93t-257.5 -33h-721zM584 127q144 0 257 58.5t191 164t119 251.5t41 321q0 107 -25 185.5t-72 129.5t-113.5 75.5t-148.5 24.5h-86l-108 -510h258l-27 -125h-258l-121 -575h93z" />
<glyph unicode="&#x111;" horiz-adv-x="1362" d="M1272 1292h180l-22 -108h-181l-157 -744l-8.5 -42.5t-10.5 -57.5t-8.5 -59t-3.5 -48q0 -48 22 -70t50 -22q26 0 57.5 14t56.5 29l45 -80q-27 -22 -61 -44t-74.5 -40t-87.5 -29t-100 -11q-45 0 -82 10.5t-63.5 30.5t-41 50.5t-14.5 71.5q0 19 1 34t2.5 29.5t4 31t6.5 38.5 h-12q-38 -79 -80 -135t-89.5 -92t-102 -52.5t-117.5 -16.5q-79 0 -135.5 30t-93 81t-53.5 119t-17 144q0 73 18 153.5t53.5 159t88 149t120.5 124.5t152 85.5t182 31.5q60 0 112.5 -13t92.5 -36q2 18 7 41.5t10 48t10.5 47.5t9.5 39h-315l22 108h318q5 22 7.5 43t2.5 27 q0 28 -6 45t-19 26t-34 12t-50 3h-47l19 108h493zM393 352q0 -58 8.5 -98t23 -64.5t35 -35.5t44.5 -11q45 0 92.5 39t89.5 102t75.5 143t51.5 163l57 278q-21 28 -59.5 43t-75.5 15q-55 0 -102 -28.5t-85 -75.5t-67 -107t-48.5 -124t-29.5 -126t-10 -113z" />
<glyph unicode="&#x112;" horiz-adv-x="1296" d="M-25 109h27q32 0 62.5 4t55.5 17t43.5 37t26.5 64l213 1006q4 11 6.5 25t2.5 22q0 22 -11 36t-30.5 21.5t-47 10t-59.5 2.5h-26l22 108h1112l-72 -381h-145q1 7 2.5 25t3 37.5t3 36t1.5 20.5q0 28 -8 53t-25 44t-44.5 29.5t-67.5 10.5h-272l-109 -512h465l-27 -123h-465 l-123 -577h324q48 0 86 13.5t66 36.5t47.5 53.5t31.5 64.5l33 88h146l-95 -381h-1175zM1182 1579h-594l34 162h594z" />
<glyph unicode="&#x113;" horiz-adv-x="1096" d="M618 135q50 0 95 14.5t83.5 38t69 53t52.5 60.5q12 -15 19 -38.5t7 -49.5q0 -37 -24 -78t-73.5 -75.5t-126 -57t-181.5 -22.5q-94 0 -177 26t-145.5 78.5t-98.5 132t-36 186.5q0 76 20 159t59.5 162.5t98 151t135.5 125.5t172.5 85.5t208.5 31.5q147 0 228 -63.5 t81 -177.5q0 -83 -46 -159t-127 -133.5t-193 -91.5t-244 -34h-37t-39 2q-3 -20 -3.5 -40.5t-0.5 -37.5q0 -119 55.5 -183.5t167.5 -64.5zM690 995q-50 0 -95 -37.5t-81 -97.5t-62 -134.5t-38 -147.5h18q76 0 141.5 20t114 57.5t76 89.5t27.5 117q0 63 -26.5 98t-74.5 35z M1057 1241h-594l34 162h594z" />
<glyph unicode="&#x114;" horiz-adv-x="1296" d="M-25 109h27q32 0 62.5 4t55.5 17t43.5 37t26.5 64l213 1006q4 11 6.5 25t2.5 22q0 22 -11 36t-30.5 21.5t-47 10t-59.5 2.5h-26l22 108h1112l-72 -381h-145q1 7 2.5 25t3 37.5t3 36t1.5 20.5q0 28 -8 53t-25 44t-44.5 29.5t-67.5 10.5h-272l-109 -512h465l-27 -123h-465 l-123 -577h324q48 0 86 13.5t66 36.5t47.5 53.5t31.5 64.5l33 88h146l-95 -381h-1175zM862 1579q-68 0 -119 23t-86 65.5t-55 102t-24 131.5h135q8 -72 54 -106t118 -34q74 0 129 32.5t86 107.5h127q-15 -59 -46.5 -117t-77.5 -103.5t-106.5 -73.5t-134.5 -28z" />
<glyph unicode="&#x115;" horiz-adv-x="1096" d="M618 135q50 0 95 14.5t83.5 38t69 53t52.5 60.5q12 -15 19 -38.5t7 -49.5q0 -37 -24 -78t-73.5 -75.5t-126 -57t-181.5 -22.5q-94 0 -177 26t-145.5 78.5t-98.5 132t-36 186.5q0 76 20 159t59.5 162.5t98 151t135.5 125.5t172.5 85.5t208.5 31.5q147 0 228 -63.5 t81 -177.5q0 -83 -46 -159t-127 -133.5t-193 -91.5t-244 -34h-37t-39 2q-3 -20 -3.5 -40.5t-0.5 -37.5q0 -119 55.5 -183.5t167.5 -64.5zM690 995q-50 0 -95 -37.5t-81 -97.5t-62 -134.5t-38 -147.5h18q76 0 141.5 20t114 57.5t76 89.5t27.5 117q0 63 -26.5 98t-74.5 35z M741 1241q-68 0 -119 23t-86 65.5t-55 102t-24 131.5h135q8 -72 54 -106t118 -34q74 0 129 32.5t86 107.5h127q-15 -59 -46.5 -117t-77.5 -103.5t-106.5 -73.5t-134.5 -28z" />
<glyph unicode="&#x116;" horiz-adv-x="1296" d="M-25 109h27q32 0 62.5 4t55.5 17t43.5 37t26.5 64l213 1006q4 11 6.5 25t2.5 22q0 22 -11 36t-30.5 21.5t-47 10t-59.5 2.5h-26l22 108h1112l-72 -381h-145q1 7 2.5 25t3 37.5t3 36t1.5 20.5q0 28 -8 53t-25 44t-44.5 29.5t-67.5 10.5h-272l-109 -512h465l-27 -123h-465 l-123 -577h324q48 0 86 13.5t66 36.5t47.5 53.5t31.5 64.5l33 88h146l-95 -381h-1175zM862 1591q-34 0 -63 7.5t-50.5 23.5t-34 40t-12.5 56q0 45 15.5 76.5t41.5 52t61 30t73 9.5q33 0 62.5 -7t52 -23t36 -40.5t13.5 -58.5q0 -42 -16.5 -73.5t-44 -52t-62.5 -30.5t-72 -10z " />
<glyph unicode="&#x117;" horiz-adv-x="1096" d="M618 135q50 0 95 14.5t83.5 38t69 53t52.5 60.5q12 -15 19 -38.5t7 -49.5q0 -37 -24 -78t-73.5 -75.5t-126 -57t-181.5 -22.5q-94 0 -177 26t-145.5 78.5t-98.5 132t-36 186.5q0 76 20 159t59.5 162.5t98 151t135.5 125.5t172.5 85.5t208.5 31.5q147 0 228 -63.5 t81 -177.5q0 -83 -46 -159t-127 -133.5t-193 -91.5t-244 -34h-37t-39 2q-3 -20 -3.5 -40.5t-0.5 -37.5q0 -119 55.5 -183.5t167.5 -64.5zM690 995q-50 0 -95 -37.5t-81 -97.5t-62 -134.5t-38 -147.5h18q76 0 141.5 20t114 57.5t76 89.5t27.5 117q0 63 -26.5 98t-74.5 35z M743 1282q-34 0 -63 7.5t-50.5 23.5t-34 40t-12.5 56q0 45 15.5 76.5t41.5 52t61 30t73 9.5q33 0 62.5 -7t52 -23t36 -40.5t13.5 -58.5q0 -42 -16.5 -73.5t-44 -52t-62.5 -30.5t-72 -10z" />
<glyph unicode="&#x118;" horiz-adv-x="1296" d="M-25 109h27q32 0 62.5 4t55.5 17t43.5 37t26.5 64l213 1006q4 11 6.5 25t2.5 22q0 22 -11 36t-30.5 21.5t-47 10t-59.5 2.5h-26l22 108h1112l-72 -381h-145q1 7 2.5 25t3 37.5t3 36t1.5 20.5q0 28 -8 53t-25 44t-44.5 29.5t-67.5 10.5h-272l-109 -512h465l-27 -123h-465 l-123 -577h324q48 0 86 13.5t66 36.5t47.5 53.5t31.5 64.5l33 88h146l-95 -381h-1175zM870 -492q-124 0 -193 53.5t-69 155.5q0 55 22.5 100.5t62.5 81t95.5 61t122.5 40.5h158q-35 -10 -77.5 -30t-79.5 -50t-62 -70t-25 -90q0 -48 32 -76t85 -28q28 0 61.5 4t71.5 12 l-27 -131q-38 -15 -84 -24t-94 -9z" />
<glyph unicode="&#x119;" horiz-adv-x="1096" d="M618 135q50 0 95 14.5t83.5 38t69 53t52.5 60.5q12 -15 19 -38.5t7 -49.5q0 -37 -24 -78t-73.5 -75.5t-126 -57t-181.5 -22.5q-94 0 -177 26t-145.5 78.5t-98.5 132t-36 186.5q0 76 20 159t59.5 162.5t98 151t135.5 125.5t172.5 85.5t208.5 31.5q147 0 228 -63.5 t81 -177.5q0 -83 -46 -159t-127 -133.5t-193 -91.5t-244 -34h-37t-39 2q-3 -20 -3.5 -40.5t-0.5 -37.5q0 -119 55.5 -183.5t167.5 -64.5zM690 995q-50 0 -95 -37.5t-81 -97.5t-62 -134.5t-38 -147.5h18q76 0 141.5 20t114 57.5t76 89.5t27.5 117q0 63 -26.5 98t-74.5 35z M598 -461q-124 0 -193 53.5t-69 155.5q0 55 22.5 100.5t62.5 81t95.5 61t122.5 40.5h158q-35 -10 -77.5 -30t-79.5 -50t-62 -70t-25 -90q0 -48 32 -76t85 -28q28 0 61.5 4t71.5 12l-27 -131q-38 -15 -84 -24t-94 -9z" />
<glyph unicode="&#x11a;" horiz-adv-x="1296" d="M-25 109h27q32 0 62.5 4t55.5 17t43.5 37t26.5 64l213 1006q4 11 6.5 25t2.5 22q0 22 -11 36t-30.5 21.5t-47 10t-59.5 2.5h-26l22 108h1112l-72 -381h-145q1 7 2.5 25t3 37.5t3 36t1.5 20.5q0 28 -8 53t-25 44t-44.5 29.5t-67.5 10.5h-272l-109 -512h465l-27 -123h-465 l-123 -577h324q48 0 86 13.5t66 36.5t47.5 53.5t31.5 64.5l33 88h146l-95 -381h-1175zM1288 1880q-30 -29 -68.5 -66.5t-78 -77.5t-77.5 -80.5t-67 -76.5h-276q-13 31 -33 71t-42.5 81.5t-44.5 80.5t-40 68l6 27h129q18 -17 41.5 -40t48.5 -48.5t49.5 -50.5t42.5 -46 q28 21 62 46t68.5 50.5t67.5 48.5t58 40h160z" />
<glyph unicode="&#x11b;" horiz-adv-x="1096" d="M618 135q50 0 95 14.5t83.5 38t69 53t52.5 60.5q12 -15 19 -38.5t7 -49.5q0 -37 -24 -78t-73.5 -75.5t-126 -57t-181.5 -22.5q-94 0 -177 26t-145.5 78.5t-98.5 132t-36 186.5q0 76 20 159t59.5 162.5t98 151t135.5 125.5t172.5 85.5t208.5 31.5q147 0 228 -63.5 t81 -177.5q0 -83 -46 -159t-127 -133.5t-193 -91.5t-244 -34h-37t-39 2q-3 -20 -3.5 -40.5t-0.5 -37.5q0 -119 55.5 -183.5t167.5 -64.5zM690 995q-50 0 -95 -37.5t-81 -97.5t-62 -134.5t-38 -147.5h18q76 0 141.5 20t114 57.5t76 89.5t27.5 117q0 63 -26.5 98t-74.5 35z M1182 1542q-30 -29 -68.5 -66.5t-78 -77.5t-77.5 -80.5t-67 -76.5h-276q-13 31 -33 71t-42.5 81.5t-44.5 80.5t-40 68l6 27h129q18 -17 41.5 -40t48.5 -48.5t49.5 -50.5t42.5 -46q28 21 62 46t68.5 50.5t67.5 48.5t58 40h160z" />
<glyph unicode="&#x11c;" horiz-adv-x="1630" d="M1544 590h-2q-34 0 -65.5 -4.5t-57 -17.5t-44.5 -38t-27 -65l-78 -391q-62 -24 -121.5 -41.5t-121 -29.5t-126.5 -17.5t-137 -5.5q-158 0 -276.5 38t-198.5 109t-120 172.5t-40 228.5q0 132 31 254.5t89 228.5t142 193t189 149t230.5 96t266.5 34q118 0 205 -21t145 -55 t86.5 -78t28.5 -90q0 -40 -23.5 -74.5t-63.5 -60t-94.5 -40.5t-115.5 -15q0 64 -13.5 119.5t-42 96.5t-72 64t-103.5 23q-78 0 -149 -32t-132 -89t-110.5 -136t-84.5 -173t-54 -200.5t-19 -217.5q0 -86 17 -156.5t54.5 -121.5t96 -79t141.5 -28q47 0 96 8t86 20l68 304 q12 54 12 69q0 22 -11 36t-30.5 21.5t-46.5 10t-59 2.5h-27l23 108h682zM662 1606q30 29 68 66.5t78 77.5t78 80.5t67 76.5h276q13 -32 33 -72t42.5 -81t44.5 -80t40 -68l-6 -27h-129q-18 17 -42 40t-49 48t-49.5 50t-42.5 46q-27 -21 -61 -46t-69 -50t-68 -48t-58 -40h-159 z" />
<glyph unicode="&#x11d;" horiz-adv-x="1188" d="M182 674q0 71 31.5 149.5t95 144t159.5 108t226 42.5q68 0 127.5 -15.5t104.5 -49.5q23 29 49 54.5t55 44t62 29.5t71 11q63 0 92 -30.5t29 -78.5q0 -25 -6.5 -51t-21.5 -47t-40.5 -34t-62.5 -13q0 42 -18.5 65t-53.5 23q-28 0 -51 -10t-43 -27q22 -29 36.5 -73t14.5 -91 q0 -45 -13 -94.5t-39 -98t-66 -93t-95 -78.5t-125 -54t-155 -20q-9 0 -23.5 0.5t-29.5 1t-29 1.5t-23 3q-48 -21 -80 -48.5t-32 -59.5q0 -17 8.5 -28t23 -17.5t34.5 -10.5t44 -6l230 -22q150 -14 233.5 -81.5t83.5 -197.5q0 -93 -42.5 -169.5t-124 -130.5t-200 -84 t-270.5 -30q-125 0 -213.5 18.5t-144.5 52.5t-82.5 82.5t-26.5 107.5q0 54 27.5 98t73.5 76.5t105 54.5t122 33q-20 10 -39 27.5t-33.5 40t-23.5 48t-9 52.5q0 32 13 60t40 55t69 54.5t100 59.5q-68 32 -106 95t-38 151zM721 -174q0 58 -44.5 89t-150.5 40l-182 16 q-45 -6 -84.5 -23t-69.5 -42t-47.5 -56.5t-17.5 -66.5q0 -32 11.5 -59.5t40 -48t78 -32.5t124.5 -12q90 0 154.5 16t106 43t61.5 62.5t20 73.5zM551 512q36 0 66 17t54 45t42 63.5t29.5 73.5t17.5 74.5t6 66.5q0 72 -28.5 105.5t-82.5 33.5q-53 0 -93 -35t-67 -87 t-41 -110.5t-14 -105.5q0 -75 29 -108t82 -33zM334 1268q30 29 68 66.5t78 77.5t78 80.5t67 76.5h276q13 -32 33 -72t42.5 -81t44.5 -80t40 -68l-6 -27h-129q-18 17 -42 40t-49 48t-49.5 50t-42.5 46q-27 -21 -61 -46t-69 -50t-68 -48t-58 -40h-159z" />
<glyph unicode="&#x11e;" horiz-adv-x="1630" d="M1544 590h-2q-34 0 -65.5 -4.5t-57 -17.5t-44.5 -38t-27 -65l-78 -391q-62 -24 -121.5 -41.5t-121 -29.5t-126.5 -17.5t-137 -5.5q-158 0 -276.5 38t-198.5 109t-120 172.5t-40 228.5q0 132 31 254.5t89 228.5t142 193t189 149t230.5 96t266.5 34q118 0 205 -21t145 -55 t86.5 -78t28.5 -90q0 -40 -23.5 -74.5t-63.5 -60t-94.5 -40.5t-115.5 -15q0 64 -13.5 119.5t-42 96.5t-72 64t-103.5 23q-78 0 -149 -32t-132 -89t-110.5 -136t-84.5 -173t-54 -200.5t-19 -217.5q0 -86 17 -156.5t54.5 -121.5t96 -79t141.5 -28q47 0 96 8t86 20l68 304 q12 54 12 69q0 22 -11 36t-30.5 21.5t-46.5 10t-59 2.5h-27l23 108h682zM1054 1579q-68 0 -119 23t-86 65.5t-55 102t-24 131.5h135q8 -72 54 -106t118 -34q74 0 129 32.5t86 107.5h127q-15 -59 -46.5 -117t-77.5 -103.5t-106.5 -73.5t-134.5 -28z" />
<glyph unicode="&#x11f;" horiz-adv-x="1188" d="M182 674q0 71 31.5 149.5t95 144t159.5 108t226 42.5q68 0 127.5 -15.5t104.5 -49.5q23 29 49 54.5t55 44t62 29.5t71 11q63 0 92 -30.5t29 -78.5q0 -25 -6.5 -51t-21.5 -47t-40.5 -34t-62.5 -13q0 42 -18.5 65t-53.5 23q-28 0 -51 -10t-43 -27q22 -29 36.5 -73t14.5 -91 q0 -45 -13 -94.5t-39 -98t-66 -93t-95 -78.5t-125 -54t-155 -20q-9 0 -23.5 0.5t-29.5 1t-29 1.5t-23 3q-48 -21 -80 -48.5t-32 -59.5q0 -17 8.5 -28t23 -17.5t34.5 -10.5t44 -6l230 -22q150 -14 233.5 -81.5t83.5 -197.5q0 -93 -42.5 -169.5t-124 -130.5t-200 -84 t-270.5 -30q-125 0 -213.5 18.5t-144.5 52.5t-82.5 82.5t-26.5 107.5q0 54 27.5 98t73.5 76.5t105 54.5t122 33q-20 10 -39 27.5t-33.5 40t-23.5 48t-9 52.5q0 32 13 60t40 55t69 54.5t100 59.5q-68 32 -106 95t-38 151zM721 -174q0 58 -44.5 89t-150.5 40l-182 16 q-45 -6 -84.5 -23t-69.5 -42t-47.5 -56.5t-17.5 -66.5q0 -32 11.5 -59.5t40 -48t78 -32.5t124.5 -12q90 0 154.5 16t106 43t61.5 62.5t20 73.5zM551 512q36 0 66 17t54 45t42 63.5t29.5 73.5t17.5 74.5t6 66.5q0 72 -28.5 105.5t-82.5 33.5q-53 0 -93 -35t-67 -87 t-41 -110.5t-14 -105.5q0 -75 29 -108t82 -33zM706 1241q-68 0 -119 23t-86 65.5t-55 102t-24 131.5h135q8 -72 54 -106t118 -34q74 0 129 32.5t86 107.5h127q-15 -59 -46.5 -117t-77.5 -103.5t-106.5 -73.5t-134.5 -28z" />
<glyph unicode="&#x120;" horiz-adv-x="1630" d="M1544 590h-2q-34 0 -65.5 -4.5t-57 -17.5t-44.5 -38t-27 -65l-78 -391q-62 -24 -121.5 -41.5t-121 -29.5t-126.5 -17.5t-137 -5.5q-158 0 -276.5 38t-198.5 109t-120 172.5t-40 228.5q0 132 31 254.5t89 228.5t142 193t189 149t230.5 96t266.5 34q118 0 205 -21t145 -55 t86.5 -78t28.5 -90q0 -40 -23.5 -74.5t-63.5 -60t-94.5 -40.5t-115.5 -15q0 64 -13.5 119.5t-42 96.5t-72 64t-103.5 23q-78 0 -149 -32t-132 -89t-110.5 -136t-84.5 -173t-54 -200.5t-19 -217.5q0 -86 17 -156.5t54.5 -121.5t96 -79t141.5 -28q47 0 96 8t86 20l68 304 q12 54 12 69q0 22 -11 36t-30.5 21.5t-46.5 10t-59 2.5h-27l23 108h682zM1046 1620q-34 0 -63 7.5t-50.5 23.5t-34 40t-12.5 56q0 45 15.5 76.5t41.5 52t61 30t73 9.5q33 0 62.5 -7t52 -23t36 -40.5t13.5 -58.5q0 -42 -16.5 -73.5t-44 -52t-62.5 -30.5t-72 -10z" />
<glyph unicode="&#x121;" horiz-adv-x="1188" d="M182 674q0 71 31.5 149.5t95 144t159.5 108t226 42.5q68 0 127.5 -15.5t104.5 -49.5q23 29 49 54.5t55 44t62 29.5t71 11q63 0 92 -30.5t29 -78.5q0 -25 -6.5 -51t-21.5 -47t-40.5 -34t-62.5 -13q0 42 -18.5 65t-53.5 23q-28 0 -51 -10t-43 -27q22 -29 36.5 -73t14.5 -91 q0 -45 -13 -94.5t-39 -98t-66 -93t-95 -78.5t-125 -54t-155 -20q-9 0 -23.5 0.5t-29.5 1t-29 1.5t-23 3q-48 -21 -80 -48.5t-32 -59.5q0 -17 8.5 -28t23 -17.5t34.5 -10.5t44 -6l230 -22q150 -14 233.5 -81.5t83.5 -197.5q0 -93 -42.5 -169.5t-124 -130.5t-200 -84 t-270.5 -30q-125 0 -213.5 18.5t-144.5 52.5t-82.5 82.5t-26.5 107.5q0 54 27.5 98t73.5 76.5t105 54.5t122 33q-20 10 -39 27.5t-33.5 40t-23.5 48t-9 52.5q0 32 13 60t40 55t69 54.5t100 59.5q-68 32 -106 95t-38 151zM721 -174q0 58 -44.5 89t-150.5 40l-182 16 q-45 -6 -84.5 -23t-69.5 -42t-47.5 -56.5t-17.5 -66.5q0 -32 11.5 -59.5t40 -48t78 -32.5t124.5 -12q90 0 154.5 16t106 43t61.5 62.5t20 73.5zM551 512q36 0 66 17t54 45t42 63.5t29.5 73.5t17.5 74.5t6 66.5q0 72 -28.5 105.5t-82.5 33.5q-53 0 -93 -35t-67 -87 t-41 -110.5t-14 -105.5q0 -75 29 -108t82 -33zM741 1282q-34 0 -63 7.5t-50.5 23.5t-34 40t-12.5 56q0 45 15.5 76.5t41.5 52t61 30t73 9.5q33 0 62.5 -7t52 -23t36 -40.5t13.5 -58.5q0 -42 -16.5 -73.5t-44 -52t-62.5 -30.5t-72 -10z" />
<glyph unicode="&#x122;" horiz-adv-x="1630" d="M1544 590h-2q-34 0 -65.5 -4.5t-57 -17.5t-44.5 -38t-27 -65l-78 -391q-62 -24 -121.5 -41.5t-121 -29.5t-126.5 -17.5t-137 -5.5q-158 0 -276.5 38t-198.5 109t-120 172.5t-40 228.5q0 132 31 254.5t89 228.5t142 193t189 149t230.5 96t266.5 34q118 0 205 -21t145 -55 t86.5 -78t28.5 -90q0 -40 -23.5 -74.5t-63.5 -60t-94.5 -40.5t-115.5 -15q0 64 -13.5 119.5t-42 96.5t-72 64t-103.5 23q-78 0 -149 -32t-132 -89t-110.5 -136t-84.5 -173t-54 -200.5t-19 -217.5q0 -86 17 -156.5t54.5 -121.5t96 -79t141.5 -28q47 0 96 8t86 20l68 304 q12 54 12 69q0 22 -11 36t-30.5 21.5t-46.5 10t-59 2.5h-27l23 108h682zM498 -426q34 71 67 149t58 152h258l-6 -20q-21 -32 -50.5 -71t-64 -80t-72 -81.5t-73.5 -75.5h-123z" />
<glyph unicode="&#x123;" horiz-adv-x="1188" d="M182 674q0 71 31.5 149.5t95 144t159.5 108t226 42.5q68 0 127.5 -15.5t104.5 -49.5q23 29 49 54.5t55 44t62 29.5t71 11q63 0 92 -30.5t29 -78.5q0 -25 -6.5 -51t-21.5 -47t-40.5 -34t-62.5 -13q0 42 -18.5 65t-53.5 23q-28 0 -51 -10t-43 -27q22 -29 36.5 -73t14.5 -91 q0 -45 -13 -94.5t-39 -98t-66 -93t-95 -78.5t-125 -54t-155 -20q-9 0 -23.5 0.5t-29.5 1t-29 1.5t-23 3q-48 -21 -80 -48.5t-32 -59.5q0 -17 8.5 -28t23 -17.5t34.5 -10.5t44 -6l230 -22q150 -14 233.5 -81.5t83.5 -197.5q0 -93 -42.5 -169.5t-124 -130.5t-200 -84 t-270.5 -30q-125 0 -213.5 18.5t-144.5 52.5t-82.5 82.5t-26.5 107.5q0 54 27.5 98t73.5 76.5t105 54.5t122 33q-20 10 -39 27.5t-33.5 40t-23.5 48t-9 52.5q0 32 13 60t40 55t69 54.5t100 59.5q-68 32 -106 95t-38 151zM721 -174q0 58 -44.5 89t-150.5 40l-182 16 q-45 -6 -84.5 -23t-69.5 -42t-47.5 -56.5t-17.5 -66.5q0 -32 11.5 -59.5t40 -48t78 -32.5t124.5 -12q90 0 154.5 16t106 43t61.5 62.5t20 73.5zM551 512q36 0 66 17t54 45t42 63.5t29.5 73.5t17.5 74.5t6 66.5q0 72 -28.5 105.5t-82.5 33.5q-53 0 -93 -35t-67 -87 t-41 -110.5t-14 -105.5q0 -75 29 -108t82 -33zM977 1542q-34 -71 -67 -149t-58 -152h-258l6 21q21 32 51 71t64.5 80t72 81t73.5 75h122z" />
<glyph unicode="&#x124;" horiz-adv-x="1677" d="M807 0l22 109h27q33 0 64 4t57 17.5t44.5 37.5t27.5 65l98 467h-535l-100 -475q-3 -11 -5.5 -25t-2.5 -22q0 -22 11 -35.5t31 -21t47.5 -10t59.5 -2.5h27l-23 -109h-704l22 109h27q32 0 62.5 4t55.5 17t43.5 37t26.5 64l209 983q13 53 13 70q0 22 -11 36t-30.5 21.5 t-47 10t-59.5 2.5h-26l22 108h707l-23 -108h-26q-34 0 -65.5 -4.5t-57.5 -17.5t-45 -38t-27 -65l-84 -404h535l86 398q5 21 7.5 37t2.5 24q0 22 -11.5 36t-31.5 21.5t-47.5 10t-59.5 2.5h-26l22 108h707l-23 -108h-26q-33 0 -64 -4.5t-57 -17.5t-44.5 -38t-27.5 -65 l-211 -1004q-3 -11 -5.5 -25t-2.5 -22q0 -22 11 -35.5t30.5 -21t46.5 -10t59 -2.5h27l-23 -109h-706zM680 1606q30 29 68 66.5t78 77.5t78 80.5t67 76.5h276q13 -32 33 -72t42.5 -81t44.5 -80t40 -68l-6 -27h-129q-18 17 -42 40t-49 48t-49.5 50t-42.5 46q-27 -21 -61 -46 t-69 -50t-68 -48t-58 -40h-159z" />
<glyph unicode="&#x125;" horiz-adv-x="1343" d="M754 190q0 44 7.5 105t24.5 139l35 162q5 20 11.5 49t12 60.5t9.5 63t4 56.5q0 19 -3.5 40t-12.5 38t-26 28t-44 11q-35 0 -69.5 -23.5t-66.5 -62t-60.5 -88t-52 -101.5t-40.5 -102t-26 -90l-107 -475h-307l270 1274q3 13 6 27t5 26.5t3 21.5t1 13q0 28 -6 45t-19 26 t-34 12t-50 3h-43l19 108h495l-96 -450q-8 -31 -17.5 -70t-18.5 -74q-11 -41 -21 -83h12q39 61 80.5 106t89.5 74.5t104.5 44t124.5 14.5q65 0 110 -19t72.5 -51.5t39.5 -75t12 -89.5q0 -26 -4 -55.5t-9.5 -59.5t-12 -60t-11.5 -57l-47 -219q-13 -56 -21 -104.5t-8 -91.5 q0 -45 19 -69t53 -24q32 0 58.5 12t62.5 35l49 -69q-25 -26 -56 -51.5t-69.5 -45.5t-85.5 -32t-103 -12q-117 0 -180 55.5t-63 154.5zM463 1661q30 29 68 66.5t78 77.5t78 80.5t67 76.5h276q13 -32 33 -72t42.5 -81t44.5 -80t40 -68l-6 -27h-129q-18 17 -42 40t-49 48 t-49.5 50t-42.5 46q-27 -21 -61 -46t-69 -50t-68 -48t-58 -40h-159z" />
<glyph unicode="&#x126;" horiz-adv-x="1677" d="M807 0l22 109h27q33 0 64 4t57 17.5t44.5 37.5t27.5 65l98 467h-535l-100 -475q-3 -11 -5.5 -25t-2.5 -22q0 -22 11 -35.5t31 -21t47.5 -10t59.5 -2.5h27l-23 -109h-704l22 109h27q32 0 62.5 4t55.5 17t43.5 37t26.5 64l168 791h-213l23 108h213l18 84q13 53 13 70 q0 22 -11 36t-30.5 21.5t-47 10t-59.5 2.5h-26l22 108h707l-23 -108h-26q-34 0 -65.5 -4.5t-57.5 -17.5t-45 -38t-27 -65l-21 -99h537l21 93q5 21 7.5 37t2.5 24q0 22 -11.5 36t-31.5 21.5t-47.5 10t-59.5 2.5h-26l22 108h707l-23 -108h-26q-33 0 -64 -4.5t-57 -17.5 t-44.5 -38t-27.5 -65l-20 -99h211l-23 -108h-211l-168 -797q-3 -11 -5.5 -25t-2.5 -22q0 -22 11 -35.5t30.5 -21t46.5 -10t59 -2.5h27l-23 -109h-706zM1174 825l43 197h-537l-41 -197h535z" />
<glyph unicode="&#x127;" horiz-adv-x="1343" d="M754 190q0 44 7.5 105t24.5 139l25 119q4 20 10 49t12 60.5t10.5 63t4.5 56.5q0 19 -3.5 40t-12.5 38t-26 28t-44 11q-35 0 -69.5 -23.5t-66.5 -62t-61 -88t-52.5 -101.5t-40.5 -102t-26 -90l-96 -432h-307l250 1184h-174l24 108h174q5 22 8 43t3 27q0 28 -6 45t-19 26 t-34 12t-50 3h-43l19 108h495l-57 -264h317l-24 -108h-316l-26 -121q-8 -31 -17.5 -70t-18.5 -74q-11 -41 -22 -83h13q39 61 80.5 106t89.5 74.5t104.5 44t124.5 14.5q65 0 109.5 -19t72 -51.5t39.5 -75t12 -89.5q0 -26 -3.5 -55.5t-9 -59.5t-12 -60t-11.5 -57l-37 -176 q-13 -56 -21 -104.5t-8 -91.5q0 -45 19 -69t53 -24q32 0 58.5 12t62.5 35l49 -69q-25 -26 -56 -51.5t-69.5 -45.5t-85.5 -32t-103 -12q-117 0 -180 55.5t-63 154.5z" />
<glyph unicode="&#x128;" horiz-adv-x="821" d="M-47 0l22 109h27q32 0 62.5 4t55.5 17t43.5 37t26.5 64l213 1006q4 11 6.5 25t2.5 22q0 22 -11 36t-30.5 21.5t-47 10t-59.5 2.5h-26l22 108h707l-23 -108h-26q-34 0 -65.5 -4.5t-57.5 -17.5t-45 -38t-27 -65l-211 -1004q-2 -11 -5 -25t-3 -22q0 -22 11 -35.5t31 -21 t47.5 -10t59.5 -2.5h27l-23 -109h-704zM832 1774q26 0 45 9t32.5 24t22 34.5t13.5 40.5h123q-11 -49 -33.5 -102.5t-56 -98t-78 -73.5t-99.5 -29t-99 20t-81 44.5t-69.5 44.5t-65.5 20q-21 0 -40 -9t-34 -24t-25 -34.5t-14 -40.5h-122q9 46 32.5 99.5t59.5 98.5t82.5 75 t101.5 30q54 0 96.5 -20t78 -44.5t67 -44.5t63.5 -20z" />
<glyph unicode="&#x129;" horiz-adv-x="725" d="M621 1098l-142 -666q-12 -56 -20 -104.5t-8 -91.5q0 -45 18.5 -69t52.5 -24q32 0 59 12t62 35l49 -69q-24 -26 -55 -51.5t-70 -45.5t-85.5 -32t-102.5 -12q-118 0 -181 55.5t-63 154.5q0 44 8 105t25 139l80 381q3 13 5.5 27t4.5 26.5t3 21.5t1 13q0 28 -6 45t-19 26 t-33.5 12t-49.5 3h-37l18 109h486zM634 1436q26 0 45 9t32.5 24t22 34.5t13.5 40.5h123q-11 -49 -33.5 -102.5t-56 -98t-78 -73.5t-99.5 -29t-99 20t-81 44.5t-69.5 44.5t-65.5 20q-21 0 -40 -9t-34 -24t-25 -34.5t-14 -40.5h-122q9 46 32.5 99.5t59.5 98.5t82.5 75 t101.5 30q54 0 96.5 -20t78 -44.5t67 -44.5t63.5 -20z" />
<glyph unicode="&#x12a;" horiz-adv-x="821" d="M-47 0l22 109h27q32 0 62.5 4t55.5 17t43.5 37t26.5 64l213 1006q4 11 6.5 25t2.5 22q0 22 -11 36t-30.5 21.5t-47 10t-59.5 2.5h-26l22 108h707l-23 -108h-26q-34 0 -65.5 -4.5t-57.5 -17.5t-45 -38t-27 -65l-211 -1004q-2 -11 -5 -25t-3 -22q0 -22 11 -35.5t31 -21 t47.5 -10t59.5 -2.5h27l-23 -109h-704zM919 1579h-594l34 162h594z" />
<glyph unicode="&#x12b;" horiz-adv-x="725" d="M621 1098l-142 -666q-12 -56 -20 -104.5t-8 -91.5q0 -45 18.5 -69t52.5 -24q32 0 59 12t62 35l49 -69q-24 -26 -55 -51.5t-70 -45.5t-85.5 -32t-102.5 -12q-118 0 -181 55.5t-63 154.5q0 44 8 105t25 139l80 381q3 13 5.5 27t4.5 26.5t3 21.5t1 13q0 28 -6 45t-19 26 t-33.5 12t-49.5 3h-37l18 109h486zM731 1241h-594l34 162h594z" />
<glyph unicode="&#x12c;" horiz-adv-x="821" d="M-47 0l22 109h27q32 0 62.5 4t55.5 17t43.5 37t26.5 64l213 1006q4 11 6.5 25t2.5 22q0 22 -11 36t-30.5 21.5t-47 10t-59.5 2.5h-26l22 108h707l-23 -108h-26q-34 0 -65.5 -4.5t-57.5 -17.5t-45 -38t-27 -65l-211 -1004q-2 -11 -5 -25t-3 -22q0 -22 11 -35.5t31 -21 t47.5 -10t59.5 -2.5h27l-23 -109h-704zM630 1579q-68 0 -119 23t-86 65.5t-55 102t-24 131.5h135q8 -72 54 -106t118 -34q74 0 129 32.5t86 107.5h127q-15 -59 -46.5 -117t-77.5 -103.5t-106.5 -73.5t-134.5 -28z" />
<glyph unicode="&#x12d;" horiz-adv-x="725" d="M621 1098l-142 -666q-12 -56 -20 -104.5t-8 -91.5q0 -45 18.5 -69t52.5 -24q32 0 59 12t62 35l49 -69q-24 -26 -55 -51.5t-70 -45.5t-85.5 -32t-102.5 -12q-118 0 -181 55.5t-63 154.5q0 44 8 105t25 139l80 381q3 13 5.5 27t4.5 26.5t3 21.5t1 13q0 28 -6 45t-19 26 t-33.5 12t-49.5 3h-37l18 109h486zM457 1241q-68 0 -119 23t-86 65.5t-55 102t-24 131.5h135q8 -72 54 -106t118 -34q74 0 129 32.5t86 107.5h127q-15 -59 -46.5 -117t-77.5 -103.5t-106.5 -73.5t-134.5 -28z" />
<glyph unicode="&#x12e;" horiz-adv-x="821" d="M-47 0l22 109h27q32 0 62.5 4t55.5 17t43.5 37t26.5 64l213 1006q4 11 6.5 25t2.5 22q0 22 -11 36t-30.5 21.5t-47 10t-59.5 2.5h-26l22 108h707l-23 -108h-26q-34 0 -65.5 -4.5t-57.5 -17.5t-45 -38t-27 -65l-211 -1004q-2 -11 -5 -25t-3 -22q0 -22 11 -35.5t31 -21 t47.5 -10t59.5 -2.5h27l-23 -109h-704zM294 -492q-124 0 -193 53.5t-69 155.5q0 55 22.5 100.5t62.5 81t95.5 61t122.5 40.5h158q-35 -10 -77.5 -30t-79.5 -50t-62 -70t-25 -90q0 -48 32 -76t85 -28q28 0 61.5 4t71.5 12l-27 -131q-38 -15 -84 -24t-94 -9z" />
<glyph unicode="&#x12f;" horiz-adv-x="725" d="M621 1098l-142 -666q-12 -56 -20 -104.5t-8 -91.5q0 -45 18.5 -69t52.5 -24q32 0 59 12t62 35l49 -69q-24 -26 -55 -51.5t-70 -45.5t-85.5 -32t-102.5 -12q-118 0 -181 55.5t-63 154.5q0 44 8 105t25 139l80 381q3 13 5.5 27t4.5 26.5t3 21.5t1 13q0 28 -6 45t-19 26 t-33.5 12t-49.5 3h-37l18 109h486zM479 1282q-34 0 -63 7.5t-50.5 23.5t-34 40t-12.5 56q0 45 15.5 76.5t41.5 52t61 30t73 9.5q33 0 62.5 -7t52 -23t36 -40.5t13.5 -58.5q0 -42 -16.5 -73.5t-44 -52t-62.5 -30.5t-72 -10zM312 -492q-124 0 -193 53.5t-69 155.5 q0 55 22.5 100.5t62.5 81t95.5 61t122.5 40.5h158q-35 -10 -77.5 -30t-79.5 -50t-62 -70t-25 -90q0 -48 32 -76t85 -28q28 0 61.5 4t71.5 12l-27 -131q-38 -15 -84 -24t-94 -9z" />
<glyph unicode="&#x130;" horiz-adv-x="821" d="M-47 0l22 109h27q32 0 62.5 4t55.5 17t43.5 37t26.5 64l213 1006q4 11 6.5 25t2.5 22q0 22 -11 36t-30.5 21.5t-47 10t-59.5 2.5h-26l22 108h707l-23 -108h-26q-34 0 -65.5 -4.5t-57.5 -17.5t-45 -38t-27 -65l-211 -1004q-2 -11 -5 -25t-3 -22q0 -22 11 -35.5t31 -21 t47.5 -10t59.5 -2.5h27l-23 -109h-704zM639 1620q-34 0 -63 7.5t-50.5 23.5t-34 40t-12.5 56q0 45 15.5 76.5t41.5 52t61 30t73 9.5q33 0 62.5 -7t52 -23t36 -40.5t13.5 -58.5q0 -42 -16.5 -73.5t-44 -52t-62.5 -30.5t-72 -10z" />
<glyph unicode="&#x131;" horiz-adv-x="725" d="M621 1098l-142 -666q-12 -56 -20 -104.5t-8 -91.5q0 -45 18.5 -69t52.5 -24q32 0 59 12t62 35l49 -69q-24 -26 -55 -51.5t-70 -45.5t-85.5 -32t-102.5 -12q-118 0 -181 55.5t-63 154.5q0 44 8 105t25 139l80 381q3 13 5.5 27t4.5 26.5t3 21.5t1 13q0 28 -6 45t-19 26 t-33.5 12t-49.5 3h-37l18 109h486z" />
<glyph unicode="&#x132;" horiz-adv-x="1642" d="M-47 0l22 109h27q32 0 62.5 4t55.5 17t43.5 37t26.5 64l213 1006q4 11 6.5 25t2.5 22q0 22 -11 36t-30.5 21.5t-47 10t-59.5 2.5h-26l22 108h707l-23 -108h-26q-34 0 -65.5 -4.5t-57.5 -17.5t-45 -38t-27 -65l-211 -1004q-2 -11 -5 -25t-3 -22q0 -22 11 -35.5t31 -21 t47.5 -10t59.5 -2.5h27l-23 -109h-704zM1284 -6q-26 -125 -87 -216.5t-144 -151.5t-183 -89t-205 -29q-55 0 -92.5 6t-75.5 17l29 113q13 -5 29.5 -8.5t34.5 -6t36 -3.5t33 -1q53 0 98.5 19t83 62.5t67.5 114t52 173.5l264 1243q4 11 6.5 25t2.5 22q0 22 -11 36t-30.5 21.5 t-47 10t-59.5 2.5h-26l22 108h707l-23 -108h-26q-34 0 -65.5 -4.5t-57.5 -17.5t-45 -38t-27 -65z" />
<glyph unicode="&#x133;" horiz-adv-x="1419" d="M621 1098l-142 -666q-12 -56 -20 -104.5t-8 -91.5q0 -45 18.5 -69t52.5 -24q32 0 59 12t62 35l49 -69q-24 -26 -55 -51.5t-70 -45.5t-85.5 -32t-102.5 -12q-118 0 -181 55.5t-63 154.5q0 44 8 105t25 139l80 381q3 13 5.5 27t4.5 26.5t3 21.5t1 13q0 28 -6 45t-19 26 t-33.5 12t-49.5 3h-37l18 109h486zM479 1282q-34 0 -63 7.5t-50.5 23.5t-34 40t-12.5 56q0 45 15.5 76.5t41.5 52t61 30t73 9.5q33 0 62.5 -7t52 -23t36 -40.5t13.5 -58.5q0 -42 -16.5 -73.5t-44 -52t-62.5 -30.5t-72 -10zM1206 1282q-34 0 -63 7.5t-50.5 23.5t-34 40 t-12.5 56q0 45 15.5 76.5t41.5 52t61 30t73 9.5q33 0 62.5 -7t52 -23t36 -40.5t13.5 -58.5q0 -42 -16.5 -73.5t-44 -52t-62.5 -30.5t-72 -10zM1348 1098l-238 -1114q-28 -137 -75 -228.5t-108.5 -146.5t-133.5 -78t-150 -23q-65 0 -112 7t-91 18l25 107q15 -5 42.5 -10 t49.5 -5q48 0 83.5 17.5t63.5 59.5t50.5 111t44.5 171l176 831q3 13 5.5 27t4.5 26.5t3 21.5t1 13q0 28 -6 45t-19 26t-33.5 12t-49.5 3h-37l18 109h486z" />
<glyph unicode="&#x134;" horiz-adv-x="821" d="M463 -6q-26 -125 -87 -216.5t-144 -151.5t-183 -89t-205 -29q-55 0 -92.5 6t-75.5 17l29 113q13 -5 29.5 -8.5t34.5 -6t36 -3.5t33 -1q53 0 98.5 19t83 62.5t67.5 114t52 173.5l264 1243q4 11 6.5 25t2.5 22q0 22 -11 36t-30.5 21.5t-47 10t-59.5 2.5h-26l22 108h707 l-23 -108h-26q-34 0 -65.5 -4.5t-57.5 -17.5t-45 -38t-27 -65zM263 1606q30 29 68 66.5t78 77.5t78 80.5t67 76.5h276q13 -32 33 -72t42.5 -81t44.5 -80t40 -68l-6 -27h-129q-18 17 -42 40t-49 48t-49.5 50t-42.5 46q-27 -21 -61 -46t-69 -50t-68 -48t-58 -40h-159z" />
<glyph unicode="&#x135;" horiz-adv-x="692" d="M621 1098l-238 -1114q-28 -137 -75 -228.5t-108.5 -146.5t-133.5 -78t-150 -23q-65 0 -112 7t-91 18l25 107q15 -5 42.5 -10t49.5 -5q48 0 83.5 17.5t63.5 59.5t50.5 111t44.5 171l176 831q3 13 5.5 27t4.5 26.5t3 21.5t1 13q0 28 -6 45t-19 26t-33.5 12t-49.5 3h-37 l18 109h486zM59 1268q30 29 68 66.5t78 77.5t78 80.5t67 76.5h276q13 -32 33 -72t42.5 -81t44.5 -80t40 -68l-6 -27h-129q-18 17 -42 40t-49 48t-49.5 50t-42.5 46q-27 -21 -61 -46t-69 -50t-68 -48t-58 -40h-159z" />
<glyph unicode="&#x136;" horiz-adv-x="1518" d="M1036 1110q42 37 68.5 66.5t42 53t21.5 41.5t6 32q0 26 -20 39.5t-71 13.5l23 106h553l-23 -106q-41 0 -79 -10t-77 -31t-81.5 -53t-91.5 -76l-332 -293l239 -576q25 -57 45.5 -97t42 -64.5t47 -35.5t60.5 -11h6l-20 -109h-107q-102 0 -169.5 12.5t-114 44.5t-79 86.5 t-65.5 139.5l-151 391l-121 -86l-76 -363q-2 -11 -5 -25t-3 -22q0 -22 11 -35.5t31 -21t47.5 -10t59.5 -2.5h27l-23 -109h-704l22 109h27q32 0 62.5 4t55.5 17t43.5 37t26.5 64l209 983q13 53 13 70q0 22 -11 36t-30.5 21.5t-47 10t-59.5 2.5h-26l22 108h707l-23 -108h-26 q-34 0 -65.5 -4.5t-57.5 -17.5t-45 -38t-27 -65l-102 -486zM475 -426q34 71 67 149t58 152h258l-6 -20q-21 -32 -50.5 -71t-64 -80t-72 -81.5t-73.5 -75.5h-123z" />
<glyph unicode="&#x137;" horiz-adv-x="1223" d="M438 408l-88 -408h-307l270 1274q3 13 6 27t5 26.5t3 21.5t1 13q0 28 -6 45t-19 26t-34 12t-50 3h-43l19 108h495l-108 -499q-18 -81 -31.5 -144.5t-27 -120.5t-28 -114t-32.5 -125l319 289q25 22 40 39t23.5 29.5t11.5 22t3 17.5q0 22 -25 33.5t-71 11.5l20 103h516 l-20 -103q-71 0 -149 -41.5t-177 -132.5l-163 -151l153 -334q33 -72 64 -116t58 -69t50 -33.5t41 -8.5h8l-22 -109h-105q-75 0 -134 10.5t-104 34t-77 60t-53 88.5l-121 286zM294 -426q34 71 67 149t58 152h258l-6 -20q-21 -32 -50.5 -71t-64 -80t-72 -81.5t-73.5 -75.5 h-123z" />
<glyph unicode="&#x138;" horiz-adv-x="1223" d="M438 408l-88 -408h-307l172 815q3 13 5.5 27t4.5 26.5t3 21.5t1 13q0 28 -6 45t-19 26t-33.5 12t-49.5 3h-43l18 109h496l-31 -144q-10 -45 -22 -98.5t-25 -108t-26 -105t-25 -89.5l319 289q25 22 40 39t23.5 29.5t11.5 22t3 17.5q0 22 -25 33.5t-71 11.5l20 103h516 l-20 -103q-71 0 -149 -41.5t-177 -132.5l-163 -151l153 -334q33 -72 64 -116t58 -69t50 -33.5t41 -8.5h8l-22 -109h-105q-75 0 -134 10.5t-104 34t-77 60t-53 88.5l-121 286z" />
<glyph unicode="&#x139;" horiz-adv-x="1339" d="M834 125q56 0 97 14t71.5 41.5t53.5 69.5t42 98l37 109h131l-113 -457h-1200l22 109h27q32 0 62.5 4t55.5 17t43.5 37t26.5 64l209 983q13 53 13 70q0 22 -11 36t-30.5 21.5t-47 10t-59.5 2.5h-26l22 108h707l-23 -108h-26q-34 0 -65.5 -4.5t-57.5 -17.5t-45 -38t-27 -65 l-231 -1104h342zM574 1606q28 29 61 67t65.5 78.5t63 80.5t54.5 75h321l-6 -21q-16 -18 -44 -42.5t-63.5 -52.5t-76 -57.5t-82.5 -57.5t-83 -53.5t-77 -43.5h-139z" />
<glyph unicode="&#x13a;" horiz-adv-x="725" d="M489 143q32 0 59 12t62 35l49 -69q-24 -26 -55 -51.5t-69.5 -45.5t-85.5 -32t-103 -12q-118 0 -181 55.5t-63 154.5q0 88 33 244l178 840q3 13 6 27t5 26.5t3 21.5t1 13q0 28 -6 45t-19 26t-34 12t-50 3h-43l19 108h495l-244 -1124q-12 -56 -20 -104.5t-8 -91.5 q0 -45 18.5 -69t52.5 -24zM444 1663q28 29 61 67t65.5 78.5t63 80.5t54.5 75h321l-6 -21q-16 -18 -44 -42.5t-63.5 -52.5t-76 -57.5t-82.5 -57.5t-83 -53.5t-77 -43.5h-139z" />
<glyph unicode="&#x13b;" horiz-adv-x="1339" d="M834 125q56 0 97 14t71.5 41.5t53.5 69.5t42 98l37 109h131l-113 -457h-1200l22 109h27q32 0 62.5 4t55.5 17t43.5 37t26.5 64l209 983q13 53 13 70q0 22 -11 36t-30.5 21.5t-47 10t-59.5 2.5h-26l22 108h707l-23 -108h-26q-34 0 -65.5 -4.5t-57.5 -17.5t-45 -38t-27 -65 l-231 -1104h342zM364 -426q34 71 67 149t58 152h258l-6 -20q-21 -32 -50.5 -71t-64 -80t-72 -81.5t-73.5 -75.5h-123z" />
<glyph unicode="&#x13c;" horiz-adv-x="725" d="M489 143q32 0 59 12t62 35l49 -69q-24 -26 -55 -51.5t-69.5 -45.5t-85.5 -32t-103 -12q-118 0 -181 55.5t-63 154.5q0 88 33 244l178 840q3 13 6 27t5 26.5t3 21.5t1 13q0 28 -6 45t-19 26t-34 12t-50 3h-43l19 108h495l-244 -1124q-12 -56 -20 -104.5t-8 -91.5 q0 -45 18.5 -69t52.5 -24zM9 -426q34 71 67 149t58 152h258l-6 -20q-21 -32 -50.5 -71t-64 -80t-72 -81.5t-73.5 -75.5h-123z" />
<glyph unicode="&#x13d;" horiz-adv-x="1339" d="M834 125q56 0 97 14t71.5 41.5t53.5 69.5t42 98l37 109h131l-113 -457h-1200l22 109h27q32 0 62.5 4t55.5 17t43.5 37t26.5 64l209 983q13 53 13 70q0 22 -11 36t-30.5 21.5t-47 10t-59.5 2.5h-26l22 108h707l-23 -108h-26q-34 0 -65.5 -4.5t-57.5 -17.5t-45 -38t-27 -65 l-231 -1104h342zM1034 1162q34 72 67 149.5t58 151.5h258l-6 -20q-21 -32 -50.5 -71t-64 -80t-72 -81.5t-73.5 -74.5h-123z" />
<glyph unicode="&#x13e;" horiz-adv-x="725" d="M489 143q32 0 59 12t62 35l49 -69q-24 -26 -55 -51.5t-69.5 -45.5t-85.5 -32t-103 -12q-118 0 -181 55.5t-63 154.5q0 88 33 244l178 840q3 13 6 27t5 26.5t3 21.5t1 13q0 28 -6 45t-19 26t-34 12t-50 3h-43l19 108h495l-244 -1124q-12 -56 -20 -104.5t-8 -91.5 q0 -45 18.5 -69t52.5 -24zM737 1255q34 72 67 149.5t58 151.5h258l-6 -20q-21 -32 -50.5 -71t-64 -80t-72 -81.5t-73.5 -74.5h-123z" />
<glyph unicode="&#x13f;" horiz-adv-x="1339" d="M834 125q56 0 97 14t71.5 41.5t53.5 69.5t42 98l37 109h131l-113 -457h-1200l22 109h27q32 0 62.5 4t55.5 17t43.5 37t26.5 64l209 983q13 53 13 70q0 22 -11 36t-30.5 21.5t-47 10t-59.5 2.5h-26l22 108h707l-23 -108h-26q-34 0 -65.5 -4.5t-57.5 -17.5t-45 -38t-27 -65 l-231 -1104h342zM964 638q-34 0 -63 7.5t-50.5 23.5t-34 40t-12.5 56q0 45 15.5 76.5t41.5 52t61 30t73 9.5q33 0 62.5 -7t52 -23t36 -40.5t13.5 -58.5q0 -42 -16.5 -73.5t-44 -52t-62.5 -30.5t-72 -10z" />
<glyph unicode="&#x140;" horiz-adv-x="954" d="M489 143q32 0 59 12t62 35l49 -69q-24 -26 -55 -51.5t-69.5 -45.5t-85.5 -32t-103 -12q-118 0 -181 55.5t-63 154.5q0 88 33 244l178 840q3 13 6 27t5 26.5t3 21.5t1 13q0 28 -6 45t-19 26t-34 12t-50 3h-43l19 108h495l-244 -1124q-12 -56 -20 -104.5t-8 -91.5 q0 -45 18.5 -69t52.5 -24zM809 570q-34 0 -63 7.5t-50.5 23.5t-34 40t-12.5 56q0 45 15.5 76.5t41.5 52t61 30t73 9.5q33 0 62.5 -7t52 -23t36 -40.5t13.5 -58.5q0 -42 -16.5 -73.5t-44 -52t-62.5 -30.5t-72 -10z" />
<glyph unicode="&#x141;" horiz-adv-x="1339" d="M834 125q56 0 97 14t71.5 41.5t53.5 69.5t42 98l37 109h131l-113 -457h-1200l22 109h27q32 0 62.5 4t55.5 17t43.5 37t26.5 64l70 334l-188 -96l32 147l189 97l106 501q13 53 13 70q0 22 -11 36t-30.5 21.5t-47 10t-59.5 2.5h-26l22 108h707l-23 -108h-26 q-34 0 -65.5 -4.5t-57.5 -17.5t-45 -38t-27 -65l-70 -332l340 178l-32 -151l-338 -174l-131 -625h342z" />
<glyph unicode="&#x142;" horiz-adv-x="725" d="M489 143q32 0 59 12t62 35l49 -69q-24 -26 -55 -51.5t-69.5 -45.5t-85.5 -32t-103 -12q-118 0 -181 55.5t-63 154.5q0 88 33 244l23 107l-166 -84l31 151l167 86l123 580q3 13 6 27t5 26.5t3 21.5t1 13q0 28 -6 45t-19 26t-34 12t-50 3h-43l19 108h495l-149 -684l182 93 l-33 -156l-182 -92l-62 -285q-12 -56 -20 -104.5t-8 -91.5q0 -45 18.5 -69t52.5 -24z" />
<glyph unicode="&#x143;" horiz-adv-x="1614" d="M1094 0l-555 1159l-193 -917q-5 -23 -7.5 -39.5t-2.5 -24.5q0 -22 11 -35.5t31 -21t47.5 -10t59.5 -2.5h7l-23 -109h-516l22 109h27q32 0 62.5 4t55.5 17t43.5 37t26.5 64l209 983q13 53 13 70q0 22 -11 36t-30.5 21.5t-47 10t-59.5 2.5h-26l22 108h455l499 -1050 l172 809q11 47 11 63q0 22 -11.5 36t-31.5 21.5t-47.5 10t-59.5 2.5h-6l23 108h516l-23 -108h-26q-32 0 -62.5 -4.5t-55.5 -17.5t-43.5 -37t-27.5 -64l-260 -1231h-188zM944 1606q28 29 61 67t65.5 78.5t63 80.5t54.5 75h321l-6 -21q-16 -18 -44 -42.5t-63.5 -52.5 t-76 -57.5t-82.5 -57.5t-83 -53.5t-77 -43.5h-139z" />
<glyph unicode="&#x144;" horiz-adv-x="1376" d="M800 190q0 88 33 244l33 162q4 20 10 49t12 60.5t10.5 63t4.5 56.5q0 19 -3.5 40t-13 38t-26 28t-43.5 11q-35 0 -69.5 -23.5t-66.5 -62t-61 -88t-52.5 -101.5t-40.5 -102t-26 -90l-104 -475h-307l172 815q3 13 5.5 27t4.5 26.5t3 21.5t1 13q0 28 -6 45t-19 26t-33.5 12 t-49.5 3h-37l18 109h455l-23 -219h13q39 61 80.5 106t89.5 74.5t104.5 44t124.5 14.5q65 0 109.5 -19t72 -51.5t39.5 -75t12 -89.5q0 -26 -3.5 -55.5t-9 -59.5t-12 -60t-11.5 -57l-46 -219q-12 -56 -20 -104.5t-8 -91.5q0 -45 18.5 -69t53.5 -24q32 0 58.5 12t61.5 35 l49 -69q-24 -26 -55 -51.5t-69.5 -45.5t-85.5 -32t-103 -12q-118 0 -181 55.5t-63 154.5zM682 1268q28 29 61 67t65.5 78.5t63 80.5t54.5 75h321l-6 -21q-16 -18 -44 -42.5t-63.5 -52.5t-76 -57.5t-82.5 -57.5t-83 -53.5t-77 -43.5h-139z" />
<glyph unicode="&#x145;" horiz-adv-x="1614" d="M1094 0l-555 1159l-193 -917q-5 -23 -7.5 -39.5t-2.5 -24.5q0 -22 11 -35.5t31 -21t47.5 -10t59.5 -2.5h7l-23 -109h-516l22 109h27q32 0 62.5 4t55.5 17t43.5 37t26.5 64l209 983q13 53 13 70q0 22 -11 36t-30.5 21.5t-47 10t-59.5 2.5h-26l22 108h455l499 -1050 l172 809q11 47 11 63q0 22 -11.5 36t-31.5 21.5t-47.5 10t-59.5 2.5h-6l23 108h516l-23 -108h-26q-32 0 -62.5 -4.5t-55.5 -17.5t-43.5 -37t-27.5 -64l-260 -1231h-188zM436 -426q34 71 67 149t58 152h258l-6 -20q-21 -32 -50.5 -71t-64 -80t-72 -81.5t-73.5 -75.5h-123z " />
<glyph unicode="&#x146;" horiz-adv-x="1376" d="M800 190q0 88 33 244l33 162q4 20 10 49t12 60.5t10.5 63t4.5 56.5q0 19 -3.5 40t-13 38t-26 28t-43.5 11q-35 0 -69.5 -23.5t-66.5 -62t-61 -88t-52.5 -101.5t-40.5 -102t-26 -90l-104 -475h-307l172 815q3 13 5.5 27t4.5 26.5t3 21.5t1 13q0 28 -6 45t-19 26t-33.5 12 t-49.5 3h-37l18 109h455l-23 -219h13q39 61 80.5 106t89.5 74.5t104.5 44t124.5 14.5q65 0 109.5 -19t72 -51.5t39.5 -75t12 -89.5q0 -26 -3.5 -55.5t-9 -59.5t-12 -60t-11.5 -57l-46 -219q-12 -56 -20 -104.5t-8 -91.5q0 -45 18.5 -69t53.5 -24q32 0 58.5 12t61.5 35 l49 -69q-24 -26 -55 -51.5t-69.5 -45.5t-85.5 -32t-103 -12q-118 0 -181 55.5t-63 154.5zM364 -426q34 71 67 149t58 152h258l-6 -20q-21 -32 -50.5 -71t-64 -80t-72 -81.5t-73.5 -75.5h-123z" />
<glyph unicode="&#x147;" horiz-adv-x="1614" d="M1094 0l-555 1159l-193 -917q-5 -23 -7.5 -39.5t-2.5 -24.5q0 -22 11 -35.5t31 -21t47.5 -10t59.5 -2.5h7l-23 -109h-516l22 109h27q32 0 62.5 4t55.5 17t43.5 37t26.5 64l209 983q13 53 13 70q0 22 -11 36t-30.5 21.5t-47 10t-59.5 2.5h-26l22 108h455l499 -1050 l172 809q11 47 11 63q0 22 -11.5 36t-31.5 21.5t-47.5 10t-59.5 2.5h-6l23 108h516l-23 -108h-26q-32 0 -62.5 -4.5t-55.5 -17.5t-43.5 -37t-27.5 -64l-260 -1231h-188zM1452 1880q-30 -29 -68.5 -66.5t-78 -77.5t-77.5 -80.5t-67 -76.5h-276q-13 31 -33 71t-42.5 81.5 t-44.5 80.5t-40 68l6 27h129q18 -17 41.5 -40t48.5 -48.5t49.5 -50.5t42.5 -46q28 21 62 46t68.5 50.5t67.5 48.5t58 40h160z" />
<glyph unicode="&#x148;" horiz-adv-x="1376" d="M800 190q0 88 33 244l33 162q4 20 10 49t12 60.5t10.5 63t4.5 56.5q0 19 -3.5 40t-13 38t-26 28t-43.5 11q-35 0 -69.5 -23.5t-66.5 -62t-61 -88t-52.5 -101.5t-40.5 -102t-26 -90l-104 -475h-307l172 815q3 13 5.5 27t4.5 26.5t3 21.5t1 13q0 28 -6 45t-19 26t-33.5 12 t-49.5 3h-37l18 109h455l-23 -219h13q39 61 80.5 106t89.5 74.5t104.5 44t124.5 14.5q65 0 109.5 -19t72 -51.5t39.5 -75t12 -89.5q0 -26 -3.5 -55.5t-9 -59.5t-12 -60t-11.5 -57l-46 -219q-12 -56 -20 -104.5t-8 -91.5q0 -45 18.5 -69t53.5 -24q32 0 58.5 12t61.5 35 l49 -69q-24 -26 -55 -51.5t-69.5 -45.5t-85.5 -32t-103 -12q-118 0 -181 55.5t-63 154.5zM1198 1542q-30 -29 -68.5 -66.5t-78 -77.5t-77.5 -80.5t-67 -76.5h-276q-13 31 -33 71t-42.5 81.5t-44.5 80.5t-40 68l6 27h129q18 -17 41.5 -40t48.5 -48.5t49.5 -50.5t42.5 -46 q28 21 62 46t68.5 50.5t67.5 48.5t58 40h160z" />
<glyph unicode="&#x149;" horiz-adv-x="1675" d="M1099 190q0 88 33 244l33 162q4 20 10 49t12 60.5t10.5 63t4.5 56.5q0 19 -3.5 40t-13 38t-26 28t-43.5 11q-35 0 -69.5 -23.5t-66.5 -62t-61 -88t-52.5 -101.5t-40.5 -102t-26 -90l-104 -475h-307l172 815q3 13 5.5 27t4.5 26.5t3 21.5t1 13q0 28 -6 45t-19 26t-33.5 12 t-49.5 3h-37l18 109h455l-23 -219h13q39 61 80.5 106t89.5 74.5t104.5 44t124.5 14.5q65 0 109.5 -19t72 -51.5t39.5 -75t12 -89.5q0 -26 -3.5 -55.5t-9 -59.5t-12 -60t-11.5 -57l-46 -219q-12 -56 -20 -104.5t-8 -91.5q0 -45 18.5 -69t53.5 -24q32 0 58.5 12t61.5 35 l49 -69q-24 -26 -55 -51.5t-69.5 -45.5t-85.5 -32t-103 -12q-118 0 -181 55.5t-63 154.5zM429 1278q0 -78 -28.5 -148t-85 -127t-141 -98.5t-196.5 -62.5l23 108q211 50 211 170q0 21 -8.5 36.5t-21.5 28t-27.5 24.5t-27.5 27.5t-21.5 36t-8.5 50.5q0 33 12.5 59t33.5 44.5 t49 28t59 9.5q37 0 69.5 -12.5t56.5 -36t38 -58t14 -79.5z" />
<glyph unicode="&#x14a;" horiz-adv-x="1563" d="M539 1159l-193 -917q-5 -23 -7.5 -39.5t-2.5 -24.5q0 -22 11 -35.5t31 -21t47.5 -10t59.5 -2.5h7l-23 -109h-516l22 109h27q32 0 62.5 4t55.5 17t43.5 37t26.5 64l209 983q13 53 13 70q0 22 -11 36t-30.5 21.5t-47 10t-59.5 2.5h-26l22 108h455l499 -1050l172 809 q11 47 11 63q0 22 -11.5 36t-31.5 21.5t-47.5 10t-59.5 2.5h-6l23 108h516l-23 -108h-26q-32 0 -62.5 -4.5t-55.5 -17.5t-43.5 -37t-27.5 -64l-260 -1231q-28 -132 -74 -225.5t-110.5 -152.5t-146 -86.5t-179.5 -27.5q-40 0 -82 6t-76 17l27 115q26 -10 54.5 -14.5 t56.5 -4.5q48 0 99 17.5t97 60.5t84.5 115t61.5 180z" />
<glyph unicode="&#x14b;" horiz-adv-x="1335" d="M567 -492q-65 0 -112 7t-90 18l24 107q16 -5 43.5 -10t48.5 -5q48 0 83.5 17.5t63.5 59.5t51 111t44 171l133 622q4 20 10.5 49t12.5 60.5t10 63t4 57.5q0 19 -3.5 39.5t-12.5 37.5t-26 28t-44 11q-35 0 -69.5 -23.5t-66.5 -62t-61 -88t-52.5 -101.5t-40.5 -102t-25 -90 l-109 -485h-307l172 815q3 13 5.5 27t4.5 26.5t3 21.5t1 13q0 28 -6 45t-19 26t-33.5 12t-49.5 3h-37l18 109h455l-19 -209h13q39 61 80.5 106.5t89.5 74.5t104.5 43.5t124.5 14.5q65 0 110 -19t72.5 -51.5t39.5 -75t12 -89.5q0 -26 -4 -55.5t-9.5 -59.5t-12 -59.5 t-11.5 -56.5l-146 -678q-29 -137 -76.5 -228.5t-108.5 -146.5t-132.5 -78t-149.5 -23z" />
<glyph unicode="&#x14c;" horiz-adv-x="1622" d="M129 545q0 98 24.5 206t73.5 212.5t122 199t169.5 166t217.5 114t265 42.5q113 0 215.5 -33t180.5 -102t124 -175t46 -253q0 -94 -23.5 -201t-71 -212t-119 -201t-168 -169.5t-218 -117.5t-267.5 -44q-121 0 -225.5 36.5t-181 108.5t-120.5 178t-44 245zM463 496 q0 -101 21.5 -173.5t59 -119t88.5 -68.5t109 -22q85 0 154.5 41t124.5 109.5t95.5 157t67 183.5t39.5 189.5t13 175.5q0 100 -21 172t-57.5 119t-87.5 69.5t-111 22.5q-85 0 -154.5 -41t-124.5 -109.5t-96 -157t-67.5 -184t-39.5 -190t-13 -174.5zM1295 1579h-594l34 162 h594z" />
<glyph unicode="&#x14d;" horiz-adv-x="1266" d="M82 410q0 77 18 159t54.5 161t91.5 149.5t129.5 123.5t169 84t209.5 31q88 0 166 -24.5t136 -76.5t92 -133.5t34 -195.5q0 -74 -17 -155t-52.5 -159.5t-90 -150t-128.5 -125.5t-168 -86t-210 -32q-96 0 -176 26.5t-137 80t-89 134.5t-32 189zM553 127q55 0 99.5 31.5 t80 83t61.5 117.5t42.5 136t25 137.5t8.5 121.5q0 121 -41.5 174t-113.5 53q-52 0 -96 -30t-79.5 -80t-62.5 -114.5t-45.5 -133.5t-27.5 -137.5t-9 -125.5q0 -125 42 -179t116 -54zM1049 1241h-594l34 162h594z" />
<glyph unicode="&#x14e;" horiz-adv-x="1622" d="M129 545q0 98 24.5 206t73.5 212.5t122 199t169.5 166t217.5 114t265 42.5q113 0 215.5 -33t180.5 -102t124 -175t46 -253q0 -94 -23.5 -201t-71 -212t-119 -201t-168 -169.5t-218 -117.5t-267.5 -44q-121 0 -225.5 36.5t-181 108.5t-120.5 178t-44 245zM463 496 q0 -101 21.5 -173.5t59 -119t88.5 -68.5t109 -22q85 0 154.5 41t124.5 109.5t95.5 157t67 183.5t39.5 189.5t13 175.5q0 100 -21 172t-57.5 119t-87.5 69.5t-111 22.5q-85 0 -154.5 -41t-124.5 -109.5t-96 -157t-67.5 -184t-39.5 -190t-13 -174.5zM993 1579q-68 0 -119 23 t-86 65.5t-55 102t-24 131.5h135q8 -72 54 -106t118 -34q74 0 129 32.5t86 107.5h127q-15 -59 -46.5 -117t-77.5 -103.5t-106.5 -73.5t-134.5 -28z" />
<glyph unicode="&#x14f;" horiz-adv-x="1266" d="M82 410q0 77 18 159t54.5 161t91.5 149.5t129.5 123.5t169 84t209.5 31q88 0 166 -24.5t136 -76.5t92 -133.5t34 -195.5q0 -74 -17 -155t-52.5 -159.5t-90 -150t-128.5 -125.5t-168 -86t-210 -32q-96 0 -176 26.5t-137 80t-89 134.5t-32 189zM553 127q55 0 99.5 31.5 t80 83t61.5 117.5t42.5 136t25 137.5t8.5 121.5q0 121 -41.5 174t-113.5 53q-52 0 -96 -30t-79.5 -80t-62.5 -114.5t-45.5 -133.5t-27.5 -137.5t-9 -125.5q0 -125 42 -179t116 -54zM766 1241q-68 0 -119 23t-86 65.5t-55 102t-24 131.5h135q8 -72 54 -106t118 -34 q74 0 129 32.5t86 107.5h127q-15 -59 -46.5 -117t-77.5 -103.5t-106.5 -73.5t-134.5 -28z" />
<glyph unicode="&#x150;" horiz-adv-x="1622" d="M129 545q0 98 24.5 206t73.5 212.5t122 199t169.5 166t217.5 114t265 42.5q113 0 215.5 -33t180.5 -102t124 -175t46 -253q0 -94 -23.5 -201t-71 -212t-119 -201t-168 -169.5t-218 -117.5t-267.5 -44q-121 0 -225.5 36.5t-181 108.5t-120.5 178t-44 245zM463 496 q0 -101 21.5 -173.5t59 -119t88.5 -68.5t109 -22q85 0 154.5 41t124.5 109.5t95.5 157t67 183.5t39.5 189.5t13 175.5q0 100 -21 172t-57.5 119t-87.5 69.5t-111 22.5q-85 0 -154.5 -41t-124.5 -109.5t-96 -157t-67.5 -184t-39.5 -190t-13 -174.5zM1106 1579l6 27 q28 33 57.5 70t57.5 76t54.5 78.5t49.5 76.5h261l-7 -21q-21 -27 -63 -67.5t-91.5 -84.5t-101 -85.5t-92.5 -69.5h-131zM717 1579l6 27q28 33 57.5 70t57.5 76t54.5 78.5t49.5 76.5h260l-6 -21q-21 -27 -63 -67.5t-91.5 -84.5t-101 -85.5t-92.5 -69.5h-131z" />
<glyph unicode="&#x151;" horiz-adv-x="1266" d="M82 410q0 77 18 159t54.5 161t91.5 149.5t129.5 123.5t169 84t209.5 31q88 0 166 -24.5t136 -76.5t92 -133.5t34 -195.5q0 -74 -17 -155t-52.5 -159.5t-90 -150t-128.5 -125.5t-168 -86t-210 -32q-96 0 -176 26.5t-137 80t-89 134.5t-32 189zM553 127q55 0 99.5 31.5 t80 83t61.5 117.5t42.5 136t25 137.5t8.5 121.5q0 121 -41.5 174t-113.5 53q-52 0 -96 -30t-79.5 -80t-62.5 -114.5t-45.5 -133.5t-27.5 -137.5t-9 -125.5q0 -125 42 -179t116 -54zM831 1241l6 27q28 33 57.5 70t57.5 76t54.5 78.5t49.5 76.5h261l-7 -21q-21 -27 -63 -67.5 t-91.5 -84.5t-101 -85.5t-92.5 -69.5h-131zM442 1241l6 27q28 33 57.5 70t57.5 76t54.5 78.5t49.5 76.5h260l-6 -21q-21 -27 -63 -67.5t-91.5 -84.5t-101 -85.5t-92.5 -69.5h-131z" />
<glyph unicode="&#x152;" horiz-adv-x="2030" d="M1001 1485q47 0 96.5 -6t92.5 -17h915l-71 -381h-146q1 7 2.5 25t3 37.5t3 36t1.5 20.5q0 28 -7.5 53t-25 44t-45 29.5t-67.5 10.5h-272l-109 -512h465l-27 -123h-464l-123 -577h323q48 0 86 13.5t66 36.5t48 53.5t32 64.5l32 88h146l-94 -381h-969q-45 -11 -93.5 -17 t-99.5 -6q-121 0 -225.5 36.5t-181 108.5t-120.5 178t-44 245q0 98 24.5 206t73.5 212.5t122 199t169.5 166t217.5 114t265 42.5zM741 113q45 0 86 8.5t78 28.5l244 1153q-35 21 -85 35t-106 14q-85 0 -154.5 -41t-124.5 -109.5t-96 -157t-67.5 -184t-39.5 -190t-13 -174.5 q0 -101 21.5 -173.5t59 -119t88.5 -68.5t109 -22z" />
<glyph unicode="&#x153;" horiz-adv-x="1845" d="M1368 135q50 0 95 14.5t83 38t69 53t52 60.5q12 -15 19.5 -38.5t7.5 -49.5q0 -37 -24 -78t-73.5 -75.5t-126.5 -57t-182 -22.5q-117 0 -208.5 40t-147.5 121q-74 -72 -177 -116.5t-239 -44.5q-96 0 -176 26t-137 79t-89 132t-32 186q0 76 18 158.5t54.5 162t92 151 t130.5 125.5t169.5 86t209.5 32t203.5 -38t138.5 -122q80 75 186 119.5t242 44.5q146 0 227.5 -63.5t81.5 -177.5q0 -83 -46 -159.5t-127 -135t-193 -93t-244 -34.5h-37t-39 2q-3 -20 -3.5 -40.5t-0.5 -37.5q0 -119 55.5 -183.5t167.5 -64.5zM553 127q55 0 100 32t80 84.5 t61.5 119.5t43.5 137t25.5 137.5t8.5 120.5q0 120 -41.5 171.5t-113.5 51.5q-52 0 -96.5 -30.5t-80 -81t-63 -116t-45.5 -135t-27.5 -138t-9.5 -124.5q0 -62 11 -105.5t31.5 -71t49.5 -40t66 -12.5zM1440 999q-33 0 -64.5 -17.5t-59.5 -48t-52 -71.5t-44 -88t-34.5 -97 t-22.5 -99h19q76 0 141.5 21t113.5 58.5t75.5 90.5t27.5 118q0 63 -26 98t-74 35z" />
<glyph unicode="&#x154;" horiz-adv-x="1448" d="M621 754h127q65 0 121.5 19t98 59.5t65.5 105t24 156.5q0 69 -12 116t-37 76.5t-63 42t-89 12.5h-104zM918 1462q245 0 366 -85t121 -257q0 -104 -33.5 -177t-86 -122.5t-117.5 -78.5t-128 -44l142 -381q21 -58 41 -98t42.5 -64.5t49 -35t61.5 -10.5h8l-22 -109h-21 q-107 0 -185.5 9t-134.5 34.5t-93 71t-60 118.5l-129 402h-141l-80 -375q-8 -37 -11 -55.5t-3 -26.5q0 -22 11 -35.5t31 -21t47.5 -10t59.5 -2.5h68l-23 -109h-745l22 109h27q32 0 62.5 4t55.5 17t43.5 37t26.5 64l209 983q13 53 13 70q0 22 -11 36t-30.5 21.5t-47 10 t-59.5 2.5h-26l22 108h658zM760 1606q28 29 61 67t65.5 78.5t63 80.5t54.5 75h321l-6 -21q-16 -18 -44 -42.5t-63.5 -52.5t-76 -57.5t-82.5 -57.5t-83 -53.5t-77 -43.5h-139z" />
<glyph unicode="&#x155;" horiz-adv-x="1128" d="M262 918q0 38 -25 54.5t-83 16.5h-37l18 109h453l-43 -281h10q35 74 70.5 130t78 94t96.5 57.5t126 19.5q109 0 162 -41t53 -119q0 -106 -62 -158t-180 -52q0 46 -4.5 83.5t-16 64t-31 40.5t-48.5 14t-61 -23.5t-64 -64.5t-62.5 -97.5t-58.5 -123t-51 -139.5t-39 -148 l-78 -354h-309l174 823q3 17 7.5 45t4.5 50zM537 1268q28 29 61 67t65.5 78.5t63 80.5t54.5 75h321l-6 -21q-16 -18 -44 -42.5t-63.5 -52.5t-76 -57.5t-82.5 -57.5t-83 -53.5t-77 -43.5h-139z" />
<glyph unicode="&#x156;" horiz-adv-x="1448" d="M621 754h127q65 0 121.5 19t98 59.5t65.5 105t24 156.5q0 69 -12 116t-37 76.5t-63 42t-89 12.5h-104zM918 1462q245 0 366 -85t121 -257q0 -104 -33.5 -177t-86 -122.5t-117.5 -78.5t-128 -44l142 -381q21 -58 41 -98t42.5 -64.5t49 -35t61.5 -10.5h8l-22 -109h-21 q-107 0 -185.5 9t-134.5 34.5t-93 71t-60 118.5l-129 402h-141l-80 -375q-8 -37 -11 -55.5t-3 -26.5q0 -22 11 -35.5t31 -21t47.5 -10t59.5 -2.5h68l-23 -109h-745l22 109h27q32 0 62.5 4t55.5 17t43.5 37t26.5 64l209 983q13 53 13 70q0 22 -11 36t-30.5 21.5t-47 10 t-59.5 2.5h-26l22 108h658zM428 -426q34 71 67 149t58 152h258l-6 -20q-21 -32 -50.5 -71t-64 -80t-72 -81.5t-73.5 -75.5h-123z" />
<glyph unicode="&#x157;" horiz-adv-x="1128" d="M262 918q0 38 -25 54.5t-83 16.5h-37l18 109h453l-43 -281h10q35 74 70.5 130t78 94t96.5 57.5t126 19.5q109 0 162 -41t53 -119q0 -106 -62 -158t-180 -52q0 46 -4.5 83.5t-16 64t-31 40.5t-48.5 14t-61 -23.5t-64 -64.5t-62.5 -97.5t-58.5 -123t-51 -139.5t-39 -148 l-78 -354h-309l174 823q3 17 7.5 45t4.5 50zM-34 -426q34 71 67 149t58 152h258l-6 -20q-21 -32 -50.5 -71t-64 -80t-72 -81.5t-73.5 -75.5h-123z" />
<glyph unicode="&#x158;" horiz-adv-x="1448" d="M621 754h127q65 0 121.5 19t98 59.5t65.5 105t24 156.5q0 69 -12 116t-37 76.5t-63 42t-89 12.5h-104zM918 1462q245 0 366 -85t121 -257q0 -104 -33.5 -177t-86 -122.5t-117.5 -78.5t-128 -44l142 -381q21 -58 41 -98t42.5 -64.5t49 -35t61.5 -10.5h8l-22 -109h-21 q-107 0 -185.5 9t-134.5 34.5t-93 71t-60 118.5l-129 402h-141l-80 -375q-8 -37 -11 -55.5t-3 -26.5q0 -22 11 -35.5t31 -21t47.5 -10t59.5 -2.5h68l-23 -109h-745l22 109h27q32 0 62.5 4t55.5 17t43.5 37t26.5 64l209 983q13 53 13 70q0 22 -11 36t-30.5 21.5t-47 10 t-59.5 2.5h-26l22 108h658zM1280 1880q-30 -29 -68.5 -66.5t-78 -77.5t-77.5 -80.5t-67 -76.5h-276q-13 31 -33 71t-42.5 81.5t-44.5 80.5t-40 68l6 27h129q18 -17 41.5 -40t48.5 -48.5t49.5 -50.5t42.5 -46q28 21 62 46t68.5 50.5t67.5 48.5t58 40h160z" />
<glyph unicode="&#x159;" horiz-adv-x="1128" d="M262 918q0 38 -25 54.5t-83 16.5h-37l18 109h453l-43 -281h10q35 74 70.5 130t78 94t96.5 57.5t126 19.5q109 0 162 -41t53 -119q0 -106 -62 -158t-180 -52q0 46 -4.5 83.5t-16 64t-31 40.5t-48.5 14t-61 -23.5t-64 -64.5t-62.5 -97.5t-58.5 -123t-51 -139.5t-39 -148 l-78 -354h-309l174 823q3 17 7.5 45t4.5 50zM1076 1542q-30 -29 -68.5 -66.5t-78 -77.5t-77.5 -80.5t-67 -76.5h-276q-13 31 -33 71t-42.5 81.5t-44.5 80.5t-40 68l6 27h129q18 -17 41.5 -40t48.5 -48.5t49.5 -50.5t42.5 -46q28 21 62 46t68.5 50.5t67.5 48.5t58 40h160z " />
<glyph unicode="&#x15a;" horiz-adv-x="1200" d="M535 -20q-127 0 -222 23t-158 63t-94.5 94.5t-31.5 118.5q0 48 19.5 84t55 60t84 36t107.5 12q0 -94 20 -163t56 -114.5t86 -67.5t110 -22q58 0 103 16.5t76.5 45t48 67t16.5 82.5q0 43 -10.5 79t-38.5 70t-77 69t-126 77q-80 44 -140.5 90.5t-101 100.5t-61 118.5 t-20.5 145.5q0 92 37 169t106 132.5t167 86t220 30.5q114 0 199 -18t141.5 -49t84.5 -73t28 -90q0 -83 -63 -130.5t-206 -47.5q0 46 -9 96t-32 91.5t-62 68.5t-99 27q-41 0 -81.5 -13t-72.5 -39t-52 -65.5t-20 -93.5t17 -92t51 -70.5t85 -63t120 -67.5q155 -84 229 -185.5 t74 -232.5q0 -109 -39.5 -194t-113 -143t-177.5 -88.5t-233 -30.5zM707 1606q28 29 61 67t65.5 78.5t63 80.5t54.5 75h321l-6 -21q-16 -18 -44 -42.5t-63.5 -52.5t-76 -57.5t-82.5 -57.5t-83 -53.5t-77 -43.5h-139z" />
<glyph unicode="&#x15b;" horiz-adv-x="1053" d="M457 102q42 0 78 10.5t62 30t41 48t15 65.5q0 35 -13.5 62t-42 50.5t-72 46.5t-103.5 52q-60 28 -108.5 60t-82.5 71t-52.5 87t-18.5 108q0 75 32 135t92 102.5t145.5 65t193.5 22.5q103 0 174.5 -16t116 -42.5t64 -61.5t19.5 -72q0 -82 -63 -119t-172 -37q0 41 -8 82.5 t-27 75.5t-49 55t-74 21q-40 0 -71.5 -11.5t-54 -31t-34.5 -45.5t-12 -56q0 -34 13.5 -59t42 -47t72.5 -43.5t104 -48.5q66 -30 114 -63.5t79.5 -73t47 -86t15.5 -103.5q0 -83 -31.5 -149t-94.5 -112t-156 -70.5t-216 -24.5q-88 0 -159.5 15t-122 44t-78 71t-27.5 95 q0 48 19 81t49.5 53.5t70 30t80.5 9.5q0 -55 11 -105t35 -88.5t62.5 -61t94.5 -22.5zM559 1268q28 29 61 67t65.5 78.5t63 80.5t54.5 75h321l-6 -21q-16 -18 -44 -42.5t-63.5 -52.5t-76 -57.5t-82.5 -57.5t-83 -53.5t-77 -43.5h-139z" />
<glyph unicode="&#x15c;" horiz-adv-x="1200" d="M535 -20q-127 0 -222 23t-158 63t-94.5 94.5t-31.5 118.5q0 48 19.5 84t55 60t84 36t107.5 12q0 -94 20 -163t56 -114.5t86 -67.5t110 -22q58 0 103 16.5t76.5 45t48 67t16.5 82.5q0 43 -10.5 79t-38.5 70t-77 69t-126 77q-80 44 -140.5 90.5t-101 100.5t-61 118.5 t-20.5 145.5q0 92 37 169t106 132.5t167 86t220 30.5q114 0 199 -18t141.5 -49t84.5 -73t28 -90q0 -83 -63 -130.5t-206 -47.5q0 46 -9 96t-32 91.5t-62 68.5t-99 27q-41 0 -81.5 -13t-72.5 -39t-52 -65.5t-20 -93.5t17 -92t51 -70.5t85 -63t120 -67.5q155 -84 229 -185.5 t74 -232.5q0 -109 -39.5 -194t-113 -143t-177.5 -88.5t-233 -30.5zM432 1606q30 29 68 66.5t78 77.5t78 80.5t67 76.5h276q13 -32 33 -72t42.5 -81t44.5 -80t40 -68l-6 -27h-129q-18 17 -42 40t-49 48t-49.5 50t-42.5 46q-27 -21 -61 -46t-69 -50t-68 -48t-58 -40h-159z" />
<glyph unicode="&#x15d;" horiz-adv-x="1053" d="M457 102q42 0 78 10.5t62 30t41 48t15 65.5q0 35 -13.5 62t-42 50.5t-72 46.5t-103.5 52q-60 28 -108.5 60t-82.5 71t-52.5 87t-18.5 108q0 75 32 135t92 102.5t145.5 65t193.5 22.5q103 0 174.5 -16t116 -42.5t64 -61.5t19.5 -72q0 -82 -63 -119t-172 -37q0 41 -8 82.5 t-27 75.5t-49 55t-74 21q-40 0 -71.5 -11.5t-54 -31t-34.5 -45.5t-12 -56q0 -34 13.5 -59t42 -47t72.5 -43.5t104 -48.5q66 -30 114 -63.5t79.5 -73t47 -86t15.5 -103.5q0 -83 -31.5 -149t-94.5 -112t-156 -70.5t-216 -24.5q-88 0 -159.5 15t-122 44t-78 71t-27.5 95 q0 48 19 81t49.5 53.5t70 30t80.5 9.5q0 -55 11 -105t35 -88.5t62.5 -61t94.5 -22.5zM290 1268q30 29 68 66.5t78 77.5t78 80.5t67 76.5h276q13 -32 33 -72t42.5 -81t44.5 -80t40 -68l-6 -27h-129q-18 17 -42 40t-49 48t-49.5 50t-42.5 46q-27 -21 -61 -46t-69 -50t-68 -48 t-58 -40h-159z" />
<glyph unicode="&#x15e;" horiz-adv-x="1200" d="M535 -20q-127 0 -222 23t-158 63t-94.5 94.5t-31.5 118.5q0 48 19.5 84t55 60t84 36t107.5 12q0 -94 20 -163t56 -114.5t86 -67.5t110 -22q58 0 103 16.5t76.5 45t48 67t16.5 82.5q0 43 -10.5 79t-38.5 70t-77 69t-126 77q-80 44 -140.5 90.5t-101 100.5t-61 118.5 t-20.5 145.5q0 92 37 169t106 132.5t167 86t220 30.5q114 0 199 -18t141.5 -49t84.5 -73t28 -90q0 -83 -63 -130.5t-206 -47.5q0 46 -9 96t-32 91.5t-62 68.5t-99 27q-41 0 -81.5 -13t-72.5 -39t-52 -65.5t-20 -93.5t17 -92t51 -70.5t85 -63t120 -67.5q155 -84 229 -185.5 t74 -232.5q0 -109 -39.5 -194t-113 -143t-177.5 -88.5t-233 -30.5zM567 -70q41 -5 74.5 -20t57.5 -37.5t37 -51t13 -61.5q0 -66 -30.5 -113.5t-81.5 -78.5t-116.5 -45.5t-135.5 -14.5q-32 0 -75.5 7.5t-78.5 19.5l27 121q35 -8 70 -12t63 -4q31 0 59 6t48 18.5t32 32 t12 47.5q0 20 -10.5 36.5t-28.5 29t-43 19.5t-53 9l82 180h117z" />
<glyph unicode="&#x15f;" horiz-adv-x="1053" d="M457 102q42 0 78 10.5t62 30t41 48t15 65.5q0 35 -13.5 62t-42 50.5t-72 46.5t-103.5 52q-60 28 -108.5 60t-82.5 71t-52.5 87t-18.5 108q0 75 32 135t92 102.5t145.5 65t193.5 22.5q103 0 174.5 -16t116 -42.5t64 -61.5t19.5 -72q0 -82 -63 -119t-172 -37q0 41 -8 82.5 t-27 75.5t-49 55t-74 21q-40 0 -71.5 -11.5t-54 -31t-34.5 -45.5t-12 -56q0 -34 13.5 -59t42 -47t72.5 -43.5t104 -48.5q66 -30 114 -63.5t79.5 -73t47 -86t15.5 -103.5q0 -83 -31.5 -149t-94.5 -112t-156 -70.5t-216 -24.5q-88 0 -159.5 15t-122 44t-78 71t-27.5 95 q0 48 19 81t49.5 53.5t70 30t80.5 9.5q0 -55 11 -105t35 -88.5t62.5 -61t94.5 -22.5zM465 -70q41 -5 74.5 -20t57.5 -37.5t37 -51t13 -61.5q0 -66 -30.5 -113.5t-81.5 -78.5t-116.5 -45.5t-135.5 -14.5q-32 0 -75.5 7.5t-78.5 19.5l27 121q35 -8 70 -12t63 -4q31 0 59 6 t48 18.5t32 32t12 47.5q0 20 -10.5 36.5t-28.5 29t-43 19.5t-53 9l82 180h117z" />
<glyph unicode="&#x160;" horiz-adv-x="1200" d="M535 -20q-127 0 -222 23t-158 63t-94.5 94.5t-31.5 118.5q0 48 19.5 84t55 60t84 36t107.5 12q0 -94 20 -163t56 -114.5t86 -67.5t110 -22q58 0 103 16.5t76.5 45t48 67t16.5 82.5q0 43 -10.5 79t-38.5 70t-77 69t-126 77q-80 44 -140.5 90.5t-101 100.5t-61 118.5 t-20.5 145.5q0 92 37 169t106 132.5t167 86t220 30.5q114 0 199 -18t141.5 -49t84.5 -73t28 -90q0 -83 -63 -130.5t-206 -47.5q0 46 -9 96t-32 91.5t-62 68.5t-99 27q-41 0 -81.5 -13t-72.5 -39t-52 -65.5t-20 -93.5t17 -92t51 -70.5t85 -63t120 -67.5q155 -84 229 -185.5 t74 -232.5q0 -109 -39.5 -194t-113 -143t-177.5 -88.5t-233 -30.5zM1212 1880q-30 -29 -68.5 -66.5t-78 -77.5t-77.5 -80.5t-67 -76.5h-276q-13 31 -33 71t-42.5 81.5t-44.5 80.5t-40 68l6 27h129q18 -17 41.5 -40t48.5 -48.5t49.5 -50.5t42.5 -46q28 21 62 46t68.5 50.5 t67.5 48.5t58 40h160z" />
<glyph unicode="&#x161;" horiz-adv-x="1053" d="M457 102q42 0 78 10.5t62 30t41 48t15 65.5q0 35 -13.5 62t-42 50.5t-72 46.5t-103.5 52q-60 28 -108.5 60t-82.5 71t-52.5 87t-18.5 108q0 75 32 135t92 102.5t145.5 65t193.5 22.5q103 0 174.5 -16t116 -42.5t64 -61.5t19.5 -72q0 -82 -63 -119t-172 -37q0 41 -8 82.5 t-27 75.5t-49 55t-74 21q-40 0 -71.5 -11.5t-54 -31t-34.5 -45.5t-12 -56q0 -34 13.5 -59t42 -47t72.5 -43.5t104 -48.5q66 -30 114 -63.5t79.5 -73t47 -86t15.5 -103.5q0 -83 -31.5 -149t-94.5 -112t-156 -70.5t-216 -24.5q-88 0 -159.5 15t-122 44t-78 71t-27.5 95 q0 48 19 81t49.5 53.5t70 30t80.5 9.5q0 -55 11 -105t35 -88.5t62.5 -61t94.5 -22.5zM1052 1542q-30 -29 -68.5 -66.5t-78 -77.5t-77.5 -80.5t-67 -76.5h-276q-13 31 -33 71t-42.5 81.5t-44.5 80.5t-40 68l6 27h129q18 -17 41.5 -40t48.5 -48.5t49.5 -50.5t42.5 -46 q28 21 62 46t68.5 50.5t67.5 48.5t58 40h160z" />
<glyph unicode="&#x162;" horiz-adv-x="1337" d="M213 0l23 109h26q32 0 62.5 4t55.5 17t43.5 37t27.5 64l231 1106h-164q-48 0 -81.5 -12t-58 -35.5t-41.5 -57.5t-32 -79l-29 -88h-137l94 397h1274l-71 -397h-138q1 7 3.5 31.5t5.5 52.5t5.5 51.5t2.5 28.5q0 54 -32.5 81t-111.5 27h-163l-236 -1112q-2 -11 -5 -25 t-3 -22q0 -22 11 -35.5t31 -21t47.5 -10t59.5 -2.5h27l-22 -109h-705zM577 -70q41 -5 74.5 -20t57.5 -37.5t37 -51t13 -61.5q0 -66 -30.5 -113.5t-81.5 -78.5t-116.5 -45.5t-135.5 -14.5q-32 0 -75.5 7.5t-78.5 19.5l27 121q35 -8 70 -12t63 -4q31 0 59 6t48 18.5t32 32 t12 47.5q0 20 -10.5 36.5t-28.5 29t-43 19.5t-53 9l82 180h117z" />
<glyph unicode="&#x163;" horiz-adv-x="854" d="M553 147q48 0 87 16t73 38l47 -78q-34 -29 -71.5 -55t-81.5 -45.5t-94.5 -31t-109.5 -11.5q-56 0 -104.5 14.5t-84.5 44t-56.5 74.5t-20.5 106q0 18 1.5 40t4.5 45t7 45.5t8 41.5l123 567h-158l22 105q44 0 96 15t106.5 49t109 89t102.5 134h119l-53 -252h247l-28 -140 h-250l-123 -561q-11 -45 -15.5 -81.5t-4.5 -65.5q0 -51 28 -77t74 -26zM377 -70q41 -5 74.5 -20t57.5 -37.5t37 -51t13 -61.5q0 -66 -30.5 -113.5t-81.5 -78.5t-116.5 -45.5t-135.5 -14.5q-32 0 -75.5 7.5t-78.5 19.5l27 121q35 -8 70 -12t63 -4q31 0 59 6t48 18.5t32 32 t12 47.5q0 20 -10.5 36.5t-28.5 29t-43 19.5t-53 9l82 180h117z" />
<glyph unicode="&#x164;" horiz-adv-x="1337" d="M213 0l23 109h26q32 0 62.5 4t55.5 17t43.5 37t27.5 64l231 1106h-164q-48 0 -81.5 -12t-58 -35.5t-41.5 -57.5t-32 -79l-29 -88h-137l94 397h1274l-71 -397h-138q1 7 3.5 31.5t5.5 52.5t5.5 51.5t2.5 28.5q0 54 -32.5 81t-111.5 27h-163l-236 -1112q-2 -11 -5 -25 t-3 -22q0 -22 11 -35.5t31 -21t47.5 -10t59.5 -2.5h27l-22 -109h-705zM1294 1880q-30 -29 -68.5 -66.5t-78 -77.5t-77.5 -80.5t-67 -76.5h-276q-13 31 -33 71t-42.5 81.5t-44.5 80.5t-40 68l6 27h129q18 -17 41.5 -40t48.5 -48.5t49.5 -50.5t42.5 -46q28 21 62 46t68.5 50.5 t67.5 48.5t58 40h160z" />
<glyph unicode="&#x165;" horiz-adv-x="854" d="M521 147q48 0 87 16t73 38l47 -78q-34 -29 -71.5 -55t-81.5 -45.5t-94.5 -31t-109.5 -11.5q-56 0 -104.5 14.5t-84.5 44t-56.5 74.5t-20.5 106q0 18 1.5 40t4.5 45t7 45.5t8 41.5l123 567h-158l22 105q44 0 96 15t106.5 49t109 89t102.5 134h119l-53 -252h247l-28 -140 h-250l-123 -561q-11 -45 -15.5 -81.5t-4.5 -65.5q0 -51 28 -77t74 -26zM741 1255q34 72 67 149.5t58 151.5h258l-6 -20q-21 -32 -50.5 -71t-64 -80t-72 -81.5t-73.5 -74.5h-123z" />
<glyph unicode="&#x166;" horiz-adv-x="1337" d="M213 0l23 109h26q32 0 62.5 4t55.5 17t43.5 37t27.5 64l92 443h-297l22 108h297l117 555h-164q-48 0 -81.5 -12t-58 -35.5t-41.5 -57.5t-32 -79l-29 -88h-137l94 397h1274l-71 -397h-138q1 7 3.5 31.5t5.5 52.5t5.5 51.5t2.5 28.5q0 54 -32.5 81t-111.5 27h-163 l-119 -555h295l-23 -108h-295l-94 -449q-2 -11 -5 -25t-3 -22q0 -22 11 -35.5t31 -21t47.5 -10t59.5 -2.5h27l-22 -109h-705z" />
<glyph unicode="&#x167;" horiz-adv-x="854" d="M553 147q48 0 87 16t73 38l47 -78q-34 -29 -71.5 -55t-81.5 -45.5t-94.5 -31t-109.5 -11.5q-56 0 -104.5 14.5t-84.5 44t-56.5 74.5t-20.5 106q0 18 1.5 40t4.5 45t7 45.5t8 41.5l39 184h-140l23 109h141l60 274h-158l22 105q44 0 96 15t106.5 49t109 89t102.5 134h119 l-53 -252h247l-28 -140h-250l-62 -274h230l-23 -109h-229l-39 -178q-11 -45 -15.5 -81.5t-4.5 -65.5q0 -51 28 -77t74 -26z" />
<glyph unicode="&#x168;" horiz-adv-x="1530" d="M772 125q93 0 157 27t107 74.5t69 113t42 143.5l158 740q3 17 5.5 35t2.5 26q0 22 -11 36t-30.5 21.5t-47 10t-59.5 2.5h-26l22 108h539l-23 -108h-26q-33 0 -64 -4.5t-57 -17.5t-44.5 -38t-27.5 -65l-164 -778q-24 -115 -71.5 -203t-121 -147.5t-173.5 -90t-230 -30.5 q-120 0 -212 23.5t-155 69t-95.5 111.5t-32.5 150q0 16 2 40t5 49.5t7 50t8 42.5l150 698q12 55 12 70q0 22 -11 36t-30.5 21.5t-46.5 10t-59 2.5h-27l23 108h708l-22 -108h-27q-34 0 -65.5 -4.5t-57.5 -17t-44.5 -36.5t-27.5 -63l-155 -721q-4 -18 -8.5 -40t-8 -45.5 t-6 -47.5t-2.5 -45q0 -103 64 -156t188 -53zM1249 1774q26 0 45 9t32.5 24t22 34.5t13.5 40.5h123q-11 -49 -33.5 -102.5t-56 -98t-78 -73.5t-99.5 -29t-99 20t-81 44.5t-69.5 44.5t-65.5 20q-21 0 -40 -9t-34 -24t-25 -34.5t-14 -40.5h-122q9 46 32.5 99.5t59.5 98.5 t82.5 75t101.5 30q54 0 96.5 -20t78 -44.5t67 -44.5t63.5 -20z" />
<glyph unicode="&#x169;" horiz-adv-x="1378" d="M793 176q0 9 1 21t2.5 25t3 24.5t3.5 19.5h-17q-45 -64 -88.5 -116t-92.5 -89.5t-106 -58t-130 -20.5q-66 0 -111 18.5t-72 49.5t-39 72.5t-12 86.5q0 51 12 112t23 113l74 361q8 42 13 76t5 51q0 41 -25 54t-83 13h-37l18 109h492l-135 -613q-6 -24 -12 -54t-11 -60 t-8.5 -57t-3.5 -46q0 -45 19 -71.5t69 -26.5q45 0 92.5 40.5t91 105t77.5 144t52 156.5l109 482h305l-139 -666q-13 -56 -21 -104.5t-8 -91.5q0 -45 18.5 -69t53.5 -24q32 0 58.5 12t61.5 35l50 -69q-25 -26 -56 -51.5t-69.5 -45.5t-85.5 -32t-103 -12q-68 0 -113.5 15.5 t-73.5 42t-40 62t-12 76.5zM1003 1436q26 0 45 9t32.5 24t22 34.5t13.5 40.5h123q-11 -49 -33.5 -102.5t-56 -98t-78 -73.5t-99.5 -29t-99 20t-81 44.5t-69.5 44.5t-65.5 20q-21 0 -40 -9t-34 -24t-25 -34.5t-14 -40.5h-122q9 46 32.5 99.5t59.5 98.5t82.5 75t101.5 30 q54 0 96.5 -20t78 -44.5t67 -44.5t63.5 -20z" />
<glyph unicode="&#x16a;" horiz-adv-x="1530" d="M772 125q93 0 157 27t107 74.5t69 113t42 143.5l158 740q3 17 5.5 35t2.5 26q0 22 -11 36t-30.5 21.5t-47 10t-59.5 2.5h-26l22 108h539l-23 -108h-26q-33 0 -64 -4.5t-57 -17.5t-44.5 -38t-27.5 -65l-164 -778q-24 -115 -71.5 -203t-121 -147.5t-173.5 -90t-230 -30.5 q-120 0 -212 23.5t-155 69t-95.5 111.5t-32.5 150q0 16 2 40t5 49.5t7 50t8 42.5l150 698q12 55 12 70q0 22 -11 36t-30.5 21.5t-46.5 10t-59 2.5h-27l23 108h708l-22 -108h-27q-34 0 -65.5 -4.5t-57.5 -17t-44.5 -36.5t-27.5 -63l-155 -721q-4 -18 -8.5 -40t-8 -45.5 t-6 -47.5t-2.5 -45q0 -103 64 -156t188 -53zM1287 1579h-594l34 162h594z" />
<glyph unicode="&#x16b;" horiz-adv-x="1378" d="M793 176q0 9 1 21t2.5 25t3 24.5t3.5 19.5h-17q-45 -64 -88.5 -116t-92.5 -89.5t-106 -58t-130 -20.5q-66 0 -111 18.5t-72 49.5t-39 72.5t-12 86.5q0 51 12 112t23 113l74 361q8 42 13 76t5 51q0 41 -25 54t-83 13h-37l18 109h492l-135 -613q-6 -24 -12 -54t-11 -60 t-8.5 -57t-3.5 -46q0 -45 19 -71.5t69 -26.5q45 0 92.5 40.5t91 105t77.5 144t52 156.5l109 482h305l-139 -666q-13 -56 -21 -104.5t-8 -91.5q0 -45 18.5 -69t53.5 -24q32 0 58.5 12t61.5 35l50 -69q-25 -26 -56 -51.5t-69.5 -45.5t-85.5 -32t-103 -12q-68 0 -113.5 15.5 t-73.5 42t-40 62t-12 76.5zM1090 1241h-594l34 162h594z" />
<glyph unicode="&#x16c;" horiz-adv-x="1530" d="M772 125q93 0 157 27t107 74.5t69 113t42 143.5l158 740q3 17 5.5 35t2.5 26q0 22 -11 36t-30.5 21.5t-47 10t-59.5 2.5h-26l22 108h539l-23 -108h-26q-33 0 -64 -4.5t-57 -17.5t-44.5 -38t-27.5 -65l-164 -778q-24 -115 -71.5 -203t-121 -147.5t-173.5 -90t-230 -30.5 q-120 0 -212 23.5t-155 69t-95.5 111.5t-32.5 150q0 16 2 40t5 49.5t7 50t8 42.5l150 698q12 55 12 70q0 22 -11 36t-30.5 21.5t-46.5 10t-59 2.5h-27l23 108h708l-22 -108h-27q-34 0 -65.5 -4.5t-57.5 -17t-44.5 -36.5t-27.5 -63l-155 -721q-4 -18 -8.5 -40t-8 -45.5 t-6 -47.5t-2.5 -45q0 -103 64 -156t188 -53zM1011 1579q-68 0 -119 23t-86 65.5t-55 102t-24 131.5h135q8 -72 54 -106t118 -34q74 0 129 32.5t86 107.5h127q-15 -59 -46.5 -117t-77.5 -103.5t-106.5 -73.5t-134.5 -28z" />
<glyph unicode="&#x16d;" horiz-adv-x="1378" d="M793 176q0 9 1 21t2.5 25t3 24.5t3.5 19.5h-17q-45 -64 -88.5 -116t-92.5 -89.5t-106 -58t-130 -20.5q-66 0 -111 18.5t-72 49.5t-39 72.5t-12 86.5q0 51 12 112t23 113l74 361q8 42 13 76t5 51q0 41 -25 54t-83 13h-37l18 109h492l-135 -613q-6 -24 -12 -54t-11 -60 t-8.5 -57t-3.5 -46q0 -45 19 -71.5t69 -26.5q45 0 92.5 40.5t91 105t77.5 144t52 156.5l109 482h305l-139 -666q-13 -56 -21 -104.5t-8 -91.5q0 -45 18.5 -69t53.5 -24q32 0 58.5 12t61.5 35l50 -69q-25 -26 -56 -51.5t-69.5 -45.5t-85.5 -32t-103 -12q-68 0 -113.5 15.5 t-73.5 42t-40 62t-12 76.5zM784 1241q-68 0 -119 23t-86 65.5t-55 102t-24 131.5h135q8 -72 54 -106t118 -34q74 0 129 32.5t86 107.5h127q-15 -59 -46.5 -117t-77.5 -103.5t-106.5 -73.5t-134.5 -28z" />
<glyph unicode="&#x16e;" horiz-adv-x="1530" d="M772 125q93 0 157 27t107 74.5t69 113t42 143.5l158 740q3 17 5.5 35t2.5 26q0 22 -11 36t-30.5 21.5t-47 10t-59.5 2.5h-26l22 108h539l-23 -108h-26q-33 0 -64 -4.5t-57 -17.5t-44.5 -38t-27.5 -65l-164 -778q-24 -115 -71.5 -203t-121 -147.5t-173.5 -90t-230 -30.5 q-120 0 -212 23.5t-155 69t-95.5 111.5t-32.5 150q0 16 2 40t5 49.5t7 50t8 42.5l150 698q12 55 12 70q0 22 -11 36t-30.5 21.5t-46.5 10t-59 2.5h-27l23 108h708l-22 -108h-27q-34 0 -65.5 -4.5t-57.5 -17t-44.5 -36.5t-27.5 -63l-155 -721q-4 -18 -8.5 -40t-8 -45.5 t-6 -47.5t-2.5 -45q0 -103 64 -156t188 -53zM1250 1770q0 -55 -19 -96.5t-52.5 -70t-78.5 -43t-96 -14.5t-96 14.5t-78.5 43t-52.5 70t-19 96.5q0 54 19 96t52.5 70t78.5 42.5t96 14.5t96 -14.5t78.5 -42.5t52.5 -70t19 -96zM1125 1770q0 30 -10 50.5t-26.5 34t-38.5 19.5 t-46 6q-25 0 -47 -6t-38.5 -19.5t-26 -34t-9.5 -50.5t9.5 -51t26 -34.5t38.5 -19.5t47 -6q24 0 46 6t38.5 19.5t26.5 34.5t10 51z" />
<glyph unicode="&#x16f;" horiz-adv-x="1378" d="M793 176q0 9 1 21t2.5 25t3 24.5t3.5 19.5h-17q-45 -64 -88.5 -116t-92.5 -89.5t-106 -58t-130 -20.5q-66 0 -111 18.5t-72 49.5t-39 72.5t-12 86.5q0 51 12 112t23 113l74 361q8 42 13 76t5 51q0 41 -25 54t-83 13h-37l18 109h492l-135 -613q-6 -24 -12 -54t-11 -60 t-8.5 -57t-3.5 -46q0 -45 19 -71.5t69 -26.5q45 0 92.5 40.5t91 105t77.5 144t52 156.5l109 482h305l-139 -666q-13 -56 -21 -104.5t-8 -91.5q0 -45 18.5 -69t53.5 -24q32 0 58.5 12t61.5 35l50 -69q-25 -26 -56 -51.5t-69.5 -45.5t-85.5 -32t-103 -12q-68 0 -113.5 15.5 t-73.5 42t-40 62t-12 76.5zM1026 1432q0 -55 -19 -96.5t-52.5 -70t-78.5 -43t-96 -14.5t-96 14.5t-78.5 43t-52.5 70t-19 96.5q0 54 19 96t52.5 70t78.5 42.5t96 14.5t96 -14.5t78.5 -42.5t52.5 -70t19 -96zM901 1432q0 30 -10 50.5t-26.5 34t-38.5 19.5t-46 6q-25 0 -47 -6 t-38.5 -19.5t-26 -34t-9.5 -50.5t9.5 -51t26 -34.5t38.5 -19.5t47 -6q24 0 46 6t38.5 19.5t26.5 34.5t10 51z" />
<glyph unicode="&#x170;" horiz-adv-x="1530" d="M772 125q93 0 157 27t107 74.5t69 113t42 143.5l158 740q3 17 5.5 35t2.5 26q0 22 -11 36t-30.5 21.5t-47 10t-59.5 2.5h-26l22 108h539l-23 -108h-26q-33 0 -64 -4.5t-57 -17.5t-44.5 -38t-27.5 -65l-164 -778q-24 -115 -71.5 -203t-121 -147.5t-173.5 -90t-230 -30.5 q-120 0 -212 23.5t-155 69t-95.5 111.5t-32.5 150q0 16 2 40t5 49.5t7 50t8 42.5l150 698q12 55 12 70q0 22 -11 36t-30.5 21.5t-46.5 10t-59 2.5h-27l23 108h708l-22 -108h-27q-34 0 -65.5 -4.5t-57.5 -17t-44.5 -36.5t-27.5 -63l-155 -721q-4 -18 -8.5 -40t-8 -45.5 t-6 -47.5t-2.5 -45q0 -103 64 -156t188 -53zM1085 1579l6 27q28 33 57.5 70t57.5 76t54.5 78.5t49.5 76.5h261l-7 -21q-21 -27 -63 -67.5t-91.5 -84.5t-101 -85.5t-92.5 -69.5h-131zM696 1579l6 27q28 33 57.5 70t57.5 76t54.5 78.5t49.5 76.5h260l-6 -21q-21 -27 -63 -67.5 t-91.5 -84.5t-101 -85.5t-92.5 -69.5h-131z" />
<glyph unicode="&#x171;" horiz-adv-x="1378" d="M793 176q0 9 1 21t2.5 25t3 24.5t3.5 19.5h-17q-45 -64 -88.5 -116t-92.5 -89.5t-106 -58t-130 -20.5q-66 0 -111 18.5t-72 49.5t-39 72.5t-12 86.5q0 51 12 112t23 113l74 361q8 42 13 76t5 51q0 41 -25 54t-83 13h-37l18 109h492l-135 -613q-6 -24 -12 -54t-11 -60 t-8.5 -57t-3.5 -46q0 -45 19 -71.5t69 -26.5q45 0 92.5 40.5t91 105t77.5 144t52 156.5l109 482h305l-139 -666q-13 -56 -21 -104.5t-8 -91.5q0 -45 18.5 -69t53.5 -24q32 0 58.5 12t61.5 35l50 -69q-25 -26 -56 -51.5t-69.5 -45.5t-85.5 -32t-103 -12q-68 0 -113.5 15.5 t-73.5 42t-40 62t-12 76.5zM856 1241l6 27q28 33 57.5 70t57.5 76t54.5 78.5t49.5 76.5h261l-7 -21q-21 -27 -63 -67.5t-91.5 -84.5t-101 -85.5t-92.5 -69.5h-131zM467 1241l6 27q28 33 57.5 70t57.5 76t54.5 78.5t49.5 76.5h260l-6 -21q-21 -27 -63 -67.5t-91.5 -84.5 t-101 -85.5t-92.5 -69.5h-131z" />
<glyph unicode="&#x172;" horiz-adv-x="1530" d="M772 125q93 0 157 27t107 74.5t69 113t42 143.5l158 740q3 17 5.5 35t2.5 26q0 22 -11 36t-30.5 21.5t-47 10t-59.5 2.5h-26l22 108h539l-23 -108h-26q-33 0 -64 -4.5t-57 -17.5t-44.5 -38t-27.5 -65l-164 -778q-24 -115 -71.5 -203t-121 -147.5t-173.5 -90t-230 -30.5 q-120 0 -212 23.5t-155 69t-95.5 111.5t-32.5 150q0 16 2 40t5 49.5t7 50t8 42.5l150 698q12 55 12 70q0 22 -11 36t-30.5 21.5t-46.5 10t-59 2.5h-27l23 108h708l-22 -108h-27q-34 0 -65.5 -4.5t-57.5 -17t-44.5 -36.5t-27.5 -63l-155 -721q-4 -18 -8.5 -40t-8 -45.5 t-6 -47.5t-2.5 -45q0 -103 64 -156t188 -53zM684 -492q-124 0 -193 53.5t-69 155.5q0 55 22.5 100.5t62.5 81t95.5 61t122.5 40.5h158q-35 -10 -77.5 -30t-79.5 -50t-62 -70t-25 -90q0 -48 32 -76t85 -28q28 0 61.5 4t71.5 12l-27 -131q-38 -15 -84 -24t-94 -9z" />
<glyph unicode="&#x173;" horiz-adv-x="1378" d="M793 176q0 9 1 21t2.5 25t3 24.5t3.5 19.5h-17q-45 -64 -88.5 -116t-92.5 -89.5t-106 -58t-130 -20.5q-66 0 -111 18.5t-72 49.5t-39 72.5t-12 86.5q0 51 12 112t23 113l74 361q8 42 13 76t5 51q0 41 -25 54t-83 13h-37l18 109h492l-135 -613q-6 -24 -12 -54t-11 -60 t-8.5 -57t-3.5 -46q0 -45 19 -71.5t69 -26.5q45 0 92.5 40.5t91 105t77.5 144t52 156.5l109 482h305l-139 -666q-13 -56 -21 -104.5t-8 -91.5q0 -45 18.5 -69t53.5 -24q32 0 58.5 12t61.5 35l50 -69q-25 -26 -56 -51.5t-69.5 -45.5t-85.5 -32t-103 -12q-68 0 -113.5 15.5 t-73.5 42t-40 62t-12 76.5zM962 -492q-124 0 -193 53.5t-69 155.5q0 55 22.5 100.5t62.5 81t95.5 61t122.5 40.5h158q-35 -10 -77.5 -30t-79.5 -50t-62 -70t-25 -90q0 -48 32 -76t85 -28q28 0 61.5 4t71.5 12l-27 -131q-38 -15 -84 -24t-94 -9z" />
<glyph unicode="&#x174;" horiz-adv-x="2185" d="M2367 1354h-49q-30 0 -53 -6t-42.5 -22.5t-39 -46t-41.5 -75.5l-573 -1204h-234l-141 977l-498 -977h-254l-110 1255q-3 31 -14 50.5t-28.5 30.5t-39.5 14.5t-47 3.5h-27l23 108h669l-22 -108h-47q-66 0 -105 -16.5t-39 -65.5q0 -17 1 -39t3 -51l39 -510q3 -27 6 -71.5 t5.5 -93.5t4 -96.5t1.5 -80.5q21 60 49 120.5t59 120.5l457 877h150l116 -782q14 -97 24.5 -185.5t10.5 -154.5q12 34 29 79t37.5 95.5t43.5 102.5t46 102l227 489q14 29 22.5 58t8.5 51q0 30 -27 40.5t-86 10.5h-47l20 108h535zM977 1606q30 29 68 66.5t78 77.5t78 80.5 t67 76.5h276q13 -32 33 -72t42.5 -81t44.5 -80t40 -68l-6 -27h-129q-18 17 -42 40t-49 48t-49.5 50t-42.5 46q-27 -21 -61 -46t-69 -50t-68 -48t-58 -40h-159z" />
<glyph unicode="&#x175;" horiz-adv-x="1792" d="M1745 944q0 -106 -45 -224t-120 -240.5t-172 -244t-200 -233.5l-250 -22q0 63 -1.5 136.5t-3 151.5l-3 156t-3.5 149t-4 131t-3 103q-80 -190 -183 -394.5t-239 -406.5l-268 -18l-21 852q-1 47 -12 76t-29.5 45.5t-44 22t-55.5 5.5h-12l33 109h395q6 -102 11 -203.5 t8 -190t5 -159t2 -111.5q0 -78 -1 -125.5t-1 -52.5h15q51 81 102 177t101 202t98 218.5t92 225.5l250 8q6 -51 11.5 -125t10.5 -158t9.5 -172t8 -166.5t5.5 -142t2 -98.5h14q90 111 149 200.5t93.5 163.5t48.5 134t14 111q0 30 -9 54t-23 41.5t-32.5 28t-37.5 15.5 q3 39 16.5 66.5t34 45t46.5 25.5t55 8q68 0 105.5 -45t37.5 -129zM684 1268q30 29 68 66.5t78 77.5t78 80.5t67 76.5h276q13 -32 33 -72t42.5 -81t44.5 -80t40 -68l-6 -27h-129q-18 17 -42 40t-49 48t-49.5 50t-42.5 46q-27 -21 -61 -46t-69 -50t-68 -48t-58 -40h-159z" />
<glyph unicode="&#x176;" horiz-adv-x="1419" d="M227 0l23 109h55q32 0 62 4.5t55 18t43 37.5t27 64l59 285l-221 727q-9 30 -18.5 51t-22.5 33.5t-32.5 18.5t-49.5 6h-27l23 108h665l-22 -108h-92q-47 0 -66.5 -16t-19.5 -44q0 -18 6 -52t18 -81l74 -289q7 -30 15 -64t14.5 -68t11 -66.5t6.5 -57.5q19 41 58 104t92 138 l202 289q25 35 43.5 76t18.5 75q0 28 -28.5 42t-96.5 14h-43l24 108h537l-23 -108h-38q-23 0 -42.5 -6t-39.5 -21.5t-42.5 -41t-50.5 -64.5l-507 -705l-62 -291q-2 -11 -5 -25t-3 -22q0 -22 11 -35.5t31 -21t47.5 -10t59.5 -2.5h50l-23 -109h-756zM561 1606q30 29 68 66.5 t78 77.5t78 80.5t67 76.5h276q13 -32 33 -72t42.5 -81t44.5 -80t40 -68l-6 -27h-129q-18 17 -42 40t-49 48t-49.5 50t-42.5 46q-27 -21 -61 -46t-69 -50t-68 -48t-58 -40h-159z" />
<glyph unicode="&#x177;" horiz-adv-x="1200" d="M160 881q-17 61 -49.5 84.5t-92.5 23.5h-20l25 109h401l135 -531q10 -40 21 -93.5t21 -107t17 -100t9 -71.5h6q61 82 115 165t94.5 161.5t64 149.5t23.5 130q0 69 -33.5 105t-93.5 36q0 40 12.5 72.5t34.5 55.5t52 35.5t65 12.5q83 0 125.5 -46t42.5 -128q0 -80 -27 -169 t-77 -189t-121.5 -212t-161.5 -237q-74 -104 -139 -191t-127.5 -157t-127 -122.5t-137 -88t-158 -53t-190.5 -17.5q-59 0 -114.5 10t-98.5 27l31 115q24 -8 67.5 -17.5t106.5 -9.5q94 0 172 25t144.5 67.5t125 99.5t113.5 122zM315 1268q30 29 68 66.5t78 77.5t78 80.5 t67 76.5h276q13 -32 33 -72t42.5 -81t44.5 -80t40 -68l-6 -27h-129q-18 17 -42 40t-49 48t-49.5 50t-42.5 46q-27 -21 -61 -46t-69 -50t-68 -48t-58 -40h-159z" />
<glyph unicode="&#x178;" horiz-adv-x="1419" d="M227 0l23 109h55q32 0 62 4.5t55 18t43 37.5t27 64l59 285l-221 727q-9 30 -18.5 51t-22.5 33.5t-32.5 18.5t-49.5 6h-27l23 108h665l-22 -108h-92q-47 0 -66.5 -16t-19.5 -44q0 -18 6 -52t18 -81l74 -289q7 -30 15 -64t14.5 -68t11 -66.5t6.5 -57.5q19 41 58 104t92 138 l202 289q25 35 43.5 76t18.5 75q0 28 -28.5 42t-96.5 14h-43l24 108h537l-23 -108h-38q-23 0 -42.5 -6t-39.5 -21.5t-42.5 -41t-50.5 -64.5l-507 -705l-62 -291q-2 -11 -5 -25t-3 -22q0 -22 11 -35.5t31 -21t47.5 -10t59.5 -2.5h50l-23 -109h-756zM919 1755q0 -40 -11 -67 t-28 -44t-39 -24.5t-44 -7.5q-51 0 -82 27.5t-31 84.5q0 66 33 105t90 39q49 0 80.5 -28t31.5 -85zM1347 1755q0 -40 -11 -67t-28 -44t-39 -24.5t-44 -7.5q-51 0 -82 27.5t-31 84.5q0 66 33 105t90 39q49 0 80.5 -28t31.5 -85z" />
<glyph unicode="&#x179;" horiz-adv-x="1364" d="M1423 1358l-1011 -1233h422q46 0 87 12t75 38t61 68.5t45 104.5l22 74h148l-98 -422h-1178l18 102l1010 1235h-356q-93 0 -149.5 -42t-82.5 -136l-35 -119h-147l100 422h1090zM770 1606q28 29 61 67t65.5 78.5t63 80.5t54.5 75h321l-6 -21q-16 -18 -44 -42.5t-63.5 -52.5 t-76 -57.5t-82.5 -57.5t-83 -53.5t-77 -43.5h-139z" />
<glyph unicode="&#x17a;" horiz-adv-x="1143" d="M715 139q35 0 62 16.5t47.5 43t36.5 59.5t30 66l20 47h119l-88 -371h-942l23 104l684 854h-261q-41 0 -69 -13.5t-49.5 -37.5t-39 -58t-36.5 -75l-4 -8h-125l90 332h879l-23 -107l-686 -852h332zM545 1268q28 29 61 67t65.5 78.5t63 80.5t54.5 75h321l-6 -21 q-16 -18 -44 -42.5t-63.5 -52.5t-76 -57.5t-82.5 -57.5t-83 -53.5t-77 -43.5h-139z" />
<glyph unicode="&#x17b;" horiz-adv-x="1364" d="M1423 1358l-1011 -1233h422q46 0 87 12t75 38t61 68.5t45 104.5l22 74h148l-98 -422h-1178l18 102l1010 1235h-356q-93 0 -149.5 -42t-82.5 -136l-35 -119h-147l100 422h1090zM913 1620q-34 0 -63 7.5t-50.5 23.5t-34 40t-12.5 56q0 45 15.5 76.5t41.5 52t61 30t73 9.5 q33 0 62.5 -7t52 -23t36 -40.5t13.5 -58.5q0 -42 -16.5 -73.5t-44 -52t-62.5 -30.5t-72 -10z" />
<glyph unicode="&#x17c;" horiz-adv-x="1143" d="M715 139q35 0 62 16.5t47.5 43t36.5 59.5t30 66l20 47h119l-88 -371h-942l23 104l684 854h-261q-41 0 -69 -13.5t-49.5 -37.5t-39 -58t-36.5 -75l-4 -8h-125l90 332h879l-23 -107l-686 -852h332zM684 1282q-34 0 -63 7.5t-50.5 23.5t-34 40t-12.5 56q0 45 15.5 76.5 t41.5 52t61 30t73 9.5q33 0 62.5 -7t52 -23t36 -40.5t13.5 -58.5q0 -42 -16.5 -73.5t-44 -52t-62.5 -30.5t-72 -10z" />
<glyph unicode="&#x17d;" horiz-adv-x="1364" d="M1423 1358l-1011 -1233h422q46 0 87 12t75 38t61 68.5t45 104.5l22 74h148l-98 -422h-1178l18 102l1010 1235h-356q-93 0 -149.5 -42t-82.5 -136l-35 -119h-147l100 422h1090zM1333 1880q-30 -29 -68.5 -66.5t-78 -77.5t-77.5 -80.5t-67 -76.5h-276q-13 31 -33 71 t-42.5 81.5t-44.5 80.5t-40 68l6 27h129q18 -17 41.5 -40t48.5 -48.5t49.5 -50.5t42.5 -46q28 21 62 46t68.5 50.5t67.5 48.5t58 40h160z" />
<glyph unicode="&#x17e;" horiz-adv-x="1143" d="M715 139q35 0 62 16.5t47.5 43t36.5 59.5t30 66l20 47h119l-88 -371h-942l23 104l684 854h-261q-41 0 -69 -13.5t-49.5 -37.5t-39 -58t-36.5 -75l-4 -8h-125l90 332h879l-23 -107l-686 -852h332zM1097 1542q-30 -29 -68.5 -66.5t-78 -77.5t-77.5 -80.5t-67 -76.5h-276 q-13 31 -33 71t-42.5 81.5t-44.5 80.5t-40 68l6 27h129q18 -17 41.5 -40t48.5 -48.5t49.5 -50.5t42.5 -46q28 21 62 46t68.5 50.5t67.5 48.5t58 40h160z" />
<glyph unicode="&#x17f;" horiz-adv-x="827" d="M1153 1399q0 -68 -60 -106t-175 -38q0 39 -4.5 75.5t-15.5 64.5t-29 44.5t-46 16.5q-32 0 -56 -14t-42 -42t-31.5 -71t-25.5 -100l-252 -1186q-23 -109 -59.5 -191t-82 -141.5t-98.5 -98.5t-109 -62t-114 -32.5t-113 -9.5q-15 0 -33 1.5t-35 4t-32 5.5t-25 6l25 119 q17 -5 44 -10t50 -5q50 0 88.5 17t69 57.5t55 108.5t45.5 170l254 1192q43 204 160.5 303.5t324.5 99.5q79 0 139.5 -14t101 -38t61 -56.5t20.5 -69.5z" />
<glyph unicode="&#x192;" d="M965 772h-260l-154 -729q-23 -109 -59 -191t-81.5 -141.5t-98.5 -98.5t-109.5 -62t-114.5 -32.5t-113 -9.5q-15 0 -33 1.5t-35 4t-32 5.5t-25 6l25 119q17 -5 44 -10t50 -5q50 0 88.5 17t69 57.5t55 108.5t45.5 170l166 790h-186l29 139h188l33 166q40 206 158.5 305 t326.5 99q79 0 139.5 -14t101 -38t61 -56.5t20.5 -69.5q0 -69 -60 -106.5t-176 -37.5q0 39 -4.5 75.5t-15 64.5t-28.5 44.5t-46 16.5q-65 0 -99.5 -56t-56.5 -171l-43 -222h258z" />
<glyph unicode="&#x1a0;" horiz-adv-x="1726" d="M1536 1133q158 62 158 143q0 25 -35 72q-37 47 -37 94q0 62 41 98.5t106 36.5q138 0 138 -143q0 -260 -351 -387q11 -64 11 -125q0 -349 -242 -647t-625 -298q-258 0 -414.5 153.5t-156.5 414.5q0 351 244.5 645.5t627.5 294.5q197 0 339 -92t196 -260zM741 113 q217 0 355.5 272t138.5 584q0 183 -72.5 283t-204.5 100q-217 0 -356 -271.5t-139 -584.5q0 -186 74.5 -284.5t203.5 -98.5z" />
<glyph unicode="&#x1a1;" horiz-adv-x="1372" d="M1155 862q109 52 109 123q0 25 -35 72q-37 47 -37 94q0 62 41 98.5t106 36.5q138 0 138 -143q0 -240 -301 -367q6 -42 6 -88q0 -275 -182.5 -491.5t-483.5 -216.5q-205 0 -319.5 113.5t-114.5 316.5q0 274 183.5 491t488.5 217q315 0 401 -256zM870 754q0 227 -155 227 q-135 0 -227.5 -202t-92.5 -419q0 -233 158 -233q138 0 227.5 203t89.5 424z" />
<glyph unicode="&#x1af;" horiz-adv-x="1747" d="M1139 1354l22 108h346l-73 -352q126 16 197 62.5t71 103.5q0 25 -35 72q-37 47 -37 94q0 62 41.5 98.5t106.5 36.5q137 0 137 -143q0 -165 -130 -275t-372 -139l-119 -569q-99 -471 -596 -471q-240 0 -367.5 93t-127.5 261q0 83 22 182l150 698q12 56 12 70q0 70 -147 70 h-27l23 108h708l-22 -108h-27q-167 0 -195 -121l-155 -721q-25 -116 -25 -178q0 -209 252 -209q154 0 244.5 81.5t130.5 276.5l158 740q8 37 8 61q0 70 -148 70h-26z" />
<glyph unicode="&#x1b0;" horiz-adv-x="1593" d="M803 266h-17q-114 -164 -206 -224t-211 -60q-234 0 -234 227q0 60 35 225l74 361q18 88 18 127q0 41 -25 54t-83 13h-37l18 109h492l-135 -613q-35 -159 -35 -217q0 -98 88 -98q83 0 178 138.5t135 307.5l109 482h305l-60 -279q129 16 199 63.5t70 102.5q0 25 -35 72 q-37 47 -37 94q0 62 41 98.5t106 36.5q138 0 138 -143q0 -164 -129 -274.5t-371 -139.5l-61 -297q-29 -141 -29 -196q0 -93 72 -93q49 0 120 47l50 -69q-134 -141 -314 -141q-239 0 -239 196q0 29 10 90z" />
<glyph unicode="&#x1f0;" horiz-adv-x="692" d="M621 1098l-238 -1114q-28 -137 -75 -228.5t-108.5 -146.5t-133.5 -78t-150 -23q-65 0 -112 7t-91 18l25 107q15 -5 42.5 -10t49.5 -5q48 0 83.5 17.5t63.5 59.5t50.5 111t44.5 171l176 831q3 13 5.5 27t4.5 26.5t3 21.5t1 13q0 28 -6 45t-19 26t-33.5 12t-49.5 3h-37 l18 109h486zM880 1542q-30 -29 -68.5 -66.5t-78 -77.5t-77.5 -80.5t-67 -76.5h-276q-13 31 -33 71t-42.5 81.5t-44.5 80.5t-40 68l6 27h129q18 -17 41.5 -40t48.5 -48.5t49.5 -50.5t42.5 -46q28 21 62 46t68.5 50.5t67.5 48.5t58 40h160z" />
<glyph unicode="&#x1fa;" horiz-adv-x="1542" d="M1188 1425q0 -60 -22.5 -103.5t-59.5 -72.5l188 -993q5 -32 13.5 -59t22.5 -46.5t35.5 -30.5t53.5 -11h37l-22 -109h-676l22 109h47q66 0 105 20.5t39 65.5q0 17 -1 33.5t-3 31.5l-27 172h-520l-82 -135q-22 -35 -30.5 -64t-8.5 -51q0 -38 28 -55.5t87 -17.5h41l-23 -109 h-532l22 109h43q28 0 49 7t40.5 25t41 48.5t51.5 78.5l627 985q-37 28 -57.5 71t-20.5 101q0 55 19 96.5t52.5 70t78.5 43t96 14.5t96 -14.5t78.5 -43t52.5 -70t19 -96.5zM883 827q-14 90 -23.5 171t-11.5 155q-16 -35 -33 -68t-37 -68t-43.5 -74.5t-52.5 -86.5l-184 -299 h428zM922 1726q28 29 60.5 67t65.5 78.5t63 81t54 75.5h322l-6 -21q-25 -27 -74 -68t-109 -85t-124.5 -85t-118.5 -69h-140zM1063 1425q0 30 -9.5 51t-26 34.5t-38.5 19.5t-47 6q-24 0 -46 -6t-38.5 -19.5t-26.5 -34.5t-10 -51q0 -56 32 -82.5t79 -27.5h20q23 1 43.5 7.5 t35.5 20t23.5 34t8.5 48.5z" />
<glyph unicode="&#x1fb;" horiz-adv-x="1362" d="M969 -20q-91 0 -146 41.5t-55 121.5q0 32 3 62.5t11 70.5h-14q-38 -71 -75.5 -126.5t-83.5 -93t-102.5 -57t-131.5 -19.5q-73 0 -128 28.5t-91.5 78.5t-55 118.5t-18.5 148.5t18.5 167.5t55.5 172.5t91.5 162t126 135t159.5 92.5t192 34.5q40 0 81.5 -6.5t79.5 -16.5 t71.5 -22.5t56.5 -25.5l108 49h109l-135 -639q-4 -17 -10 -45t-11.5 -59.5t-9.5 -61t-4 -49.5q0 -51 20 -76t52 -25q29 0 55.5 12.5t58.5 30.5l45 -82q-26 -20 -59 -41.5t-73.5 -39.5t-88 -29.5t-102.5 -11.5zM393 352q0 -59 8.5 -99t23 -64.5t35 -35t44.5 -10.5q45 0 93 39 t90 102.5t75.5 143.5t50.5 162l72 340q-20 29 -55.5 43t-75.5 14q-60 0 -109.5 -31t-89.5 -83t-70.5 -118t-51 -137t-30.5 -140t-10 -126zM1049 1425q0 -55 -19 -96.5t-52.5 -70t-78.5 -43t-96 -14.5t-96 14.5t-78.5 43t-52.5 70t-19 96.5q0 54 19 96t52.5 70t78.5 42.5 t96 14.5t96 -14.5t78.5 -42.5t52.5 -70t19 -96zM924 1425q0 30 -10 50.5t-26.5 34t-38.5 19.5t-46 6q-25 0 -47 -6t-38.5 -19.5t-26 -34t-9.5 -50.5t9.5 -51t26 -34.5t38.5 -19.5t47 -6q24 0 46 6t38.5 19.5t26.5 34.5t10 51zM750 1727q28 29 61 67t65.5 78.5t63 80.5 t54.5 75h321l-6 -21q-16 -18 -44 -42.5t-63.5 -52.5t-76 -57.5t-82.5 -57.5t-83 -53.5t-77 -43.5h-139z" />
<glyph unicode="&#x1fc;" horiz-adv-x="2034" d="M2083 1462l-72 -381h-145q1 7 2.5 25t3 37.5t3 36t1.5 20.5q0 28 -8 53t-25 44t-44.5 29.5t-67.5 10.5h-273l-108 -512h465l-27 -123h-465l-123 -577h324q48 0 85.5 13.5t66 36.5t48 53.5t31.5 64.5l33 88h145l-94 -381h-1175l22 109h27q32 0 62.5 4t55.5 17t43.5 37 t26.5 64l49 238h-467l-121 -172q-30 -43 -43.5 -76.5t-13.5 -50.5q0 -32 28 -46.5t81 -14.5h35l-23 -109h-516l22 109h25q27 0 52 9.5t50.5 29t52.5 49.5t58 71l805 1075l-133 11l22 108h1219zM1114 1337l-539 -745h402l158 745h-21zM1346 1606q28 29 61 67t65.5 78.5 t63 80.5t54.5 75h321l-6 -21q-16 -18 -44 -42.5t-63.5 -52.5t-76 -57.5t-82.5 -57.5t-83 -53.5t-77 -43.5h-139z" />
<glyph unicode="&#x1fd;" horiz-adv-x="1802" d="M1325 135q50 0 95 14.5t83 38t69 53t52 60.5q12 -15 19.5 -38.5t7.5 -49.5q0 -37 -24 -78t-73.5 -75.5t-126.5 -57t-182 -22.5q-187 0 -299.5 75t-150.5 221h-19q-38 -71 -77 -126.5t-86 -93t-105 -57t-133 -19.5q-73 0 -128 28.5t-91.5 78.5t-55 118.5t-18.5 148.5 t18.5 167.5t55.5 172.5t91.5 162t126 135t159.5 92.5t192 34.5q103 0 186 -31.5t154 -93.5q80 62 181.5 95.5t226.5 33.5q154 0 236.5 -63.5t82.5 -177.5q0 -83 -46 -159.5t-127 -135t-193 -93t-244 -34.5h-37.5t-38.5 2q-3 -20 -3.5 -40.5t-0.5 -37.5q0 -119 55.5 -183.5 t167.5 -64.5zM393 352q0 -59 8.5 -99t23 -64.5t35 -35t44.5 -10.5q37 0 77 28t77.5 74.5t70.5 108t57 129.5q10 53 24 107.5t33.5 106.5t44 101t56.5 91q-10 15 -29.5 32t-45 31.5t-55 24.5t-60.5 10q-60 0 -109.5 -31t-89.5 -83t-70.5 -118t-51 -137t-30.5 -140t-10 -126z M1397 999q-33 0 -64.5 -17.5t-59.5 -48t-52 -71.5t-44 -88t-34.5 -97t-22.5 -99h19q76 0 141.5 21t113.5 58.5t75.5 90.5t27.5 118q0 63 -26 98t-74 35zM940 1268q28 29 61 67t65.5 78.5t63 80.5t54.5 75h321l-6 -21q-16 -18 -44 -42.5t-63.5 -52.5t-76 -57.5t-82.5 -57.5 t-83 -53.5t-77 -43.5h-139z" />
<glyph unicode="&#x1fe;" horiz-adv-x="1622" d="M129 545q0 98 24.5 206t73.5 212.5t122 199t169.5 166t217.5 114t265 42.5q162 0 295 -68l97 129h143l-145 -192q80 -69 128 -176t48 -256q0 -94 -23.5 -201t-71 -212t-119 -201t-168 -169.5t-218 -117.5t-267.5 -44q-81 0 -154 17t-138 49l-93 -125h-145l143 186 q-86 73 -135 182.5t-49 258.5zM463 496q0 -96 18 -166l686 915q-37 54 -90.5 80.5t-118.5 26.5q-85 0 -154.5 -41t-124.5 -109.5t-96 -157t-67.5 -184t-39.5 -190t-13 -174.5zM1235 969q0 43 -4 82t-12 71l-682 -909q37 -53 89.5 -76.5t114.5 -23.5q85 0 154.5 41 t124.5 109.5t95.5 157t67 183.5t39.5 189.5t13 175.5zM881 1606q28 29 61 67t65.5 78.5t63 80.5t54.5 75h321l-6 -21q-16 -18 -44 -42.5t-63.5 -52.5t-76 -57.5t-82.5 -57.5t-83 -53.5t-77 -43.5h-139z" />
<glyph unicode="&#x1ff;" horiz-adv-x="1266" d="M82 410q0 77 18 159t54.5 161t91.5 149.5t129.5 123.5t169 84t209.5 31q60 0 114.5 -11t102.5 -34l92 107h154l-146 -179q51 -52 81 -129.5t30 -183.5q0 -74 -17 -155t-52.5 -159.5t-90 -150t-128.5 -125.5t-168 -86t-210 -32q-137 0 -240 53l-94 -115h-155l153 188 q-48 54 -73 129.5t-25 174.5zM553 127q55 0 99.5 31.5t80 83t61.5 117.5t42.5 136t25 137.5t8.5 121.5v4l-450 -549q20 -43 53.5 -62.5t79.5 -19.5zM715 981q-52 0 -95.5 -29.5t-79 -78t-62.5 -112t-45 -131.5t-28 -135.5t-10 -125.5l443 542q-20 35 -51.5 52.5t-71.5 17.5z M674 1268q28 29 61 67t65.5 78.5t63 80.5t54.5 75h321l-6 -21q-16 -18 -44 -42.5t-63.5 -52.5t-76 -57.5t-82.5 -57.5t-83 -53.5t-77 -43.5h-139z" />
<glyph unicode="&#x218;" horiz-adv-x="1200" d="M535 -20q-127 0 -222 23t-158 63t-94.5 94.5t-31.5 118.5q0 48 19.5 84t55 60t84 36t107.5 12q0 -94 20 -163t56 -114.5t86 -67.5t110 -22q58 0 103 16.5t76.5 45t48 67t16.5 82.5q0 43 -10.5 79t-38.5 70t-77 69t-126 77q-80 44 -140.5 90.5t-101 100.5t-61 118.5 t-20.5 145.5q0 92 37 169t106 132.5t167 86t220 30.5q114 0 199 -18t141.5 -49t84.5 -73t28 -90q0 -83 -63 -130.5t-206 -47.5q0 46 -9 96t-32 91.5t-62 68.5t-99 27q-41 0 -81.5 -13t-72.5 -39t-52 -65.5t-20 -93.5t17 -92t51 -70.5t85 -63t120 -67.5q155 -84 229 -185.5 t74 -232.5q0 -109 -39.5 -194t-113 -143t-177.5 -88.5t-233 -30.5zM286 -426q34 71 67 149t58 152h258l-6 -20q-21 -32 -50.5 -71t-64 -80t-72 -81.5t-73.5 -75.5h-123z" />
<glyph unicode="&#x219;" horiz-adv-x="1053" d="M457 102q42 0 78 10.5t62 30t41 48t15 65.5q0 35 -13.5 62t-42 50.5t-72 46.5t-103.5 52q-60 28 -108.5 60t-82.5 71t-52.5 87t-18.5 108q0 75 32 135t92 102.5t145.5 65t193.5 22.5q103 0 174.5 -16t116 -42.5t64 -61.5t19.5 -72q0 -82 -63 -119t-172 -37q0 41 -8 82.5 t-27 75.5t-49 55t-74 21q-40 0 -71.5 -11.5t-54 -31t-34.5 -45.5t-12 -56q0 -34 13.5 -59t42 -47t72.5 -43.5t104 -48.5q66 -30 114 -63.5t79.5 -73t47 -86t15.5 -103.5q0 -83 -31.5 -149t-94.5 -112t-156 -70.5t-216 -24.5q-88 0 -159.5 15t-122 44t-78 71t-27.5 95 q0 48 19 81t49.5 53.5t70 30t80.5 9.5q0 -55 11 -105t35 -88.5t62.5 -61t94.5 -22.5zM189 -426q34 71 67 149t58 152h258l-6 -20q-21 -32 -50.5 -71t-64 -80t-72 -81.5t-73.5 -75.5h-123z" />
<glyph unicode="&#x21a;" horiz-adv-x="1337" d="M213 0l23 109h26q32 0 62.5 4t55.5 17t43.5 37t27.5 64l231 1106h-164q-48 0 -81.5 -12t-58 -35.5t-41.5 -57.5t-32 -79l-29 -88h-137l94 397h1274l-71 -397h-138q1 7 3.5 31.5t5.5 52.5t5.5 51.5t2.5 28.5q0 54 -32.5 81t-111.5 27h-163l-236 -1112q-2 -11 -5 -25 t-3 -22q0 -22 11 -35.5t31 -21t47.5 -10t59.5 -2.5h27l-22 -109h-705zM310 -426q34 71 67 149t58 152h258l-6 -20q-21 -32 -50.5 -71t-64 -80t-72 -81.5t-73.5 -75.5h-123z" />
<glyph unicode="&#x21b;" horiz-adv-x="854" d="M553 147q48 0 87 16t73 38l47 -78q-34 -29 -71.5 -55t-81.5 -45.5t-94.5 -31t-109.5 -11.5q-56 0 -104.5 14.5t-84.5 44t-56.5 74.5t-20.5 106q0 18 1.5 40t4.5 45t7 45.5t8 41.5l123 567h-158l22 105q44 0 96 15t106.5 49t109 89t102.5 134h119l-53 -252h247l-28 -140 h-250l-123 -561q-11 -45 -15.5 -81.5t-4.5 -65.5q0 -51 28 -77t74 -26zM118 -426q34 71 67 149t58 152h258l-6 -20q-21 -32 -50.5 -71t-64 -80t-72 -81.5t-73.5 -75.5h-123z" />
<glyph unicode="&#x237;" horiz-adv-x="692" d="M621 1098l-238 -1114q-28 -137 -75 -228.5t-108.5 -146.5t-133.5 -78t-150 -23q-65 0 -112 7t-91 18l25 107q15 -5 42.5 -10t49.5 -5q48 0 83.5 17.5t63.5 59.5t50.5 111t44.5 171l176 831q3 13 5.5 27t4.5 26.5t3 21.5t1 13q0 28 -6 45t-19 26t-33.5 12t-49.5 3h-37 l18 109h486z" />
<glyph unicode="&#x2bc;" horiz-adv-x="573" d="M629 1278q0 -78 -28.5 -148t-85 -127t-141 -98.5t-196.5 -62.5l23 108q211 50 211 170q0 21 -8.5 36.5t-21.5 28t-27.5 24.5t-27.5 27.5t-21.5 36t-8.5 50.5q0 33 12.5 59t33.5 44.5t49 28t59 9.5q37 0 69.5 -12.5t56.5 -36t38 -58t14 -79.5z" />
<glyph unicode="&#x2c6;" horiz-adv-x="1182" d="M330 1268q30 29 68 66.5t78 77.5t78 80.5t67 76.5h276q13 -32 33 -72t42.5 -81t44.5 -80t40 -68l-6 -27h-129q-18 17 -42 40t-49 48t-49.5 50t-42.5 46q-27 -21 -61 -46t-69 -50t-68 -48t-58 -40h-159z" />
<glyph unicode="&#x2c7;" horiz-adv-x="1182" d="M1149 1542q-30 -29 -68.5 -66.5t-78 -77.5t-77.5 -80.5t-67 -76.5h-276q-13 31 -33 71t-42.5 81.5t-44.5 80.5t-40 68l6 27h129q18 -17 41.5 -40t48.5 -48.5t49.5 -50.5t42.5 -46q28 21 62 46t68.5 50.5t67.5 48.5t58 40h160z" />
<glyph unicode="&#x2c9;" horiz-adv-x="1024" d="M961 1241h-594l34 162h594z" />
<glyph unicode="&#x2d8;" horiz-adv-x="1182" d="M573 1241q-68 0 -119 23t-86 65.5t-55 102t-24 131.5h135q8 -72 54 -106t118 -34q74 0 129 32.5t86 107.5h127q-15 -59 -46.5 -117t-77.5 -103.5t-106.5 -73.5t-134.5 -28z" />
<glyph unicode="&#x2d9;" horiz-adv-x="725" d="M479 1282q-34 0 -63 7.5t-50.5 23.5t-34 40t-12.5 56q0 45 15.5 76.5t41.5 52t61 30t73 9.5q33 0 62.5 -7t52 -23t36 -40.5t13.5 -58.5q0 -42 -16.5 -73.5t-44 -52t-62.5 -30.5t-72 -10z" />
<glyph unicode="&#x2da;" horiz-adv-x="682" d="M750 1432q0 -55 -19 -96.5t-52.5 -70t-78.5 -43t-96 -14.5t-96 14.5t-78.5 43t-52.5 70t-19 96.5q0 54 19 96t52.5 70t78.5 42.5t96 14.5t96 -14.5t78.5 -42.5t52.5 -70t19 -96zM625 1432q0 30 -10 50.5t-26.5 34t-38.5 19.5t-46 6q-25 0 -47 -6t-38.5 -19.5t-26 -34 t-9.5 -50.5t9.5 -51t26 -34.5t38.5 -19.5t47 -6q24 0 46 6t38.5 19.5t26.5 34.5t10 51z" />
<glyph unicode="&#x2db;" horiz-adv-x="1024" d="M563 -492q-124 0 -193 53.5t-69 155.5q0 55 22.5 100.5t62.5 81t95.5 61t122.5 40.5h158q-35 -10 -77.5 -30t-79.5 -50t-62 -70t-25 -90q0 -48 32 -76t85 -28q28 0 61.5 4t71.5 12l-27 -131q-38 -15 -84 -24t-94 -9z" />
<glyph unicode="&#x2dc;" horiz-adv-x="1182" d="M905 1436q26 0 45 9t32.5 24t22 34.5t13.5 40.5h123q-11 -49 -33.5 -102.5t-56 -98t-78 -73.5t-99.5 -29t-99 20t-81 44.5t-69.5 44.5t-65.5 20q-21 0 -40 -9t-34 -24t-25 -34.5t-14 -40.5h-122q9 46 32.5 99.5t59.5 98.5t82.5 75t101.5 30q54 0 96.5 -20t78 -44.5 t67 -44.5t63.5 -20z" />
<glyph unicode="&#x2dd;" horiz-adv-x="1182" d="M561 1241l6 27q28 33 57.5 70t57.5 76t54.5 78.5t49.5 76.5h261l-7 -21q-21 -27 -63 -67.5t-91.5 -84.5t-101 -85.5t-92.5 -69.5h-131zM172 1241l6 27q28 33 57.5 70t57.5 76t54.5 78.5t49.5 76.5h260l-6 -21q-21 -27 -63 -67.5t-91.5 -84.5t-101 -85.5t-92.5 -69.5h-131 z" />
<glyph unicode="&#x2f3;" horiz-adv-x="682" d="M463 -348q0 -55 -19 -96.5t-52.5 -69.5t-78.5 -42.5t-96 -14.5t-96 14.5t-78.5 42.5t-52.5 69.5t-19 96.5q0 54 19 96t52.5 70t78.5 42.5t96 14.5t96 -14.5t78.5 -42.5t52.5 -70t19 -96zM338 -348q0 30 -9.5 51t-26 34t-38.5 19t-47 6q-24 0 -46 -6t-38.5 -19t-26.5 -34 t-10 -51t10 -51t26.5 -34.5t38.5 -19.5t46 -6q25 0 47 6t38.5 19.5t26 34.5t9.5 51z" />
<glyph unicode="&#x300;" horiz-adv-x="0" d="M-624 1241q-44 26 -93.5 66t-95.5 83.5t-84.5 85.5t-59.5 72l6 21h301q12 -37 31.5 -80t40.5 -84t42.5 -77t38.5 -60l-6 -27h-121z" />
<glyph unicode="&#x301;" horiz-adv-x="0" d="M-707 1268q28 29 61 67t65.5 78.5t63 80.5t54.5 75h321l-6 -21q-16 -18 -44 -42.5t-63.5 -52.5t-76 -57.5t-82.5 -57.5t-83 -53.5t-77 -43.5h-139z" />
<glyph unicode="&#x303;" horiz-adv-x="0" d="M-394 1436q26 0 45 9t32.5 24t22 34.5t13.5 40.5h123q-11 -49 -33.5 -102.5t-56 -98t-78 -73.5t-99.5 -29t-99 20t-81 44.5t-69.5 44.5t-65.5 20q-21 0 -40 -9t-34 -24t-25 -34.5t-14 -40.5h-122q9 46 32.5 99.5t59.5 98.5t82.5 75t101.5 30q54 0 96.5 -20t78 -44.5 t67 -44.5t63.5 -20z" />
<glyph unicode="&#x309;" horiz-adv-x="0" d="M-516 1319l-29 -111h-123l17 164q155 32 155 135q0 72 -69 72q-68 0 -111 -76q-76 0 -76 60q0 59 62 93t151 34q226 0 226 -172q0 -146 -203 -199z" />
<glyph unicode="&#x30f;" horiz-adv-x="0" d="M-424 1241q-203 171 -293 307v21h260q53 -113 174 -301v-27h-141zM-813 1241q-203 171 -293 307v21h260q53 -113 174 -301v-27h-141z" />
<glyph unicode="&#x323;" horiz-adv-x="0" d="M-940 -285q0 76 51 120t137 44q162 0 162 -127q0 -74 -55 -119t-135 -45q-76 0 -118 34.5t-42 92.5z" />
<glyph unicode="&#x384;" horiz-adv-x="1182" d="M440 1268q17 31 36.5 69t39.5 78.5t38 80t32 73.5h278l-6 -21q-21 -32 -53.5 -71.5t-70.5 -80.5t-78.5 -81t-77.5 -74h-144z" />
<glyph unicode="&#x385;" horiz-adv-x="1182" d="M506 1436q15 31 32 69t33.5 78.5t31.5 80t26 73.5h237l-4 -21q-18 -32 -46.5 -72t-60.5 -81t-66 -81t-64 -73h-123zM453 1423q0 -40 -11 -67t-28.5 -44t-39.5 -24.5t-44 -7.5q-51 0 -82 28t-31 85q0 65 33 104t90 39q50 0 81.5 -28t31.5 -85zM973 1423q0 -40 -11 -67 t-28.5 -44t-39.5 -24.5t-44 -7.5q-51 0 -82 28t-31 85q0 65 33 104t90 39q50 0 81.5 -28t31.5 -85z" />
<glyph unicode="&#x386;" horiz-adv-x="1577" d="M473 481l-100 -184q-20 -37 -29.5 -65t-9.5 -50q0 -38 28 -55.5t87 -17.5h41l-23 -109h-532l22 109h43q28 0 49.5 6.5t41.5 24.5t41.5 49t49.5 79l695 1194h280l172 -1206q5 -32 13.5 -59t22.5 -46.5t35.5 -30.5t53.5 -11h37l-22 -109h-676l22 109h47q66 0 105 20.5 t39 65.5q0 17 -1 33.5t-3 31.5l-31 221h-498zM920 950q-5 45 -9.5 84.5t-8 76.5t-6 72t-3.5 72q-15 -37 -30 -68.5t-32 -64t-37.5 -69t-47.5 -84.5l-203 -363h414zM203 1163q17 31 36.5 69t39.5 78.5t38 80t32 73.5h278l-6 -21q-21 -32 -53.5 -71.5t-70.5 -80.5t-78.5 -81 t-77.5 -74h-144z" />
<glyph unicode="&#x387;" horiz-adv-x="623" d="M518 746q0 -51 -15.5 -86.5t-41 -57t-57.5 -31t-64 -9.5q-74 0 -120 36t-46 111q0 42 12.5 76t36 58t56 37t73.5 13q35 0 65.5 -9t53 -27t35 -46t12.5 -65z" />
<glyph unicode="&#x388;" horiz-adv-x="1567" d="M204 109h27q32 0 62.5 4t55.5 17t43.5 37t26.5 64l213 1006q4 11 6.5 25t2.5 22q0 22 -11 36t-30.5 21.5t-47 10t-59.5 2.5h-26l22 108h1112l-72 -381h-145q1 7 2.5 25t3 37.5t3 36t1.5 20.5q0 28 -8 53t-25 44t-44.5 29.5t-67.5 10.5h-272l-109 -512h465l-27 -123h-465 l-123 -577h324q48 0 86 13.5t66 36.5t47.5 53.5t31.5 64.5l33 88h146l-95 -381h-1175zM25 1163q17 31 36.5 69t39.5 78.5t38 80t32 73.5h278l-6 -21q-21 -32 -53.5 -71.5t-70.5 -80.5t-78.5 -81t-77.5 -74h-144z" />
<glyph unicode="&#x389;" horiz-adv-x="1907" d="M1036 0l22 109h27q33 0 64 4t57 17.5t44.5 37.5t27.5 65l98 467h-535l-100 -475q-3 -11 -5.5 -25t-2.5 -22q0 -22 11 -35.5t31 -21t47.5 -10t59.5 -2.5h27l-23 -109h-704l22 109h27q32 0 62.5 4t55.5 17t43.5 37t26.5 64l209 983q13 53 13 70q0 22 -11 36t-30.5 21.5 t-47 10t-59.5 2.5h-26l22 108h707l-23 -108h-26q-34 0 -65.5 -4.5t-57.5 -17.5t-45 -38t-27 -65l-84 -404h535l86 398q5 21 7.5 37t2.5 24q0 22 -11.5 36t-31.5 21.5t-47.5 10t-59.5 2.5h-26l22 108h707l-23 -108h-26q-33 0 -64 -4.5t-57 -17.5t-44.5 -38t-27.5 -65 l-211 -1004q-3 -11 -5.5 -25t-2.5 -22q0 -22 11 -35.5t30.5 -21t46.5 -10t59 -2.5h27l-23 -109h-706zM25 1163q17 31 36.5 69t39.5 78.5t38 80t32 73.5h278l-6 -21q-21 -32 -53.5 -71.5t-70.5 -80.5t-78.5 -81t-77.5 -74h-144z" />
</font>
</defs>
</svg>
