<?xml version="1.0" standalone="no"?>
<!DOCTYPE svg PUBLIC "-//W3C//DTD SVG 1.1//EN" "http://www.w3.org/Graphics/SVG/1.1/DTD/svg11.dtd" >
<svg xmlns="http://www.w3.org/2000/svg" xmlns:xlink="http://www.w3.org/1999/xlink" version="1.1">
<metadata></metadata>
<defs>
<font id="droid_serifregular" horiz-adv-x="1182" >
<font-face units-per-em="2048" ascent="1638" descent="-410" />
<missing-glyph horiz-adv-x="532" />
<glyph unicode="&#xd;" horiz-adv-x="1044" />
<glyph unicode=" "  horiz-adv-x="532" />
<glyph unicode="&#x09;" horiz-adv-x="532" />
<glyph unicode="&#xa0;" horiz-adv-x="532" />
<glyph unicode="!" horiz-adv-x="682" d="M221 1462h238l-72 -1050h-94zM211 125q0 40 10 66.5t27.5 42.5t41 23t50.5 7q26 0 49.5 -7t41 -23t28 -42.5t10.5 -66.5q0 -39 -10.5 -66t-28 -43t-41 -23t-49.5 -7q-27 0 -50.5 7t-41 23t-27.5 43t-10 66z" />
<glyph unicode="&#x22;" horiz-adv-x="836" d="M502 1462h217l-62 -481h-94zM117 1462h217l-62 -481h-94z" />
<glyph unicode="#" horiz-adv-x="1145" d="M397 537h285l76 401h-285zM1038 537v-121h-258l-78 -416h-122l77 416h-284l-78 -416h-123l78 416h-168v121h190l78 401h-244v121h267l73 403h125l-75 -403h284l76 403h123l-76 -403h160v-121h-182l-76 -401h233z" />
<glyph unicode="$" horiz-adv-x="1145" d="M621 1401q92 -2 156.5 -20.5t105.5 -49t59.5 -71.5t18.5 -89q0 -66 -44 -99.5t-118 -33.5q0 45 -7.5 90.5t-27 83t-54.5 63.5t-89 32v-478q92 -40 163 -80t119 -86.5t73 -103t25 -129.5q0 -154 -99 -239.5t-281 -104.5v-248h-103v244q-51 0 -103 4.5t-101.5 15t-95 26.5 t-83.5 38v315h86q0 -57 21.5 -110.5t61 -96t94 -70t120.5 -32.5v506q-96 43 -162.5 85t-107.5 88.5t-59.5 100.5t-18.5 121q0 69 24.5 125t69.5 97.5t109.5 67t144.5 34.5v159h103v-155zM813 399q0 41 -10 73.5t-33 60.5t-59.5 52t-89.5 48v-455q92 16 142 74.5t50 146.5z M354 1090q0 -43 10.5 -75.5t31.5 -57.5t51.5 -45t70.5 -38v429q-40 -9 -71 -28.5t-51.5 -47t-31 -62.5t-10.5 -75z" />
<glyph unicode="%" horiz-adv-x="1835" d="M764 1030q0 -103 -21 -187t-63 -144t-105 -93t-147 -33q-88 0 -151.5 33t-104.5 93t-60.5 144t-19.5 187t19.5 186.5t60.5 143t105 91.5t153 32q84 0 146.5 -32t104 -91.5t62.5 -143t21 -186.5zM276 1030q0 -88 8 -157.5t26 -117.5t47 -73t71 -25t71 25t46.5 73t25 117.5 t7.5 157.5q0 87 -7.5 155t-25 115.5t-45.5 72t-70 24.5t-71.5 -24.5t-48 -72t-26.5 -115.5t-8 -155zM1743 436q0 -103 -21 -187t-63 -144t-105 -92.5t-147 -32.5q-88 0 -152 32.5t-104.5 92.5t-60 144t-19.5 187t19.5 186.5t60.5 143t105 91.5t153 32q84 0 146.5 -32 t104 -91.5t62.5 -143t21 -186.5zM1255 436q0 -88 8 -157.5t26 -117.5t47 -73t71 -25t71 25t46 73t24.5 117.5t7.5 157.5q0 87 -7.5 155t-24.5 115.5t-45 72t-70 24.5t-71.5 -24.5t-48 -72t-26.5 -115.5t-8 -155zM616 0h-135l731 1462h134z" />
<glyph unicode="&#x26;" horiz-adv-x="1520" d="M1174 0l-170 180q-37 -42 -81.5 -78.5t-98.5 -63.5t-119.5 -42.5t-143.5 -15.5q-123 0 -214.5 31t-152 87.5t-90.5 135.5t-30 176q0 87 23.5 151.5t66 113.5t103 86t134.5 68q-39 46 -68.5 88.5t-49 84.5t-29.5 86t-10 94q0 68 22 123t69 95t120.5 61.5t175.5 21.5 q98 0 167 -23t112.5 -63t63 -93t19.5 -112q0 -66 -19 -117t-60.5 -94t-107 -81.5t-159.5 -78.5l373 -395q14 46 23 93.5t14.5 93t7.5 89t2 80.5v80h369v-86h-19q-34 0 -67 -4t-61.5 -18.5t-51 -42t-35.5 -74.5q-18 -66 -41.5 -143t-58.5 -154l190 -203q15 -15 31 -25 t37.5 -16t51 -8t71.5 -2h18v-86h-327zM580 94q60 0 111.5 12.5t94.5 34.5t79 52.5t65 66.5l-453 485q-47 -26 -84.5 -57.5t-64 -73t-40.5 -93.5t-14 -118q0 -75 22 -132.5t62.5 -97t96.5 -59.5t125 -20zM813 1190q0 41 -10 76t-32.5 60.5t-59 40.5t-88.5 15q-91 0 -140 -53 t-49 -141q0 -39 8 -73t25.5 -67.5t44.5 -69.5t66 -79q60 26 104.5 55t73.5 63.5t43 76.5t14 96z" />
<glyph unicode="'" horiz-adv-x="451" d="M117 1462h217l-62 -481h-94z" />
<glyph unicode="(" horiz-adv-x="709" d="M330 649q0 -122 9.5 -241t41.5 -225.5t94.5 -196.5t167.5 -154v-94q-141 56 -241 136t-163.5 190.5t-92.5 255t-29 329.5t29 328.5t92.5 253.5t163.5 189.5t241 135.5v-92q-105 -64 -167.5 -153.5t-94.5 -195.5t-41.5 -225t-9.5 -241z" />
<glyph unicode=")" horiz-adv-x="709" d="M379 649q0 122 -9.5 241t-42 225t-94.5 195.5t-167 153.5v92q141 -56 241 -135.5t163 -189.5t92.5 -253.5t29.5 -328.5t-29.5 -329.5t-92.5 -255t-163 -190.5t-241 -136v94q105 64 167 154t94.5 196.5t42 225.5t9.5 241z" />
<glyph unicode="*" horiz-adv-x="1024" d="M84 1268l72 162l315 -199l-53 325h178l-57 -323l317 192l72 -159l-346 -101l346 -100l-72 -158l-317 191l57 -324h-178l51 324l-313 -195l-72 160l344 102z" />
<glyph unicode="+" horiz-adv-x="1145" d="M633 672v-379h-123v379h-377v121h377v378h123v-378h379v-121h-379z" />
<glyph unicode="," horiz-adv-x="512" d="M397 86q0 -65 -18 -126t-58.5 -113t-104 -93.5t-155.5 -68.5v86q101 32 148 78t47 106q0 20 -11 33.5t-28 24t-36 20.5t-36 24t-28 34.5t-11 51.5q0 59 38.5 90t95.5 31q32 0 60 -11.5t50 -34t34.5 -56t12.5 -76.5z" />
<glyph unicode="-" horiz-adv-x="635" d="M51 481v154h533v-154h-533z" />
<glyph unicode="." horiz-adv-x="586" d="M164 125q0 40 10 66.5t27.5 42.5t41 23t50.5 7q26 0 49.5 -7t41 -23t28 -42.5t10.5 -66.5q0 -39 -10.5 -66t-28 -43t-41 -23t-49.5 -7q-27 0 -50.5 7t-41 23t-27.5 43t-10 66z" />
<glyph unicode="/" horiz-adv-x="590" d="M121 -248h-121l471 1804h119z" />
<glyph unicode="0" horiz-adv-x="1145" d="M1053 733q0 -169 -29.5 -308t-89.5 -238t-150 -153t-211 -54q-126 0 -217 54t-149.5 153t-86.5 238.5t-28 309.5t28 308t86.5 236t150 151t218.5 53q120 0 209.5 -53t149.5 -151t89.5 -236.5t29.5 -309.5zM305 733q0 -152 14 -271.5t45.5 -202t83 -126t125.5 -43.5 q75 0 126 43.5t82.5 126t45 202t13.5 271.5t-13.5 271t-45 201t-82 124.5t-124.5 42.5q-75 0 -126.5 -42.5t-83.5 -124.5t-46 -201t-14 -271z" />
<glyph unicode="1" horiz-adv-x="1145" d="M197 0v86h137q35 0 65.5 5t53 20.5t36 44.5t13.5 77v1076q-39 -48 -74 -87t-67 -67t-62.5 -43.5t-60.5 -15.5q-45 0 -74 30.5t-29 79.5q31 8 62.5 19.5t67 30t77 45t92.5 63.5l144 106h131v-1237q0 -48 13 -77t36 -44.5t53.5 -20.5t65.5 -5h100v-86h-780z" />
<glyph unicode="2" horiz-adv-x="1145" d="M944 1141q0 -72 -23 -140t-67 -139.5t-107.5 -148.5t-144.5 -166l-346 -383h473q46 0 76 13t49 34t29.5 48.5t17.5 57.5l8 37h86l-10 -354h-881v150l342 395q82 95 137.5 170t89.5 141.5t49 130t15 133.5q0 59 -12.5 106.5t-38 82t-65 53t-93.5 18.5q-70 0 -113.5 -25 t-68.5 -67t-34 -97t-9 -116q-37 0 -69 6t-56 21.5t-37.5 41t-13.5 64.5q0 59 25.5 109.5t76 87.5t125.5 57.5t174 20.5q97 0 174 -24.5t131 -69t82.5 -107.5t28.5 -141z" />
<glyph unicode="3" horiz-adv-x="1145" d="M508 90q61 0 116 17t97 56t67 102t25 155q0 65 -25.5 117.5t-73.5 89.5t-117 57.5t-155 20.5h-65v104h65q68 0 126.5 22.5t102 63.5t68.5 99.5t25 131.5q0 60 -12 107t-38.5 80t-68 50t-100.5 17q-70 0 -114 -25t-69 -67t-34 -97t-9 -116q-37 0 -69 6t-56 21.5t-37.5 41 t-13.5 64.5q0 59 25.5 109.5t76.5 87.5t126 57.5t174 20.5q97 0 176 -22t135.5 -63.5t87.5 -102t31 -138.5q0 -69 -24.5 -130t-68.5 -110.5t-104 -84.5t-131 -52q38 -4 81 -13.5t85 -27.5t80.5 -45t68 -66t47 -90.5t17.5 -119.5q0 -82 -22 -147t-60.5 -113.5t-89.5 -82.5 t-109 -55t-119 -30.5t-120 -9.5q-101 0 -174 18.5t-120.5 49.5t-70 72.5t-22.5 86.5q0 62 35 96.5t94 34.5q0 -54 17.5 -99.5t50.5 -78.5t81.5 -51.5t110.5 -18.5z" />
<glyph unicode="4" horiz-adv-x="1145" d="M862 401v-168q0 -48 13.5 -77t36 -44.5t53.5 -20.5t65 -5h27v-86h-617v86h58q35 0 65.5 5t53 20.5t36 44.5t13.5 77v168h-631v84l633 977h194v-946h254v-115h-254zM666 895q0 45 1 99t2.5 110t4 111.5t6.5 103.5q-7 -14 -20 -37.5t-29.5 -52.5t-35 -61t-37 -62.5 t-34.5 -57t-28 -44.5l-314 -488h484v379z" />
<glyph unicode="5" horiz-adv-x="1145" d="M489 100q63 0 116.5 17.5t93 58t61.5 107t22 163.5q0 81 -22 141t-63 100t-98 59.5t-128 19.5q-53 0 -91.5 -4t-68 -10.5t-51.5 -14.5t-41 -16l-49 14l66 725h684l10 -309h-86l-8 61q-3 22 -8.5 37.5t-17.5 26t-32.5 15.5t-52.5 5h-397l-39 -450q31 11 89.5 22t149.5 11 q99 0 184.5 -27t148.5 -81t98.5 -135.5t35.5 -189.5q0 -104 -33.5 -190t-97 -147.5t-155.5 -95t-209 -33.5q-114 0 -188.5 19.5t-118.5 49.5t-62 66.5t-18 70.5q0 57 31.5 89t97.5 32q0 -44 15.5 -82t46 -65.5t77 -43.5t108.5 -16z" />
<glyph unicode="6" horiz-adv-x="1145" d="M659 1384q-154 0 -233 -151.5t-90 -450.5q25 21 55.5 40.5t66.5 34t78.5 23.5t92.5 9q94 0 170 -29t129.5 -83t82.5 -132t29 -176q0 -108 -29.5 -198t-86 -154.5t-138 -100.5t-186.5 -36q-102 0 -189 42.5t-150.5 134t-99.5 235t-36 345.5q0 97 14.5 190t43.5 176t73 153 t103.5 120.5t134.5 78.5t165 28q86 0 149.5 -18t105.5 -48t62.5 -69t20.5 -80q0 -59 -40 -91t-117 -32q0 50 -9.5 93.5t-31.5 76t-56 51t-84 18.5zM588 784q-40 0 -77 -10.5t-69.5 -27t-59.5 -38t-48 -42.5q2 -154 21.5 -263t54.5 -178t85 -101t111 -32q110 0 167.5 85.5 t57.5 271.5q0 175 -62.5 255t-180.5 80z" />
<glyph unicode="7" horiz-adv-x="1145" d="M389 0l483 1296h-538q-110 0 -119 -104l-8 -102h-86l10 370h916v-59l-504 -1401h-154z" />
<glyph unicode="8" horiz-adv-x="1145" d="M94 367q0 74 23.5 129.5t65.5 99t99 78.5t124 67q-58 33 -107 71.5t-84 84.5t-54.5 100.5t-19.5 118.5q0 71 25 137t78 117t137.5 82t202.5 31q96 0 171 -26.5t126.5 -73.5t78.5 -111.5t27 -141.5q0 -67 -20 -118t-56 -91.5t-87 -73t-113 -63.5q76 -36 138.5 -77 t107.5 -89t69.5 -104t24.5 -123q0 -97 -35 -173.5t-99 -129.5t-155 -80.5t-203 -27.5q-115 0 -202 30t-145.5 82.5t-88 123t-29.5 151.5zM569 74q67 0 121.5 20.5t93 56.5t59.5 86t21 109q0 52 -19 96.5t-62 86t-111.5 81t-167.5 82.5q-97 -52 -154 -135t-57 -199 q0 -64 17.5 -116t52 -89.5t86.5 -58t120 -20.5zM805 1135q0 47 -12.5 92t-40 80.5t-72 57t-109.5 21.5q-57 0 -101.5 -18.5t-74.5 -51t-45.5 -77.5t-15.5 -98q0 -55 17.5 -99t52 -80t86.5 -67.5t120 -63.5q58 29 95.5 59.5t59.5 67t31 80t9 97.5z" />
<glyph unicode="9" horiz-adv-x="1145" d="M467 90q170 0 251 152t91 460q-22 -27 -51.5 -52t-67 -44.5t-83 -31t-99.5 -11.5q-89 0 -163.5 26t-128 78t-83 130t-29.5 182q0 111 30 203.5t86.5 159t138 104t184.5 37.5q104 0 191 -40t151 -124t99.5 -214t35.5 -310q0 -107 -13.5 -209.5t-42 -193.5t-73 -167 t-106 -131.5t-141.5 -86t-179 -30.5q-87 0 -144.5 15.5t-91 40.5t-47.5 57t-14 64q0 38 19 64t42 34q14 -32 34.5 -61.5t50 -52t67.5 -35.5t86 -13zM553 684q50 1 91.5 14.5t73.5 36t55.5 52.5t37.5 63v4q-2 135 -22 232.5t-55 160.5t-83.5 93t-107.5 30q-109 0 -168.5 -95 t-59.5 -276q0 -84 15 -144t45 -98t74.5 -55.5t103.5 -17.5z" />
<glyph unicode=":" horiz-adv-x="588" d="M166 125q0 40 10 66.5t27.5 42.5t41 23t50.5 7q26 0 49.5 -7t41 -23t28 -42.5t10.5 -66.5q0 -39 -10.5 -66t-28 -43t-41 -23t-49.5 -7q-27 0 -50.5 7t-41 23t-27.5 43t-10 66zM166 969q0 40 10 66.5t27.5 42.5t41 23t50.5 7q26 0 49.5 -7t41 -23t28 -42.5t10.5 -66.5 q0 -39 -10.5 -66t-28 -43.5t-41 -23.5t-49.5 -7q-27 0 -50.5 7t-41 23.5t-27.5 43.5t-10 66z" />
<glyph unicode=";" horiz-adv-x="512" d="M397 86q0 -65 -18 -126t-58.5 -113t-104 -93.5t-155.5 -68.5v86q101 32 148 78t47 106q0 20 -11 33.5t-28 24t-36 20.5t-36 24t-28 34.5t-11 51.5q0 59 38.5 90t95.5 31q32 0 60 -11.5t50 -34t34.5 -56t12.5 -76.5zM129 969q0 40 10 66.5t27.5 42.5t41 23t50.5 7 q26 0 49.5 -7t41 -23t28 -42.5t10.5 -66.5q0 -39 -10.5 -66t-28 -43.5t-41 -23.5t-49.5 -7q-27 0 -50.5 7t-41 23.5t-27.5 43.5t-10 66z" />
<glyph unicode="&#x3c;" horiz-adv-x="1145" d="M133 696v72l879 473v-137l-688 -373l688 -369v-137z" />
<glyph unicode="=" horiz-adv-x="1145" d="M1012 590v-121h-879v121h879zM1012 993v-121h-879v121h879z" />
<glyph unicode="&#x3e;" horiz-adv-x="1145" d="M133 225v137l688 369l-688 373v137l879 -473v-72z" />
<glyph unicode="?" horiz-adv-x="1024" d="M522 412h-125v311q89 36 149.5 83.5t97 103t52 116t15.5 121.5q0 53 -13 96.5t-40 74t-69.5 47.5t-101.5 17q-64 0 -107.5 -21t-70.5 -57t-39 -83.5t-12 -100.5q-37 0 -68 8.5t-53.5 25t-35.5 41.5t-13 58q0 49 22.5 91t70 73t119.5 48.5t171 17.5q97 0 179 -25 t142 -72.5t94 -116.5t34 -157q0 -84 -26.5 -153t-77.5 -126t-125 -104t-169 -86v-231zM328 125q0 40 10 66.5t27.5 42.5t41 23t50.5 7q26 0 49.5 -7t41 -23t28 -42.5t10.5 -66.5q0 -39 -10.5 -66t-28 -43t-41 -23t-49.5 -7q-27 0 -50.5 7t-41 23t-27.5 43t-10 66z" />
<glyph unicode="@" horiz-adv-x="1886" d="M1778 803q0 -148 -36 -267.5t-94 -203.5t-129.5 -129t-142.5 -45q-91 0 -151.5 49t-89.5 137h-11q-21 -40 -47.5 -74t-60 -59t-75 -39t-93.5 -14q-62 0 -118.5 21t-99 64t-68 109t-25.5 156q0 55 12.5 119t39 127.5t68 123t99.5 105t133.5 73t169.5 27.5q66 0 113.5 -18 t78.5 -43l82 43h49l-104 -522q-3 -24 -7 -48q-3 -20 -5 -44t-2 -45q0 -36 10.5 -62.5t27.5 -44t39.5 -25.5t47.5 -8q45 0 92 36t85 105.5t62.5 170.5t24.5 231q0 134 -43 236.5t-119.5 172t-183 105t-234.5 35.5q-100 0 -196.5 -28t-182.5 -82.5t-159.5 -133t-126.5 -179 t-83 -222.5t-30 -262q0 -171 49 -291.5t132.5 -197t194 -111.5t234.5 -35q84 0 159 14.5t140.5 38.5t121 54.5t99.5 62.5l48 -74q-51 -38 -114 -74.5t-136.5 -65t-158 -46t-179.5 -17.5q-165 0 -303 45.5t-237.5 137.5t-155.5 230t-56 324q0 145 31.5 276.5t91 244.5 t144 204.5t190.5 156t230.5 99.5t264.5 35q172 0 302 -51t217 -139.5t130.5 -209t43.5 -259.5zM727 479q0 -108 43.5 -160.5t112.5 -52.5q52 0 90 22.5t64 58.5t42 82t25 93l78 416q-13 29 -45.5 45t-69.5 16q-61 0 -110.5 -26.5t-87 -69.5t-64.5 -98.5t-44.5 -113.5 t-25.5 -113t-8 -99z" />
<glyph unicode="A" horiz-adv-x="1444" d="M414 489l-78 -215q-9 -24 -14 -47.5t-5 -40.5q0 -52 33.5 -76t102.5 -24h47v-86h-500v86h39q30 0 51 6.5t38 24.5t32.5 49t34.5 80l454 1216h160l463 -1267q12 -32 24.5 -53t29.5 -33.5t39 -17.5t52 -5h27v-86h-563v86h47q123 0 123 98q0 17 -4.5 35t-12.5 41l-82 229 h-538zM788 950q-32 91 -58.5 170.5t-43.5 153.5q-7 -37 -16.5 -71.5t-20.5 -70.5t-25 -75.5t-32 -87.5l-139 -377h462z" />
<glyph unicode="B" horiz-adv-x="1339" d="M1153 1096q0 -69 -19.5 -121t-53.5 -91t-80.5 -65.5t-100.5 -44.5v-8q70 -12 128 -41t99.5 -75.5t64.5 -110t23 -144.5q0 -198 -130 -296.5t-396 -98.5h-610v86h26q35 0 65.5 5t53.5 20.5t36 44.5t13 77v1004q0 45 -13.5 72.5t-36.5 42.5t-53.5 19.5t-64.5 4.5h-26v86 h549q266 0 396 -88.5t130 -277.5zM479 102h199q87 0 147 16t98 51.5t55 92.5t17 139q0 80 -15 139t-51.5 98t-96.5 58t-150 19h-203v-613zM479 817h142q90 0 150 16t96 49.5t51.5 86.5t15.5 127q0 75 -17 125.5t-55 81.5t-98.5 44t-147.5 13h-137v-543z" />
<glyph unicode="C" horiz-adv-x="1257" d="M774 1483q105 0 182.5 -17.5t129 -48.5t77 -73t25.5 -91q0 -33 -13.5 -59.5t-37.5 -45t-56.5 -28.5t-70.5 -10q0 48 -12.5 95t-41 84.5t-74 61t-112.5 23.5q-116 0 -197 -42.5t-132 -124t-74 -201t-23 -273.5q0 -137 24 -251t76 -195.5t132.5 -126.5t193.5 -45 q75 0 132.5 14.5t101.5 38.5t77.5 55.5t59.5 65.5q17 -11 28 -30t11 -50q0 -39 -26.5 -79.5t-80.5 -73.5t-137 -54.5t-197 -21.5q-153 0 -269 54t-194.5 153t-118.5 238t-40 308q0 166 42 304t124.5 237t205.5 154t285 55z" />
<glyph unicode="D" horiz-adv-x="1489" d="M1372 733q0 -168 -42 -303.5t-125 -231t-208 -147t-292 -51.5h-627v86h26q35 0 65.5 5t53.5 20.5t36 44.5t13 77v1004q0 45 -13.5 72.5t-36.5 42.5t-53.5 19.5t-64.5 4.5h-26v86h627q158 0 282 -48.5t209.5 -141.5t130.5 -229t45 -310zM657 104q122 0 213.5 41.5 t152.5 121.5t91.5 197t30.5 269q0 305 -121.5 466t-364.5 161h-180v-1256h178z" />
<glyph unicode="E" horiz-adv-x="1276" d="M479 102h395q49 0 83.5 13.5t57.5 36.5t36 53.5t18 64.5l14 88h107l-14 -358h-1098v86h26q34 0 64.5 4.5t53.5 18.5t36.5 41.5t13.5 72.5v1006q0 48 -13 77t-36 44.5t-53.5 20.5t-65.5 5h-26v86h1032l10 -358h-106l-10 88q-4 34 -15.5 64.5t-33 53.5t-54 36.5t-78.5 13.5 h-344v-545h494v-100h-494v-613z" />
<glyph unicode="F" horiz-adv-x="1208" d="M479 1360v-592h494v-100h-494v-435q0 -48 13.5 -77t36 -44.5t53.5 -20.5t65 -5h68v-86h-637v86h26q34 0 64.5 4.5t53.5 18.5t36.5 41.5t13.5 72.5v1014q0 45 -13.5 72.5t-36.5 42.5t-53.5 19.5t-64.5 4.5h-26v86h1032l10 -358h-106l-10 88q-4 35 -16 65.5t-34.5 53 t-56.5 36t-82 13.5h-336z" />
<glyph unicode="G" horiz-adv-x="1462" d="M821 -20q-178 0 -310.5 54t-220 153t-130.5 238t-43 308q0 166 45.5 304t136 237t224.5 154t311 55q114 0 198.5 -17.5t141 -48.5t84.5 -73t28 -91q0 -33 -15 -59.5t-40.5 -45t-60 -28.5t-74.5 -10q0 48 -14 95t-46 84.5t-84 61t-127 23.5q-130 0 -221.5 -42.5 t-149.5 -124t-84 -201t-26 -273.5q0 -153 27 -272t88 -200t158 -123t237 -42q59 0 114.5 6t98.5 19v330q0 45 -13.5 72.5t-36.5 42t-53.5 19.5t-64.5 5h-8v86h532v-86h-8q-29 0 -55 -5t-45 -20.5t-30 -45t-11 -77.5v-368q-103 -48 -212 -71t-241 -23z" />
<glyph unicode="H" horiz-adv-x="1624" d="M950 0v86h27q35 0 65.5 5t53 20.5t36 44.5t13.5 77v480h-666v-480q0 -48 13.5 -77t36 -44.5t53.5 -20.5t65 -5h27v-86h-596v86h26q35 0 65.5 5t53.5 20.5t36 44.5t13 77v1004q0 45 -13.5 72.5t-36.5 42.5t-53.5 19.5t-64.5 4.5h-26v86h596v-86h-27q-34 0 -65 -5 t-53.5 -20.5t-36 -44.5t-13.5 -77v-414h666v414q0 48 -13.5 77t-36 44.5t-53 20.5t-65.5 5h-27v86h596v-86h-26q-35 0 -65.5 -5t-53.5 -20.5t-36 -44.5t-13 -77v-1006q0 -45 13.5 -72.5t36.5 -41.5t53.5 -18.5t64.5 -4.5h26v-86h-596z" />
<glyph unicode="I" horiz-adv-x="752" d="M78 0v86h26q35 0 65.5 5t53.5 20.5t36 44.5t13 77v996q0 48 -13 77t-36 44.5t-53.5 20.5t-65.5 5h-26v86h596v-86h-27q-34 0 -65 -5t-53.5 -20.5t-36 -44.5t-13.5 -77v-996q0 -48 13.5 -77t36 -44.5t53.5 -20.5t65 -5h27v-86h-596z" />
<glyph unicode="J" horiz-adv-x="731" d="M-23 -395h19q66 0 117.5 18.5t86.5 62t53.5 116t18.5 180.5v1255q0 45 -13.5 72.5t-36.5 42.5t-53.5 19.5t-64.5 4.5h-26v86h596v-86h-27q-34 0 -65 -5t-53.5 -20.5t-36 -44.5t-13.5 -77v-1245q0 -138 -36 -229.5t-99 -146t-148.5 -77.5t-183.5 -23h-35v97z" />
<glyph unicode="K" horiz-adv-x="1434" d="M903 1137q33 38 55 67.5t34.5 53.5t18 42t5.5 33q0 26 -25 35.5t-76 9.5v84h453v-84q-35 0 -67.5 -13.5t-65 -38t-67 -60t-74.5 -80.5l-297 -334l432 -602q59 -81 113.5 -122.5t111.5 -41.5h4v-86h-22q-103 0 -169 8t-111 29t-78.5 56.5t-71.5 90.5l-353 506l-174 -141 v-316q0 -48 13.5 -77t36 -44.5t53.5 -20.5t65 -5h27v-86h-596v86h26q34 0 64.5 4.5t53.5 18.5t36.5 41.5t13.5 72.5v1014q0 45 -13.5 72.5t-36.5 42.5t-53.5 19.5t-64.5 4.5h-26v86h596v-86h-27q-34 0 -65 -5t-53.5 -20.5t-36 -44.5t-13.5 -77v-578z" />
<glyph unicode="L" horiz-adv-x="1276" d="M78 0v86h26q35 0 65.5 5t53.5 20.5t36 44.5t13 77v996q0 48 -13 77t-36 44.5t-53.5 20.5t-65.5 5h-26v86h596v-86h-27q-34 0 -64.5 -4.5t-53.5 -19.5t-36.5 -42.5t-13.5 -72.5v-1135h404q46 0 78.5 16.5t53.5 43t32.5 59.5t15.5 66l20 153h107l-14 -440h-1098z" />
<glyph unicode="M" horiz-adv-x="1921" d="M1298 0v86h7q33 0 59.5 4.5t45 18t29.5 39t13 67.5v1094l-469 -1309h-111l-475 1305v-1072q0 -48 10 -77t29.5 -44.5t47 -20.5t61.5 -5h6v-86h-473v86h26q34 0 64.5 4.5t53.5 18.5t36.5 41.5t13.5 72.5v1014q0 45 -13.5 72.5t-36.5 42.5t-53.5 19.5t-64.5 4.5h-26v86h467 l424 -1171l420 1171h454v-86h-26q-35 0 -65.5 -5t-53.5 -20.5t-36 -44.5t-13 -77v-996q0 -48 13 -77t36 -44.5t53.5 -20.5t65.5 -5h26v-86h-545z" />
<glyph unicode="N" horiz-adv-x="1563" d="M1165 0l-768 1180v-947q0 -48 13.5 -77t36 -44.5t53.5 -20.5t65 -5h27v-86h-514v86h26q35 0 65.5 5t53.5 20.5t36 44.5t13 77v1004q0 45 -13.5 72.5t-36.5 42.5t-53.5 19.5t-64.5 4.5h-26v86h375l733 -1132v907q0 45 -13.5 72.5t-36.5 42.5t-53.5 19.5t-64.5 4.5h-27v86 h514v-86h-26q-35 0 -65.5 -5t-53.5 -20.5t-36 -44.5t-13 -77v-1229h-146z" />
<glyph unicode="O" horiz-adv-x="1520" d="M1403 733q0 -169 -42 -308t-124 -238t-202 -153t-275 -54q-163 0 -284 54t-201 153t-120 238.5t-40 309.5t40 308.5t120 236.5t202 151.5t285 53.5q155 0 274 -53.5t201 -152t124 -237t42 -309.5zM342 733q0 -152 22.5 -271.5t72.5 -202t129.5 -126t193.5 -43.5 t193.5 43.5t129 126t71.5 202t22 271.5t-22 271.5t-71.5 201.5t-128 125t-192.5 43t-194 -43t-130.5 -125t-73 -201.5t-22.5 -271.5z" />
<glyph unicode="P" horiz-adv-x="1237" d="M78 0v86h26q35 0 65.5 5t53.5 20.5t36 44.5t13 77v1004q0 45 -13.5 72.5t-36.5 42.5t-53.5 19.5t-64.5 4.5h-26v86h575q129 0 224 -29.5t157 -85t92.5 -134.5t30.5 -179q0 -91 -28.5 -175t-93.5 -148.5t-170 -103t-257 -38.5h-129v-346q0 -45 13.5 -72.5t36.5 -41.5 t53.5 -18.5t64.5 -4.5h68v-86h-637zM479 666h109q93 0 159 19.5t108 63t61.5 112t19.5 165.5q0 86 -17 149.5t-55 105.5t-98.5 62.5t-147.5 20.5h-139v-698z" />
<glyph unicode="Q" horiz-adv-x="1520" d="M1403 733q0 -150 -33 -276t-97.5 -222t-159 -158.5t-216.5 -84.5q9 -105 34 -175.5t64 -113t91 -60.5t114 -18h33v-96h-88q-81 0 -161.5 21.5t-146.5 74t-110.5 140t-54.5 219.5q-141 15 -245.5 74.5t-173.5 157t-103.5 229t-34.5 290.5q0 170 40 308.5t120 236.5 t202 151.5t285 53.5q155 0 274 -53.5t201 -152t124 -237t42 -309.5zM342 733q0 -152 22.5 -271.5t72.5 -202t129.5 -126t193.5 -43.5t193.5 43.5t129 126t71.5 202t22 271.5t-22 271.5t-71.5 201.5t-128 125t-192.5 43t-194 -43t-130.5 -125t-73 -201.5t-22.5 -271.5z" />
<glyph unicode="R" horiz-adv-x="1343" d="M1135 250q52 -82 101 -123t114 -41h6v-86h-29q-96 0 -157.5 7t-104.5 27t-73.5 56t-65.5 94l-277 461h-170v-422q0 -45 13.5 -72.5t36.5 -41.5t53.5 -18.5t64.5 -4.5h27v-86h-596v86h26q34 0 64.5 4.5t53.5 18.5t36.5 41.5t13.5 72.5v1014q0 45 -13.5 72.5t-36.5 42.5 t-53.5 19.5t-64.5 4.5h-26v86h551q266 0 396 -98.5t130 -296.5q0 -82 -26.5 -143.5t-69.5 -106.5t-97 -75t-108 -48zM479 741h144q90 0 150 20t96 60t51.5 100t15.5 140q0 82 -17 139.5t-55 94t-98.5 53t-147.5 16.5h-139v-623z" />
<glyph unicode="S" horiz-adv-x="1114" d="M506 -20q-100 0 -176.5 21t-128 58.5t-77.5 91t-26 117.5q0 62 38.5 100t109.5 38q3 -64 19.5 -123t49.5 -104t84 -72t123 -27q138 0 215.5 66.5t77.5 191.5q0 56 -16 99t-53 79.5t-97.5 70t-150.5 70.5q-95 39 -166 83.5t-118 99t-70 121.5t-23 151q0 88 33.5 157 t93.5 116.5t142 72.5t179 25q92 0 163 -19t120 -51t74.5 -73.5t25.5 -86.5q0 -66 -43.5 -99.5t-117.5 -33.5q0 48 -11.5 94.5t-38.5 83t-71 59.5t-109 23q-59 0 -105.5 -16.5t-78.5 -47t-49 -73.5t-17 -96q0 -61 16 -107.5t53.5 -84t98.5 -71t150 -69.5q90 -37 160.5 -78 t119.5 -91.5t75 -113t26 -141.5q0 -97 -35.5 -173.5t-101.5 -129.5t-159 -80.5t-208 -27.5z" />
<glyph unicode="T" horiz-adv-x="1255" d="M729 233q0 -48 13.5 -77t36 -44.5t53.5 -20.5t65 -5h47v-86h-637v86h47q34 0 64.5 4.5t53.5 18.5t36.5 41.5t13.5 72.5v1137h-196q-45 0 -75.5 -13.5t-50 -36.5t-29 -53.5t-13.5 -64.5l-11 -88h-106l10 358h1153l10 -358h-106l-10 88q-4 34 -14 64.5t-29 53.5t-50 36.5 t-77 13.5h-199v-1127z" />
<glyph unicode="U" horiz-adv-x="1468" d="M741 -20q-121 0 -217 25.5t-162.5 81t-101.5 143t-35 212.5v795q0 45 -13.5 72.5t-36.5 42.5t-53.5 19.5t-64.5 4.5h-26v86h596v-86h-27q-34 0 -65 -5t-53.5 -20.5t-36 -44.5t-13.5 -77v-799q0 -89 25.5 -151.5t71 -101.5t108 -57t137.5 -18q89 0 153.5 24t107 66.5 t63 101t20.5 128.5v815q0 45 -13.5 72.5t-36.5 42.5t-53.5 19.5t-64.5 4.5h-26v86h514v-86h-27q-34 0 -65 -5t-53.5 -20.5t-36 -44.5t-13.5 -77v-811q0 -102 -32.5 -183.5t-96 -138t-157.5 -86.5t-216 -30z" />
<glyph unicode="V" horiz-adv-x="1382" d="M614 0l-442 1268q-11 32 -24 53t-30 33t-39 17t-52 5h-27v86h563v-86h-47q-62 0 -92.5 -23.5t-30.5 -74.5q0 -17 4.5 -35t12.5 -41l225 -665q31 -91 53 -176.5t39 -159.5q16 74 38 157t56 179l226 651q8 25 13 48t5 40q0 53 -33.5 76.5t-101.5 23.5h-47v86h499v-86h-39 q-30 0 -51.5 -6t-39 -23.5t-32.5 -48.5t-32 -81l-424 -1217h-150z" />
<glyph unicode="W" horiz-adv-x="2144" d="M1180 1448l256 -887q29 -102 51.5 -195.5t36.5 -164.5q15 74 34.5 155.5t47.5 180.5l180 632q3 12 7 27t7 30t5.5 28t2.5 22q0 53 -33.5 76.5t-101.5 23.5h-47v86h500v-86h-39q-30 0 -52.5 -6t-40.5 -23t-33 -48t-30 -82l-346 -1217h-184l-334 1147l-313 -1147h-189 l-375 1268q-10 32 -22.5 53t-29.5 33t-40 17t-53 5h-27v86h564v-86h-47q-62 0 -92.5 -23.5t-30.5 -74.5q0 -17 5 -35t11 -41l188 -655q26 -93 49 -182.5t40 -163.5q15 80 35.5 174.5t47.5 193.5l244 879h148z" />
<glyph unicode="X" horiz-adv-x="1352" d="M954 1317q0 18 -8.5 29.5t-23 18t-34.5 9t-44 2.5h-6v86h448v-86h-18q-30 0 -54.5 -7t-47.5 -24.5t-47.5 -45.5t-53.5 -70l-297 -428l377 -606q45 -60 85 -84.5t79 -24.5h26v-86h-553v86h11q122 0 122 68q0 11 -2.5 22t-9.5 26t-20.5 37t-34.5 56l-203 326l-227 -336 q-9 -13 -18 -29.5t-17 -34.5t-13 -36.5t-5 -34.5q0 -35 32.5 -49.5t100.5 -14.5h6v-86h-488v86h13q37 0 64.5 7.5t51 24.5t46.5 44t51 67l342 490l-338 549q-37 59 -83.5 83.5t-92.5 24.5h-27v86h555v-86h-6q-35 0 -58 -4.5t-36 -12.5t-18 -19t-5 -23q0 -11 1.5 -21 t6.5 -23.5t14.5 -31.5t26.5 -45l185 -299l194 295q23 35 37 66t14 59z" />
<glyph unicode="Y" horiz-adv-x="1280" d="M326 0v86h47q34 0 64.5 4.5t53.5 18.5t36.5 41.5t13.5 72.5v387l-379 658q-17 29 -32 49.5t-31.5 33.5t-36.5 19t-46 6h-26v86h563v-86h-76q-28 0 -45.5 -5t-27.5 -14t-13.5 -21t-3.5 -25q0 -29 12.5 -58t24.5 -51l151 -274q36 -63 61 -124.5t42 -109.5q9 22 22.5 49 t30 57.5t34.5 63t36 64.5l131 235q20 35 28.5 66.5t8.5 56.5q0 45 -32 67.5t-91 22.5h-60v86h500v-86h-24q-22 0 -41.5 -7.5t-39.5 -26t-41.5 -49t-47.5 -76.5l-344 -607v-377q0 -48 13 -77t36 -44.5t53.5 -20.5t64.5 -5h48v-86h-637z" />
<glyph unicode="Z" horiz-adv-x="1212" d="M1094 1378l-770 -1276h516q46 0 77 13.5t50 36.5t29 53.5t14 64.5l10 88h106l-10 -358h-1042v82l768 1278h-445q-45 0 -75.5 -13.5t-49.5 -36.5t-29 -53.5t-14 -64.5l-10 -88h-106l10 358h971v-84z" />
<glyph unicode="[" horiz-adv-x="735" d="M205 -262v1818h457v-86h-89q-34 0 -64.5 -5t-53.5 -20.5t-36 -44.5t-13 -77v-1352q0 -48 13 -77t36 -44.5t53.5 -20.5t64.5 -5h89v-86h-457z" />
<glyph unicode="\" horiz-adv-x="590" d="M0 1556h119l471 -1804h-121z" />
<glyph unicode="]" horiz-adv-x="737" d="M76 -262v86h88q35 0 65.5 5t53 20.5t36 44.5t13.5 77v1352q0 48 -13.5 77t-36 44.5t-53 20.5t-65.5 5h-88v86h456v-1818h-456z" />
<glyph unicode="^" horiz-adv-x="1145" d="M535 1462h71l432 -917h-137l-332 729l-327 -729h-138z" />
<glyph unicode="_" horiz-adv-x="940" d="M950 -291h-960v121h960v-121z" />
<glyph unicode="`" d="M791 1241h-78q-41 28 -89 69.5t-93 85.5t-82 84.5t-56 67.5v21h219q16 -34 37.5 -74.5t45.5 -81t49 -78.5t47 -67v-27z" />
<glyph unicode="a" horiz-adv-x="1153" d="M301 297q0 -96 40.5 -143.5t125.5 -47.5q62 0 112.5 20t86 57t54.5 90t19 118v166l-131 -6q-87 -4 -145.5 -21.5t-94.5 -49t-51.5 -77.5t-15.5 -106zM549 1016q-59 0 -95.5 -16.5t-57 -46.5t-27.5 -71t-7 -89q-85 0 -129.5 29t-44.5 100q0 53 29 90t79.5 60.5t117.5 34.5 t143 11q94 0 164 -18.5t117 -60.5t70.5 -109.5t23.5 -165.5v-531q0 -43 7 -71t22 -45t39.5 -24t58.5 -7h6v-86h-277l-32 176h-17q-32 -43 -62 -79t-66 -62t-81.5 -40.5t-109.5 -14.5q-68 0 -126.5 19.5t-101 60t-66.5 102t-24 145.5q0 163 116 242t351 86l170 6v123 q0 55 -6 101.5t-26 80t-57.5 52t-100.5 18.5z" />
<glyph unicode="b" horiz-adv-x="1257" d="M1145 551q0 -148 -27.5 -256t-80.5 -178t-131 -103.5t-179 -33.5q-59 0 -107 13t-86.5 37t-68 57t-51.5 73h-13l-36 -160h-328v86h16q35 0 65.5 5t53 20.5t36 44.5t13.5 77v1098q0 45 -13.5 72.5t-36.5 42.5t-53.5 19.5t-64.5 4.5h-16v86h377v-376q0 -35 -1 -80.5 t-3 -87.5q-2 -48 -4 -99h8q23 47 52 85t67 64.5t86 41t108 14.5q101 0 179 -33.5t131 -103t80.5 -176.5t27.5 -254zM692 987q-80 0 -133.5 -26.5t-85.5 -80.5t-45.5 -136t-13.5 -193q0 -107 13.5 -189t46 -138t86 -84.5t134.5 -28.5q68 0 115.5 28.5t78 84.5t44.5 138.5 t14 190.5q0 109 -14 190.5t-44.5 135.5t-79 81t-116.5 27z" />
<glyph unicode="c" horiz-adv-x="1008" d="M580 -20q-102 0 -188 31.5t-148 99.5t-96.5 174.5t-34.5 257.5q0 164 34.5 274.5t96 177.5t145 95t180.5 28q64 0 127.5 -12.5t114.5 -38.5t83 -65.5t32 -92.5q0 -71 -46 -100t-137 -29q0 48 -8 91t-27.5 75.5t-53 51t-85.5 18.5q-59 0 -106.5 -22t-81.5 -76t-52 -145 t-18 -228q0 -218 72.5 -325t237.5 -107q95 0 166 40t106 103q15 -12 25 -32t10 -48q0 -35 -22 -70t-65.5 -63t-108.5 -45.5t-152 -17.5z" />
<glyph unicode="d" horiz-adv-x="1257" d="M1036 225q0 -45 13.5 -72.5t36.5 -42.5t53.5 -19.5t64.5 -4.5h17v-86h-347l-22 184h-8q-23 -47 -52.5 -84.5t-67.5 -64t-86 -41t-108 -14.5q-101 0 -179 33.5t-131 103t-80 176.5t-27 254q0 148 27 256t80 178t131 103.5t179 33.5q59 0 107 -13t86.5 -37t68.5 -57t52 -73 h12q-3 50 -6 94q-2 38 -4 75.5t-2 55.5v168q0 45 -13.5 72.5t-36.5 42.5t-53.5 19.5t-64.5 4.5h-17v86h377v-1331zM565 111q80 0 133.5 26.5t86 80.5t46 136t13.5 193q0 107 -13.5 189t-46 137.5t-86.5 84.5t-135 29q-67 0 -115 -29t-78.5 -85t-44.5 -138.5t-14 -189.5 q0 -218 59 -326t195 -108z" />
<glyph unicode="e" horiz-adv-x="1096" d="M563 1008q-114 0 -175.5 -92.5t-72.5 -270.5h471q0 81 -12 148t-38 115t-68.5 74t-104.5 26zM588 -20q-111 0 -199.5 37.5t-149.5 109.5t-93.5 176.5t-32.5 237.5q0 287 118 432t336 145q99 0 178 -31t134 -92.5t84.5 -153t29.5 -212.5v-94h-682q2 -112 22.5 -192.5 t59 -132.5t94.5 -76.5t129 -24.5q53 0 98.5 12t82.5 32t65.5 45.5t46.5 53.5q14 -6 26.5 -25t12.5 -45q0 -31 -22 -66.5t-67 -65.5t-112.5 -50t-158.5 -20z" />
<glyph unicode="f" horiz-adv-x="756" d="M688 86v-86h-633v86h27q35 0 65.5 5t53 20.5t36 44.5t13.5 77v768h-187v97h187v102q0 92 25 162t72 118t114 72.5t151 24.5q80 0 135 -10.5t88.5 -29.5t48.5 -45t15 -58q0 -28 -12.5 -49.5t-35 -36t-53 -22t-67.5 -7.5q0 31 -6.5 60.5t-22 52.5t-41.5 37t-65 14 q-44 0 -73.5 -17t-47.5 -50.5t-25.5 -82.5t-7.5 -114v-121h289v-97h-289v-768q0 -48 13.5 -77t36 -44.5t53.5 -20.5t65 -5h78z" />
<glyph unicode="g" horiz-adv-x="1102" d="M1077 1055q0 -22 -6.5 -41.5t-19.5 -34t-33.5 -23t-48.5 -8.5q0 12 -3 24t-10.5 22.5t-20.5 17t-34 6.5q-26 0 -47 -6t-41 -19q35 -43 57.5 -101.5t22.5 -146.5q0 -76 -23 -140.5t-68.5 -111.5t-115 -73.5t-162.5 -26.5q-12 0 -27 0.5l-30 1t-28 2t-21 2.5 q-20 -10 -38 -22t-31.5 -27t-21.5 -34t-8 -42q0 -25 9.5 -40t26.5 -23.5t40.5 -11t50.5 -2.5h232q92 0 156 -23t104.5 -63.5t59 -97t18.5 -122.5q0 -88 -32.5 -159t-99.5 -120.5t-169.5 -76.5t-241.5 -27q-214 0 -320 79t-106 220q0 60 21 105t56.5 77t81.5 52t97 29 q-21 9 -41 24t-36 36t-26 48t-10 60q0 61 32 105.5t102 86.5q-44 18 -78.5 49.5t-58 72t-36 88.5t-12.5 99q0 89 24 159t72 119t120 75t169 26q37 0 73 -5.5t66.5 -15t55 -21.5t39.5 -25q15 16 35 35.5t45 36t54.5 27.5t63.5 11q31 0 53.5 -8.5t37.5 -23t22.5 -34t7.5 -40.5 zM213 -180q0 -45 12 -84t42 -67t81 -44t129 -16q110 0 181.5 18.5t113.5 51.5t59 78.5t17 99.5q0 47 -13.5 77.5t-40 48t-65.5 24.5t-90 7h-201q-43 0 -83.5 -7.5t-72 -28.5t-50.5 -59t-19 -99zM332 745q0 -131 43.5 -192t142.5 -61q50 0 84.5 15t56.5 46t31.5 79.5 t9.5 115.5q0 138 -42 204t-142 66q-99 0 -141.5 -67.5t-42.5 -205.5z" />
<glyph unicode="h" horiz-adv-x="1300" d="M588 86v-86h-551v86h16q35 0 65.5 5t53 20.5t36 44.5t13.5 77v1098q0 45 -13.5 72.5t-36.5 42.5t-53.5 19.5t-64.5 4.5h-16v86h377v-450q0 -28 -1 -58.5t-3 -56.5q-2 -30 -4 -59h10q92 186 301 186q87 0 154.5 -23.5t113.5 -72t70 -124.5t24 -181v-484q0 -48 12 -77 t33 -44.5t50 -20.5t63 -5h6v-86h-356v707q0 67 -12 119t-38.5 88t-69.5 54.5t-105 18.5q-64 0 -110.5 -23.5t-77 -67t-45.5 -105t-15 -136.5v-432q0 -45 13.5 -72.5t36.5 -41.5t53.5 -18.5t64.5 -4.5h6z" />
<glyph unicode="i" horiz-adv-x="655" d="M74 86q34 0 64.5 4.5t53.5 18.5t36.5 41.5t13.5 72.5v649q0 45 -13.5 72.5t-36.5 42.5t-53.5 20t-64.5 5h-6v86h366v-865q0 -48 13.5 -77t36 -44.5t53.5 -20.5t65 -5h27v-86h-582v86h27zM213 1430q0 36 9 60t25 39t37 21t46 6q24 0 45 -6t36.5 -21t25 -39t9.5 -60 t-9.5 -60t-25 -39t-36.5 -21.5t-45 -6.5q-25 0 -46 6.5t-37 21.5t-25 39t-9 60z" />
<glyph unicode="j" horiz-adv-x="614" d="M414 1098v-1114q0 -138 -30 -229.5t-84 -146t-128.5 -77.5t-163.5 -23h-33v97h15q55 0 98 18.5t72.5 62t45 116t15.5 180.5v890q0 45 -13.5 72.5t-36.5 42.5t-53.5 20t-64.5 5h-6v86h367zM193 1430q0 36 9 60t24.5 39t37 21t45.5 6t45.5 -6t37 -21t25 -39t9.5 -60 t-9.5 -60t-25 -39t-37 -21.5t-45.5 -6.5t-45.5 6.5t-37 21.5t-24.5 39t-9 60z" />
<glyph unicode="k" horiz-adv-x="1198" d="M694 659l273 -405q53 -82 105.5 -125t121.5 -43h6v-86h-29q-89 0 -146.5 5.5t-99.5 26t-77 60t-78 107.5l-205 321l-151 -112v-185q0 -45 13.5 -72.5t36.5 -41.5t53.5 -18.5t64.5 -4.5h6v-86h-551v86h16q35 0 65.5 5t53 20.5t36 44.5t13.5 77v1098q0 45 -13.5 72.5 t-36.5 42.5t-53.5 19.5t-64.5 4.5h-16v86h377v-790q0 -28 -1 -71.5t-3 -85.5q-2 -48 -4 -101l256 280q33 37 54.5 65t34.5 49t18 37.5t5 31.5q0 26 -24.5 33.5t-75.5 7.5v86h452v-86q-71 0 -139.5 -50t-148.5 -141z" />
<glyph unicode="l" horiz-adv-x="635" d="M53 86q35 0 65.5 5t53 20.5t36 44.5t13.5 77v1098q0 45 -13.5 72.5t-36.5 42.5t-53.5 19.5t-64.5 4.5h-26v86h387v-1323q0 -48 13 -77t36 -44.5t53.5 -20.5t65.5 -5h26v-86h-581v86h26z" />
<glyph unicode="m" horiz-adv-x="1935" d="M608 86v-86h-551v86h27q35 0 64 5t50 20.5t32.5 44.5t11.5 77v639q0 45 -12 72.5t-33 42.5t-50 20t-63 5h-6v86h321l27 -166h10q31 57 65 93.5t72.5 57t81 28t90.5 7.5q50 0 95 -10t83.5 -32t69 -57.5t49.5 -86.5h17q31 57 67 93.5t76.5 57t85 28t92.5 7.5 q78 0 140 -23.5t105 -72t66 -124.5t23 -181v-484q0 -48 12 -77t33 -44.5t50 -20.5t63 -5h6v-86h-356v707q0 67 -11.5 119t-37 88t-66.5 54.5t-100 18.5q-64 0 -107.5 -24.5t-70.5 -66.5t-38.5 -97t-11.5 -117v-449q0 -48 12 -77t33 -44.5t50 -20.5t63 -5h6v-86h-356v707 q0 67 -11.5 119t-37 88t-66.5 54.5t-100 18.5q-67 0 -112.5 -27t-73.5 -73t-40 -106t-12 -126v-432q0 -45 13.5 -72.5t36.5 -41.5t53.5 -18.5t64.5 -4.5h6z" />
<glyph unicode="n" horiz-adv-x="1321" d="M608 86v-86h-551v86h17q35 0 65.5 5t53 20.5t36 44.5t13.5 77v639q0 45 -13.5 72.5t-36.5 42.5t-53.5 20t-64.5 5h-6v86h331l27 -166h10q32 57 67.5 93.5t75 57t84 28t93.5 7.5q81 0 144.5 -23.5t108 -72t68 -124.5t23.5 -181v-484q0 -48 11.5 -77t32.5 -44.5t50 -20.5 t63 -5h7v-86h-357v707q0 67 -12 119t-38.5 88t-69.5 54.5t-105 18.5q-70 0 -117.5 -27t-76.5 -73t-41.5 -106t-12.5 -126v-432q0 -45 13.5 -72.5t36.5 -41.5t53.5 -18.5t64.5 -4.5h6z" />
<glyph unicode="o" d="M1069 551q0 -289 -122.5 -430t-358.5 -141q-111 0 -199 35t-149.5 106t-94 178.5t-32.5 251.5q0 287 121.5 427t359.5 140q111 0 199 -34.5t149.5 -105t94 -177t32.5 -250.5zM311 551q0 -114 15 -201t48.5 -145.5t87 -88.5t130.5 -30t130 30t86 88.5t47.5 145.5t14.5 201 t-15 200t-48 143.5t-86.5 86.5t-130.5 29t-130 -29t-86 -86.5t-48 -143.5t-15 -200z" />
<glyph unicode="p" horiz-adv-x="1257" d="M692 987q-80 0 -133.5 -26.5t-85.5 -80.5t-45.5 -136t-13.5 -193q0 -107 13.5 -189t46 -138t86 -84.5t134.5 -28.5q68 0 115.5 28.5t78 84.5t44.5 138.5t14 190.5q0 109 -14 190.5t-44.5 135.5t-79 81t-116.5 27zM1145 551q0 -148 -27.5 -256t-80.5 -178t-131 -103.5 t-179 -33.5q-59 0 -107 13t-86.5 37t-68 57t-51.5 73h-8q2 -53 4 -99q1 -19 1.5 -39.5t1 -38.5t1 -32.5t0.5 -22.5v-196q0 -45 13.5 -72.5t36.5 -42t53.5 -19t64.5 -4.5h6v-86h-551v86h16q35 0 65.5 5t53 20.5t36 45t13.5 77.5v1130q0 45 -13.5 72.5t-36.5 42.5t-53.5 20 t-64.5 5h-26v86h358l21 -185h8q23 47 52 85t67 64.5t86 41t108 14.5q101 0 179 -33.5t131 -103t80.5 -176.5t27.5 -254z" />
<glyph unicode="q" horiz-adv-x="1257" d="M1221 -492h-613v86h68q35 0 65.5 5t53 20.5t36 45t13.5 77.5v176q0 35 1 80.5t3 87.5q2 48 4 98h-8q-23 -47 -52.5 -84.5t-67.5 -64t-86 -41t-108 -14.5q-101 0 -179 33.5t-131 103t-80 176.5t-27 254q0 148 27 256t80 178t131 103.5t179 33.5q59 0 107 -13t86.5 -37 t68.5 -57t52 -73h12l37 160h328v-86h-17q-34 0 -65 -5t-53.5 -20.5t-36 -45t-13.5 -77.5v-1130q0 -45 13.5 -72.5t36.5 -42.5t53.5 -20t64.5 -5h17v-86zM565 111q80 0 133.5 26.5t86 80.5t46 136t13.5 193q0 107 -13.5 189t-46 137.5t-86.5 84.5t-135 29q-67 0 -115 -29 t-78.5 -85t-44.5 -138.5t-14 -189.5q0 -218 59 -326t195 -108z" />
<glyph unicode="r" horiz-adv-x="965" d="M659 0h-591v86h6q35 0 65.5 5t53 20.5t36 44.5t13.5 77v639q0 45 -13.5 72.5t-36.5 42.5t-53.5 20t-64.5 5h-6v86h315l39 -203h10q20 46 41 86.5t51.5 71t75.5 48t113 17.5q112 0 166.5 -39t54.5 -110q0 -32 -10.5 -59t-33.5 -46.5t-59 -30t-88 -10.5q0 85 -24 122.5 t-84 37.5q-38 0 -68 -21.5t-52.5 -57t-38 -81.5t-25 -94.5t-13.5 -96.5t-4 -87v-322q0 -45 13.5 -72.5t36.5 -41.5t53.5 -18.5t64.5 -4.5h57v-86z" />
<glyph unicode="s" horiz-adv-x="924" d="M430 -20q-77 0 -139.5 13.5t-106.5 41t-68 68t-24 94.5q0 41 13.5 68.5t33 43.5t42 22.5t40.5 6.5q0 -54 11 -101t37 -82.5t68.5 -56t104.5 -20.5q55 0 97 13.5t70.5 38t43.5 59t15 75.5q0 38 -11.5 65.5t-40 51.5t-77.5 49t-123 57q-79 35 -137.5 67.5t-96.5 70.5 t-57 86.5t-19 115.5q0 70 27.5 124t78.5 90.5t122 55.5t158 19q73 0 129 -15t94 -40.5t57 -60t19 -72.5q0 -56 -38.5 -89.5t-109.5 -33.5q0 103 -42.5 160t-133.5 57q-52 0 -89 -12t-60.5 -34t-34.5 -52t-11 -66q0 -39 14 -67.5t44.5 -52.5t79 -46.5t116.5 -50.5 q81 -34 139 -67t95.5 -72t55.5 -88t18 -113q0 -80 -29 -140t-82 -100.5t-127.5 -60.5t-165.5 -20z" />
<glyph unicode="t" horiz-adv-x="721" d="M543 88q37 0 68 4t63 10v-90q-13 -6 -34 -12t-45.5 -10.5t-51.5 -7t-51 -2.5q-78 0 -134 16.5t-92 53.5t-53.5 98t-17.5 149v684h-156v82q37 0 81.5 15t78.5 50q35 38 56.5 90.5t37.5 131.5h94v-252h268v-117h-268v-690q0 -105 42.5 -154t113.5 -49z" />
<glyph unicode="u" horiz-adv-x="1300" d="M1079 223q0 -45 13.5 -72.5t36.5 -41.5t53.5 -18.5t64.5 -4.5h6v-86h-325l-27 166h-10q-31 -58 -68.5 -94t-79.5 -56.5t-88 -28t-96 -7.5q-81 0 -144 23t-106 72t-65.5 125t-22.5 181v491q0 45 -13.5 72.5t-36.5 42.5t-53.5 20t-64.5 5h-6v86h367v-707q0 -67 10.5 -119 t35 -88t66 -54.5t103.5 -18.5q68 0 116.5 24t80 67.5t46.5 104.5t15 135v422q0 48 -13.5 77.5t-36 45t-53 20.5t-65.5 5h-6v86h366v-875z" />
<glyph unicode="v" horiz-adv-x="1186" d="M8 1012v86h512v-86h-26q-62 0 -92.5 -24t-30.5 -75q0 -17 4 -34.5t12 -40.5l139 -387q13 -36 27 -79.5t26.5 -85.5t22.5 -79.5t14 -63.5h7q5 22 16.5 54.5t26 71t30 78.5t29.5 77l147 399q10 25 14.5 48t4.5 40q0 53 -33.5 77t-101.5 24h-15v86h439v-86h-25 q-30 0 -51 -6.5t-38 -24.5t-32.5 -49t-34.5 -80l-323 -852h-187l-329 903q-12 32 -25 53t-30 33.5t-39 17.5t-52 5h-6z" />
<glyph unicode="w" horiz-adv-x="1765" d="M975 1092l205 -607q12 -37 25.5 -79.5t25.5 -84t22 -78.5t15 -63h6q9 51 29 125.5t51 173.5l102 330q8 26 13.5 55.5t5.5 46.5q0 53 -33.5 77t-102.5 24h-14v86h438v-86h-26q-30 0 -52 -6t-39.5 -23.5t-32.5 -48.5t-30 -82l-264 -852h-164l-244 721l-37 135l-290 -856 h-162l-268 903q-12 32 -25 53t-30 33.5t-39 17.5t-52 5h-6v86h506v-86h-27q-61 0 -92 -18t-31 -68q0 -17 5.5 -41t11.5 -47l96 -344q10 -37 21 -81t20.5 -87.5t17.5 -81.5t13 -64h6q5 26 13.5 60.5t20 74t24.5 80.5t26 78l213 619h129z" />
<glyph unicode="x" horiz-adv-x="1184" d="M786 952q0 37 -31.5 48.5t-78.5 11.5h-6v86h448v-86h-18q-30 0 -54.5 -5t-48 -19t-48.5 -40t-56 -67l-211 -281l301 -405q45 -60 85.5 -84.5t78.5 -24.5h27v-86h-529v86h10q123 0 123 68q0 11 -3 22.5t-12 27t-24 37.5t-39 54l-137 184l-143 -200q-9 -12 -19 -28t-18 -33 t-13 -34.5t-5 -33.5q0 -35 29 -49.5t98 -14.5h6v-86h-488v86h19q37 0 65 6t53 21t50 40.5t55 63.5l258 334l-258 352q-45 53 -87.5 81t-88.5 28h-27v86h520v-86h-6q-35 0 -58 -4.5t-36 -13t-18 -19.5t-5 -23q0 -21 12.5 -41.5t35.5 -52.5l135 -184l106 153q23 35 37 66 t14 59z" />
<glyph unicode="y" horiz-adv-x="1157" d="M1157 1098v-86h-6q-30 0 -51.5 -6.5t-39 -24.5t-32.5 -49t-33 -80l-311 -860q-36 -99 -68 -174t-67 -128.5t-76.5 -88.5t-94.5 -56t-122 -29t-160 -8h-18v97q104 0 179 31t129.5 85t91 127.5t61.5 159.5l-379 895q-14 32 -27 52.5t-29.5 33.5t-38 18t-51.5 5h-6v86h492 v-86h-6q-62 0 -92.5 -24t-30.5 -75q0 -17 3.5 -34.5t12.5 -40.5l150 -365q14 -35 29.5 -76.5t29 -82t24.5 -76.5t15 -62h6q11 45 30.5 109.5t45.5 138.5l137 399q9 25 13.5 48t4.5 40q0 53 -33.5 77t-101.5 24h-6v86h426z" />
<glyph unicode="z" horiz-adv-x="1047" d="M696 117q36 0 59.5 14t39 37t25 53.5t16.5 63.5l10 47h86l-10 -332h-836v82l594 899h-320q-40 0 -66 -10.5t-42.5 -31.5t-27 -52t-21.5 -72l-2 -8h-86l20 291h785v-84l-596 -897h372z" />
<glyph unicode="{" horiz-adv-x="877" d="M639 -262q-72 0 -127.5 21t-92.5 59t-56 92.5t-19 122.5v356q0 63 -18.5 104t-51.5 65.5t-77 35t-95 12.5v86q51 2 95 12t77 34.5t51.5 65.5t18.5 103v357q0 140 74.5 216t220.5 76h135v-88h-61q-91 0 -129.5 -54t-38.5 -161v-350q0 -100 -56.5 -166.5t-171.5 -85.5v-2 q118 -20 173 -86t55 -168v-354q0 -105 38.5 -160t129.5 -55h61v-88h-135z" />
<glyph unicode="|" horiz-adv-x="1145" d="M633 -492h-123v2048h123v-2048z" />
<glyph unicode="}" horiz-adv-x="877" d="M102 -174h62q91 0 129.5 55t38.5 160v354q0 102 54.5 168t172.5 86v2q-114 19 -170.5 85.5t-56.5 166.5v350q0 107 -38.5 161t-129.5 54h-62v88h136q145 0 219.5 -76t74.5 -216v-357q0 -62 19 -103t51.5 -65.5t76.5 -34.5t95 -12v-86q-51 -2 -95 -12.5t-76.5 -35 t-51.5 -65.5t-19 -104v-356q0 -68 -19 -122.5t-56 -92.5t-92 -59t-127 -21h-136v88z" />
<glyph unicode="~" horiz-adv-x="1149" d="M776 551q-30 0 -62 12.5t-63.5 31.5t-60 41.5t-51.5 43.5t-45 40.5t-43.5 34.5t-43.5 24t-45 9q-60 0 -89 -58t-40 -179h-120q6 64 18.5 128t40.5 115t75.5 83t123.5 32q34 0 68 -13t66 -33t60.5 -44t52.5 -45q22 -20 43 -38.5t41.5 -32.5t41.5 -22.5t42 -8.5 q57 0 84 61.5t41 175.5h123q-7 -64 -21 -128t-42.5 -115t-75 -83t-119.5 -32z" />
<glyph unicode="&#xa1;" horiz-adv-x="682" d="M459 -367h-238l72 1051h94zM469 971q0 -40 -10 -67t-27.5 -43t-41 -23t-50.5 -7q-26 0 -49.5 7t-41 23t-28 43t-10.5 67q0 39 10.5 65.5t28 43t41 23.5t49.5 7q27 0 50.5 -7t41 -23.5t27.5 -43t10 -65.5z" />
<glyph unicode="&#xa2;" horiz-adv-x="1145" d="M584 180q-93 10 -170.5 45.5t-133.5 102t-87 168t-31 243.5q0 152 33 258t90 173.5t134 101t165 41.5v149h102v-149q59 -5 118 -19.5t106 -40t76.5 -62.5t29.5 -85q0 -71 -45.5 -100t-136.5 -29q0 42 -9 80.5t-27 69t-46 51.5t-66 28v-909q42 0 84.5 6t81.5 15.5t73 21 t58 22.5v-112q-53 -28 -129.5 -50t-167.5 -24v-176h-102v180zM360 741q0 -183 54.5 -292t169.5 -140v897q-49 -9 -90 -37.5t-71 -83t-46.5 -139t-16.5 -205.5z" />
<glyph unicode="&#xa3;" horiz-adv-x="1145" d="M500 690q15 -51 28 -104t13 -115q0 -88 -49.5 -155.5t-131.5 -122.5l5 -9q42 20 78.5 28.5t70.5 8.5q41 0 90 -12t97.5 -27t93 -27t75.5 -12q36 0 66.5 10.5t57.5 27.5t49.5 38.5t41.5 44.5v-133q-18 -25 -43 -52t-58 -49t-74.5 -36t-92.5 -14t-100 14.5t-99 31.5 t-101.5 31.5t-106.5 14.5q-68 0 -127 -19.5t-125 -50.5l-27 -12v108l37 23q38 23 75.5 55.5t67.5 75t49 94.5t19 113q0 60 -15 117.5t-36 113.5h-228v96h189q-14 32 -28 71t-25 81.5t-18 87t-7 86.5q0 88 29 157t83 116.5t131.5 72.5t174.5 25q99 0 168 -17.5t112 -48.5 t62.5 -73t19.5 -91q0 -66 -43.5 -99.5t-118.5 -33.5q0 48 -8.5 94.5t-31 83t-63 59.5t-105.5 23q-119 0 -174.5 -68t-55.5 -196q0 -48 8 -94t20 -88.5t26 -80t26 -67.5h348v-96h-319z" />
<glyph unicode="&#xa4;" horiz-adv-x="1145" d="M197 733q0 62 17.5 117.5t51.5 101.5l-135 135l86 87l133 -136q47 34 102.5 53t118.5 19q60 0 115.5 -19t101.5 -53l138 138l86 -89l-135 -135q34 -46 52.5 -101.5t18.5 -117.5t-18.5 -117.5t-52.5 -101.5l135 -135l-84 -86l-137 135q-47 -32 -102.5 -51t-117.5 -19 t-117 18t-102 52l-135 -135l-86 86l133 135q-32 46 -49.5 101.5t-17.5 117.5zM311 733q0 -54 20.5 -101.5t56 -83t82.5 -56.5t101 -21q56 0 104 21t83 56.5t55.5 83t20.5 101.5q0 56 -20.5 104t-55.5 83.5t-83 56t-104 20.5q-54 0 -101 -20.5t-82.5 -56t-56 -83.5 t-20.5 -104z" />
<glyph unicode="&#xa5;" horiz-adv-x="1145" d="M264 0v86h47q34 0 64 4.5t52.5 18.5t36 41.5t15.5 72.5v139h-286v97h286v143h-286v96h247l-278 570q-15 30 -28 50.5t-29.5 33.5t-37.5 18.5t-51 5.5h-6v86h498v-86h-14q-62 0 -89.5 -19t-27.5 -61q0 -24 8 -54.5t25 -65.5l98 -218q15 -32 29 -69t26.5 -73t22.5 -67 t16 -51q4 11 13 32.5t20.5 47t24 52t22.5 47.5l117 249q24 54 36.5 99.5t12.5 68.5q0 42 -28.5 62t-96.5 20h-6v86h418v-86h-19q-26 0 -45 -7t-35.5 -25t-34 -49t-40.5 -78l-250 -519h254v-96h-287v-143h287v-97h-287v-129q0 -48 13.5 -77t36 -44.5t53 -20.5t65.5 -5h47v-86 h-629z" />
<glyph unicode="&#xa6;" horiz-adv-x="1145" d="M633 737h-123v819h123v-819zM633 -492h-123v820h123v-820z" />
<glyph unicode="&#xa7;" horiz-adv-x="1114" d="M598 795q-74 35 -138.5 69t-117.5 76q-22 -20 -36.5 -48t-14.5 -69t14 -73.5t48 -64t91.5 -64.5t145.5 -76q62 -31 122 -62.5t109 -74.5q17 24 28 53t11 63q0 35 -10 66t-38.5 63t-80 66.5t-133.5 75.5zM571 -133q126 0 188 55.5t62 149.5q0 45 -11 78.5t-48.5 67 t-109 74t-191.5 99.5q-81 40 -138.5 81.5t-93.5 87.5t-52.5 98.5t-16.5 113.5q0 77 34 134.5t87 94.5q-38 45 -57 100.5t-19 129.5q0 78 28.5 138.5t78.5 102t119.5 63t150.5 21.5q84 0 146.5 -17.5t104 -48t62 -72.5t20.5 -91q0 -66 -39.5 -95.5t-105.5 -29.5q0 48 -10 93 t-33.5 80.5t-61 57t-92.5 21.5q-102 0 -158.5 -51t-56.5 -148q0 -54 20.5 -90.5t61 -66t99.5 -57.5t137 -66q87 -42 150 -84t104 -87.5t60.5 -96.5t19.5 -111q0 -37 -10.5 -73.5t-27.5 -70t-39 -63t-46 -53.5q29 -40 46 -90t17 -113q0 -81 -22.5 -148t-70 -115.5t-122 -75.5 t-178.5 -27q-79 0 -143.5 15.5t-110.5 45.5t-71 74t-25 102q0 42 13.5 69.5t33 44t42 23t40.5 6.5q0 -54 13.5 -104.5t42 -89.5t73 -62.5t106.5 -23.5z" />
<glyph unicode="&#xa8;" d="M291 1409q0 32 8 54t22 35.5t33 19.5t41 6t41 -6t33.5 -19.5t22.5 -35.5t8 -54q0 -31 -8 -53t-22.5 -36t-33.5 -20t-41 -6q-45 0 -74.5 26t-29.5 89zM680 1409q0 32 8 54t22 35.5t33 19.5t41 6t41 -6t33.5 -19.5t22.5 -35.5t8 -54q0 -31 -8 -53t-22.5 -36t-33.5 -20 t-41 -6q-45 0 -74.5 26t-29.5 89z" />
<glyph unicode="&#xa9;" horiz-adv-x="1731" d="M901 365q47 0 87 12t72 32t55.5 45t37.5 50q12 -9 20.5 -25.5t8.5 -38.5q0 -28 -19.5 -57t-58 -53t-96 -39t-134.5 -15q-102 0 -178.5 33t-128 93t-77 144t-25.5 187q0 100 28 183t83.5 143t137 93.5t189.5 33.5q71 0 123.5 -11.5t87.5 -31t52.5 -46t17.5 -57.5 q0 -22 -11 -40t-30 -30.5t-44.5 -19t-54.5 -6.5q0 29 -7.5 56.5t-24.5 50t-44.5 36t-68.5 13.5q-72 0 -122.5 -24t-82.5 -71t-46.5 -115t-14.5 -157q0 -177 69 -272.5t199 -95.5zM113 731q0 104 27 200.5t75.5 180t117 152.5t152 118t179.5 76t200 27t200.5 -27t180 -76 t152.5 -118t118 -152.5t76 -180t27 -200.5t-27 -200t-76 -179.5t-118 -152t-152.5 -117.5t-180 -75.5t-200.5 -26.5t-200 26.5t-179.5 75.5t-152 117.5t-117 152t-75.5 179.5t-27 200zM225 731q0 -88 23 -169.5t64.5 -152.5t100 -129.5t129.5 -100t152.5 -64.5t169.5 -23 q89 0 171 23t153 64.5t129.5 100t100 129.5t64.5 152.5t23 169.5t-23 170t-64.5 153.5t-100 130t-129.5 100t-153 64.5t-171 23q-88 0 -169.5 -23t-152.5 -64.5t-129.5 -100t-100 -130t-64.5 -153t-23 -170.5z" />
<glyph unicode="&#xaa;" horiz-adv-x="782" d="M250 985q0 -64 27 -88.5t67 -24.5q34 0 61 12t45.5 34t28.5 52t10 66v97l-63 -3q-50 -1 -83.5 -11.5t-54 -29t-29.5 -44.5t-9 -60zM387 1397q-31 0 -50 -11t-29.5 -30t-14.5 -44.5t-4 -54.5q-78 0 -120 20.5t-42 68.5q0 35 21 59t57 39t84 22t102 7q68 0 118 -12 t83.5 -38.5t50 -68.5t16.5 -103v-311q0 -46 19.5 -63t69.5 -17v-69h-199l-37 94h-10q-18 -20 -39.5 -39.5t-48 -34.5t-58.5 -24t-71 -9q-99 0 -156 53t-57 156q0 102 81 150.5t248 56.5l88 4v59q0 31 -3.5 56.5t-14 44t-30.5 29t-54 10.5z" />
<glyph unicode="&#xab;" horiz-adv-x="1053" d="M133 586l313 356h103l-207 -389l207 -389h-103l-313 356v66zM504 586l313 356h103l-207 -389l207 -389h-103l-313 356v66z" />
<glyph unicode="&#xac;" horiz-adv-x="1145" d="M1012 793v-541h-123v420h-756v121h879z" />
<glyph unicode="&#xad;" horiz-adv-x="635" d="M51 481v154h533v-154h-533z" />
<glyph unicode="&#xae;" horiz-adv-x="1731" d="M477 358h27q20 0 38 2.5t31.5 10t21.5 21.5t9 38v600q-1 24 -9 38.5t-21.5 22t-31.5 9.5t-38 2h-27v72h369q352 0 352 -244q0 -49 -16 -86t-42 -64t-59.5 -45.5t-68.5 -29.5l182 -293q10 -17 19.5 -27.5t22.5 -16.5t30.5 -8t42.5 -2v-69h-217l-226 381h-108v-240 q2 -24 10 -38t21.5 -21.5t31 -10t37.5 -2.5h29v-69h-410v69zM758 748h86q55 0 92 11t59 33t31.5 56t9.5 80q0 45 -11 77t-34.5 51.5t-61 28.5t-91.5 9h-80v-346zM113 731q0 104 27 200.5t75.5 180t117 152.5t152 118t179.5 76t200 27t200.5 -27t180 -76t152.5 -118 t118 -152.5t76 -180t27 -200.5t-27 -200t-76 -179.5t-118 -152t-152.5 -117.5t-180 -75.5t-200.5 -26.5t-200 26.5t-179.5 75.5t-152 117.5t-117 152t-75.5 179.5t-27 200zM225 731q0 -88 23 -169.5t64.5 -152.5t100 -129.5t129.5 -100t152.5 -64.5t169.5 -23q89 0 171 23 t153 64.5t129.5 100t100 129.5t64.5 152.5t23 169.5t-23 170t-64.5 153.5t-100 130t-129.5 100t-153 64.5t-171 23q-88 0 -169.5 -23t-152.5 -64.5t-129.5 -100t-100 -130t-64.5 -153t-23 -170.5z" />
<glyph unicode="&#xaf;" horiz-adv-x="940" d="M950 1556h-960v121h960v-121z" />
<glyph unicode="&#xb0;" horiz-adv-x="819" d="M98 1151q0 65 24.5 121.5t66.5 98.5t98.5 66.5t120.5 24.5q65 0 121.5 -24.5t98.5 -66.5t66.5 -98.5t24.5 -121.5q0 -64 -24.5 -120.5t-66.5 -98.5t-98.5 -66t-121.5 -24q-64 0 -120.5 24t-98.5 66t-66.5 98.5t-24.5 120.5zM221 1151q0 -38 14.5 -72.5t40 -60t59.5 -40.5 t73 -15q40 0 74 15t59.5 40.5t40 60t14.5 72.5q0 40 -14.5 74.5t-40 60t-59.5 40.5t-74 15q-39 0 -73 -15t-59.5 -40.5t-40 -60t-14.5 -74.5z" />
<glyph unicode="&#xb1;" horiz-adv-x="1145" d="M633 672v-379h-123v379h-377v121h377v378h123v-378h379v-121h-379zM1012 0h-879v121h879v-121z" />
<glyph unicode="&#xb2;" horiz-adv-x="819" d="M690 1262q0 -48 -11 -90t-37 -84t-68.5 -87t-106.5 -100l-217 -186h297q47 0 65.5 25t24.5 59l8 43h70l-6 -256h-623v92l260 233q45 41 76 83t49.5 84.5t26.5 84.5t8 82q0 34 -6.5 62.5t-21 49.5t-37.5 32.5t-56 11.5q-37 0 -63 -14.5t-42 -39t-23 -57t-7 -67.5 q-69 0 -108.5 17t-39.5 71q0 37 18 68.5t53.5 54.5t88.5 36t123 13q143 0 224 -56.5t81 -164.5z" />
<glyph unicode="&#xb3;" horiz-adv-x="819" d="M356 573q-134 0 -204 46.5t-70 121.5q0 45 25.5 73t68.5 28q0 -32 10.5 -63.5t32 -56.5t54 -40.5t77.5 -15.5q85 0 133.5 41.5t48.5 136.5q0 72 -52 114.5t-165 42.5h-67v84h67q39 0 72 12.5t58 35.5t39 55.5t14 73.5q0 68 -27 103.5t-90 35.5q-39 0 -65 -14.5t-41.5 -39 t-22 -57t-6.5 -67.5q-35 0 -63.5 3.5t-48 13.5t-30 27t-10.5 44q0 37 18.5 68.5t55 54.5t90 36t123.5 13q68 0 124 -14t96 -40t61.5 -63.5t21.5 -85.5q0 -45 -17 -80.5t-45.5 -62.5t-66.5 -46.5t-80 -31.5v-10q41 -7 84 -19.5t78.5 -35.5t58.5 -59.5t23 -92.5 q0 -75 -33.5 -126.5t-86.5 -83t-117 -45.5t-126 -14z" />
<glyph unicode="&#xb4;" d="M391 1268q23 29 47.5 67t48 78.5t45 81t37.5 74.5h219v-21q-19 -27 -56 -67.5t-82 -84.5t-92.5 -85.5t-88.5 -69.5h-78v27z" />
<glyph unicode="&#xb5;" horiz-adv-x="1260" d="M569 -20q-86 0 -147.5 31.5t-102.5 88.5q2 -85 7 -157t21.5 -126t48.5 -87.5t89 -42.5q0 -39 -8.5 -71.5t-26 -56.5t-44.5 -37.5t-64 -13.5q-32 0 -62 12t-53 40.5t-37 75.5t-14 116q0 61 3.5 131.5t7.5 156t8.5 189.5t5.5 232v637h192v-688q0 -67 10 -122t33.5 -94.5 t63 -61t98.5 -21.5q57 0 103 24t78 67.5t49.5 104.5t17.5 135v656h192v-834q0 -45 12 -78.5t30.5 -55.5t41.5 -33t45 -11h7v-86h-111q-84 0 -132 41.5t-67 122.5h-8q-24 -41 -51.5 -75t-62 -58t-77 -37.5t-96.5 -13.5z" />
<glyph unicode="&#xb6;" horiz-adv-x="1264" d="M860 1452h-194v-1679h-320v86h27q35 0 65.5 5t53 20.5t36 44.5t13.5 77v785h-146q-90 0 -150 32.5t-96 88t-51.5 128t-15.5 152.5q0 82 17 149t55 115t98 74t147 26h781v-86h-27q-34 0 -65 -5t-53.5 -20.5t-36 -44.5t-13.5 -77v-1317q0 -48 13.5 -77t36 -44.5t53.5 -20.5 t65 -5h27v-86h-320v1679z" />
<glyph unicode="&#xb7;" horiz-adv-x="586" d="M166 729q0 40 10 67t27.5 43t41 22.5t50.5 6.5q26 0 49.5 -6.5t41 -22.5t28 -43t10.5 -67q0 -39 -10.5 -65.5t-28 -43t-41 -23.5t-49.5 -7q-27 0 -50.5 7t-41 23.5t-27.5 43t-10 65.5z" />
<glyph unicode="&#xb8;" horiz-adv-x="682" d="M551 -258q0 -109 -69.5 -171.5t-200.5 -62.5q-16 0 -36 1.5t-41 4.5t-42 7.5t-39 9.5v104q37 -8 74 -12t65 -4q59 0 92 31t33 84q0 60 -43.5 90t-110.5 35l43 159h97l-21 -88q100 -8 149.5 -57.5t49.5 -130.5z" />
<glyph unicode="&#xb9;" horiz-adv-x="819" d="M145 588v69h95q18 0 33 2.5t26.5 10.5t18 23.5t6.5 41.5v590h-191v70h103q23 0 49 3t50 12t43 24t28 39h102v-738q0 -26 7 -41.5t18.5 -23.5t27 -10.5t33.5 -2.5h94v-69h-543z" />
<glyph unicode="&#xba;" horiz-adv-x="813" d="M250 1126q0 -133 35 -199.5t123 -66.5q86 0 121.5 66.5t35.5 199.5q0 131 -36.5 195.5t-122.5 64.5t-121 -64.5t-35 -195.5zM741 1126q0 -176 -85 -262t-250 -86q-158 0 -246 86.5t-88 261.5q0 176 85 261.5t253 85.5q77 0 138 -21.5t104 -64.5t66 -108t23 -153z" />
<glyph unicode="&#xbb;" horiz-adv-x="1053" d="M920 520l-314 -356h-102l207 389l-207 389h102l314 -356v-66zM549 520l-313 -356h-103l207 389l-207 389h103l313 -356v-66z" />
<glyph unicode="&#xbc;" horiz-adv-x="1720" d="M1477 261v-113q0 -26 7 -41.5t19 -23.5t27.5 -10.5t32.5 -2.5h41v-69h-451v69h57q17 0 32 2.5t26.5 10.5t18.5 23.5t7 41.5v113h-364v61l383 564h164v-537h196v-88h-196zM1294 580q0 32 3 73t8 79q-8 -17 -17 -34t-14 -25l-223 -324h243v231zM60 588v69h95q18 0 33 2.5 t26.5 10.5t18 23.5t6.5 41.5v590h-191v70h103q23 0 49 3t50 12t43 24t28 39h102v-738q0 -26 7 -41.5t18.5 -23.5t27 -10.5t33.5 -2.5h94v-69h-543zM566 0h-136l731 1462h134z" />
<glyph unicode="&#xbd;" horiz-adv-x="1720" d="M60 588v69h95q18 0 33 2.5t26.5 10.5t18 23.5t6.5 41.5v590h-191v70h103q23 0 49 3t50 12t43 24t28 39h102v-738q0 -26 7 -41.5t18.5 -23.5t27 -10.5t33.5 -2.5h94v-69h-543zM525 0h-136l731 1462h134zM1620 677q0 -48 -11 -90t-37 -84t-68.5 -87t-106.5 -100l-217 -186 h297q47 0 65.5 25t24.5 59l8 43h70l-6 -256h-623v92l260 233q45 41 76 83t49.5 84.5t26.5 84.5t8 82q0 34 -6.5 62.5t-21 49.5t-37.5 32.5t-56 11.5q-37 0 -63 -14.5t-42 -39t-23 -57t-7 -67.5q-69 0 -108.5 17t-39.5 71q0 37 18 68.5t53.5 54.5t88.5 36t123 13 q143 0 224 -56.5t81 -164.5z" />
<glyph unicode="&#xbe;" horiz-adv-x="1720" d="M1477 261v-113q0 -26 7 -41.5t19 -23.5t27.5 -10.5t32.5 -2.5h41v-69h-451v69h57q17 0 32 2.5t26.5 10.5t18.5 23.5t7 41.5v113h-364v61l383 564h164v-537h196v-88h-196zM1294 580q0 32 3 73t8 79q-8 -17 -17 -34t-14 -25l-223 -324h243v231zM356 573q-134 0 -204 46.5 t-70 121.5q0 45 25.5 73t68.5 28q0 -32 10.5 -63.5t32 -56.5t54 -40.5t77.5 -15.5q85 0 133.5 41.5t48.5 136.5q0 72 -52 114.5t-165 42.5h-67v84h67q39 0 72 12.5t58 35.5t39 55.5t14 73.5q0 68 -27 103.5t-90 35.5q-39 0 -65 -14.5t-41.5 -39t-22 -57t-6.5 -67.5 q-35 0 -63.5 3.5t-48 13.5t-30 27t-10.5 44q0 37 18.5 68.5t55 54.5t90 36t123.5 13q68 0 124 -14t96 -40t61.5 -63.5t21.5 -85.5q0 -45 -17 -80.5t-45.5 -62.5t-66.5 -46.5t-80 -31.5v-10q41 -7 84 -19.5t78.5 -35.5t58.5 -59.5t23 -92.5q0 -75 -33.5 -126.5t-86.5 -83 t-117 -45.5t-126 -14zM607 0h-136l731 1462h134z" />
<glyph unicode="&#xbf;" horiz-adv-x="1024" d="M502 682h125v-311q-89 -36 -149.5 -84t-97 -103t-52 -115t-15.5 -122q0 -53 13 -96.5t40 -74.5t69.5 -48t101.5 -17q64 0 107.5 21t70.5 57t39 83.5t12 100.5q37 0 68 -8.5t53.5 -25t35.5 -41.5t13 -58q0 -49 -22.5 -91t-70 -72.5t-119.5 -48t-171 -17.5q-97 0 -179 25 t-142 72.5t-94 116.5t-34 157q0 84 26.5 153.5t77.5 126.5t125 103.5t169 85.5v231zM696 969q0 -40 -10 -67t-27.5 -43t-41 -23t-50.5 -7q-26 0 -49.5 7t-41 23t-28 43t-10.5 67q0 39 10.5 65.5t28 43t41 23.5t49.5 7q27 0 50.5 -7t41 -23.5t27.5 -43t10 -65.5z" />
<glyph unicode="&#xc0;" horiz-adv-x="1444" d="M414 489l-78 -215q-9 -24 -14 -47.5t-5 -40.5q0 -52 33.5 -76t102.5 -24h47v-86h-500v86h39q30 0 51 6.5t38 24.5t32.5 49t34.5 80l454 1216h160l463 -1267q12 -32 24.5 -53t29.5 -33.5t39 -17.5t52 -5h27v-86h-563v86h47q123 0 123 98q0 17 -4.5 35t-12.5 41l-82 229 h-538zM788 950q-32 91 -58.5 170.5t-43.5 153.5q-7 -37 -16.5 -71.5t-20.5 -70.5t-25 -75.5t-32 -87.5l-139 -377h462zM805 1579h-78q-41 28 -89 69.5t-93 85.5t-82 84.5t-56 67.5v21h219q16 -34 37.5 -74.5t45.5 -81t49 -78.5t47 -67v-27z" />
<glyph unicode="&#xc1;" horiz-adv-x="1444" d="M414 489l-78 -215q-9 -24 -14 -47.5t-5 -40.5q0 -52 33.5 -76t102.5 -24h47v-86h-500v86h39q30 0 51 6.5t38 24.5t32.5 49t34.5 80l454 1216h160l463 -1267q12 -32 24.5 -53t29.5 -33.5t39 -17.5t52 -5h27v-86h-563v86h47q123 0 123 98q0 17 -4.5 35t-12.5 41l-82 229 h-538zM788 950q-32 91 -58.5 170.5t-43.5 153.5q-7 -37 -16.5 -71.5t-20.5 -70.5t-25 -75.5t-32 -87.5l-139 -377h462zM637 1606q23 29 47.5 67t48 78.5t45 81t37.5 74.5h219v-21q-19 -27 -56 -67.5t-82 -84.5t-92.5 -85.5t-88.5 -69.5h-78v27z" />
<glyph unicode="&#xc2;" horiz-adv-x="1444" d="M414 489l-78 -215q-9 -24 -14 -47.5t-5 -40.5q0 -52 33.5 -76t102.5 -24h47v-86h-500v86h39q30 0 51 6.5t38 24.5t32.5 49t34.5 80l454 1216h160l463 -1267q12 -32 24.5 -53t29.5 -33.5t39 -17.5t52 -5h27v-86h-563v86h47q123 0 123 98q0 17 -4.5 35t-12.5 41l-82 229 h-538zM788 950q-32 91 -58.5 170.5t-43.5 153.5q-7 -37 -16.5 -71.5t-20.5 -70.5t-25 -75.5t-32 -87.5l-139 -377h462zM422 1606q24 29 53 67t57.5 78.5t53.5 81t41 74.5h194q16 -34 41 -74.5t53.5 -81t57.5 -78.5t53 -67v-27h-80q-59 34 -118 84.5t-105 99.5 q-47 -49 -105 -99.5t-116 -84.5h-80v27z" />
<glyph unicode="&#xc3;" horiz-adv-x="1444" d="M414 489l-78 -215q-9 -24 -14 -47.5t-5 -40.5q0 -52 33.5 -76t102.5 -24h47v-86h-500v86h39q30 0 51 6.5t38 24.5t32.5 49t34.5 80l454 1216h160l463 -1267q12 -32 24.5 -53t29.5 -33.5t39 -17.5t52 -5h27v-86h-563v86h47q123 0 123 98q0 17 -4.5 35t-12.5 41l-82 229 h-538zM788 950q-32 91 -58.5 170.5t-43.5 153.5q-7 -37 -16.5 -71.5t-20.5 -70.5t-25 -75.5t-32 -87.5l-139 -377h462zM895 1712q30 0 48.5 9t29 24.5t15 35t7.5 40.5h92q-3 -47 -16.5 -90.5t-39.5 -77.5t-65 -54t-94 -20t-99.5 20t-83 44.5t-72 44.5t-66.5 20q-31 0 -49 -9 t-28.5 -24t-15.5 -34.5t-8 -40.5h-92q3 47 16.5 90t40 77t66 54t94.5 20t99.5 -20t83 -44.5t72 -44.5t65.5 -20z" />
<glyph unicode="&#xc4;" horiz-adv-x="1444" d="M414 489l-78 -215q-9 -24 -14 -47.5t-5 -40.5q0 -52 33.5 -76t102.5 -24h47v-86h-500v86h39q30 0 51 6.5t38 24.5t32.5 49t34.5 80l454 1216h160l463 -1267q12 -32 24.5 -53t29.5 -33.5t39 -17.5t52 -5h27v-86h-563v86h47q123 0 123 98q0 17 -4.5 35t-12.5 41l-82 229 h-538zM788 950q-32 91 -58.5 170.5t-43.5 153.5q-7 -37 -16.5 -71.5t-20.5 -70.5t-25 -75.5t-32 -87.5l-139 -377h462zM424 1747q0 32 8 54t22 35.5t33 19.5t41 6t41 -6t33.5 -19.5t22.5 -35.5t8 -54q0 -31 -8 -53t-22.5 -36t-33.5 -20t-41 -6q-45 0 -74.5 26t-29.5 89z M813 1747q0 32 8 54t22 35.5t33 19.5t41 6t41 -6t33.5 -19.5t22.5 -35.5t8 -54q0 -31 -8 -53t-22.5 -36t-33.5 -20t-41 -6q-45 0 -74.5 26t-29.5 89z" />
<glyph unicode="&#xc5;" horiz-adv-x="1444" d="M414 489l-78 -215q-9 -24 -14 -47.5t-5 -40.5q0 -52 33.5 -76t102.5 -24h47v-86h-500v86h39q30 0 51 6.5t38 24.5t32.5 49t34.5 80l454 1216h160l463 -1267q12 -32 24.5 -53t29.5 -33.5t39 -17.5t52 -5h27v-86h-563v86h47q123 0 123 98q0 17 -4.5 35t-12.5 41l-82 229 h-538zM788 950q-32 91 -58.5 170.5t-43.5 153.5q-7 -37 -16.5 -71.5t-20.5 -70.5t-25 -75.5t-32 -87.5l-139 -377h462zM971 1585q0 -55 -19 -96.5t-52.5 -69.5t-78.5 -42.5t-96 -14.5t-96 14.5t-78.5 42.5t-52.5 69.5t-19 96.5q0 54 19 96t52.5 70t78.5 42.5t96 14.5 t96 -14.5t78.5 -42.5t52.5 -70t19 -96zM860 1585q0 33 -10.5 56.5t-29 38t-43 21.5t-52.5 7t-52.5 -7t-43 -21.5t-29 -38t-10.5 -56.5t10.5 -56.5t29 -38t43 -21.5t52.5 -7t52.5 7t43 21.5t29 38t10.5 56.5z" />
<glyph unicode="&#xc6;" horiz-adv-x="1948" d="M1151 102h395q48 0 82.5 13.5t57.5 36.5t36 53.5t19 64.5l14 88h107l-15 -358h-1097v86h26q34 0 64 4.5t52.5 18.5t36.5 41.5t15 72.5v266h-471l-113 -215q-17 -32 -24.5 -61t-7.5 -47q0 -42 31.5 -61t91.5 -19h47v-86h-498v86h33q54 0 96.5 38t85.5 122l592 1120 l-160 10v86h1135l10 -358h-106l-11 88q-4 34 -15 64t-32.5 52.5t-54 36.5t-78.5 15h-344v-545h494v-100h-494v-613zM849 1221q-41 -83 -92.5 -183.5t-110.5 -214.5t-120 -231h418v768h-29q-25 -56 -66 -139z" />
<glyph unicode="&#xc7;" horiz-adv-x="1257" d="M774 1483q105 0 182.5 -17.5t129 -48.5t77 -73t25.5 -91q0 -33 -13.5 -59.5t-37.5 -45t-56.5 -28.5t-70.5 -10q0 48 -12.5 95t-41 84.5t-74 61t-112.5 23.5q-116 0 -197 -42.5t-132 -124t-74 -201t-23 -273.5q0 -137 24 -251t76 -195.5t132.5 -126.5t193.5 -45 q75 0 132.5 14.5t101.5 38.5t77.5 55.5t59.5 65.5q17 -11 28 -30t11 -50q0 -39 -26.5 -79.5t-80.5 -73.5t-137 -54.5t-197 -21.5q-153 0 -269 54t-194.5 153t-118.5 238t-40 308q0 166 42 304t124.5 237t205.5 154t285 55zM942 -258q0 -109 -69.5 -171.5t-200.5 -62.5 q-16 0 -36 1.5t-41 4.5t-42 7.5t-39 9.5v104q37 -8 74 -12t65 -4q59 0 92 31t33 84q0 60 -43.5 90t-110.5 35l43 159h97l-21 -88q100 -8 149.5 -57.5t49.5 -130.5z" />
<glyph unicode="&#xc8;" horiz-adv-x="1276" d="M479 102h395q49 0 83.5 13.5t57.5 36.5t36 53.5t18 64.5l14 88h107l-14 -358h-1098v86h26q34 0 64.5 4.5t53.5 18.5t36.5 41.5t13.5 72.5v1006q0 48 -13 77t-36 44.5t-53.5 20.5t-65.5 5h-26v86h1032l10 -358h-106l-10 88q-4 34 -15.5 64.5t-33 53.5t-54 36.5t-78.5 13.5 h-344v-545h494v-100h-494v-613zM743 1579h-78q-41 28 -89 69.5t-93 85.5t-82 84.5t-56 67.5v21h219q16 -34 37.5 -74.5t45.5 -81t49 -78.5t47 -67v-27z" />
<glyph unicode="&#xc9;" horiz-adv-x="1276" d="M479 102h395q49 0 83.5 13.5t57.5 36.5t36 53.5t18 64.5l14 88h107l-14 -358h-1098v86h26q34 0 64.5 4.5t53.5 18.5t36.5 41.5t13.5 72.5v1006q0 48 -13 77t-36 44.5t-53.5 20.5t-65.5 5h-26v86h1032l10 -358h-106l-10 88q-4 34 -15.5 64.5t-33 53.5t-54 36.5t-78.5 13.5 h-344v-545h494v-100h-494v-613zM545 1606q23 29 47.5 67t48 78.5t45 81t37.5 74.5h219v-21q-19 -27 -56 -67.5t-82 -84.5t-92.5 -85.5t-88.5 -69.5h-78v27z" />
<glyph unicode="&#xca;" horiz-adv-x="1276" d="M479 102h395q49 0 83.5 13.5t57.5 36.5t36 53.5t18 64.5l14 88h107l-14 -358h-1098v86h26q34 0 64.5 4.5t53.5 18.5t36.5 41.5t13.5 72.5v1006q0 48 -13 77t-36 44.5t-53.5 20.5t-65.5 5h-26v86h1032l10 -358h-106l-10 88q-4 34 -15.5 64.5t-33 53.5t-54 36.5t-78.5 13.5 h-344v-545h494v-100h-494v-613zM350 1606q24 29 53 67t57.5 78.5t53.5 81t41 74.5h194q16 -34 41 -74.5t53.5 -81t57.5 -78.5t53 -67v-27h-80q-59 34 -118 84.5t-105 99.5q-47 -49 -105 -99.5t-116 -84.5h-80v27z" />
<glyph unicode="&#xcb;" horiz-adv-x="1276" d="M479 102h395q49 0 83.5 13.5t57.5 36.5t36 53.5t18 64.5l14 88h107l-14 -358h-1098v86h26q34 0 64.5 4.5t53.5 18.5t36.5 41.5t13.5 72.5v1006q0 48 -13 77t-36 44.5t-53.5 20.5t-65.5 5h-26v86h1032l10 -358h-106l-10 88q-4 34 -15.5 64.5t-33 53.5t-54 36.5t-78.5 13.5 h-344v-545h494v-100h-494v-613zM342 1747q0 32 8 54t22 35.5t33 19.5t41 6t41 -6t33.5 -19.5t22.5 -35.5t8 -54q0 -31 -8 -53t-22.5 -36t-33.5 -20t-41 -6q-45 0 -74.5 26t-29.5 89zM731 1747q0 32 8 54t22 35.5t33 19.5t41 6t41 -6t33.5 -19.5t22.5 -35.5t8 -54 q0 -31 -8 -53t-22.5 -36t-33.5 -20t-41 -6q-45 0 -74.5 26t-29.5 89z" />
<glyph unicode="&#xcc;" horiz-adv-x="752" d="M78 0v86h26q35 0 65.5 5t53.5 20.5t36 44.5t13 77v996q0 48 -13 77t-36 44.5t-53.5 20.5t-65.5 5h-26v86h596v-86h-27q-34 0 -65 -5t-53.5 -20.5t-36 -44.5t-13.5 -77v-996q0 -48 13.5 -77t36 -44.5t53.5 -20.5t65 -5h27v-86h-596zM473 1579h-78q-41 28 -89 69.5 t-93 85.5t-82 84.5t-56 67.5v21h219q16 -34 37.5 -74.5t45.5 -81t49 -78.5t47 -67v-27z" />
<glyph unicode="&#xcd;" horiz-adv-x="752" d="M78 0v86h26q35 0 65.5 5t53.5 20.5t36 44.5t13 77v996q0 48 -13 77t-36 44.5t-53.5 20.5t-65.5 5h-26v86h596v-86h-27q-34 0 -65 -5t-53.5 -20.5t-36 -44.5t-13.5 -77v-996q0 -48 13.5 -77t36 -44.5t53.5 -20.5t65 -5h27v-86h-596zM271 1606q23 29 47.5 67t48 78.5t45 81 t37.5 74.5h219v-21q-19 -27 -56 -67.5t-82 -84.5t-92.5 -85.5t-88.5 -69.5h-78v27z" />
<glyph unicode="&#xce;" horiz-adv-x="752" d="M78 0v86h26q35 0 65.5 5t53.5 20.5t36 44.5t13 77v996q0 48 -13 77t-36 44.5t-53.5 20.5t-65.5 5h-26v86h596v-86h-27q-34 0 -65 -5t-53.5 -20.5t-36 -44.5t-13.5 -77v-996q0 -48 13.5 -77t36 -44.5t53.5 -20.5t65 -5h27v-86h-596zM73 1606q24 29 53 67t57.5 78.5 t53.5 81t41 74.5h194q16 -34 41 -74.5t53.5 -81t57.5 -78.5t53 -67v-27h-80q-59 34 -118 84.5t-105 99.5q-47 -49 -105 -99.5t-116 -84.5h-80v27z" />
<glyph unicode="&#xcf;" horiz-adv-x="752" d="M78 0v86h26q35 0 65.5 5t53.5 20.5t36 44.5t13 77v996q0 48 -13 77t-36 44.5t-53.5 20.5t-65.5 5h-26v86h596v-86h-27q-34 0 -65 -5t-53.5 -20.5t-36 -44.5t-13.5 -77v-996q0 -48 13.5 -77t36 -44.5t53.5 -20.5t65 -5h27v-86h-596zM73 1747q0 32 8 54t22 35.5t33 19.5 t41 6t41 -6t33.5 -19.5t22.5 -35.5t8 -54q0 -31 -8 -53t-22.5 -36t-33.5 -20t-41 -6q-45 0 -74.5 26t-29.5 89zM462 1747q0 32 8 54t22 35.5t33 19.5t41 6t41 -6t33.5 -19.5t22.5 -35.5t8 -54q0 -31 -8 -53t-22.5 -36t-33.5 -20t-41 -6q-45 0 -74.5 26t-29.5 89z" />
<glyph unicode="&#xd0;" horiz-adv-x="1489" d="M78 815h194v422q0 45 -13.5 72.5t-36.5 42.5t-53.5 19.5t-64.5 4.5h-26v86h627q158 0 282 -48.5t209.5 -141.5t130.5 -229t45 -310q0 -168 -42 -303.5t-125 -231t-208.5 -147t-291.5 -51.5h-627v86h26q35 0 65.5 5t53.5 20.5t36 44.5t13 77v482h-194v100zM657 104 q122 0 213.5 41.5t152.5 121.5t91.5 197t30.5 269t-30.5 269t-91 196.5t-152 120.5t-212.5 41h-180v-545h348v-100h-348v-611h178z" />
<glyph unicode="&#xd1;" horiz-adv-x="1563" d="M1165 0l-768 1180v-947q0 -48 13.5 -77t36 -44.5t53.5 -20.5t65 -5h27v-86h-514v86h26q35 0 65.5 5t53.5 20.5t36 44.5t13 77v1004q0 45 -13.5 72.5t-36.5 42.5t-53.5 19.5t-64.5 4.5h-26v86h375l733 -1132v907q0 45 -13.5 72.5t-36.5 42.5t-53.5 19.5t-64.5 4.5h-27v86 h514v-86h-26q-35 0 -65.5 -5t-53.5 -20.5t-36 -44.5t-13 -77v-1229h-146zM979 1712q30 0 48.5 9t29 24.5t15 35t7.5 40.5h92q-3 -47 -16.5 -90.5t-39.5 -77.5t-65 -54t-94 -20t-99.5 20t-83 44.5t-72 44.5t-66.5 20q-31 0 -49 -9t-28.5 -24t-15.5 -34.5t-8 -40.5h-92 q3 47 16.5 90t40 77t66 54t94.5 20t99.5 -20t83 -44.5t72 -44.5t65.5 -20z" />
<glyph unicode="&#xd2;" horiz-adv-x="1520" d="M1403 733q0 -169 -42 -308t-124 -238t-202 -153t-275 -54q-163 0 -284 54t-201 153t-120 238.5t-40 309.5t40 308.5t120 236.5t202 151.5t285 53.5q155 0 274 -53.5t201 -152t124 -237t42 -309.5zM342 733q0 -152 22.5 -271.5t72.5 -202t129.5 -126t193.5 -43.5 t193.5 43.5t129 126t71.5 202t22 271.5t-22 271.5t-71.5 201.5t-128 125t-192.5 43t-194 -43t-130.5 -125t-73 -201.5t-22.5 -271.5zM861 1579h-78q-41 28 -89 69.5t-93 85.5t-82 84.5t-56 67.5v21h219q16 -34 37.5 -74.5t45.5 -81t49 -78.5t47 -67v-27z" />
<glyph unicode="&#xd3;" horiz-adv-x="1520" d="M1403 733q0 -169 -42 -308t-124 -238t-202 -153t-275 -54q-163 0 -284 54t-201 153t-120 238.5t-40 309.5t40 308.5t120 236.5t202 151.5t285 53.5q155 0 274 -53.5t201 -152t124 -237t42 -309.5zM342 733q0 -152 22.5 -271.5t72.5 -202t129.5 -126t193.5 -43.5 t193.5 43.5t129 126t71.5 202t22 271.5t-22 271.5t-71.5 201.5t-128 125t-192.5 43t-194 -43t-130.5 -125t-73 -201.5t-22.5 -271.5zM649 1606q23 29 47.5 67t48 78.5t45 81t37.5 74.5h219v-21q-19 -27 -56 -67.5t-82 -84.5t-92.5 -85.5t-88.5 -69.5h-78v27z" />
<glyph unicode="&#xd4;" horiz-adv-x="1520" d="M1403 733q0 -169 -42 -308t-124 -238t-202 -153t-275 -54q-163 0 -284 54t-201 153t-120 238.5t-40 309.5t40 308.5t120 236.5t202 151.5t285 53.5q155 0 274 -53.5t201 -152t124 -237t42 -309.5zM342 733q0 -152 22.5 -271.5t72.5 -202t129.5 -126t193.5 -43.5 t193.5 43.5t129 126t71.5 202t22 271.5t-22 271.5t-71.5 201.5t-128 125t-192.5 43t-194 -43t-130.5 -125t-73 -201.5t-22.5 -271.5zM459 1606q24 29 53 67t57.5 78.5t53.5 81t41 74.5h194q16 -34 41 -74.5t53.5 -81t57.5 -78.5t53 -67v-27h-80q-59 34 -118 84.5t-105 99.5 q-47 -49 -105 -99.5t-116 -84.5h-80v27z" />
<glyph unicode="&#xd5;" horiz-adv-x="1520" d="M1403 733q0 -169 -42 -308t-124 -238t-202 -153t-275 -54q-163 0 -284 54t-201 153t-120 238.5t-40 309.5t40 308.5t120 236.5t202 151.5t285 53.5q155 0 274 -53.5t201 -152t124 -237t42 -309.5zM342 733q0 -152 22.5 -271.5t72.5 -202t129.5 -126t193.5 -43.5 t193.5 43.5t129 126t71.5 202t22 271.5t-22 271.5t-71.5 201.5t-128 125t-192.5 43t-194 -43t-130.5 -125t-73 -201.5t-22.5 -271.5zM918 1712q30 0 48.5 9t29 24.5t15 35t7.5 40.5h92q-3 -47 -16.5 -90.5t-39.5 -77.5t-65 -54t-94 -20t-99.5 20t-83 44.5t-72 44.5t-66.5 20 q-31 0 -49 -9t-28.5 -24t-15.5 -34.5t-8 -40.5h-92q3 47 16.5 90t40 77t66 54t94.5 20t99.5 -20t83 -44.5t72 -44.5t65.5 -20z" />
<glyph unicode="&#xd6;" horiz-adv-x="1520" d="M1403 733q0 -169 -42 -308t-124 -238t-202 -153t-275 -54q-163 0 -284 54t-201 153t-120 238.5t-40 309.5t40 308.5t120 236.5t202 151.5t285 53.5q155 0 274 -53.5t201 -152t124 -237t42 -309.5zM342 733q0 -152 22.5 -271.5t72.5 -202t129.5 -126t193.5 -43.5 t193.5 43.5t129 126t71.5 202t22 271.5t-22 271.5t-71.5 201.5t-128 125t-192.5 43t-194 -43t-130.5 -125t-73 -201.5t-22.5 -271.5zM455 1747q0 32 8 54t22 35.5t33 19.5t41 6t41 -6t33.5 -19.5t22.5 -35.5t8 -54q0 -31 -8 -53t-22.5 -36t-33.5 -20t-41 -6q-45 0 -74.5 26 t-29.5 89zM844 1747q0 32 8 54t22 35.5t33 19.5t41 6t41 -6t33.5 -19.5t22.5 -35.5t8 -54q0 -31 -8 -53t-22.5 -36t-33.5 -20t-41 -6q-45 0 -74.5 26t-29.5 89z" />
<glyph unicode="&#xd7;" horiz-adv-x="1145" d="M571 647l-340 -340l-86 88l340 340l-340 338l86 86l340 -340l340 342l86 -88l-340 -340l340 -340l-86 -86z" />
<glyph unicode="&#xd8;" horiz-adv-x="1520" d="M1163 1354q118 -97 179 -255t61 -366q0 -169 -42 -308t-124 -238t-202 -153t-275 -54q-93 0 -172.5 17.5t-145.5 51.5l-71 -131h-121l104 188q-121 98 -180 258.5t-59 370.5q0 170 40 308.5t120 236.5t202 151.5t285 53.5q91 0 169 -19.5t144 -54.5l76 135h119zM342 733 q0 -155 22.5 -273t73.5 -202l572 1034q-94 82 -248 82q-114 0 -194 -43t-130.5 -125t-73 -201.5t-22.5 -271.5zM1176 733q0 153 -22.5 271.5t-72.5 201.5l-571 -1036q95 -80 250 -80q114 0 193.5 43.5t129 126t71.5 202t22 271.5z" />
<glyph unicode="&#xd9;" horiz-adv-x="1468" d="M741 -20q-121 0 -217 25.5t-162.5 81t-101.5 143t-35 212.5v795q0 45 -13.5 72.5t-36.5 42.5t-53.5 19.5t-64.5 4.5h-26v86h596v-86h-27q-34 0 -65 -5t-53.5 -20.5t-36 -44.5t-13.5 -77v-799q0 -89 25.5 -151.5t71 -101.5t108 -57t137.5 -18q89 0 153.5 24t107 66.5 t63 101t20.5 128.5v815q0 45 -13.5 72.5t-36.5 42.5t-53.5 19.5t-64.5 4.5h-26v86h514v-86h-27q-34 0 -65 -5t-53.5 -20.5t-36 -44.5t-13.5 -77v-811q0 -102 -32.5 -183.5t-96 -138t-157.5 -86.5t-216 -30zM852 1579h-78q-41 28 -89 69.5t-93 85.5t-82 84.5t-56 67.5v21h219 q16 -34 37.5 -74.5t45.5 -81t49 -78.5t47 -67v-27z" />
<glyph unicode="&#xda;" horiz-adv-x="1468" d="M741 -20q-121 0 -217 25.5t-162.5 81t-101.5 143t-35 212.5v795q0 45 -13.5 72.5t-36.5 42.5t-53.5 19.5t-64.5 4.5h-26v86h596v-86h-27q-34 0 -65 -5t-53.5 -20.5t-36 -44.5t-13.5 -77v-799q0 -89 25.5 -151.5t71 -101.5t108 -57t137.5 -18q89 0 153.5 24t107 66.5 t63 101t20.5 128.5v815q0 45 -13.5 72.5t-36.5 42.5t-53.5 19.5t-64.5 4.5h-26v86h514v-86h-27q-34 0 -65 -5t-53.5 -20.5t-36 -44.5t-13.5 -77v-811q0 -102 -32.5 -183.5t-96 -138t-157.5 -86.5t-216 -30zM649 1606q23 29 47.5 67t48 78.5t45 81t37.5 74.5h219v-21 q-19 -27 -56 -67.5t-82 -84.5t-92.5 -85.5t-88.5 -69.5h-78v27z" />
<glyph unicode="&#xdb;" horiz-adv-x="1468" d="M741 -20q-121 0 -217 25.5t-162.5 81t-101.5 143t-35 212.5v795q0 45 -13.5 72.5t-36.5 42.5t-53.5 19.5t-64.5 4.5h-26v86h596v-86h-27q-34 0 -65 -5t-53.5 -20.5t-36 -44.5t-13.5 -77v-799q0 -89 25.5 -151.5t71 -101.5t108 -57t137.5 -18q89 0 153.5 24t107 66.5 t63 101t20.5 128.5v815q0 45 -13.5 72.5t-36.5 42.5t-53.5 19.5t-64.5 4.5h-26v86h514v-86h-27q-34 0 -65 -5t-53.5 -20.5t-36 -44.5t-13.5 -77v-811q0 -102 -32.5 -183.5t-96 -138t-157.5 -86.5t-216 -30zM471 1606q24 29 53 67t57.5 78.5t53.5 81t41 74.5h194 q16 -34 41 -74.5t53.5 -81t57.5 -78.5t53 -67v-27h-80q-59 34 -118 84.5t-105 99.5q-47 -49 -105 -99.5t-116 -84.5h-80v27z" />
<glyph unicode="&#xdc;" horiz-adv-x="1468" d="M741 -20q-121 0 -217 25.5t-162.5 81t-101.5 143t-35 212.5v795q0 45 -13.5 72.5t-36.5 42.5t-53.5 19.5t-64.5 4.5h-26v86h596v-86h-27q-34 0 -65 -5t-53.5 -20.5t-36 -44.5t-13.5 -77v-799q0 -89 25.5 -151.5t71 -101.5t108 -57t137.5 -18q89 0 153.5 24t107 66.5 t63 101t20.5 128.5v815q0 45 -13.5 72.5t-36.5 42.5t-53.5 19.5t-64.5 4.5h-26v86h514v-86h-27q-34 0 -65 -5t-53.5 -20.5t-36 -44.5t-13.5 -77v-811q0 -102 -32.5 -183.5t-96 -138t-157.5 -86.5t-216 -30zM477 1747q0 32 8 54t22 35.5t33 19.5t41 6t41 -6t33.5 -19.5 t22.5 -35.5t8 -54q0 -31 -8 -53t-22.5 -36t-33.5 -20t-41 -6q-45 0 -74.5 26t-29.5 89zM866 1747q0 32 8 54t22 35.5t33 19.5t41 6t41 -6t33.5 -19.5t22.5 -35.5t8 -54q0 -31 -8 -53t-22.5 -36t-33.5 -20t-41 -6q-45 0 -74.5 26t-29.5 89z" />
<glyph unicode="&#xdd;" horiz-adv-x="1280" d="M326 0v86h47q34 0 64.5 4.5t53.5 18.5t36.5 41.5t13.5 72.5v387l-379 658q-17 29 -32 49.5t-31.5 33.5t-36.5 19t-46 6h-26v86h563v-86h-76q-28 0 -45.5 -5t-27.5 -14t-13.5 -21t-3.5 -25q0 -29 12.5 -58t24.5 -51l151 -274q36 -63 61 -124.5t42 -109.5q9 22 22.5 49 t30 57.5t34.5 63t36 64.5l131 235q20 35 28.5 66.5t8.5 56.5q0 45 -32 67.5t-91 22.5h-60v86h500v-86h-24q-22 0 -41.5 -7.5t-39.5 -26t-41.5 -49t-47.5 -76.5l-344 -607v-377q0 -48 13 -77t36 -44.5t53.5 -20.5t64.5 -5h48v-86h-637zM567 1606q23 29 47.5 67t48 78.5t45 81 t37.5 74.5h219v-21q-19 -27 -56 -67.5t-82 -84.5t-92.5 -85.5t-88.5 -69.5h-78v27z" />
<glyph unicode="&#xde;" horiz-adv-x="1237" d="M78 0v86h26q35 0 65.5 5t53.5 20.5t36 44.5t13 77v996q0 48 -13 77t-36 44.5t-53.5 20.5t-65.5 5h-26v86h616v-86h-47q-34 0 -65 -5t-53.5 -20.5t-36 -44.5t-13.5 -77v-62h174q258 0 381 -103.5t123 -303.5q0 -91 -28.5 -172t-93.5 -142t-170 -96t-257 -35h-129v-82 q0 -48 13.5 -77t36 -44.5t53.5 -20.5t65 -5h47v-86h-616zM479 412h109q93 0 159 16.5t108 56t61.5 105t19.5 162.5q0 86 -17 146t-55 98t-98.5 55.5t-147.5 17.5h-139v-657z" />
<glyph unicode="&#xdf;" horiz-adv-x="1325" d="M887 78q75 0 123.5 46t48.5 140q0 34 -7.5 63t-29.5 56t-61 54t-101 57q-64 32 -113 63t-81.5 69t-49 86t-16.5 113q0 62 20.5 113t62 87.5t105 56.5t150.5 20q0 97 -14 166.5t-45 114.5t-79.5 66t-117.5 21q-62 0 -108.5 -20t-77.5 -56.5t-46.5 -88.5t-15.5 -117v-1188 h-387v86h27q35 0 65.5 5t53 20.5t36 44.5t13.5 77v768h-166v97h166v61q0 113 34 190t93.5 124.5t140 68.5t174.5 21q128 0 213 -36.5t136.5 -107t73.5 -174.5t23 -239h-149q-109 0 -160 -41.5t-51 -124.5q0 -31 10 -56.5t35 -49t66 -47t102 -52.5q77 -35 126 -74.5t77 -82.5 t38.5 -88t10.5 -91q0 -78 -24 -138t-68.5 -100t-108.5 -60.5t-145 -20.5q-72 0 -131 13.5t-101 41t-65 68t-23 94.5q0 41 12 68.5t30 43.5t38.5 22.5t36.5 6.5q0 -54 10.5 -101t34 -82.5t62 -56t94.5 -20.5z" />
<glyph unicode="&#xe0;" horiz-adv-x="1153" d="M301 297q0 -96 40.5 -143.5t125.5 -47.5q62 0 112.5 20t86 57t54.5 90t19 118v166l-131 -6q-87 -4 -145.5 -21.5t-94.5 -49t-51.5 -77.5t-15.5 -106zM549 1016q-59 0 -95.5 -16.5t-57 -46.5t-27.5 -71t-7 -89q-85 0 -129.5 29t-44.5 100q0 53 29 90t79.5 60.5t117.5 34.5 t143 11q94 0 164 -18.5t117 -60.5t70.5 -109.5t23.5 -165.5v-531q0 -43 7 -71t22 -45t39.5 -24t58.5 -7h6v-86h-277l-32 176h-17q-32 -43 -62 -79t-66 -62t-81.5 -40.5t-109.5 -14.5q-68 0 -126.5 19.5t-101 60t-66.5 102t-24 145.5q0 163 116 242t351 86l170 6v123 q0 55 -6 101.5t-26 80t-57.5 52t-100.5 18.5zM667 1241h-78q-41 28 -89 69.5t-93 85.5t-82 84.5t-56 67.5v21h219q16 -34 37.5 -74.5t45.5 -81t49 -78.5t47 -67v-27z" />
<glyph unicode="&#xe1;" horiz-adv-x="1153" d="M301 297q0 -96 40.5 -143.5t125.5 -47.5q62 0 112.5 20t86 57t54.5 90t19 118v166l-131 -6q-87 -4 -145.5 -21.5t-94.5 -49t-51.5 -77.5t-15.5 -106zM549 1016q-59 0 -95.5 -16.5t-57 -46.5t-27.5 -71t-7 -89q-85 0 -129.5 29t-44.5 100q0 53 29 90t79.5 60.5t117.5 34.5 t143 11q94 0 164 -18.5t117 -60.5t70.5 -109.5t23.5 -165.5v-531q0 -43 7 -71t22 -45t39.5 -24t58.5 -7h6v-86h-277l-32 176h-17q-32 -43 -62 -79t-66 -62t-81.5 -40.5t-109.5 -14.5q-68 0 -126.5 19.5t-101 60t-66.5 102t-24 145.5q0 163 116 242t351 86l170 6v123 q0 55 -6 101.5t-26 80t-57.5 52t-100.5 18.5zM471 1268q23 29 47.5 67t48 78.5t45 81t37.5 74.5h219v-21q-19 -27 -56 -67.5t-82 -84.5t-92.5 -85.5t-88.5 -69.5h-78v27z" />
<glyph unicode="&#xe2;" horiz-adv-x="1153" d="M301 297q0 -96 40.5 -143.5t125.5 -47.5q62 0 112.5 20t86 57t54.5 90t19 118v166l-131 -6q-87 -4 -145.5 -21.5t-94.5 -49t-51.5 -77.5t-15.5 -106zM549 1016q-59 0 -95.5 -16.5t-57 -46.5t-27.5 -71t-7 -89q-85 0 -129.5 29t-44.5 100q0 53 29 90t79.5 60.5t117.5 34.5 t143 11q94 0 164 -18.5t117 -60.5t70.5 -109.5t23.5 -165.5v-531q0 -43 7 -71t22 -45t39.5 -24t58.5 -7h6v-86h-277l-32 176h-17q-32 -43 -62 -79t-66 -62t-81.5 -40.5t-109.5 -14.5q-68 0 -126.5 19.5t-101 60t-66.5 102t-24 145.5q0 163 116 242t351 86l170 6v123 q0 55 -6 101.5t-26 80t-57.5 52t-100.5 18.5zM261 1268q24 29 53 67t57.5 78.5t53.5 81t41 74.5h194q16 -34 41 -74.5t53.5 -81t57.5 -78.5t53 -67v-27h-80q-59 34 -118 84.5t-105 99.5q-47 -49 -105 -99.5t-116 -84.5h-80v27z" />
<glyph unicode="&#xe3;" horiz-adv-x="1153" d="M301 297q0 -96 40.5 -143.5t125.5 -47.5q62 0 112.5 20t86 57t54.5 90t19 118v166l-131 -6q-87 -4 -145.5 -21.5t-94.5 -49t-51.5 -77.5t-15.5 -106zM549 1016q-59 0 -95.5 -16.5t-57 -46.5t-27.5 -71t-7 -89q-85 0 -129.5 29t-44.5 100q0 53 29 90t79.5 60.5t117.5 34.5 t143 11q94 0 164 -18.5t117 -60.5t70.5 -109.5t23.5 -165.5v-531q0 -43 7 -71t22 -45t39.5 -24t58.5 -7h6v-86h-277l-32 176h-17q-32 -43 -62 -79t-66 -62t-81.5 -40.5t-109.5 -14.5q-68 0 -126.5 19.5t-101 60t-66.5 102t-24 145.5q0 163 116 242t351 86l170 6v123 q0 55 -6 101.5t-26 80t-57.5 52t-100.5 18.5zM743 1374q30 0 48.5 9t29 24.5t15 35t7.5 40.5h92q-3 -47 -16.5 -90.5t-39.5 -77.5t-65 -54t-94 -20t-99.5 20t-83 44.5t-72 44.5t-66.5 20q-31 0 -49 -9t-28.5 -24t-15.5 -34.5t-8 -40.5h-92q3 47 16.5 90t40 77t66 54t94.5 20 t99.5 -20t83 -44.5t72 -44.5t65.5 -20z" />
<glyph unicode="&#xe4;" horiz-adv-x="1153" d="M301 297q0 -96 40.5 -143.5t125.5 -47.5q62 0 112.5 20t86 57t54.5 90t19 118v166l-131 -6q-87 -4 -145.5 -21.5t-94.5 -49t-51.5 -77.5t-15.5 -106zM549 1016q-59 0 -95.5 -16.5t-57 -46.5t-27.5 -71t-7 -89q-85 0 -129.5 29t-44.5 100q0 53 29 90t79.5 60.5t117.5 34.5 t143 11q94 0 164 -18.5t117 -60.5t70.5 -109.5t23.5 -165.5v-531q0 -43 7 -71t22 -45t39.5 -24t58.5 -7h6v-86h-277l-32 176h-17q-32 -43 -62 -79t-66 -62t-81.5 -40.5t-109.5 -14.5q-68 0 -126.5 19.5t-101 60t-66.5 102t-24 145.5q0 163 116 242t351 86l170 6v123 q0 55 -6 101.5t-26 80t-57.5 52t-100.5 18.5zM257 1409q0 32 8 54t22 35.5t33 19.5t41 6t41 -6t33.5 -19.5t22.5 -35.5t8 -54q0 -31 -8 -53t-22.5 -36t-33.5 -20t-41 -6q-45 0 -74.5 26t-29.5 89zM646 1409q0 32 8 54t22 35.5t33 19.5t41 6t41 -6t33.5 -19.5t22.5 -35.5 t8 -54q0 -31 -8 -53t-22.5 -36t-33.5 -20t-41 -6q-45 0 -74.5 26t-29.5 89z" />
<glyph unicode="&#xe5;" horiz-adv-x="1153" d="M301 297q0 -96 40.5 -143.5t125.5 -47.5q62 0 112.5 20t86 57t54.5 90t19 118v166l-131 -6q-87 -4 -145.5 -21.5t-94.5 -49t-51.5 -77.5t-15.5 -106zM549 1016q-59 0 -95.5 -16.5t-57 -46.5t-27.5 -71t-7 -89q-85 0 -129.5 29t-44.5 100q0 53 29 90t79.5 60.5t117.5 34.5 t143 11q94 0 164 -18.5t117 -60.5t70.5 -109.5t23.5 -165.5v-531q0 -43 7 -71t22 -45t39.5 -24t58.5 -7h6v-86h-277l-32 176h-17q-32 -43 -62 -79t-66 -62t-81.5 -40.5t-109.5 -14.5q-68 0 -126.5 19.5t-101 60t-66.5 102t-24 145.5q0 163 116 242t351 86l170 6v123 q0 55 -6 101.5t-26 80t-57.5 52t-100.5 18.5zM819 1444q0 -55 -19 -96.5t-52.5 -69.5t-78.5 -42.5t-96 -14.5t-96 14.5t-78.5 42.5t-52.5 69.5t-19 96.5q0 54 19 96t52.5 70t78.5 42.5t96 14.5t96 -14.5t78.5 -42.5t52.5 -70t19 -96zM708 1444q0 33 -10.5 56.5t-29 38 t-43 21.5t-52.5 7t-52.5 -7t-43 -21.5t-29 -38t-10.5 -56.5t10.5 -56.5t29 -38t43 -21.5t52.5 -7t52.5 7t43 21.5t29 38t10.5 56.5z" />
<glyph unicode="&#xe6;" horiz-adv-x="1722" d="M301 297q0 -96 40.5 -143.5t125.5 -47.5q62 0 112.5 20t86 57t54.5 90t19 118v123v27v16l-131 -6q-87 -4 -145.5 -21.5t-94.5 -49t-51.5 -77.5t-15.5 -106zM1190 1008q-115 0 -176 -92.5t-72 -270.5h471q0 81 -12 148t-38 115t-68.5 74t-104.5 26zM1221 -20 q-150 0 -254.5 59t-161.5 174q-19 -46 -53 -88t-82.5 -74.5t-111 -51.5t-138.5 -19q-68 0 -126.5 19.5t-101 60t-66.5 102t-24 145.5q0 163 116 242t351 86l170 6v123q0 55 -6 101.5t-26 80t-57.5 52t-100.5 18.5q-59 0 -95.5 -16.5t-57 -46.5t-27.5 -71t-7 -89 q-85 0 -129.5 29t-44.5 100q0 53 29 90t79.5 60.5t117.5 34.5t143 11q116 0 195.5 -29.5t124.5 -95.5q114 125 317 125q99 0 178 -31t134 -92.5t84.5 -153t29.5 -212.5v-94h-682q2 -112 21.5 -192.5t58 -132.5t97.5 -76.5t140 -24.5q45 0 87 11t78.5 30.5t66 45.5t49.5 56 q14 -6 26.5 -25t12.5 -45q0 -31 -22 -66.5t-66 -65.5t-110.5 -50t-155.5 -20z" />
<glyph unicode="&#xe7;" horiz-adv-x="1008" d="M580 -20q-102 0 -188 31.5t-148 99.5t-96.5 174.5t-34.5 257.5q0 164 34.5 274.5t96 177.5t145 95t180.5 28q64 0 127.5 -12.5t114.5 -38.5t83 -65.5t32 -92.5q0 -71 -46 -100t-137 -29q0 48 -8 91t-27.5 75.5t-53 51t-85.5 18.5q-59 0 -106.5 -22t-81.5 -76t-52 -145 t-18 -228q0 -218 72.5 -325t237.5 -107q95 0 166 40t106 103q15 -12 25 -32t10 -48q0 -35 -22 -70t-65.5 -63t-108.5 -45.5t-152 -17.5zM784 -258q0 -109 -69.5 -171.5t-200.5 -62.5q-16 0 -36 1.5t-41 4.5t-42 7.5t-39 9.5v104q37 -8 74 -12t65 -4q59 0 92 31t33 84 q0 60 -43.5 90t-110.5 35l43 159h97l-21 -88q100 -8 149.5 -57.5t49.5 -130.5z" />
<glyph unicode="&#xe8;" horiz-adv-x="1096" d="M563 1008q-114 0 -175.5 -92.5t-72.5 -270.5h471q0 81 -12 148t-38 115t-68.5 74t-104.5 26zM588 -20q-111 0 -199.5 37.5t-149.5 109.5t-93.5 176.5t-32.5 237.5q0 287 118 432t336 145q99 0 178 -31t134 -92.5t84.5 -153t29.5 -212.5v-94h-682q2 -112 22.5 -192.5 t59 -132.5t94.5 -76.5t129 -24.5q53 0 98.5 12t82.5 32t65.5 45.5t46.5 53.5q14 -6 26.5 -25t12.5 -45q0 -31 -22 -66.5t-67 -65.5t-112.5 -50t-158.5 -20zM683 1241h-78q-41 28 -89 69.5t-93 85.5t-82 84.5t-56 67.5v21h219q16 -34 37.5 -74.5t45.5 -81t49 -78.5t47 -67 v-27z" />
<glyph unicode="&#xe9;" horiz-adv-x="1096" d="M563 1008q-114 0 -175.5 -92.5t-72.5 -270.5h471q0 81 -12 148t-38 115t-68.5 74t-104.5 26zM588 -20q-111 0 -199.5 37.5t-149.5 109.5t-93.5 176.5t-32.5 237.5q0 287 118 432t336 145q99 0 178 -31t134 -92.5t84.5 -153t29.5 -212.5v-94h-682q2 -112 22.5 -192.5 t59 -132.5t94.5 -76.5t129 -24.5q53 0 98.5 12t82.5 32t65.5 45.5t46.5 53.5q14 -6 26.5 -25t12.5 -45q0 -31 -22 -66.5t-67 -65.5t-112.5 -50t-158.5 -20zM473 1268q23 29 47.5 67t48 78.5t45 81t37.5 74.5h219v-21q-19 -27 -56 -67.5t-82 -84.5t-92.5 -85.5t-88.5 -69.5 h-78v27z" />
<glyph unicode="&#xea;" horiz-adv-x="1096" d="M563 1008q-114 0 -175.5 -92.5t-72.5 -270.5h471q0 81 -12 148t-38 115t-68.5 74t-104.5 26zM588 -20q-111 0 -199.5 37.5t-149.5 109.5t-93.5 176.5t-32.5 237.5q0 287 118 432t336 145q99 0 178 -31t134 -92.5t84.5 -153t29.5 -212.5v-94h-682q2 -112 22.5 -192.5 t59 -132.5t94.5 -76.5t129 -24.5q53 0 98.5 12t82.5 32t65.5 45.5t46.5 53.5q14 -6 26.5 -25t12.5 -45q0 -31 -22 -66.5t-67 -65.5t-112.5 -50t-158.5 -20zM255 1268q24 29 53 67t57.5 78.5t53.5 81t41 74.5h194q16 -34 41 -74.5t53.5 -81t57.5 -78.5t53 -67v-27h-80 q-59 34 -118 84.5t-105 99.5q-47 -49 -105 -99.5t-116 -84.5h-80v27z" />
<glyph unicode="&#xeb;" horiz-adv-x="1096" d="M563 1008q-114 0 -175.5 -92.5t-72.5 -270.5h471q0 81 -12 148t-38 115t-68.5 74t-104.5 26zM588 -20q-111 0 -199.5 37.5t-149.5 109.5t-93.5 176.5t-32.5 237.5q0 287 118 432t336 145q99 0 178 -31t134 -92.5t84.5 -153t29.5 -212.5v-94h-682q2 -112 22.5 -192.5 t59 -132.5t94.5 -76.5t129 -24.5q53 0 98.5 12t82.5 32t65.5 45.5t46.5 53.5q14 -6 26.5 -25t12.5 -45q0 -31 -22 -66.5t-67 -65.5t-112.5 -50t-158.5 -20zM253 1409q0 32 8 54t22 35.5t33 19.5t41 6t41 -6t33.5 -19.5t22.5 -35.5t8 -54q0 -31 -8 -53t-22.5 -36t-33.5 -20 t-41 -6q-45 0 -74.5 26t-29.5 89zM642 1409q0 32 8 54t22 35.5t33 19.5t41 6t41 -6t33.5 -19.5t22.5 -35.5t8 -54q0 -31 -8 -53t-22.5 -36t-33.5 -20t-41 -6q-45 0 -74.5 26t-29.5 89z" />
<glyph unicode="&#xec;" horiz-adv-x="655" d="M74 86q34 0 64.5 4.5t53.5 18.5t36.5 41.5t13.5 72.5v649q0 45 -13.5 72.5t-36.5 42.5t-53.5 20t-64.5 5h-6v86h366v-865q0 -48 13.5 -77t36 -44.5t53.5 -20.5t65 -5h27v-86h-582v86h27zM436 1241h-78q-41 28 -89 69.5t-93 85.5t-82 84.5t-56 67.5v21h219 q16 -34 37.5 -74.5t45.5 -81t49 -78.5t47 -67v-27z" />
<glyph unicode="&#xed;" horiz-adv-x="655" d="M74 86q34 0 64.5 4.5t53.5 18.5t36.5 41.5t13.5 72.5v649q0 45 -13.5 72.5t-36.5 42.5t-53.5 20t-64.5 5h-6v86h366v-865q0 -48 13.5 -77t36 -44.5t53.5 -20.5t65 -5h27v-86h-582v86h27zM240 1268q23 29 47.5 67t48 78.5t45 81t37.5 74.5h219v-21q-19 -27 -56 -67.5 t-82 -84.5t-92.5 -85.5t-88.5 -69.5h-78v27z" />
<glyph unicode="&#xee;" horiz-adv-x="655" d="M74 86q34 0 64.5 4.5t53.5 18.5t36.5 41.5t13.5 72.5v649q0 45 -13.5 72.5t-36.5 42.5t-53.5 20t-64.5 5h-6v86h366v-865q0 -48 13.5 -77t36 -44.5t53.5 -20.5t65 -5h27v-86h-582v86h27zM22 1268q24 29 53 67t57.5 78.5t53.5 81t41 74.5h194q16 -34 41 -74.5t53.5 -81 t57.5 -78.5t53 -67v-27h-80q-59 34 -118 84.5t-105 99.5q-47 -49 -105 -99.5t-116 -84.5h-80v27z" />
<glyph unicode="&#xef;" horiz-adv-x="655" d="M74 86q34 0 64.5 4.5t53.5 18.5t36.5 41.5t13.5 72.5v649q0 45 -13.5 72.5t-36.5 42.5t-53.5 20t-64.5 5h-6v86h366v-865q0 -48 13.5 -77t36 -44.5t53.5 -20.5t65 -5h27v-86h-582v86h27zM18 1409q0 32 8 54t22 35.5t33 19.5t41 6t41 -6t33.5 -19.5t22.5 -35.5t8 -54 q0 -31 -8 -53t-22.5 -36t-33.5 -20t-41 -6q-45 0 -74.5 26t-29.5 89zM407 1409q0 32 8 54t22 35.5t33 19.5t41 6t41 -6t33.5 -19.5t22.5 -35.5t8 -54q0 -31 -8 -53t-22.5 -36t-33.5 -20t-41 -6q-45 0 -74.5 26t-29.5 89z" />
<glyph unicode="&#xf0;" d="M307 1559q94 -23 184 -60.5t171 -91.5l264 154v-117l-181 -103q72 -60 132 -137.5t102.5 -171.5t66 -203.5t23.5 -232.5q0 -312 -122.5 -464t-358.5 -152q-111 0 -199 32.5t-149.5 98.5t-94 165.5t-32.5 233.5q0 266 121.5 396t359.5 130q68 0 126 -14t109 -39 q-21 68 -74.5 143.5t-131.5 143.5l-256 -146v115l172 98q-51 34 -109 62.5t-123 48.5v111zM311 510q0 -105 15 -184t48.5 -132.5t87 -80.5t130.5 -27t130 27t86 80.5t47.5 132.5t14.5 184q0 104 -15 182.5t-48 131t-86.5 78.5t-130.5 26t-130 -26t-86 -78.5t-48 -131 t-15 -182.5z" />
<glyph unicode="&#xf1;" horiz-adv-x="1321" d="M608 86v-86h-551v86h17q35 0 65.5 5t53 20.5t36 44.5t13.5 77v639q0 45 -13.5 72.5t-36.5 42.5t-53.5 20t-64.5 5h-6v86h331l27 -166h10q32 57 67.5 93.5t75 57t84 28t93.5 7.5q81 0 144.5 -23.5t108 -72t68 -124.5t23.5 -181v-484q0 -48 11.5 -77t32.5 -44.5t50 -20.5 t63 -5h7v-86h-357v707q0 67 -12 119t-38.5 88t-69.5 54.5t-105 18.5q-70 0 -117.5 -27t-76.5 -73t-41.5 -106t-12.5 -126v-432q0 -45 13.5 -72.5t36.5 -41.5t53.5 -18.5t64.5 -4.5h6zM842 1374q30 0 48.5 9t29 24.5t15 35t7.5 40.5h92q-3 -47 -16.5 -90.5t-39.5 -77.5 t-65 -54t-94 -20t-99.5 20t-83 44.5t-72 44.5t-66.5 20q-31 0 -49 -9t-28.5 -24t-15.5 -34.5t-8 -40.5h-92q3 47 16.5 90t40 77t66 54t94.5 20t99.5 -20t83 -44.5t72 -44.5t65.5 -20z" />
<glyph unicode="&#xf2;" d="M1069 551q0 -289 -122.5 -430t-358.5 -141q-111 0 -199 35t-149.5 106t-94 178.5t-32.5 251.5q0 287 121.5 427t359.5 140q111 0 199 -34.5t149.5 -105t94 -177t32.5 -250.5zM311 551q0 -114 15 -201t48.5 -145.5t87 -88.5t130.5 -30t130 30t86 88.5t47.5 145.5t14.5 201 t-15 200t-48 143.5t-86.5 86.5t-130.5 29t-130 -29t-86 -86.5t-48 -143.5t-15 -200zM696 1241h-78q-41 28 -89 69.5t-93 85.5t-82 84.5t-56 67.5v21h219q16 -34 37.5 -74.5t45.5 -81t49 -78.5t47 -67v-27z" />
<glyph unicode="&#xf3;" d="M1069 551q0 -289 -122.5 -430t-358.5 -141q-111 0 -199 35t-149.5 106t-94 178.5t-32.5 251.5q0 287 121.5 427t359.5 140q111 0 199 -34.5t149.5 -105t94 -177t32.5 -250.5zM311 551q0 -114 15 -201t48.5 -145.5t87 -88.5t130.5 -30t130 30t86 88.5t47.5 145.5t14.5 201 t-15 200t-48 143.5t-86.5 86.5t-130.5 29t-130 -29t-86 -86.5t-48 -143.5t-15 -200zM512 1268q23 29 47.5 67t48 78.5t45 81t37.5 74.5h219v-21q-19 -27 -56 -67.5t-82 -84.5t-92.5 -85.5t-88.5 -69.5h-78v27z" />
<glyph unicode="&#xf4;" d="M1069 551q0 -289 -122.5 -430t-358.5 -141q-111 0 -199 35t-149.5 106t-94 178.5t-32.5 251.5q0 287 121.5 427t359.5 140q111 0 199 -34.5t149.5 -105t94 -177t32.5 -250.5zM311 551q0 -114 15 -201t48.5 -145.5t87 -88.5t130.5 -30t130 30t86 88.5t47.5 145.5t14.5 201 t-15 200t-48 143.5t-86.5 86.5t-130.5 29t-130 -29t-86 -86.5t-48 -143.5t-15 -200zM284 1268q24 29 53 67t57.5 78.5t53.5 81t41 74.5h194q16 -34 41 -74.5t53.5 -81t57.5 -78.5t53 -67v-27h-80q-59 34 -118 84.5t-105 99.5q-47 -49 -105 -99.5t-116 -84.5h-80v27z" />
<glyph unicode="&#xf5;" d="M1069 551q0 -289 -122.5 -430t-358.5 -141q-111 0 -199 35t-149.5 106t-94 178.5t-32.5 251.5q0 287 121.5 427t359.5 140q111 0 199 -34.5t149.5 -105t94 -177t32.5 -250.5zM311 551q0 -114 15 -201t48.5 -145.5t87 -88.5t130.5 -30t130 30t86 88.5t47.5 145.5t14.5 201 t-15 200t-48 143.5t-86.5 86.5t-130.5 29t-130 -29t-86 -86.5t-48 -143.5t-15 -200zM757 1374q30 0 48.5 9t29 24.5t15 35t7.5 40.5h92q-3 -47 -16.5 -90.5t-39.5 -77.5t-65 -54t-94 -20t-99.5 20t-83 44.5t-72 44.5t-66.5 20q-31 0 -49 -9t-28.5 -24t-15.5 -34.5t-8 -40.5 h-92q3 47 16.5 90t40 77t66 54t94.5 20t99.5 -20t83 -44.5t72 -44.5t65.5 -20z" />
<glyph unicode="&#xf6;" d="M1069 551q0 -289 -122.5 -430t-358.5 -141q-111 0 -199 35t-149.5 106t-94 178.5t-32.5 251.5q0 287 121.5 427t359.5 140q111 0 199 -34.5t149.5 -105t94 -177t32.5 -250.5zM311 551q0 -114 15 -201t48.5 -145.5t87 -88.5t130.5 -30t130 30t86 88.5t47.5 145.5t14.5 201 t-15 200t-48 143.5t-86.5 86.5t-130.5 29t-130 -29t-86 -86.5t-48 -143.5t-15 -200zM284 1409q0 32 8 54t22 35.5t33 19.5t41 6t41 -6t33.5 -19.5t22.5 -35.5t8 -54q0 -31 -8 -53t-22.5 -36t-33.5 -20t-41 -6q-45 0 -74.5 26t-29.5 89zM673 1409q0 32 8 54t22 35.5t33 19.5 t41 6t41 -6t33.5 -19.5t22.5 -35.5t8 -54q0 -31 -8 -53t-22.5 -36t-33.5 -20t-41 -6q-45 0 -74.5 26t-29.5 89z" />
<glyph unicode="&#xf7;" horiz-adv-x="1145" d="M1012 672h-879v121h879v-121zM469 1120q0 32 8 54t22 35t33 18.5t41 5.5t41 -5.5t33.5 -18.5t22.5 -35t8 -54q0 -31 -8 -52.5t-22.5 -35t-33.5 -19t-41 -5.5t-41 5.5t-33 19t-22 35t-8 52.5zM469 344q0 32 8 54t22 35t33 18.5t41 5.5t41 -5.5t33.5 -18.5t22.5 -35t8 -54 q0 -31 -8 -53t-22.5 -35t-33.5 -19t-41 -6q-45 0 -74.5 25t-29.5 88z" />
<glyph unicode="&#xf8;" d="M930 991q68 -69 103.5 -178.5t35.5 -261.5q0 -289 -122.5 -430t-358.5 -141q-71 0 -133 14t-113 43l-74 -119h-121l111 180q-71 72 -108 183.5t-37 269.5q0 287 121.5 427t359.5 140q74 0 137.5 -16t116.5 -47l78 125h118zM311 551q0 -94 10 -169t31 -132l424 686 q-68 74 -186 74q-77 0 -130 -29t-86 -86.5t-48 -143.5t-15 -200zM870 551q0 177 -36 285l-422 -684q32 -32 76.5 -49t103.5 -17q77 0 130 30t86 88.5t47.5 145.5t14.5 201z" />
<glyph unicode="&#xf9;" horiz-adv-x="1300" d="M1079 223q0 -45 13.5 -72.5t36.5 -41.5t53.5 -18.5t64.5 -4.5h6v-86h-325l-27 166h-10q-31 -58 -68.5 -94t-79.5 -56.5t-88 -28t-96 -7.5q-81 0 -144 23t-106 72t-65.5 125t-22.5 181v491q0 45 -13.5 72.5t-36.5 42.5t-53.5 20t-64.5 5h-6v86h367v-707q0 -67 10.5 -119 t35 -88t66 -54.5t103.5 -18.5q68 0 116.5 24t80 67.5t46.5 104.5t15 135v422q0 48 -13.5 77.5t-36 45t-53 20.5t-65.5 5h-6v86h366v-875zM712 1241h-78q-41 28 -89 69.5t-93 85.5t-82 84.5t-56 67.5v21h219q16 -34 37.5 -74.5t45.5 -81t49 -78.5t47 -67v-27z" />
<glyph unicode="&#xfa;" horiz-adv-x="1300" d="M1079 223q0 -45 13.5 -72.5t36.5 -41.5t53.5 -18.5t64.5 -4.5h6v-86h-325l-27 166h-10q-31 -58 -68.5 -94t-79.5 -56.5t-88 -28t-96 -7.5q-81 0 -144 23t-106 72t-65.5 125t-22.5 181v491q0 45 -13.5 72.5t-36.5 42.5t-53.5 20t-64.5 5h-6v86h367v-707q0 -67 10.5 -119 t35 -88t66 -54.5t103.5 -18.5q68 0 116.5 24t80 67.5t46.5 104.5t15 135v422q0 48 -13.5 77.5t-36 45t-53 20.5t-65.5 5h-6v86h366v-875zM541 1268q23 29 47.5 67t48 78.5t45 81t37.5 74.5h219v-21q-19 -27 -56 -67.5t-82 -84.5t-92.5 -85.5t-88.5 -69.5h-78v27z" />
<glyph unicode="&#xfb;" horiz-adv-x="1300" d="M1079 223q0 -45 13.5 -72.5t36.5 -41.5t53.5 -18.5t64.5 -4.5h6v-86h-325l-27 166h-10q-31 -58 -68.5 -94t-79.5 -56.5t-88 -28t-96 -7.5q-81 0 -144 23t-106 72t-65.5 125t-22.5 181v491q0 45 -13.5 72.5t-36.5 42.5t-53.5 20t-64.5 5h-6v86h367v-707q0 -67 10.5 -119 t35 -88t66 -54.5t103.5 -18.5q68 0 116.5 24t80 67.5t46.5 104.5t15 135v422q0 48 -13.5 77.5t-36 45t-53 20.5t-65.5 5h-6v86h366v-875zM342 1268q24 29 53 67t57.5 78.5t53.5 81t41 74.5h194q16 -34 41 -74.5t53.5 -81t57.5 -78.5t53 -67v-27h-80q-59 34 -118 84.5 t-105 99.5q-47 -49 -105 -99.5t-116 -84.5h-80v27z" />
<glyph unicode="&#xfc;" horiz-adv-x="1300" d="M1079 223q0 -45 13.5 -72.5t36.5 -41.5t53.5 -18.5t64.5 -4.5h6v-86h-325l-27 166h-10q-31 -58 -68.5 -94t-79.5 -56.5t-88 -28t-96 -7.5q-81 0 -144 23t-106 72t-65.5 125t-22.5 181v491q0 45 -13.5 72.5t-36.5 42.5t-53.5 20t-64.5 5h-6v86h367v-707q0 -67 10.5 -119 t35 -88t66 -54.5t103.5 -18.5q68 0 116.5 24t80 67.5t46.5 104.5t15 135v422q0 48 -13.5 77.5t-36 45t-53 20.5t-65.5 5h-6v86h366v-875zM348 1409q0 32 8 54t22 35.5t33 19.5t41 6t41 -6t33.5 -19.5t22.5 -35.5t8 -54q0 -31 -8 -53t-22.5 -36t-33.5 -20t-41 -6 q-45 0 -74.5 26t-29.5 89zM737 1409q0 32 8 54t22 35.5t33 19.5t41 6t41 -6t33.5 -19.5t22.5 -35.5t8 -54q0 -31 -8 -53t-22.5 -36t-33.5 -20t-41 -6q-45 0 -74.5 26t-29.5 89z" />
<glyph unicode="&#xfd;" horiz-adv-x="1157" d="M1157 1098v-86h-6q-30 0 -51.5 -6.5t-39 -24.5t-32.5 -49t-33 -80l-311 -860q-36 -99 -68 -174t-67 -128.5t-76.5 -88.5t-94.5 -56t-122 -29t-160 -8h-18v97q104 0 179 31t129.5 85t91 127.5t61.5 159.5l-379 895q-14 32 -27 52.5t-29.5 33.5t-38 18t-51.5 5h-6v86h492 v-86h-6q-62 0 -92.5 -24t-30.5 -75q0 -17 3.5 -34.5t12.5 -40.5l150 -365q14 -35 29.5 -76.5t29 -82t24.5 -76.5t15 -62h6q11 45 30.5 109.5t45.5 138.5l137 399q9 25 13.5 48t4.5 40q0 53 -33.5 77t-101.5 24h-6v86h426zM504 1268q23 29 47.5 67t48 78.5t45 81t37.5 74.5 h219v-21q-19 -27 -56 -67.5t-82 -84.5t-92.5 -85.5t-88.5 -69.5h-78v27z" />
<glyph unicode="&#xfe;" horiz-adv-x="1257" d="M692 987q-80 0 -133.5 -26.5t-85.5 -80.5t-45.5 -136t-13.5 -193q0 -107 13.5 -189t46 -138t86 -84.5t134.5 -28.5q67 0 115 28.5t78.5 84.5t44.5 138.5t14 190.5q0 218 -59 326t-195 108zM1145 551q0 -148 -27.5 -256t-80.5 -178t-131 -103.5t-179 -33.5q-59 0 -107 13 t-86.5 37t-68 57t-51.5 73h-8q2 -53 4 -99q1 -20 1.5 -40t1 -38t1 -32.5t0.5 -22.5v-196q0 -45 13.5 -72.5t36.5 -42t53.5 -19t64.5 -4.5h6v-86h-551v86h16q34 0 65 5t53.5 20.5t36 45t13.5 77.5v1589q0 45 -13.5 72.5t-36.5 42.5t-53.5 19.5t-64.5 4.5h-16v86h377v-376 q0 -35 -1 -80.5t-3 -87.5q-2 -48 -4 -99h8q23 47 52 85t67 64.5t86 41t108 14.5q101 0 179 -33.5t131 -103t80.5 -176.5t27.5 -254z" />
<glyph unicode="&#xff;" horiz-adv-x="1157" d="M1157 1098v-86h-6q-30 0 -51.5 -6.5t-39 -24.5t-32.5 -49t-33 -80l-311 -860q-36 -99 -68 -174t-67 -128.5t-76.5 -88.5t-94.5 -56t-122 -29t-160 -8h-18v97q104 0 179 31t129.5 85t91 127.5t61.5 159.5l-379 895q-14 32 -27 52.5t-29.5 33.5t-38 18t-51.5 5h-6v86h492 v-86h-6q-62 0 -92.5 -24t-30.5 -75q0 -17 3.5 -34.5t12.5 -40.5l150 -365q14 -35 29.5 -76.5t29 -82t24.5 -76.5t15 -62h6q11 45 30.5 109.5t45.5 138.5l137 399q9 25 13.5 48t4.5 40q0 53 -33.5 77t-101.5 24h-6v86h426zM320 1409q0 32 8 54t22 35.5t33 19.5t41 6t41 -6 t33.5 -19.5t22.5 -35.5t8 -54q0 -31 -8 -53t-22.5 -36t-33.5 -20t-41 -6q-45 0 -74.5 26t-29.5 89zM709 1409q0 32 8 54t22 35.5t33 19.5t41 6t41 -6t33.5 -19.5t22.5 -35.5t8 -54q0 -31 -8 -53t-22.5 -36t-33.5 -20t-41 -6q-45 0 -74.5 26t-29.5 89z" />
<glyph unicode="&#x100;" horiz-adv-x="1444" d="M414 489l-78 -215q-9 -24 -14 -47.5t-5 -40.5q0 -52 33.5 -76t102.5 -24h47v-86h-500v86h39q30 0 51 6.5t38 24.5t32.5 49t34.5 80l454 1216h160l463 -1267q12 -32 24.5 -53t29.5 -33.5t39 -17.5t52 -5h27v-86h-563v86h47q123 0 123 98q0 17 -4.5 35t-12.5 41l-82 229 h-538zM788 950q-32 91 -58.5 170.5t-43.5 153.5q-7 -37 -16.5 -71.5t-20.5 -70.5t-25 -75.5t-32 -87.5l-139 -377h462zM1014 1579h-594v121h594v-121z" />
<glyph unicode="&#x101;" horiz-adv-x="1153" d="M301 297q0 -96 40.5 -143.5t125.5 -47.5q62 0 112.5 20t86 57t54.5 90t19 118v166l-131 -6q-87 -4 -145.5 -21.5t-94.5 -49t-51.5 -77.5t-15.5 -106zM549 1016q-59 0 -95.5 -16.5t-57 -46.5t-27.5 -71t-7 -89q-85 0 -129.5 29t-44.5 100q0 53 29 90t79.5 60.5t117.5 34.5 t143 11q94 0 164 -18.5t117 -60.5t70.5 -109.5t23.5 -165.5v-531q0 -43 7 -71t22 -45t39.5 -24t58.5 -7h6v-86h-277l-32 176h-17q-32 -43 -62 -79t-66 -62t-81.5 -40.5t-109.5 -14.5q-68 0 -126.5 19.5t-101 60t-66.5 102t-24 145.5q0 163 116 242t351 86l170 6v123 q0 55 -6 101.5t-26 80t-57.5 52t-100.5 18.5zM852 1241h-594v121h594v-121z" />
<glyph unicode="&#x102;" horiz-adv-x="1444" d="M414 489l-78 -215q-9 -24 -14 -47.5t-5 -40.5q0 -52 33.5 -76t102.5 -24h47v-86h-500v86h39q30 0 51 6.5t38 24.5t32.5 49t34.5 80l454 1216h160l463 -1267q12 -32 24.5 -53t29.5 -33.5t39 -17.5t52 -5h27v-86h-563v86h47q123 0 123 98q0 17 -4.5 35t-12.5 41l-82 229 h-538zM788 950q-32 91 -58.5 170.5t-43.5 153.5q-7 -37 -16.5 -71.5t-20.5 -70.5t-25 -75.5t-32 -87.5l-139 -377h462zM717 1579q-73 0 -126.5 22.5t-88.5 60.5t-52.5 89t-19.5 109h94q17 -75 67 -107.5t126 -32.5q75 0 125 32.5t67 107.5h95q-2 -58 -19.5 -109t-53 -89 t-88.5 -60.5t-126 -22.5z" />
<glyph unicode="&#x103;" horiz-adv-x="1153" d="M301 297q0 -96 40.5 -143.5t125.5 -47.5q62 0 112.5 20t86 57t54.5 90t19 118v166l-131 -6q-87 -4 -145.5 -21.5t-94.5 -49t-51.5 -77.5t-15.5 -106zM549 1016q-59 0 -95.5 -16.5t-57 -46.5t-27.5 -71t-7 -89q-85 0 -129.5 29t-44.5 100q0 53 29 90t79.5 60.5t117.5 34.5 t143 11q94 0 164 -18.5t117 -60.5t70.5 -109.5t23.5 -165.5v-531q0 -43 7 -71t22 -45t39.5 -24t58.5 -7h6v-86h-277l-32 176h-17q-32 -43 -62 -79t-66 -62t-81.5 -40.5t-109.5 -14.5q-68 0 -126.5 19.5t-101 60t-66.5 102t-24 145.5q0 163 116 242t351 86l170 6v123 q0 55 -6 101.5t-26 80t-57.5 52t-100.5 18.5zM564 1241q-73 0 -126.5 22.5t-88.5 60.5t-52.5 89t-19.5 109h94q17 -75 67 -107.5t126 -32.5q75 0 125 32.5t67 107.5h95q-2 -58 -19.5 -109t-53 -89t-88.5 -60.5t-126 -22.5z" />
<glyph unicode="&#x104;" horiz-adv-x="1444" d="M414 489l-78 -215q-9 -24 -14 -47.5t-5 -40.5q0 -52 33.5 -76t102.5 -24h47v-86h-500v86h39q30 0 51 6.5t38 24.5t32.5 49t34.5 80l454 1216h160l463 -1267q12 -32 24.5 -53t29.5 -33.5t39 -17.5t52 -5h27v-86h-563v86h47q123 0 123 98q0 17 -4.5 35t-12.5 41l-82 229 h-538zM788 950q-32 91 -58.5 170.5t-43.5 153.5q-7 -37 -16.5 -71.5t-20.5 -70.5t-25 -75.5t-32 -87.5l-139 -377h462zM934 -266q0 48 20 91t54 78.5t77.5 60.5t90.5 36h117q-32 -10 -66 -30t-61.5 -49.5t-45.5 -68.5t-18 -88q0 -34 10.5 -58.5t29.5 -40t45 -23t57 -7.5 q27 0 59 4.5t70 12.5v-111q-16 -8 -36.5 -14t-42.5 -10t-42.5 -6.5t-36.5 -2.5q-65 0 -117 13.5t-88.5 41t-56 70t-19.5 101.5z" />
<glyph unicode="&#x105;" horiz-adv-x="1153" d="M301 297q0 -96 40.5 -143.5t125.5 -47.5q62 0 112.5 20t86 57t54.5 90t19 118v166l-131 -6q-87 -4 -145.5 -21.5t-94.5 -49t-51.5 -77.5t-15.5 -106zM549 1016q-59 0 -95.5 -16.5t-57 -46.5t-27.5 -71t-7 -89q-85 0 -129.5 29t-44.5 100q0 53 29 90t79.5 60.5t117.5 34.5 t143 11q94 0 164 -18.5t117 -60.5t70.5 -109.5t23.5 -165.5v-531q0 -43 7 -71t22 -45t39.5 -24t58.5 -7h6v-86h-277l-32 176h-17q-32 -43 -62 -79t-66 -62t-81.5 -40.5t-109.5 -14.5q-68 0 -126.5 19.5t-101 60t-66.5 102t-24 145.5q0 163 116 242t351 86l170 6v123 q0 55 -6 101.5t-26 80t-57.5 52t-100.5 18.5zM549 -266q0 48 20 91t54 78.5t77.5 60.5t90.5 36h117q-32 -10 -66 -30t-61.5 -49.5t-45.5 -68.5t-18 -88q0 -34 10.5 -58.5t29.5 -40t45 -23t57 -7.5q27 0 59 4.5t70 12.5v-111q-16 -8 -36.5 -14t-42.5 -10t-42.5 -6.5 t-36.5 -2.5q-65 0 -117 13.5t-88.5 41t-56 70t-19.5 101.5z" />
<glyph unicode="&#x106;" horiz-adv-x="1257" d="M774 1483q105 0 182.5 -17.5t129 -48.5t77 -73t25.5 -91q0 -33 -13.5 -59.5t-37.5 -45t-56.5 -28.5t-70.5 -10q0 48 -12.5 95t-41 84.5t-74 61t-112.5 23.5q-116 0 -197 -42.5t-132 -124t-74 -201t-23 -273.5q0 -137 24 -251t76 -195.5t132.5 -126.5t193.5 -45 q75 0 132.5 14.5t101.5 38.5t77.5 55.5t59.5 65.5q17 -11 28 -30t11 -50q0 -39 -26.5 -79.5t-80.5 -73.5t-137 -54.5t-197 -21.5q-153 0 -269 54t-194.5 153t-118.5 238t-40 308q0 166 42 304t124.5 237t205.5 154t285 55zM657 1606q23 29 47.5 67t48 78.5t45 81t37.5 74.5 h219v-21q-19 -27 -56 -67.5t-82 -84.5t-92.5 -85.5t-88.5 -69.5h-78v27z" />
<glyph unicode="&#x107;" horiz-adv-x="1008" d="M580 -20q-102 0 -188 31.5t-148 99.5t-96.5 174.5t-34.5 257.5q0 164 34.5 274.5t96 177.5t145 95t180.5 28q64 0 127.5 -12.5t114.5 -38.5t83 -65.5t32 -92.5q0 -71 -46 -100t-137 -29q0 48 -8 91t-27.5 75.5t-53 51t-85.5 18.5q-59 0 -106.5 -22t-81.5 -76t-52 -145 t-18 -228q0 -218 72.5 -325t237.5 -107q95 0 166 40t106 103q15 -12 25 -32t10 -48q0 -35 -22 -70t-65.5 -63t-108.5 -45.5t-152 -17.5zM465 1268q23 29 47.5 67t48 78.5t45 81t37.5 74.5h219v-21q-19 -27 -56 -67.5t-82 -84.5t-92.5 -85.5t-88.5 -69.5h-78v27z" />
<glyph unicode="&#x108;" horiz-adv-x="1257" d="M774 1483q105 0 182.5 -17.5t129 -48.5t77 -73t25.5 -91q0 -33 -13.5 -59.5t-37.5 -45t-56.5 -28.5t-70.5 -10q0 48 -12.5 95t-41 84.5t-74 61t-112.5 23.5q-116 0 -197 -42.5t-132 -124t-74 -201t-23 -273.5q0 -137 24 -251t76 -195.5t132.5 -126.5t193.5 -45 q75 0 132.5 14.5t101.5 38.5t77.5 55.5t59.5 65.5q17 -11 28 -30t11 -50q0 -39 -26.5 -79.5t-80.5 -73.5t-137 -54.5t-197 -21.5q-153 0 -269 54t-194.5 153t-118.5 238t-40 308q0 166 42 304t124.5 237t205.5 154t285 55zM459 1606q24 29 53 67t57.5 78.5t53.5 81t41 74.5 h194q16 -34 41 -74.5t53.5 -81t57.5 -78.5t53 -67v-27h-80q-59 34 -118 84.5t-105 99.5q-47 -49 -105 -99.5t-116 -84.5h-80v27z" />
<glyph unicode="&#x109;" horiz-adv-x="1008" d="M580 -20q-102 0 -188 31.5t-148 99.5t-96.5 174.5t-34.5 257.5q0 164 34.5 274.5t96 177.5t145 95t180.5 28q64 0 127.5 -12.5t114.5 -38.5t83 -65.5t32 -92.5q0 -71 -46 -100t-137 -29q0 48 -8 91t-27.5 75.5t-53 51t-85.5 18.5q-59 0 -106.5 -22t-81.5 -76t-52 -145 t-18 -228q0 -218 72.5 -325t237.5 -107q95 0 166 40t106 103q15 -12 25 -32t10 -48q0 -35 -22 -70t-65.5 -63t-108.5 -45.5t-152 -17.5zM278 1268q24 29 53 67t57.5 78.5t53.5 81t41 74.5h194q16 -34 41 -74.5t53.5 -81t57.5 -78.5t53 -67v-27h-80q-59 34 -118 84.5 t-105 99.5q-47 -49 -105 -99.5t-116 -84.5h-80v27z" />
<glyph unicode="&#x10a;" horiz-adv-x="1257" d="M774 1483q105 0 182.5 -17.5t129 -48.5t77 -73t25.5 -91q0 -33 -13.5 -59.5t-37.5 -45t-56.5 -28.5t-70.5 -10q0 48 -12.5 95t-41 84.5t-74 61t-112.5 23.5q-116 0 -197 -42.5t-132 -124t-74 -201t-23 -273.5q0 -137 24 -251t76 -195.5t132.5 -126.5t193.5 -45 q75 0 132.5 14.5t101.5 38.5t77.5 55.5t59.5 65.5q17 -11 28 -30t11 -50q0 -39 -26.5 -79.5t-80.5 -73.5t-137 -54.5t-197 -21.5q-153 0 -269 54t-194.5 153t-118.5 238t-40 308q0 166 42 304t124.5 237t205.5 154t285 55zM651 1768q0 36 9 60t25 39t37 21t46 6q24 0 45 -6 t37 -21t25.5 -39t9.5 -60t-9.5 -60t-25.5 -39t-37 -21.5t-45 -6.5q-25 0 -46 6.5t-37 21.5t-25 39t-9 60z" />
<glyph unicode="&#x10b;" horiz-adv-x="1008" d="M580 -20q-102 0 -188 31.5t-148 99.5t-96.5 174.5t-34.5 257.5q0 164 34.5 274.5t96 177.5t145 95t180.5 28q64 0 127.5 -12.5t114.5 -38.5t83 -65.5t32 -92.5q0 -71 -46 -100t-137 -29q0 48 -8 91t-27.5 75.5t-53 51t-85.5 18.5q-59 0 -106.5 -22t-81.5 -76t-52 -145 t-18 -228q0 -218 72.5 -325t237.5 -107q95 0 166 40t106 103q15 -12 25 -32t10 -48q0 -35 -22 -70t-65.5 -63t-108.5 -45.5t-152 -17.5zM463 1430q0 36 9 60t25 39t37 21t46 6q24 0 45 -6t37 -21t25.5 -39t9.5 -60t-9.5 -60t-25.5 -39t-37 -21.5t-45 -6.5q-25 0 -46 6.5 t-37 21.5t-25 39t-9 60z" />
<glyph unicode="&#x10c;" horiz-adv-x="1257" d="M774 1483q105 0 182.5 -17.5t129 -48.5t77 -73t25.5 -91q0 -33 -13.5 -59.5t-37.5 -45t-56.5 -28.5t-70.5 -10q0 48 -12.5 95t-41 84.5t-74 61t-112.5 23.5q-116 0 -197 -42.5t-132 -124t-74 -201t-23 -273.5q0 -137 24 -251t76 -195.5t132.5 -126.5t193.5 -45 q75 0 132.5 14.5t101.5 38.5t77.5 55.5t59.5 65.5q17 -11 28 -30t11 -50q0 -39 -26.5 -79.5t-80.5 -73.5t-137 -54.5t-197 -21.5q-153 0 -269 54t-194.5 153t-118.5 238t-40 308q0 166 42 304t124.5 237t205.5 154t285 55zM436 1907h80q29 -18 58.5 -40t58 -46.5t55 -50 t49.5 -50.5q23 25 49.5 50.5t55.5 50t59 46.5t59 40h80v-27q-24 -29 -53 -67t-57.5 -78.5t-53.5 -80.5t-41 -75h-194q-16 35 -41 75t-53.5 80.5t-57.5 78.5t-53 67v27z" />
<glyph unicode="&#x10d;" horiz-adv-x="1008" d="M580 -20q-102 0 -188 31.5t-148 99.5t-96.5 174.5t-34.5 257.5q0 164 34.5 274.5t96 177.5t145 95t180.5 28q64 0 127.5 -12.5t114.5 -38.5t83 -65.5t32 -92.5q0 -71 -46 -100t-137 -29q0 48 -8 91t-27.5 75.5t-53 51t-85.5 18.5q-59 0 -106.5 -22t-81.5 -76t-52 -145 t-18 -228q0 -218 72.5 -325t237.5 -107q95 0 166 40t106 103q15 -12 25 -32t10 -48q0 -35 -22 -70t-65.5 -63t-108.5 -45.5t-152 -17.5zM274 1569h80q29 -18 58.5 -40t58 -46.5t55 -50t49.5 -50.5q23 25 49.5 50.5t55.5 50t59 46.5t59 40h80v-27q-24 -29 -53 -67 t-57.5 -78.5t-53.5 -80.5t-41 -75h-194q-16 35 -41 75t-53.5 80.5t-57.5 78.5t-53 67v27z" />
<glyph unicode="&#x10e;" horiz-adv-x="1489" d="M1372 733q0 -168 -42 -303.5t-125 -231t-208 -147t-292 -51.5h-627v86h26q35 0 65.5 5t53.5 20.5t36 44.5t13 77v1004q0 45 -13.5 72.5t-36.5 42.5t-53.5 19.5t-64.5 4.5h-26v86h627q158 0 282 -48.5t209.5 -141.5t130.5 -229t45 -310zM657 104q122 0 213.5 41.5 t152.5 121.5t91.5 197t30.5 269q0 305 -121.5 466t-364.5 161h-180v-1256h178zM377 1907h80q29 -18 58.5 -40t58 -46.5t55 -50t49.5 -50.5q23 25 49.5 50.5t55.5 50t59 46.5t59 40h80v-27q-24 -29 -53 -67t-57.5 -78.5t-53.5 -80.5t-41 -75h-194q-16 35 -41 75t-53.5 80.5 t-57.5 78.5t-53 67v27z" />
<glyph unicode="&#x10f;" horiz-adv-x="1257" d="M1036 225q0 -45 13.5 -72.5t36.5 -42.5t53.5 -19.5t64.5 -4.5h17v-86h-347l-22 184h-8q-23 -47 -52.5 -84.5t-67.5 -64t-86 -41t-108 -14.5q-101 0 -179 33.5t-131 103t-80 176.5t-27 254q0 148 27 256t80 178t131 103.5t179 33.5q59 0 107 -13t86.5 -37t68.5 -57t52 -73 h12q-3 50 -6 94q-2 38 -4 75.5t-2 55.5v168q0 45 -13.5 72.5t-36.5 42.5t-53.5 19.5t-64.5 4.5h-17v86h377v-1331zM565 111q80 0 133.5 26.5t86 80.5t46 136t13.5 193q0 107 -13.5 189t-46 137.5t-86.5 84.5t-135 29q-67 0 -115 -29t-78.5 -85t-44.5 -138.5t-14 -189.5 q0 -218 59 -326t195 -108zM1149 1255q17 69 33 148t29 153h178v-20q-14 -32 -34 -72t-43.5 -81.5t-47.5 -81.5t-45 -72h-70v26z" />
<glyph unicode="&#x110;" horiz-adv-x="1489" d="M78 815h194v422q0 45 -13.5 72.5t-36.5 42.5t-53.5 19.5t-64.5 4.5h-26v86h627q158 0 282 -48.5t209.5 -141.5t130.5 -229t45 -310q0 -168 -42 -303.5t-125 -231t-208.5 -147t-291.5 -51.5h-627v86h26q35 0 65.5 5t53.5 20.5t36 44.5t13 77v482h-194v100zM657 104 q122 0 213.5 41.5t152.5 121.5t91.5 197t30.5 269t-30.5 269t-91 196.5t-152 120.5t-212.5 41h-180v-545h348v-100h-348v-611h178z" />
<glyph unicode="&#x111;" horiz-adv-x="1257" d="M1036 1311h187v-97h-187v-989q0 -45 13.5 -72.5t36.5 -42.5t53.5 -19.5t64.5 -4.5h17v-86h-347l-22 184h-8q-23 -47 -52.5 -84.5t-67.5 -64t-86 -41t-108 -14.5q-101 0 -179 32t-131 99t-80 170t-27 245q0 143 27 247t80 171.5t131 100t179 32.5q59 0 107 -13t86.5 -37 t68.5 -57t52 -73h12q-3 50 -6 95q-2 38 -4 77t-2 59v86h-350v97h350v20q0 45 -13.5 72t-36.5 42t-53.5 20t-64.5 5h-17v86h377v-245zM565 111q80 0 133.5 25.5t86 77t46 129.5t13.5 183q0 102 -13.5 180.5t-46 132t-86.5 80.5t-135 27q-135 0 -193.5 -108t-58.5 -314 q0 -207 59 -310t195 -103z" />
<glyph unicode="&#x112;" horiz-adv-x="1276" d="M479 102h395q49 0 83.5 13.5t57.5 36.5t36 53.5t18 64.5l14 88h107l-14 -358h-1098v86h26q34 0 64.5 4.5t53.5 18.5t36.5 41.5t13.5 72.5v1006q0 48 -13 77t-36 44.5t-53.5 20.5t-65.5 5h-26v86h1032l10 -358h-106l-10 88q-4 34 -15.5 64.5t-33 53.5t-54 36.5t-78.5 13.5 h-344v-545h494v-100h-494v-613zM948 1579h-594v121h594v-121z" />
<glyph unicode="&#x113;" horiz-adv-x="1096" d="M563 1008q-114 0 -175.5 -92.5t-72.5 -270.5h471q0 81 -12 148t-38 115t-68.5 74t-104.5 26zM588 -20q-111 0 -199.5 37.5t-149.5 109.5t-93.5 176.5t-32.5 237.5q0 287 118 432t336 145q99 0 178 -31t134 -92.5t84.5 -153t29.5 -212.5v-94h-682q2 -112 22.5 -192.5 t59 -132.5t94.5 -76.5t129 -24.5q53 0 98.5 12t82.5 32t65.5 45.5t46.5 53.5q14 -6 26.5 -25t12.5 -45q0 -31 -22 -66.5t-67 -65.5t-112.5 -50t-158.5 -20zM856 1241h-594v121h594v-121z" />
<glyph unicode="&#x114;" horiz-adv-x="1276" d="M479 102h395q49 0 83.5 13.5t57.5 36.5t36 53.5t18 64.5l14 88h107l-14 -358h-1098v86h26q34 0 64.5 4.5t53.5 18.5t36.5 41.5t13.5 72.5v1006q0 48 -13 77t-36 44.5t-53.5 20.5t-65.5 5h-26v86h1032l10 -358h-106l-10 88q-4 34 -15.5 64.5t-33 53.5t-54 36.5t-78.5 13.5 h-344v-545h494v-100h-494v-613zM639 1579q-73 0 -126.5 22.5t-88.5 60.5t-52.5 89t-19.5 109h94q17 -75 67 -107.5t126 -32.5q75 0 125 32.5t67 107.5h95q-2 -58 -19.5 -109t-53 -89t-88.5 -60.5t-126 -22.5z" />
<glyph unicode="&#x115;" horiz-adv-x="1096" d="M563 1008q-114 0 -175.5 -92.5t-72.5 -270.5h471q0 81 -12 148t-38 115t-68.5 74t-104.5 26zM588 -20q-111 0 -199.5 37.5t-149.5 109.5t-93.5 176.5t-32.5 237.5q0 287 118 432t336 145q99 0 178 -31t134 -92.5t84.5 -153t29.5 -212.5v-94h-682q2 -112 22.5 -192.5 t59 -132.5t94.5 -76.5t129 -24.5q53 0 98.5 12t82.5 32t65.5 45.5t46.5 53.5q14 -6 26.5 -25t12.5 -45q0 -31 -22 -66.5t-67 -65.5t-112.5 -50t-158.5 -20zM568 1241q-73 0 -126.5 22.5t-88.5 60.5t-52.5 89t-19.5 109h94q17 -75 67 -107.5t126 -32.5q75 0 125 32.5 t67 107.5h95q-2 -58 -19.5 -109t-53 -89t-88.5 -60.5t-126 -22.5z" />
<glyph unicode="&#x116;" horiz-adv-x="1276" d="M479 102h395q49 0 83.5 13.5t57.5 36.5t36 53.5t18 64.5l14 88h107l-14 -358h-1098v86h26q34 0 64.5 4.5t53.5 18.5t36.5 41.5t13.5 72.5v1006q0 48 -13 77t-36 44.5t-53.5 20.5t-65.5 5h-26v86h1032l10 -358h-106l-10 88q-4 34 -15.5 64.5t-33 53.5t-54 36.5t-78.5 13.5 h-344v-545h494v-100h-494v-613zM542 1739q0 36 9 60t25 39t37 21t46 6q24 0 45 -6t37 -21t25.5 -39t9.5 -60t-9.5 -60t-25.5 -39t-37 -21.5t-45 -6.5q-25 0 -46 6.5t-37 21.5t-25 39t-9 60z" />
<glyph unicode="&#x117;" horiz-adv-x="1096" d="M563 1008q-114 0 -175.5 -92.5t-72.5 -270.5h471q0 81 -12 148t-38 115t-68.5 74t-104.5 26zM588 -20q-111 0 -199.5 37.5t-149.5 109.5t-93.5 176.5t-32.5 237.5q0 287 118 432t336 145q99 0 178 -31t134 -92.5t84.5 -153t29.5 -212.5v-94h-682q2 -112 22.5 -192.5 t59 -132.5t94.5 -76.5t129 -24.5q53 0 98.5 12t82.5 32t65.5 45.5t46.5 53.5q14 -6 26.5 -25t12.5 -45q0 -31 -22 -66.5t-67 -65.5t-112.5 -50t-158.5 -20zM446 1430q0 36 9 60t25 39t37 21t46 6q24 0 45 -6t37 -21t25.5 -39t9.5 -60t-9.5 -60t-25.5 -39t-37 -21.5t-45 -6.5 q-25 0 -46 6.5t-37 21.5t-25 39t-9 60z" />
<glyph unicode="&#x118;" horiz-adv-x="1276" d="M479 102h395q49 0 83.5 13.5t57.5 36.5t36 53.5t18 64.5l14 88h107l-14 -358h-1098v86h26q34 0 64.5 4.5t53.5 18.5t36.5 41.5t13.5 72.5v1006q0 48 -13 77t-36 44.5t-53.5 20.5t-65.5 5h-26v86h1032l10 -358h-106l-10 88q-4 34 -15.5 64.5t-33 53.5t-54 36.5t-78.5 13.5 h-344v-545h494v-100h-494v-613zM714 -266q0 48 20 91t54 78.5t77.5 60.5t90.5 36h117q-32 -10 -66 -30t-61.5 -49.5t-45.5 -68.5t-18 -88q0 -34 10.5 -58.5t29.5 -40t45 -23t57 -7.5q27 0 59 4.5t70 12.5v-111q-16 -8 -36.5 -14t-42.5 -10t-42.5 -6.5t-36.5 -2.5 q-65 0 -117 13.5t-88.5 41t-56 70t-19.5 101.5z" />
<glyph unicode="&#x119;" horiz-adv-x="1096" d="M563 1008q-114 0 -175.5 -92.5t-72.5 -270.5h471q0 81 -12 148t-38 115t-68.5 74t-104.5 26zM588 -20q-111 0 -199.5 37.5t-149.5 109.5t-93.5 176.5t-32.5 237.5q0 287 118 432t336 145q99 0 178 -31t134 -92.5t84.5 -153t29.5 -212.5v-94h-682q2 -112 22.5 -192.5 t59 -132.5t94.5 -76.5t129 -24.5q53 0 98.5 12t82.5 32t65.5 45.5t46.5 53.5q14 -6 26.5 -25t12.5 -45q0 -31 -22 -66.5t-67 -65.5t-112.5 -50t-158.5 -20zM471 -235q0 48 20 91t54 78.5t77.5 60.5t90.5 36h117q-32 -10 -66 -30t-61.5 -49.5t-45.5 -68.5t-18 -88 q0 -34 10.5 -58.5t29.5 -40t45 -23t57 -7.5q27 0 59 4.5t70 12.5v-111q-16 -8 -36.5 -14t-42.5 -10t-42.5 -6.5t-36.5 -2.5q-65 0 -117 13.5t-88.5 41t-56 70t-19.5 101.5z" />
<glyph unicode="&#x11a;" horiz-adv-x="1276" d="M479 102h395q49 0 83.5 13.5t57.5 36.5t36 53.5t18 64.5l14 88h107l-14 -358h-1098v86h26q34 0 64.5 4.5t53.5 18.5t36.5 41.5t13.5 72.5v1006q0 48 -13 77t-36 44.5t-53.5 20.5t-65.5 5h-26v86h1032l10 -358h-106l-10 88q-4 34 -15.5 64.5t-33 53.5t-54 36.5t-78.5 13.5 h-344v-545h494v-100h-494v-613zM332 1907h80q29 -18 58.5 -40t58 -46.5t55 -50t49.5 -50.5q23 25 49.5 50.5t55.5 50t59 46.5t59 40h80v-27q-24 -29 -53 -67t-57.5 -78.5t-53.5 -80.5t-41 -75h-194q-16 35 -41 75t-53.5 80.5t-57.5 78.5t-53 67v27z" />
<glyph unicode="&#x11b;" horiz-adv-x="1096" d="M563 1008q-114 0 -175.5 -92.5t-72.5 -270.5h471q0 81 -12 148t-38 115t-68.5 74t-104.5 26zM588 -20q-111 0 -199.5 37.5t-149.5 109.5t-93.5 176.5t-32.5 237.5q0 287 118 432t336 145q99 0 178 -31t134 -92.5t84.5 -153t29.5 -212.5v-94h-682q2 -112 22.5 -192.5 t59 -132.5t94.5 -76.5t129 -24.5q53 0 98.5 12t82.5 32t65.5 45.5t46.5 53.5q14 -6 26.5 -25t12.5 -45q0 -31 -22 -66.5t-67 -65.5t-112.5 -50t-158.5 -20zM261 1569h80q29 -18 58.5 -40t58 -46.5t55 -50t49.5 -50.5q23 25 49.5 50.5t55.5 50t59 46.5t59 40h80v-27 q-24 -29 -53 -67t-57.5 -78.5t-53.5 -80.5t-41 -75h-194q-16 35 -41 75t-53.5 80.5t-57.5 78.5t-53 67v27z" />
<glyph unicode="&#x11c;" horiz-adv-x="1462" d="M821 -20q-178 0 -310.5 54t-220 153t-130.5 238t-43 308q0 166 45.5 304t136 237t224.5 154t311 55q114 0 198.5 -17.5t141 -48.5t84.5 -73t28 -91q0 -33 -15 -59.5t-40.5 -45t-60 -28.5t-74.5 -10q0 48 -14 95t-46 84.5t-84 61t-127 23.5q-130 0 -221.5 -42.5 t-149.5 -124t-84 -201t-26 -273.5q0 -153 27 -272t88 -200t158 -123t237 -42q59 0 114.5 6t98.5 19v330q0 45 -13.5 72.5t-36.5 42t-53.5 19.5t-64.5 5h-8v86h532v-86h-8q-29 0 -55 -5t-45 -20.5t-30 -45t-11 -77.5v-368q-103 -48 -212 -71t-241 -23zM504 1606q24 29 53 67 t57.5 78.5t53.5 81t41 74.5h194q16 -34 41 -74.5t53.5 -81t57.5 -78.5t53 -67v-27h-80q-59 34 -118 84.5t-105 99.5q-47 -49 -105 -99.5t-116 -84.5h-80v27z" />
<glyph unicode="&#x11d;" horiz-adv-x="1102" d="M1077 1055q0 -22 -6.5 -41.5t-19.5 -34t-33.5 -23t-48.5 -8.5q0 12 -3 24t-10.5 22.5t-20.5 17t-34 6.5q-26 0 -47 -6t-41 -19q35 -43 57.5 -101.5t22.5 -146.5q0 -76 -23 -140.5t-68.5 -111.5t-115 -73.5t-162.5 -26.5q-12 0 -27 0.5l-30 1t-28 2t-21 2.5 q-20 -10 -38 -22t-31.5 -27t-21.5 -34t-8 -42q0 -25 9.5 -40t26.5 -23.5t40.5 -11t50.5 -2.5h232q92 0 156 -23t104.5 -63.5t59 -97t18.5 -122.5q0 -88 -32.5 -159t-99.5 -120.5t-169.5 -76.5t-241.5 -27q-214 0 -320 79t-106 220q0 60 21 105t56.5 77t81.5 52t97 29 q-21 9 -41 24t-36 36t-26 48t-10 60q0 61 32 105.5t102 86.5q-44 18 -78.5 49.5t-58 72t-36 88.5t-12.5 99q0 89 24 159t72 119t120 75t169 26q37 0 73 -5.5t66.5 -15t55 -21.5t39.5 -25q15 16 35 35.5t45 36t54.5 27.5t63.5 11q31 0 53.5 -8.5t37.5 -23t22.5 -34t7.5 -40.5 zM213 -180q0 -45 12 -84t42 -67t81 -44t129 -16q110 0 181.5 18.5t113.5 51.5t59 78.5t17 99.5q0 47 -13.5 77.5t-40 48t-65.5 24.5t-90 7h-201q-43 0 -83.5 -7.5t-72 -28.5t-50.5 -59t-19 -99zM332 745q0 -131 43.5 -192t142.5 -61q50 0 84.5 15t56.5 46t31.5 79.5 t9.5 115.5q0 138 -42 204t-142 66q-99 0 -141.5 -67.5t-42.5 -205.5zM231 1268q24 29 53 67t57.5 78.5t53.5 81t41 74.5h194q16 -34 41 -74.5t53.5 -81t57.5 -78.5t53 -67v-27h-80q-59 34 -118 84.5t-105 99.5q-47 -49 -105 -99.5t-116 -84.5h-80v27z" />
<glyph unicode="&#x11e;" horiz-adv-x="1462" d="M821 -20q-178 0 -310.5 54t-220 153t-130.5 238t-43 308q0 166 45.5 304t136 237t224.5 154t311 55q114 0 198.5 -17.5t141 -48.5t84.5 -73t28 -91q0 -33 -15 -59.5t-40.5 -45t-60 -28.5t-74.5 -10q0 48 -14 95t-46 84.5t-84 61t-127 23.5q-130 0 -221.5 -42.5 t-149.5 -124t-84 -201t-26 -273.5q0 -153 27 -272t88 -200t158 -123t237 -42q59 0 114.5 6t98.5 19v330q0 45 -13.5 72.5t-36.5 42t-53.5 19.5t-64.5 5h-8v86h532v-86h-8q-29 0 -55 -5t-45 -20.5t-30 -45t-11 -77.5v-368q-103 -48 -212 -71t-241 -23zM807 1579 q-73 0 -126.5 22.5t-88.5 60.5t-52.5 89t-19.5 109h94q17 -75 67 -107.5t126 -32.5q75 0 125 32.5t67 107.5h95q-2 -58 -19.5 -109t-53 -89t-88.5 -60.5t-126 -22.5z" />
<glyph unicode="&#x11f;" horiz-adv-x="1102" d="M1077 1055q0 -22 -6.5 -41.5t-19.5 -34t-33.5 -23t-48.5 -8.5q0 12 -3 24t-10.5 22.5t-20.5 17t-34 6.5q-26 0 -47 -6t-41 -19q35 -43 57.5 -101.5t22.5 -146.5q0 -76 -23 -140.5t-68.5 -111.5t-115 -73.5t-162.5 -26.5q-12 0 -27 0.5l-30 1t-28 2t-21 2.5 q-20 -10 -38 -22t-31.5 -27t-21.5 -34t-8 -42q0 -25 9.5 -40t26.5 -23.5t40.5 -11t50.5 -2.5h232q92 0 156 -23t104.5 -63.5t59 -97t18.5 -122.5q0 -88 -32.5 -159t-99.5 -120.5t-169.5 -76.5t-241.5 -27q-214 0 -320 79t-106 220q0 60 21 105t56.5 77t81.5 52t97 29 q-21 9 -41 24t-36 36t-26 48t-10 60q0 61 32 105.5t102 86.5q-44 18 -78.5 49.5t-58 72t-36 88.5t-12.5 99q0 89 24 159t72 119t120 75t169 26q37 0 73 -5.5t66.5 -15t55 -21.5t39.5 -25q15 16 35 35.5t45 36t54.5 27.5t63.5 11q31 0 53.5 -8.5t37.5 -23t22.5 -34t7.5 -40.5 zM213 -180q0 -45 12 -84t42 -67t81 -44t129 -16q110 0 181.5 18.5t113.5 51.5t59 78.5t17 99.5q0 47 -13.5 77.5t-40 48t-65.5 24.5t-90 7h-201q-43 0 -83.5 -7.5t-72 -28.5t-50.5 -59t-19 -99zM332 745q0 -131 43.5 -192t142.5 -61q50 0 84.5 15t56.5 46t31.5 79.5 t9.5 115.5q0 138 -42 204t-142 66q-99 0 -141.5 -67.5t-42.5 -205.5zM525 1241q-73 0 -126.5 22.5t-88.5 60.5t-52.5 89t-19.5 109h94q17 -75 67 -107.5t126 -32.5q75 0 125 32.5t67 107.5h95q-2 -58 -19.5 -109t-53 -89t-88.5 -60.5t-126 -22.5z" />
<glyph unicode="&#x120;" horiz-adv-x="1462" d="M821 -20q-178 0 -310.5 54t-220 153t-130.5 238t-43 308q0 166 45.5 304t136 237t224.5 154t311 55q114 0 198.5 -17.5t141 -48.5t84.5 -73t28 -91q0 -33 -15 -59.5t-40.5 -45t-60 -28.5t-74.5 -10q0 48 -14 95t-46 84.5t-84 61t-127 23.5q-130 0 -221.5 -42.5 t-149.5 -124t-84 -201t-26 -273.5q0 -153 27 -272t88 -200t158 -123t237 -42q59 0 114.5 6t98.5 19v330q0 45 -13.5 72.5t-36.5 42t-53.5 19.5t-64.5 5h-8v86h532v-86h-8q-29 0 -55 -5t-45 -20.5t-30 -45t-11 -77.5v-368q-103 -48 -212 -71t-241 -23zM708 1768q0 36 9 60 t25 39t37 21t46 6q24 0 45 -6t37 -21t25.5 -39t9.5 -60t-9.5 -60t-25.5 -39t-37 -21.5t-45 -6.5q-25 0 -46 6.5t-37 21.5t-25 39t-9 60z" />
<glyph unicode="&#x121;" horiz-adv-x="1102" d="M1077 1055q0 -22 -6.5 -41.5t-19.5 -34t-33.5 -23t-48.5 -8.5q0 12 -3 24t-10.5 22.5t-20.5 17t-34 6.5q-26 0 -47 -6t-41 -19q35 -43 57.5 -101.5t22.5 -146.5q0 -76 -23 -140.5t-68.5 -111.5t-115 -73.5t-162.5 -26.5q-12 0 -27 0.5l-30 1t-28 2t-21 2.5 q-20 -10 -38 -22t-31.5 -27t-21.5 -34t-8 -42q0 -25 9.5 -40t26.5 -23.5t40.5 -11t50.5 -2.5h232q92 0 156 -23t104.5 -63.5t59 -97t18.5 -122.5q0 -88 -32.5 -159t-99.5 -120.5t-169.5 -76.5t-241.5 -27q-214 0 -320 79t-106 220q0 60 21 105t56.5 77t81.5 52t97 29 q-21 9 -41 24t-36 36t-26 48t-10 60q0 61 32 105.5t102 86.5q-44 18 -78.5 49.5t-58 72t-36 88.5t-12.5 99q0 89 24 159t72 119t120 75t169 26q37 0 73 -5.5t66.5 -15t55 -21.5t39.5 -25q15 16 35 35.5t45 36t54.5 27.5t63.5 11q31 0 53.5 -8.5t37.5 -23t22.5 -34t7.5 -40.5 zM213 -180q0 -45 12 -84t42 -67t81 -44t129 -16q110 0 181.5 18.5t113.5 51.5t59 78.5t17 99.5q0 47 -13.5 77.5t-40 48t-65.5 24.5t-90 7h-201q-43 0 -83.5 -7.5t-72 -28.5t-50.5 -59t-19 -99zM332 745q0 -131 43.5 -192t142.5 -61q50 0 84.5 15t56.5 46t31.5 79.5 t9.5 115.5q0 138 -42 204t-142 66q-99 0 -141.5 -67.5t-42.5 -205.5zM407 1430q0 36 9 60t25 39t37 21t46 6q24 0 45 -6t37 -21t25.5 -39t9.5 -60t-9.5 -60t-25.5 -39t-37 -21.5t-45 -6.5q-25 0 -46 6.5t-37 21.5t-25 39t-9 60z" />
<glyph unicode="&#x122;" horiz-adv-x="1462" d="M821 -20q-178 0 -310.5 54t-220 153t-130.5 238t-43 308q0 166 45.5 304t136 237t224.5 154t311 55q114 0 198.5 -17.5t141 -48.5t84.5 -73t28 -91q0 -33 -15 -59.5t-40.5 -45t-60 -28.5t-74.5 -10q0 48 -14 95t-46 84.5t-84 61t-127 23.5q-130 0 -221.5 -42.5 t-149.5 -124t-84 -201t-26 -273.5q0 -153 27 -272t88 -200t158 -123t237 -42q59 0 114.5 6t98.5 19v330q0 45 -13.5 72.5t-36.5 42t-53.5 19.5t-64.5 5h-8v86h532v-86h-8q-29 0 -55 -5t-45 -20.5t-30 -45t-11 -77.5v-368q-103 -48 -212 -71t-241 -23zM668 -426 q17 68 33 147.5t29 153.5h178v-20q-14 -32 -34 -72t-43.5 -82t-47.5 -82t-45 -72h-70v27z" />
<glyph unicode="&#x123;" horiz-adv-x="1102" d="M1077 1055q0 -22 -6.5 -41.5t-19.5 -34t-33.5 -23t-48.5 -8.5q0 12 -3 24t-10.5 22.5t-20.5 17t-34 6.5q-26 0 -47 -6t-41 -19q35 -43 57.5 -101.5t22.5 -146.5q0 -76 -23 -140.5t-68.5 -111.5t-115 -73.5t-162.5 -26.5q-12 0 -27 0.5l-30 1t-28 2t-21 2.5 q-20 -10 -38 -22t-31.5 -27t-21.5 -34t-8 -42q0 -25 9.5 -40t26.5 -23.5t40.5 -11t50.5 -2.5h232q92 0 156 -23t104.5 -63.5t59 -97t18.5 -122.5q0 -88 -32.5 -159t-99.5 -120.5t-169.5 -76.5t-241.5 -27q-214 0 -320 79t-106 220q0 60 21 105t56.5 77t81.5 52t97 29 q-21 9 -41 24t-36 36t-26 48t-10 60q0 61 32 105.5t102 86.5q-44 18 -78.5 49.5t-58 72t-36 88.5t-12.5 99q0 89 24 159t72 119t120 75t169 26q37 0 73 -5.5t66.5 -15t55 -21.5t39.5 -25q15 16 35 35.5t45 36t54.5 27.5t63.5 11q31 0 53.5 -8.5t37.5 -23t22.5 -34t7.5 -40.5 zM213 -180q0 -45 12 -84t42 -67t81 -44t129 -16q110 0 181.5 18.5t113.5 51.5t59 78.5t17 99.5q0 47 -13.5 77.5t-40 48t-65.5 24.5t-90 7h-201q-43 0 -83.5 -7.5t-72 -28.5t-50.5 -59t-19 -99zM332 745q0 -131 43.5 -192t142.5 -61q50 0 84.5 15t56.5 46t31.5 79.5 t9.5 115.5q0 138 -42 204t-142 66q-99 0 -141.5 -67.5t-42.5 -205.5zM680 1542q-17 -68 -33.5 -147.5t-28.5 -153.5h-178v21q14 32 34 72t43.5 81.5t47.5 81.5t45 72h70v-27z" />
<glyph unicode="&#x124;" horiz-adv-x="1624" d="M950 0v86h27q35 0 65.5 5t53 20.5t36 44.5t13.5 77v480h-666v-480q0 -48 13.5 -77t36 -44.5t53.5 -20.5t65 -5h27v-86h-596v86h26q35 0 65.5 5t53.5 20.5t36 44.5t13 77v1004q0 45 -13.5 72.5t-36.5 42.5t-53.5 19.5t-64.5 4.5h-26v86h596v-86h-27q-34 0 -65 -5 t-53.5 -20.5t-36 -44.5t-13.5 -77v-414h666v414q0 48 -13.5 77t-36 44.5t-53 20.5t-65.5 5h-27v86h596v-86h-26q-35 0 -65.5 -5t-53.5 -20.5t-36 -44.5t-13 -77v-1006q0 -45 13.5 -72.5t36.5 -41.5t53.5 -18.5t64.5 -4.5h26v-86h-596zM510 1606q24 29 53 67t57.5 78.5 t53.5 81t41 74.5h194q16 -34 41 -74.5t53.5 -81t57.5 -78.5t53 -67v-27h-80q-59 34 -118 84.5t-105 99.5q-47 -49 -105 -99.5t-116 -84.5h-80v27z" />
<glyph unicode="&#x125;" horiz-adv-x="1300" d="M588 86v-86h-551v86h16q35 0 65.5 5t53 20.5t36 44.5t13.5 77v1098q0 45 -13.5 72.5t-36.5 42.5t-53.5 19.5t-64.5 4.5h-16v86h377v-450q0 -28 -1 -58.5t-3 -56.5q-2 -30 -4 -59h10q92 186 301 186q87 0 154.5 -23.5t113.5 -72t70 -124.5t24 -181v-484q0 -48 12 -77 t33 -44.5t50 -20.5t63 -5h6v-86h-356v707q0 67 -12 119t-38.5 88t-69.5 54.5t-105 18.5q-64 0 -110.5 -23.5t-77 -67t-45.5 -105t-15 -136.5v-432q0 -45 13.5 -72.5t36.5 -41.5t53.5 -18.5t64.5 -4.5h6zM332 1661q24 29 53 67t57.5 78.5t53.5 81t41 74.5h194 q16 -34 41 -74.5t53.5 -81t57.5 -78.5t53 -67v-27h-80q-59 34 -118 84.5t-105 99.5q-47 -49 -105 -99.5t-116 -84.5h-80v27z" />
<glyph unicode="&#x126;" horiz-adv-x="1624" d="M1352 1022v-799q0 -45 13.5 -72.5t36.5 -41.5t53.5 -18.5t64.5 -4.5h26v-86h-596v86h27q35 0 65.5 5t53 20.5t36 44.5t13.5 77v480h-666v-480q0 -48 13.5 -77t36 -44.5t53.5 -20.5t65 -5h27v-86h-596v86h26q35 0 65.5 5t53.5 20.5t36 44.5t13 77v789h-194v100h194v115 q0 45 -13.5 72.5t-36.5 42.5t-53.5 19.5t-64.5 4.5h-26v86h596v-86h-27q-34 0 -65 -5t-53.5 -20.5t-36 -44.5t-13.5 -77v-107h666v107q0 48 -13.5 77t-36 44.5t-53 20.5t-65.5 5h-27v86h596v-86h-26q-35 0 -65.5 -5t-53.5 -20.5t-36 -44.5t-13 -77v-107h194v-100h-194z M1145 815v207h-666v-207h666z" />
<glyph unicode="&#x127;" horiz-adv-x="1300" d="M588 86v-86h-551v86h16q35 0 65.5 5t53 20.5t36 44.5t13.5 77v981h-186v97h186v20q0 45 -13.5 72.5t-36.5 42.5t-53.5 19.5t-64.5 4.5h-16v86h377v-245h350v-97h-350v-149q0 -28 -1 -58.5t-3 -56.5q-2 -30 -4 -59h10q92 186 301 186q87 0 154.5 -23.5t113.5 -72 t70 -124.5t24 -181v-443q0 -48 12 -77t33 -44.5t50 -20.5t63 -5h6v-86h-356v666q0 67 -12 119t-38.5 88t-69.5 54.5t-105 18.5q-64 0 -110.5 -23.5t-77 -67t-45.5 -105t-15 -136.5v-391q0 -45 13.5 -72.5t36.5 -41.5t53.5 -18.5t64.5 -4.5h6z" />
<glyph unicode="&#x128;" horiz-adv-x="752" d="M78 0v86h26q35 0 65.5 5t53.5 20.5t36 44.5t13 77v996q0 48 -13 77t-36 44.5t-53.5 20.5t-65.5 5h-26v86h596v-86h-27q-34 0 -65 -5t-53.5 -20.5t-36 -44.5t-13.5 -77v-996q0 -48 13.5 -77t36 -44.5t53.5 -20.5t65 -5h27v-86h-596zM548 1712q30 0 48.5 9t29 24.5t15 35 t7.5 40.5h92q-3 -47 -16.5 -90.5t-39.5 -77.5t-65 -54t-94 -20t-99.5 20t-83 44.5t-72 44.5t-66.5 20q-31 0 -49 -9t-28.5 -24t-15.5 -34.5t-8 -40.5h-92q3 47 16.5 90t40 77t66 54t94.5 20t99.5 -20t83 -44.5t72 -44.5t65.5 -20z" />
<glyph unicode="&#x129;" horiz-adv-x="655" d="M74 86q34 0 64.5 4.5t53.5 18.5t36.5 41.5t13.5 72.5v649q0 45 -13.5 72.5t-36.5 42.5t-53.5 20t-64.5 5h-6v86h366v-865q0 -48 13.5 -77t36 -44.5t53.5 -20.5t65 -5h27v-86h-582v86h27zM489 1374q30 0 48.5 9t29 24.5t15 35t7.5 40.5h92q-3 -47 -16.5 -90.5t-39.5 -77.5 t-65 -54t-94 -20t-99.5 20t-83 44.5t-72 44.5t-66.5 20q-31 0 -49 -9t-28.5 -24t-15.5 -34.5t-8 -40.5h-92q3 47 16.5 90t40 77t66 54t94.5 20t99.5 -20t83 -44.5t72 -44.5t65.5 -20z" />
<glyph unicode="&#x12a;" horiz-adv-x="752" d="M78 0v86h26q35 0 65.5 5t53.5 20.5t36 44.5t13 77v996q0 48 -13 77t-36 44.5t-53.5 20.5t-65.5 5h-26v86h596v-86h-27q-34 0 -65 -5t-53.5 -20.5t-36 -44.5t-13.5 -77v-996q0 -48 13.5 -77t36 -44.5t53.5 -20.5t65 -5h27v-86h-596zM673 1579h-594v121h594v-121z" />
<glyph unicode="&#x12b;" horiz-adv-x="655" d="M74 86q34 0 64.5 4.5t53.5 18.5t36.5 41.5t13.5 72.5v649q0 45 -13.5 72.5t-36.5 42.5t-53.5 20t-64.5 5h-6v86h366v-865q0 -48 13.5 -77t36 -44.5t53.5 -20.5t65 -5h27v-86h-582v86h27zM595 1241h-594v121h594v-121z" />
<glyph unicode="&#x12c;" horiz-adv-x="752" d="M78 0v86h26q35 0 65.5 5t53.5 20.5t36 44.5t13 77v996q0 48 -13 77t-36 44.5t-53.5 20.5t-65.5 5h-26v86h596v-86h-27q-34 0 -65 -5t-53.5 -20.5t-36 -44.5t-13.5 -77v-996q0 -48 13.5 -77t36 -44.5t53.5 -20.5t65 -5h27v-86h-596zM376 1579q-73 0 -126.5 22.5 t-88.5 60.5t-52.5 89t-19.5 109h94q17 -75 67 -107.5t126 -32.5q75 0 125 32.5t67 107.5h95q-2 -58 -19.5 -109t-53 -89t-88.5 -60.5t-126 -22.5z" />
<glyph unicode="&#x12d;" horiz-adv-x="655" d="M74 86q34 0 64.5 4.5t53.5 18.5t36.5 41.5t13.5 72.5v649q0 45 -13.5 72.5t-36.5 42.5t-53.5 20t-64.5 5h-6v86h366v-865q0 -48 13.5 -77t36 -44.5t53.5 -20.5t65 -5h27v-86h-582v86h27zM312 1241q-73 0 -126.5 22.5t-88.5 60.5t-52.5 89t-19.5 109h94q17 -75 67 -107.5 t126 -32.5q75 0 125 32.5t67 107.5h95q-2 -58 -19.5 -109t-53 -89t-88.5 -60.5t-126 -22.5z" />
<glyph unicode="&#x12e;" horiz-adv-x="752" d="M78 0v86h26q35 0 65.5 5t53.5 20.5t36 44.5t13 77v996q0 48 -13 77t-36 44.5t-53.5 20.5t-65.5 5h-26v86h596v-86h-27q-34 0 -65 -5t-53.5 -20.5t-36 -44.5t-13.5 -77v-996q0 -48 13.5 -77t36 -44.5t53.5 -20.5t65 -5h27v-86h-596zM181 -266q0 48 20 91t54 78.5 t77.5 60.5t90.5 36h117q-32 -10 -66 -30t-61.5 -49.5t-45.5 -68.5t-18 -88q0 -34 10.5 -58.5t29.5 -40t45 -23t57 -7.5q27 0 59 4.5t70 12.5v-111q-16 -8 -36.5 -14t-42.5 -10t-42.5 -6.5t-36.5 -2.5q-65 0 -117 13.5t-88.5 41t-56 70t-19.5 101.5z" />
<glyph unicode="&#x12f;" horiz-adv-x="655" d="M74 86q34 0 64.5 4.5t53.5 18.5t36.5 41.5t13.5 72.5v649q0 45 -13.5 72.5t-36.5 42.5t-53.5 20t-64.5 5h-6v86h366v-865q0 -48 13.5 -77t36 -44.5t53.5 -20.5t65 -5h27v-86h-582v86h27zM213 1430q0 36 9 60t25 39t37 21t46 6q24 0 45 -6t36.5 -21t25 -39t9.5 -60 t-9.5 -60t-25 -39t-36.5 -21.5t-45 -6.5q-25 0 -46 6.5t-37 21.5t-25 39t-9 60zM103 -266q0 48 20 91t54 78.5t77.5 60.5t90.5 36h117q-32 -10 -66 -30t-61.5 -49.5t-45.5 -68.5t-18 -88q0 -34 10.5 -58.5t29.5 -40t45 -23t57 -7.5q27 0 59 4.5t70 12.5v-111 q-16 -8 -36.5 -14t-42.5 -10t-42.5 -6.5t-36.5 -2.5q-65 0 -117 13.5t-88.5 41t-56 70t-19.5 101.5z" />
<glyph unicode="&#x130;" horiz-adv-x="752" d="M78 0v86h26q35 0 65.5 5t53.5 20.5t36 44.5t13 77v996q0 48 -13 77t-36 44.5t-53.5 20.5t-65.5 5h-26v86h596v-86h-27q-34 0 -65 -5t-53.5 -20.5t-36 -44.5t-13.5 -77v-996q0 -48 13.5 -77t36 -44.5t53.5 -20.5t65 -5h27v-86h-596zM258 1768q0 36 9 60t25 39t37 21t46 6 q24 0 45 -6t37 -21t25.5 -39t9.5 -60t-9.5 -60t-25.5 -39t-37 -21.5t-45 -6.5q-25 0 -46 6.5t-37 21.5t-25 39t-9 60z" />
<glyph unicode="&#x131;" horiz-adv-x="655" d="M74 86q34 0 64.5 4.5t53.5 18.5t36.5 41.5t13.5 72.5v649q0 45 -13.5 72.5t-36.5 42.5t-53.5 20t-64.5 5h-6v86h366v-865q0 -48 13.5 -77t36 -44.5t53.5 -20.5t65 -5h27v-86h-582v86h27z" />
<glyph unicode="&#x132;" horiz-adv-x="1425" d="M78 0v86h26q35 0 65.5 5t53.5 20.5t36 44.5t13 77v996q0 48 -13 77t-36 44.5t-53.5 20.5t-65.5 5h-26v86h596v-86h-27q-34 0 -65 -5t-53.5 -20.5t-36 -44.5t-13.5 -77v-996q0 -48 13.5 -77t36 -44.5t53.5 -20.5t65 -5h27v-86h-596zM671 -395h19q66 0 117.5 18.5t86.5 62 t53.5 116t18.5 180.5v1255q0 45 -13.5 72.5t-36.5 42.5t-53.5 19.5t-64.5 4.5h-26v86h596v-86h-27q-34 0 -65 -5t-53.5 -20.5t-36 -44.5t-13.5 -77v-1245q0 -138 -36 -229.5t-99 -146t-148.5 -77.5t-183.5 -23h-35v97z" />
<glyph unicode="&#x133;" horiz-adv-x="1270" d="M74 86q34 0 64.5 4.5t53.5 18.5t36.5 41.5t13.5 72.5v649q0 45 -13.5 72.5t-36.5 42.5t-53.5 20t-64.5 5h-6v86h366v-865q0 -48 13.5 -77t36 -44.5t53.5 -20.5t65 -5h27v-86h-582v86h27zM213 1430q0 36 9 60t25 39t37 21t46 6q24 0 45 -6t36.5 -21t25 -39t9.5 -60 t-9.5 -60t-25 -39t-36.5 -21.5t-45 -6.5q-25 0 -46 6.5t-37 21.5t-25 39t-9 60zM1069 1098v-1114q0 -138 -30 -229.5t-84 -146t-128.5 -77.5t-163.5 -23h-33v97h15q55 0 98 18.5t72.5 62t45 116t15.5 180.5v890q0 45 -13.5 72.5t-36.5 42.5t-53.5 20t-64.5 5h-6v86h367z M848 1430q0 36 9 60t24.5 39t37 21t45.5 6t45.5 -6t37 -21t25 -39t9.5 -60t-9.5 -60t-25 -39t-37 -21.5t-45.5 -6.5t-45.5 6.5t-37 21.5t-24.5 39t-9 60z" />
<glyph unicode="&#x134;" horiz-adv-x="731" d="M-23 -395h19q66 0 117.5 18.5t86.5 62t53.5 116t18.5 180.5v1255q0 45 -13.5 72.5t-36.5 42.5t-53.5 19.5t-64.5 4.5h-26v86h596v-86h-27q-34 0 -65 -5t-53.5 -20.5t-36 -44.5t-13.5 -77v-1245q0 -138 -36 -229.5t-99 -146t-148.5 -77.5t-183.5 -23h-35v97zM73 1606 q24 29 53 67t57.5 78.5t53.5 81t41 74.5h194q16 -34 41 -74.5t53.5 -81t57.5 -78.5t53 -67v-27h-80q-59 34 -118 84.5t-105 99.5q-47 -49 -105 -99.5t-116 -84.5h-80v27z" />
<glyph unicode="&#x135;" horiz-adv-x="614" d="M414 1098v-1114q0 -138 -30 -229.5t-84 -146t-128.5 -77.5t-163.5 -23h-33v97h15q55 0 98 18.5t72.5 62t45 116t15.5 180.5v890q0 45 -13.5 72.5t-36.5 42.5t-53.5 20t-64.5 5h-6v86h367zM-23 1268q24 29 53 67t57.5 78.5t53.5 81t41 74.5h194q16 -34 41 -74.5t53.5 -81 t57.5 -78.5t53 -67v-27h-80q-59 34 -118 84.5t-105 99.5q-47 -49 -105 -99.5t-116 -84.5h-80v27z" />
<glyph unicode="&#x136;" horiz-adv-x="1434" d="M903 1137q33 38 55 67.5t34.5 53.5t18 42t5.5 33q0 26 -25 35.5t-76 9.5v84h453v-84q-35 0 -67.5 -13.5t-65 -38t-67 -60t-74.5 -80.5l-297 -334l432 -602q59 -81 113.5 -122.5t111.5 -41.5h4v-86h-22q-103 0 -169 8t-111 29t-78.5 56.5t-71.5 90.5l-353 506l-174 -141 v-316q0 -48 13.5 -77t36 -44.5t53.5 -20.5t65 -5h27v-86h-596v86h26q34 0 64.5 4.5t53.5 18.5t36.5 41.5t13.5 72.5v1014q0 45 -13.5 72.5t-36.5 42.5t-53.5 19.5t-64.5 4.5h-26v86h596v-86h-27q-34 0 -65 -5t-53.5 -20.5t-36 -44.5t-13.5 -77v-578zM622 -426 q17 68 33 147.5t29 153.5h178v-20q-14 -32 -34 -72t-43.5 -82t-47.5 -82t-45 -72h-70v27z" />
<glyph unicode="&#x137;" horiz-adv-x="1198" d="M694 659l273 -405q53 -82 105.5 -125t121.5 -43h6v-86h-29q-89 0 -146.5 5.5t-99.5 26t-77 60t-78 107.5l-205 321l-151 -112v-185q0 -45 13.5 -72.5t36.5 -41.5t53.5 -18.5t64.5 -4.5h6v-86h-551v86h16q35 0 65.5 5t53 20.5t36 44.5t13.5 77v1098q0 45 -13.5 72.5 t-36.5 42.5t-53.5 19.5t-64.5 4.5h-16v86h377v-790q0 -28 -1 -71.5t-3 -85.5q-2 -48 -4 -101l256 280q33 37 54.5 65t34.5 49t18 37.5t5 31.5q0 26 -24.5 33.5t-75.5 7.5v86h452v-86q-71 0 -139.5 -50t-148.5 -141zM504 -426q17 68 33 147.5t29 153.5h178v-20 q-14 -32 -34 -72t-43.5 -82t-47.5 -82t-45 -72h-70v27z" />
<glyph unicode="&#x138;" horiz-adv-x="1198" d="M694 659l273 -405q53 -82 105.5 -125t121.5 -43h6v-86h-29q-89 0 -146.5 5.5t-99.5 26t-77 60t-78 107.5l-205 321l-151 -112v-185q0 -45 13.5 -72.5t36.5 -41.5t53.5 -18.5t64.5 -4.5h6v-86h-551v86h16q35 0 65.5 5t53 20.5t36 44.5t13.5 77v640q0 45 -13.5 72.5 t-36.5 42.5t-53.5 19.5t-64.5 4.5h-16v86h377v-332q0 -28 -1 -71.5t-3 -85.5q-2 -48 -4 -101l256 280q33 37 54.5 65t34.5 49t18 37.5t5 31.5q0 26 -24.5 33.5t-75.5 7.5v86h452v-86q-71 0 -139.5 -50t-148.5 -141z" />
<glyph unicode="&#x139;" horiz-adv-x="1276" d="M78 0v86h26q35 0 65.5 5t53.5 20.5t36 44.5t13 77v996q0 48 -13 77t-36 44.5t-53.5 20.5t-65.5 5h-26v86h596v-86h-27q-34 0 -64.5 -4.5t-53.5 -19.5t-36.5 -42.5t-13.5 -72.5v-1135h404q46 0 78.5 16.5t53.5 43t32.5 59.5t15.5 66l20 153h107l-14 -440h-1098zM304 1606 q23 29 47.5 67t48 78.5t45 81t37.5 74.5h219v-21q-19 -27 -56 -67.5t-82 -84.5t-92.5 -85.5t-88.5 -69.5h-78v27z" />
<glyph unicode="&#x13a;" horiz-adv-x="635" d="M53 86q35 0 65.5 5t53 20.5t36 44.5t13.5 77v1098q0 45 -13.5 72.5t-36.5 42.5t-53.5 19.5t-64.5 4.5h-26v86h387v-1323q0 -48 13 -77t36 -44.5t53.5 -20.5t65.5 -5h26v-86h-581v86h26zM216 1663q23 29 47.5 67t48 78.5t45 81t37.5 74.5h219v-21q-19 -27 -56 -67.5 t-82 -84.5t-92.5 -85.5t-88.5 -69.5h-78v27z" />
<glyph unicode="&#x13b;" horiz-adv-x="1276" d="M78 0v86h26q35 0 65.5 5t53.5 20.5t36 44.5t13 77v996q0 48 -13 77t-36 44.5t-53.5 20.5t-65.5 5h-26v86h596v-86h-27q-34 0 -64.5 -4.5t-53.5 -19.5t-36.5 -42.5t-13.5 -72.5v-1135h404q46 0 78.5 16.5t53.5 43t32.5 59.5t15.5 66l20 153h107l-14 -440h-1098zM532 -426 q17 68 33 147.5t29 153.5h178v-20q-14 -32 -34 -72t-43.5 -82t-47.5 -82t-45 -72h-70v27z" />
<glyph unicode="&#x13c;" horiz-adv-x="635" d="M53 86q35 0 65.5 5t53 20.5t36 44.5t13.5 77v1098q0 45 -13.5 72.5t-36.5 42.5t-53.5 19.5t-64.5 4.5h-26v86h387v-1323q0 -48 13 -77t36 -44.5t53.5 -20.5t65.5 -5h26v-86h-581v86h26zM173 -426q17 68 33 147.5t29 153.5h178v-20q-14 -32 -34 -72t-43.5 -82t-47.5 -82 t-45 -72h-70v27z" />
<glyph unicode="&#x13d;" horiz-adv-x="1276" d="M78 0v86h26q35 0 65.5 5t53.5 20.5t36 44.5t13 77v996q0 48 -13 77t-36 44.5t-53.5 20.5t-65.5 5h-26v86h596v-86h-27q-34 0 -64.5 -4.5t-53.5 -19.5t-36.5 -42.5t-13.5 -72.5v-1135h404q46 0 78.5 16.5t53.5 43t32.5 59.5t15.5 66l20 153h107l-14 -440h-1098zM864 1162 q17 69 33 148t29 153h178v-20q-14 -32 -34 -72t-43.5 -81.5t-47.5 -81.5t-45 -72h-70v26z" />
<glyph unicode="&#x13e;" horiz-adv-x="635" d="M53 86q35 0 65.5 5t53 20.5t36 44.5t13.5 77v1098q0 45 -13.5 72.5t-36.5 42.5t-53.5 19.5t-64.5 4.5h-26v86h387v-1323q0 -48 13 -77t36 -44.5t53.5 -20.5t65.5 -5h26v-86h-581v86h26zM526 1255q17 69 33 148t29 153h178v-20q-14 -32 -34 -72t-43.5 -81.5t-47.5 -81.5 t-45 -72h-70v26z" />
<glyph unicode="&#x13f;" horiz-adv-x="1276" d="M78 0v86h26q35 0 65.5 5t53.5 20.5t36 44.5t13 77v996q0 48 -13 77t-36 44.5t-53.5 20.5t-65.5 5h-26v86h596v-86h-27q-34 0 -64.5 -4.5t-53.5 -19.5t-36.5 -42.5t-13.5 -72.5v-1135h404q46 0 78.5 16.5t53.5 43t32.5 59.5t15.5 66l20 153h107l-14 -440h-1098zM768 786 q0 36 9 60t25 39t37 21t46 6q24 0 45 -6t37 -21t25.5 -39t9.5 -60t-9.5 -60t-25.5 -39t-37 -21.5t-45 -6.5q-25 0 -46 6.5t-37 21.5t-25 39t-9 60z" />
<glyph unicode="&#x140;" horiz-adv-x="758" d="M53 86q35 0 65.5 5t53 20.5t36 44.5t13.5 77v1098q0 45 -13.5 72.5t-36.5 42.5t-53.5 19.5t-64.5 4.5h-26v86h387v-1323q0 -48 13 -77t36 -44.5t53.5 -20.5t65.5 -5h26v-86h-581v86h26zM579 673q0 36 9 60t25 39t37 21t46 6q24 0 45 -6t37 -21t25.5 -39t9.5 -60t-9.5 -60 t-25.5 -39t-37 -21.5t-45 -6.5q-25 0 -46 6.5t-37 21.5t-25 39t-9 60z" />
<glyph unicode="&#x141;" horiz-adv-x="1276" d="M78 584l194 112v533q0 48 -13 77t-36 44.5t-53.5 20.5t-65.5 5h-26v86h596v-86h-27q-34 0 -64.5 -4.5t-53.5 -19.5t-36.5 -42.5t-13.5 -72.5v-422l320 186v-118l-320 -185v-596h404q46 0 78.5 16.5t53.5 43t32.5 59.5t15.5 66l20 153h107l-14 -440h-1098v86h26 q35 0 65.5 5t53.5 20.5t36 44.5t13 77v347l-194 -111v115z" />
<glyph unicode="&#x142;" horiz-adv-x="664" d="M252 684v647q0 45 -13.5 72.5t-36.5 42.5t-53.5 19.5t-64.5 4.5h-27v86h387v-761l193 110v-119l-193 -108v-445q0 -48 13.5 -77t36 -44.5t53.5 -20.5t65 -5h27v-86h-582v86h27q35 0 65.5 5t53 20.5t36 44.5t13.5 77v334l-174 -98v115z" />
<glyph unicode="&#x143;" horiz-adv-x="1563" d="M1165 0l-768 1180v-947q0 -48 13.5 -77t36 -44.5t53.5 -20.5t65 -5h27v-86h-514v86h26q35 0 65.5 5t53.5 20.5t36 44.5t13 77v1004q0 45 -13.5 72.5t-36.5 42.5t-53.5 19.5t-64.5 4.5h-26v86h375l733 -1132v907q0 45 -13.5 72.5t-36.5 42.5t-53.5 19.5t-64.5 4.5h-27v86 h514v-86h-26q-35 0 -65.5 -5t-53.5 -20.5t-36 -44.5t-13 -77v-1229h-146zM706 1606q23 29 47.5 67t48 78.5t45 81t37.5 74.5h219v-21q-19 -27 -56 -67.5t-82 -84.5t-92.5 -85.5t-88.5 -69.5h-78v27z" />
<glyph unicode="&#x144;" horiz-adv-x="1321" d="M608 86v-86h-551v86h17q35 0 65.5 5t53 20.5t36 44.5t13.5 77v639q0 45 -13.5 72.5t-36.5 42.5t-53.5 20t-64.5 5h-6v86h331l27 -166h10q32 57 67.5 93.5t75 57t84 28t93.5 7.5q81 0 144.5 -23.5t108 -72t68 -124.5t23.5 -181v-484q0 -48 11.5 -77t32.5 -44.5t50 -20.5 t63 -5h7v-86h-357v707q0 67 -12 119t-38.5 88t-69.5 54.5t-105 18.5q-70 0 -117.5 -27t-76.5 -73t-41.5 -106t-12.5 -126v-432q0 -45 13.5 -72.5t36.5 -41.5t53.5 -18.5t64.5 -4.5h6zM569 1268q23 29 47.5 67t48 78.5t45 81t37.5 74.5h219v-21q-19 -27 -56 -67.5t-82 -84.5 t-92.5 -85.5t-88.5 -69.5h-78v27z" />
<glyph unicode="&#x145;" horiz-adv-x="1563" d="M1165 0l-768 1180v-947q0 -48 13.5 -77t36 -44.5t53.5 -20.5t65 -5h27v-86h-514v86h26q35 0 65.5 5t53.5 20.5t36 44.5t13 77v1004q0 45 -13.5 72.5t-36.5 42.5t-53.5 19.5t-64.5 4.5h-26v86h375l733 -1132v907q0 45 -13.5 72.5t-36.5 42.5t-53.5 19.5t-64.5 4.5h-27v86 h514v-86h-26q-35 0 -65.5 -5t-53.5 -20.5t-36 -44.5t-13 -77v-1229h-146zM682 -426q17 68 33 147.5t29 153.5h178v-20q-14 -32 -34 -72t-43.5 -82t-47.5 -82t-45 -72h-70v27z" />
<glyph unicode="&#x146;" horiz-adv-x="1321" d="M608 86v-86h-551v86h17q35 0 65.5 5t53 20.5t36 44.5t13.5 77v639q0 45 -13.5 72.5t-36.5 42.5t-53.5 20t-64.5 5h-6v86h331l27 -166h10q32 57 67.5 93.5t75 57t84 28t93.5 7.5q81 0 144.5 -23.5t108 -72t68 -124.5t23.5 -181v-484q0 -48 11.5 -77t32.5 -44.5t50 -20.5 t63 -5h7v-86h-357v707q0 67 -12 119t-38.5 88t-69.5 54.5t-105 18.5q-70 0 -117.5 -27t-76.5 -73t-41.5 -106t-12.5 -126v-432q0 -45 13.5 -72.5t36.5 -41.5t53.5 -18.5t64.5 -4.5h6zM543 -426q17 68 33 147.5t29 153.5h178v-20q-14 -32 -34 -72t-43.5 -82t-47.5 -82 t-45 -72h-70v27z" />
<glyph unicode="&#x147;" horiz-adv-x="1563" d="M1165 0l-768 1180v-947q0 -48 13.5 -77t36 -44.5t53.5 -20.5t65 -5h27v-86h-514v86h26q35 0 65.5 5t53.5 20.5t36 44.5t13 77v1004q0 45 -13.5 72.5t-36.5 42.5t-53.5 19.5t-64.5 4.5h-26v86h375l733 -1132v907q0 45 -13.5 72.5t-36.5 42.5t-53.5 19.5t-64.5 4.5h-27v86 h514v-86h-26q-35 0 -65.5 -5t-53.5 -20.5t-36 -44.5t-13 -77v-1229h-146zM527 1907h80q29 -18 58.5 -40t58 -46.5t55 -50t49.5 -50.5q23 25 49.5 50.5t55.5 50t59 46.5t59 40h80v-27q-24 -29 -53 -67t-57.5 -78.5t-53.5 -80.5t-41 -75h-194q-16 35 -41 75t-53.5 80.5 t-57.5 78.5t-53 67v27z" />
<glyph unicode="&#x148;" horiz-adv-x="1321" d="M608 86v-86h-551v86h17q35 0 65.5 5t53 20.5t36 44.5t13.5 77v639q0 45 -13.5 72.5t-36.5 42.5t-53.5 20t-64.5 5h-6v86h331l27 -166h10q32 57 67.5 93.5t75 57t84 28t93.5 7.5q81 0 144.5 -23.5t108 -72t68 -124.5t23.5 -181v-484q0 -48 11.5 -77t32.5 -44.5t50 -20.5 t63 -5h7v-86h-357v707q0 67 -12 119t-38.5 88t-69.5 54.5t-105 18.5q-70 0 -117.5 -27t-76.5 -73t-41.5 -106t-12.5 -126v-432q0 -45 13.5 -72.5t36.5 -41.5t53.5 -18.5t64.5 -4.5h6zM375 1569h80q29 -18 58.5 -40t58 -46.5t55 -50t49.5 -50.5q23 25 49.5 50.5t55.5 50 t59 46.5t59 40h80v-27q-24 -29 -53 -67t-57.5 -78.5t-53.5 -80.5t-41 -75h-194q-16 35 -41 75t-53.5 80.5t-57.5 78.5t-53 67v27z" />
<glyph unicode="&#x149;" horiz-adv-x="1597" d="M884 86v-86h-551v86h17q35 0 65.5 5t53 20.5t36 44.5t13.5 77v639q0 45 -13.5 72.5t-36.5 42.5t-53.5 20t-64.5 5h-6v86h331l27 -166h10q32 57 67.5 93.5t75 57t84 28t93.5 7.5q81 0 144.5 -23.5t108 -72t68 -124.5t23.5 -181v-484q0 -48 11.5 -77t32.5 -44.5t50 -20.5 t63 -5h7v-86h-357v707q0 67 -12 119t-38.5 88t-69.5 54.5t-105 18.5q-70 0 -117.5 -27t-76.5 -73t-41.5 -106t-12.5 -126v-432q0 -45 13.5 -72.5t36.5 -41.5t53.5 -18.5t64.5 -4.5h6zM337 1284q0 -65 -18 -126t-58.5 -113t-104 -93.5t-155.5 -68.5v86q101 32 148 78t47 106 q0 20 -11 33.5t-28 24t-36 20.5t-36 24t-28 34.5t-11 51.5q0 59 38.5 90t95.5 31q32 0 60 -11.5t50 -34t34.5 -56t12.5 -76.5z" />
<glyph unicode="&#x14a;" horiz-adv-x="1624" d="M1352.5 -245.5q-19.5 -91.5 -58.5 -146t-97 -77.5t-136 -23h-47v97h28q50 0 88 18.5t64 62t39.5 116t13.5 180.5v18l-850 1200v-967q0 -48 13.5 -77t36 -44.5t53.5 -20.5t65 -5h27v-86h-514v86h26q35 0 65.5 5t53.5 20.5t36 44.5t13 77v1004q0 45 -13.5 72.5t-36.5 42.5 t-53.5 19.5t-64.5 4.5h-26v86h375l794 -1124v899q0 45 -13.5 72.5t-36.5 42.5t-53.5 19.5t-64.5 4.5h-26v86h514v-86h-27q-34 0 -65 -5t-53.5 -20.5t-36 -44.5t-13.5 -77v-1245q0 -138 -19.5 -229.5z" />
<glyph unicode="&#x14b;" horiz-adv-x="1300" d="M608 86v-86h-551v86h17q35 0 65.5 5t53 20.5t36 44.5t13.5 77v639q0 45 -13.5 72.5t-36.5 42.5t-53.5 20t-64.5 5h-6v86h331l27 -166h10q32 57 67.5 93.5t75 57t84 28t93.5 7.5q81 0 144.5 -23.5t108 -72t68 -124.5t23.5 -181v-733q0 -138 -28 -229.5t-78.5 -146 t-120 -77.5t-152.5 -23h-31v97h12q50 0 88 18.5t64 62t39.5 116t13.5 180.5v725q0 67 -12 119t-38.5 88t-69.5 54.5t-105 18.5q-70 0 -117.5 -27t-76.5 -73t-41.5 -106t-12.5 -126v-432q0 -45 13.5 -72.5t36.5 -41.5t53.5 -18.5t64.5 -4.5h6z" />
<glyph unicode="&#x14c;" horiz-adv-x="1520" d="M1403 733q0 -169 -42 -308t-124 -238t-202 -153t-275 -54q-163 0 -284 54t-201 153t-120 238.5t-40 309.5t40 308.5t120 236.5t202 151.5t285 53.5q155 0 274 -53.5t201 -152t124 -237t42 -309.5zM342 733q0 -152 22.5 -271.5t72.5 -202t129.5 -126t193.5 -43.5 t193.5 43.5t129 126t71.5 202t22 271.5t-22 271.5t-71.5 201.5t-128 125t-192.5 43t-194 -43t-130.5 -125t-73 -201.5t-22.5 -271.5zM1053 1579h-594v121h594v-121z" />
<glyph unicode="&#x14d;" d="M1069 551q0 -289 -122.5 -430t-358.5 -141q-111 0 -199 35t-149.5 106t-94 178.5t-32.5 251.5q0 287 121.5 427t359.5 140q111 0 199 -34.5t149.5 -105t94 -177t32.5 -250.5zM311 551q0 -114 15 -201t48.5 -145.5t87 -88.5t130.5 -30t130 30t86 88.5t47.5 145.5t14.5 201 t-15 200t-48 143.5t-86.5 86.5t-130.5 29t-130 -29t-86 -86.5t-48 -143.5t-15 -200zM883 1241h-594v121h594v-121z" />
<glyph unicode="&#x14e;" horiz-adv-x="1520" d="M1403 733q0 -169 -42 -308t-124 -238t-202 -153t-275 -54q-163 0 -284 54t-201 153t-120 238.5t-40 309.5t40 308.5t120 236.5t202 151.5t285 53.5q155 0 274 -53.5t201 -152t124 -237t42 -309.5zM342 733q0 -152 22.5 -271.5t72.5 -202t129.5 -126t193.5 -43.5 t193.5 43.5t129 126t71.5 202t22 271.5t-22 271.5t-71.5 201.5t-128 125t-192.5 43t-194 -43t-130.5 -125t-73 -201.5t-22.5 -271.5zM760 1579q-73 0 -126.5 22.5t-88.5 60.5t-52.5 89t-19.5 109h94q17 -75 67 -107.5t126 -32.5q75 0 125 32.5t67 107.5h95 q-2 -58 -19.5 -109t-53 -89t-88.5 -60.5t-126 -22.5z" />
<glyph unicode="&#x14f;" d="M1069 551q0 -289 -122.5 -430t-358.5 -141q-111 0 -199 35t-149.5 106t-94 178.5t-32.5 251.5q0 287 121.5 427t359.5 140q111 0 199 -34.5t149.5 -105t94 -177t32.5 -250.5zM311 551q0 -114 15 -201t48.5 -145.5t87 -88.5t130.5 -30t130 30t86 88.5t47.5 145.5t14.5 201 t-15 200t-48 143.5t-86.5 86.5t-130.5 29t-130 -29t-86 -86.5t-48 -143.5t-15 -200zM590 1241q-73 0 -126.5 22.5t-88.5 60.5t-52.5 89t-19.5 109h94q17 -75 67 -107.5t126 -32.5q75 0 125 32.5t67 107.5h95q-2 -58 -19.5 -109t-53 -89t-88.5 -60.5t-126 -22.5z" />
<glyph unicode="&#x150;" horiz-adv-x="1520" d="M1403 733q0 -169 -42 -308t-124 -238t-202 -153t-275 -54q-163 0 -284 54t-201 153t-120 238.5t-40 309.5t40 308.5t120 236.5t202 151.5t285 53.5q155 0 274 -53.5t201 -152t124 -237t42 -309.5zM342 733q0 -152 22.5 -271.5t72.5 -202t129.5 -126t193.5 -43.5 t193.5 43.5t129 126t71.5 202t22 271.5t-22 271.5t-71.5 201.5t-128 125t-192.5 43t-194 -43t-130.5 -125t-73 -201.5t-22.5 -271.5zM445 1579v27q21 33 45 71t47.5 78t44.5 79t37 73h219v-21q-11 -18 -30.5 -42.5t-44.5 -52.5t-53.5 -57.5t-57.5 -57.5t-56.5 -53t-50.5 -44 h-100zM814 1579v27q21 33 45 71t47.5 78t44.5 79t37 73h219v-21q-11 -18 -30.5 -42.5t-44.5 -52.5t-53.5 -57.5t-57.5 -57.5t-56.5 -53t-50.5 -44h-100z" />
<glyph unicode="&#x151;" d="M1069 551q0 -289 -122.5 -430t-358.5 -141q-111 0 -199 35t-149.5 106t-94 178.5t-32.5 251.5q0 287 121.5 427t359.5 140q111 0 199 -34.5t149.5 -105t94 -177t32.5 -250.5zM311 551q0 -114 15 -201t48.5 -145.5t87 -88.5t130.5 -30t130 30t86 88.5t47.5 145.5t14.5 201 t-15 200t-48 143.5t-86.5 86.5t-130.5 29t-130 -29t-86 -86.5t-48 -143.5t-15 -200zM279 1241v27q21 33 45 71t47.5 78t44.5 79t37 73h219v-21q-11 -18 -30.5 -42.5t-44.5 -52.5t-53.5 -57.5t-57.5 -57.5t-56.5 -53t-50.5 -44h-100zM648 1241v27q21 33 45 71t47.5 78 t44.5 79t37 73h219v-21q-11 -18 -30.5 -42.5t-44.5 -52.5t-53.5 -57.5t-57.5 -57.5t-56.5 -53t-50.5 -44h-100z" />
<glyph unicode="&#x152;" horiz-adv-x="1964" d="M1167 102h396q48 0 82.5 13.5t57.5 36.5t36 53.5t18 64.5l15 88h106l-14 -358h-893q-21 -5 -47.5 -8.5t-55 -6t-56.5 -4t-52 -1.5q-163 0 -284 54t-201 153t-120 238.5t-40 309.5t40 308.5t120 236.5t202 151.5t285 53.5q24 0 52.5 -1.5t57 -4.5t54.5 -7t47 -10h825 l10 -358h-106l-10 88q-4 34 -15.5 64.5t-33 53.5t-54 36.5t-78.5 13.5h-344v-545h494v-100h-494v-613zM760 90q60 0 110 8.5t91 22.5v1218q-41 17 -90 26t-109 9q-114 0 -194 -43t-130.5 -125t-73 -201.5t-22.5 -271.5t22.5 -271.5t72.5 -202t129.5 -126t193.5 -43.5z" />
<glyph unicode="&#x153;" horiz-adv-x="1853" d="M311 551q0 -114 15 -201t48.5 -145.5t87 -88.5t130.5 -30q76 0 128.5 29t85.5 86.5t48 142.5t16 197v28q-1 110 -17 192.5t-49 138t-86 83t-128 27.5q-77 0 -130 -29t-86 -86.5t-48 -143.5t-15 -200zM1321 1008q-115 0 -176 -92.5t-72 -270.5h471q0 81 -12 148t-38 115 t-68.5 74t-104.5 26zM1346 -20q-130 0 -221.5 52t-151.5 152q-119 -204 -385 -204q-111 0 -199 35t-149.5 106t-94 178.5t-32.5 251.5q0 287 121.5 427t359.5 140q124 0 217.5 -49t155.5 -149q58 100 147.5 149t210.5 49q99 0 178 -31t134 -92.5t84.5 -153t29.5 -212.5v-94 h-682q2 -99 19 -177.5t53 -134t93 -85t140 -29.5q53 0 98.5 12t82.5 32t65.5 45.5t46.5 53.5q14 -6 26.5 -25t12.5 -45q0 -31 -22 -66.5t-67 -65.5t-112.5 -50t-158.5 -20z" />
<glyph unicode="&#x154;" horiz-adv-x="1343" d="M1135 250q52 -82 101 -123t114 -41h6v-86h-29q-96 0 -157.5 7t-104.5 27t-73.5 56t-65.5 94l-277 461h-170v-422q0 -45 13.5 -72.5t36.5 -41.5t53.5 -18.5t64.5 -4.5h27v-86h-596v86h26q34 0 64.5 4.5t53.5 18.5t36.5 41.5t13.5 72.5v1014q0 45 -13.5 72.5t-36.5 42.5 t-53.5 19.5t-64.5 4.5h-26v86h551q266 0 396 -98.5t130 -296.5q0 -82 -26.5 -143.5t-69.5 -106.5t-97 -75t-108 -48zM479 741h144q90 0 150 20t96 60t51.5 100t15.5 140q0 82 -17 139.5t-55 94t-98.5 53t-147.5 16.5h-139v-623zM524 1606q23 29 47.5 67t48 78.5t45 81 t37.5 74.5h219v-21q-19 -27 -56 -67.5t-82 -84.5t-92.5 -85.5t-88.5 -69.5h-78v27z" />
<glyph unicode="&#x155;" horiz-adv-x="965" d="M659 0h-591v86h6q35 0 65.5 5t53 20.5t36 44.5t13.5 77v639q0 45 -13.5 72.5t-36.5 42.5t-53.5 20t-64.5 5h-6v86h315l39 -203h10q20 46 41 86.5t51.5 71t75.5 48t113 17.5q112 0 166.5 -39t54.5 -110q0 -32 -10.5 -59t-33.5 -46.5t-59 -30t-88 -10.5q0 85 -24 122.5 t-84 37.5q-38 0 -68 -21.5t-52.5 -57t-38 -81.5t-25 -94.5t-13.5 -96.5t-4 -87v-322q0 -45 13.5 -72.5t36.5 -41.5t53.5 -18.5t64.5 -4.5h57v-86zM374 1268q23 29 47.5 67t48 78.5t45 81t37.5 74.5h219v-21q-19 -27 -56 -67.5t-82 -84.5t-92.5 -85.5t-88.5 -69.5h-78v27z " />
<glyph unicode="&#x156;" horiz-adv-x="1343" d="M1135 250q52 -82 101 -123t114 -41h6v-86h-29q-96 0 -157.5 7t-104.5 27t-73.5 56t-65.5 94l-277 461h-170v-422q0 -45 13.5 -72.5t36.5 -41.5t53.5 -18.5t64.5 -4.5h27v-86h-596v86h26q34 0 64.5 4.5t53.5 18.5t36.5 41.5t13.5 72.5v1014q0 45 -13.5 72.5t-36.5 42.5 t-53.5 19.5t-64.5 4.5h-26v86h551q266 0 396 -98.5t130 -296.5q0 -82 -26.5 -143.5t-69.5 -106.5t-97 -75t-108 -48zM479 741h144q90 0 150 20t96 60t51.5 100t15.5 140q0 82 -17 139.5t-55 94t-98.5 53t-147.5 16.5h-139v-623zM543 -426q17 68 33 147.5t29 153.5h178v-20 q-14 -32 -34 -72t-43.5 -82t-47.5 -82t-45 -72h-70v27z" />
<glyph unicode="&#x157;" horiz-adv-x="965" d="M659 0h-591v86h6q35 0 65.5 5t53 20.5t36 44.5t13.5 77v639q0 45 -13.5 72.5t-36.5 42.5t-53.5 20t-64.5 5h-6v86h315l39 -203h10q20 46 41 86.5t51.5 71t75.5 48t113 17.5q112 0 166.5 -39t54.5 -110q0 -32 -10.5 -59t-33.5 -46.5t-59 -30t-88 -10.5q0 85 -24 122.5 t-84 37.5q-38 0 -68 -21.5t-52.5 -57t-38 -81.5t-25 -94.5t-13.5 -96.5t-4 -87v-322q0 -45 13.5 -72.5t36.5 -41.5t53.5 -18.5t64.5 -4.5h57v-86zM189 -426q17 68 33 147.5t29 153.5h178v-20q-14 -32 -34 -72t-43.5 -82t-47.5 -82t-45 -72h-70v27z" />
<glyph unicode="&#x158;" horiz-adv-x="1343" d="M1135 250q52 -82 101 -123t114 -41h6v-86h-29q-96 0 -157.5 7t-104.5 27t-73.5 56t-65.5 94l-277 461h-170v-422q0 -45 13.5 -72.5t36.5 -41.5t53.5 -18.5t64.5 -4.5h27v-86h-596v86h26q34 0 64.5 4.5t53.5 18.5t36.5 41.5t13.5 72.5v1014q0 45 -13.5 72.5t-36.5 42.5 t-53.5 19.5t-64.5 4.5h-26v86h551q266 0 396 -98.5t130 -296.5q0 -82 -26.5 -143.5t-69.5 -106.5t-97 -75t-108 -48zM479 741h144q90 0 150 20t96 60t51.5 100t15.5 140q0 82 -17 139.5t-55 94t-98.5 53t-147.5 16.5h-139v-623zM322 1907h80q29 -18 58.5 -40t58 -46.5 t55 -50t49.5 -50.5q23 25 49.5 50.5t55.5 50t59 46.5t59 40h80v-27q-24 -29 -53 -67t-57.5 -78.5t-53.5 -80.5t-41 -75h-194q-16 35 -41 75t-53.5 80.5t-57.5 78.5t-53 67v27z" />
<glyph unicode="&#x159;" horiz-adv-x="965" d="M659 0h-591v86h6q35 0 65.5 5t53 20.5t36 44.5t13.5 77v639q0 45 -13.5 72.5t-36.5 42.5t-53.5 20t-64.5 5h-6v86h315l39 -203h10q20 46 41 86.5t51.5 71t75.5 48t113 17.5q112 0 166.5 -39t54.5 -110q0 -32 -10.5 -59t-33.5 -46.5t-59 -30t-88 -10.5q0 85 -24 122.5 t-84 37.5q-38 0 -68 -21.5t-52.5 -57t-38 -81.5t-25 -94.5t-13.5 -96.5t-4 -87v-322q0 -45 13.5 -72.5t36.5 -41.5t53.5 -18.5t64.5 -4.5h57v-86zM155 1569h80q29 -18 58.5 -40t58 -46.5t55 -50t49.5 -50.5q23 25 49.5 50.5t55.5 50t59 46.5t59 40h80v-27q-24 -29 -53 -67 t-57.5 -78.5t-53.5 -80.5t-41 -75h-194q-16 35 -41 75t-53.5 80.5t-57.5 78.5t-53 67v27z" />
<glyph unicode="&#x15a;" horiz-adv-x="1114" d="M506 -20q-100 0 -176.5 21t-128 58.5t-77.5 91t-26 117.5q0 62 38.5 100t109.5 38q3 -64 19.5 -123t49.5 -104t84 -72t123 -27q138 0 215.5 66.5t77.5 191.5q0 56 -16 99t-53 79.5t-97.5 70t-150.5 70.5q-95 39 -166 83.5t-118 99t-70 121.5t-23 151q0 88 33.5 157 t93.5 116.5t142 72.5t179 25q92 0 163 -19t120 -51t74.5 -73.5t25.5 -86.5q0 -66 -43.5 -99.5t-117.5 -33.5q0 48 -11.5 94.5t-38.5 83t-71 59.5t-109 23q-59 0 -105.5 -16.5t-78.5 -47t-49 -73.5t-17 -96q0 -61 16 -107.5t53.5 -84t98.5 -71t150 -69.5q90 -37 160.5 -78 t119.5 -91.5t75 -113t26 -141.5q0 -97 -35.5 -173.5t-101.5 -129.5t-159 -80.5t-208 -27.5zM450 1606q23 29 47.5 67t48 78.5t45 81t37.5 74.5h219v-21q-19 -27 -56 -67.5t-82 -84.5t-92.5 -85.5t-88.5 -69.5h-78v27z" />
<glyph unicode="&#x15b;" horiz-adv-x="924" d="M430 -20q-77 0 -139.5 13.5t-106.5 41t-68 68t-24 94.5q0 41 13.5 68.5t33 43.5t42 22.5t40.5 6.5q0 -54 11 -101t37 -82.5t68.5 -56t104.5 -20.5q55 0 97 13.5t70.5 38t43.5 59t15 75.5q0 38 -11.5 65.5t-40 51.5t-77.5 49t-123 57q-79 35 -137.5 67.5t-96.5 70.5 t-57 86.5t-19 115.5q0 70 27.5 124t78.5 90.5t122 55.5t158 19q73 0 129 -15t94 -40.5t57 -60t19 -72.5q0 -56 -38.5 -89.5t-109.5 -33.5q0 103 -42.5 160t-133.5 57q-52 0 -89 -12t-60.5 -34t-34.5 -52t-11 -66q0 -39 14 -67.5t44.5 -52.5t79 -46.5t116.5 -50.5 q81 -34 139 -67t95.5 -72t55.5 -88t18 -113q0 -80 -29 -140t-82 -100.5t-127.5 -60.5t-165.5 -20zM365 1268q23 29 47.5 67t48 78.5t45 81t37.5 74.5h219v-21q-19 -27 -56 -67.5t-82 -84.5t-92.5 -85.5t-88.5 -69.5h-78v27z" />
<glyph unicode="&#x15c;" horiz-adv-x="1114" d="M506 -20q-100 0 -176.5 21t-128 58.5t-77.5 91t-26 117.5q0 62 38.5 100t109.5 38q3 -64 19.5 -123t49.5 -104t84 -72t123 -27q138 0 215.5 66.5t77.5 191.5q0 56 -16 99t-53 79.5t-97.5 70t-150.5 70.5q-95 39 -166 83.5t-118 99t-70 121.5t-23 151q0 88 33.5 157 t93.5 116.5t142 72.5t179 25q92 0 163 -19t120 -51t74.5 -73.5t25.5 -86.5q0 -66 -43.5 -99.5t-117.5 -33.5q0 48 -11.5 94.5t-38.5 83t-71 59.5t-109 23q-59 0 -105.5 -16.5t-78.5 -47t-49 -73.5t-17 -96q0 -61 16 -107.5t53.5 -84t98.5 -71t150 -69.5q90 -37 160.5 -78 t119.5 -91.5t75 -113t26 -141.5q0 -97 -35.5 -173.5t-101.5 -129.5t-159 -80.5t-208 -27.5zM270 1606q24 29 53 67t57.5 78.5t53.5 81t41 74.5h194q16 -34 41 -74.5t53.5 -81t57.5 -78.5t53 -67v-27h-80q-59 34 -118 84.5t-105 99.5q-47 -49 -105 -99.5t-116 -84.5h-80v27z " />
<glyph unicode="&#x15d;" horiz-adv-x="924" d="M430 -20q-77 0 -139.5 13.5t-106.5 41t-68 68t-24 94.5q0 41 13.5 68.5t33 43.5t42 22.5t40.5 6.5q0 -54 11 -101t37 -82.5t68.5 -56t104.5 -20.5q55 0 97 13.5t70.5 38t43.5 59t15 75.5q0 38 -11.5 65.5t-40 51.5t-77.5 49t-123 57q-79 35 -137.5 67.5t-96.5 70.5 t-57 86.5t-19 115.5q0 70 27.5 124t78.5 90.5t122 55.5t158 19q73 0 129 -15t94 -40.5t57 -60t19 -72.5q0 -56 -38.5 -89.5t-109.5 -33.5q0 103 -42.5 160t-133.5 57q-52 0 -89 -12t-60.5 -34t-34.5 -52t-11 -66q0 -39 14 -67.5t44.5 -52.5t79 -46.5t116.5 -50.5 q81 -34 139 -67t95.5 -72t55.5 -88t18 -113q0 -80 -29 -140t-82 -100.5t-127.5 -60.5t-165.5 -20zM188 1268q24 29 53 67t57.5 78.5t53.5 81t41 74.5h194q16 -34 41 -74.5t53.5 -81t57.5 -78.5t53 -67v-27h-80q-59 34 -118 84.5t-105 99.5q-47 -49 -105 -99.5t-116 -84.5 h-80v27z" />
<glyph unicode="&#x15e;" horiz-adv-x="1114" d="M506 -20q-100 0 -176.5 21t-128 58.5t-77.5 91t-26 117.5q0 62 38.5 100t109.5 38q3 -64 19.5 -123t49.5 -104t84 -72t123 -27q138 0 215.5 66.5t77.5 191.5q0 56 -16 99t-53 79.5t-97.5 70t-150.5 70.5q-95 39 -166 83.5t-118 99t-70 121.5t-23 151q0 88 33.5 157 t93.5 116.5t142 72.5t179 25q92 0 163 -19t120 -51t74.5 -73.5t25.5 -86.5q0 -66 -43.5 -99.5t-117.5 -33.5q0 48 -11.5 94.5t-38.5 83t-71 59.5t-109 23q-59 0 -105.5 -16.5t-78.5 -47t-49 -73.5t-17 -96q0 -61 16 -107.5t53.5 -84t98.5 -71t150 -69.5q90 -37 160.5 -78 t119.5 -91.5t75 -113t26 -141.5q0 -97 -35.5 -173.5t-101.5 -129.5t-159 -80.5t-208 -27.5zM746 -258q0 -109 -69.5 -171.5t-200.5 -62.5q-16 0 -36 1.5t-41 4.5t-42 7.5t-39 9.5v104q37 -8 74 -12t65 -4q59 0 92 31t33 84q0 60 -43.5 90t-110.5 35l43 159h97l-21 -88 q100 -8 149.5 -57.5t49.5 -130.5z" />
<glyph unicode="&#x15f;" horiz-adv-x="924" d="M430 -20q-77 0 -139.5 13.5t-106.5 41t-68 68t-24 94.5q0 41 13.5 68.5t33 43.5t42 22.5t40.5 6.5q0 -54 11 -101t37 -82.5t68.5 -56t104.5 -20.5q55 0 97 13.5t70.5 38t43.5 59t15 75.5q0 38 -11.5 65.5t-40 51.5t-77.5 49t-123 57q-79 35 -137.5 67.5t-96.5 70.5 t-57 86.5t-19 115.5q0 70 27.5 124t78.5 90.5t122 55.5t158 19q73 0 129 -15t94 -40.5t57 -60t19 -72.5q0 -56 -38.5 -89.5t-109.5 -33.5q0 103 -42.5 160t-133.5 57q-52 0 -89 -12t-60.5 -34t-34.5 -52t-11 -66q0 -39 14 -67.5t44.5 -52.5t79 -46.5t116.5 -50.5 q81 -34 139 -67t95.5 -72t55.5 -88t18 -113q0 -80 -29 -140t-82 -100.5t-127.5 -60.5t-165.5 -20zM674 -258q0 -109 -69.5 -171.5t-200.5 -62.5q-16 0 -36 1.5t-41 4.5t-42 7.5t-39 9.5v104q37 -8 74 -12t65 -4q59 0 92 31t33 84q0 60 -43.5 90t-110.5 35l43 159h97l-21 -88 q100 -8 149.5 -57.5t49.5 -130.5z" />
<glyph unicode="&#x160;" horiz-adv-x="1114" d="M506 -20q-100 0 -176.5 21t-128 58.5t-77.5 91t-26 117.5q0 62 38.5 100t109.5 38q3 -64 19.5 -123t49.5 -104t84 -72t123 -27q138 0 215.5 66.5t77.5 191.5q0 56 -16 99t-53 79.5t-97.5 70t-150.5 70.5q-95 39 -166 83.5t-118 99t-70 121.5t-23 151q0 88 33.5 157 t93.5 116.5t142 72.5t179 25q92 0 163 -19t120 -51t74.5 -73.5t25.5 -86.5q0 -66 -43.5 -99.5t-117.5 -33.5q0 48 -11.5 94.5t-38.5 83t-71 59.5t-109 23q-59 0 -105.5 -16.5t-78.5 -47t-49 -73.5t-17 -96q0 -61 16 -107.5t53.5 -84t98.5 -71t150 -69.5q90 -37 160.5 -78 t119.5 -91.5t75 -113t26 -141.5q0 -97 -35.5 -173.5t-101.5 -129.5t-159 -80.5t-208 -27.5zM263 1907h80q29 -18 58.5 -40t58 -46.5t55 -50t49.5 -50.5q23 25 49.5 50.5t55.5 50t59 46.5t59 40h80v-27q-24 -29 -53 -67t-57.5 -78.5t-53.5 -80.5t-41 -75h-194q-16 35 -41 75 t-53.5 80.5t-57.5 78.5t-53 67v27z" />
<glyph unicode="&#x161;" horiz-adv-x="924" d="M430 -20q-77 0 -139.5 13.5t-106.5 41t-68 68t-24 94.5q0 41 13.5 68.5t33 43.5t42 22.5t40.5 6.5q0 -54 11 -101t37 -82.5t68.5 -56t104.5 -20.5q55 0 97 13.5t70.5 38t43.5 59t15 75.5q0 38 -11.5 65.5t-40 51.5t-77.5 49t-123 57q-79 35 -137.5 67.5t-96.5 70.5 t-57 86.5t-19 115.5q0 70 27.5 124t78.5 90.5t122 55.5t158 19q73 0 129 -15t94 -40.5t57 -60t19 -72.5q0 -56 -38.5 -89.5t-109.5 -33.5q0 103 -42.5 160t-133.5 57q-52 0 -89 -12t-60.5 -34t-34.5 -52t-11 -66q0 -39 14 -67.5t44.5 -52.5t79 -46.5t116.5 -50.5 q81 -34 139 -67t95.5 -72t55.5 -88t18 -113q0 -80 -29 -140t-82 -100.5t-127.5 -60.5t-165.5 -20zM169 1569h80q29 -18 58.5 -40t58 -46.5t55 -50t49.5 -50.5q23 25 49.5 50.5t55.5 50t59 46.5t59 40h80v-27q-24 -29 -53 -67t-57.5 -78.5t-53.5 -80.5t-41 -75h-194 q-16 35 -41 75t-53.5 80.5t-57.5 78.5t-53 67v27z" />
<glyph unicode="&#x162;" horiz-adv-x="1255" d="M729 233q0 -48 13.5 -77t36 -44.5t53.5 -20.5t65 -5h47v-86h-637v86h47q34 0 64.5 4.5t53.5 18.5t36.5 41.5t13.5 72.5v1137h-196q-45 0 -75.5 -13.5t-50 -36.5t-29 -53.5t-13.5 -64.5l-11 -88h-106l10 358h1153l10 -358h-106l-10 88q-4 34 -14 64.5t-29 53.5t-50 36.5 t-77 13.5h-199v-1127zM851 -258q0 -109 -69.5 -171.5t-200.5 -62.5q-16 0 -36 1.5t-41 4.5t-42 7.5t-39 9.5v104q37 -8 74 -12t65 -4q59 0 92 31t33 84q0 60 -43.5 90t-110.5 35l43 159h97l-21 -88q100 -8 149.5 -57.5t49.5 -130.5z" />
<glyph unicode="&#x163;" horiz-adv-x="721" d="M543 88q37 0 68 4t63 10v-90q-13 -6 -34 -12t-45.5 -10.5t-51.5 -7t-51 -2.5q-78 0 -134 16.5t-92 53.5t-53.5 98t-17.5 149v684h-156v82q37 0 81.5 15t78.5 50q35 38 56.5 90.5t37.5 131.5h94v-252h268v-117h-268v-690q0 -105 42.5 -154t113.5 -49zM621 -258 q0 -109 -69.5 -171.5t-200.5 -62.5q-16 0 -36 1.5t-41 4.5t-42 7.5t-39 9.5v104q37 -8 74 -12t65 -4q59 0 92 31t33 84q0 60 -43.5 90t-110.5 35l43 159h97l-21 -88q100 -8 149.5 -57.5t49.5 -130.5z" />
<glyph unicode="&#x164;" horiz-adv-x="1255" d="M729 233q0 -48 13.5 -77t36 -44.5t53.5 -20.5t65 -5h47v-86h-637v86h47q34 0 64.5 4.5t53.5 18.5t36.5 41.5t13.5 72.5v1137h-196q-45 0 -75.5 -13.5t-50 -36.5t-29 -53.5t-13.5 -64.5l-11 -88h-106l10 358h1153l10 -358h-106l-10 88q-4 34 -14 64.5t-29 53.5t-50 36.5 t-77 13.5h-199v-1127zM324 1907h80q29 -18 58.5 -40t58 -46.5t55 -50t49.5 -50.5q23 25 49.5 50.5t55.5 50t59 46.5t59 40h80v-27q-24 -29 -53 -67t-57.5 -78.5t-53.5 -80.5t-41 -75h-194q-16 35 -41 75t-53.5 80.5t-57.5 78.5t-53 67v27z" />
<glyph unicode="&#x165;" horiz-adv-x="721" d="M543 88q37 0 68 4t63 10v-90q-13 -6 -34 -12t-45.5 -10.5t-51.5 -7t-51 -2.5q-78 0 -134 16.5t-92 53.5t-53.5 98t-17.5 149v684h-156v82q37 0 81.5 15t78.5 50q35 38 56.5 90.5t37.5 131.5h94v-252h268v-117h-268v-690q0 -105 42.5 -154t113.5 -49zM532 1255 q17 69 33 148t29 153h178v-20q-14 -32 -34 -72t-43.5 -81.5t-47.5 -81.5t-45 -72h-70v26z" />
<glyph unicode="&#x166;" horiz-adv-x="1255" d="M729 772h346v-100h-346v-439q0 -48 13.5 -77t36 -44.5t53.5 -20.5t65 -5h47v-86h-637v86h47q34 0 64.5 4.5t53.5 18.5t36.5 41.5t13.5 72.5v449h-342v100h342v588h-196q-45 0 -75.5 -13.5t-50 -36.5t-29 -53.5t-13.5 -64.5l-11 -88h-106l10 358h1153l10 -358h-106l-10 88 q-4 34 -14 64.5t-29 53.5t-50 36.5t-77 13.5h-199v-588z" />
<glyph unicode="&#x167;" horiz-adv-x="721" d="M543 88q37 0 68 4t63 10v-90q-13 -6 -34 -12t-45.5 -10.5t-51.5 -7t-51 -2.5q-78 0 -134 16.5t-92 53.5t-53.5 98t-17.5 149v299h-140v96h140v289h-156v82q37 0 81.5 15t78.5 50q35 38 56.5 90.5t37.5 131.5h94v-252h268v-117h-268v-289h248v-96h-248v-305 q0 -105 42.5 -154t113.5 -49z" />
<glyph unicode="&#x168;" horiz-adv-x="1468" d="M741 -20q-121 0 -217 25.5t-162.5 81t-101.5 143t-35 212.5v795q0 45 -13.5 72.5t-36.5 42.5t-53.5 19.5t-64.5 4.5h-26v86h596v-86h-27q-34 0 -65 -5t-53.5 -20.5t-36 -44.5t-13.5 -77v-799q0 -89 25.5 -151.5t71 -101.5t108 -57t137.5 -18q89 0 153.5 24t107 66.5 t63 101t20.5 128.5v815q0 45 -13.5 72.5t-36.5 42.5t-53.5 19.5t-64.5 4.5h-26v86h514v-86h-27q-34 0 -65 -5t-53.5 -20.5t-36 -44.5t-13.5 -77v-811q0 -102 -32.5 -183.5t-96 -138t-157.5 -86.5t-216 -30zM930 1712q30 0 48.5 9t29 24.5t15 35t7.5 40.5h92 q-3 -47 -16.5 -90.5t-39.5 -77.5t-65 -54t-94 -20t-99.5 20t-83 44.5t-72 44.5t-66.5 20q-31 0 -49 -9t-28.5 -24t-15.5 -34.5t-8 -40.5h-92q3 47 16.5 90t40 77t66 54t94.5 20t99.5 -20t83 -44.5t72 -44.5t65.5 -20z" />
<glyph unicode="&#x169;" horiz-adv-x="1300" d="M1079 223q0 -45 13.5 -72.5t36.5 -41.5t53.5 -18.5t64.5 -4.5h6v-86h-325l-27 166h-10q-31 -58 -68.5 -94t-79.5 -56.5t-88 -28t-96 -7.5q-81 0 -144 23t-106 72t-65.5 125t-22.5 181v491q0 45 -13.5 72.5t-36.5 42.5t-53.5 20t-64.5 5h-6v86h367v-707q0 -67 10.5 -119 t35 -88t66 -54.5t103.5 -18.5q68 0 116.5 24t80 67.5t46.5 104.5t15 135v422q0 48 -13.5 77.5t-36 45t-53 20.5t-65.5 5h-6v86h366v-875zM807 1374q30 0 48.5 9t29 24.5t15 35t7.5 40.5h92q-3 -47 -16.5 -90.5t-39.5 -77.5t-65 -54t-94 -20t-99.5 20t-83 44.5t-72 44.5 t-66.5 20q-31 0 -49 -9t-28.5 -24t-15.5 -34.5t-8 -40.5h-92q3 47 16.5 90t40 77t66 54t94.5 20t99.5 -20t83 -44.5t72 -44.5t65.5 -20z" />
<glyph unicode="&#x16a;" horiz-adv-x="1468" d="M741 -20q-121 0 -217 25.5t-162.5 81t-101.5 143t-35 212.5v795q0 45 -13.5 72.5t-36.5 42.5t-53.5 19.5t-64.5 4.5h-26v86h596v-86h-27q-34 0 -65 -5t-53.5 -20.5t-36 -44.5t-13.5 -77v-799q0 -89 25.5 -151.5t71 -101.5t108 -57t137.5 -18q89 0 153.5 24t107 66.5 t63 101t20.5 128.5v815q0 45 -13.5 72.5t-36.5 42.5t-53.5 19.5t-64.5 4.5h-26v86h514v-86h-27q-34 0 -65 -5t-53.5 -20.5t-36 -44.5t-13.5 -77v-811q0 -102 -32.5 -183.5t-96 -138t-157.5 -86.5t-216 -30zM1069 1579h-594v121h594v-121z" />
<glyph unicode="&#x16b;" horiz-adv-x="1300" d="M1079 223q0 -45 13.5 -72.5t36.5 -41.5t53.5 -18.5t64.5 -4.5h6v-86h-325l-27 166h-10q-31 -58 -68.5 -94t-79.5 -56.5t-88 -28t-96 -7.5q-81 0 -144 23t-106 72t-65.5 125t-22.5 181v491q0 45 -13.5 72.5t-36.5 42.5t-53.5 20t-64.5 5h-6v86h367v-707q0 -67 10.5 -119 t35 -88t66 -54.5t103.5 -18.5q68 0 116.5 24t80 67.5t46.5 104.5t15 135v422q0 48 -13.5 77.5t-36 45t-53 20.5t-65.5 5h-6v86h366v-875zM922 1241h-594v121h594v-121z" />
<glyph unicode="&#x16c;" horiz-adv-x="1468" d="M741 -20q-121 0 -217 25.5t-162.5 81t-101.5 143t-35 212.5v795q0 45 -13.5 72.5t-36.5 42.5t-53.5 19.5t-64.5 4.5h-26v86h596v-86h-27q-34 0 -65 -5t-53.5 -20.5t-36 -44.5t-13.5 -77v-799q0 -89 25.5 -151.5t71 -101.5t108 -57t137.5 -18q89 0 153.5 24t107 66.5 t63 101t20.5 128.5v815q0 45 -13.5 72.5t-36.5 42.5t-53.5 19.5t-64.5 4.5h-26v86h514v-86h-27q-34 0 -65 -5t-53.5 -20.5t-36 -44.5t-13.5 -77v-811q0 -102 -32.5 -183.5t-96 -138t-157.5 -86.5t-216 -30zM760 1579q-73 0 -126.5 22.5t-88.5 60.5t-52.5 89t-19.5 109h94 q17 -75 67 -107.5t126 -32.5q75 0 125 32.5t67 107.5h95q-2 -58 -19.5 -109t-53 -89t-88.5 -60.5t-126 -22.5z" />
<glyph unicode="&#x16d;" horiz-adv-x="1300" d="M1079 223q0 -45 13.5 -72.5t36.5 -41.5t53.5 -18.5t64.5 -4.5h6v-86h-325l-27 166h-10q-31 -58 -68.5 -94t-79.5 -56.5t-88 -28t-96 -7.5q-81 0 -144 23t-106 72t-65.5 125t-22.5 181v491q0 45 -13.5 72.5t-36.5 42.5t-53.5 20t-64.5 5h-6v86h367v-707q0 -67 10.5 -119 t35 -88t66 -54.5t103.5 -18.5q68 0 116.5 24t80 67.5t46.5 104.5t15 135v422q0 48 -13.5 77.5t-36 45t-53 20.5t-65.5 5h-6v86h366v-875zM635 1241q-73 0 -126.5 22.5t-88.5 60.5t-52.5 89t-19.5 109h94q17 -75 67 -107.5t126 -32.5q75 0 125 32.5t67 107.5h95 q-2 -58 -19.5 -109t-53 -89t-88.5 -60.5t-126 -22.5z" />
<glyph unicode="&#x16e;" horiz-adv-x="1468" d="M741 -20q-121 0 -217 25.5t-162.5 81t-101.5 143t-35 212.5v795q0 45 -13.5 72.5t-36.5 42.5t-53.5 19.5t-64.5 4.5h-26v86h596v-86h-27q-34 0 -65 -5t-53.5 -20.5t-36 -44.5t-13.5 -77v-799q0 -89 25.5 -151.5t71 -101.5t108 -57t137.5 -18q89 0 153.5 24t107 66.5 t63 101t20.5 128.5v815q0 45 -13.5 72.5t-36.5 42.5t-53.5 19.5t-64.5 4.5h-26v86h514v-86h-27q-34 0 -65 -5t-53.5 -20.5t-36 -44.5t-13.5 -77v-811q0 -102 -32.5 -183.5t-96 -138t-157.5 -86.5t-216 -30zM1006 1782q0 -55 -19 -96.5t-52.5 -69.5t-78.5 -42.5t-96 -14.5 t-96 14.5t-78.5 42.5t-52.5 69.5t-19 96.5q0 54 19 96t52.5 70t78.5 42.5t96 14.5t96 -14.5t78.5 -42.5t52.5 -70t19 -96zM895 1782q0 33 -10.5 56.5t-29 38t-43 21.5t-52.5 7t-52.5 -7t-43 -21.5t-29 -38t-10.5 -56.5t10.5 -56.5t29 -38t43 -21.5t52.5 -7t52.5 7t43 21.5 t29 38t10.5 56.5z" />
<glyph unicode="&#x16f;" horiz-adv-x="1300" d="M1079 223q0 -45 13.5 -72.5t36.5 -41.5t53.5 -18.5t64.5 -4.5h6v-86h-325l-27 166h-10q-31 -58 -68.5 -94t-79.5 -56.5t-88 -28t-96 -7.5q-81 0 -144 23t-106 72t-65.5 125t-22.5 181v491q0 45 -13.5 72.5t-36.5 42.5t-53.5 20t-64.5 5h-6v86h367v-707q0 -67 10.5 -119 t35 -88t66 -54.5t103.5 -18.5q68 0 116.5 24t80 67.5t46.5 104.5t15 135v422q0 48 -13.5 77.5t-36 45t-53 20.5t-65.5 5h-6v86h366v-875zM869 1444q0 -55 -19 -96.5t-52.5 -69.5t-78.5 -42.5t-96 -14.5t-96 14.5t-78.5 42.5t-52.5 69.5t-19 96.5q0 54 19 96t52.5 70 t78.5 42.5t96 14.5t96 -14.5t78.5 -42.5t52.5 -70t19 -96zM758 1444q0 33 -10.5 56.5t-29 38t-43 21.5t-52.5 7t-52.5 -7t-43 -21.5t-29 -38t-10.5 -56.5t10.5 -56.5t29 -38t43 -21.5t52.5 -7t52.5 7t43 21.5t29 38t10.5 56.5z" />
<glyph unicode="&#x170;" horiz-adv-x="1468" d="M741 -20q-121 0 -217 25.5t-162.5 81t-101.5 143t-35 212.5v795q0 45 -13.5 72.5t-36.5 42.5t-53.5 19.5t-64.5 4.5h-26v86h596v-86h-27q-34 0 -65 -5t-53.5 -20.5t-36 -44.5t-13.5 -77v-799q0 -89 25.5 -151.5t71 -101.5t108 -57t137.5 -18q89 0 153.5 24t107 66.5 t63 101t20.5 128.5v815q0 45 -13.5 72.5t-36.5 42.5t-53.5 19.5t-64.5 4.5h-26v86h514v-86h-27q-34 0 -65 -5t-53.5 -20.5t-36 -44.5t-13.5 -77v-811q0 -102 -32.5 -183.5t-96 -138t-157.5 -86.5t-216 -30zM459 1579v27q21 33 45 71t47.5 78t44.5 79t37 73h219v-21 q-11 -18 -30.5 -42.5t-44.5 -52.5t-53.5 -57.5t-57.5 -57.5t-56.5 -53t-50.5 -44h-100zM828 1579v27q21 33 45 71t47.5 78t44.5 79t37 73h219v-21q-11 -18 -30.5 -42.5t-44.5 -52.5t-53.5 -57.5t-57.5 -57.5t-56.5 -53t-50.5 -44h-100z" />
<glyph unicode="&#x171;" horiz-adv-x="1300" d="M1079 223q0 -45 13.5 -72.5t36.5 -41.5t53.5 -18.5t64.5 -4.5h6v-86h-325l-27 166h-10q-31 -58 -68.5 -94t-79.5 -56.5t-88 -28t-96 -7.5q-81 0 -144 23t-106 72t-65.5 125t-22.5 181v491q0 45 -13.5 72.5t-36.5 42.5t-53.5 20t-64.5 5h-6v86h367v-707q0 -67 10.5 -119 t35 -88t66 -54.5t103.5 -18.5q68 0 116.5 24t80 67.5t46.5 104.5t15 135v422q0 48 -13.5 77.5t-36 45t-53 20.5t-65.5 5h-6v86h366v-875zM338 1241v27q21 33 45 71t47.5 78t44.5 79t37 73h219v-21q-11 -18 -30.5 -42.5t-44.5 -52.5t-53.5 -57.5t-57.5 -57.5t-56.5 -53 t-50.5 -44h-100zM707 1241v27q21 33 45 71t47.5 78t44.5 79t37 73h219v-21q-11 -18 -30.5 -42.5t-44.5 -52.5t-53.5 -57.5t-57.5 -57.5t-56.5 -53t-50.5 -44h-100z" />
<glyph unicode="&#x172;" horiz-adv-x="1468" d="M741 -20q-121 0 -217 25.5t-162.5 81t-101.5 143t-35 212.5v795q0 45 -13.5 72.5t-36.5 42.5t-53.5 19.5t-64.5 4.5h-26v86h596v-86h-27q-34 0 -65 -5t-53.5 -20.5t-36 -44.5t-13.5 -77v-799q0 -89 25.5 -151.5t71 -101.5t108 -57t137.5 -18q89 0 153.5 24t107 66.5 t63 101t20.5 128.5v815q0 45 -13.5 72.5t-36.5 42.5t-53.5 19.5t-64.5 4.5h-26v86h514v-86h-27q-34 0 -65 -5t-53.5 -20.5t-36 -44.5t-13.5 -77v-811q0 -102 -32.5 -183.5t-96 -138t-157.5 -86.5t-216 -30zM559 -266q0 48 20 91t54 78.5t77.5 60.5t90.5 36h117 q-32 -10 -66 -30t-61.5 -49.5t-45.5 -68.5t-18 -88q0 -34 10.5 -58.5t29.5 -40t45 -23t57 -7.5q27 0 59 4.5t70 12.5v-111q-16 -8 -36.5 -14t-42.5 -10t-42.5 -6.5t-36.5 -2.5q-65 0 -117 13.5t-88.5 41t-56 70t-19.5 101.5z" />
<glyph unicode="&#x173;" horiz-adv-x="1300" d="M1079 223q0 -45 13.5 -72.5t36.5 -41.5t53.5 -18.5t64.5 -4.5h6v-86h-325l-27 166h-10q-31 -58 -68.5 -94t-79.5 -56.5t-88 -28t-96 -7.5q-81 0 -144 23t-106 72t-65.5 125t-22.5 181v491q0 45 -13.5 72.5t-36.5 42.5t-53.5 20t-64.5 5h-6v86h367v-707q0 -67 10.5 -119 t35 -88t66 -54.5t103.5 -18.5q68 0 116.5 24t80 67.5t46.5 104.5t15 135v422q0 48 -13.5 77.5t-36 45t-53 20.5t-65.5 5h-6v86h366v-875zM692 -266q0 48 20 91t54 78.5t77.5 60.5t90.5 36h117q-32 -10 -66 -30t-61.5 -49.5t-45.5 -68.5t-18 -88q0 -34 10.5 -58.5t29.5 -40 t45 -23t57 -7.5q27 0 59 4.5t70 12.5v-111q-16 -8 -36.5 -14t-42.5 -10t-42.5 -6.5t-36.5 -2.5q-65 0 -117 13.5t-88.5 41t-56 70t-19.5 101.5z" />
<glyph unicode="&#x174;" horiz-adv-x="2144" d="M1180 1448l256 -887q29 -102 51.5 -195.5t36.5 -164.5q15 74 34.5 155.5t47.5 180.5l180 632q3 12 7 27t7 30t5.5 28t2.5 22q0 53 -33.5 76.5t-101.5 23.5h-47v86h500v-86h-39q-30 0 -52.5 -6t-40.5 -23t-33 -48t-30 -82l-346 -1217h-184l-334 1147l-313 -1147h-189 l-375 1268q-10 32 -22.5 53t-29.5 33t-40 17t-53 5h-27v86h564v-86h-47q-62 0 -92.5 -23.5t-30.5 -74.5q0 -17 5 -35t11 -41l188 -655q26 -93 49 -182.5t40 -163.5q15 80 35.5 174.5t47.5 193.5l244 879h148zM838 1606q24 29 53 67t57.5 78.5t53.5 81t41 74.5h194 q16 -34 41 -74.5t53.5 -81t57.5 -78.5t53 -67v-27h-80q-59 34 -118 84.5t-105 99.5q-47 -49 -105 -99.5t-116 -84.5h-80v27z" />
<glyph unicode="&#x175;" horiz-adv-x="1765" d="M975 1092l205 -607q12 -37 25.5 -79.5t25.5 -84t22 -78.5t15 -63h6q9 51 29 125.5t51 173.5l102 330q8 26 13.5 55.5t5.5 46.5q0 53 -33.5 77t-102.5 24h-14v86h438v-86h-26q-30 0 -52 -6t-39.5 -23.5t-32.5 -48.5t-30 -82l-264 -852h-164l-244 721l-37 135l-290 -856 h-162l-268 903q-12 32 -25 53t-30 33.5t-39 17.5t-52 5h-6v86h506v-86h-27q-61 0 -92 -18t-31 -68q0 -17 5.5 -41t11.5 -47l96 -344q10 -37 21 -81t20.5 -87.5t17.5 -81.5t13 -64h6q5 26 13.5 60.5t20 74t24.5 80.5t26 78l213 619h129zM570 1268q24 29 53 67t57.5 78.5 t53.5 81t41 74.5h194q16 -34 41 -74.5t53.5 -81t57.5 -78.5t53 -67v-27h-80q-59 34 -118 84.5t-105 99.5q-47 -49 -105 -99.5t-116 -84.5h-80v27z" />
<glyph unicode="&#x176;" horiz-adv-x="1280" d="M326 0v86h47q34 0 64.5 4.5t53.5 18.5t36.5 41.5t13.5 72.5v387l-379 658q-17 29 -32 49.5t-31.5 33.5t-36.5 19t-46 6h-26v86h563v-86h-76q-28 0 -45.5 -5t-27.5 -14t-13.5 -21t-3.5 -25q0 -29 12.5 -58t24.5 -51l151 -274q36 -63 61 -124.5t42 -109.5q9 22 22.5 49 t30 57.5t34.5 63t36 64.5l131 235q20 35 28.5 66.5t8.5 56.5q0 45 -32 67.5t-91 22.5h-60v86h500v-86h-24q-22 0 -41.5 -7.5t-39.5 -26t-41.5 -49t-47.5 -76.5l-344 -607v-377q0 -48 13 -77t36 -44.5t53.5 -20.5t64.5 -5h48v-86h-637zM342 1606q24 29 53 67t57.5 78.5 t53.5 81t41 74.5h194q16 -34 41 -74.5t53.5 -81t57.5 -78.5t53 -67v-27h-80q-59 34 -118 84.5t-105 99.5q-47 -49 -105 -99.5t-116 -84.5h-80v27z" />
<glyph unicode="&#x177;" horiz-adv-x="1157" d="M1157 1098v-86h-6q-30 0 -51.5 -6.5t-39 -24.5t-32.5 -49t-33 -80l-311 -860q-36 -99 -68 -174t-67 -128.5t-76.5 -88.5t-94.5 -56t-122 -29t-160 -8h-18v97q104 0 179 31t129.5 85t91 127.5t61.5 159.5l-379 895q-14 32 -27 52.5t-29.5 33.5t-38 18t-51.5 5h-6v86h492 v-86h-6q-62 0 -92.5 -24t-30.5 -75q0 -17 3.5 -34.5t12.5 -40.5l150 -365q14 -35 29.5 -76.5t29 -82t24.5 -76.5t15 -62h6q11 45 30.5 109.5t45.5 138.5l137 399q9 25 13.5 48t4.5 40q0 53 -33.5 77t-101.5 24h-6v86h426zM303 1268q24 29 53 67t57.5 78.5t53.5 81t41 74.5 h194q16 -34 41 -74.5t53.5 -81t57.5 -78.5t53 -67v-27h-80q-59 34 -118 84.5t-105 99.5q-47 -49 -105 -99.5t-116 -84.5h-80v27z" />
<glyph unicode="&#x178;" horiz-adv-x="1280" d="M326 0v86h47q34 0 64.5 4.5t53.5 18.5t36.5 41.5t13.5 72.5v387l-379 658q-17 29 -32 49.5t-31.5 33.5t-36.5 19t-46 6h-26v86h563v-86h-76q-28 0 -45.5 -5t-27.5 -14t-13.5 -21t-3.5 -25q0 -29 12.5 -58t24.5 -51l151 -274q36 -63 61 -124.5t42 -109.5q9 22 22.5 49 t30 57.5t34.5 63t36 64.5l131 235q20 35 28.5 66.5t8.5 56.5q0 45 -32 67.5t-91 22.5h-60v86h500v-86h-24q-22 0 -41.5 -7.5t-39.5 -26t-41.5 -49t-47.5 -76.5l-344 -607v-377q0 -48 13 -77t36 -44.5t53.5 -20.5t64.5 -5h48v-86h-637zM359 1747q0 32 8 54t22 35.5t33 19.5 t41 6t41 -6t33.5 -19.5t22.5 -35.5t8 -54q0 -31 -8 -53t-22.5 -36t-33.5 -20t-41 -6q-45 0 -74.5 26t-29.5 89zM748 1747q0 32 8 54t22 35.5t33 19.5t41 6t41 -6t33.5 -19.5t22.5 -35.5t8 -54q0 -31 -8 -53t-22.5 -36t-33.5 -20t-41 -6q-45 0 -74.5 26t-29.5 89z" />
<glyph unicode="&#x179;" horiz-adv-x="1212" d="M1094 1378l-770 -1276h516q46 0 77 13.5t50 36.5t29 53.5t14 64.5l10 88h106l-10 -358h-1042v82l768 1278h-445q-45 0 -75.5 -13.5t-49.5 -36.5t-29 -53.5t-14 -64.5l-10 -88h-106l10 358h971v-84zM495 1606q23 29 47.5 67t48 78.5t45 81t37.5 74.5h219v-21 q-19 -27 -56 -67.5t-82 -84.5t-92.5 -85.5t-88.5 -69.5h-78v27z" />
<glyph unicode="&#x17a;" horiz-adv-x="1047" d="M696 117q36 0 59.5 14t39 37t25 53.5t16.5 63.5l10 47h86l-10 -332h-836v82l594 899h-320q-40 0 -66 -10.5t-42.5 -31.5t-27 -52t-21.5 -72l-2 -8h-86l20 291h785v-84l-596 -897h372zM428 1268q23 29 47.5 67t48 78.5t45 81t37.5 74.5h219v-21q-19 -27 -56 -67.5 t-82 -84.5t-92.5 -85.5t-88.5 -69.5h-78v27z" />
<glyph unicode="&#x17b;" horiz-adv-x="1212" d="M1094 1378l-770 -1276h516q46 0 77 13.5t50 36.5t29 53.5t14 64.5l10 88h106l-10 -358h-1042v82l768 1278h-445q-45 0 -75.5 -13.5t-49.5 -36.5t-29 -53.5t-14 -64.5l-10 -88h-106l10 358h971v-84zM520 1768q0 36 9 60t25 39t37 21t46 6q24 0 45 -6t37 -21t25.5 -39 t9.5 -60t-9.5 -60t-25.5 -39t-37 -21.5t-45 -6.5q-25 0 -46 6.5t-37 21.5t-25 39t-9 60z" />
<glyph unicode="&#x17c;" horiz-adv-x="1047" d="M696 117q36 0 59.5 14t39 37t25 53.5t16.5 63.5l10 47h86l-10 -332h-836v82l594 899h-320q-40 0 -66 -10.5t-42.5 -31.5t-27 -52t-21.5 -72l-2 -8h-86l20 291h785v-84l-596 -897h372zM428 1430q0 36 9 60t25 39t37 21t46 6q24 0 45 -6t37 -21t25.5 -39t9.5 -60t-9.5 -60 t-25.5 -39t-37 -21.5t-45 -6.5q-25 0 -46 6.5t-37 21.5t-25 39t-9 60z" />
<glyph unicode="&#x17d;" horiz-adv-x="1212" d="M1094 1378l-770 -1276h516q46 0 77 13.5t50 36.5t29 53.5t14 64.5l10 88h106l-10 -358h-1042v82l768 1278h-445q-45 0 -75.5 -13.5t-49.5 -36.5t-29 -53.5t-14 -64.5l-10 -88h-106l10 358h971v-84zM320 1907h80q29 -18 58.5 -40t58 -46.5t55 -50t49.5 -50.5 q23 25 49.5 50.5t55.5 50t59 46.5t59 40h80v-27q-24 -29 -53 -67t-57.5 -78.5t-53.5 -80.5t-41 -75h-194q-16 35 -41 75t-53.5 80.5t-57.5 78.5t-53 67v27z" />
<glyph unicode="&#x17e;" horiz-adv-x="1047" d="M696 117q36 0 59.5 14t39 37t25 53.5t16.5 63.5l10 47h86l-10 -332h-836v82l594 899h-320q-40 0 -66 -10.5t-42.5 -31.5t-27 -52t-21.5 -72l-2 -8h-86l20 291h785v-84l-596 -897h372zM247 1569h80q29 -18 58.5 -40t58 -46.5t55 -50t49.5 -50.5q23 25 49.5 50.5t55.5 50 t59 46.5t59 40h80v-27q-24 -29 -53 -67t-57.5 -78.5t-53.5 -80.5t-41 -75h-194q-16 35 -41 75t-53.5 80.5t-57.5 78.5t-53 67v27z" />
<glyph unicode="&#x17f;" horiz-adv-x="727" d="M27 0v86h26q35 0 65.5 5t53 20.5t36 44.5t13.5 77v967q0 92 25 162t72.5 118t114.5 72.5t151 24.5q80 0 134.5 -10.5t88.5 -29.5t48.5 -45t14.5 -58q0 -56 -46.5 -85.5t-121.5 -29.5q0 31 -6.5 60.5t-22 52.5t-41.5 37t-65 14q-87 0 -120 -67.5t-33 -196.5v-986 q0 -48 13 -77t36 -44.5t53.5 -20.5t65.5 -5h77v-86h-632z" />
<glyph unicode="&#x192;" horiz-adv-x="1145" d="M911 815h-268l-162 -831q-27 -138 -68.5 -229.5t-97.5 -146t-125.5 -77.5t-152.5 -23q-14 0 -30.5 1t-33 3.5t-31 5t-24.5 5.5l19 96q7 -2 18 -4t24 -4.5t26.5 -4t25.5 -1.5q50 0 89 20t70 65t55 117t44 175l162 833h-207l18 96h207l39 205q17 88 48 156t79 115t113 71.5 t149 24.5q131 0 197.5 -42t66.5 -110t-44 -100.5t-126 -32.5q0 39 -4 74t-15.5 61t-32 41t-52.5 15q-76 0 -117 -62.5t-65 -191.5l-43 -224h268z" />
<glyph unicode="&#x1a0;" horiz-adv-x="1593" d="M1290 1204q129 35 129 129q0 27 -44 60t-44 82q0 102 117 102q125 0 125 -129q0 -221 -248 -311q78 -175 78 -404q0 -350 -171.5 -551.5t-471.5 -201.5q-311 0 -478 199.5t-167 555.5q0 357 167.5 553.5t479.5 196.5q356 0 528 -281zM760 90q416 0 416 643 q0 641 -414 641q-420 0 -420 -641q0 -643 418 -643z" />
<glyph unicode="&#x1a1;" horiz-adv-x="1243" d="M987 913q127 35 127 129q0 27 -44 60t-44 82q0 102 117 102q125 0 125 -129q0 -216 -248 -309q49 -122 49 -297q0 -571 -481 -571q-475 0 -475 571q0 567 481 567q275 0 393 -205zM592 86q144 0 211 109t67 356q0 240 -66.5 349.5t-213.5 109.5t-213 -109.5t-66 -349.5 q0 -465 281 -465z" />
<glyph unicode="&#x1af;" horiz-adv-x="1593" d="M1243 418q0 -208 -131 -323t-371 -115q-516 0 -516 462v795q0 139 -168 139h-26v86h596v-86h-27q-168 0 -168 -147v-799q0 -328 342 -328q164 0 254 84.5t90 235.5v815q0 139 -168 139h-26v86h319v-270q176 28 176 141q0 27 -44 60t-44 82q0 102 117 102q125 0 125 -129 q0 -276 -330 -336v-694z" />
<glyph unicode="&#x1b0;" horiz-adv-x="1384" d="M1079 901q176 30 176 141q0 27 -44 60t-44 82q0 102 117 102q125 0 125 -129q0 -276 -330 -336v-598q0 -137 168 -137h6v-86h-325l-27 166h-10q-97 -186 -332 -186q-338 0 -338 401v491q0 140 -168 140h-6v86h367v-707q0 -280 215 -280q258 0 258 331v422q0 148 -168 148 h-6v86h366v-197zM1300 0z" />
<glyph unicode="&#x1f0;" horiz-adv-x="614" d="M414 1098v-1114q0 -138 -30 -229.5t-84 -146t-128.5 -77.5t-163.5 -23h-33v97h15q55 0 98 18.5t72.5 62t45 116t15.5 180.5v890q0 45 -13.5 72.5t-36.5 42.5t-53.5 20t-64.5 5h-6v86h367zM-13 1569h80q29 -18 58.5 -40t58 -46.5t55 -50t49.5 -50.5q23 25 49.5 50.5 t55.5 50t59 46.5t59 40h80v-27q-24 -29 -53 -67t-57.5 -78.5t-53.5 -80.5t-41 -75h-194q-16 35 -41 75t-53.5 80.5t-57.5 78.5t-53 67v27z" />
<glyph unicode="&#x1fa;" horiz-adv-x="1444" d="M969 1438q0 -76 -35 -126t-94 -75l432 -1053q12 -29 24.5 -48t29.5 -30t39 -15.5t52 -4.5h27v-86h-563v86h47q123 0 123 90q0 16 -4.5 31t-12.5 37l-82 200h-538l-78 -188q-9 -22 -14 -43t-5 -35q0 -92 136 -92h47v-86h-500v86h39q30 0 51 6t38 22t32.5 44.5t34.5 72.5 l419 1002q-62 23 -99.5 74.5t-37.5 130.5q0 54 19 96t52.5 70t78.5 42.5t96 14.5t96 -14.5t78.5 -42.5t52.5 -70t19 -96zM788 870q-30 82 -57.5 153.5t-44.5 139.5q-8 -32 -17.5 -63t-21 -64t-25 -69.5t-30.5 -79.5l-133 -340h450zM858 1438q0 33 -10.5 56.5t-29 38 t-43 21.5t-52.5 7t-52.5 -7t-43 -21.5t-29 -38t-10.5 -56.5t10.5 -56.5t29 -38t43 -21.5t52.5 -7t52.5 7t43 21.5t29 38t10.5 56.5zM637 1720q22 24 46.5 54.5t48.5 63t45.5 64.5t37.5 60h219v-16q-19 -22 -56 -54.5t-82 -68t-92.5 -68.5t-88.5 -55h-78v20z" />
<glyph unicode="&#x1fb;" horiz-adv-x="1153" d="M477 1720q23 24 47.5 54.5t48 63t45 64.5t37.5 60h219v-16q-19 -22 -56 -54.5t-82 -68t-92.5 -68.5t-88.5 -55h-78v20zM301 297q0 -96 40.5 -143.5t125.5 -47.5q62 0 112.5 20t86 57t54.5 90t19 118v166l-131 -6q-87 -4 -145.5 -21.5t-94.5 -49t-51.5 -77.5t-15.5 -106z M549 1016q-59 0 -95.5 -16.5t-57 -46.5t-27.5 -71t-7 -89q-85 0 -129.5 29t-44.5 100q0 53 29 90t79.5 60.5t117.5 34.5t143 11q94 0 164 -18.5t117 -60.5t70.5 -109.5t23.5 -165.5v-531q0 -43 7 -71t22 -45t39.5 -24t58.5 -7h6v-86h-277l-32 176h-17q-32 -43 -62 -79 t-66 -62t-81.5 -40.5t-109.5 -14.5q-68 0 -126.5 19.5t-101 60t-66.5 102t-24 145.5q0 163 116 242t351 86l170 6v123q0 55 -6 101.5t-26 80t-57.5 52t-100.5 18.5zM819 1417q0 -54 -19 -96t-52 -70t-78 -42.5t-97 -14.5q-51 0 -96 14.5t-78 42.5t-52 70t-19 96 q0 55 19 96.5t52 69.5t78 42.5t96 14.5q52 0 97 -14.5t78 -42.5t52 -69.5t19 -96.5zM709 1417q0 33 -11 56.5t-29.5 38t-43 21.5t-52.5 7q-27 0 -51.5 -7t-43 -21.5t-29.5 -38t-11 -56.5t11 -56.5t29.5 -38t43 -21.5t51.5 -7q28 0 52.5 7t43 21.5t29.5 38t11 56.5z" />
<glyph unicode="&#x1fc;" horiz-adv-x="1948" d="M1151 102h395q48 0 82.5 13.5t57.5 36.5t36 53.5t19 64.5l14 88h107l-15 -358h-1097v86h26q34 0 64 4.5t52.5 18.5t36.5 41.5t15 72.5v266h-471l-113 -215q-17 -32 -24.5 -61t-7.5 -47q0 -42 31.5 -61t91.5 -19h47v-86h-498v86h33q54 0 96.5 38t85.5 122l592 1120 l-160 10v86h1135l10 -358h-106l-11 88q-4 34 -15 64t-32.5 52.5t-54 36.5t-78.5 15h-344v-545h494v-100h-494v-613zM849 1221q-41 -83 -92.5 -183.5t-110.5 -214.5t-120 -231h418v768h-29q-25 -56 -66 -139zM1073 1606q23 29 47.5 67t48 78.5t45 81t37.5 74.5h219v-21 q-19 -27 -56 -67.5t-82 -84.5t-92.5 -85.5t-88.5 -69.5h-78v27z" />
<glyph unicode="&#x1fd;" horiz-adv-x="1722" d="M301 297q0 -96 40.5 -143.5t125.5 -47.5q62 0 112.5 20t86 57t54.5 90t19 118v123v27v16l-131 -6q-87 -4 -145.5 -21.5t-94.5 -49t-51.5 -77.5t-15.5 -106zM1190 1008q-115 0 -176 -92.5t-72 -270.5h471q0 81 -12 148t-38 115t-68.5 74t-104.5 26zM1221 -20 q-150 0 -254.5 59t-161.5 174q-19 -46 -53 -88t-82.5 -74.5t-111 -51.5t-138.5 -19q-68 0 -126.5 19.5t-101 60t-66.5 102t-24 145.5q0 163 116 242t351 86l170 6v123q0 55 -6 101.5t-26 80t-57.5 52t-100.5 18.5q-59 0 -95.5 -16.5t-57 -46.5t-27.5 -71t-7 -89 q-85 0 -129.5 29t-44.5 100q0 53 29 90t79.5 60.5t117.5 34.5t143 11q116 0 195.5 -29.5t124.5 -95.5q114 125 317 125q99 0 178 -31t134 -92.5t84.5 -153t29.5 -212.5v-94h-682q2 -112 21.5 -192.5t58 -132.5t97.5 -76.5t140 -24.5q45 0 87 11t78.5 30.5t66 45.5t49.5 56 q14 -6 26.5 -25t12.5 -45q0 -31 -22 -66.5t-66 -65.5t-110.5 -50t-155.5 -20zM764 1268q23 29 47.5 67t48 78.5t45 81t37.5 74.5h219v-21q-19 -27 -56 -67.5t-82 -84.5t-92.5 -85.5t-88.5 -69.5h-78v27z" />
<glyph unicode="&#x1fe;" horiz-adv-x="1520" d="M1163 1354q118 -97 179 -255t61 -366q0 -169 -42 -308t-124 -238t-202 -153t-275 -54q-93 0 -172.5 17.5t-145.5 51.5l-71 -131h-121l104 188q-121 98 -180 258.5t-59 370.5q0 170 40 308.5t120 236.5t202 151.5t285 53.5q91 0 169 -19.5t144 -54.5l76 135h119zM342 733 q0 -155 22.5 -273t73.5 -202l572 1034q-94 82 -248 82q-114 0 -194 -43t-130.5 -125t-73 -201.5t-22.5 -271.5zM1176 733q0 153 -22.5 271.5t-72.5 201.5l-571 -1036q95 -80 250 -80q114 0 193.5 43.5t129 126t71.5 202t22 271.5zM649 1606q23 29 47.5 67t48 78.5t45 81 t37.5 74.5h219v-21q-19 -27 -56 -67.5t-82 -84.5t-92.5 -85.5t-88.5 -69.5h-78v27z" />
<glyph unicode="&#x1ff;" d="M930 991q68 -69 103.5 -178.5t35.5 -261.5q0 -289 -122.5 -430t-358.5 -141q-71 0 -133 14t-113 43l-74 -119h-121l111 180q-71 72 -108 183.5t-37 269.5q0 287 121.5 427t359.5 140q74 0 137.5 -16t116.5 -47l78 125h118zM311 551q0 -94 10 -169t31 -132l424 686 q-68 74 -186 74q-77 0 -130 -29t-86 -86.5t-48 -143.5t-15 -200zM870 551q0 177 -36 285l-422 -684q32 -32 76.5 -49t103.5 -17q77 0 130 30t86 88.5t47.5 145.5t14.5 201zM471 1268q23 29 47.5 67t48 78.5t45 81t37.5 74.5h219v-21q-19 -27 -56 -67.5t-82 -84.5 t-92.5 -85.5t-88.5 -69.5h-78v27z" />
<glyph unicode="&#x218;" horiz-adv-x="1114" d="M506 -20q-100 0 -176.5 21t-128 58.5t-77.5 91t-26 117.5q0 62 38.5 100t109.5 38q3 -64 19.5 -123t49.5 -104t84 -72t123 -27q138 0 215.5 66.5t77.5 191.5q0 56 -16 99t-53 79.5t-97.5 70t-150.5 70.5q-95 39 -166 83.5t-118 99t-70 121.5t-23 151q0 88 33.5 157 t93.5 116.5t142 72.5t179 25q92 0 163 -19t120 -51t74.5 -73.5t25.5 -86.5q0 -66 -43.5 -99.5t-117.5 -33.5q0 48 -11.5 94.5t-38.5 83t-71 59.5t-109 23q-59 0 -105.5 -16.5t-78.5 -47t-49 -73.5t-17 -96q0 -61 16 -107.5t53.5 -84t98.5 -71t150 -69.5q90 -37 160.5 -78 t119.5 -91.5t75 -113t26 -141.5q0 -97 -35.5 -173.5t-101.5 -129.5t-159 -80.5t-208 -27.5zM418 -426q17 68 33 147.5t29 153.5h178v-20q-14 -32 -34 -72t-43.5 -82t-47.5 -82t-45 -72h-70v27z" />
<glyph unicode="&#x219;" horiz-adv-x="924" d="M430 -20q-77 0 -139.5 13.5t-106.5 41t-68 68t-24 94.5q0 41 13.5 68.5t33 43.5t42 22.5t40.5 6.5q0 -54 11 -101t37 -82.5t68.5 -56t104.5 -20.5q55 0 97 13.5t70.5 38t43.5 59t15 75.5q0 38 -11.5 65.5t-40 51.5t-77.5 49t-123 57q-79 35 -137.5 67.5t-96.5 70.5 t-57 86.5t-19 115.5q0 70 27.5 124t78.5 90.5t122 55.5t158 19q73 0 129 -15t94 -40.5t57 -60t19 -72.5q0 -56 -38.5 -89.5t-109.5 -33.5q0 103 -42.5 160t-133.5 57q-52 0 -89 -12t-60.5 -34t-34.5 -52t-11 -66q0 -39 14 -67.5t44.5 -52.5t79 -46.5t116.5 -50.5 q81 -34 139 -67t95.5 -72t55.5 -88t18 -113q0 -80 -29 -140t-82 -100.5t-127.5 -60.5t-165.5 -20zM320 -426q17 68 33 147.5t29 153.5h178v-20q-14 -32 -34 -72t-43.5 -82t-47.5 -82t-45 -72h-70v27z" />
<glyph unicode="&#x21a;" horiz-adv-x="1255" d="M729 233q0 -48 13.5 -77t36 -44.5t53.5 -20.5t65 -5h47v-86h-637v86h47q34 0 64.5 4.5t53.5 18.5t36.5 41.5t13.5 72.5v1137h-196q-45 0 -75.5 -13.5t-50 -36.5t-29 -53.5t-13.5 -64.5l-11 -88h-106l10 358h1153l10 -358h-106l-10 88q-4 34 -14 64.5t-29 53.5t-50 36.5 t-77 13.5h-199v-1127zM475 -426q17 68 33 147.5t29 153.5h178v-20q-14 -32 -34 -72t-43.5 -82t-47.5 -82t-45 -72h-70v27z" />
<glyph unicode="&#x21b;" horiz-adv-x="721" d="M543 88q37 0 68 4t63 10v-90q-13 -6 -34 -12t-45.5 -10.5t-51.5 -7t-51 -2.5q-78 0 -134 16.5t-92 53.5t-53.5 98t-17.5 149v684h-156v82q37 0 81.5 15t78.5 50q35 38 56.5 90.5t37.5 131.5h94v-252h268v-117h-268v-690q0 -105 42.5 -154t113.5 -49zM267 -426 q17 68 33 147.5t29 153.5h178v-20q-14 -32 -34 -72t-43.5 -82t-47.5 -82t-45 -72h-70v27z" />
<glyph unicode="&#x237;" horiz-adv-x="614" d="M414 1098v-1114q0 -138 -30 -229.5t-84 -146t-128.5 -77.5t-163.5 -23h-33v97h15q55 0 98 18.5t72.5 62t45 116t15.5 180.5v890q0 45 -13.5 72.5t-36.5 42.5t-53.5 20t-64.5 5h-6v86h367z" />
<glyph unicode="&#x2bc;" horiz-adv-x="512" d="M397 1284q0 -65 -18 -126t-58.5 -113t-104 -93.5t-155.5 -68.5v86q101 32 148 78t47 106q0 20 -11 33.5t-28 24t-36 20.5t-36 24t-28 34.5t-11 51.5q0 59 38.5 90t95.5 31q32 0 60 -11.5t50 -34t34.5 -56t12.5 -76.5z" />
<glyph unicode="&#x2c6;" d="M289 1268q24 29 53 67t57.5 78.5t53.5 81t41 74.5h194q16 -34 41 -74.5t53.5 -81t57.5 -78.5t53 -67v-27h-80q-59 34 -118 84.5t-105 99.5q-47 -49 -105 -99.5t-116 -84.5h-80v27z" />
<glyph unicode="&#x2c7;" d="M289 1569h80q29 -18 58.5 -40t58 -46.5t55 -50t49.5 -50.5q23 25 49.5 50.5t55.5 50t59 46.5t59 40h80v-27q-24 -29 -53 -67t-57.5 -78.5t-53.5 -80.5t-41 -75h-194q-16 35 -41 75t-53.5 80.5t-57.5 78.5t-53 67v27z" />
<glyph unicode="&#x2c9;" horiz-adv-x="1024" d="M809 1241h-594v121h594v-121z" />
<glyph unicode="&#x2d8;" d="M590 1241q-73 0 -126.5 22.5t-88.5 60.5t-52.5 89t-19.5 109h94q17 -75 67 -107.5t126 -32.5q75 0 125 32.5t67 107.5h95q-2 -58 -19.5 -109t-53 -89t-88.5 -60.5t-126 -22.5z" />
<glyph unicode="&#x2d9;" horiz-adv-x="666" d="M223 1430q0 36 9 60t25 39t37 21t46 6q24 0 45 -6t37 -21t25.5 -39t9.5 -60t-9.5 -60t-25.5 -39t-37 -21.5t-45 -6.5q-25 0 -46 6.5t-37 21.5t-25 39t-9 60z" />
<glyph unicode="&#x2da;" horiz-adv-x="682" d="M586 1444q0 -55 -19 -96.5t-52.5 -69.5t-78.5 -42.5t-96 -14.5t-96 14.5t-78.5 42.5t-52.5 69.5t-19 96.5q0 54 19 96t52.5 70t78.5 42.5t96 14.5t96 -14.5t78.5 -42.5t52.5 -70t19 -96zM475 1444q0 33 -10.5 56.5t-29 38t-43 21.5t-52.5 7t-52.5 -7t-43 -21.5t-29 -38 t-10.5 -56.5t10.5 -56.5t29 -38t43 -21.5t52.5 -7t52.5 7t43 21.5t29 38t10.5 56.5z" />
<glyph unicode="&#x2db;" horiz-adv-x="1024" d="M352 -266q0 48 20 91t54 78.5t77.5 60.5t90.5 36h117q-32 -10 -66 -30t-61.5 -49.5t-45.5 -68.5t-18 -88q0 -34 10.5 -58.5t29.5 -40t45 -23t57 -7.5q27 0 59 4.5t70 12.5v-111q-16 -8 -36.5 -14t-42.5 -10t-42.5 -6.5t-36.5 -2.5q-65 0 -117 13.5t-88.5 41t-56 70 t-19.5 101.5z" />
<glyph unicode="&#x2dc;" d="M762 1374q30 0 48.5 9t29 24.5t15 35t7.5 40.5h92q-3 -47 -16.5 -90.5t-39.5 -77.5t-65 -54t-94 -20t-99.5 20t-83 44.5t-72 44.5t-66.5 20q-31 0 -49 -9t-28.5 -24t-15.5 -34.5t-8 -40.5h-92q3 47 16.5 90t40 77t66 54t94.5 20t99.5 -20t83 -44.5t72 -44.5t65.5 -20z " />
<glyph unicode="&#x2dd;" d="M209 1241v27q21 33 45 71t47.5 78t44.5 79t37 73h219v-21q-11 -18 -30.5 -42.5t-44.5 -52.5t-53.5 -57.5t-57.5 -57.5t-56.5 -53t-50.5 -44h-100zM578 1241v27q21 33 45 71t47.5 78t44.5 79t37 73h219v-21q-11 -18 -30.5 -42.5t-44.5 -52.5t-53.5 -57.5t-57.5 -57.5 t-56.5 -53t-50.5 -44h-100z" />
<glyph unicode="&#x2f3;" horiz-adv-x="682" d="M586 -348q0 -55 -19 -96.5t-52.5 -69.5t-78.5 -42.5t-96 -14.5t-96 14.5t-78.5 42.5t-52.5 69.5t-19 96.5q0 54 19 96t52.5 70t78.5 42.5t96 14.5t96 -14.5t78.5 -42.5t52.5 -70t19 -96zM475 -348q0 33 -10.5 56.5t-29 38t-43 21.5t-52.5 7t-52.5 -7t-43 -21.5t-29 -38 t-10.5 -56.5t10.5 -56.5t29 -38t43 -21.5t52.5 -7t52.5 7t43 21.5t29 38t10.5 56.5z" />
<glyph unicode="&#x300;" horiz-adv-x="0" d="M-482 1241h-78q-41 28 -89 69.5t-93 85.5t-82 84.5t-56 67.5v21h219q16 -34 37.5 -74.5t45.5 -81t49 -78.5t47 -67v-27z" />
<glyph unicode="&#x301;" horiz-adv-x="0" d="M-700 1268q23 29 47.5 67t48 78.5t45 81t37.5 74.5h219v-21q-19 -27 -56 -67.5t-82 -84.5t-92.5 -85.5t-88.5 -69.5h-78v27z" />
<glyph unicode="&#x303;" horiz-adv-x="0" d="M-478 1374q30 0 48.5 9t29 24.5t15 35t7.5 40.5h92q-3 -47 -16.5 -90.5t-39.5 -77.5t-65 -54t-94 -20t-99.5 20t-83 44.5t-72 44.5t-66.5 20q-31 0 -49 -9t-28.5 -24t-15.5 -34.5t-8 -40.5h-92q3 47 16.5 90t40 77t66 54t94.5 20t99.5 -20t83 -44.5t72 -44.5t65.5 -20z " />
<glyph unicode="&#x309;" horiz-adv-x="0" d="M-569 1327l-11 -119h-102l-14 185q174 18 174 108q0 76 -103 76q-96 0 -163 -82q-41 19 -41 76q0 108 208 108q242 0 242 -168q0 -150 -190 -184z" />
<glyph unicode="&#x30f;" horiz-adv-x="0" d="M-326 1241h-100q-160 134 -272 307v21h198q80 -168 174 -301v-27zM-688 1241h-100q-161 135 -273 307v21h199q80 -168 174 -301v-27z" />
<glyph unicode="&#x323;" horiz-adv-x="0" d="M-612 -121q116 0 116 -127t-116 -127q-117 0 -117 127t117 127z" />
<glyph unicode="&#x384;" d="M504 1268q12 27 24.5 65.5t24 79.5t21 82t14.5 74h184v-21q-6 -24 -28 -64t-51.5 -84.5t-62 -87t-59.5 -71.5h-67v27z" />
<glyph unicode="&#x385;" d="M276 1395q0 54 28 78t69 24q19 0 36.5 -6t30.5 -18.5t21 -31.5t8 -46q0 -53 -29 -78t-67 -25q-41 0 -69 25t-28 78zM713 1395q0 54 28 78t68 24q19 0 36.5 -6t30.5 -18.5t21 -31.5t8 -46q0 -53 -29 -78t-67 -25q-40 0 -68 25t-28 78zM518 1415q12 28 24.5 66t24.5 79.5 t21.5 82t13.5 73.5h184v-20q-6 -25 -28 -65t-51.5 -84.5t-61.5 -86.5t-59 -71h-68v26z" />
<glyph unicode="&#x386;" horiz-adv-x="1444" d="M414 489l-78 -215q-9 -24 -14 -47.5t-5 -40.5q0 -52 33.5 -76t102.5 -24h47v-86h-500v86h39q30 0 51 6.5t38 24.5t32.5 49t34.5 80l454 1216h160l463 -1267q12 -32 24.5 -53t29.5 -33.5t39 -17.5t52 -5h27v-86h-563v86h47q123 0 123 98q0 17 -4.5 35t-12.5 41l-82 229 h-538zM788 950q-32 91 -58.5 170.5t-43.5 153.5q-7 -37 -16.5 -71.5t-20.5 -70.5t-25 -75.5t-32 -87.5l-139 -377h462zM145 1163q12 27 24.5 65.5t24 79.5t21 82t14.5 74h184v-21q-6 -24 -28 -64t-51.5 -84.5t-62 -87t-59.5 -71.5h-67v27z" />
<glyph unicode="&#x387;" horiz-adv-x="549" d="M147 723q0 38 10 64.5t27 43t40 24t50 7.5q26 0 49.5 -7.5t40.5 -24t27 -43t10 -64.5q0 -37 -10 -63t-27 -43t-40.5 -25t-49.5 -8q-27 0 -50 8t-40 25t-27 43t-10 63z" />
<glyph unicode="&#x388;" horiz-adv-x="1442" d="M645 102h395q49 0 83.5 13.5t57.5 36.5t36 53.5t18 64.5l14 88h107l-14 -358h-1098v86h26q34 0 64.5 4.5t53.5 18.5t36.5 41.5t13.5 72.5v1006q0 48 -13 77t-36 44.5t-53.5 20.5t-65.5 5h-26v86h1032l10 -358h-106l-10 88q-4 34 -15.5 64.5t-33 53.5t-54 36.5t-78.5 13.5 h-344v-545h494v-100h-494v-613zM-68 1163q12 27 24.5 65.5t24 79.5t21 82t14.5 74h184v-21q-6 -24 -28 -64t-51.5 -84.5t-62 -87t-59.5 -71.5h-67v27z" />
<glyph unicode="&#x389;" horiz-adv-x="1786" d="M1112 0v86h27q35 0 65.5 5t53 20.5t36 44.5t13.5 77v480h-666v-480q0 -48 13.5 -77t36 -44.5t53.5 -20.5t65 -5h27v-86h-596v86h26q35 0 65.5 5t53.5 20.5t36 44.5t13 77v1004q0 45 -13.5 72.5t-36.5 42.5t-53.5 19.5t-64.5 4.5h-26v86h596v-86h-27q-34 0 -65 -5 t-53.5 -20.5t-36 -44.5t-13.5 -77v-414h666v414q0 48 -13.5 77t-36 44.5t-53 20.5t-65.5 5h-27v86h596v-86h-26q-35 0 -65.5 -5t-53.5 -20.5t-36 -44.5t-13 -77v-1006q0 -45 13.5 -72.5t36.5 -41.5t53.5 -18.5t64.5 -4.5h26v-86h-596zM-68 1163q12 27 24.5 65.5t24 79.5 t21 82t14.5 74h184v-21q-6 -24 -28 -64t-51.5 -84.5t-62 -87t-59.5 -71.5h-67v27z" />
<glyph unicode="&#x38a;" horiz-adv-x="913" d="M240 0v86h26q35 0 65.5 5t53.5 20.5t36 44.5t13 77v996q0 48 -13 77t-36 44.5t-53.5 20.5t-65.5 5h-26v86h596v-86h-27q-34 0 -65 -5t-53.5 -20.5t-36 -44.5t-13.5 -77v-996q0 -48 13.5 -77t36 -44.5t53.5 -20.5t65 -5h27v-86h-596zM-68 1163q12 27 24.5 65.5t24 79.5 t21 82t14.5 74h184v-21q-6 -24 -28 -64t-51.5 -84.5t-62 -87t-59.5 -71.5h-67v27z" />
<glyph unicode="&#x38c;" horiz-adv-x="1520" d="M1403 733q0 -169 -42 -308t-124 -238t-202 -153t-275 -54q-163 0 -284 54t-201 153t-120 238.5t-40 309.5t40 308.5t120 236.5t202 151.5t285 53.5q155 0 274 -53.5t201 -152t124 -237t42 -309.5zM342 733q0 -152 22.5 -271.5t72.5 -202t129.5 -126t193.5 -43.5 t193.5 43.5t129 126t71.5 202t22 271.5t-22 271.5t-71.5 201.5t-128 125t-192.5 43t-194 -43t-130.5 -125t-73 -201.5t-22.5 -271.5zM-68 1163q12 27 24.5 65.5t24 79.5t21 82t14.5 74h184v-21q-6 -24 -28 -64t-51.5 -84.5t-62 -87t-59.5 -71.5h-67v27z" />
<glyph unicode="&#x38e;" horiz-adv-x="1530" d="M576 0v86h47q34 0 64.5 4.5t53.5 18.5t36.5 41.5t13.5 72.5v387l-379 658q-17 29 -32 49.5t-31.5 33.5t-36.5 19t-46 6h-26v86h563v-86h-76q-28 0 -45.5 -5t-27.5 -14t-13.5 -21t-3.5 -25q0 -29 12.5 -58t24.5 -51l151 -274q36 -63 61 -124.5t42 -109.5q9 22 22.5 49 t30 57.5t34.5 63t36 64.5l131 235q20 35 28.5 66.5t8.5 56.5q0 45 -32 67.5t-91 22.5h-60v86h500v-86h-24q-22 0 -41.5 -7.5t-39.5 -26t-41.5 -49t-47.5 -76.5l-344 -607v-377q0 -48 13 -77t36 -44.5t53.5 -20.5t64.5 -5h48v-86h-637zM-68 1163q12 27 24.5 65.5t24 79.5 t21 82t14.5 74h184v-21q-6 -24 -28 -64t-51.5 -84.5t-62 -87t-59.5 -71.5h-67v27z" />
<glyph unicode="&#x38f;" horiz-adv-x="1542" d="M127 897q0 133 40 241.5t120 185.5t202 119t285 42q155 0 274 -42t201 -119t124 -185.5t42 -241.5q0 -226 -119 -367t-346 -186l-4 -180h195q48 0 82 7t56.5 22.5t35.5 39.5t20 58l15 67h106l-14 -358h-608l14 428q93 10 158 46.5t105.5 96.5t58.5 142.5t18 185.5 q0 113 -22 201.5t-71.5 149t-128 92.5t-192.5 32t-194 -32t-130.5 -92.5t-73 -149t-22.5 -201.5q0 -103 18.5 -185.5t59 -142.5t105 -96.5t157.5 -46.5l15 -428h-609l-14 358h107l14 -67q7 -34 20 -58t35.5 -39.5t56.5 -22.5t82 -7h195l-4 180q-227 45 -346 186t-119 367z M-68 1163q12 27 24.5 65.5t24 79.5t21 82t14.5 74h184v-21q-6 -24 -28 -64t-51.5 -84.5t-62 -87t-59.5 -71.5h-67v27z" />
<glyph unicode="&#x390;" horiz-adv-x="684" d="M393 1098v-807q0 -105 42.5 -154t113.5 -49q37 0 68 4t63 10v-90q-13 -6 -34 -12t-45.5 -10.5t-51.5 -7t-51 -2.5q-78 0 -134 16.5t-92 53.5t-53.5 98t-17.5 149v801h192zM5 1395q0 54 28 78t69 24q19 0 36.5 -6t30.5 -18.5t21 -31.5t8 -46q0 -53 -29 -78t-67 -25 q-41 0 -69 25t-28 78zM442 1395q0 54 28 78t68 24q19 0 36.5 -6t30.5 -18.5t21 -31.5t8 -46q0 -53 -29 -78t-67 -25q-40 0 -68 25t-28 78zM247 1415q12 28 24.5 66t24.5 79.5t21.5 82t13.5 73.5h184v-20q-6 -25 -28 -65t-51.5 -84.5t-61.5 -86.5t-59 -71h-68v26z" />
<glyph unicode="&#x391;" horiz-adv-x="1444" d="M414 489l-78 -215q-9 -24 -14 -47.5t-5 -40.5q0 -52 33.5 -76t102.5 -24h47v-86h-500v86h39q30 0 51 6.5t38 24.5t32.5 49t34.5 80l454 1216h160l463 -1267q12 -32 24.5 -53t29.5 -33.5t39 -17.5t52 -5h27v-86h-563v86h47q123 0 123 98q0 17 -4.5 35t-12.5 41l-82 229 h-538zM788 950q-32 91 -58.5 170.5t-43.5 153.5q-7 -37 -16.5 -71.5t-20.5 -70.5t-25 -75.5t-32 -87.5l-139 -377h462z" />
<glyph unicode="&#x392;" horiz-adv-x="1339" d="M1153 1096q0 -69 -19.5 -121t-53.5 -91t-80.5 -65.5t-100.5 -44.5v-8q70 -12 128 -41t99.5 -75.5t64.5 -110t23 -144.5q0 -198 -130 -296.5t-396 -98.5h-610v86h26q35 0 65.5 5t53.5 20.5t36 44.5t13 77v1004q0 45 -13.5 72.5t-36.5 42.5t-53.5 19.5t-64.5 4.5h-26v86 h549q266 0 396 -88.5t130 -277.5zM479 102h199q87 0 147 16t98 51.5t55 92.5t17 139q0 80 -15 139t-51.5 98t-96.5 58t-150 19h-203v-613zM479 817h142q90 0 150 16t96 49.5t51.5 86.5t15.5 127q0 75 -17 125.5t-55 81.5t-98.5 44t-147.5 13h-137v-543z" />
<glyph unicode="&#x393;" horiz-adv-x="1149" d="M715 0h-637v86h26q35 0 65.5 5t53.5 20.5t36 44.5t13 77v996q0 48 -13 77t-36 44.5t-53.5 20.5t-65.5 5h-26v86h1018l12 -358h-107l-8 72q-5 43 -15.5 77t-32.5 58t-59.5 36.5t-97.5 12.5h-309v-1135q0 -45 13.5 -72.5t36.5 -42.5t53.5 -19.5t64.5 -4.5h68v-86z" />
<glyph unicode="&#x394;" horiz-adv-x="1245" d="M1182 0h-1119v109l480 1353h178l461 -1339v-123zM954 137l-264 803q-31 91 -58 175.5t-44 158.5q-16 -73 -38 -147t-56 -169l-289 -821h749z" />
<glyph unicode="&#x395;" horiz-adv-x="1276" d="M479 102h395q49 0 83.5 13.5t57.5 36.5t36 53.5t18 64.5l14 88h107l-14 -358h-1098v86h26q34 0 64.5 4.5t53.5 18.5t36.5 41.5t13.5 72.5v1006q0 48 -13 77t-36 44.5t-53.5 20.5t-65.5 5h-26v86h1032l10 -358h-106l-10 88q-4 34 -15.5 64.5t-33 53.5t-54 36.5t-78.5 13.5 h-344v-545h494v-100h-494v-613z" />
<glyph unicode="&#x396;" horiz-adv-x="1212" d="M1094 1378l-770 -1276h516q46 0 77 13.5t50 36.5t29 53.5t14 64.5l10 88h106l-10 -358h-1042v82l768 1278h-445q-45 0 -75.5 -13.5t-49.5 -36.5t-29 -53.5t-14 -64.5l-10 -88h-106l10 358h971v-84z" />
<glyph unicode="&#x397;" horiz-adv-x="1624" d="M950 0v86h27q35 0 65.5 5t53 20.5t36 44.5t13.5 77v480h-666v-480q0 -48 13.5 -77t36 -44.5t53.5 -20.5t65 -5h27v-86h-596v86h26q35 0 65.5 5t53.5 20.5t36 44.5t13 77v1004q0 45 -13.5 72.5t-36.5 42.5t-53.5 19.5t-64.5 4.5h-26v86h596v-86h-27q-34 0 -65 -5 t-53.5 -20.5t-36 -44.5t-13.5 -77v-414h666v414q0 48 -13.5 77t-36 44.5t-53 20.5t-65.5 5h-27v86h596v-86h-26q-35 0 -65.5 -5t-53.5 -20.5t-36 -44.5t-13 -77v-1006q0 -45 13.5 -72.5t36.5 -41.5t53.5 -18.5t64.5 -4.5h26v-86h-596z" />
<glyph unicode="&#x398;" horiz-adv-x="1520" d="M551 930l10 -39q6 -22 16.5 -39.5t29 -29.5t48.5 -18.5t76 -6.5h51q82 0 122.5 25.5t51.5 68.5l11 39h86v-369h-86l-11 39q-11 43 -51.5 68.5t-122.5 25.5h-51q-46 0 -76 -6.5t-48.5 -18.5t-29 -29.5t-16.5 -39.5l-10 -39h-86v369h86zM1403 733q0 -169 -42 -308 t-124 -238t-202 -153t-275 -54q-163 0 -284 54t-201 153t-120 238.5t-40 309.5t40 308.5t120 236.5t202 151.5t285 53.5q155 0 274 -53.5t201 -152t124 -237t42 -309.5zM342 733q0 -152 22.5 -271.5t72.5 -202t129.5 -126t193.5 -43.5t193.5 43.5t129 126t71.5 202t22 271.5 t-22 271.5t-71.5 201.5t-128 125t-192.5 43t-194 -43t-130.5 -125t-73 -201.5t-22.5 -271.5z" />
<glyph unicode="&#x399;" horiz-adv-x="752" d="M78 0v86h26q35 0 65.5 5t53.5 20.5t36 44.5t13 77v996q0 48 -13 77t-36 44.5t-53.5 20.5t-65.5 5h-26v86h596v-86h-27q-34 0 -65 -5t-53.5 -20.5t-36 -44.5t-13.5 -77v-996q0 -48 13.5 -77t36 -44.5t53.5 -20.5t65 -5h27v-86h-596z" />
<glyph unicode="&#x39a;" horiz-adv-x="1434" d="M903 1137q33 38 55 67.5t34.5 53.5t18 42t5.5 33q0 26 -25 35.5t-76 9.5v84h453v-84q-35 0 -67.5 -13.5t-65 -38t-67 -60t-74.5 -80.5l-297 -334l432 -602q59 -81 113.5 -122.5t111.5 -41.5h4v-86h-22q-103 0 -169 8t-111 29t-78.5 56.5t-71.5 90.5l-353 506l-174 -141 v-316q0 -48 13.5 -77t36 -44.5t53.5 -20.5t65 -5h27v-86h-596v86h26q34 0 64.5 4.5t53.5 18.5t36.5 41.5t13.5 72.5v1014q0 45 -13.5 72.5t-36.5 42.5t-53.5 19.5t-64.5 4.5h-26v86h596v-86h-27q-34 0 -65 -5t-53.5 -20.5t-36 -44.5t-13.5 -77v-578z" />
<glyph unicode="&#x39b;" horiz-adv-x="1382" d="M770 1462l442 -1267q11 -32 24 -53t30 -33.5t39.5 -17.5t52.5 -5h26v-86h-563v86h47q123 0 123 98q0 17 -4 35t-12 41l-225 672q-31 91 -53.5 173t-39.5 157q-15 -75 -38.5 -154.5t-55.5 -175.5l-225 -658q-8 -24 -13.5 -47.5t-5.5 -40.5q0 -52 34 -76t102 -24h47v-86 h-500v86h39q30 0 52 6.5t39.5 24t32.5 48.5t32 81l424 1216h149z" />
<glyph unicode="&#x39c;" horiz-adv-x="1921" d="M1298 0v86h7q33 0 59.5 4.5t45 18t29.5 39t13 67.5v1094l-469 -1309h-111l-475 1305v-1072q0 -48 10 -77t29.5 -44.5t47 -20.5t61.5 -5h6v-86h-473v86h26q34 0 64.5 4.5t53.5 18.5t36.5 41.5t13.5 72.5v1014q0 45 -13.5 72.5t-36.5 42.5t-53.5 19.5t-64.5 4.5h-26v86h467 l424 -1171l420 1171h454v-86h-26q-35 0 -65.5 -5t-53.5 -20.5t-36 -44.5t-13 -77v-996q0 -48 13 -77t36 -44.5t53.5 -20.5t65.5 -5h26v-86h-545z" />
<glyph unicode="&#x39d;" horiz-adv-x="1563" d="M1165 0l-768 1180v-947q0 -48 13.5 -77t36 -44.5t53.5 -20.5t65 -5h27v-86h-514v86h26q35 0 65.5 5t53.5 20.5t36 44.5t13 77v1004q0 45 -13.5 72.5t-36.5 42.5t-53.5 19.5t-64.5 4.5h-26v86h375l733 -1132v907q0 45 -13.5 72.5t-36.5 42.5t-53.5 19.5t-64.5 4.5h-27v86 h514v-86h-26q-35 0 -65.5 -5t-53.5 -20.5t-36 -44.5t-13 -77v-1229h-146z" />
<glyph unicode="&#x39e;" horiz-adv-x="1272" d="M1176 0h-1080l-10 403h107l8 -61q4 -31 14 -59t29.5 -49t51 -33.5t77.5 -12.5h526q46 0 77.5 12.5t51 33.5t29.5 49t14 59l8 61h107zM1124 1083h-106l-8 62q-4 31 -14 58.5t-30 48.5t-51 33.5t-77 12.5h-404q-46 0 -77.5 -12.5t-51 -33.5t-29.5 -48.5t-14 -58.5l-8 -62 h-107l11 379h956zM397 948l11 -39q6 -22 16 -39.5t29 -29.5t49 -18.5t76 -6.5h112q82 0 122.5 25.5t51.5 68.5l10 39h87v-389h-87l-10 39q-11 43 -51.5 68.5t-122.5 25.5h-112q-46 0 -76 -6.5t-49 -18.5t-29 -29.5t-16 -39.5l-11 -39h-86v389h86z" />
<glyph unicode="&#x39f;" horiz-adv-x="1520" d="M1403 733q0 -169 -42 -308t-124 -238t-202 -153t-275 -54q-163 0 -284 54t-201 153t-120 238.5t-40 309.5t40 308.5t120 236.5t202 151.5t285 53.5q155 0 274 -53.5t201 -152t124 -237t42 -309.5zM342 733q0 -152 22.5 -271.5t72.5 -202t129.5 -126t193.5 -43.5 t193.5 43.5t129 126t71.5 202t22 271.5t-22 271.5t-71.5 201.5t-128 125t-192.5 43t-194 -43t-130.5 -125t-73 -201.5t-22.5 -271.5z" />
<glyph unicode="&#x3a0;" horiz-adv-x="1563" d="M78 1462h1407v-86h-27q-34 0 -65 -5t-53.5 -20.5t-36 -44.5t-13.5 -77v-1006q0 -45 13.5 -72.5t36.5 -41.5t53.5 -18.5t64.5 -4.5h27v-86h-596v86h26q35 0 65.5 5t53.5 20.5t36 44.5t13 77v1127h-604v-1127q0 -48 13.5 -77t36 -44.5t53.5 -20.5t65 -5h27v-86h-596v86h26 q35 0 65.5 5t53.5 20.5t36 44.5t13 77v1004q0 45 -13.5 72.5t-36.5 42.5t-53.5 19.5t-64.5 4.5h-26v86z" />
<glyph unicode="&#x3a1;" horiz-adv-x="1237" d="M78 0v86h26q35 0 65.5 5t53.5 20.5t36 44.5t13 77v1004q0 45 -13.5 72.5t-36.5 42.5t-53.5 19.5t-64.5 4.5h-26v86h575q129 0 224 -29.5t157 -85t92.5 -134.5t30.5 -179q0 -91 -28.5 -175t-93.5 -148.5t-170 -103t-257 -38.5h-129v-346q0 -45 13.5 -72.5t36.5 -41.5 t53.5 -18.5t64.5 -4.5h68v-86h-637zM479 666h109q93 0 159 19.5t108 63t61.5 112t19.5 165.5q0 86 -17 149.5t-55 105.5t-98.5 62.5t-147.5 20.5h-139v-698z" />
<glyph unicode="&#x3a3;" horiz-adv-x="1239" d="M846 188q48 0 82 14.5t56.5 40.5t35.5 62t18 78l9 61h106l-10 -444h-1096v66l426 651l-381 686v59h961l10 -358h-107l-10 88q-4 34 -15 64t-32.5 52.5t-54 36t-78.5 13.5h-426l303 -545v-31l-389 -594h592z" />
<glyph unicode="&#x3a4;" horiz-adv-x="1255" d="M729 233q0 -48 13.5 -77t36 -44.5t53.5 -20.5t65 -5h47v-86h-637v86h47q34 0 64.5 4.5t53.5 18.5t36.5 41.5t13.5 72.5v1137h-196q-45 0 -75.5 -13.5t-50 -36.5t-29 -53.5t-13.5 -64.5l-11 -88h-106l10 358h1153l10 -358h-106l-10 88q-4 34 -14 64.5t-29 53.5t-50 36.5 t-77 13.5h-199v-1127z" />
<glyph unicode="&#x3a5;" horiz-adv-x="1280" d="M326 0v86h47q34 0 64.5 4.5t53.5 18.5t36.5 41.5t13.5 72.5v387l-379 658q-17 29 -32 49.5t-31.5 33.5t-36.5 19t-46 6h-26v86h563v-86h-76q-28 0 -45.5 -5t-27.5 -14t-13.5 -21t-3.5 -25q0 -29 12.5 -58t24.5 -51l151 -274q36 -63 61 -124.5t42 -109.5q9 22 22.5 49 t30 57.5t34.5 63t36 64.5l131 235q20 35 28.5 66.5t8.5 56.5q0 45 -32 67.5t-91 22.5h-60v86h500v-86h-24q-22 0 -41.5 -7.5t-39.5 -26t-41.5 -49t-47.5 -76.5l-344 -607v-377q0 -48 13 -77t36 -44.5t53.5 -20.5t64.5 -5h48v-86h-637z" />
<glyph unicode="&#x3a6;" horiz-adv-x="1571" d="M881 371h47q93 0 159 23t108 70t61.5 119t19.5 169q0 86 -17 152.5t-55 112.5t-98.5 69.5t-147.5 23.5h-77v-739zM489 0v86h27q35 0 65.5 5t53 20.5t36 44.5t13.5 77v41h-68q-101 0 -181 19t-141 52.5t-104 80t-70 100.5t-39.5 113.5t-12.5 120.5q0 100 30 182.5 t92.5 141.5t157 91.5t223.5 32.5h113v21q0 48 -13.5 77t-36 44.5t-53 20.5t-65.5 5h-27v86h586v-86h-26q-35 0 -65.5 -5t-53.5 -20.5t-36 -44.5t-13 -77v-21h112q129 0 224 -32.5t157 -91.5t92.5 -141.5t30.5 -182.5q0 -61 -12.5 -120.5t-39.5 -113.5t-70 -100.5t-104 -80 t-141 -52.5t-182 -19h-67v-41q0 -48 13 -77t36 -44.5t53.5 -20.5t65.5 -5h26v-86h-586zM684 1110h-78q-87 0 -147 -23.5t-98 -69.5t-55 -112.5t-17 -152.5q0 -97 19.5 -169t61.5 -119t108 -70t159 -23h47v739z" />
<glyph unicode="&#x3a7;" horiz-adv-x="1352" d="M954 1317q0 18 -8.5 29.5t-23 18t-34.5 9t-44 2.5h-6v86h448v-86h-18q-30 0 -54.5 -7t-47.5 -24.5t-47.5 -45.5t-53.5 -70l-297 -428l377 -606q45 -60 85 -84.5t79 -24.5h26v-86h-553v86h11q122 0 122 68q0 11 -2.5 22t-9.5 26t-20.5 37t-34.5 56l-203 326l-227 -336 q-9 -13 -18 -29.5t-17 -34.5t-13 -36.5t-5 -34.5q0 -35 32.5 -49.5t100.5 -14.5h6v-86h-488v86h13q37 0 64.5 7.5t51 24.5t46.5 44t51 67l342 490l-338 549q-37 59 -83.5 83.5t-92.5 24.5h-27v86h555v-86h-6q-35 0 -58 -4.5t-36 -12.5t-18 -19t-5 -23q0 -11 1.5 -21 t6.5 -23.5t14.5 -31.5t26.5 -45l185 -299l194 295q23 35 37 66t14 59z" />
<glyph unicode="&#x3a8;" horiz-adv-x="1696" d="M946 606h47q93 0 152.5 21.5t94 67.5t47.5 116.5t13 167.5v483h371v-86q-34 0 -65 -5t-53.5 -20.5t-36 -44.5t-13.5 -77v-254q0 -61 -8 -119t-28.5 -110t-56 -95t-90 -74.5t-130 -49t-176.5 -17.5h-68v-277q0 -48 13.5 -77t36 -44.5t53.5 -20.5t65 -5h27v-86h-586v86h27 q35 0 65.5 5t53 20.5t36 44.5t13.5 77v277h-68q-101 0 -177 17.5t-130.5 49t-89.5 74.5t-55.5 95t-28.5 110t-8 119v254q0 48 -13.5 77t-36 44.5t-53 20.5t-65.5 5v86h370v-483q0 -97 13 -167.5t47.5 -116.5t94 -67.5t152.5 -21.5h48v623q0 48 -13.5 77t-36 44.5t-53 20.5 t-65.5 5h-27v86h586v-86h-27q-34 0 -65 -5t-53.5 -20.5t-36 -44.5t-13.5 -77v-623z" />
<glyph unicode="&#x3a9;" horiz-adv-x="1542" d="M127 897q0 133 40 241.5t120 185.5t202 119t285 42q155 0 274 -42t201 -119t124 -185.5t42 -241.5q0 -226 -119 -367t-346 -186l-4 -180h195q48 0 82 7t56.5 22.5t35.5 39.5t20 58l15 67h106l-14 -358h-608l14 428q93 10 158 46.5t105.5 96.5t58.5 142.5t18 185.5 q0 113 -22 201.5t-71.5 149t-128 92.5t-192.5 32t-194 -32t-130.5 -92.5t-73 -149t-22.5 -201.5q0 -103 18.5 -185.5t59 -142.5t105 -96.5t157.5 -46.5l15 -428h-609l-14 358h107l14 -67q7 -34 20 -58t35.5 -39.5t56.5 -22.5t82 -7h195l-4 180q-227 45 -346 186t-119 367z " />
<glyph unicode="&#x3aa;" horiz-adv-x="752" d="M78 0v86h26q35 0 65.5 5t53.5 20.5t36 44.5t13 77v996q0 48 -13 77t-36 44.5t-53.5 20.5t-65.5 5h-26v86h596v-86h-27q-34 0 -65 -5t-53.5 -20.5t-36 -44.5t-13.5 -77v-996q0 -48 13.5 -77t36 -44.5t53.5 -20.5t65 -5h27v-86h-596zM73 1747q0 32 8 54t22 35.5t33 19.5 t41 6t41 -6t33.5 -19.5t22.5 -35.5t8 -54q0 -31 -8 -53t-22.5 -36t-33.5 -20t-41 -6q-45 0 -74.5 26t-29.5 89zM462 1747q0 32 8 54t22 35.5t33 19.5t41 6t41 -6t33.5 -19.5t22.5 -35.5t8 -54q0 -31 -8 -53t-22.5 -36t-33.5 -20t-41 -6q-45 0 -74.5 26t-29.5 89z" />
<glyph unicode="&#x3ab;" horiz-adv-x="1280" d="M326 0v86h47q34 0 64.5 4.5t53.5 18.5t36.5 41.5t13.5 72.5v387l-379 658q-17 29 -32 49.5t-31.5 33.5t-36.5 19t-46 6h-26v86h563v-86h-76q-28 0 -45.5 -5t-27.5 -14t-13.5 -21t-3.5 -25q0 -29 12.5 -58t24.5 -51l151 -274q36 -63 61 -124.5t42 -109.5q9 22 22.5 49 t30 57.5t34.5 63t36 64.5l131 235q20 35 28.5 66.5t8.5 56.5q0 45 -32 67.5t-91 22.5h-60v86h500v-86h-24q-22 0 -41.5 -7.5t-39.5 -26t-41.5 -49t-47.5 -76.5l-344 -607v-377q0 -48 13 -77t36 -44.5t53.5 -20.5t64.5 -5h48v-86h-637zM359 1747q0 32 8 54t22 35.5t33 19.5 t41 6t41 -6t33.5 -19.5t22.5 -35.5t8 -54q0 -31 -8 -53t-22.5 -36t-33.5 -20t-41 -6q-45 0 -74.5 26t-29.5 89zM748 1747q0 32 8 54t22 35.5t33 19.5t41 6t41 -6t33.5 -19.5t22.5 -35.5t8 -54q0 -31 -8 -53t-22.5 -36t-33.5 -20t-41 -6q-45 0 -74.5 26t-29.5 89z" />
<glyph unicode="&#x3ac;" horiz-adv-x="1251" d="M1049 0q-51 0 -86 18t-58 46.5t-35.5 64t-17.5 70.5h-8q-23 -47 -52.5 -87t-67.5 -69.5t-86 -46t-108 -16.5q-101 0 -179 33.5t-131 103t-80 176.5t-27 254q0 148 32 256t90.5 178t141.5 103.5t184 33.5q60 0 108 -15.5t85.5 -44t65.5 -68t48 -87.5h13q17 54 43 105.5 t57 89.5h109q-9 -30 -19 -78.5t-17.5 -104.5t-12.5 -114t-5 -107v-418q0 -91 43.5 -140.5t124.5 -49.5h17v-86h-172zM565 111q80 0 133.5 40t86 110.5t46 165.5t13.5 206v80q-14 74 -39.5 126.5t-59.5 86t-74.5 49.5t-84.5 16q-143 0 -209 -112.5t-66 -333.5q0 -218 59 -326 t195 -108zM529 1268q12 27 24.5 65.5t24 79.5t21 82t14.5 74h184v-21q-6 -24 -28 -64t-51.5 -84.5t-62 -87t-59.5 -71.5h-67v27z" />
<glyph unicode="&#x3ad;" horiz-adv-x="1016" d="M340 827q0 -81 44.5 -134.5t141.5 -59.5q18 4 39 8t42 7t40.5 5t34.5 2q37 0 59.5 -17t22.5 -52t-31.5 -59.5t-85.5 -24.5q-15 0 -36.5 2t-44.5 6t-44.5 9.5t-36.5 12.5q-37 -8 -69 -26.5t-56 -46.5t-37.5 -65.5t-13.5 -84.5q0 -102 68.5 -151t200.5 -49q60 0 110 11.5 t91.5 31.5t73.5 46t56 54q14 -6 26.5 -25t12.5 -45q0 -37 -23.5 -73.5t-74 -65t-130.5 -46t-194 -17.5q-107 0 -185.5 24.5t-129.5 67.5t-75.5 101.5t-24.5 125.5q0 62 19.5 106.5t52 76.5t74.5 53t87 36v11q-46 15 -83 39.5t-62.5 56.5t-39.5 70t-14 79q0 70 28.5 124 t83.5 90.5t134.5 55.5t181.5 19q86 0 149.5 -16t105.5 -42.5t62.5 -61t20.5 -72.5q0 -65 -40 -94t-121 -29q0 103 -52 162t-155 59q-58 0 -97.5 -15.5t-62.5 -42t-33 -62t-10 -75.5zM499 1268q12 27 24.5 65.5t24 79.5t21 82t14.5 74h184v-21q-6 -24 -28 -64t-51.5 -84.5 t-62 -87t-59.5 -71.5h-67v27z" />
<glyph unicode="&#x3ae;" horiz-adv-x="1239" d="M201 694q0 49 -5 107t-12.5 114t-17.5 104.5t-19 78.5h115q34 -42 57.5 -87.5t40.5 -99.5h13q22 41 50.5 78.5t66 66t86.5 45.5t112 17q89 0 155 -23.5t109.5 -72t64.5 -124.5t21 -181v-860q0 -38 3 -89.5t8.5 -102.5t12.5 -94t15 -63h-196q-9 19 -16 62.5t-11 96.5 t-6 110t-2 104v846q0 129 -56 194.5t-147 65.5q-70 0 -117.5 -27t-77 -77.5t-42.5 -123t-13 -163.5v-596h-192v694zM582 1268q12 27 24.5 65.5t24 79.5t21 82t14.5 74h184v-21q-6 -24 -28 -64t-51.5 -84.5t-62 -87t-59.5 -71.5h-67v27z" />
<glyph unicode="&#x3af;" horiz-adv-x="684" d="M393 1098v-807q0 -105 42.5 -154t113.5 -49q37 0 68 4t63 10v-90q-13 -6 -34 -12t-45.5 -10.5t-51.5 -7t-51 -2.5q-78 0 -134 16.5t-92 53.5t-53.5 98t-17.5 149v801h192zM212 1268q12 27 24.5 65.5t24 79.5t21 82t14.5 74h184v-21q-6 -24 -28 -64t-51.5 -84.5t-62 -87 t-59.5 -71.5h-67v27z" />
<glyph unicode="&#x3b0;" horiz-adv-x="1214" d="M629 -20q-103 0 -179.5 29t-127.5 84t-76 134.5t-25 180.5v464q0 45 -15 72.5t-40 42.5t-57 20t-66 5h-6v86h377v-672q0 -155 64.5 -235t183.5 -80q95 0 155.5 37.5t95.5 104t48.5 157.5t13.5 198q0 86 -17.5 152.5t-45.5 113.5t-63 75t-69 38q0 30 9.5 53.5t26 40t38 25 t45.5 8.5q53 0 91.5 -39.5t63 -104.5t36.5 -147.5t12 -167.5q0 -87 -9 -171t-31 -159t-57 -138t-88 -109t-124 -72t-164 -26zM292 1395q0 54 28 78t69 24q19 0 36.5 -6t30.5 -18.5t21 -31.5t8 -46q0 -53 -29 -78t-67 -25q-41 0 -69 25t-28 78zM729 1395q0 54 28 78t68 24 q19 0 36.5 -6t30.5 -18.5t21 -31.5t8 -46q0 -53 -29 -78t-67 -25q-40 0 -68 25t-28 78zM534 1415q12 28 24.5 66t24.5 79.5t21.5 82t13.5 73.5h184v-20q-6 -25 -28 -65t-51.5 -84.5t-61.5 -86.5t-59 -71h-68v26z" />
<glyph unicode="&#x3b1;" horiz-adv-x="1251" d="M1049 0q-51 0 -86 18t-58 46.5t-35.5 64t-17.5 70.5h-8q-23 -47 -52.5 -87t-67.5 -69.5t-86 -46t-108 -16.5q-101 0 -179 33.5t-131 103t-80 176.5t-27 254q0 148 32 256t90.5 178t141.5 103.5t184 33.5q60 0 108 -15.5t85.5 -44t65.5 -68t48 -87.5h13q17 54 43 105.5 t57 89.5h109q-9 -30 -19 -78.5t-17.5 -104.5t-12.5 -114t-5 -107v-418q0 -91 43.5 -140.5t124.5 -49.5h17v-86h-172zM565 111q80 0 133.5 40t86 110.5t46 165.5t13.5 206v80q-14 74 -39.5 126.5t-59.5 86t-74.5 49.5t-84.5 16q-143 0 -209 -112.5t-66 -333.5q0 -218 59 -326 t195 -108z" />
<glyph unicode="&#x3b2;" horiz-adv-x="1243" d="M201 -492v1651q0 113 34 190t93.5 124.5t140 68.5t174.5 21q214 0 321 -88.5t107 -245.5q0 -49 -11 -90.5t-28.5 -75.5t-40.5 -60.5t-47 -47.5q-56 -48 -127 -76v-13q71 -23 128.5 -56.5t98.5 -82.5t63.5 -116.5t22.5 -157.5q0 -118 -30.5 -207t-88 -148t-139.5 -88.5 t-184 -29.5q-105 0 -177.5 25t-117.5 67v-564h-192zM676 86q123 0 189.5 89t66.5 276q0 83 -15.5 143.5t-45.5 103.5t-73 70.5t-98 44.5q-26 -11 -58.5 -20t-70.5 -9q-34 0 -55.5 17t-21.5 49q0 35 28 55.5t84 20.5q12 0 28 -1.5t32 -3.5t30.5 -5.5t24.5 -6.5 q74 26 117 100.5t43 196.5q0 59 -15.5 107.5t-46 83t-75 54t-103.5 19.5q-62 0 -108.5 -20t-77.5 -56.5t-46.5 -88.5t-15.5 -117v-979q23 -25 53.5 -47t67 -39t77.5 -27t85 -10z" />
<glyph unicode="&#x3b3;" horiz-adv-x="1176" d="M221 1104q43 0 78.5 -17t66.5 -58t60.5 -109.5t61 -170.5t68.5 -242t83 -325q65 64 116.5 147.5t87 171.5t54 174t18.5 154q0 63 -25 107.5t-79 58.5q0 63 34 93t85 30q41 0 67.5 -17.5t42 -45.5t21.5 -63.5t6 -71.5q0 -74 -18 -155.5t-48.5 -164.5t-71 -163.5 t-86 -152.5t-93.5 -131t-93 -100q2 -26 3.5 -51.5t1.5 -50.5q0 -97 -13.5 -178t-38 -140t-58 -92t-73.5 -33q-42 0 -63 31.5t-21 83.5q0 56 10 110t25 103t33.5 93t36.5 81q-34 132 -66 254.5t-63.5 230t-62.5 196t-61.5 151.5t-61.5 98t-62 35q-22 0 -42.5 -8t-39.5 -19 l-41 62q20 18 45.5 34.5t54 30t59.5 21.5t62 8z" />
<glyph unicode="&#x3b4;" d="M881 457q0 74 -25 137.5t-65.5 117t-91.5 97t-103 76.5q-58 -17 -111.5 -53t-93.5 -94t-64 -139.5t-24 -190.5q0 -70 19 -129t55.5 -102t89 -67t119.5 -24q142 0 218.5 95.5t76.5 275.5zM451 1309q0 -44 14 -79t44.5 -68.5t79.5 -68.5t118 -79q82 -52 149 -106.5 t114 -116t73 -133.5t26 -160q0 -127 -34.5 -223.5t-98 -162t-152.5 -99t-198 -33.5q-103 0 -190 30.5t-150.5 89t-99 143.5t-35.5 195q0 106 32 187t88 141t131 101t162 67q-51 33 -95 69.5t-76 78.5t-50 90.5t-18 105.5q0 70 27.5 124t76.5 90.5t117 55.5t149 19 q85 0 148.5 -20t106 -50.5t64 -68.5t21.5 -74q0 -65 -40 -97t-111 -32q0 51 -14 96.5t-41 79t-65.5 53t-86.5 19.5q-49 0 -84.5 -12t-58 -34t-33 -52t-10.5 -66z" />
<glyph unicode="&#x3b5;" horiz-adv-x="1016" d="M340 827q0 -81 44.5 -134.5t141.5 -59.5q18 4 39 8t42 7t40.5 5t34.5 2q37 0 59.5 -17t22.5 -52t-31.5 -59.5t-85.5 -24.5q-15 0 -36.5 2t-44.5 6t-44.5 9.5t-36.5 12.5q-37 -8 -69 -26.5t-56 -46.5t-37.5 -65.5t-13.5 -84.5q0 -102 68.5 -151t200.5 -49q60 0 110 11.5 t91.5 31.5t73.5 46t56 54q14 -6 26.5 -25t12.5 -45q0 -37 -23.5 -73.5t-74 -65t-130.5 -46t-194 -17.5q-107 0 -185.5 24.5t-129.5 67.5t-75.5 101.5t-24.5 125.5q0 62 19.5 106.5t52 76.5t74.5 53t87 36v11q-46 15 -83 39.5t-62.5 56.5t-39.5 70t-14 79q0 70 28.5 124 t83.5 90.5t134.5 55.5t181.5 19q86 0 149.5 -16t105.5 -42.5t62.5 -61t20.5 -72.5q0 -65 -40 -94t-121 -29q0 103 -52 162t-155 59q-58 0 -97.5 -15.5t-62.5 -42t-33 -62t-10 -75.5z" />
</font>
</defs>
</svg>
