<svg id="visual" xmlns="http://www.w3.org/2000/svg" viewBox="0 0 22 22"><defs><style>.cls-1{fill:#cfd1d2;}</style></defs><title>quoteDisabled</title><path class="cls-1" d="M17.83,3.49H4.17A2.19,2.19,0,0,0,2,5.7v9.94a2.19,2.19,0,0,0,2.17,2.21H5.25v2.64L9,17.85h8.81A2.19,2.19,0,0,0,20,15.64V5.7A2.19,2.19,0,0,0,17.83,3.49ZM6,15.18l-.43-.85c.73-.29,1.1-.7,1.13-1.29l-.16,0a.92.92,0,0,1-1-.94,1,1,0,0,1,1-1.06c.83,0,1.28.62,1.28,1.68A2.58,2.58,0,0,1,6,15.18Zm2.8,0-.43-.85c.73-.29,1.1-.7,1.13-1.29l-.16,0a.92.92,0,0,1-1-.94,1,1,0,0,1,1-1.06c.83,0,1.28.62,1.28,1.68A2.58,2.58,0,0,1,8.79,15.18Zm3.83-4.79c-.83,0-1.28-.62-1.28-1.68a2.59,2.59,0,0,1,1.87-2.43l.43.85c-.73.29-1.1.7-1.14,1.29l.17,0a.92.92,0,0,1,1,.95A1,1,0,0,1,12.62,10.39Zm2.8,0c-.83,0-1.28-.62-1.28-1.68A2.59,2.59,0,0,1,16,6.28l.43.85c-.73.29-1.1.7-1.14,1.29l.17,0a.92.92,0,0,1,1,.95A1,1,0,0,1,15.42,10.39Z"/></svg>