<?xml version="1.0" encoding="UTF-8" standalone="no"?>
<!-- Created with Inkscape (http://www.inkscape.org/) -->

<svg
   xmlns:dc="http://purl.org/dc/elements/1.1/"
   xmlns:cc="http://creativecommons.org/ns#"
   xmlns:rdf="http://www.w3.org/1999/02/22-rdf-syntax-ns#"
   xmlns:svg="http://www.w3.org/2000/svg"
   xmlns="http://www.w3.org/2000/svg"
   xmlns:sodipodi="http://sodipodi.sourceforge.net/DTD/sodipodi-0.dtd"
   xmlns:inkscape="http://www.inkscape.org/namespaces/inkscape"
   version="1.1"
   id="svg2"
   width="22"
   height="22"
   viewBox="0 0 22 22"
   sodipodi:docname="calendar.svg"
   inkscape:version="0.92.3 (2405546, 2018-03-11)">
  <metadata
     id="metadata8">
    <rdf:RDF>
      <cc:Work
         rdf:about="">
        <dc:format>image/svg+xml</dc:format>
        <dc:type
           rdf:resource="http://purl.org/dc/dcmitype/StillImage" />
        <dc:title></dc:title>
      </cc:Work>
    </rdf:RDF>
  </metadata>
  <defs
     id="defs6" />
  <sodipodi:namedview
     pagecolor="#ffffff"
     bordercolor="#666666"
     borderopacity="1"
     objecttolerance="10"
     gridtolerance="10"
     guidetolerance="10"
     inkscape:pageopacity="0"
     inkscape:pageshadow="2"
     inkscape:window-width="1920"
     inkscape:window-height="1017"
     id="namedview4"
     showgrid="false"
     inkscape:pagecheckerboard="true"
     inkscape:zoom="22.627417"
     inkscape:cx="3.814124"
     inkscape:cy="9.4154359"
     inkscape:window-x="-8"
     inkscape:window-y="-8"
     inkscape:window-maximized="1"
     inkscape:current-layer="svg2" />
  <path
     style="opacity:1;fill:#008fb8;fill-opacity:1;stroke:none;stroke-width:7.58810902;stroke-linejoin:round;stroke-miterlimit:4;stroke-dasharray:none;stroke-opacity:1"
     d="M 16.208984 0.3203125 L 16.208984 2.4003906 L 6.0371094 2.4003906 L 6.0371094 0.32226562 L 3.9121094 0.32226562 L 3.9121094 2.4003906 L 0.017578125 2.4003906 L 0.017578125 21.779297 L 21.994141 21.779297 L 21.994141 2.4003906 L 18.333984 2.4003906 L 18.333984 0.3203125 L 16.208984 0.3203125 z M 2.0175781 4.2675781 L 20.203125 4.2675781 L 20.203125 7.6269531 L 2.0175781 7.6269531 L 2.0175781 4.2675781 z M 2.0175781 9.2636719 L 7.5839844 9.2636719 L 7.5839844 12.488281 L 2.0175781 12.488281 L 2.0175781 9.2636719 z M 8.3808594 9.2636719 L 13.800781 9.2636719 L 13.800781 12.488281 L 8.3808594 12.488281 L 8.3808594 9.2636719 z M 14.597656 9.2636719 L 20.203125 9.2636719 L 20.203125 12.488281 L 14.597656 12.488281 L 14.597656 9.2636719 z M 2.0175781 13.240234 L 7.5839844 13.240234 L 7.5839844 16.134766 L 2.0175781 16.134766 L 2.0175781 13.240234 z M 8.3808594 13.240234 L 13.800781 13.240234 L 13.800781 16.134766 L 8.3808594 16.134766 L 8.3808594 13.240234 z M 14.597656 13.240234 L 20.203125 13.240234 L 20.203125 16.134766 L 14.597656 16.134766 L 14.597656 13.240234 z M 2.0175781 16.886719 L 7.5839844 16.886719 L 7.5839844 19.845703 L 2.0175781 19.845703 L 2.0175781 16.886719 z M 8.3808594 16.886719 L 13.800781 16.886719 L 13.800781 19.845703 L 8.3808594 19.845703 L 8.3808594 16.886719 z M 14.597656 16.886719 L 20.203125 16.886719 L 20.203125 19.845703 L 14.597656 19.845703 L 14.597656 16.886719 z "
     id="rect819" />
</svg>
