<?xml version="1.0" encoding="UTF-8" standalone="no"?>
<svg
   xmlns:dc="http://purl.org/dc/elements/1.1/"
   xmlns:cc="http://creativecommons.org/ns#"
   xmlns:rdf="http://www.w3.org/1999/02/22-rdf-syntax-ns#"
   xmlns:svg="http://www.w3.org/2000/svg"
   xmlns="http://www.w3.org/2000/svg"
   xmlns:sodipodi="http://sodipodi.sourceforge.net/DTD/sodipodi-0.dtd"
   xmlns:inkscape="http://www.inkscape.org/namespaces/inkscape"
   id="visual"
   viewBox="0 0 22 22"
   version="1.1"
   sodipodi:docname="camera.svg"
   inkscape:version="0.92.3 (2405546, 2018-03-11)"
   width="22"
   height="22">
  <metadata
     id="metadata4964">
    <rdf:RDF>
      <cc:Work
         rdf:about="">
        <dc:format>image/svg+xml</dc:format>
        <dc:type
           rdf:resource="http://purl.org/dc/dcmitype/StillImage" />
        <dc:title></dc:title>
      </cc:Work>
    </rdf:RDF>
  </metadata>
  <sodipodi:namedview
     pagecolor="#ffffff"
     bordercolor="#666666"
     borderopacity="1"
     objecttolerance="10"
     gridtolerance="10"
     guidetolerance="10"
     inkscape:pageopacity="0"
     inkscape:pageshadow="2"
     inkscape:window-width="1680"
     inkscape:window-height="987"
     id="namedview4962"
     showgrid="false"
     inkscape:zoom="21.454545"
     inkscape:cx="6.2729051"
     inkscape:cy="-1.0901822"
     inkscape:window-x="1912"
     inkscape:window-y="-8"
     inkscape:window-maximized="1"
     inkscape:current-layer="visual" />
  <defs
     id="defs4955">
    <style
       id="style4953">.cls-1{fill:none;stroke:#bb0a30;stroke-miterlimit:10;stroke-width:2px;}</style>
  </defs>
  <path
     id="path4959"
     style="color:#000000;font-style:normal;font-variant:normal;font-weight:normal;font-stretch:normal;font-size:medium;line-height:normal;font-family:sans-serif;font-variant-ligatures:normal;font-variant-position:normal;font-variant-caps:normal;font-variant-numeric:normal;font-variant-alternates:normal;font-feature-settings:normal;text-indent:0;text-align:start;text-decoration:none;text-decoration-line:none;text-decoration-style:solid;text-decoration-color:#000000;letter-spacing:normal;word-spacing:normal;text-transform:none;writing-mode:lr-tb;direction:ltr;text-orientation:mixed;dominant-baseline:auto;baseline-shift:baseline;text-anchor:start;white-space:normal;shape-padding:0;clip-rule:nonzero;display:inline;overflow:visible;visibility:visible;opacity:1;isolation:auto;mix-blend-mode:normal;color-interpolation:sRGB;color-interpolation-filters:linearRGB;solid-color:#000000;solid-opacity:1;vector-effect:none;fill:#008fb8;fill-opacity:1;fill-rule:nonzero;stroke:none;stroke-width:2.43939686px;stroke-linecap:butt;stroke-linejoin:miter;stroke-miterlimit:10;stroke-dasharray:none;stroke-dashoffset:0;stroke-opacity:1;color-rendering:auto;image-rendering:auto;shape-rendering:auto;text-rendering:auto;enable-background:accumulate"
     d="M 3.3774625,3.5699889 C 1.4652421,3.6504619 -0.04766249,5.2903726 0.02567383,7.2028797 v 8.5902983 c -0.07333632,1.912507 1.43956827,3.552417 3.35178867,3.632891 h 0.026204 11.4584955 l 0.02858,-0.0024 c 1.60864,-0.0763 2.716884,-1.341731 3.044482,-2.853904 l 4.045018,2.534759 V 4.1417225 L 18.006693,6.619235 C 17.76067,5.0075486 16.573011,3.6521744 14.89075,3.5723711 l -0.02859,-0.00238 H 3.4036668 Z M 3.4798974,6.0093857 H 14.778784 c 0.592782,0.031094 1.028221,0.5065396 1.005298,1.1005875 v 0.02144 3.7472388 l 1.865282,-1.1625267 1.891485,-1.1791996 v 6.1604303 l -3.756767,-2.353638 v 3.520926 0.02145 c 0.02292,0.594044 -0.412516,1.069489 -1.005298,1.100585 H 3.4798979 C 2.8816438,16.961495 2.4421269,16.484428 2.4650708,15.886084 V 15.864644 7.131413 7.109973 C 2.4421269,6.5116291 2.8816438,6.0345624 3.4798974,6.0093857 Z m 3.3279668,1.3912186 c -1.2424859,0 -2.2821702,1.0373023 -2.2821702,2.2797884 v 3.6233613 c 0,1.242487 1.0396843,2.279788 2.2821702,2.279788 h 4.6334248 c 1.242486,0 2.282171,-1.037301 2.282171,-2.279788 V 9.6803927 c 0,-1.2424861 -1.039685,-2.2797884 -2.282171,-2.2797884 z M 6.965091,9.8400015 h 4.318972 V 13.144145 H 6.965091 Z"
     inkscape:connector-curvature="0" />
</svg>
