<?xml version="1.0" encoding="UTF-8" standalone="no"?>
<svg
   xmlns:dc="http://purl.org/dc/elements/1.1/"
   xmlns:cc="http://creativecommons.org/ns#"
   xmlns:rdf="http://www.w3.org/1999/02/22-rdf-syntax-ns#"
   xmlns:svg="http://www.w3.org/2000/svg"
   xmlns="http://www.w3.org/2000/svg"
   xmlns:sodipodi="http://sodipodi.sourceforge.net/DTD/sodipodi-0.dtd"
   xmlns:inkscape="http://www.inkscape.org/namespaces/inkscape"
   id="visual"
   viewBox="0 0 120 120"
   version="1.1"
   sodipodi:docname="chain.svg"
   inkscape:version="0.92.3 (2405546, 2018-03-11)"
   width="120"
   height="120">
  <metadata
     id="metadata19">
    <rdf:RDF>
      <cc:Work
         rdf:about="">
        <dc:format>image/svg+xml</dc:format>
        <dc:type
           rdf:resource="http://purl.org/dc/dcmitype/StillImage" />
        <dc:title>TLEnumeration</dc:title>
      </cc:Work>
    </rdf:RDF>
  </metadata>
  <sodipodi:namedview
     pagecolor="#ffffff"
     bordercolor="#666666"
     borderopacity="1"
     objecttolerance="10"
     gridtolerance="10"
     guidetolerance="10"
     inkscape:pageopacity="0"
     inkscape:pageshadow="2"
     inkscape:window-width="1680"
     inkscape:window-height="987"
     id="namedview17"
     showgrid="false"
     inkscape:zoom="1.3906434"
     inkscape:cx="-191.00303"
     inkscape:cy="7.2016161"
     inkscape:window-x="1912"
     inkscape:window-y="-8"
     inkscape:window-maximized="1"
     inkscape:current-layer="visual" />
  <defs
     id="defs4">
    <style
       id="style2">.cls-1{fill:#fbfbfd;}.cls-2{fill:none;stroke:#454952;stroke-miterlimit:10;stroke-width:8px;}</style>
  </defs>
  <title
     id="title6">TLEnumeration</title>
  <path
     id="circle14"
     style="color:#000000;font-style:normal;font-variant:normal;font-weight:normal;font-stretch:normal;font-size:medium;line-height:normal;font-family:sans-serif;font-variant-ligatures:normal;font-variant-position:normal;font-variant-caps:normal;font-variant-numeric:normal;font-variant-alternates:normal;font-feature-settings:normal;text-indent:0;text-align:start;text-decoration:none;text-decoration-line:none;text-decoration-style:solid;text-decoration-color:#000000;letter-spacing:normal;word-spacing:normal;text-transform:none;writing-mode:lr-tb;direction:ltr;text-orientation:mixed;dominant-baseline:auto;baseline-shift:baseline;text-anchor:start;white-space:normal;shape-padding:0;clip-rule:nonzero;display:inline;overflow:visible;visibility:visible;opacity:1;isolation:auto;mix-blend-mode:normal;color-interpolation:sRGB;color-interpolation-filters:linearRGB;solid-color:#000000;solid-opacity:1;vector-effect:none;fill:#008fb8;fill-opacity:1;fill-rule:nonzero;stroke:none;stroke-width:12.421628px;stroke-linecap:butt;stroke-linejoin:miter;stroke-miterlimit:10;stroke-dasharray:none;stroke-dashoffset:0;stroke-opacity:1;color-rendering:auto;image-rendering:auto;shape-rendering:auto;text-rendering:auto;enable-background:accumulate"
     d="m 36.952898,0.17272556 c -14.504524,0 -26.39669,11.89216944 -26.39669,26.39669044 0,14.50452 11.892166,26.393963 26.39669,26.393963 14.50452,0 26.393963,-11.889443 26.393963,-26.393963 0,-14.504521 -11.889443,-26.39669044 -26.393963,-26.39669044 z m 0,12.42020844 c 7.791374,0 13.973755,6.185106 13.973755,13.976482 0,7.791375 -6.182381,13.973757 -13.973755,13.973757 -7.791377,0 -13.976483,-6.182382 -13.976483,-13.973757 0,-7.791376 6.185106,-13.976482 13.976483,-13.976482 z m 45.028364,54.346927 c -14.504522,0 -26.396689,11.889444 -26.396689,26.393966 0,14.504523 11.892167,26.396693 26.396689,26.396693 14.50452,0 26.393968,-11.89217 26.393968,-26.396693 0,-14.504522 -11.889448,-26.393966 -26.393968,-26.393966 z m 0,12.420208 c 7.791375,0 13.973756,6.182382 13.973756,13.973758 0,7.791373 -6.182381,13.976483 -13.973756,13.976483 -7.791375,0 -13.976483,-6.18511 -13.976483,-13.976483 0,-7.791376 6.185108,-13.973758 13.976483,-13.973758 z M 59.465717,33.554932 c -14.504521,0 -26.396691,11.892167 -26.396691,26.39669 0,14.504521 11.89217,26.396688 26.396691,26.396688 14.504521,0 26.39669,-11.892167 26.39669,-26.396688 0,-14.504523 -11.892169,-26.39669 -26.39669,-26.39669 z m 0,12.422934 c 7.791374,0 13.973755,6.18238 13.973755,13.973756 0,7.791375 -6.182381,13.973757 -13.973755,13.973757 -7.791376,0 -13.973757,-6.182382 -13.973757,-13.973757 0,-7.791376 6.182381,-13.973756 13.973757,-13.973756 z"
     inkscape:connector-curvature="0" />
</svg>
