<?xml version="1.0" encoding="UTF-8" standalone="no"?>
<svg
   xmlns:dc="http://purl.org/dc/elements/1.1/"
   xmlns:cc="http://creativecommons.org/ns#"
   xmlns:rdf="http://www.w3.org/1999/02/22-rdf-syntax-ns#"
   xmlns:svg="http://www.w3.org/2000/svg"
   xmlns="http://www.w3.org/2000/svg"
   xmlns:sodipodi="http://sodipodi.sourceforge.net/DTD/sodipodi-0.dtd"
   xmlns:inkscape="http://www.inkscape.org/namespaces/inkscape"
   id="visual"
   viewBox="0 0 22 22"
   version="1.1"
   sodipodi:docname="clipboard-remove.svg"
   inkscape:version="0.92.3 (2405546, 2018-03-11)">
  <metadata
     id="metadata901">
    <rdf:RDF>
      <cc:Work
         rdf:about="">
        <dc:format>image/svg+xml</dc:format>
        <dc:type
           rdf:resource="http://purl.org/dc/dcmitype/StillImage" />
        <dc:title />
      </cc:Work>
    </rdf:RDF>
  </metadata>
  <sodipodi:namedview
     pagecolor="#ffffff"
     bordercolor="#666666"
     borderopacity="1"
     objecttolerance="10"
     gridtolerance="10"
     guidetolerance="10"
     inkscape:pageopacity="0"
     inkscape:pageshadow="2"
     inkscape:window-width="1680"
     inkscape:window-height="987"
     id="namedview899"
     showgrid="false"
     inkscape:zoom="21.454545"
     inkscape:cx="2.1290727"
     inkscape:cy="6.7549268"
     inkscape:window-x="1912"
     inkscape:window-y="-8"
     inkscape:window-maximized="1"
     inkscape:current-layer="visual" />
  <defs
     id="defs880">
    <style
       id="style878">.cls-1,.cls-3{fill:none;stroke-miterlimit:10;stroke-width:2px;}.cls-1{stroke:#4c4c4c;}.cls-2{fill:#fbfbfd;}.cls-3{stroke:#bb0a30;}</style>
  </defs>
  <path
     style="color:#000000;font-style:normal;font-variant:normal;font-weight:normal;font-stretch:normal;font-size:medium;line-height:normal;font-family:sans-serif;font-variant-ligatures:normal;font-variant-position:normal;font-variant-caps:normal;font-variant-numeric:normal;font-variant-alternates:normal;font-feature-settings:normal;text-indent:0;text-align:start;text-decoration:none;text-decoration-line:none;text-decoration-style:solid;text-decoration-color:#000000;letter-spacing:normal;word-spacing:normal;text-transform:none;writing-mode:lr-tb;direction:ltr;text-orientation:mixed;dominant-baseline:auto;baseline-shift:baseline;text-anchor:start;white-space:normal;shape-padding:0;clip-rule:nonzero;display:inline;overflow:visible;visibility:visible;opacity:1;isolation:auto;mix-blend-mode:normal;color-interpolation:sRGB;color-interpolation-filters:linearRGB;solid-color:#000000;solid-opacity:1;vector-effect:none;fill:#008fb8;fill-opacity:1;fill-rule:nonzero;stroke:none;stroke-width:2.08878231px;stroke-linecap:butt;stroke-linejoin:miter;stroke-miterlimit:10;stroke-dasharray:none;stroke-dashoffset:0;stroke-opacity:1;color-rendering:auto;image-rendering:auto;shape-rendering:auto;text-rendering:auto;enable-background:accumulate"
     d="M 7.3789062 0.068359375 L 7.3789062 1.1113281 L 7.3789062 3.2011719 L 2.15625 3.2011719 L 2.15625 4.2441406 L 2.15625 19.912109 L 11.832031 19.912109 A 5.7441518 5.7441518 0 0 1 10.730469 17.822266 L 4.2441406 17.822266 L 4.2441406 5.2910156 L 16.779297 5.2910156 L 16.779297 10.539062 A 5.7441518 5.7441518 0 0 1 18.867188 11.146484 L 18.867188 3.2011719 L 13.644531 3.2011719 L 13.644531 0.068359375 L 7.3789062 0.068359375 z M 9.4667969 2.15625 L 11.556641 2.15625 L 11.556641 3.2011719 L 9.4667969 3.2011719 L 9.4667969 2.15625 z M 5.9375 6.8554688 L 5.9375 8.9453125 L 15.076172 8.9453125 L 15.076172 6.8554688 L 5.9375 6.8554688 z M 5.9375 10.511719 L 5.9375 12.599609 L 11.830078 12.599609 A 5.7441518 5.7441518 0 0 1 15.076172 10.640625 L 15.076172 10.511719 L 5.9375 10.511719 z M 5.9375 14.167969 L 5.9375 16.255859 L 10.511719 16.255859 A 5.7441518 5.7441518 0 0 1 10.910156 14.167969 L 5.9375 14.167969 z "
     id="rect890" />
  <path
     style="display:inline;fill:#fbfbfd;stroke-width:1.04439116"
     d="m 22.000001,16.255849 a 5.7441518,5.7441518 0 0 1 -5.744152,5.744152 5.7441518,5.7441518 0 0 1 -5.744151,-5.744152 5.7441518,5.7441518 0 0 1 5.744151,-5.744151 5.7441518,5.7441518 0 0 1 5.744152,5.744151 z"
     id="circle892"
     inkscape:connector-curvature="0" />
  <path
     id="line896"
     style="color:#000000;font-style:normal;font-variant:normal;font-weight:normal;font-stretch:normal;font-size:medium;line-height:normal;font-family:sans-serif;font-variant-ligatures:normal;font-variant-position:normal;font-variant-caps:normal;font-variant-numeric:normal;font-variant-alternates:normal;font-feature-settings:normal;text-indent:0;text-align:start;text-decoration:none;text-decoration-line:none;text-decoration-style:solid;text-decoration-color:#000000;letter-spacing:normal;word-spacing:normal;text-transform:none;writing-mode:lr-tb;direction:ltr;text-orientation:mixed;dominant-baseline:auto;baseline-shift:baseline;text-anchor:start;white-space:normal;shape-padding:0;clip-rule:nonzero;display:inline;overflow:visible;visibility:visible;opacity:1;isolation:auto;mix-blend-mode:normal;color-interpolation:sRGB;color-interpolation-filters:linearRGB;solid-color:#000000;solid-opacity:1;vector-effect:none;fill:#008fb8;fill-opacity:1;fill-rule:nonzero;stroke:none;stroke-width:2.08878231px;stroke-linecap:butt;stroke-linejoin:miter;stroke-miterlimit:10;stroke-dasharray:none;stroke-dashoffset:0;stroke-opacity:1;color-rendering:auto;image-rendering:auto;shape-rendering:auto;text-rendering:auto;enable-background:accumulate"
     d="m 14.384187,12.905929 -1.478258,1.478258 5.22159,5.22159 1.478258,-1.478258 z m 3.743332,0 -5.22159,5.22159 1.478258,1.478258 5.22159,-5.22159 z"
     inkscape:connector-curvature="0" />
</svg>
