<?xml version="1.0" encoding="UTF-8" standalone="no"?>
<svg
   xmlns:dc="http://purl.org/dc/elements/1.1/"
   xmlns:cc="http://creativecommons.org/ns#"
   xmlns:rdf="http://www.w3.org/1999/02/22-rdf-syntax-ns#"
   xmlns:svg="http://www.w3.org/2000/svg"
   xmlns="http://www.w3.org/2000/svg"
   xmlns:sodipodi="http://sodipodi.sourceforge.net/DTD/sodipodi-0.dtd"
   xmlns:inkscape="http://www.inkscape.org/namespaces/inkscape"
   id="visual"
   viewBox="0 0 22 22"
   version="1.1"
   sodipodi:docname="clipboard-paste.svg"
   inkscape:version="0.92.3 (2405546, 2018-03-11)">
  <metadata
     id="metadata21">
    <rdf:RDF>
      <cc:Work
         rdf:about="">
        <dc:format>image/svg+xml</dc:format>
        <dc:type
           rdf:resource="http://purl.org/dc/dcmitype/StillImage" />
      </cc:Work>
    </rdf:RDF>
  </metadata>
  <sodipodi:namedview
     pagecolor="#ffffff"
     bordercolor="#666666"
     borderopacity="1"
     objecttolerance="10"
     gridtolerance="10"
     guidetolerance="10"
     inkscape:pageopacity="0"
     inkscape:pageshadow="2"
     inkscape:window-width="1680"
     inkscape:window-height="987"
     id="namedview19"
     showgrid="false"
     inkscape:zoom="5.3636363"
     inkscape:cx="-24.501406"
     inkscape:cy="-16.716425"
     inkscape:window-x="1912"
     inkscape:window-y="-8"
     inkscape:window-maximized="1"
     inkscape:current-layer="visual" />
  <defs
     id="defs4">
    <style
       id="style2">.cls-1{fill:none;stroke:#fbfbfd;stroke-miterlimit:10;stroke-width:2px;}</style>
  </defs>
  <title
     id="title6">Clipboard</title>
  <path
     style="color:#000000;font-style:normal;font-variant:normal;font-weight:normal;font-stretch:normal;font-size:medium;line-height:normal;font-family:sans-serif;font-variant-ligatures:normal;font-variant-position:normal;font-variant-caps:normal;font-variant-numeric:normal;font-variant-alternates:normal;font-feature-settings:normal;text-indent:0;text-align:start;text-decoration:none;text-decoration-line:none;text-decoration-style:solid;text-decoration-color:#000000;letter-spacing:normal;word-spacing:normal;text-transform:none;writing-mode:lr-tb;direction:ltr;text-orientation:mixed;dominant-baseline:auto;baseline-shift:baseline;text-anchor:start;white-space:normal;shape-padding:0;clip-rule:nonzero;display:inline;overflow:visible;visibility:visible;opacity:1;isolation:auto;mix-blend-mode:normal;color-interpolation:sRGB;color-interpolation-filters:linearRGB;solid-color:#000000;solid-opacity:1;vector-effect:none;fill:#008fb8;fill-opacity:1;fill-rule:nonzero;stroke:none;stroke-width:2px;stroke-linecap:butt;stroke-linejoin:miter;stroke-miterlimit:10;stroke-dasharray:none;stroke-dashoffset:0;stroke-opacity:1;color-rendering:auto;image-rendering:auto;shape-rendering:auto;text-rendering:auto;enable-background:accumulate"
     d="M 6.0898438 0.068359375 L 6.0898438 1.0683594 L 6.0898438 3.0683594 L 1.0898438 3.0683594 L 1.0898438 4.0683594 L 1.0898438 19.068359 L 4.7714844 19.068359 L 4.7714844 22.029297 L 20.771484 22.029297 L 20.771484 6.0292969 L 17.089844 6.0292969 L 17.089844 3.0683594 L 12.089844 3.0683594 L 12.089844 0.068359375 L 6.0898438 0.068359375 z M 8.0898438 2.0683594 L 10.089844 2.0683594 L 10.089844 3.0683594 L 8.0898438 3.0683594 L 8.0898438 2.0683594 z M 3.0898438 5.0683594 L 6.0898438 5.0683594 L 12.089844 5.0683594 L 15.089844 5.0683594 L 15.089844 6.0292969 L 4.7714844 6.0292969 L 4.7714844 7.0292969 L 4.7714844 17.068359 L 3.0898438 17.068359 L 3.0898438 5.0683594 z M 6.7714844 8.0292969 L 18.771484 8.0292969 L 18.771484 20.029297 L 6.7714844 20.029297 L 6.7714844 8.0292969 z M 8.390625 9.5292969 L 8.390625 11.529297 L 17.140625 11.529297 L 17.140625 9.5292969 L 8.390625 9.5292969 z M 8.390625 13.029297 L 8.390625 15.029297 L 17.140625 15.029297 L 17.140625 13.029297 L 8.390625 13.029297 z M 8.390625 16.529297 L 8.390625 18.529297 L 17.140625 18.529297 L 17.140625 16.529297 L 8.390625 16.529297 z "
     id="rect8" />
</svg>
