<?xml version="1.0" encoding="UTF-8" standalone="no"?>
<!-- Generator: Adobe Illustrator 19.0.0, SVG Export Plug-In . SVG Version: 6.00 Build 0)  -->

<svg
   xmlns:dc="http://purl.org/dc/elements/1.1/"
   xmlns:cc="http://creativecommons.org/ns#"
   xmlns:rdf="http://www.w3.org/1999/02/22-rdf-syntax-ns#"
   xmlns:svg="http://www.w3.org/2000/svg"
   xmlns="http://www.w3.org/2000/svg"
   xmlns:sodipodi="http://sodipodi.sourceforge.net/DTD/sodipodi-0.dtd"
   xmlns:inkscape="http://www.inkscape.org/namespaces/inkscape"
   width="22"
   height="22"
   id="Layer_1"
   version="1.1"
   inkscape:version="0.92.3 (2405546, 2018-03-11)"
   sodipodi:docname="cockpit.svg"
   inkscape:export-filename="\\nas\projects\Icons\Basis\dashBoard22.png"
   inkscape:export-xdpi="5.8000002"
   inkscape:export-ydpi="5.8000002">
  <metadata
     id="metadata19">
    <rdf:RDF>
      <cc:Work
         rdf:about="">
        <dc:format>image/svg+xml</dc:format>
        <dc:type
           rdf:resource="http://purl.org/dc/dcmitype/StillImage" />
        <dc:title></dc:title>
      </cc:Work>
    </rdf:RDF>
  </metadata>
  <defs
     id="defs17" />
  <sodipodi:namedview
     pagecolor="#ffffff"
     bordercolor="#666666"
     borderopacity="1"
     objecttolerance="10"
     gridtolerance="10"
     guidetolerance="10"
     inkscape:pageopacity="0"
     inkscape:pageshadow="2"
     inkscape:window-width="1920"
     inkscape:window-height="1017"
     id="namedview15"
     showgrid="false"
     inkscape:zoom="32"
     inkscape:cx="1.0911576"
     inkscape:cy="10.927674"
     inkscape:window-x="-8"
     inkscape:window-y="-8"
     inkscape:window-maximized="1"
     inkscape:current-layer="Layer_1"
     fit-margin-top="0"
     fit-margin-left="0"
     fit-margin-bottom="0"
     fit-margin-right="0"
     inkscape:pagecheckerboard="true" />
  <path
     style="color:#000000;font-style:normal;font-variant:normal;font-weight:normal;font-stretch:normal;font-size:medium;line-height:normal;font-family:sans-serif;font-variant-ligatures:normal;font-variant-position:normal;font-variant-caps:normal;font-variant-numeric:normal;font-variant-alternates:normal;font-feature-settings:normal;text-indent:0;text-align:start;text-decoration:none;text-decoration-line:none;text-decoration-style:solid;text-decoration-color:#000000;letter-spacing:normal;word-spacing:normal;text-transform:none;writing-mode:lr-tb;direction:ltr;text-orientation:mixed;dominant-baseline:auto;baseline-shift:baseline;text-anchor:start;white-space:normal;shape-padding:0;clip-rule:nonzero;display:inline;overflow:visible;visibility:visible;opacity:1;isolation:auto;mix-blend-mode:normal;color-interpolation:sRGB;color-interpolation-filters:linearRGB;solid-color:#000000;solid-opacity:1;vector-effect:none;fill:#008fb8;fill-opacity:1;fill-rule:nonzero;stroke:none;stroke-width:2;stroke-linecap:butt;stroke-linejoin:miter;stroke-miterlimit:4;stroke-dasharray:none;stroke-dashoffset:0;stroke-opacity:1;color-rendering:auto;image-rendering:auto;shape-rendering:auto;text-rendering:auto;enable-background:accumulate"
     d="M 11.064453 1.7128906 C 6.5677265 1.7128906 2.8985493 5.3412628 2.8222656 9.8203125 C 1.3251959 10.919909 0.45890681 12.260652 0.22265625 13.634766 C -0.04501381 15.191626 0.50941294 16.708788 1.5449219 17.796875 C 3.4554425 19.804403 7.0244117 20.395214 10.378906 18.175781 C 10.605482 18.194605 10.833156 18.210938 11.064453 18.210938 C 11.220623 18.210938 11.37327 18.196137 11.527344 18.1875 C 14.932992 20.492749 18.573281 19.902196 20.513672 17.863281 C 21.556426 16.767581 22.113234 15.239282 21.84375 13.671875 C 21.610499 12.315209 20.765595 10.990339 19.310547 9.8945312 C 19.27424 5.38108 15.586223 1.7128906 11.064453 1.7128906 z M 11.619141 3.7402344 C 12.874525 3.8497639 14.019254 4.3272981 14.949219 5.0644531 L 14.355469 5.6582031 A 0.60006002 0.60006002 0 1 0 15.203125 6.5058594 L 15.8125 5.8964844 C 16.606849 6.8241135 17.135513 7.9867659 17.275391 9.2714844 L 16.558594 9.2714844 A 0.60006002 0.60006002 0 1 0 16.558594 10.470703 L 17.289062 10.470703 C 17.182577 11.798269 16.669202 13.007432 15.867188 13.96875 L 15.265625 13.367188 A 0.60006002 0.60006002 0 0 0 14.835938 13.185547 A 0.60006002 0.60006002 0 0 0 14.417969 14.216797 L 15.011719 14.810547 C 14.188095 15.480718 13.188883 15.94088 12.091797 16.121094 C 12.072121 16.105255 12.052901 16.092278 12.033203 16.076172 L 11.984375 16.136719 C 11.853256 16.15594 11.721581 16.174535 11.587891 16.185547 L 11.587891 15.257812 A 0.60006002 0.60006002 0 0 0 10.978516 14.650391 A 0.60006002 0.60006002 0 0 0 10.386719 15.257812 L 10.386719 16.173828 C 10.270063 16.161351 10.15562 16.139847 10.041016 16.121094 L 9.953125 16.013672 C 9.9185017 16.041983 9.8841612 16.064321 9.8496094 16.091797 C 8.8487179 15.896257 7.938053 15.461181 7.171875 14.851562 L 7.7128906 14.310547 A 0.60006002 0.60006002 0 0 0 7.2773438 13.28125 A 0.60006002 0.60006002 0 0 0 6.8632812 13.460938 L 6.3066406 14.017578 C 5.4802366 13.048168 4.9482126 11.821754 4.8398438 10.470703 L 5.5097656 10.470703 A 0.60006002 0.60006002 0 1 0 5.5097656 9.2714844 L 4.8535156 9.2714844 C 4.9823582 8.088118 5.4427624 7.0093549 6.1347656 6.1210938 L 6.6445312 6.6308594 A 0.60007444 0.60007444 0 1 0 7.4941406 5.7832031 L 6.9589844 5.2480469 C 7.9039002 4.4255008 9.0971119 3.8785612 10.417969 3.7441406 L 10.417969 4.5859375 A 0.600586 0.600586 0 1 0 11.619141 4.5859375 L 11.619141 3.7402344 z M 9.3535156 4.8339844 L 8.4921875 10.042969 L 8.0273438 10.042969 A 0.9003905 0.9003905 0 1 0 8.0273438 11.84375 L 10.017578 11.84375 L 10.167969 10.935547 L 11.646484 14.164062 L 12.691406 11.326172 L 12.818359 11.541016 L 14.556641 11.541016 A 0.9003908 0.9003908 0 0 0 14.556641 9.7402344 L 13.849609 9.7402344 L 12.316406 7.1308594 L 11.464844 9.4453125 L 9.3535156 4.8339844 z M 3.1308594 12.197266 C 3.778714 14.486309 5.3906982 16.370879 7.5 17.388672 C 7.1721802 17.491717 6.8577009 17.546513 6.5488281 17.583984 L 6.5117188 17.164062 A 0.5545571 0.5545571 0 0 0 5.9570312 16.648438 A 0.5545571 0.5545571 0 0 0 5.40625 17.259766 L 5.4355469 17.585938 C 4.7653773 17.504901 4.1681378 17.288266 3.6757812 16.96875 L 4.1191406 16.525391 A 0.5545571 0.5545571 0 0 0 3.7167969 15.574219 A 0.5545571 0.5545571 0 0 0 3.3359375 15.742188 L 2.8476562 16.230469 C 2.4326708 15.72938 2.1882984 15.155515 2.1640625 14.541016 L 2.7382812 14.591797 A 0.55480195 0.55480195 0 1 0 2.8339844 13.486328 L 2.3535156 13.443359 C 2.5039623 13.037436 2.7409018 12.618993 3.1308594 12.197266 z M 18.978516 12.277344 C 19.328915 12.669523 19.555288 13.058747 19.701172 13.4375 L 19.146484 13.486328 A 0.55480198 0.55480198 0 1 0 19.242188 14.591797 L 19.898438 14.535156 C 19.884692 15.178487 19.639797 15.780844 19.205078 16.302734 L 18.644531 15.742188 A 0.5545571 0.5545571 0 0 0 18.248047 15.574219 A 0.5545571 0.5545571 0 0 0 17.861328 16.525391 L 18.375 17.039062 C 17.863245 17.371353 17.239885 17.594488 16.539062 17.669922 L 16.574219 17.259766 A 0.5545571 0.5545571 0 0 0 16.005859 16.650391 A 0.5545571 0.5545571 0 0 0 15.816406 16.691406 C 17.316314 15.628447 18.448397 14.081056 18.978516 12.277344 z M 15.605469 16.839844 A 0.5545571 0.5545571 0 0 0 15.46875 17.164062 L 15.425781 17.658203 C 15.121174 17.618397 14.810835 17.559811 14.488281 17.457031 C 14.877334 17.278356 15.251541 17.07447 15.605469 16.839844 z "
     id="path3814-8" />
</svg>
