<?xml version="1.0" encoding="UTF-8" standalone="no"?>
<!-- Created with Inkscape (http://www.inkscape.org/) -->

<svg
   xmlns:dc="http://purl.org/dc/elements/1.1/"
   xmlns:cc="http://creativecommons.org/ns#"
   xmlns:rdf="http://www.w3.org/1999/02/22-rdf-syntax-ns#"
   xmlns:svg="http://www.w3.org/2000/svg"
   xmlns="http://www.w3.org/2000/svg"
   xmlns:sodipodi="http://sodipodi.sourceforge.net/DTD/sodipodi-0.dtd"
   xmlns:inkscape="http://www.inkscape.org/namespaces/inkscape"
   width="10"
   height="10"
   viewBox="0 0 2.645835 2.6458332"
   version="1.1"
   id="svg8"
   inkscape:version="0.92.3 (2405546, 2018-03-11)"
   sodipodi:docname="columns.svg">
  <defs
     id="defs2" />
  <sodipodi:namedview
     id="base"
     pagecolor="#ffffff"
     bordercolor="#666666"
     borderopacity="1.0"
     inkscape:pageopacity="0.0"
     inkscape:pageshadow="2"
     inkscape:zoom="63.35677"
     inkscape:cx="3.8967507"
     inkscape:cy="6.9362136"
     inkscape:document-units="mm"
     inkscape:current-layer="svg8"
     showgrid="false"
     fit-margin-top="0"
     fit-margin-left="0"
     fit-margin-right="0"
     fit-margin-bottom="0"
     inkscape:window-width="1680"
     inkscape:window-height="987"
     inkscape:window-x="1912"
     inkscape:window-y="-8"
     inkscape:window-maximized="1"
     units="px" />
  <metadata
     id="metadata5">
    <rdf:RDF>
      <cc:Work
         rdf:about="">
        <dc:format>image/svg+xml</dc:format>
        <dc:type
           rdf:resource="http://purl.org/dc/dcmitype/StillImage" />
        <dc:title />
      </cc:Work>
    </rdf:RDF>
  </metadata>
  <path
     style="display:inline;stroke-width:0.04155938;stroke:none;stroke-opacity:1;fill:#008fb8;fill-opacity:1"
     d="M 0.51953125 0.017578125 C 0.24377541 0.017578125 0.021484375 0.20994276 0.021484375 0.44921875 L 0.021484375 8.2246094 C 0.021484375 8.4638837 0.24377522 8.65625 0.51953125 8.65625 L 9.4785156 8.65625 C 9.75427 8.65625 9.9765625 8.4638864 9.9765625 8.2246094 L 9.9765625 0.44921875 C 9.9765625 0.20994291 9.75427 0.017578125 9.4785156 0.017578125 L 0.51953125 0.017578125 z M 1.2871094 0.6875 L 4.65625 0.6875 L 4.65625 8.0292969 L 1.2871094 8.0292969 C 1.0113532 8.0292969 0.7890625 7.8369336 0.7890625 7.5976562 L 0.7890625 1.1191406 C 0.7890625 0.87986516 1.011353 0.6875 1.2871094 0.6875 z M 5.4140625 0.6875 L 8.7519531 0.6875 C 9.0277112 0.6875 9.25 0.87986497 9.25 1.1191406 L 9.25 7.5976562 C 9.25 7.8369306 9.0277101 8.0292969 8.7519531 8.0292969 L 5.4140625 8.0292969 L 5.4140625 0.6875 z "
     transform="scale(0.26458333)"
     id="rect3724-3-8" />
</svg>
