<?xml version="1.0" encoding="UTF-8" standalone="no"?>
<!-- Generator: Adobe Illustrator 19.0.0, SVG Export Plug-In . SVG Version: 6.00 Build 0)  -->

<svg
   xmlns:dc="http://purl.org/dc/elements/1.1/"
   xmlns:cc="http://creativecommons.org/ns#"
   xmlns:rdf="http://www.w3.org/1999/02/22-rdf-syntax-ns#"
   xmlns:svg="http://www.w3.org/2000/svg"
   xmlns="http://www.w3.org/2000/svg"
   xmlns:sodipodi="http://sodipodi.sourceforge.net/DTD/sodipodi-0.dtd"
   xmlns:inkscape="http://www.inkscape.org/namespaces/inkscape"
   width="341.65268"
   height="341.04385"
   id="Layer_1"
   version="1.1"
   inkscape:version="0.92.3 (2405546, 2018-03-11)"
   sodipodi:docname="dashboard-alt.svg"
   inkscape:export-filename="\\nas\projects\Icons\Basis\dashBoard22.png"
   inkscape:export-xdpi="5.8000002"
   inkscape:export-ydpi="5.8000002">
  <metadata
     id="metadata19">
    <rdf:RDF>
      <cc:Work
         rdf:about="">
        <dc:format>image/svg+xml</dc:format>
        <dc:type
           rdf:resource="http://purl.org/dc/dcmitype/StillImage" />
        <dc:title />
      </cc:Work>
    </rdf:RDF>
  </metadata>
  <defs
     id="defs17" />
  <sodipodi:namedview
     pagecolor="#ffffff"
     bordercolor="#666666"
     borderopacity="1"
     objecttolerance="10"
     gridtolerance="10"
     guidetolerance="10"
     inkscape:pageopacity="0"
     inkscape:pageshadow="2"
     inkscape:window-width="1680"
     inkscape:window-height="987"
     id="namedview15"
     showgrid="false"
     inkscape:zoom="1.4142136"
     inkscape:cx="-52.972418"
     inkscape:cy="105.73022"
     inkscape:window-x="1912"
     inkscape:window-y="-8"
     inkscape:window-maximized="1"
     inkscape:current-layer="Layer_1"
     fit-margin-top="0"
     fit-margin-left="0"
     fit-margin-bottom="0"
     fit-margin-right="0"
     inkscape:pagecheckerboard="true" />
  <path
     style="color:#000000;font-style:normal;font-variant:normal;font-weight:normal;font-stretch:normal;font-size:medium;line-height:normal;font-family:sans-serif;font-variant-ligatures:normal;font-variant-position:normal;font-variant-caps:normal;font-variant-numeric:normal;font-variant-alternates:normal;font-feature-settings:normal;text-indent:0;text-align:start;text-decoration:none;text-decoration-line:none;text-decoration-style:solid;text-decoration-color:#000000;letter-spacing:normal;word-spacing:normal;text-transform:none;writing-mode:lr-tb;direction:ltr;text-orientation:mixed;dominant-baseline:auto;baseline-shift:baseline;text-anchor:start;white-space:normal;shape-padding:0;clip-rule:nonzero;display:inline;overflow:visible;visibility:visible;opacity:1;isolation:auto;mix-blend-mode:normal;color-interpolation:sRGB;color-interpolation-filters:linearRGB;solid-color:#000000;solid-opacity:1;vector-effect:none;fill:#008fb8;fill-opacity:1;fill-rule:nonzero;stroke:none;stroke-width:17.26134491;stroke-linecap:round;stroke-linejoin:miter;stroke-miterlimit:4;stroke-dasharray:none;stroke-dashoffset:0;stroke-opacity:1;color-rendering:auto;image-rendering:auto;shape-rendering:auto;text-rendering:auto;enable-background:accumulate"
     d="M 171.27539 32.892578 C 104.12289 32.892578 49.354998 87.009137 48.277344 153.91016 C 20.239783 172.03325 4.921123 194.57692 1.0175781 217.28125 C -3.0050473 240.6782 5.2499546 263.41237 20.976562 279.9375 C 51.668512 312.18783 111.02867 321.3613 166.41211 278.83594 C 168.02632 278.89906 169.64602 278.94141 171.27539 278.94141 C 172.61633 278.94141 173.95051 278.91197 175.28125 278.86914 C 230.65276 321.35778 289.99156 312.17972 320.67578 279.9375 C 336.40239 263.41237 344.65739 240.6782 340.63477 217.28125 C 336.77384 194.82483 321.73999 172.528 294.2832 154.50781 C 293.52319 87.331787 238.62771 32.892578 171.27539 32.892578 z M 177.68164 53.474609 C 201.39297 54.926025 222.89052 64.376838 239.52539 79.173828 L 233.53711 85.162109 A 6.4195066 6.4195066 0 1 0 242.61328 94.238281 L 248.56836 88.285156 C 262.7592 104.49893 271.91682 125.23632 273.62891 148.0957 L 265.75 148.0957 A 6.4195066 6.4195066 0 1 0 265.75 160.93164 L 273.79883 160.93164 C 272.63894 185.20097 263.10181 207.22129 248.00781 224.18359 L 242.61328 218.78906 A 6.4195066 6.4195066 0 0 0 238.00781 216.84375 A 6.4195066 6.4195066 0 0 0 233.53711 227.86523 L 238.89453 233.22266 C 222.34885 247.69888 201.09334 256.92825 177.68164 258.36133 L 177.68164 251.00195 A 6.4195066 6.4195066 0 0 0 171.16602 244.49219 A 6.4195066 6.4195066 0 0 0 164.84375 251.00195 L 164.84375 258.35938 C 141.4357 256.92078 120.18421 247.68873 103.64258 233.21094 L 108.98633 227.86523 A 6.4195066 6.4195066 0 0 0 104.32227 216.8457 A 6.4195066 6.4195066 0 0 0 99.910156 218.78906 L 94.53125 224.16797 C 79.444743 207.20762 69.911509 185.19404 68.751953 160.93164 L 76.773438 160.93164 A 6.4195066 6.4195066 0 1 0 76.773438 148.0957 L 68.921875 148.0957 C 70.633476 125.24269 79.786619 104.51061 93.970703 88.298828 L 99.910156 94.238281 A 6.4195066 6.4195066 0 1 0 108.98633 85.162109 L 103.00977 79.185547 C 119.6407 64.38642 141.13557 54.933604 164.84375 53.476562 L 164.84375 62.025391 A 6.4195066 6.4195066 0 1 0 177.68164 62.025391 L 177.68164 53.474609 z M 146.62891 87.673828 L 133.69922 165.88867 L 120.25391 165.88867 A 9.9256779 9.9256779 0 1 0 120.25391 185.73828 L 150.53516 185.73828 L 155.62109 154.97461 L 184.10156 217.16211 L 202.06836 168.36914 L 209.10156 180.3457 L 236.56055 180.3457 A 9.9256779 9.9256779 0 1 0 236.56055 160.49609 L 220.46484 160.49609 L 197.93945 122.13867 L 182.10547 165.13672 L 146.62891 87.673828 z M 50.152344 177.51562 C 58.372351 223.72251 92.485921 261.09213 136.89453 274.04297 C 125.10426 280.64181 113.61306 284.58939 102.72461 286.39062 L 101.11719 268.01367 A 8.6315355 8.6315355 0 0 0 92.488281 260.01367 A 8.6315355 8.6315355 0 0 0 83.919922 269.51758 L 85.492188 287.48633 C 70.591458 286.90474 57.37165 282.27555 46.804688 275.17383 L 63.884766 258.0957 A 8.6315355 8.6315355 0 0 0 57.613281 243.2793 A 8.6315355 8.6315355 0 0 0 51.679688 245.88867 L 33.810547 263.75781 C 24.488163 253.02038 19.589541 239.90248 20.490234 226.06055 L 42.376953 227.97461 A 8.6315355 8.6315355 0 1 0 43.882812 210.7793 L 24.503906 209.08398 C 28.872856 198.54589 36.983044 187.74073 50.152344 177.51562 z M 292.28516 178.13477 C 304.99009 188.17648 312.86749 198.75815 317.14844 209.08398 L 297.76953 210.7793 A 8.6315355 8.6315355 0 1 0 299.27539 227.97461 L 321.16211 226.06055 C 322.0628 239.90248 317.16418 253.02038 307.8418 263.75781 L 289.97266 245.88867 A 8.6315355 8.6315355 0 0 0 284.03906 243.2793 A 8.6315355 8.6315355 0 0 0 277.76758 258.0957 L 294.84766 275.17383 C 284.28069 282.27555 271.06089 286.90474 256.16016 287.48633 L 257.73242 269.51758 A 8.6315355 8.6315355 0 0 0 249.16406 260.01367 A 8.6315355 8.6315355 0 0 0 240.53516 268.01367 L 238.92773 286.39062 C 228.13534 284.6051 216.74938 280.71326 205.06836 274.21875 C 249.56581 261.48503 283.83376 224.25981 292.28516 178.13477 z "
     id="path962" />
  <g
     inkscape:groupmode="layer"
     id="layer4"
     inkscape:label="Dashboard"
     style="display:inline"
     transform="translate(48.509863,42.292529)"
     sodipodi:insensitive="true" />
</svg>
