<?xml version="1.0" encoding="UTF-8" standalone="no"?>
<svg
   xmlns:dc="http://purl.org/dc/elements/1.1/"
   xmlns:cc="http://creativecommons.org/ns#"
   xmlns:rdf="http://www.w3.org/1999/02/22-rdf-syntax-ns#"
   xmlns:svg="http://www.w3.org/2000/svg"
   xmlns="http://www.w3.org/2000/svg"
   xmlns:sodipodi="http://sodipodi.sourceforge.net/DTD/sodipodi-0.dtd"
   xmlns:inkscape="http://www.inkscape.org/namespaces/inkscape"
   id="visual"
   viewBox="0 0 22 22"
   version="1.1"
   sodipodi:docname="dashboard_path.svg"
   inkscape:version="0.92.3 (2405546, 2018-03-11)">
  <metadata
     id="metadata12413">
    <rdf:RDF>
      <cc:Work
         rdf:about="">
        <dc:format>image/svg+xml</dc:format>
        <dc:type
           rdf:resource="http://purl.org/dc/dcmitype/StillImage" />
        <dc:title />
      </cc:Work>
    </rdf:RDF>
  </metadata>
  <sodipodi:namedview
     pagecolor="#ffffff"
     bordercolor="#666666"
     borderopacity="1"
     objecttolerance="10"
     gridtolerance="10"
     guidetolerance="10"
     inkscape:pageopacity="0"
     inkscape:pageshadow="2"
     inkscape:window-width="1920"
     inkscape:window-height="1017"
     id="namedview12411"
     showgrid="false"
     inkscape:zoom="5.6568543"
     inkscape:cx="65.591879"
     inkscape:cy="-30.453441"
     inkscape:window-x="-8"
     inkscape:window-y="-8"
     inkscape:window-maximized="1"
     inkscape:current-layer="visual" />
  <defs
     id="defs12388">
    <style
       id="style12386">.cls-1,.cls-2,.cls-3{fill:none;stroke:#d9d9d9;stroke-width:2px;}.cls-1{stroke-linecap:round;stroke-linejoin:round;}.cls-2,.cls-3{stroke-miterlimit:10;}.cls-3{stroke-linecap:square;}</style>
  </defs>
  <path
     id="polyline12408"
     style="color:#000000;font-style:normal;font-variant:normal;font-weight:normal;font-stretch:normal;font-size:medium;line-height:normal;font-family:sans-serif;font-variant-ligatures:normal;font-variant-position:normal;font-variant-caps:normal;font-variant-numeric:normal;font-variant-alternates:normal;font-feature-settings:normal;text-indent:0;text-align:start;text-decoration:none;text-decoration-line:none;text-decoration-style:solid;text-decoration-color:#000000;letter-spacing:normal;word-spacing:normal;text-transform:none;writing-mode:lr-tb;direction:ltr;text-orientation:mixed;dominant-baseline:auto;baseline-shift:baseline;text-anchor:start;white-space:normal;shape-padding:0;clip-rule:nonzero;display:inline;overflow:visible;visibility:visible;opacity:1;isolation:auto;mix-blend-mode:normal;color-interpolation:sRGB;color-interpolation-filters:linearRGB;solid-color:#000000;solid-opacity:1;vector-effect:none;fill:#008fb8;fill-opacity:1;fill-rule:nonzero;stroke:none;stroke-width:2.31307769px;stroke-linecap:butt;stroke-linejoin:miter;stroke-miterlimit:10;stroke-dasharray:none;stroke-dashoffset:0;stroke-opacity:1;color-rendering:auto;image-rendering:auto;shape-rendering:auto;text-rendering:auto;enable-background:accumulate"
     d="m 6.8490722,12.691375 -6.10119467,2.441834 0.85836887,2.14592 5.4641945,-2.184322 5.4461251,1.088774 0.451771,-2.267902 z m 8.2056008,-2.267589 v 2.312264 h 1.158207 4.624531 1.158208 V 10.423786 H 20.837411 16.21288 Z m 0,4.626606 v 2.312263 h 1.158207 4.624531 1.158208 V 15.050392 H 20.837411 16.21288 Z m 0,4.624528 v 2.314342 h 1.158207 4.624531 1.158208 V 19.67492 H 20.837411 16.21288 Z m 0,-18.5043455 v 1.1561324 5.782738 h 6.940946 V 1.1705745 Z m 2.31434,2.3143404 h 2.312265 V 5.79718 H 17.369013 Z M 10.430144,18.518788 v 3.470474 h 2.312263 V 18.518788 Z M 5.8035373,17.362655 v 4.626607 h 2.312265 v -4.626607 z m -4.6266055,1.156133 v 3.470474 H 3.4891966 V 18.518788 Z M 5.8097643,0.01444194 C 1.3306754,-0.01029634 -1.495795,5.0159858 0.85313164,8.8296925 3.2020583,12.643399 8.961987,12.382164 10.95528,8.3709757 A 1.1566547,1.1566547 0 0 0 10.438446,6.8225469 L 6.9596696,5.0831592 V 1.1705745 A 1.1566547,1.1566547 0 0 0 5.8097643,0.01444194 Z M 4.6474047,2.6297506 V 5.79718 a 1.1566547,1.1566547 0 0 0 0.6392978,1.0336694 l 2.8062677,1.403134 C 6.5706202,9.7161997 4.0545476,9.6171901 2.8229157,7.6175177 1.5904726,5.616529 2.6360454,3.3205613 4.6474047,2.6297506 Z M 5.8097643,0.01444194 A 1.1566547,1.1566547 0 0 0 4.6474047,1.1705745 V 5.79718 A 1.1566547,1.1566547 0 0 0 5.2867025,6.8308494 L 9.4027,8.8898861 A 1.1566547,1.1566547 0 0 0 10.95528,8.3709757 C 12.838219,4.5818589 10.040877,0.03781065 5.8097643,0.01444194 Z M 6.9596696,2.6339019 C 8.455723,3.176284 9.3263012,4.5905152 9.1349423,6.1707955 L 6.9596696,5.0831592 Z"
     inkscape:connector-curvature="0" />
</svg>
