<?xml version="1.0" encoding="UTF-8" standalone="no"?>
<!-- Created with Inkscape (http://www.inkscape.org/) -->

<svg
   xmlns:dc="http://purl.org/dc/elements/1.1/"
   xmlns:cc="http://creativecommons.org/ns#"
   xmlns:rdf="http://www.w3.org/1999/02/22-rdf-syntax-ns#"
   xmlns:svg="http://www.w3.org/2000/svg"
   xmlns="http://www.w3.org/2000/svg"
   xmlns:sodipodi="http://sodipodi.sourceforge.net/DTD/sodipodi-0.dtd"
   xmlns:inkscape="http://www.inkscape.org/namespaces/inkscape"
   width="22mm"
   height="22mm"
   viewBox="0 0 22 22"
   version="1.1"
   id="svg8"
   inkscape:version="0.92.3 (2405546, 2018-03-11)"
   sodipodi:docname="debug-alt.svg">
  <defs
     id="defs2" />
  <sodipodi:namedview
     id="base"
     pagecolor="#ffffff"
     bordercolor="#666666"
     borderopacity="1.0"
     inkscape:pageopacity="0.0"
     inkscape:pageshadow="2"
     inkscape:zoom="1.979899"
     inkscape:cx="197.52605"
     inkscape:cy="-34.173583"
     inkscape:document-units="mm"
     inkscape:current-layer="layer1"
     showgrid="false"
     inkscape:pagecheckerboard="true"
     inkscape:window-width="1680"
     inkscape:window-height="987"
     inkscape:window-x="1912"
     inkscape:window-y="-8"
     inkscape:window-maximized="1" />
  <metadata
     id="metadata5">
    <rdf:RDF>
      <cc:Work
         rdf:about="">
        <dc:format>image/svg+xml</dc:format>
        <dc:type
           rdf:resource="http://purl.org/dc/dcmitype/StillImage" />
        <dc:title></dc:title>
      </cc:Work>
    </rdf:RDF>
  </metadata>
  <g
     inkscape:label="Ebene 1"
     inkscape:groupmode="layer"
     id="layer1"
     transform="translate(0,-275)">
    <path
       style="display:inline;fill:#008fb8;fill-opacity:1;fill-rule:nonzero;stroke:none;stroke-width:0.49041358"
       d="m 0.04091292,276.41845 v 4.00744 H 9.4066623 c 0.4097527,-0.41908 0.9142167,-0.67703 1.4683677,-0.67703 h 6.063121 c 0.266547,0 0.517756,0.0726 0.757651,0.1787 v -3.50911 z m 0,8.37884 v 4.37139 H 8.4229625 v -4.37139 z"
       id="path1289-1"
       inkscape:export-filename="D:\AudiDes20\icons\I18N-Debugger22.png"
       inkscape:export-xdpi="31"
       inkscape:export-ydpi="31"
       inkscape:connector-curvature="0" />
    <path
       style="display:inline;fill:#e4246f;fill-opacity:1;fill-rule:nonzero;stroke:none;stroke-width:0.48440087"
       d="m 12.251578,280.62013 c -1.549061,0 -2.7961407,1.08022 -2.7961407,2.42201 v 11.05891 c 0,1.3418 1.2470797,2.42202 2.7961407,2.42202 h 6.913895 c 1.549061,0 2.796141,-1.08022 2.796141,-2.42202 v -11.05891 c 0,-1.34179 -1.24708,-2.42201 -2.796141,-2.42201 z m 1.183992,1.34915 c 0.620391,0 1.105349,0.19174 1.454865,0.57522 0.416509,0.45412 0.624765,1.20722 0.624765,2.25928 0,1.04954 -0.20971,1.80388 -0.62913,2.26305 -0.346606,0.37845 -0.830109,0.56767 -1.4505,0.56767 -0.623308,0 -1.125737,-0.20689 -1.507295,-0.62065 -0.381556,-0.41628 -0.572335,-1.15676 -0.572335,-2.22144 0,-1.04448 0.209711,-1.79631 0.629132,-2.25548 0.346604,-0.37844 0.830104,-0.56765 1.450498,-0.56765 z m 5.050529,0 h 0.996126 v 5.5706 h -1.22768 v -4.00766 c -0.44855,0.3633 -0.977195,0.63199 -1.585937,0.80608 v -0.96503 c 0.320393,-0.0908 0.668451,-0.26237 1.044186,-0.51466 0.375728,-0.25482 0.6335,-0.55127 0.773305,-0.88933 z m -5.050529,0.88175 c -0.148547,0 -0.281074,0.0416 -0.397576,0.12487 -0.1165,0.0808 -0.206799,0.22707 -0.270877,0.43899 -0.08446,0.27501 -0.126698,0.73796 -0.126698,1.38887 0,0.65092 0.03787,1.09873 0.113601,1.34346 0.07573,0.2422 0.170387,0.40367 0.283982,0.48439 0.116499,0.0807 0.249028,0.12107 0.397576,0.12107 0.148542,0 0.281067,-0.0403 0.397577,-0.12107 0.116499,-0.0833 0.206798,-0.23083 0.270875,-0.44276 0.08446,-0.27247 0.126698,-0.73417 0.126698,-1.38509 0,-0.65091 -0.03786,-1.09746 -0.113587,-1.33967 -0.07573,-0.24473 -0.171846,-0.40745 -0.288356,-0.48819 -0.113588,-0.0833 -0.244661,-0.12487 -0.393205,-0.12487 z m 0,6.48077 c 0.620391,0 1.105349,0.19172 1.454865,0.57521 0.416509,0.45413 0.624765,1.20723 0.624765,2.25928 0,1.04954 -0.20971,1.80389 -0.62913,2.26306 -0.346606,0.37845 -0.830109,0.56766 -1.4505,0.56766 -0.623308,0 -1.125737,-0.20688 -1.507295,-0.62064 -0.381556,-0.41628 -0.572335,-1.15676 -0.572335,-2.22144 0,-1.04448 0.209711,-1.79631 0.629132,-2.25548 0.346604,-0.37844 0.830104,-0.56765 1.450498,-0.56765 z m 5.050529,0 h 0.996126 v 5.5706 h -1.22768 v -4.00767 c -0.44855,0.36331 -0.977195,0.632 -1.585937,0.80609 v -0.96503 c 0.320393,-0.0908 0.668451,-0.26237 1.044186,-0.51468 0.375728,-0.25481 0.6335,-0.55125 0.773305,-0.88931 z m -5.050529,0.88175 c -0.148547,0 -0.281074,0.0416 -0.397576,0.12487 -0.1165,0.0808 -0.206799,0.22707 -0.270877,0.43899 -0.08446,0.27499 -0.126698,0.73795 -0.126698,1.38887 0,0.65091 0.03787,1.09873 0.113601,1.34344 0.07573,0.24222 0.170387,0.40368 0.283982,0.48441 0.116499,0.0808 0.249028,0.12106 0.397576,0.12106 0.148542,0 0.281067,-0.0403 0.397577,-0.12106 0.116499,-0.0833 0.206798,-0.23083 0.270875,-0.44276 0.08446,-0.27248 0.126698,-0.73418 0.126698,-1.38509 0,-0.65092 -0.03786,-1.09747 -0.113587,-1.33967 -0.07573,-0.24473 -0.171846,-0.40746 -0.288356,-0.48819 -0.113588,-0.0833 -0.244661,-0.12487 -0.393205,-0.12487 z"
       id="path1292-3"
       inkscape:connector-curvature="0"
       inkscape:export-filename="D:\AudiDes20\icons\I18N-Debugger22.png"
       inkscape:export-xdpi="31"
       inkscape:export-ydpi="31" />
  </g>
</svg>
