<?xml version="1.0" encoding="UTF-8" standalone="no"?>
<svg
   xmlns:dc="http://purl.org/dc/elements/1.1/"
   xmlns:cc="http://creativecommons.org/ns#"
   xmlns:rdf="http://www.w3.org/1999/02/22-rdf-syntax-ns#"
   xmlns:svg="http://www.w3.org/2000/svg"
   xmlns="http://www.w3.org/2000/svg"
   xmlns:sodipodi="http://sodipodi.sourceforge.net/DTD/sodipodi-0.dtd"
   xmlns:inkscape="http://www.inkscape.org/namespaces/inkscape"
   id="visual"
   viewBox="0 0 120 120"
   version="1.1"
   sodipodi:docname="themeReload22_path.svg"
   inkscape:version="0.92.3 (2405546, 2018-03-11)">
  <metadata
     id="metadata21928">
    <rdf:RDF>
      <cc:Work
         rdf:about="">
        <dc:format>image/svg+xml</dc:format>
        <dc:type
           rdf:resource="http://purl.org/dc/dcmitype/StillImage" />
        <dc:title />
      </cc:Work>
    </rdf:RDF>
  </metadata>
  <sodipodi:namedview
     pagecolor="#ffffff"
     bordercolor="#666666"
     borderopacity="1"
     objecttolerance="10"
     gridtolerance="10"
     guidetolerance="10"
     inkscape:pageopacity="0"
     inkscape:pageshadow="2"
     inkscape:window-width="1920"
     inkscape:window-height="1017"
     id="namedview21926"
     showgrid="false"
     inkscape:zoom="1.9666667"
     inkscape:cx="-162.20339"
     inkscape:cy="60.000002"
     inkscape:window-x="-8"
     inkscape:window-y="-8"
     inkscape:window-maximized="1"
     inkscape:current-layer="visual" />
  <defs
     id="defs21915">
    <style
       id="style21913">.cls-1{fill:#d9d9d9;}</style>
  </defs>
  <path
     id="path21923"
     style="fill:#008fb8;stroke-width:1.14043558;fill-opacity:1"
     d="M 17.516099,27.107476 A 21.668275,21.668275 0 0 1 54.397785,23.001908 L 61.63955,17.459392 A 30.79176,30.79176 0 0 0 7.7881821,27.039051 H 2.348305 L 12.304307,44.39648 22.36295,27.118881 Z M 72.028917,45.28602 62.072916,27.905782 52.014273,45.20619 h 4.858256 a 21.668275,21.668275 0 0 1 -37.109774,3.797649 l -7.355809,5.405665 A 30.79176,30.79176 0 0 0 66.589041,45.28602 Z m -38.4897,62.33622 c -7.5953,-0.19389 -14.187018,-2.62301 -10.891159,-5.06354 3.295859,-2.44054 14.540554,-2.01858 15.361668,-2.53177 0.821113,-0.5132 -1.665036,-0.798308 -1.505376,-1.391335 0.159662,-0.593026 3.181815,-1.060605 9.043654,-1.311501 a 42.948804,42.948804 0 0 1 12.875518,1.140436 c 1.573801,0.421961 -0.718474,1.140435 -0.285108,1.425545 1.231668,0.821115 9.876171,-0.433366 11.301715,1.288695 1.425545,1.72204 -6.454864,1.3457 -4.561743,2.46333 1.893124,1.11763 9.043655,1.14044 12.202663,3.78625 0.661452,0.54741 1.277287,1.41414 0.94656,2.20104 a 1.9729536,1.9729536 0 0 1 -0.684261,0.78691 9.4085934,9.4085934 0 0 1 -3.523946,1.35711 c -4.881063,1.14044 -18.246969,3.14761 -20.379584,1.14044 -1.49397,-1.40274 1.858909,-2.62299 1.858909,-3.14761 0,-0.5246 -2.383509,-0.93515 -3.136196,-1.0606 -6.500483,-1.17464 -11.016608,-0.90094 -18.623314,-1.0834 z M 116.87084,11.335252 a 2.2808712,2.2808712 0 0 0 -2.85108,0.456174 c -1.072,1.197457 -26.45811,29.651326 -32.183097,39.481881 -3.501137,6.044308 -4.778424,13.833483 -5.234598,19.318978 a 11.404355,11.404355 0 0 0 -9.123484,6.101331 c -1.539588,2.64581 -1.391333,6.306607 -1.243076,9.830553 0.125448,3.044964 0.250897,6.192566 -0.786901,7.98305 -2.463339,4.253824 -5.907455,4.196803 -6.101329,4.185399 a 1.7203575,1.7203575 0 0 0 -0.36494,3.421302 23.435951,23.435951 0 0 0 3.888886,0.31933 c 8.211135,0 16.251206,-4.185402 20.083069,-10.811333 A 23.470164,23.470164 0 0 0 86.044871,81.357996 12.750069,12.750069 0 0 0 85.17814,75.952331 c 4.561743,-3.101983 10.834139,-8.14271 14.403705,-14.301062 5.702175,-9.864767 17.779385,-46.00517 18.246965,-47.544758 a 2.2808712,2.2808712 0 0 0 -0.95797,-2.771259 z M 82.657778,81.141313 a 20.208517,20.208517 0 0 1 -2.623002,8.747142 16.331038,16.331038 0 0 1 -3.238838,3.877481 c -4.253823,0.216683 -6.044308,-1.505376 -7.047891,-3.159008 0,-1.379926 0,-2.80547 0,-4.21961 -0.125449,-3.044964 -0.262299,-6.192565 0.775496,-7.98305 1.41414,-2.429128 3.843268,-4.436295 6.580313,-4.436295 a 5.9872867,5.9872867 0 0 1 3.022155,0.855328 c 2.22385,1.345713 2.600192,4.173994 2.508958,6.318012 z" />
</svg>
