<svg width="16" height="16" viewBox="0 0 16 16" fill="none" xmlns="http://www.w3.org/2000/svg">
<path d="M14.6666 0.666667C15.0348 0.666667 15.3333 0.965144 15.3333 1.33333V9.33333C15.3333 9.70152 15.0348 10 14.6666 10H6.66665C6.29846 10 5.99998 9.70152 5.99998 9.33333V1.33333C5.99998 0.965144 6.29846 0.666667 6.66665 0.666667H14.6666ZM6.66665 0C5.93027 0 5.33331 0.596954 5.33331 1.33333V9.33333C5.33331 10.0697 5.93027 10.6667 6.66665 10.6667H14.6666C15.403 10.6667 16 10.0697 16 9.33333V1.33333C16 0.596954 15.403 0 14.6666 0H6.66665Z" fill="black"/>
<path fill-rule="evenodd" clip-rule="evenodd" d="M2.66667 5.33331H1.33333C0.596954 5.33331 0 5.93027 0 6.66665V14.6666C0 15.403 0.596954 16 1.33333 16H9.33333C10.0697 16 10.6667 15.403 10.6667 14.6666V13.3333H10V14.6666C10 15.0348 9.70152 15.3333 9.33333 15.3333H1.33333C0.965144 15.3333 0.666667 15.0348 0.666667 14.6666V6.66665C0.666667 6.29846 0.965144 5.99998 1.33333 5.99998H2.66667V5.33331Z" fill="black"/>
<path fill-rule="evenodd" clip-rule="evenodd" d="M5.33335 2.66669H4.00002C3.26364 2.66669 2.66669 3.26364 2.66669 4.00002V12C2.66669 12.7364 3.26364 13.3334 4.00002 13.3334H12C12.7364 13.3334 13.3334 12.7364 13.3334 12V10.6667H12.6667V12C12.6667 12.3682 12.3682 12.6667 12 12.6667H4.00002C3.63183 12.6667 3.33335 12.3682 3.33335 12V4.00002C3.33335 3.63183 3.63183 3.33335 4.00002 3.33335H5.33335V2.66669Z" fill="black"/>
</svg>
