<?xml version="1.0" encoding="UTF-8" standalone="no"?>
<svg
   xmlns:dc="http://purl.org/dc/elements/1.1/"
   xmlns:cc="http://creativecommons.org/ns#"
   xmlns:rdf="http://www.w3.org/1999/02/22-rdf-syntax-ns#"
   xmlns:svg="http://www.w3.org/2000/svg"
   xmlns="http://www.w3.org/2000/svg"
   xmlns:sodipodi="http://sodipodi.sourceforge.net/DTD/sodipodi-0.dtd"
   xmlns:inkscape="http://www.inkscape.org/namespaces/inkscape"
   id="visual"
   viewBox="0 0 22 22"
   version="1.1"
   sodipodi:docname="element-create.svg"
   inkscape:version="0.92.3 (2405546, 2018-03-11)">
  <metadata
     id="metadata29">
    <rdf:RDF>
      <cc:Work
         rdf:about="">
        <dc:format>image/svg+xml</dc:format>
        <dc:type
           rdf:resource="http://purl.org/dc/dcmitype/StillImage" />
        <dc:title>newElement</dc:title>
      </cc:Work>
    </rdf:RDF>
  </metadata>
  <sodipodi:namedview
     pagecolor="#ffffff"
     bordercolor="#666666"
     borderopacity="1"
     objecttolerance="10"
     gridtolerance="10"
     guidetolerance="10"
     inkscape:pageopacity="0"
     inkscape:pageshadow="2"
     inkscape:window-width="1680"
     inkscape:window-height="987"
     id="namedview27"
     showgrid="false"
     inkscape:zoom="15.170654"
     inkscape:cx="6.6083756"
     inkscape:cy="5.576648"
     inkscape:window-x="1912"
     inkscape:window-y="-8"
     inkscape:window-maximized="1"
     inkscape:current-layer="visual"
     inkscape:pagecheckerboard="false" />
  <defs
     id="defs4">
    <style
       id="style2">.cls-1{fill:none;stroke:#fbfbfd;stroke-miterlimit:10;}.cls-2{fill:#fbfbfd;}</style>
  </defs>
  <title
     id="title6">newElement</title>
  <path
     style="display:inline;fill:#008fb8;fill-opacity:1;stroke-width:1.15310872"
     d="M 0.04296875 1.7617188 L 0.04296875 21.363281 L 18.492188 21.363281 L 18.492188 9.7421875 C 18.105258 9.8454073 17.706508 9.9179686 17.287109 9.9179688 C 16.905626 9.9179688 16.540677 9.8593481 16.185547 9.7734375 L 16.185547 19.058594 L 2.3476562 19.058594 L 2.3476562 4.0683594 L 12.751953 4.0683594 C 12.981884 3.1647948 13.46848 2.3707154 14.136719 1.7617188 L 0.04296875 1.7617188 z M 3.5019531 5.2207031 L 3.5019531 7.5273438 L 13.220703 7.5273438 C 12.832351 6.843913 12.591797 6.0647049 12.591797 5.2226562 C 12.591797 5.2219935 12.591797 5.2213659 12.591797 5.2207031 L 3.5019531 5.2207031 z M 3.5019531 8.6796875 L 3.5019531 10.986328 L 15.033203 10.986328 L 15.033203 9.3164062 C 14.708148 9.1369547 14.405006 8.9281496 14.132812 8.6796875 L 3.5019531 8.6796875 z M 3.5019531 12.138672 L 3.5019531 14.445312 L 15.033203 14.445312 L 15.033203 12.138672 L 3.5019531 12.138672 z M 3.5019531 15.597656 L 3.5019531 17.904297 L 15.033203 17.904297 L 15.033203 15.597656 L 3.5019531 15.597656 z "
     id="path24" />
  <path
     style="display:inline;fill:#fbfbfd;fill-opacity:1;stroke:#ffffff;stroke-width:0.11467307;stroke-miterlimit:4;stroke-dasharray:none;stroke-opacity:1"
     d="M 21.924747,5.221756 A 4.638269,4.638269 0 0 1 17.28648,9.8600248 4.638269,4.638269 0 0 1 12.64821,5.221756 4.638269,4.638269 0 0 1 17.28648,0.58348709 4.638269,4.638269 0 0 1 21.924747,5.221756 Z"
     id="path836"
     inkscape:connector-curvature="0" />
  <path
     id="line14"
     style="color:#000000;font-style:normal;font-variant:normal;font-weight:normal;font-stretch:normal;font-size:medium;line-height:normal;font-family:sans-serif;font-variant-ligatures:normal;font-variant-position:normal;font-variant-caps:normal;font-variant-numeric:normal;font-variant-alternates:normal;font-feature-settings:normal;text-indent:0;text-align:start;text-decoration:none;text-decoration-line:none;text-decoration-style:solid;text-decoration-color:#000000;letter-spacing:normal;word-spacing:normal;text-transform:none;writing-mode:lr-tb;direction:ltr;text-orientation:mixed;dominant-baseline:auto;baseline-shift:baseline;text-anchor:start;white-space:normal;shape-padding:0;clip-rule:nonzero;display:inline;overflow:visible;visibility:visible;opacity:1;isolation:auto;mix-blend-mode:normal;color-interpolation:sRGB;color-interpolation-filters:linearRGB;solid-color:#000000;solid-opacity:1;vector-effect:none;fill:#008fb8;fill-opacity:1;fill-rule:nonzero;stroke:none;stroke-width:1.15310872;stroke-linecap:butt;stroke-linejoin:miter;stroke-miterlimit:10;stroke-dasharray:none;stroke-dashoffset:0;stroke-opacity:1;color-rendering:auto;image-rendering:auto;shape-rendering:auto;text-rendering:auto;enable-background:accumulate"
     d="M 15.302734,2.3691406 14.486328,3.1835938 19.375,8.0722656 20.191406,7.2578125 Z m 4.072266,0 -4.888672,4.8886719 0.816406,0.8144531 4.888672,-4.8886718 z M 13.878906,4.6445312 V 5.796875 h 6.919922 V 4.6445312 Z m 2.882813,-2.8828124 v 6.9179687 h 1.154297 V 1.7617188 Z" />
</svg>
