<?xml version="1.0" encoding="UTF-8" standalone="no"?>
<svg
   xmlns:dc="http://purl.org/dc/elements/1.1/"
   xmlns:cc="http://creativecommons.org/ns#"
   xmlns:rdf="http://www.w3.org/1999/02/22-rdf-syntax-ns#"
   xmlns:svg="http://www.w3.org/2000/svg"
   xmlns="http://www.w3.org/2000/svg"
   xmlns:sodipodi="http://sodipodi.sourceforge.net/DTD/sodipodi-0.dtd"
   xmlns:inkscape="http://www.inkscape.org/namespaces/inkscape"
   id="visual"
   viewBox="0 0 22 22"
   version="1.1"
   sodipodi:docname="element-search.svg"
   inkscape:version="0.92.3 (2405546, 2018-03-11)">
  <metadata
     id="metadata29">
    <rdf:RDF>
      <cc:Work
         rdf:about="">
        <dc:format>image/svg+xml</dc:format>
        <dc:type
           rdf:resource="http://purl.org/dc/dcmitype/StillImage" />
        <dc:title>newElementDisabled</dc:title>
      </cc:Work>
    </rdf:RDF>
  </metadata>
  <sodipodi:namedview
     pagecolor="#ffffff"
     bordercolor="#666666"
     borderopacity="1"
     objecttolerance="10"
     gridtolerance="10"
     guidetolerance="10"
     inkscape:pageopacity="0"
     inkscape:pageshadow="2"
     inkscape:window-width="1680"
     inkscape:window-height="987"
     id="namedview27"
     showgrid="false"
     inkscape:pagecheckerboard="true"
     inkscape:zoom="32"
     inkscape:cx="9.9654134"
     inkscape:cy="10.857826"
     inkscape:window-x="1912"
     inkscape:window-y="-8"
     inkscape:window-maximized="1"
     inkscape:current-layer="visual" />
  <defs
     id="defs4">
    <style
       id="style2">.cls-1{fill:none;stroke:#cfd1d2;stroke-miterlimit:10;}.cls-2{fill:#cfd1d2;}</style>
  </defs>
  <title
     id="title6">newElementDisabled</title>
  <path
     style="fill:#008fb8;fill-opacity:1;stroke-width:1.2294066"
     d="M 0.33203125 0.064453125 L 0.33203125 20.964844 L 13.693359 20.964844 A 5.2354153 5.2354153 0 0 1 12.59375 19.912109 A 5.2354153 5.2354153 0 0 1 12.417969 19.666016 A 5.2352116 5.2352116 0 0 1 12.267578 19.449219 A 5.2354153 5.2354153 0 0 1 12.265625 19.447266 A 5.2352116 5.2352116 0 0 1 11.798828 18.505859 L 2.7890625 18.505859 L 2.7890625 2.5234375 L 17.542969 2.5234375 L 17.542969 11.498047 A 5.2352116 5.2352116 0 0 1 19.869141 12.503906 A 5.0282731 5.0282731 0 0 1 20.001953 12.533203 L 20.001953 0.064453125 L 0.33203125 0.064453125 z M 4.0195312 3.7519531 L 4.0195312 6.2109375 L 16.3125 6.2109375 L 16.3125 3.7519531 L 4.0195312 3.7519531 z M 4.0195312 7.4414062 L 4.0195312 9.9003906 L 16.3125 9.9003906 L 16.3125 7.4414062 L 4.0195312 7.4414062 z M 4.0195312 11.128906 L 4.0195312 13.587891 L 12.458984 13.587891 A 5.2352116 5.2352116 0 0 1 16.3125 11.4375 L 16.3125 11.128906 L 4.0195312 11.128906 z M 4.0195312 14.818359 L 4.0195312 17.275391 L 11.501953 17.275391 A 5.2352116 5.2352116 0 0 1 11.458984 16.658203 A 5.2352116 5.2352116 0 0 1 11.798828 14.818359 L 4.0195312 14.818359 z "
     id="path16" />
  <path
     style="display:inline;fill:#fbfbfd;fill-opacity:1;stroke:none;stroke-width:0.17009541;stroke-miterlimit:4;stroke-dasharray:none;stroke-opacity:1"
     d="m 21.929157,16.658094 a 5.2352116,5.2352116 0 0 1 -5.235212,5.235212 5.2352116,5.2352116 0 0 1 -5.235212,-5.235212 5.2352116,5.2352116 0 0 1 5.235212,-5.235211 5.2352116,5.2352116 0 0 1 5.235212,5.235211 z"
     id="path815"
     inkscape:connector-curvature="0" />
  <path
     style="color:#000000;font-style:normal;font-variant:normal;font-weight:normal;font-stretch:normal;font-size:medium;line-height:normal;font-family:sans-serif;font-variant-ligatures:normal;font-variant-position:normal;font-variant-caps:normal;font-variant-numeric:normal;font-variant-alternates:normal;font-feature-settings:normal;text-indent:0;text-align:start;text-decoration:none;text-decoration-line:none;text-decoration-style:solid;text-decoration-color:#000000;letter-spacing:normal;word-spacing:normal;text-transform:none;writing-mode:lr-tb;direction:ltr;text-orientation:mixed;dominant-baseline:auto;baseline-shift:baseline;text-anchor:start;white-space:normal;shape-padding:0;clip-rule:nonzero;display:inline;overflow:visible;visibility:visible;opacity:1;isolation:auto;mix-blend-mode:normal;color-interpolation:sRGB;color-interpolation-filters:linearRGB;solid-color:#000000;solid-opacity:1;vector-effect:none;fill:#008fb8;fill-opacity:1;fill-rule:nonzero;stroke:none;stroke-width:1.51099479;stroke-linecap:butt;stroke-linejoin:miter;stroke-miterlimit:4;stroke-dasharray:none;stroke-dashoffset:0;stroke-opacity:1;color-rendering:auto;image-rendering:auto;shape-rendering:auto;text-rendering:auto;enable-background:accumulate"
     d="m 16.893889,13.617569 c -2.001568,-0.08177 -3.506931,1.901442 -2.886659,3.806215 0.541718,1.663545 2.405517,2.335375 3.920421,1.671741 l 0.738401,0.740371 0.0059,0.0079 c 0.195309,0.186105 0.495515,0.297791 0.76203,0.279608 0.266513,-0.01819 0.485998,-0.135503 0.647824,-0.29733 0.161827,-0.161826 0.279147,-0.381311 0.29733,-0.647824 0.01819,-0.266514 -0.09351,-0.566721 -0.279608,-0.762031 l -0.224474,-0.23432 h -0.01969 l -0.52968,-0.52771 c 0.75601,-1.772561 -0.366259,-3.950977 -2.431803,-4.036597 z m -0.07483,1.998608 c 0.342407,0.01455 0.513984,0.124371 0.643886,0.277639 0.131051,0.154624 0.210323,0.383726 0.206753,0.622226 -0.0035,0.238501 -0.09083,0.467656 -0.226443,0.618289 -0.13478,0.149697 -0.30927,0.252204 -0.653732,0.255979 -0.497775,-0.0035 -0.884994,-0.389562 -0.886082,-0.888051 10e-4,-0.510286 0.405245,-0.901181 0.915618,-0.886082 z"
     id="path8"
     inkscape:connector-curvature="0" />
</svg>
