<?xml version="1.0" encoding="UTF-8" standalone="no"?>
<svg
   xmlns:dc="http://purl.org/dc/elements/1.1/"
   xmlns:cc="http://creativecommons.org/ns#"
   xmlns:rdf="http://www.w3.org/1999/02/22-rdf-syntax-ns#"
   xmlns:svg="http://www.w3.org/2000/svg"
   xmlns="http://www.w3.org/2000/svg"
   xmlns:sodipodi="http://sodipodi.sourceforge.net/DTD/sodipodi-0.dtd"
   xmlns:inkscape="http://www.inkscape.org/namespaces/inkscape"
   width="16"
   height="16"
   viewBox="0 0 16 16"
   fill="none"
   version="1.1"
   id="svg18"
   sodipodi:docname="equipment.svg"
   inkscape:version="0.92.3 (2405546, 2018-03-11)">
  <metadata
     id="metadata22">
    <rdf:RDF>
      <cc:Work
         rdf:about="">
        <dc:format>image/svg+xml</dc:format>
        <dc:type
           rdf:resource="http://purl.org/dc/dcmitype/StillImage" />
      </cc:Work>
    </rdf:RDF>
  </metadata>
  <sodipodi:namedview
     pagecolor="#ffffff"
     bordercolor="#666666"
     borderopacity="1"
     objecttolerance="10"
     gridtolerance="10"
     guidetolerance="10"
     inkscape:pageopacity="0"
     inkscape:pageshadow="2"
     inkscape:window-width="1920"
     inkscape:window-height="1001"
     id="namedview20"
     showgrid="false"
     inkscape:zoom="14.75"
     inkscape:cx="8"
     inkscape:cy="8"
     inkscape:window-x="-9"
     inkscape:window-y="-9"
     inkscape:window-maximized="1"
     inkscape:current-layer="svg18" />
  <g
     clip-path="url(#clip0_31_94)"
     id="g11">
    <mask
       id="mask0_31_94"
       maskUnits="userSpaceOnUse"
       x="-1"
       y="-1"
       width="17"
       height="17">
      <path
         d="M 15.997,-1.2207e-4 H -0.00280762 V 15.9996 H 15.997 Z"
         id="path2"
         inkscape:connector-curvature="0"
         style="fill:#ffffff" />
    </mask>
    <g
       mask="url(#mask0_31_94)"
       id="g9">
      <path
         style="clip-rule:evenodd;fill:#000000;fill-rule:evenodd"
         d="m 3.4550781,-6.0644531 c -1.00901,0 -1.8261719,0.818725 -1.8261719,1.828125 0,0.72851 0.4261488,1.3587637 1.0429688,1.6523437 L 6.4765625,4.0097656 6.4921875,4 c 0.04619,0.06977 0.099047,0.1347456 0.1542969,0.1972656 L 4.6855469,6.1464844 H 4.0800781 c -0.16122,0 -0.3155675,0.065517 -0.4296875,0.1796875 -0.11413,0.11417 -0.1777344,0.2683975 -0.1777344,0.4296875 v 1.234375 H 2.515625 c -0.2607236,0 -0.5349385,0.1078815 -0.7148438,0.2949218 C 1.6309334,8.4617414 1.5136719,8.7006347 1.5136719,8.9824219 v 4.5019531 c 0,0.413866 0.1758435,0.781095 0.4316406,1.050781 0.2844593,0.300082 0.6743742,0.447266 1.0722656,0.447266 h 9.9999999 c 0.803872,0 1.474609,-0.657923 1.47461,-1.46875 V 8.9902344 c 0,-0.2816855 -0.115704,-0.5190042 -0.289063,-0.6992188 l -0.02148,-0.023437 -0.02539,-0.021484 C 13.981589,8.1060273 13.754921,7.9902344 13.488281,7.9902344 h -0.958984 v -1.234375 c 0,-0.33616 -0.271422,-0.609375 -0.607422,-0.609375 H 11.316406 L 9.3496094,4.2050781 C 9.6367294,3.8843181 9.8125,3.4600137 9.8125,2.9960938 c 0,-1.00035 -0.81255,-1.8125 -1.8125,-1.8125 H 7.99805 c 0,-10e-8 -1.7247725,-2.9871538 -2.2890625,-3.9648438 -0.03714,-0.06252 -0.03714,-0.139695 0,-0.203125 0.03623,-0.06252 0.1033212,-0.1015625 0.1757812,-0.1015625 H 11.40625 c 0.221,0 0.401444,0.1793006 0.402344,0.4003906 0,0.18212 0,0.4014457 0,0.6035157 9e-4,0.3733099 0.212575,0.7130962 0.546875,0.8789062 0.6458,0.318953 1.702919,0.8408252 2.261719,1.1171875 0.0979,0.0489298 0.212306,0.05682248 0.316406,0.02148438 0.1042,-0.03533821 0.189381,-0.11112438 0.238281,-0.20898438 0.0154,-0.031714 0.03148,-0.0609889 0.04687,-0.0917969 0.0942,-0.19209399 0.01622,-0.42439024 -0.175781,-0.51953124 -0.7246,-0.35790896 -2.328125,-1.15234376 -2.328125,-1.15234376 l -0.002,-0.5527344 c 0.5091,0.2201801 1.112606,0.20435 1.628906,-0.09375 0.5172,-0.29811 0.829178,-0.8123712 0.892578,-1.3632812 l 0.480469,0.2773438 c 0,-1e-7 -0.108188,1.6629031 -0.179688,2.5019531 -0.0209,0.12051 0.0098,0.2437987 0.08594,0.3398437 0.0761,0.096953 0.187347,0.1559075 0.310547,0.1640625 0.0226,9.0601e-4 0.04681,0.004047 0.07031,0.005859 0.1123,0.007249 0.223394,-0.0311687 0.308594,-0.10546875 0.0842,-0.074301 0.135278,-0.17865565 0.142578,-0.29101565 0.0398,-0.62431 0.115909,-1.7948456 0.162109,-2.5097656 0.0244,-0.3724 -0.165781,-0.7264925 -0.488281,-0.9140625 -0.5054,-0.29267 -1.191406,-0.6894531 -1.191406,-0.6894531 -0.5272,-0.78106 -1.57755,-1.0331075 -2.40625,-0.5546875 -0.0027,0.00181 -0.0062,0.00509 -0.0098,0.00781 H 4.3769531 c -0.27083,-0.15857 -0.585835,-0.25 -0.921875,-0.25 z m 0,0.90625 h 0.017578 c 0.50179,0.00906 0.9042969,0.418075 0.9042969,0.921875 v 0.041016 C 4.3552131,-3.7105525 3.9608562,-3.32066 3.4726562,-3.3125 h -0.017578 c -0.15307,0 -0.2970281,-0.037366 -0.4238281,-0.1035156 -0.29528,-0.15404 -0.4980469,-0.4642125 -0.4980469,-0.8203125 0,-0.50923 0.412845,-0.921875 0.9218749,-0.921875 z m 9.9804689,0 c 0.3134,0 0.617556,0.163175 0.785156,0.453125 0.25,0.43312 0.100969,0.9881912 -0.332031,1.2382812 -0.1422,0.08245 -0.299125,0.1210938 -0.453125,0.1210938 -0.3125,0 -0.617556,-0.163175 -0.785156,-0.453125 -0.25,-0.43312 -0.100969,-0.9881913 0.332031,-1.2382813 0.1431,-0.08246 0.299225,-0.1210937 0.453125,-0.1210937 z m -8.279297,0.25 h 6.591797 c -0.1123,0.28905 -0.150669,0.6043156 -0.105469,0.9160156 H 5.2675781 c 0.00996,-0.07973 0.015625,-0.1616906 0.015625,-0.2441406 0,-0.2374 -0.044523,-0.463475 -0.1269531,-0.671875 z m -0.5253906,2.0722656 2.4609375,4.265625 c -0.27807,0.16219 -0.5094588,0.3957913 -0.6679688,0.6757813 L 3.8007812,-2.4394531 c 0.31248,-0.05981 0.5954882,-0.1989544 0.8300782,-0.3964844 z M 8,2.0898438 c 0.30705,-1e-7 0.5836875,0.1502287 0.7421875,0.3867187 0.02989,0.0444 0.057571,0.090642 0.082031,0.1386719 l 0.015625,0.029297 -0.00391,0.00195 c 0.04528,0.10783 0.070312,0.2254693 0.070312,0.3496094 0,0.50017 -0.40627,0.90625 -0.90625,0.90625 C 7.70653,3.9023437 7.4450469,3.7623919 7.2792969,3.5449219 7.1633569,3.3927019 7.0957031,3.2017738 7.0957031,2.9960938 7.0957031,2.8257437 7.1430894,2.66807 7.2246094,2.53125 7.3034094,2.40077 7.4126819,2.2899106 7.5449219,2.2128906 7.6789719,2.1349606 7.83425,2.0898438 8,2.0898438 Z m -0.5957031,2.71875 h 1.1816406 c 0.05616,0 0.1105406,0.02263 0.1503906,0.0625 0.16123,0.15857 0.6013782,0.5931593 0.9238281,0.9121093 0.06069,0.06071 0.079485,0.1526819 0.046875,0.2324219 -0.0326,0.07973 -0.1112256,0.1308594 -0.1972656,0.1308594 H 6.4863281 c -0.08605,0 -0.1646556,-0.051129 -0.1972656,-0.1308594 -0.03351,-0.07974 -0.013815,-0.1717119 0.046875,-0.2324219 0.31973,-0.31804 0.7576487,-0.7526394 0.9179687,-0.9121093 0.03986,-0.03896 0.094241,-0.0625 0.1503907,-0.0625 z M 4.3769531,7.0957031 H 11.623047 V 7.9804688 H 4.3769531 Z M 2.5234375,8.9804688 c -0.00291,0.00302 -0.042072,0.011719 -0.00781,0.011719 H 13.488284 v 4.5214842 c 0,0.256373 -0.212775,0.466797 -0.470703,0.466797 H 3.0175781 c -0.1330686,0 -0.2762024,-0.06145 -0.3457031,-0.134766 -0.098183,-0.103514 -0.15625,-0.244394 -0.15625,-0.361328 v -4.4921872 -0.00977 c 0,0.018907 6.83e-4,0.00546 0.00781,-0.00195 z"
         id="path5"
         inkscape:connector-curvature="0" />
    </g>
  </g>
  <defs
     id="defs16">
    <clipPath
       id="clip0_31_94">
      <rect
         width="16"
         height="16"
         fill="white"
         id="rect13" />
    </clipPath>
  </defs>
</svg>
