<?xml version="1.0" encoding="UTF-8" standalone="no"?>
<svg
   xmlns:dc="http://purl.org/dc/elements/1.1/"
   xmlns:cc="http://creativecommons.org/ns#"
   xmlns:rdf="http://www.w3.org/1999/02/22-rdf-syntax-ns#"
   xmlns:svg="http://www.w3.org/2000/svg"
   xmlns="http://www.w3.org/2000/svg"
   xmlns:sodipodi="http://sodipodi.sourceforge.net/DTD/sodipodi-0.dtd"
   xmlns:inkscape="http://www.inkscape.org/namespaces/inkscape"
   id="visual"
   viewBox="0 0 22 22"
   version="1.1"
   sodipodi:docname="exclamation-border.svg"
   inkscape:version="0.92.3 (2405546, 2018-03-11)">
  <metadata
     id="metadata30578">
    <rdf:RDF>
      <cc:Work
         rdf:about="">
        <dc:format>image/svg+xml</dc:format>
        <dc:type
           rdf:resource="http://purl.org/dc/dcmitype/StillImage" />
        <dc:title></dc:title>
      </cc:Work>
    </rdf:RDF>
  </metadata>
  <sodipodi:namedview
     pagecolor="#ffffff"
     bordercolor="#666666"
     borderopacity="1"
     objecttolerance="10"
     gridtolerance="10"
     guidetolerance="10"
     inkscape:pageopacity="0"
     inkscape:pageshadow="2"
     inkscape:window-width="1920"
     inkscape:window-height="1017"
     id="namedview30576"
     showgrid="false"
     inkscape:zoom="21.454545"
     inkscape:cx="7.6206321"
     inkscape:cy="13.473737"
     inkscape:window-x="-8"
     inkscape:window-y="-8"
     inkscape:window-maximized="1"
     inkscape:current-layer="visual"
     inkscape:pagecheckerboard="true" />
  <defs
     id="defs30567">
    <style
       id="style30565">.cls-1{fill:#bb0a30;}.cls-2{fill:#fbfbfd;}</style>
  </defs>
  <path
     style="display:inline;fill:#e4246f;fill-opacity:1"
     d="M 11 1.5195312 A 1.84 1.84 0 0 0 9.5195312 2.5898438 L 1.5195312 16.099609 C 0.67953125 17.519609 1.35 18.689453 3 18.689453 L 19.039062 18.689453 C 20.689062 18.689453 21.359531 17.519609 20.519531 16.099609 L 12.519531 2.5898438 A 1.84 1.84 0 0 0 11 1.5195312 z M 10.279297 7.2207031 L 11.820312 7.2207031 L 11.820312 8.7402344 L 11.609375 12.910156 L 10.609375 12.910156 L 10.279297 8.7402344 L 10.279297 7.2207031 z M 10.931641 13.853516 A 1.17 1.17 0 0 1 12.169922 15.130859 A 1.17 1.17 0 1 1 9.8398438 15.130859 A 1.17 1.17 0 0 1 10.931641 13.853516 z "
     id="path30569" />
  <path
     id="path30573"
     d="m 9.84,15.13 a 1.17,1.17 0 1 1 2.33,0 1.17,1.17 0 1 1 -2.33,0 z M 10.28,8.74 V 7.22 h 1.54 v 1.52 l -0.21,4.17 h -1 z M 11,1.52 a 1.84,1.84 0 0 1 1.52,1.07 l 8,13.51 c 0.84,1.42 0.17,2.59 -1.48,2.59 H 3 c -1.65,0 -2.32,-1.17 -1.48,-2.59 l 8,-13.51 A 1.84,1.84 0 0 1 11,1.52 m 0,-1.1 A 2.93,2.93 0 0 0 8.53,2 l -8,13.51 A 2.91,2.91 0 0 0 0.33,18.44 2.89,2.89 0 0 0 3,19.79 h 16 a 2.89,2.89 0 0 0 2.63,-1.32 2.91,2.91 0 0 0 -0.2,-2.93 L 13.47,2 A 2.93,2.93 0 0 0 11,0.42 Z"
     style="display:inline;fill:#fbfbfd;fill-opacity:1"
     inkscape:connector-curvature="0" />
</svg>
