<?xml version="1.0" encoding="UTF-8" standalone="no"?>
<svg
   xmlns:dc="http://purl.org/dc/elements/1.1/"
   xmlns:cc="http://creativecommons.org/ns#"
   xmlns:rdf="http://www.w3.org/1999/02/22-rdf-syntax-ns#"
   xmlns:svg="http://www.w3.org/2000/svg"
   xmlns="http://www.w3.org/2000/svg"
   xmlns:sodipodi="http://sodipodi.sourceforge.net/DTD/sodipodi-0.dtd"
   xmlns:inkscape="http://www.inkscape.org/namespaces/inkscape"
   id="visual"
   viewBox="0 0 22 22"
   version="1.1"
   sodipodi:docname="exclamation-circle.svg"
   inkscape:version="0.92.3 (2405546, 2018-03-11)">
  <metadata
     id="metadata1445">
    <rdf:RDF>
      <cc:Work
         rdf:about="">
        <dc:format>image/svg+xml</dc:format>
        <dc:type
           rdf:resource="http://purl.org/dc/dcmitype/StillImage" />
        <dc:title></dc:title>
      </cc:Work>
    </rdf:RDF>
  </metadata>
  <sodipodi:namedview
     pagecolor="#ffffff"
     bordercolor="#666666"
     borderopacity="1"
     objecttolerance="10"
     gridtolerance="10"
     guidetolerance="10"
     inkscape:pageopacity="0"
     inkscape:pageshadow="2"
     inkscape:window-width="1680"
     inkscape:window-height="987"
     id="namedview1443"
     showgrid="false"
     inkscape:zoom="16"
     inkscape:cx="27.413297"
     inkscape:cy="3.7566589"
     inkscape:window-x="1912"
     inkscape:window-y="-8"
     inkscape:window-maximized="1"
     inkscape:current-layer="visual"
     inkscape:pagecheckerboard="true" />
  <defs
     id="defs1436">
    <style
       id="style1434">.cls-1{fill:#fa0;}.cls-2{fill:#fbfbfd;}</style>
  </defs>
  <path
     style="display:inline;fill:#ffaa00;stroke-width:1.09852028"
     d="M 10.994141 0.0078125 A 10.985204 10.985204 0 0 0 0.0078125 10.994141 A 10.985204 10.985204 0 0 0 10.994141 21.978516 A 10.985204 10.985204 0 0 0 21.978516 10.994141 A 10.985204 10.985204 0 0 0 10.994141 0.0078125 z M 9.8945312 3.8203125 L 12.498047 3.8203125 L 12.498047 10.214844 L 12.179688 13.695312 L 10.257812 13.695312 L 9.8945312 10.214844 L 9.8945312 3.8203125 z M 9.8945312 15.628906 L 12.498047 15.628906 L 12.498047 18.386719 L 9.8945312 18.386719 L 9.8945312 15.628906 z "
     id="circle1438" />
  <path
     class="cls-2"
     d="m 9.8953555,3.8205385 h 2.6034935 v 6.3933875 l -0.31857,3.482309 H 10.257867 L 9.8953555,10.213926 Z m 0,11.8090935 h 2.6034935 v 2.757285 H 9.8953555 Z"
     id="path1440"
     inkscape:connector-curvature="0"
     style="display:inline;fill:#fbfbfd;stroke-width:1.09852028" />
</svg>
