<?xml version="1.0" encoding="UTF-8" standalone="no"?>
<svg
   xmlns:dc="http://purl.org/dc/elements/1.1/"
   xmlns:cc="http://creativecommons.org/ns#"
   xmlns:rdf="http://www.w3.org/1999/02/22-rdf-syntax-ns#"
   xmlns:svg="http://www.w3.org/2000/svg"
   xmlns="http://www.w3.org/2000/svg"
   xmlns:sodipodi="http://sodipodi.sourceforge.net/DTD/sodipodi-0.dtd"
   xmlns:inkscape="http://www.inkscape.org/namespaces/inkscape"
   id="visual"
   viewBox="0 0 22 22"
   version="1.1"
   sodipodi:docname="exportGridPPT_path.svg"
   inkscape:version="0.92.3 (2405546, 2018-03-11)">
  <metadata
     id="metadata6380">
    <rdf:RDF>
      <cc:Work
         rdf:about="">
        <dc:format>image/svg+xml</dc:format>
        <dc:type
           rdf:resource="http://purl.org/dc/dcmitype/StillImage" />
        <dc:title />
      </cc:Work>
    </rdf:RDF>
  </metadata>
  <sodipodi:namedview
     pagecolor="#ffffff"
     bordercolor="#666666"
     borderopacity="1"
     objecttolerance="10"
     gridtolerance="10"
     guidetolerance="10"
     inkscape:pageopacity="0"
     inkscape:pageshadow="2"
     inkscape:window-width="1920"
     inkscape:window-height="1017"
     id="namedview6378"
     showgrid="false"
     inkscape:zoom="30.341309"
     inkscape:cx="8.5784043"
     inkscape:cy="11.069936"
     inkscape:window-x="-8"
     inkscape:window-y="-8"
     inkscape:window-maximized="1"
     inkscape:current-layer="visual" />
  <defs
     id="defs6363">
    <style
       id="style6361">.cls-1{fill:none;stroke:#d9d9d9;stroke-miterlimit:10;stroke-width:2px;}.cls-2{fill:#d9d9d9;}</style>
  </defs>
  <path
     id="path6375"
     style="fill:#008fb8;stroke-width:1.14175439;fill-opacity:1"
     d="M 4.3400308,6.9217282 6.5664517,6.7390474 A 3.9276348,3.9276348 0 0 1 9.260992,7.2185843 2.6717051,2.6717051 0 0 1 10.128724,9.502093 2.8543858,2.8543858 0 0 1 9.260992,11.785602 4.1103154,4.1103154 0 0 1 6.5664517,12.436401 H 5.9499045 v 3.425263 L 4.3400308,15.724654 Z M 5.9499045,8.2918333 V 10.997791 H 6.6349569 A 1.8153894,1.8153894 0 0 0 7.7767114,10.6781 1.34727,1.34727 0 0 0 8.1306552,9.6048503 1.3015999,1.3015999 0 0 0 7.7767114,8.5430192 1.8610595,1.8610595 0 0 0 6.6349569,8.3032508 Z M 15.63198,6.1795878 v 2.5346947 h 2.534696 A 2.523277,2.523277 0 0 0 15.63198,6.1795878 Z m -1.141754,1.1417544 a 2.5346945,2.5346945 0 1 0 2.534696,2.5346943 h -2.534696 z m -2.28401,5.9590868 v 2.284119 h 5.708265 V 13.280429 Z M 11.064157,3.0059576 V 4.1480171 18.990727 H 21.34066 V 3.0059576 Z m 2.284118,2.2820869 h 5.708266 V 16.706608 H 13.348275 Z M 13.348473,0.06638552 0.57286607,2.4569336 V 3.4046789 19.538648 L 13.348473,21.929197 Z M 11.064964,2.8159619 V 19.179621 L 2.8563747,17.643157 V 4.3524242 Z"
     inkscape:connector-curvature="0" />
</svg>
