<?xml version="1.0" encoding="UTF-8" standalone="no"?>
<svg
   xmlns:dc="http://purl.org/dc/elements/1.1/"
   xmlns:cc="http://creativecommons.org/ns#"
   xmlns:rdf="http://www.w3.org/1999/02/22-rdf-syntax-ns#"
   xmlns:svg="http://www.w3.org/2000/svg"
   xmlns="http://www.w3.org/2000/svg"
   xmlns:sodipodi="http://sodipodi.sourceforge.net/DTD/sodipodi-0.dtd"
   xmlns:inkscape="http://www.inkscape.org/namespaces/inkscape"
   id="visual"
   viewBox="0 0 22 22"
   version="1.1"
   sodipodi:docname="export-xml.svg"
   inkscape:version="0.92.3 (2405546, 2018-03-11)">
  <metadata
     id="metadata22480">
    <rdf:RDF>
      <cc:Work
         rdf:about="">
        <dc:format>image/svg+xml</dc:format>
        <dc:type
           rdf:resource="http://purl.org/dc/dcmitype/StillImage" />
        <dc:title></dc:title>
      </cc:Work>
    </rdf:RDF>
  </metadata>
  <sodipodi:namedview
     pagecolor="#ffffff"
     bordercolor="#666666"
     borderopacity="1"
     objecttolerance="10"
     gridtolerance="10"
     guidetolerance="10"
     inkscape:pageopacity="0"
     inkscape:pageshadow="2"
     inkscape:window-width="1680"
     inkscape:window-height="987"
     id="namedview22478"
     showgrid="false"
     inkscape:zoom="21.454545"
     inkscape:cx="0.28132501"
     inkscape:cy="9.091021"
     inkscape:window-x="1912"
     inkscape:window-y="-8"
     inkscape:window-maximized="1"
     inkscape:current-layer="visual"
     inkscape:pagecheckerboard="true" />
  <defs
     id="defs22459">
    <style
       id="style22457">.cls-1,.cls-3{fill:none;stroke-miterlimit:10;stroke-width:2px;}.cls-1{stroke:#d9d9d9;}.cls-2{fill:#fbfbfd;}.cls-3{stroke:#bb0a30;}.cls-4{fill:#bb0a30;}.cls-5{fill:#d9d9d9;}</style>
  </defs>
  <path
     style="fill:#008fb8;stroke-width:1.15094268;fill-opacity:1"
     d="M 1.6230469 0.064453125 L 1.6230469 20.78125 L 13.546875 20.78125 A 4.6037704 4.6037704 0 0 1 12.130859 18.480469 L 3.9257812 18.480469 L 3.9257812 2.3671875 L 10.830078 2.3671875 L 10.830078 6.9707031 L 15.433594 6.9707031 L 15.433594 12.875 A 4.6037704 4.6037704 0 0 1 16.585938 12.724609 A 4.6037704 4.6037704 0 0 1 17.736328 12.876953 L 17.736328 4.9960938 L 12.804688 0.064453125 L 1.6230469 0.064453125 z M 13.132812 3.6503906 L 14.150391 4.6679688 L 13.132812 4.6679688 L 13.132812 3.6503906 z M 10.082031 9.4550781 L 7.8027344 15.453125 L 8.6328125 15.453125 L 10.933594 9.4550781 L 10.082031 9.4550781 z M 7.3085938 9.9863281 L 4.6386719 11.710938 L 4.6386719 12.414062 L 7.3085938 14.128906 L 7.3085938 13.208984 L 5.4785156 12.056641 L 7.3085938 10.90625 L 7.3085938 9.9863281 z M 11.705078 9.9960938 L 11.705078 10.917969 L 13.535156 12.068359 L 11.705078 13.21875 L 11.705078 14.152344 L 14.375 12.425781 L 14.375 11.722656 L 11.705078 9.9960938 z "
     id="path22475" />
  <path
     style="display:inline;fill:#fbfbfd;stroke-width:1.15094268"
     d="m 21.188892,17.328431 a 4.6037704,4.6037704 0 0 1 -4.603771,4.603771 4.6037704,4.6037704 0 0 1 -4.60377,-4.603771 4.6037704,4.6037704 0 0 1 4.60377,-4.60377 4.6037704,4.6037704 0 0 1 4.603771,4.60377 z"
     id="circle22465"
     inkscape:connector-curvature="0" />
  <path
     id="polygon22469"
     style="display:inline;fill:#008fb8;fill-opacity:1;stroke-width:1.15094256"
     d="m 16.585123,20.78126 2.520564,-2.520564 h -5.041129 z m -1.151109,-5.755266 v 3.580552 h 2.302219 v -3.580552 z"
     inkscape:connector-curvature="0" />
</svg>
