<?xml version="1.0" encoding="UTF-8" standalone="no"?>
<!-- Created with Inkscape (http://www.inkscape.org/) -->

<svg
   xmlns:dc="http://purl.org/dc/elements/1.1/"
   xmlns:cc="http://creativecommons.org/ns#"
   xmlns:rdf="http://www.w3.org/1999/02/22-rdf-syntax-ns#"
   xmlns:svg="http://www.w3.org/2000/svg"
   xmlns="http://www.w3.org/2000/svg"
   xmlns:sodipodi="http://sodipodi.sourceforge.net/DTD/sodipodi-0.dtd"
   xmlns:inkscape="http://www.inkscape.org/namespaces/inkscape"
   width="10"
   height="10"
   viewBox="0 0 2.645835 2.6458332"
   version="1.1"
   id="svg8"
   inkscape:version="0.92.3 (2405546, 2018-03-11)"
   sodipodi:docname="fieldset.svg">
  <defs
     id="defs2" />
  <sodipodi:namedview
     id="base"
     pagecolor="#ffffff"
     bordercolor="#666666"
     borderopacity="1.0"
     inkscape:pageopacity="0.0"
     inkscape:pageshadow="2"
     inkscape:zoom="44.800002"
     inkscape:cx="1.3081478"
     inkscape:cy="4.456406"
     inkscape:document-units="mm"
     inkscape:current-layer="layer1-3"
     showgrid="false"
     fit-margin-top="0"
     fit-margin-left="0"
     fit-margin-right="0"
     fit-margin-bottom="0"
     inkscape:window-width="1680"
     inkscape:window-height="987"
     inkscape:window-x="1912"
     inkscape:window-y="-8"
     inkscape:window-maximized="1"
     units="px" />
  <metadata
     id="metadata5">
    <rdf:RDF>
      <cc:Work
         rdf:about="">
        <dc:format>image/svg+xml</dc:format>
        <dc:type
           rdf:resource="http://purl.org/dc/dcmitype/StillImage" />
        <dc:title />
      </cc:Work>
    </rdf:RDF>
  </metadata>
  <g
     inkscape:label="Ebene 1"
     inkscape:groupmode="layer"
     id="layer1"
     transform="translate(69.654832,-222.07892)">
    <g
       id="layer1-3"
       inkscape:label="Ebene 1"
       transform="matrix(0.02633951,0,0,0.02633951,-71.140645,220.1346)">
      <path
         style="fill:#008fb8;fill-opacity:1;stroke-width:0.02453548"
         d="m 0.51953125,0.01757813 c -0.275756,0 -0.49804687,0.19236475 -0.49804687,0.43164062 V 8.2246094 c 0,0.2392756 0.22229087,0.4316406 0.49804687,0.4316406 H 9.4785156 c 0.275756,0 0.4980469,-0.192365 0.4980469,-0.4316406 V 0.44921875 c 0,-0.23927587 -0.2222909,-0.43164062 -0.4980469,-0.43164062 z M 1.2871094,0.6875 H 3.1640625 L 2.6972656,1.2753906 2.2285156,1.8671875 1.7578125,1.2773438 Z M 0.7890625,2.9257812 H 9.25 v 4.671875 c 0,0.2392756 -0.2222909,0.4316407 -0.4980469,0.4316407 H 1.2871094 c -0.2757562,0 -0.4980469,-0.1923651 -0.4980469,-0.4316407 z"
         transform="matrix(10.045112,0,0,10.045112,56.410047,73.817622)"
         id="rect3713"
         inkscape:connector-curvature="0" />
    </g>
  </g>
</svg>
