<?xml version="1.0" encoding="UTF-8" standalone="no"?>
<svg
   xmlns:dc="http://purl.org/dc/elements/1.1/"
   xmlns:cc="http://creativecommons.org/ns#"
   xmlns:rdf="http://www.w3.org/1999/02/22-rdf-syntax-ns#"
   xmlns:svg="http://www.w3.org/2000/svg"
   xmlns="http://www.w3.org/2000/svg"
   xmlns:sodipodi="http://sodipodi.sourceforge.net/DTD/sodipodi-0.dtd"
   xmlns:inkscape="http://www.inkscape.org/namespaces/inkscape"
   id="visual"
   viewBox="0 0 22 22"
   version="1.1"
   sodipodi:docname="file-sp.svg"
   inkscape:version="0.92.3 (2405546, 2018-03-11)">
  <metadata
     id="metadata4033">
    <rdf:RDF>
      <cc:Work
         rdf:about="">
        <dc:format>image/svg+xml</dc:format>
        <dc:type
           rdf:resource="http://purl.org/dc/dcmitype/StillImage" />
        <dc:title />
      </cc:Work>
    </rdf:RDF>
  </metadata>
  <sodipodi:namedview
     pagecolor="#ffffff"
     bordercolor="#666666"
     borderopacity="1"
     objecttolerance="10"
     gridtolerance="10"
     guidetolerance="10"
     inkscape:pageopacity="0"
     inkscape:pageshadow="2"
     inkscape:window-width="1680"
     inkscape:window-height="987"
     id="namedview4031"
     showgrid="false"
     inkscape:zoom="42.909091"
     inkscape:cx="11.567475"
     inkscape:cy="3.9344854"
     inkscape:window-x="1912"
     inkscape:window-y="-8"
     inkscape:window-maximized="1"
     inkscape:current-layer="visual" />
  <defs
     id="defs4022">
    <style
       id="style4020">.cls-1{fill:#bb0a30;}.cls-2{fill:#fbfbfd;}</style>
  </defs>
  <path
     style="fill:#008fb8;stroke-width:1.22169077;fill-opacity:1"
     d="M 2.3027344 0.005859375 L 2.3027344 21.996094 L 20.152344 21.996094 L 20.152344 6.2617188 L 13.884766 0.005859375 L 2.3027344 0.005859375 z M 7.5097656 8.3828125 A 2.7610212 2.7610212 0 0 1 7.6425781 8.3867188 A 4.8867632 4.8867632 0 0 1 8.6933594 8.5585938 A 5.2777043 5.2777043 0 0 1 9.7929688 8.9238281 L 9.7929688 10.476562 A 4.0682304 4.0682304 0 0 0 8.7539062 9.9257812 A 3.1763961 3.1763961 0 0 0 7.7148438 9.7304688 A 1.5026797 1.5026797 0 0 0 6.8359375 9.9628906 A 0.78188212 0.78188212 0 0 0 6.5292969 10.623047 A 0.70858067 0.70858067 0 0 0 6.75 11.171875 A 3.0542271 3.0542271 0 0 0 7.6777344 11.662109 L 8.3632812 11.917969 A 3.0786608 3.0786608 0 0 1 9.7929688 12.859375 A 2.4433817 2.4433817 0 0 1 10.244141 14.335938 A 2.2356942 2.2356942 0 0 1 9.5234375 16.144531 A 3.2863484 3.2863484 0 0 1 7.3613281 16.744141 A 5.0211493 5.0211493 0 0 1 6.1386719 16.597656 A 5.0700169 5.0700169 0 0 1 4.9179688 16.181641 L 4.9179688 14.507812 A 5.6319946 5.6319946 0 0 0 6.1386719 15.179688 A 3.322999 3.322999 0 0 0 7.3613281 15.400391 A 1.4049443 1.4049443 0 0 0 8.265625 15.130859 A 0.91626811 0.91626811 0 0 0 8.6933594 14.384766 A 0.97735266 0.97735266 0 0 0 8.4726562 13.75 A 1.466029 1.466029 0 0 0 7.8496094 13.333984 L 7.0546875 13.029297 A 4.0804474 4.0804474 0 0 1 5.4433594 12.076172 A 1.9669222 1.9669222 0 0 1 5.0273438 10.720703 A 2.1868267 2.1868267 0 0 1 5.7246094 9.0097656 A 2.7610212 2.7610212 0 0 1 7.5097656 8.3828125 z M 15.246094 8.5410156 A 3.848326 3.848326 0 0 1 17.304688 9.1445312 A 2.3700801 2.3700801 0 0 1 17.976562 11.001953 A 2.3456463 2.3456463 0 0 1 17.244141 12.957031 A 3.8361091 3.8361091 0 0 1 14.800781 13.554688 L 14.214844 13.554688 L 14.214844 16.548828 L 12.626953 16.548828 L 12.6875 8.5585938 L 14.861328 8.5585938 A 3.848326 3.848326 0 0 1 15.246094 8.5410156 z M 15.068359 9.8574219 A 1.6614994 1.6614994 0 0 0 14.923828 9.8652344 L 14.275391 9.890625 L 14.275391 12.222656 L 14.923828 12.222656 A 1.7470178 1.7470178 0 0 0 16.009766 11.955078 A 1.0995217 1.0995217 0 0 0 16.328125 11.039062 A 1.0873048 1.0873048 0 0 0 16.009766 10.134766 A 1.6614994 1.6614994 0 0 0 15.068359 9.8574219 z "
     id="path4024" />
  <path
     id="path4028"
     style="fill:#fbfbfd;stroke-width:1.22169077"
     d="m 12.687473,8.5581264 h 2.174609 a 3.848326,3.848326 0 0 1 2.443382,0.5864116 2.3700801,2.3700801 0 0 1 0.671929,1.856971 2.3456463,2.3456463 0 0 1 -0.733014,1.954704 3.8361091,3.8361091 0 0 1 -2.443381,0.598628 h -0.586411 v 2.993143 h -1.588198 z m 1.588198,1.3316427 v 2.3334299 h 0.647496 A 1.7470178,1.7470178 0 0 0 16.010473,11.954426 1.0995217,1.0995217 0 0 0 16.32811,11.038158 1.0873048,1.0873048 0 0 0 16.010473,10.134107 1.6614994,1.6614994 0 0 0 14.923167,9.8653351 Z M 7.0554777,13.029515 A 4.0804474,4.0804474 0 0 1 5.4428457,12.076595 1.9669222,1.9669222 0 0 1 5.0274708,10.720519 2.1868267,2.1868267 0 0 1 5.7238346,9.0101516 2.7610212,2.7610212 0 0 1 7.6418891,8.3870897 4.8867632,4.8867632 0 0 1 8.6925434,8.5581264 5.2777043,5.2777043 0 0 1 9.792065,8.9246335 V 10.476181 A 4.0682304,4.0682304 0 0 0 8.7536277,9.9264197 3.1763961,3.1763961 0 0 0 7.7151906,9.7309498 1.5026797,1.5026797 0 0 0 6.8355732,9.9630711 0.78188212,0.78188212 0 0 0 6.5301504,10.622784 a 0.70858067,0.70858067 0 0 0 0.2199045,0.549761 3.0542271,3.0542271 0 0 0 0.928485,0.488675 l 0.6841469,0.256556 A 3.0786608,3.0786608 0 0 1 9.792065,12.858478 2.4433817,2.4433817 0 0 1 10.24409,14.336724 2.2356942,2.2356942 0 0 1 9.5232929,16.144826 3.2863484,3.2863484 0 0 1 7.3609003,16.743455 5.0211493,5.0211493 0 0 1 6.1392094,16.596852 5.0700169,5.0700169 0 0 1 4.9175187,16.181478 v -1.673716 a 5.6319946,5.6319946 0 0 0 1.2216907,0.671929 3.322999,3.322999 0 0 0 1.2216909,0.219904 1.4049443,1.4049443 0 0 0 0.9040511,-0.268773 0.91626811,0.91626811 0 0 0 0.427592,-0.74523 0.97735266,0.97735266 0 0 0 -0.2199045,-0.63528 1.466029,1.466029 0 0 0 -0.6230623,-0.415375 z"
     inkscape:connector-curvature="0" />
</svg>
