<?xml version="1.0" encoding="UTF-8" standalone="no"?>
<svg
   xmlns:dc="http://purl.org/dc/elements/1.1/"
   xmlns:cc="http://creativecommons.org/ns#"
   xmlns:rdf="http://www.w3.org/1999/02/22-rdf-syntax-ns#"
   xmlns:svg="http://www.w3.org/2000/svg"
   xmlns="http://www.w3.org/2000/svg"
   xmlns:sodipodi="http://sodipodi.sourceforge.net/DTD/sodipodi-0.dtd"
   xmlns:inkscape="http://www.inkscape.org/namespaces/inkscape"
   id="visual"
   viewBox="0 0 22 22"
   version="1.1"
   sodipodi:docname="FloatMetaAttr_path.svg"
   inkscape:version="0.92.3 (2405546, 2018-03-11)">
  <metadata
     id="metadata3217">
    <rdf:RDF>
      <cc:Work
         rdf:about="">
        <dc:format>image/svg+xml</dc:format>
        <dc:type
           rdf:resource="http://purl.org/dc/dcmitype/StillImage" />
        <dc:title />
      </cc:Work>
    </rdf:RDF>
  </metadata>
  <sodipodi:namedview
     pagecolor="#ffffff"
     bordercolor="#666666"
     borderopacity="1"
     objecttolerance="10"
     gridtolerance="10"
     guidetolerance="10"
     inkscape:pageopacity="0"
     inkscape:pageshadow="2"
     inkscape:window-width="1920"
     inkscape:window-height="1017"
     id="namedview3215"
     showgrid="false"
     inkscape:zoom="171.63636"
     inkscape:cx="2.537222"
     inkscape:cy="1.8407409"
     inkscape:window-x="-8"
     inkscape:window-y="-8"
     inkscape:window-maximized="1"
     inkscape:current-layer="visual" />
  <defs
     id="defs3204">
    <style
       id="style3202">.cls-1{fill:none;stroke:#bb0a30;stroke-miterlimit:10;stroke-width:2px;}.cls-2{fill:#bb0a30;}</style>
  </defs>
  <path
     id="path3212"
     d="m 10.153816,13.287878 a 5.9211536,5.9211536 0 0 1 0.659262,-3.125392 2.1975416,2.1975416 0 0 1 1.989995,-1.0377281 2.185333,2.185333 0 0 1 1.989997,1.0377281 5.8967365,5.8967365 0 0 1 0.659263,3.125392 5.9089451,5.9089451 0 0 1 -0.659263,3.113185 2.2097502,2.2097502 0 0 1 -1.989997,1.037727 2.2219587,2.2219587 0 0 1 -1.989995,-1.037727 5.9089451,5.9089451 0 0 1 -0.659262,-3.113185 z M 12.803073,10.4677 c -0.366256,0 -0.634844,0.219754 -0.793556,0.671471 a 6.4705391,6.4705391 0 0 0 -0.256379,2.148707 c 0,0.305215 0,0.573804 0,0.830184 l 1.843493,-2.954474 v 0 C 13.437919,10.687454 13.169332,10.4677 12.803073,10.4677 Z m -0.793556,4.956677 c 0.158712,0.451717 0.4273,0.671472 0.793556,0.671472 0.366259,0 0.634846,-0.219755 0.805767,-0.671472 a 6.4949562,6.4949562 0 0 0 0.256379,-2.136499 c 0,-0.378464 0,-0.708097 0,-1.001103 l -1.880118,2.97889 c 0,0 0,0.109873 0.02441,0.158712 z M 6.6133322,15.314504 h 1.794659 v 1.965579 H 6.6133322 Z M 12.217064,1.2380253 v 6.1042822 h 6.104281 V 4.9005947 h -3.66257 V 1.2380253 Z M 2.4502119,0.01716901 V 21.992585 H 19.542202 V 20.771728 5.2487295 L 14.310642,0.01716901 Z M 4.8919247,2.4588819 H 13.29962 l 3.800869,3.8008693 V 19.550872 H 4.8919247 Z"
     style="fill:#008fb8;fill-opacity:1;stroke-width:1.22085643"
     inkscape:connector-curvature="0" />
</svg>
