<?xml version="1.0" encoding="UTF-8" standalone="no"?>
<svg
   xmlns:dc="http://purl.org/dc/elements/1.1/"
   xmlns:cc="http://creativecommons.org/ns#"
   xmlns:rdf="http://www.w3.org/1999/02/22-rdf-syntax-ns#"
   xmlns:svg="http://www.w3.org/2000/svg"
   xmlns="http://www.w3.org/2000/svg"
   xmlns:sodipodi="http://sodipodi.sourceforge.net/DTD/sodipodi-0.dtd"
   xmlns:inkscape="http://www.inkscape.org/namespaces/inkscape"
   id="visual"
   viewBox="0 0 22 22"
   version="1.1"
   sodipodi:docname="binaryContent_path.svg"
   inkscape:version="0.92.3 (2405546, 2018-03-11)">
  <metadata
     id="metadata4390">
    <rdf:RDF>
      <cc:Work
         rdf:about="">
        <dc:format>image/svg+xml</dc:format>
        <dc:type
           rdf:resource="http://purl.org/dc/dcmitype/StillImage" />
        <dc:title />
      </cc:Work>
    </rdf:RDF>
  </metadata>
  <sodipodi:namedview
     pagecolor="#ffffff"
     bordercolor="#666666"
     borderopacity="1"
     objecttolerance="10"
     gridtolerance="10"
     guidetolerance="10"
     inkscape:pageopacity="0"
     inkscape:pageshadow="2"
     inkscape:window-width="1920"
     inkscape:window-height="1017"
     id="namedview4388"
     showgrid="false"
     inkscape:zoom="256"
     inkscape:cx="2.5018364"
     inkscape:cy="0.26252672"
     inkscape:window-x="-8"
     inkscape:window-y="-8"
     inkscape:window-maximized="1"
     inkscape:current-layer="visual" />
  <defs
     id="defs4377">
    <style
       id="style4375">.cls-1{fill:none;stroke:#bb0a30;stroke-miterlimit:10;stroke-width:2px;}.cls-2{fill:#bb0a30;}</style>
  </defs>
  <path
     id="path4385"
     d="m 11.59503,16.538615 h 1.380453 v -4.05584 l -1.221639,0.317627 v -1.111691 l 1.294937,-0.30541 h 1.221638 v 5.155314 h 1.380452 v 1.087259 H 11.59503 Z m -5.4118571,-2.02792 a 4.5811439,4.5811439 0 0 1 0.513088,-2.443276 1.6980773,1.6980773 0 0 1 1.5392643,-0.806281 1.7102936,1.7102936 0 0 1 1.5514805,0.806281 4.5811439,4.5811439 0 0 1 0.5130883,2.443276 4.5689274,4.5689274 0 0 1 -0.5130883,2.443276 1.7102936,1.7102936 0 0 1 -1.5514805,0.806281 1.6980773,1.6980773 0 0 1 -1.5392643,-0.806281 4.5689274,4.5689274 0 0 1 -0.513088,-2.443276 z m 2.0523523,-2.198948 c -0.2809767,0 -0.4886554,0.183246 -0.6230355,0.525303 a 5.4362906,5.4362906 0 0 0 -0.1954623,1.673645 c 0,0.232111 0,0.452005 0,0.647467 l 1.429317,-2.296678 v 0 A 0.65968471,0.65968471 0 0 0 8.2355252,12.311747 Z m -0.6230355,3.860375 c 0.1343801,0.354276 0.3420588,0.525305 0.6230355,0.525305 0.2809768,0 0.5008718,-0.171029 0.6230355,-0.525305 a 4.8865533,4.8865533 0 0 0 0.2076786,-1.661427 7.4642103,7.4642103 0 0 0 0,-0.781848 L 7.5758405,16.049959 Z M 12.218066,1.231486 v 6.1081917 h 6.108192 V 4.8964011 H 14.661343 V 1.231486 Z M 2.4449594,0.00984765 V 21.999337 H 19.547896 V 20.777701 5.2447588 L 14.312985,0.00984765 Z M 4.8882361,2.4531243 h 8.4130809 l 3.803302,3.8033038 V 19.556061 H 4.8882361 Z"
     style="fill:#008fb8;fill-opacity:1;stroke-width:1.22163844"
     inkscape:connector-curvature="0" />
</svg>
