<?xml version="1.0" encoding="UTF-8" standalone="no"?>
<svg
   xmlns:dc="http://purl.org/dc/elements/1.1/"
   xmlns:cc="http://creativecommons.org/ns#"
   xmlns:rdf="http://www.w3.org/1999/02/22-rdf-syntax-ns#"
   xmlns:svg="http://www.w3.org/2000/svg"
   xmlns="http://www.w3.org/2000/svg"
   xmlns:sodipodi="http://sodipodi.sourceforge.net/DTD/sodipodi-0.dtd"
   xmlns:inkscape="http://www.inkscape.org/namespaces/inkscape"
   id="visual"
   viewBox="0 0 22 22"
   version="1.1"
   sodipodi:docname="tag_path.svg"
   inkscape:version="0.92.3 (2405546, 2018-03-11)">
  <metadata
     id="metadata874">
    <rdf:RDF>
      <cc:Work
         rdf:about="">
        <dc:format>image/svg+xml</dc:format>
        <dc:type
           rdf:resource="http://purl.org/dc/dcmitype/StillImage" />
        <dc:title />
      </cc:Work>
    </rdf:RDF>
  </metadata>
  <sodipodi:namedview
     pagecolor="#ffffff"
     bordercolor="#666666"
     borderopacity="1"
     objecttolerance="10"
     gridtolerance="10"
     guidetolerance="10"
     inkscape:pageopacity="0"
     inkscape:pageshadow="2"
     inkscape:window-width="1920"
     inkscape:window-height="1017"
     id="namedview872"
     showgrid="false"
     inkscape:zoom="128"
     inkscape:cx="16.232557"
     inkscape:cy="0.27906254"
     inkscape:window-x="-8"
     inkscape:window-y="-8"
     inkscape:window-maximized="1"
     inkscape:current-layer="visual" />
  <defs
     id="defs863">
    <style
       id="style861">.cls-1{fill:none;stroke:#bb0a30;stroke-miterlimit:10;stroke-width:2px;}.cls-2{fill:#bb0a30;}</style>
  </defs>
  <path
     id="path869"
     d="m 11.390281,8.7273882 -0.622932,2.4428698 h 1.331365 L 12.70943,8.7273882 h 1.477936 l -0.64736,2.4428698 h 1.221434 v 1.416864 h -1.563436 l -0.488574,1.917652 h 1.343578 v 1.380221 h -1.685579 l -0.622932,2.44287 h -1.441293 l 0.610717,-2.44287 H 9.5703433 l -0.6107174,2.44287 H 7.5061186 L 8.116836,15.884995 H 6.7610436 V 14.516989 H 8.4710521 L 8.9596259,12.599336 H 7.518333 V 11.182472 H 9.3138419 L 9.9367736,8.7396024 Z m 0.354216,3.8719478 H 10.400919 L 9.9123449,14.516989 H 11.268137 Z M 12.220857,1.2277792 V 7.3349527 H 18.32803 V 4.8920833 H 14.663725 V 1.2277792 Z M 2.4493791,0.00634458 V 21.992168 H 19.549464 V 20.770734 5.2403828 L 14.315426,0.00634458 Z M 4.8922484,2.449214 h 8.4116766 l 3.80267,3.8026695 V 19.5493 H 4.8922484 Z"
     style="fill:#008fb8;fill-opacity:1;stroke-width:1.22143471"
     inkscape:connector-curvature="0" />
</svg>
