<?xml version="1.0" encoding="UTF-8" standalone="no"?>
<svg
   xmlns:dc="http://purl.org/dc/elements/1.1/"
   xmlns:cc="http://creativecommons.org/ns#"
   xmlns:rdf="http://www.w3.org/1999/02/22-rdf-syntax-ns#"
   xmlns:svg="http://www.w3.org/2000/svg"
   xmlns="http://www.w3.org/2000/svg"
   xmlns:sodipodi="http://sodipodi.sourceforge.net/DTD/sodipodi-0.dtd"
   xmlns:inkscape="http://www.inkscape.org/namespaces/inkscape"
   id="visual"
   viewBox="0 0 120 120"
   version="1.1"
   sodipodi:docname="zip_path.svg"
   inkscape:version="0.92.3 (2405546, 2018-03-11)">
  <metadata
     id="metadata39">
    <rdf:RDF>
      <cc:Work
         rdf:about="">
        <dc:format>image/svg+xml</dc:format>
        <dc:type
           rdf:resource="http://purl.org/dc/dcmitype/StillImage" />
        <dc:title>zip</dc:title>
      </cc:Work>
    </rdf:RDF>
  </metadata>
  <sodipodi:namedview
     pagecolor="#ffffff"
     bordercolor="#666666"
     borderopacity="1"
     objecttolerance="10"
     gridtolerance="10"
     guidetolerance="10"
     inkscape:pageopacity="0"
     inkscape:pageshadow="2"
     inkscape:window-width="1920"
     inkscape:window-height="1017"
     id="namedview37"
     showgrid="false"
     inkscape:zoom="2.7812866"
     inkscape:cx="-93.848025"
     inkscape:cy="67.870234"
     inkscape:window-x="-8"
     inkscape:window-y="-8"
     inkscape:window-maximized="1"
     inkscape:current-layer="visual" />
  <defs
     id="defs4">
    <style
       id="style2">.cls-1{fill:#fbfbfd;}.cls-2,.cls-3{fill:none;stroke:#454952;stroke-miterlimit:10;}.cls-2{stroke-width:5px;}.cls-3{stroke-width:3px;}.cls-4{fill:#454952;}</style>
  </defs>
  <title
     id="title6">zip</title>
  <path
     id="path34"
     style="fill:#008fb8;fill-opacity:1;stroke-width:1.90067828"
     d="m 49.916268,71.465889 v 2.851018 a 4.751696,4.751696 0 0 1 -4.751695,4.751695 h -1.900679 a 4.751696,4.751696 0 0 1 -4.751697,-4.751695 v -2.851018 h 11.404071 m 5.702035,-5.702037 h -22.80814 v 8.553055 a 10.453731,10.453731 0 0 0 10.453731,10.45373 h 1.900679 a 10.453731,10.453731 0 0 0 10.45373,-10.45373 z M 44.213136,60.062993 v 5.700512 H 55.61744 V 60.062993 Z M 32.808829,54.359198 v 5.703795 h 11.404307 v -5.703795 z m 11.404307,-5.700512 v 5.700512 H 55.61744 V 48.658686 Z M 32.808829,42.954893 v 5.703793 H 44.213136 V 42.954893 Z M 44.213136,37.25438 v 5.700513 H 55.61744 V 37.25438 Z M 32.808829,31.550588 v 5.703792 h 11.404307 v -5.703792 z m 11.404307,-5.700512 v 5.700512 H 55.61744 V 25.850076 Z M 32.808829,20.146281 v 5.703795 h 11.404307 v -5.703795 z m 11.404307,-5.700512 v 5.700512 H 55.61744 V 14.445769 Z M 32.808829,8.7419769 V 14.445769 H 44.213136 V 8.7419769 Z m 37.064563,-3.79983 V 37.25368 H 102.18493 V 27.750288 H 79.376785 V 4.9421469 Z M 14.752833,0.19120742 V 119.93478 H 106.93518 V 115.18216 30.59285 L 76.595854,0.19120742 Z M 24.25806,9.6931552 H 72.653381 L 97.433228,34.52548 v 75.90407 H 24.25806 Z"
     inkscape:connector-curvature="0" />
</svg>
