<?xml version="1.0" encoding="UTF-8" standalone="no"?>
<svg
   xmlns:dc="http://purl.org/dc/elements/1.1/"
   xmlns:cc="http://creativecommons.org/ns#"
   xmlns:rdf="http://www.w3.org/1999/02/22-rdf-syntax-ns#"
   xmlns:svg="http://www.w3.org/2000/svg"
   xmlns="http://www.w3.org/2000/svg"
   xmlns:sodipodi="http://sodipodi.sourceforge.net/DTD/sodipodi-0.dtd"
   xmlns:inkscape="http://www.inkscape.org/namespaces/inkscape"
   id="visual"
   viewBox="0 0 120 120"
   version="1.1"
   sodipodi:docname="file-reload.svg"
   inkscape:version="0.92.3 (2405546, 2018-03-11)">
  <metadata
     id="metadata21">
    <rdf:RDF>
      <cc:Work
         rdf:about="">
        <dc:format>image/svg+xml</dc:format>
        <dc:type
           rdf:resource="http://purl.org/dc/dcmitype/StillImage" />
        <dc:title>documentUpdate</dc:title>
      </cc:Work>
    </rdf:RDF>
  </metadata>
  <sodipodi:namedview
     pagecolor="#ffffff"
     bordercolor="#666666"
     borderopacity="1"
     objecttolerance="10"
     gridtolerance="10"
     guidetolerance="10"
     inkscape:pageopacity="0"
     inkscape:pageshadow="2"
     inkscape:window-width="1680"
     inkscape:window-height="987"
     id="namedview19"
     showgrid="false"
     inkscape:zoom="1.9666667"
     inkscape:cx="201.40328"
     inkscape:cy="-19.929005"
     inkscape:window-x="1912"
     inkscape:window-y="-8"
     inkscape:window-maximized="1"
     inkscape:current-layer="visual" />
  <defs
     id="defs4">
    <style
       id="style2">.cls-1{fill:#fbfbfd;}.cls-2{fill:none;stroke:#454952;stroke-miterlimit:10;stroke-width:5px;}.cls-3{fill:#454952;}</style>
  </defs>
  <title
     id="title6">documentUpdate</title>
  <path
     id="polygon16"
     style="fill:#008fb8;fill-opacity:1;stroke-width:1.90157473"
     d="M 53.953675,62.664919 39.615802,47.642478 39.273518,62.322635 Z M 60.782267,45.54121 c -2.338856,-0.07697 -4.743724,0.161558 -7.174456,0.753993 l -0.111943,0.02635 -0.108657,0.03291 c -4.114038,1.214937 -7.872482,3.406918 -10.954304,6.390835 l 6.611435,6.832032 c 1.950531,-1.888564 4.330205,-3.272976 6.927519,-4.059709 12.839466,-3.046057 24.019664,8.286741 20.75292,21.101932 C 73.448338,89.47279 58.121207,94.07098 48.310104,85.143956 l -6.397418,7.03288 C 56.716745,105.64691 80.993436,98.361653 85.937322,78.96715 90.263228,61.996956 77.154274,46.080023 60.782267,45.54121 Z M 70.896705,4.8190162 V 37.145786 H 103.22347 V 27.637913 H 80.404578 V 4.8190162 Z M 15.75011,0.06455647 V 119.86387 h 92.22752 V 115.10943 30.481103 L 77.623645,0.06455647 Z M 25.258983,9.5734302 H 73.679175 L 98.468759,34.415695 V 110.35499 H 25.258983 Z"
     inkscape:connector-curvature="0" />
</svg>
