<svg width="16" height="16" viewBox="0 0 16 16" fill="none" xmlns="http://www.w3.org/2000/svg">
<g clip-path="url(#clip0_31_87)">
<path fill-rule="evenodd" clip-rule="evenodd" d="M7.80272 9.10873C7.80272 9.10873 6.86376 12.5384 6.33252 14.5114C6.23368 14.8684 5.99897 15.1711 5.6654 15.3515C5.34418 15.5331 4.96114 15.5752 4.61521 15.4714C4.23222 15.3614 3.83688 15.2428 3.46624 15.1341C3.10796 15.0291 2.81147 14.7869 2.6385 14.4595C2.46554 14.1321 2.42845 13.7491 2.53965 13.397C3.13267 11.5117 4.14573 8.30814 4.14573 8.30814C4.14573 8.30814 5.82594 2.76835 6.36954 0.997932C6.46838 0.677948 6.75256 0.46051 7.08613 0.46051C7.5556 0.46051 8.17334 0.46051 8.17334 0.46051C8.17334 0.46051 8.75404 0.46051 9.21116 0.46051C9.54473 0.46051 9.8412 0.671759 9.94004 0.985566C10.496 2.73004 12.2627 8.22044 12.2627 8.22044C12.2627 8.22044 13.3005 11.4895 13.9059 13.397C14.0171 13.7491 13.98 14.1321 13.807 14.4595C13.6341 14.7869 13.3376 15.0291 12.9793 15.1341C12.6087 15.2428 12.201 15.3614 11.8303 15.4714C11.4844 15.5752 11.1014 15.5331 10.7801 15.3515C10.4466 15.1711 10.2119 14.8684 10.113 14.5114C9.58177 12.5384 8.64282 9.10873 8.64282 9.10873H7.80272ZM5.19592 9.10873C5.19592 9.10873 4.12103 12.4951 3.77511 13.5786C3.72569 13.7553 3.79985 13.9468 3.96046 14.0345C4.39287 14.121 5.09706 14.3261 5.09706 14.3261L6.51779 9.10873H5.19592ZM7.55561 1.69597C7.48148 1.69597 7.44439 1.69597 7.44439 1.69597C7.44439 1.69597 6.27073 5.57775 5.77655 7.18632C5.72713 7.34816 5.7642 7.52239 5.86304 7.65829C5.96187 7.79295 6.12252 7.87327 6.28313 7.87327C7.2962 7.87327 9.13697 7.87327 10.15 7.87327C10.3107 7.87327 10.4589 7.79791 10.5578 7.67065C10.669 7.5434 10.7061 7.37661 10.669 7.21723C10.1377 5.63461 8.86519 1.69597 8.86519 1.69597C8.86519 1.69597 8.84049 1.69597 8.79107 1.69597L8.82817 4.63509C9.35942 4.87106 9.73003 5.40235 9.73003 6.02008C9.73003 6.85402 9.05049 7.53228 8.22273 7.53228C7.38262 7.53228 6.70314 6.85402 6.70314 6.02008C6.70314 5.40729 7.07382 4.87972 7.59271 4.64127L7.55561 1.69597ZM9.92767 9.10873L11.3485 14.3261C11.3485 14.3261 11.9168 14.1605 12.3368 14.037C12.5716 13.9666 12.7075 13.7219 12.6581 13.481C12.2627 12.311 11.2496 9.10873 11.2496 9.10873H9.92767ZM8.22273 5.74213C8.07448 5.74213 7.9386 5.86688 7.9386 6.02008C7.9386 6.17328 8.07448 6.29682 8.22273 6.29682C8.37099 6.29682 8.49457 6.17328 8.49457 6.02008C8.49457 5.86935 8.38335 5.74707 8.2351 5.74213H8.22273Z" fill="black"/>
</g>
<defs>
<clipPath id="clip0_31_87">
<rect width="16" height="16" fill="white"/>
</clipPath>
</defs>
</svg>
