<?xml version="1.0" encoding="UTF-8" standalone="no"?>
<svg
   xmlns:dc="http://purl.org/dc/elements/1.1/"
   xmlns:cc="http://creativecommons.org/ns#"
   xmlns:rdf="http://www.w3.org/1999/02/22-rdf-syntax-ns#"
   xmlns:svg="http://www.w3.org/2000/svg"
   xmlns="http://www.w3.org/2000/svg"
   xmlns:sodipodi="http://sodipodi.sourceforge.net/DTD/sodipodi-0.dtd"
   xmlns:inkscape="http://www.inkscape.org/namespaces/inkscape"
   id="visual"
   viewBox="0 0 22 22"
   version="1.1"
   sodipodi:docname="form.svg"
   inkscape:version="0.92.3 (2405546, 2018-03-11)">
  <metadata
     id="metadata19">
    <rdf:RDF>
      <cc:Work
         rdf:about="">
        <dc:format>image/svg+xml</dc:format>
        <dc:type
           rdf:resource="http://purl.org/dc/dcmitype/StillImage" />
        <dc:title />
      </cc:Work>
    </rdf:RDF>
  </metadata>
  <sodipodi:namedview
     pagecolor="#ffffff"
     bordercolor="#666666"
     borderopacity="1"
     objecttolerance="10"
     gridtolerance="10"
     guidetolerance="10"
     inkscape:pageopacity="0"
     inkscape:pageshadow="2"
     inkscape:window-width="1680"
     inkscape:window-height="987"
     id="namedview17"
     showgrid="false"
     inkscape:zoom="15.170655"
     inkscape:cx="35.79249"
     inkscape:cy="-0.11544362"
     inkscape:window-x="1912"
     inkscape:window-y="-8"
     inkscape:window-maximized="1"
     inkscape:current-layer="visual" />
  <defs
     id="defs4">
    <style
       id="style2">.cls-1{fill:#d9d9d9;}</style>
  </defs>
  <g
     id="layer1"
     transform="matrix(1.8268545,0,0,1.8268545,-9.1101351,-8.5388368)"
     style="fill:#008fb8;fill-opacity:1">
    <g
       id="layer1-3"
       style="fill:#008fb8;fill-opacity:1">
      <path
         id="rect4591"
         style="fill:#008fb8;fill-opacity:1"
         d="m 6.59,6.73 h 0.76 c 0.6268702,-0.060538 1.1923622,0.3778281 1.29,1 v 0 C 8.547056,8.3549314 7.9783726,8.795771 7.35,8.73 H 6.59 C 5.9616274,8.795771 5.3929444,8.3549314 5.3,7.73 v 0 C 5.397638,7.1078281 5.9631298,6.6694622 6.59,6.73 Z M 5.3000002,7.7199998 h 3.3399999 v 1.44 H 5.3000002 Z M 8.0099998,5.6399999 c 0,0.5246705 -0.4566696,0.95 -1.02,0.95 -0.5633304,0 -1.02,-0.4253295 -1.02,-0.95 0,-0.5246705 0.4566696,-0.95 1.02,-0.95 0.5633304,0 1.02,0.4253295 1.02,0.95 z M 5.3200002,10.99 h 1.94 v 1.94 h -1.94 z m -0.04,3.72 h 1.9400001 v 1.94 H 5.2800002 Z M 8.71,14.77 h 8.05 v 1.940001 H 8.71 Z m 0,-3.76 h 8.05 v 1.94 H 8.71 Z"
         inkscape:connector-curvature="0"
         sodipodi:nodetypes="ccccccccccccccssssscccccccccccccccccccc" />
    </g>
  </g>
</svg>
