<?xml version="1.0" encoding="UTF-8" standalone="no"?>
<svg
   xmlns:dc="http://purl.org/dc/elements/1.1/"
   xmlns:cc="http://creativecommons.org/ns#"
   xmlns:rdf="http://www.w3.org/1999/02/22-rdf-syntax-ns#"
   xmlns:svg="http://www.w3.org/2000/svg"
   xmlns="http://www.w3.org/2000/svg"
   xmlns:sodipodi="http://sodipodi.sourceforge.net/DTD/sodipodi-0.dtd"
   xmlns:inkscape="http://www.inkscape.org/namespaces/inkscape"
   id="visual"
   viewBox="0 0 22 22"
   version="1.1"
   sodipodi:docname="form_path.svg"
   inkscape:version="0.92.3 (2405546, 2018-03-11)">
  <metadata
     id="metadata19">
    <rdf:RDF>
      <cc:Work
         rdf:about="">
        <dc:format>image/svg+xml</dc:format>
        <dc:type
           rdf:resource="http://purl.org/dc/dcmitype/StillImage" />
        <dc:title></dc:title>
      </cc:Work>
    </rdf:RDF>
  </metadata>
  <sodipodi:namedview
     pagecolor="#ffffff"
     bordercolor="#666666"
     borderopacity="1"
     objecttolerance="10"
     gridtolerance="10"
     guidetolerance="10"
     inkscape:pageopacity="0"
     inkscape:pageshadow="2"
     inkscape:window-width="1920"
     inkscape:window-height="1017"
     id="namedview17"
     showgrid="false"
     inkscape:zoom="30.341309"
     inkscape:cx="6.1962419"
     inkscape:cy="12.298598"
     inkscape:window-x="-8"
     inkscape:window-y="-8"
     inkscape:window-maximized="1"
     inkscape:current-layer="visual" />
  <defs
     id="defs4">
    <style
       id="style2">.cls-1{fill:#d9d9d9;}</style>
  </defs>
  <g
     id="layer1"
     transform="matrix(1.203981,0,0,1.203981,-2.2206609,-2.3525057)"
     style="fill:#008fb8;fill-opacity:1">
    <g
       id="layer1-3"
       style="fill:#008fb8;fill-opacity:1">
      <path
         id="rect4591"
         style="fill:#008fb8;fill-opacity:1"
         d="m 6.59,6.73 h 0.76 a 1.19,1.19 0 0 1 1.29,1 v 0 a 1.18,1.18 0 0 1 -1.29,1 H 6.59 a 1.18,1.18 0 0 1 -1.29,-1 v 0 a 1.19,1.19 0 0 1 1.29,-1 z M 5.3000002,7.7199998 h 3.3399999 v 1.44 H 5.3000002 Z M 8.0099998,5.6399999 a 1.02,0.94999999 0 0 1 -1.02,0.95 1.02,0.94999999 0 0 1 -1.02,-0.95 1.02,0.94999999 0 0 1 1.02,-0.95 1.02,0.94999999 0 0 1 1.02,0.95 z M 5.3200002,10.99 h 1.94 v 1.94 h -1.94 z m -0.04,3.72 h 1.9400001 v 1.94 H 5.2800002 Z M 8.71,14.77 h 8.05 v 1.940001 H 8.71 Z m 0,-3.76 h 8.05 v 1.94 H 8.71 Z M 2.9,2 A 0.9,0.9 0 0 0 2,2.91 v 16.37 a 0.9,0.9 0 0 0 0.9,0.91 H 19.1 A 0.9,0.9 0 0 0 20,19.28 V 2.93 A 0.9,0.9 0 0 0 19.1,2 Z m 1.39,1.43 h 13.5 a 0.9,0.9 0 0 1 0.9,0.91 V 18 a 0.9,0.9 0 0 1 -0.9,0.9 H 4.29 A 0.9,0.9 0 0 1 3.39,18 V 4.34 a 0.9,0.9 0 0 1 0.9,-0.91 z"
         inkscape:connector-curvature="0" />
    </g>
  </g>
</svg>
