<?xml version="1.0" encoding="UTF-8" standalone="no"?>
<svg
   xmlns:dc="http://purl.org/dc/elements/1.1/"
   xmlns:cc="http://creativecommons.org/ns#"
   xmlns:rdf="http://www.w3.org/1999/02/22-rdf-syntax-ns#"
   xmlns:svg="http://www.w3.org/2000/svg"
   xmlns="http://www.w3.org/2000/svg"
   xmlns:sodipodi="http://sodipodi.sourceforge.net/DTD/sodipodi-0.dtd"
   xmlns:inkscape="http://www.inkscape.org/namespaces/inkscape"
   id="visual"
   viewBox="0 0 22 22"
   version="1.1"
   sodipodi:docname="form-reset.svg"
   inkscape:version="0.92.3 (2405546, 2018-03-11)"
   width="22"
   height="22">
  <metadata
     id="metadata19">
    <rdf:RDF>
      <cc:Work
         rdf:about="">
        <dc:format>image/svg+xml</dc:format>
        <dc:type
           rdf:resource="http://purl.org/dc/dcmitype/StillImage" />
        <dc:title></dc:title>
      </cc:Work>
    </rdf:RDF>
  </metadata>
  <sodipodi:namedview
     pagecolor="#ffffff"
     bordercolor="#666666"
     borderopacity="1"
     objecttolerance="10"
     gridtolerance="10"
     guidetolerance="10"
     inkscape:pageopacity="0"
     inkscape:pageshadow="2"
     inkscape:window-width="1680"
     inkscape:window-height="987"
     id="namedview17"
     showgrid="false"
     inkscape:zoom="10.727272"
     inkscape:cx="15.403268"
     inkscape:cy="6.7084955"
     inkscape:window-x="1912"
     inkscape:window-y="-8"
     inkscape:window-maximized="1"
     inkscape:current-layer="visual"
     inkscape:pagecheckerboard="true"
     units="px" />
  <defs
     id="defs4">
    <style
       id="style2">.cls-1{fill:#d9d9d9;}</style>
  </defs>
  <path
     style="fill:#008fb8;fill-opacity:1;stroke-width:1.10890365"
     d="M 5.5585938,4.8164062 C 4.9335423,4.8155151 4.42621,5.2869843 4.4257812,5.8691406 4.4250502,6.4520599 4.9327229,6.9247206 5.5585938,6.9238281 6.1837018,6.9237141 6.6901824,6.4513487 6.6894531,5.8691406 6.6890241,5.2876952 6.1828827,4.8165203 5.5585938,4.8164062 Z m 0.5292968,2.2558594 c -0.043722,4.346e-4 -0.087396,0.00304 -0.1308594,0.00781 H 5.1152344 C 4.4247357,7.0126948 3.7999784,7.4915046 3.6855469,8.1757812 h -0.00195 V 8.1875 9.7734375 h 3.705075 V 8.1875 8.1757812 h -0.00195 C 7.281221,7.540194 6.7321722,7.073709 6.0878906,7.0722656 Z M 3.7050781,11.802734 v 2.152344 h 2.1523438 v -2.152344 z m 3.7597657,0.02149 v 2.152343 H 16.392578 V 11.824224 Z M 3.6621094,15.927739 V 18.07813 H 5.8125 v -2.150391 z m 3.8027344,0.06641 v 2.152343 h 8.9277342 v -2.152343 z"
     id="rect3713"
     inkscape:connector-curvature="0"
     sodipodi:nodetypes="ccccccccccccccccccccccccccccccccccccc" />
  <path
     inkscape:connector-curvature="0"
     style="display:inline;fill:#fbfbfd;stroke-width:0.72950494"
     d="M 21.9096,5.1489072 A 5.1065341,5.1065341 0 0 1 16.803066,10.255442 5.1065341,5.1065341 0 0 1 11.696531,5.1489072 5.1065341,5.1065341 0 0 1 16.803066,0.04237312 5.1065341,5.1065341 0 0 1 21.9096,5.1489072 Z"
     id="circle16" />
  <path
     inkscape:connector-curvature="0"
     id="polygon20"
     style="display:inline;fill:#008fb8;fill-opacity:1;stroke-width:0.72950494"
     d="m 16.281559,3.9542264 -2.18122,-2.3271205 -0.07295,2.2541701 z m -0.287414,-2.3801235 -0.0114,0.00284 -0.01001,0.00284 c -0.53176,0.1452945 -1.022915,0.4127106 -1.43332,0.7808027 l 0.974573,1.0857083 c 0.23833,-0.2137642 0.523894,-0.3668413 0.832088,-0.4530928 1.730843,-0.4094733 3.229731,1.1106827 2.789787,2.8368051 -0.440838,1.7296239 -2.493645,2.3490086 -3.817078,1.15125 l -0.978849,1.081435 c 2.090512,1.8919994 5.512981,0.8599573 6.209339,-1.8722048 0.69636,-2.7321636 -1.814039,-5.27694337 -4.55513,-4.6163981 z" />
</svg>
