<?xml version="1.0" encoding="UTF-8" standalone="no"?>
<svg
   xmlns:dc="http://purl.org/dc/elements/1.1/"
   xmlns:cc="http://creativecommons.org/ns#"
   xmlns:rdf="http://www.w3.org/1999/02/22-rdf-syntax-ns#"
   xmlns:svg="http://www.w3.org/2000/svg"
   xmlns="http://www.w3.org/2000/svg"
   xmlns:sodipodi="http://sodipodi.sourceforge.net/DTD/sodipodi-0.dtd"
   xmlns:inkscape="http://www.inkscape.org/namespaces/inkscape"
   id="visual"
   viewBox="0 0 22 22"
   version="1.1"
   sodipodi:docname="form-border-reset.svg"
   inkscape:version="0.92.3 (2405546, 2018-03-11)"
   width="22"
   height="22">
  <metadata
     id="metadata19">
    <rdf:RDF>
      <cc:Work
         rdf:about="">
        <dc:format>image/svg+xml</dc:format>
        <dc:type
           rdf:resource="http://purl.org/dc/dcmitype/StillImage" />
        <dc:title />
      </cc:Work>
    </rdf:RDF>
  </metadata>
  <sodipodi:namedview
     pagecolor="#ffffff"
     bordercolor="#666666"
     borderopacity="1"
     objecttolerance="10"
     gridtolerance="10"
     guidetolerance="10"
     inkscape:pageopacity="0"
     inkscape:pageshadow="2"
     inkscape:window-width="1680"
     inkscape:window-height="987"
     id="namedview17"
     showgrid="false"
     inkscape:zoom="15.170654"
     inkscape:cx="-3.5896568"
     inkscape:cy="13.204892"
     inkscape:window-x="1912"
     inkscape:window-y="-8"
     inkscape:window-maximized="1"
     inkscape:current-layer="visual"
     inkscape:pagecheckerboard="true"
     units="px" />
  <defs
     id="defs4">
    <style
       id="style2">.cls-1{fill:#d9d9d9;}</style>
  </defs>
  <path
     style="fill:#008fb8;fill-opacity:1;stroke-width:1.10890365"
     d="M 1.0234375 1.8320312 A 0.99801324 0.99801324 0 0 0 0.0234375 2.8417969 L 0.0234375 20.994141 A 0.99801324 0.99801324 0 0 0 1.0234375 22.003906 L 18.986328 22.003906 A 0.99801324 0.99801324 0 0 0 19.984375 20.994141 L 19.984375 9.1425781 A 5.1065341 5.1065341 0 0 1 18.53125 9.9492188 L 18.53125 19.576172 A 0.99801324 0.99801324 0 0 1 17.533203 20.574219 L 2.5625 20.574219 A 0.99801324 0.99801324 0 0 1 1.5664062 19.576172 L 1.5664062 4.4277344 A 0.99801324 0.99801324 0 0 1 2.5625 3.4199219 L 12.003906 3.4199219 A 5.1065341 5.1065341 0 0 1 12.921875 1.8320312 L 1.0234375 1.8320312 z M 5.5585938 4.8164062 A 1.1310816 1.0534584 0 0 0 4.4257812 5.8691406 A 1.1310816 1.0534584 0 0 0 5.5585938 6.9238281 A 1.1310816 1.0534584 0 0 0 6.6894531 5.8691406 A 1.1310816 1.0534584 0 0 0 5.5585938 4.8164062 z M 6.0878906 7.0722656 A 1.3195953 1.3195953 0 0 0 5.9570312 7.0800781 L 5.1152344 7.0800781 A 1.3195953 1.3195953 0 0 0 3.6855469 8.1757812 L 3.6835938 8.1757812 L 3.6835938 8.1875 L 3.6835938 9.7734375 L 7.3886719 9.7734375 L 7.3886719 8.1875 L 7.3886719 8.1757812 L 7.3867188 8.1757812 A 1.3195953 1.3195953 0 0 0 6.0878906 7.0722656 z M 3.7050781 11.802734 L 3.7050781 13.955078 L 5.8574219 13.955078 L 5.8574219 11.802734 L 3.7050781 11.802734 z M 7.4648438 11.824219 L 7.4648438 13.976562 L 16.392578 13.976562 L 16.392578 11.824219 L 7.4648438 11.824219 z M 3.6621094 15.927734 L 3.6621094 18.078125 L 5.8125 18.078125 L 5.8125 15.927734 L 3.6621094 15.927734 z M 7.4648438 15.994141 L 7.4648438 18.146484 L 16.392578 18.146484 L 16.392578 15.994141 L 7.4648438 15.994141 z "
     id="rect3713" />
  <path
     inkscape:connector-curvature="0"
     style="display:inline;fill:#fbfbfd;stroke-width:0.72950494"
     d="M 21.9096,5.1489072 A 5.1065341,5.1065341 0 0 1 16.803066,10.255442 5.1065341,5.1065341 0 0 1 11.696531,5.1489072 5.1065341,5.1065341 0 0 1 16.803066,0.04237312 5.1065341,5.1065341 0 0 1 21.9096,5.1489072 Z"
     id="circle16" />
  <path
     inkscape:connector-curvature="0"
     id="polygon20"
     style="fill:#008fb8;fill-opacity:1;stroke-width:0.72950494"
     d="m 16.281559,3.9542264 -2.18122,-2.3271205 -0.07295,2.2541701 z m -0.287414,-2.3801235 -0.0114,0.00284 -0.01001,0.00284 c -0.53176,0.1452945 -1.022915,0.4127106 -1.43332,0.7808027 l 0.974573,1.0857083 c 0.23833,-0.2137642 0.523894,-0.3668413 0.832088,-0.4530928 1.730843,-0.4094733 3.229731,1.1106827 2.789787,2.8368051 -0.440838,1.7296239 -2.493645,2.3490086 -3.817078,1.15125 l -0.978849,1.081435 c 2.090512,1.8919994 5.512981,0.8599573 6.209339,-1.8722048 0.69636,-2.7321636 -1.814039,-5.27694337 -4.55513,-4.6163981 z" />
</svg>
