<?xml version="1.0" encoding="UTF-8" standalone="no"?>
<!-- Created with Inkscape (http://www.inkscape.org/) -->

<svg
   xmlns:dc="http://purl.org/dc/elements/1.1/"
   xmlns:cc="http://creativecommons.org/ns#"
   xmlns:rdf="http://www.w3.org/1999/02/22-rdf-syntax-ns#"
   xmlns:svg="http://www.w3.org/2000/svg"
   xmlns="http://www.w3.org/2000/svg"
   xmlns:sodipodi="http://sodipodi.sourceforge.net/DTD/sodipodi-0.dtd"
   xmlns:inkscape="http://www.inkscape.org/namespaces/inkscape"
   width="22mm"
   height="22mm"
   viewBox="0 0 22 22"
   version="1.1"
   id="svg948"
   sodipodi:docname="garbage-can-open.svg"
   inkscape:version="0.92.3 (2405546, 2018-03-11)">
  <defs
     id="defs942" />
  <sodipodi:namedview
     id="base"
     pagecolor="#ffffff"
     bordercolor="#666666"
     borderopacity="1.0"
     inkscape:pageopacity="0.0"
     inkscape:pageshadow="2"
     inkscape:zoom="3.959798"
     inkscape:cx="38.931258"
     inkscape:cy="58.860326"
     inkscape:document-units="mm"
     inkscape:current-layer="svg948"
     showgrid="false"
     inkscape:window-width="1680"
     inkscape:window-height="987"
     inkscape:window-x="1912"
     inkscape:window-y="-8"
     inkscape:window-maximized="1" />
  <metadata
     id="metadata945">
    <rdf:RDF>
      <cc:Work
         rdf:about="">
        <dc:format>image/svg+xml</dc:format>
        <dc:type
           rdf:resource="http://purl.org/dc/dcmitype/StillImage" />
        <dc:title></dc:title>
      </cc:Work>
    </rdf:RDF>
  </metadata>
  <path
     style="fill:#008fb8;fill-opacity:1;fill-rule:nonzero;stroke:none;stroke-width:1.66922498"
     d="M 45.003906 0.79296875 C 44.912878 0.79401362 44.822033 0.80489371 44.734375 0.828125 L 26.40625 5.6855469 C 25.00372 6.0572483 24.623956 9.183405 25.554688 12.695312 L 25.835938 13.751953 L 27.232422 13.382812 C 26.876126 10.819043 27.224956 8.7909557 28.205078 8.53125 L 44.371094 4.2460938 C 45.351035 3.9863873 46.656972 5.5767539 47.617188 7.9804688 L 49.226562 7.5527344 L 48.947266 6.4960938 C 48.074705 3.203681 46.369331 0.77729569 45.003906 0.79296875 z M 61.078125 4.8007812 C 60.554741 4.827443 60.02759 4.9095225 59.501953 5.0488281 L 16.279297 16.503906 C 12.074198 17.61835 9.6163671 22.023957 10.529297 26.59375 L 69.496094 10.966797 C 68.209733 7.0974391 64.741811 4.6141493 61.078125 4.8007812 z M 15.736328 27.113281 L 15.736328 70.083984 C 15.736328 76.839512 19.048696 82.287109 23.164062 82.287109 L 61.375 82.287109 C 65.490365 82.287109 68.802734 76.839512 68.802734 70.083984 L 68.802734 27.113281 L 15.736328 27.113281 z M 58.216797 32.953125 C 58.357584 32.922889 58.490172 32.953125 58.634766 32.953125 C 60.948585 32.953125 62.814453 37.117812 62.814453 42.292969 L 62.814453 64.304688 C 62.814453 69.479881 60.948585 73.646484 58.634766 73.646484 C 56.320939 73.646484 54.457031 69.479881 54.457031 64.304688 L 54.457031 42.292969 C 54.457031 37.441264 56.105613 33.429799 58.216797 32.953125 z M 25.996094 33.302734 C 26.136843 33.272498 26.269446 33.302734 26.414062 33.302734 C 28.727889 33.302734 30.59375 37.469337 30.59375 42.644531 L 30.59375 64.654297 C 30.59375 69.829415 28.727889 73.996094 26.414062 73.996094 C 24.100242 73.996094 22.236328 69.829415 22.236328 64.654297 L 22.236328 42.644531 C 22.236328 37.792789 23.884915 33.779371 25.996094 33.302734 z M 42.710938 33.478516 C 45.024757 33.478516 46.888672 37.645194 46.888672 42.820312 L 46.888672 64.888672 C 46.888672 70.063828 45.024757 74.230469 42.710938 74.230469 C 40.397118 74.230469 38.53125 70.063828 38.53125 64.888672 L 38.53125 42.820312 C 38.53125 37.645194 40.397118 33.478516 42.710938 33.478516 z "
     transform="scale(0.26458333)"
     id="rect3964-2" />
</svg>
