<?xml version="1.0" encoding="UTF-8" standalone="no"?>
<svg
   xmlns:dc="http://purl.org/dc/elements/1.1/"
   xmlns:cc="http://creativecommons.org/ns#"
   xmlns:rdf="http://www.w3.org/1999/02/22-rdf-syntax-ns#"
   xmlns:svg="http://www.w3.org/2000/svg"
   xmlns="http://www.w3.org/2000/svg"
   xmlns:sodipodi="http://sodipodi.sourceforge.net/DTD/sodipodi-0.dtd"
   xmlns:inkscape="http://www.inkscape.org/namespaces/inkscape"
   id="visual"
   viewBox="0 0 120 120"
   version="1.1"
   sodipodi:docname="Process60_path.svg"
   inkscape:version="0.92.3 (2405546, 2018-03-11)">
  <metadata
     id="metadata21731">
    <rdf:RDF>
      <cc:Work
         rdf:about="">
        <dc:format>image/svg+xml</dc:format>
        <dc:type
           rdf:resource="http://purl.org/dc/dcmitype/StillImage" />
        <dc:title />
      </cc:Work>
    </rdf:RDF>
  </metadata>
  <sodipodi:namedview
     pagecolor="#ffffff"
     bordercolor="#666666"
     borderopacity="1"
     objecttolerance="10"
     gridtolerance="10"
     guidetolerance="10"
     inkscape:pageopacity="0"
     inkscape:pageshadow="2"
     inkscape:window-width="1680"
     inkscape:window-height="987"
     id="namedview21729"
     showgrid="false"
     inkscape:zoom="2"
     inkscape:cx="2.5988399"
     inkscape:cy="-46.959284"
     inkscape:window-x="1912"
     inkscape:window-y="-8"
     inkscape:window-maximized="1"
     inkscape:current-layer="visual" />
  <defs
     id="defs21720">
    <style
       id="style21718">.cls-1{fill:#bb0a30;}</style>
  </defs>
  <path
     id="path21726"
     style="fill:#008fb8;stroke-width:1.17626727;fill-opacity:1"
     d="M 61.491335,74.65515 H 59.997474 A 14.691576,14.691576 0 0 1 45.329425,59.987099 h -9.410137 a 24.101715,24.101715 0 0 0 24.078186,24.078188 h 1.493861 v 5.610794 L 79.370596,79.360218 61.491335,69.032592 Z M 59.997474,35.90891 H 58.503616 V 30.298116 L 40.624356,40.61398 58.503616,50.941605 V 45.31905 h 1.493858 a 14.691576,14.691576 0 0 1 14.668051,14.668049 h 9.410138 A 24.101715,24.101715 0 0 0 59.997474,35.90891 Z m 59.107426,13.809377 -0.67048,-3.846393 h -10.9628 a 49.215017,49.215017 0 0 0 -3.89345,-9.410137 l 7.75161,-7.751602 -2.28195,-3.234734 A 59.907284,59.907284 0 0 0 94.532681,10.936759 L 91.297944,8.6548006 83.522819,16.465215 A 49.215017,49.215017 0 0 0 74.112681,12.57177 V 1.5501474 L 70.207475,0.87967522 a 60.671859,60.671859 0 0 0 -20.514099,0 L 45.882272,1.5501474 V 12.512958 a 49.215017,49.215017 0 0 0 -9.41014,3.952257 L 28.720533,8.7136146 25.462273,10.936759 A 59.907284,59.907284 0 0 0 10.947137,25.451895 l -2.2819581,3.234735 7.8104121,7.775127 a 49.215017,49.215017 0 0 0 -3.893444,9.410137 H 1.5605243 l -0.67047211,3.893443 a 60.201352,60.201352 0 0 0 0,20.537624 L 1.5605243,74.102305 H 12.523336 a 49.215017,49.215017 0 0 0 3.952255,9.410137 l -7.7515991,7.7516 2.2819561,3.234735 a 59.907284,59.907284 0 0 0 14.456325,14.538663 l 3.234733,2.28196 7.775126,-7.75161 a 49.215017,49.215017 0 0 0 9.41014,3.89344 v 10.96283 l 3.893444,0.67046 a 60.201352,60.201352 0 0 0 20.537624,0 l 3.893444,-0.67046 v -10.96283 a 49.215017,49.215017 0 0 0 9.410137,-3.89344 l 7.751599,7.75161 3.234736,-2.28196 A 59.907284,59.907284 0 0 0 109.04783,94.522302 l 2.28195,-3.234735 -7.75161,-7.775125 a 49.215017,49.215017 0 0 0 3.89345,-9.410137 h 10.9628 l 0.67048,-3.893446 a 60.201352,60.201352 0 0 0 0,-20.537622 z m -8.75143,14.97388 H 99.990566 l -0.799869,3.717005 A 39.475525,39.475525 0 0 1 93.69753,81.677466 l -2.034942,3.246495 7.30462,7.30462 a 50.508911,50.508911 0 0 1 -6.72825,6.728249 l -7.304619,-7.304618 -3.199447,2.058466 a 39.475525,39.475525 0 0 1 -13.268293,5.493167 l -3.764055,0.776337 v 10.339378 a 51.308773,51.308773 0 0 1 -9.504237,0 V 99.980182 L 51.481302,99.18032 A 39.475525,39.475525 0 0 1 38.213008,93.687152 l -3.152395,-2.03494 -7.304618,7.304618 a 50.508911,50.508911 0 0 1 -6.728249,-6.728249 l 7.304617,-7.30462 -2.058466,-3.199445 A 39.475525,39.475525 0 0 1 20.78073,68.456223 L 20.004393,64.692167 H 9.6414791 C 9.4885639,63.11597 9.417989,61.528007 9.417989,59.987099 c 0,-1.540911 0.070573,-3.175923 0.2234901,-4.705068 H 20.004393 l 0.799861,-3.717006 a 39.475525,39.475525 0 0 1 5.49317,-13.268293 l 2.058465,-3.199446 -7.304617,-7.304617 a 49.814915,49.814915 0 0 1 6.728246,-6.72825 l 7.30462,7.304619 3.199445,-2.058468 a 39.475525,39.475525 0 0 1 13.24477,-5.540218 l 3.764056,-0.776335 V 9.6311034 a 51.308773,51.308773 0 0 1 9.504235,0 V 19.994017 l 3.717005,0.799859 a 39.475525,39.475525 0 0 1 13.268294,5.493169 l 3.199446,2.058468 7.304619,-7.304618 a 49.814915,49.814915 0 0 1 6.72825,6.728247 l -7.35167,7.281094 2.058466,3.199447 a 39.475525,39.475525 0 0 1 5.493169,13.268293 l 0.776343,3.764055 h 10.339374 c 0.15292,1.576197 0.2235,3.164157 0.2235,4.705068 0,1.540908 -0.0471,3.175922 -0.19997,4.705068 z"
     inkscape:connector-curvature="0" />
</svg>
