<?xml version="1.0" encoding="UTF-8" standalone="no"?>
<svg
   xmlns:dc="http://purl.org/dc/elements/1.1/"
   xmlns:cc="http://creativecommons.org/ns#"
   xmlns:rdf="http://www.w3.org/1999/02/22-rdf-syntax-ns#"
   xmlns:svg="http://www.w3.org/2000/svg"
   xmlns="http://www.w3.org/2000/svg"
   xmlns:sodipodi="http://sodipodi.sourceforge.net/DTD/sodipodi-0.dtd"
   xmlns:inkscape="http://www.inkscape.org/namespaces/inkscape"
   id="visual"
   viewBox="0 0 120 120"
   version="1.1"
   sodipodi:docname="ProcessInstance60_path.svg"
   inkscape:version="0.92.3 (2405546, 2018-03-11)">
  <metadata
     id="metadata22315">
    <rdf:RDF>
      <cc:Work
         rdf:about="">
        <dc:format>image/svg+xml</dc:format>
        <dc:type
           rdf:resource="http://purl.org/dc/dcmitype/StillImage" />
        <dc:title />
      </cc:Work>
    </rdf:RDF>
  </metadata>
  <sodipodi:namedview
     pagecolor="#ffffff"
     bordercolor="#666666"
     borderopacity="1"
     objecttolerance="10"
     gridtolerance="10"
     guidetolerance="10"
     inkscape:pageopacity="0"
     inkscape:pageshadow="2"
     inkscape:window-width="1680"
     inkscape:window-height="987"
     id="namedview22313"
     showgrid="false"
     inkscape:zoom="1.4142136"
     inkscape:cx="468.1983"
     inkscape:cy="-152.01079"
     inkscape:window-x="1912"
     inkscape:window-y="-8"
     inkscape:window-maximized="1"
     inkscape:current-layer="visual" />
  <defs
     id="defs22302">
    <style
       id="style22300">.cls-1{fill:#bb0a30;}</style>
  </defs>
  <path
     id="polygon22310"
     style="fill:#008fb8;fill-opacity:1;stroke-width:1.17616737"
     d="M 96.790795,108.92227 117.16201,86.339843 96.790795,63.745671 v 9.374052 H 64.69319 V 99.548202 H 96.790795 Z M 55.283852,73.872472 A 14.69033,14.69033 0 0 1 45.321715,59.993697 h -9.409338 a 24.111429,24.111429 0 0 0 19.371475,23.60568 z m 9.409339,35.085068 v 1.38788 a 51.304418,51.304418 0 0 1 -9.503432,0 V 99.983386 L 51.47307,99.183592 a 39.472175,39.472175 0 0 1 -13.267166,-5.4927 l -3.152129,-2.034771 -7.303999,7.303999 a 50.504624,50.504624 0 0 1 -6.727678,-6.727675 l 7.304001,-7.304 -2.058295,-3.199175 A 39.472175,39.472175 0 0 1 20.775103,68.462102 l -0.77627,-3.763735 H 9.6368001 c -0.1529017,-1.576064 -0.2234729,-3.16389 -0.2234729,-4.70467 0,-1.540778 0.07057,-3.17565 0.2234729,-4.704668 H 19.998833 l 0.799794,-3.716689 a 39.472175,39.472175 0 0 1 5.492702,-13.267169 l 2.058292,-3.199173 -7.303998,-7.304001 A 49.810687,49.810687 0 0 1 27.7733,21.074321 l 7.303999,7.304001 3.199174,-2.058294 A 39.472175,39.472175 0 0 1 51.520119,20.78028 l 3.763733,-0.77627 V 9.6419768 a 51.304418,51.304418 0 0 1 9.503432,0 V 20.00401 l 3.716688,0.799794 a 39.472175,39.472175 0 0 1 13.267169,5.492701 l 3.199175,2.058293 7.303998,-7.303998 a 49.810687,49.810687 0 0 1 6.727676,6.727677 l -7.351045,7.280474 2.058293,3.199176 a 39.472175,39.472175 0 0 1 5.4927,13.267167 l 0.246994,1.176167 2.352328,2.587568 h 8.5625 c 0.1529,1.576064 0.22348,3.16389 0.22348,4.704668 0,1.54078 -0.0706,3.163892 -0.22348,4.70467 l 8.15086,9.032965 0.59984,-3.528501 a 60.196243,60.196243 0 0 0 0,-20.535883 l -0.69394,-3.787258 h -10.96189 a 49.21084,49.21084 0 0 0 -3.89312,-9.409337 l 7.75095,-7.750943 -2.28176,-3.234459 A 59.9022,59.9022 0 0 0 94.520794,10.947523 L 91.286333,8.665757 83.511869,16.475509 A 49.21084,49.21084 0 0 0 74.102527,12.582394 V 1.5617066 L 70.197653,0.89129122 a 60.66671,60.66671 0 0 0 -20.512357,0 L 45.874513,1.5617066 V 12.523587 a 49.21084,49.21084 0 0 0 -9.409336,3.951922 L 28.714233,8.7245653 25.45625,10.947523 A 59.9022,59.9022 0 0 0 10.942346,25.461426 l -2.2817659,3.23446 7.8097509,7.774467 A 49.21084,49.21084 0 0 0 12.577219,45.87969 H 1.5565299 l -0.67041525,3.893115 a 60.196243,60.196243 0 0 0 0,20.535879 L 1.5565299,74.107706 H 12.51841 a 49.21084,49.21084 0 0 0 3.951921,9.409337 l -7.7509413,7.750943 2.2817653,3.23446 A 59.9022,59.9022 0 0 0 25.45625,109.03988 l 3.234459,2.28176 7.774468,-7.75094 a 49.21084,49.21084 0 0 0 9.409336,3.89311 v 10.96187 l 3.893116,0.67043 a 60.196243,60.196243 0 0 0 20.535879,0 l 3.893115,-0.67043 v -9.46814 z M 59.988522,35.917553 H 58.494789 V 30.307235 L 40.617046,40.622223 58.494789,50.948971 v -5.622079 h 1.493733 a 14.69033,14.69033 0 0 1 14.666807,14.666805 h 9.409338 A 24.099669,24.099669 0 0 0 59.988522,35.917553 Z"
     inkscape:connector-curvature="0" />
</svg>
