<svg width="18" height="18" viewBox="0 0 18 18" fill="none" xmlns="http://www.w3.org/2000/svg">
<path d="M9.59842 3.10032C9.55725 2.09735 8.23437 1.76575 7.72497 2.63071L7.60144 2.84047C7.27596 3.39314 6.52357 3.50462 6.05182 3.07007L5.87277 2.90514C5.13446 2.22505 3.96456 2.926 4.21598 3.89781L4.27695 4.13348C4.4376 4.75443 3.98441 5.36527 3.34356 5.39158L3.10032 5.40157C2.09736 5.44274 1.76576 6.76562 2.63072 7.27501L2.84048 7.39855C3.39315 7.72403 3.50463 8.47642 3.07008 8.94817L2.90515 9.12722C2.22506 9.86553 2.926 11.0354 3.89781 10.784L4.13349 10.723C4.75444 10.5624 5.36528 11.0156 5.39159 11.6564L5.40157 11.8997C5.44274 12.9026 6.76563 13.2342 7.27502 12.3693L7.39856 12.1595C7.72404 11.6068 8.47642 11.4954 8.94818 11.9299L9.12723 12.0948C9.86554 12.7749 11.0354 12.074 10.784 11.1022L10.723 10.8665C10.5624 10.2456 11.0156 9.63471 11.6564 9.6084L11.8997 9.59842C12.9026 9.55724 13.2342 8.23436 12.3693 7.72497L12.1595 7.60143C11.6068 7.27595 11.4954 6.52356 11.9299 6.05181L12.0948 5.87276C12.7749 5.13445 12.074 3.96455 11.1022 4.21597L10.8665 4.27694C10.2456 4.43759 9.63472 3.9844 9.60841 3.34355L9.59842 3.10032ZM7.01042 9.45312C5.93173 9.18274 5.27648 8.08909 5.54686 7.01041C5.81725 5.93172 6.91089 5.27647 7.98958 5.54686C9.06827 5.81725 9.72352 6.91089 9.45313 7.98957C9.18274 9.06826 8.0891 9.72351 7.01042 9.45312Z" fill="black"/>
<path d="M14.7023 10.5252C14.4959 9.82494 13.5041 9.82494 13.2977 10.5252L13.2476 10.695C13.1157 11.1425 12.6047 11.3541 12.195 11.131L12.0396 11.0463C11.3985 10.6971 10.6971 11.3985 11.0463 12.0396L11.131 12.195C11.3541 12.6047 11.1424 13.1157 10.695 13.2476L10.5252 13.2977C9.82494 13.5041 9.82494 14.4959 10.5252 14.7023L10.695 14.7524C11.1425 14.8843 11.3541 15.3953 11.131 15.805L11.0463 15.9604C10.6971 16.6015 11.3985 17.3029 12.0396 16.9537L12.195 16.869C12.6047 16.6459 13.1157 16.8576 13.2476 17.305L13.2977 17.4748C13.5041 18.1751 14.4959 18.1751 14.7023 17.4748L14.7524 17.305C14.8843 16.8576 15.3953 16.6459 15.805 16.869L15.9604 16.9537C16.6015 17.3029 17.3029 16.6015 16.9537 15.9604L16.869 15.805C16.6459 15.3953 16.8576 14.8843 17.305 14.7524L17.4748 14.7023C18.1751 14.4959 18.1751 13.5041 17.4748 13.2977L17.305 13.2476C16.8576 13.1157 16.6459 12.6047 16.869 12.195L16.9537 12.0396C17.3029 11.3985 16.6015 10.6971 15.9604 11.0463L15.805 11.131C15.3953 11.3541 14.8843 11.1424 14.7524 10.695L14.7023 10.5252ZM14 15.4644C13.1912 15.4644 12.5356 14.8088 12.5356 14C12.5356 13.1912 13.1912 12.5356 14 12.5356C14.8088 12.5356 15.4644 13.1912 15.4644 14C15.4644 14.8088 14.8088 15.4644 14 15.4644Z" fill="black"/>
</svg>
