<?xml version="1.0" encoding="UTF-8" standalone="no"?>
<svg
   xmlns:dc="http://purl.org/dc/elements/1.1/"
   xmlns:cc="http://creativecommons.org/ns#"
   xmlns:rdf="http://www.w3.org/1999/02/22-rdf-syntax-ns#"
   xmlns:svg="http://www.w3.org/2000/svg"
   xmlns="http://www.w3.org/2000/svg"
   xmlns:sodipodi="http://sodipodi.sourceforge.net/DTD/sodipodi-0.dtd"
   xmlns:inkscape="http://www.inkscape.org/namespaces/inkscape"
   id="visual"
   viewBox="0 0 120 120"
   version="1.1"
   sodipodi:docname="createWfInstance_path.svg"
   inkscape:version="0.92.3 (2405546, 2018-03-11)">
  <metadata
     id="metadata13039">
    <rdf:RDF>
      <cc:Work
         rdf:about="">
        <dc:format>image/svg+xml</dc:format>
        <dc:type
           rdf:resource="http://purl.org/dc/dcmitype/StillImage" />
        <dc:title />
      </cc:Work>
    </rdf:RDF>
  </metadata>
  <sodipodi:namedview
     pagecolor="#ffffff"
     bordercolor="#666666"
     borderopacity="1"
     objecttolerance="10"
     gridtolerance="10"
     guidetolerance="10"
     inkscape:pageopacity="0"
     inkscape:pageshadow="2"
     inkscape:window-width="1920"
     inkscape:window-height="1017"
     id="namedview13037"
     showgrid="false"
     inkscape:zoom="3.9333333"
     inkscape:cx="167.81337"
     inkscape:cy="49.257763"
     inkscape:window-x="-8"
     inkscape:window-y="-8"
     inkscape:window-maximized="1"
     inkscape:current-layer="visual" />
  <defs
     id="defs13022">
    <style
       id="style13020">.cls-1{fill:#d9d9d9;}</style>
  </defs>
  <path
     id="path13034"
     style="fill:#008fb8;fill-opacity:1;stroke-width:1.17483747"
     d="m 118.9631,49.7703 -0.66965,-3.841718 h -10.94949 a 49.155202,49.155202 0 0 0 -3.88871,-9.3987 l 7.74217,-7.742179 -2.27918,-3.230802 A 59.834473,59.834473 0 0 0 94.420748,11.03591 L 91.189946,8.7567236 83.424269,16.557644 A 49.155202,49.155202 0 0 0 74.02557,12.668932 V 1.6607056 L 70.125109,0.99104714 a 60.598117,60.598117 0 0 0 -20.489165,0 L 45.829469,1.6607056 V 12.61019 a 49.155202,49.155202 0 0 0 -9.398701,3.947454 l -2.349674,-2.349676 v 0 a 19.843005,19.843005 0 0 1 -2.913597,10.338571 l 3.853467,3.853467 3.195559,-2.055965 a 39.427546,39.427546 0 0 1 13.252166,-5.486492 l 3.75948,-0.775391 V 9.7318396 a 51.246412,51.246412 0 0 1 9.492687,0 V 20.082158 l 3.712487,0.798889 a 39.427546,39.427546 0 0 1 13.252167,5.486491 l 3.195558,2.055966 7.295742,-7.295743 a 49.754367,49.754367 0 0 1 6.72007,6.720073 l -7.342735,7.272243 2.055966,3.195558 a 39.427546,39.427546 0 0 1 5.486491,13.252167 l 0.246716,1.174839 2.349682,2.584641 h 8.5528 c 0.15273,1.574282 0.22322,3.160314 0.22322,4.69935 0,1.539038 -0.0705,3.160314 -0.22322,4.69935 l 8.14163,9.022753 0.59917,-3.524513 a 60.128182,60.128182 0 0 0 0,-20.512664 z m -54.33623,60.55112 a 51.246412,51.246412 0 0 1 -9.492687,0 V 99.971106 L 51.421696,99.172218 A 39.427546,39.427546 0 0 1 38.169529,93.685727 l -3.148565,-2.032471 -7.29574,7.295743 a 50.447522,50.447522 0 0 1 -6.720071,-6.720071 l 7.295742,-7.295741 -2.055966,-3.195558 A 39.427546,39.427546 0 0 1 20.758437,68.485462 l -0.775391,-3.75948 H 9.6327266 c -0.1527294,-1.574283 -0.223219,-3.160312 -0.223219,-4.69935 0,-1.539036 0.070487,-3.172061 0.223219,-4.69935 H 19.983046 l 0.798887,-3.712485 a 39.427546,39.427546 0 0 1 5.486494,-13.252169 l 2.055964,-3.195558 -3.876963,-3.900461 a 19.843005,19.843005 0 0 1 -10.33857,2.913598 v 0 l 2.349675,2.349675 a 49.155202,49.155202 0 0 0 -3.888713,9.3987 H 1.5615929 l -0.6696573,3.888712 a 60.128182,60.128182 0 0 0 0,20.512663 l 0.6696573,3.794725 H 12.511078 a 49.155202,49.155202 0 0 0 3.947455,9.398701 L 8.7163532,91.26556 10.995539,94.496364 A 59.834473,59.834473 0 0 0 25.43429,109.01736 l 3.230805,2.27919 7.765673,-7.74219 a 49.155202,49.155202 0 0 0 9.398701,3.88871 v 10.94948 l 3.888714,0.66967 a 60.128182,60.128182 0 0 0 20.512661,0 l 3.888711,-0.66967 v -9.45743 H 64.62687 Z M 25.739749,5.9018687 22.41496,2.5770785 16.458533,8.5335037 V 0.10991972 h -4.69935 V 8.5335037 L 5.8027565,2.5770785 2.4779663,5.9018687 8.4343931,11.858295 H 0.01080756 v 4.699349 H 8.4343931 l -5.9564268,5.956426 3.3247902,3.32479 5.9564265,-5.956425 v 8.423585 h 4.69935 v -8.423585 l 5.956427,5.956425 3.324789,-3.32479 -5.956426,-5.956426 h 8.423584 V 11.858295 H 19.783323 Z M 96.688186,108.89988 117.03638,86.342993 96.688186,63.774365 v 9.363454 H 64.62687 V 99.536418 H 96.688186 Z M 55.228169,73.889714 A 14.67372,14.67372 0 0 1 45.277296,60.026632 H 35.878597 A 24.08417,24.08417 0 0 0 55.228169,83.605621 Z M 59.92752,35.977707 H 58.435476 V 30.373733 L 40.577947,40.677058 58.435476,50.992132 v -5.615724 h 1.492044 a 14.67372,14.67372 0 0 1 14.650223,14.650224 h 9.398701 A 24.07242,24.07242 0 0 0 59.92752,35.977707 Z"
     inkscape:connector-curvature="0" />
</svg>
