<svg width="16" height="16" viewBox="0 0 16 16" fill="none" xmlns="http://www.w3.org/2000/svg">
<g clip-path="url(#clip0_31_46)">
<path fill-rule="evenodd" clip-rule="evenodd" d="M3.02524 8.02927C2.71524 7.85727 2.42525 7.64027 2.16525 7.37827C0.625254 5.84527 0.625254 3.35428 2.16525 1.82028C3.69525 0.287282 6.18519 0.287282 7.72519 1.82028C8.18519 2.28828 8.51516 2.84427 8.69516 3.43527L13.2552 4.75223C13.4252 4.80123 13.5552 4.93824 13.6052 5.11124L14.9752 10.5952C15.0352 10.8622 14.8752 11.1343 14.6052 11.2013C14.3452 11.2683 14.0652 11.1052 14.0052 10.8372L12.6952 5.63327C12.6952 5.63327 10.4152 4.97327 9.37521 4.67227C9.25521 4.63827 9.12524 4.65928 9.02524 4.72928C8.91524 4.80028 8.85519 4.91428 8.84519 5.03928C8.75519 5.89428 8.37519 6.72327 7.72519 7.37827C6.90519 8.19727 5.81521 8.57826 4.74521 8.52426C4.60521 8.51326 4.47523 8.56724 4.39523 8.66824C4.30523 8.76924 4.27515 8.90625 4.30515 9.03525C4.60515 10.2762 5.30515 13.0453 5.30515 13.0453L10.4952 14.3432C10.7652 14.4102 10.9252 14.6823 10.8552 14.9503C10.7952 15.2173 10.5252 15.3802 10.2552 15.3142L4.76523 13.9433C4.59523 13.8983 4.44524 13.7583 4.40524 13.5793L3.03525 8.09525C3.02525 8.07325 3.02524 8.05127 3.02524 8.02927ZM2.87521 2.52823C1.72521 3.67123 1.72521 5.52823 2.87521 6.67123C4.01521 7.81523 5.87523 7.81523 7.01523 6.67123C8.15523 5.52823 8.15523 3.67123 7.01523 2.52823C5.87523 1.38423 4.01521 1.38423 2.87521 2.52823Z" fill="black"/>
</g>
<defs>
<clipPath id="clip0_31_46">
<rect width="16" height="16" fill="white"/>
</clipPath>
</defs>
</svg>
