<svg width="16" height="16" viewBox="0 0 16 16" fill="none" xmlns="http://www.w3.org/2000/svg">
<g clip-path="url(#clip0_39_23)">
<path fill-rule="evenodd" clip-rule="evenodd" d="M6.47644 9.20097C6.47644 9.08298 6.43643 8.97001 6.34643 8.88701C6.26643 8.80401 6.1565 8.75701 6.0365 8.75701C5.8365 8.75701 5.60649 8.75701 5.40649 8.75701C5.15649 8.75701 4.95642 8.55901 4.95642 8.31401C4.95642 7.42802 4.95642 5.45102 4.95642 4.60302C4.95642 4.49702 5.00642 4.39598 5.07642 4.32098C5.15642 4.24698 5.25644 4.20501 5.35644 4.20501C5.56644 4.20501 5.8265 4.20501 6.0365 4.20501C6.1565 4.20501 6.26643 4.15801 6.34643 4.07501C6.43643 3.99201 6.47644 3.87898 6.47644 3.76098C6.47644 3.18598 6.47644 2.18804 6.47644 1.61304C6.47644 1.49504 6.52644 1.38201 6.60644 1.29901C6.68644 1.21601 6.80651 1.16901 6.92651 1.16901C7.79651 1.16901 9.71642 1.16901 10.5864 1.16901C10.8364 1.16901 11.0365 1.36804 11.0365 1.61304C11.0365 3.34103 11.0365 9.62098 11.0365 11.349C11.0365 11.594 10.8364 11.793 10.5864 11.793C10.3864 11.793 10.1564 11.793 9.95641 11.793C9.83641 11.793 9.72648 11.839 9.64648 11.922C9.55648 12.005 9.51647 12.118 9.51647 12.236C9.51647 12.811 9.51647 13.809 9.51647 14.385C9.51647 14.502 9.46647 14.615 9.38647 14.698C9.30647 14.781 9.1864 14.828 9.0664 14.828C8.8764 14.828 8.63639 14.828 8.4364 14.828C8.3264 14.828 8.20646 14.781 8.12646 14.698C8.04646 14.615 7.99645 14.502 7.99645 14.385C7.99645 13.809 7.99645 12.811 7.99645 12.236C7.99645 12.118 7.94645 12.005 7.86645 11.922C7.78645 11.839 7.66651 11.793 7.55651 11.793C7.35651 11.793 7.11651 11.793 6.92651 11.793C6.80651 11.793 6.68644 11.746 6.60644 11.663C6.52644 11.58 6.47644 11.467 6.47644 11.349C6.47644 10.774 6.47644 9.77597 6.47644 9.20097ZM10.0365 2.169H7.47644V10.793H10.0365V2.169Z" fill="black"/>
</g>
<defs>
<clipPath id="clip0_39_23">
<rect width="16" height="16" fill="white"/>
</clipPath>
</defs>
</svg>
