<svg width="16" height="16" viewBox="0 0 16 16" fill="none" xmlns="http://www.w3.org/2000/svg">
<g clip-path="url(#clip0_38_20)">
<path fill-rule="evenodd" clip-rule="evenodd" d="M7.5 10.919C7.5 10.807 7.46 10.701 7.38 10.622C7.3 10.544 7.18996 10.5 7.07996 10.5C7.02996 10.5 6.97004 10.5 6.92004 10.5C6.81004 10.5 6.7 10.455 6.62 10.377C6.54 10.298 6.5 10.192 6.5 10.081C6.5 9.74799 6.5 9.28501 6.5 8.94501C6.5 8.82701 6.45 8.714 6.37 8.63C6.29 8.547 6.17005 8.5 6.05005 8.5C6.02005 8.5 5.97995 8.5 5.94995 8.5C5.69995 8.5 5.5 8.29995 5.5 8.05396C5.5 7.48596 5.5 6.51301 5.5 5.94501C5.5 5.69901 5.69995 5.5 5.94995 5.5C5.97995 5.5 6.02005 5.5 6.05005 5.5C6.30005 5.5 6.5 5.29996 6.5 5.05396V4.94501C6.5 4.82701 6.45 4.714 6.37 4.63C6.29 4.546 6.17005 4.5 6.05005 4.5C5.38005 4.5 4.11995 4.5 3.44995 4.5C3.32995 4.5 3.21 4.45296 3.13 4.36896C3.05 4.28496 3 4.17196 3 4.05396C3 3.72396 3 3.27601 3 2.94501C3 2.82701 2.95 2.714 2.87 2.63C2.79 2.547 2.67005 2.5 2.55005 2.5C1.99005 2.5 1.00995 2.5 0.449951 2.5C0.199951 2.5 0 2.29996 0 2.05396C0 2.01796 0 1.98101 0 1.94501C0 1.69901 0.199951 1.5 0.449951 1.5C2.74995 1.5 13.25 1.5 15.55 1.5C15.8 1.5 16 1.69901 16 1.94501C16 1.98101 16 2.01796 16 2.05396C16 2.29996 15.8 2.5 15.55 2.5C14.99 2.5 14.01 2.5 13.45 2.5C13.33 2.5 13.21 2.547 13.13 2.63C13.05 2.714 13 2.82701 13 2.94501C13 3.27601 13 3.72396 13 4.05396C13 4.17196 12.95 4.28496 12.87 4.36896C12.79 4.45296 12.67 4.5 12.55 4.5C11.88 4.5 10.62 4.5 9.94995 4.5C9.69995 4.5 9.5 4.69901 9.5 4.94501C9.5 6.06601 9.5 8.98899 9.5 10.081C9.5 10.192 9.46 10.298 9.38 10.377C9.3 10.455 9.18996 10.5 9.07996 10.5C9.02996 10.5 8.97004 10.5 8.92004 10.5C8.81004 10.5 8.7 10.544 8.62 10.622C8.54 10.701 8.5 10.807 8.5 10.919C8.5 11.4 8.5 12.124 8.5 12.124C8.5 12.331 8.67 12.5 8.88 12.5H11.62C11.72 12.5 11.82 12.539 11.89 12.61C11.96 12.68 12 12.776 12 12.876V13.5H11.88C11.78 13.5 11.68 13.539 11.61 13.61C11.54 13.68 11.5 13.776 11.5 13.876V14.124C11.5 14.223 11.46 14.319 11.39 14.389C11.32 14.46 11.22 14.5 11.12 14.5H10.88C10.78 14.5 10.68 14.46 10.61 14.389C10.54 14.319 10.5 14.223 10.5 14.124V13.876C10.5 13.776 10.46 13.68 10.39 13.61C10.32 13.539 10.22 13.5 10.12 13.5H5.88C5.78 13.5 5.67999 13.539 5.60999 13.61C5.53999 13.68 5.5 13.776 5.5 13.876V14.124C5.5 14.223 5.46001 14.319 5.39001 14.389C5.32001 14.46 5.22 14.5 5.12 14.5H4.88C4.78 14.5 4.67999 14.46 4.60999 14.389C4.53999 14.319 4.5 14.223 4.5 14.124V13.5H4.38C4.28 13.5 4.17999 13.46 4.10999 13.389C4.03999 13.319 4 13.223 4 13.124V12.876C4 12.776 4.03999 12.68 4.10999 12.61C4.17999 12.539 4.28 12.5 4.38 12.5H7.12C7.33 12.5 7.5 12.331 7.5 12.124C7.5 12.124 7.5 11.4 7.5 10.919ZM4.44995 2.5C4.19995 2.5 4 2.69901 4 2.94501C4 2.98101 4 3.01796 4 3.05396C4 3.17196 4.05 3.28496 4.13 3.36896C4.21 3.45296 4.32995 3.5 4.44995 3.5C5.11995 3.5 6.38005 3.5 7.05005 3.5C7.30005 3.5 7.5 3.69901 7.5 3.94501C7.5 4.51301 7.5 5.48595 7.5 6.05396C7.5 6.29995 7.30005 6.5 7.05005 6.5C6.79005 6.5 6.5 6.5 6.5 6.5V7.5C6.5 7.5 6.79005 7.5 7.05005 7.5C7.17005 7.5 7.29 7.546 7.37 7.63C7.45 7.714 7.5 7.82701 7.5 7.94501C7.5 8.53501 7.5 9.5 7.5 9.5H8.5V3.94501C8.5 3.69901 8.69995 3.5 8.94995 3.5C9.61995 3.5 10.88 3.5 11.55 3.5C11.67 3.5 11.79 3.45296 11.87 3.36896C11.95 3.28496 12 3.17196 12 3.05396C12 3.01796 12 2.98101 12 2.94501C12 2.69901 11.8 2.5 11.55 2.5C10.15 2.5 5.84995 2.5 4.44995 2.5Z" fill="black"/>
</g>
<defs>
<clipPath id="clip0_38_20">
<rect width="16" height="16" fill="white"/>
</clipPath>
</defs>
</svg>
