<?xml version="1.0" encoding="UTF-8" standalone="no"?>
<svg
   xmlns:dc="http://purl.org/dc/elements/1.1/"
   xmlns:cc="http://creativecommons.org/ns#"
   xmlns:rdf="http://www.w3.org/1999/02/22-rdf-syntax-ns#"
   xmlns:svg="http://www.w3.org/2000/svg"
   xmlns="http://www.w3.org/2000/svg"
   xmlns:sodipodi="http://sodipodi.sourceforge.net/DTD/sodipodi-0.dtd"
   xmlns:inkscape="http://www.inkscape.org/namespaces/inkscape"
   id="visual"
   viewBox="0 0 22 22"
   version="1.1"
   sodipodi:docname="hourglass_path.svg"
   inkscape:version="0.92.3 (2405546, 2018-03-11)">
  <metadata
     id="metadata839">
    <rdf:RDF>
      <cc:Work
         rdf:about="">
        <dc:format>image/svg+xml</dc:format>
        <dc:type
           rdf:resource="http://purl.org/dc/dcmitype/StillImage" />
        <dc:title />
      </cc:Work>
    </rdf:RDF>
  </metadata>
  <sodipodi:namedview
     pagecolor="#ffffff"
     bordercolor="#666666"
     borderopacity="1"
     objecttolerance="10"
     gridtolerance="10"
     guidetolerance="10"
     inkscape:pageopacity="0"
     inkscape:pageshadow="2"
     inkscape:window-width="1920"
     inkscape:window-height="1017"
     id="namedview837"
     showgrid="false"
     inkscape:zoom="109.28014"
     inkscape:cx="19.917882"
     inkscape:cy="2.0697165"
     inkscape:window-x="-8"
     inkscape:window-y="-8"
     inkscape:window-maximized="1"
     inkscape:current-layer="visual" />
  <defs
     id="defs830">
    <style
       id="style828">.cls-1{fill:none;stroke:#bb0a30;stroke-miterlimit:10;stroke-width:2px;}.cls-2{fill:#bb0a30;}</style>
  </defs>
  <path
     id="path834"
     d="m 8.3265475,4.2869084 a 8.1026369,8.1026369 0 0 0 2.1842945,4.3685904 l 0.488112,0.4026913 0.48811,-0.4026913 A 8.2124618,8.2124618 0 0 0 13.671358,4.2869084 Z M 3.6772935,0.01594026 V 1.2362169 c 0,0 -0.00185,1.8054035 0.4862039,4.0016494 0.416685,1.8750814 1.338163,4.021442 2.9005405,5.7605637 -1.5623775,1.739121 -2.4838555,3.885482 -2.9005405,5.760563 -0.4880546,2.196248 -0.4862039,4.001649 -0.4862039,4.001649 V 21.98092 H 18.320613 v -1.220278 c 0,0 0.0019,-1.805401 -0.486204,-4.001649 -0.416684,-1.875081 -1.338163,-4.021442 -2.900541,-5.760563 1.562378,-1.7391217 2.483857,-3.8854823 2.900541,-5.7605637 0.488055,-2.1962459 0.486204,-4.0016494 0.486204,-4.0016494 V 0.01594026 Z M 6.267998,2.4564935 h 9.46191 C 15.695284,3.068758 15.728,3.4620036 15.451056,4.7087619 15.023904,6.6309498 14.150088,8.8181715 12.657767,10.061773 l -1.124943,0.936657 1.124943,0.936658 c 1.492321,1.243601 2.366137,3.430821 2.793289,5.35301 0.277058,1.246757 0.244231,1.640005 0.278852,2.252268 h -9.46191 c 0.03462,-0.612263 0.00179,-1.005511 0.2788522,-2.252268 0.4271529,-1.922189 1.3009686,-4.109409 2.7932896,-5.35301 L 10.465082,10.99843 9.3401398,10.061773 C 7.8478188,8.8181715 6.9740031,6.6309498 6.5468502,4.7087619 6.2697929,3.4620036 6.3026185,3.068758 6.267998,2.4564935 Z"
     inkscape:connector-curvature="0"
     style="fill:#008fb8;fill-opacity:1;stroke-width:1.22027671" />
</svg>
