<?xml version="1.0" encoding="UTF-8" standalone="no"?>
<svg
   xmlns:dc="http://purl.org/dc/elements/1.1/"
   xmlns:cc="http://creativecommons.org/ns#"
   xmlns:rdf="http://www.w3.org/1999/02/22-rdf-syntax-ns#"
   xmlns:svg="http://www.w3.org/2000/svg"
   xmlns="http://www.w3.org/2000/svg"
   xmlns:sodipodi="http://sodipodi.sourceforge.net/DTD/sodipodi-0.dtd"
   xmlns:inkscape="http://www.inkscape.org/namespaces/inkscape"
   id="visual"
   viewBox="0 0 22 22"
   version="1.1"
   sodipodi:docname="img_path.svg"
   inkscape:version="0.92.3 (2405546, 2018-03-11)">
  <metadata
     id="metadata11511">
    <rdf:RDF>
      <cc:Work
         rdf:about="">
        <dc:format>image/svg+xml</dc:format>
        <dc:type
           rdf:resource="http://purl.org/dc/dcmitype/StillImage" />
        <dc:title>img</dc:title>
      </cc:Work>
    </rdf:RDF>
  </metadata>
  <sodipodi:namedview
     pagecolor="#ffffff"
     bordercolor="#666666"
     borderopacity="1"
     objecttolerance="10"
     gridtolerance="10"
     guidetolerance="10"
     inkscape:pageopacity="0"
     inkscape:pageshadow="2"
     inkscape:window-width="1920"
     inkscape:window-height="1017"
     id="namedview11509"
     showgrid="false"
     inkscape:zoom="30.341309"
     inkscape:cx="5.4384897"
     inkscape:cy="13.240572"
     inkscape:window-x="-8"
     inkscape:window-y="-8"
     inkscape:window-maximized="1"
     inkscape:current-layer="visual" />
  <defs
     id="defs11498">
    <style
       id="style11496">.cls-1{fill:none;stroke:#008fb8;stroke-miterlimit:10;stroke-width:2px;}.cls-2{fill:#008fb8;}</style>
  </defs>
  <title
     id="title11500">img</title>
  <path
     id="circle11506"
     style="fill:#008fb8;stroke-width:1.09124362"
     d="M 6.6604484,8.2540952 A 1.6368653,1.6368653 0 0 1 5.0235831,9.8909608 1.6368653,1.6368653 0 0 1 3.3867179,8.2540952 1.6368653,1.6368653 0 0 1 5.0235831,6.6172299 1.6368653,1.6368653 0 0 1 6.6604484,8.2540952 Z M 17.653875,7.4335314 11.025424,11.85392 7.8305513,9.7225846 0.71615499,13.279784 l 0.97615141,1.952302 5.9805262,-2.990262 3.3525914,2.233639 6.466469,-4.30956 2.647118,2.257083 1.415207,-1.660309 z M 0.11298715,3.3434993 V 4.4347428 18.620909 H 21.937858 V 3.3434993 Z M 2.2954743,5.5259864 H 19.755372 V 16.438422 H 2.2954743 Z"
     inkscape:connector-curvature="0" />
</svg>
