<svg width="16" height="16" viewBox="0 0 16 16" fill="none" xmlns="http://www.w3.org/2000/svg">
<g clip-path="url(#clip0_31_107)">
<path fill-rule="evenodd" clip-rule="evenodd" d="M10.5236 10.6971H13.457C13.9725 10.6971 14.3992 11.1175 14.3992 11.6366V12.8482C14.3992 13.3664 13.9725 13.7877 13.457 13.7877H13.1458C12.9947 14.4811 12.3725 15.0002 11.6347 15.0002C10.8969 15.0002 10.2837 14.4811 10.1237 13.7877H5.87474C5.72363 14.4811 5.10145 15.0002 4.36367 15.0002C3.6259 15.0002 3.00361 14.4811 2.8525 13.7877H2.55031C2.02586 13.7877 1.60803 13.3664 1.60803 12.8482V11.6366C1.60803 11.1175 2.02586 10.6971 2.55031 10.6971H5.48358L7.9992 9.12198L9.79477 8.00018L5.48358 5.3033H3.45699L3.32364 5.28995L3.20808 5.25263L3.10141 5.19398L3.00365 5.11661L2.92357 5.02243L2.87029 4.91397L2.8347 4.79483L2.81691 4.66685V4.06062L2.8347 3.93264L2.87029 3.81263L2.92357 3.70418L3.00365 3.61086L3.10141 3.53263L3.20808 3.47398L3.32364 3.43665L3.45699 3.42417H4.03468V1.33352C4.03468 1.14952 4.17701 1.00018 4.36367 1.00018H11.6347C11.8214 1.00018 11.9725 1.14952 11.9725 1.33352V3.42417H12.5503L12.6748 3.43665L12.7903 3.47398L12.9059 3.53263L12.9948 3.61086L13.0747 3.70418L13.1281 3.81263L13.1725 3.93264L13.1814 4.06062V4.66685L13.1725 4.79483L13.1281 4.91397L13.0747 5.02243L12.9948 5.11661L12.9059 5.19398L12.7903 5.25263L12.6748 5.28995L12.5503 5.3033H10.5236L9.01255 6.24552L8.38136 5.85261L9.26135 5.3033H6.73694L10.6036 7.71752C10.7014 7.77797 10.7547 7.88463 10.7547 8.00018C10.7547 8.11485 10.7014 8.22151 10.6036 8.28284L6.73694 10.6971H9.26135L8.38136 10.1469L9.01255 9.75398L10.5236 10.6971ZM12.5147 4.09084H3.48357V4.63663H12.5147V4.09084ZM11.3058 3.42417V1.66685H4.70135V3.42417H11.3058ZM3.55476 13.7877C3.6792 14.1077 3.99923 14.3335 4.36367 14.3335C4.72812 14.3335 5.04805 14.1077 5.18138 13.7877C5.21694 13.6846 5.24367 13.5726 5.24367 13.4544C5.24367 13.3362 5.21694 13.2242 5.18138 13.1211C5.04805 12.8011 4.72812 12.5753 4.36367 12.5753C3.99923 12.5753 3.6792 12.8011 3.55476 13.1211C3.51031 13.2242 3.48357 13.3362 3.48357 13.4544C3.48357 13.5726 3.51031 13.6846 3.55476 13.7877ZM10.8258 13.7877C10.9591 14.1077 11.2703 14.3335 11.6347 14.3335C11.9992 14.3335 12.3192 14.1077 12.4525 13.7877C12.4881 13.6846 12.5147 13.5726 12.5147 13.4544C12.5147 13.3362 12.4881 13.2242 12.4525 13.1211C12.3192 12.8011 11.9992 12.5753 11.6347 12.5753C11.2703 12.5753 10.9591 12.8011 10.8258 13.1211C10.7814 13.2242 10.7547 13.3362 10.7547 13.4544C10.7547 13.5726 10.7814 13.6846 10.8258 13.7877ZM13.1458 13.1211H13.457C13.6081 13.1211 13.7325 12.9993 13.7325 12.8482V11.6366C13.7325 11.4855 13.6081 11.3637 13.457 11.3637H2.55031C2.3992 11.3637 2.2747 11.4855 2.2747 11.6366V12.8482C2.2747 12.9993 2.3992 13.1211 2.55031 13.1211H2.8525C3.00361 12.4277 3.6259 11.9087 4.36367 11.9087C5.10145 11.9087 5.72363 12.4277 5.87474 13.1211H10.1237C10.2837 12.4277 10.8969 11.9087 11.6347 11.9087C12.3725 11.9087 12.9947 12.4277 13.1458 13.1211ZM6.98585 9.27574L5.40361 8.28284C5.30583 8.22151 5.24367 8.11485 5.24367 8.00018C5.24367 7.88463 5.30583 7.77797 5.40361 7.71752L6.98585 6.72376L7.61693 7.11661L6.20363 8.00018L7.61693 8.88283L6.98585 9.27574Z" fill="black"/>
</g>
<defs>
<clipPath id="clip0_31_107">
<rect width="16" height="16" fill="white"/>
</clipPath>
</defs>
</svg>
