<svg width="16" height="16" viewBox="0 0 16 16" fill="none" xmlns="http://www.w3.org/2000/svg">
<g clip-path="url(#clip0_31_63)">
<mask id="mask0_31_63" style="mask-type:luminance" maskUnits="userSpaceOnUse" x="0" y="-1" width="16" height="17">
<path d="M16 -0.00012207H0.000244141V15.9996H16V-0.00012207Z" fill="white"/>
</mask>
<g mask="url(#mask0_31_63)">
<mask id="mask1_31_63" style="mask-type:luminance" maskUnits="userSpaceOnUse" x="0" y="-1" width="17" height="17">
<path d="M16.0057 -0.00012207H0.00598145V15.9996H16.0057V-0.00012207Z" fill="white"/>
</mask>
<g mask="url(#mask1_31_63)">
<path fill-rule="evenodd" clip-rule="evenodd" d="M16.0018 10.8985C16.0018 12.5548 14.5259 13.8985 12.7051 13.8985H3.2964C1.47562 13.8985 -0.000244141 12.5548 -0.000244141 10.8985C-0.000244141 9.24305 1.47562 7.89856 3.2964 7.89856H12.7051C14.5259 7.89856 16.0018 9.24305 16.0018 10.8985ZM15.0633 10.8985C15.0633 9.71582 14.0045 8.75613 12.7051 8.75613H3.2964C1.99699 8.75613 0.946284 9.71582 0.946284 10.8985C0.946284 12.0812 1.99699 13.0417 3.2964 13.0417H12.7051C14.0045 13.0417 15.0633 12.0812 15.0633 10.8985Z" fill="black"/>
<path fill-rule="evenodd" clip-rule="evenodd" d="M3.2142 9.18365C4.25185 9.18365 5.09893 9.95186 5.09893 10.8981C5.09893 11.8444 4.25185 12.6126 3.2142 12.6126C2.17656 12.6126 1.32947 11.8444 1.32947 10.8981C1.32947 9.95186 2.17656 9.18365 3.2142 9.18365ZM3.2142 10.0412C2.69185 10.0412 2.27541 10.425 2.27541 10.8981C2.27541 11.3713 2.69185 11.7551 3.2142 11.7551C3.73655 11.7551 4.15299 11.3713 4.15299 10.8981C4.15299 10.425 3.73655 10.0412 3.2142 10.0412Z" fill="black"/>
<path fill-rule="evenodd" clip-rule="evenodd" d="M8.00619 9.18365C9.04384 9.18365 9.89093 9.95186 9.89093 10.8981C9.89093 11.8444 9.04384 12.6126 8.00619 12.6126C6.96855 12.6126 6.12146 11.8444 6.12146 10.8981C6.12146 9.95186 6.96855 9.18365 8.00619 9.18365ZM8.00619 10.0412C7.48384 10.0412 7.0674 10.425 7.0674 10.8981C7.0674 11.3713 7.48384 11.7551 8.00619 11.7551C8.52855 11.7551 8.94498 11.3713 8.94498 10.8981C8.94498 10.425 8.52855 10.0412 8.00619 10.0412Z" fill="black"/>
<path fill-rule="evenodd" clip-rule="evenodd" d="M12.7982 9.18365C13.8358 9.18365 14.6829 9.95186 14.6829 10.8981C14.6829 11.8444 13.8358 12.6126 12.7982 12.6126C11.7605 12.6126 10.9135 11.8444 10.9135 10.8981C10.9135 9.95186 11.7605 9.18365 12.7982 9.18365ZM12.7982 10.0412C12.2758 10.0412 11.8594 10.425 11.8594 10.8981C11.8594 11.3713 12.2758 11.7551 12.7982 11.7551C13.3205 11.7551 13.737 11.3713 13.737 10.8981C13.737 10.425 13.3205 10.0412 12.7982 10.0412Z" fill="black"/>
<path fill-rule="evenodd" clip-rule="evenodd" d="M11.4156 2.45111V6.45111C11.4156 6.7271 11.1956 6.9511 10.9156 6.9511H4.91565C4.63565 6.9511 4.41565 6.7271 4.41565 6.45111V2.45111C4.41565 2.17511 4.63565 1.95111 4.91565 1.95111H10.9156C11.1956 1.95111 11.4156 2.17511 11.4156 2.45111ZM7.42566 2.95111C6.35566 2.95111 5.41565 2.95111 5.41565 2.95111V5.95111H10.4156V2.95111C10.4156 2.95111 9.47564 2.95111 8.41564 2.95111C8.41564 2.97311 8.41564 2.9961 8.41564 3.0191V4.0191C8.41564 4.2951 8.19564 4.5191 7.91565 4.5191C7.63565 4.5191 7.41565 4.2951 7.41565 4.0191V3.0191C7.41565 2.9961 7.41566 2.97311 7.42566 2.95111Z" fill="black"/>
</g>
</g>
</g>
<defs>
<clipPath id="clip0_31_63">
<rect width="16" height="16" fill="white"/>
</clipPath>
</defs>
</svg>
