<?xml version="1.0" encoding="UTF-8" standalone="no"?>
<svg
   xmlns:dc="http://purl.org/dc/elements/1.1/"
   xmlns:cc="http://creativecommons.org/ns#"
   xmlns:rdf="http://www.w3.org/1999/02/22-rdf-syntax-ns#"
   xmlns:svg="http://www.w3.org/2000/svg"
   xmlns="http://www.w3.org/2000/svg"
   xmlns:sodipodi="http://sodipodi.sourceforge.net/DTD/sodipodi-0.dtd"
   xmlns:inkscape="http://www.inkscape.org/namespaces/inkscape"
   id="visual"
   viewBox="0 0 120 120"
   version="1.1"
   sodipodi:docname="i18nReload22_path.svg"
   inkscape:version="0.92.3 (2405546, 2018-03-11)">
  <metadata
     id="metadata24880">
    <rdf:RDF>
      <cc:Work
         rdf:about="">
        <dc:format>image/svg+xml</dc:format>
        <dc:type
           rdf:resource="http://purl.org/dc/dcmitype/StillImage" />
        <dc:title />
      </cc:Work>
    </rdf:RDF>
  </metadata>
  <sodipodi:namedview
     pagecolor="#ffffff"
     bordercolor="#666666"
     borderopacity="1"
     objecttolerance="10"
     gridtolerance="10"
     guidetolerance="10"
     inkscape:pageopacity="0"
     inkscape:pageshadow="2"
     inkscape:window-width="1920"
     inkscape:window-height="1017"
     id="namedview24878"
     showgrid="false"
     inkscape:zoom="5.5625733"
     inkscape:cx="25.484501"
     inkscape:cy="58.631385"
     inkscape:window-x="-8"
     inkscape:window-y="-8"
     inkscape:window-maximized="1"
     inkscape:current-layer="visual" />
  <defs
     id="defs24831">
    <style
       id="style24829">.cls-1{fill:#d9d9d9;}</style>
  </defs>
  <path
     id="path24875"
     style="fill:#008fb8;fill-opacity:1;stroke-width:1.2189641"
     d="M 106.40754,38.093745 V 64.654968 A 17.223961,17.223961 0 0 1 89.342047,81.976445 H 41.351438 l -13.091672,9.166609 a 14.700705,14.700705 0 0 0 13.54269,9.117876 h 20.307938 l 19.91787,14.62755 V 100.26093 H 105.18858 A 14.627567,14.627567 0 0 0 119.81614,85.633338 V 52.721312 a 14.627567,14.627567 0 0 0 -13.4086,-14.627567 z m -55.462857,-4.38827 c -1.084877,0 -2.120995,0 -3.120546,0 -0.182845,2.596393 -0.292554,5.473147 -0.292554,8.691212 0,1.02393 0,1.999102 0,2.962081 1.07269,0 2.206326,0 3.376532,0 1.170204,0 2.303842,0 3.376531,0 0,-0.962979 0,-1.938151 0,-2.962081 0,-3.218065 -0.109712,-6.094819 -0.292552,-8.691212 -0.926413,-0.01218 -1.962532,0 -3.047411,0 z m 4.43703,31.680872 a 13.042914,13.042914 0 0 0 2.596392,-2.145378 c -0.64605,0 -1.316479,0.109701 -1.999099,0.146277 -0.182845,0.706998 -0.390069,1.377429 -0.597293,1.999101 z M 47.702239,48.979092 a 84.108509,84.108509 0 0 0 1.218965,10.873158 c 0.67043,0 1.340858,0 2.047859,0 0.706999,0 1.37743,0 2.047859,0 a 84.108509,84.108509 0 0 0 1.218965,-10.873158 c -1.04831,0 -2.120998,0 -3.242445,0 -1.121448,0 -2.242894,0.08533 -3.291203,0 z m 2.047859,14.554428 a 10.897538,10.897538 0 0 0 1.218965,2.925515 10.897538,10.897538 0 0 0 1.218964,-2.925515 z M 89.342047,7.619647 H 12.54732 A 12.348104,12.348104 0 0 0 0.35768137,20.053078 v 44.60189 A 12.335914,12.335914 0 0 0 12.54732,77.100588 h 6.09482 V 91.923191 L 39.815544,77.100588 H 89.342047 A 12.335914,12.335914 0 0 0 101.53169,64.654968 V 20.053078 A 12.348104,12.348104 0 0 0 89.342047,7.619647 Z M 50.944683,70.396289 a 28.036169,28.036169 0 1 1 28.03617,-28.03617 28.036169,28.036169 0 0 1 -28.03617,28.03617 z m 17.553081,-28.03617 c 0,0.451015 0,0.902032 0,1.340859 a 27.658291,27.658291 0 0 0 6.801819,-2.32822 24.184246,24.184246 0 0 0 -2.791428,-10.409952 32.058752,32.058752 0 0 1 -5.107459,1.413997 44.102115,44.102115 0 0 1 1.097068,9.983316 z m -10.641553,6.460509 a 98.528854,98.528854 0 0 1 -1.097069,10.848778 c 1.499325,-0.121895 2.876754,-0.280362 4.120098,-0.463206 a 32.912026,32.912026 0 0 0 3.534995,-11.043814 c -1.889393,0.268173 -4.120099,0.499776 -6.558024,0.658242 z M 39.25482,29.402532 c 1.523705,0.195033 3.266823,0.353501 5.229354,0.463206 a 49.977522,49.977522 0 0 1 2.02348,-10.531849 c -2.986461,1.828446 -5.546285,5.436579 -7.252834,10.068643 z m 23.026228,34.521056 a 24.598691,24.598691 0 0 0 2.901134,-1.816254 c -0.609481,0.146276 -1.218963,0.280361 -1.938153,0.414447 -0.30474,0.487586 -0.63386,0.962982 -0.962981,1.401807 z m 3.218065,-5.69256 a 16.724185,16.724185 0 0 0 5.875406,-2.596393 24.245192,24.245192 0 0 0 3.73003,-10.16616 38.531448,38.531448 0 0 1 -6.899335,2.023481 38.421743,38.421743 0 0 1 -2.706101,10.739072 z M 53.736112,30.012014 C 53.016922,23.429608 51.810148,19.492355 50.944683,18.2612 c -0.865464,1.218965 -2.072238,5.168408 -2.791426,11.750814 0.889843,0 1.816255,0 2.791426,0 0.975171,0 1.901584,0.02438 2.791429,0 z m 8.898436,-0.609482 C 60.928,24.770468 58.368175,21.162335 55.320763,19.333889 a 49.977522,49.977522 0 0 1 2.023482,10.531849 c 2.02348,-0.1097 3.766597,-0.304741 5.290303,-0.463206 z m 7.813557,-1.609033 a 24.379279,24.379279 0 0 0 -8.167057,-6.996851 29.011341,29.011341 0 0 1 4.107909,8.020781 31.863717,31.863717 0 0 0 4.059148,-1.02393 z M 39.60832,20.796648 a 24.379279,24.379279 0 0 0 -8.167058,6.996851 31.863717,31.863717 0 0 0 4.059149,1.02393 29.011341,29.011341 0 0 1 4.107909,-8.020781 z m 4.302942,42.444321 a 13.042914,13.042914 0 0 0 2.596392,2.145378 c -0.207223,-0.621672 -0.414446,-1.292103 -0.597291,-1.999101 -0.68262,-0.03656 -1.353051,-0.08533 -1.999101,-0.146277 z M 64.779924,44.407977 c 0,-0.682619 0.06095,-1.353049 0.06095,-2.047858 a 39.847931,39.847931 0 0 0 -1.097071,-9.386022 c -1.730928,0.219413 -3.742219,0.414445 -6.021682,0.536343 0.268174,3.949444 0.304742,7.313784 0.304742,8.849679 0,0.62167 0,1.596842 0,2.791425 2.535445,-0.182844 4.790528,-0.438825 6.753059,-0.743567 z m -37.995105,1.060498 a 24.245192,24.245192 0 0 0 3.730029,10.16616 16.724185,16.724185 0 0 0 5.875407,2.596393 38.421743,38.421743 0 0 1 -2.706101,-10.739072 38.531448,38.531448 0 0 1 -6.899335,-2.023481 z m 17.24834,3.352153 C 41.595231,48.662162 39.425475,48.430559 37.475132,48.162386 A 32.912026,32.912026 0 0 0 41.010128,59.2062 c 1.218963,0.182844 2.620771,0.341311 4.120099,0.463206 A 98.528854,98.528854 0 0 1 44.033159,48.820628 Z m -7.325973,13.286706 a 24.598691,24.598691 0 0 0 2.901134,1.816254 c -0.329122,-0.438825 -0.65824,-0.914221 -0.962983,-1.401807 -0.68262,-0.134086 -1.32867,-0.268171 -1.938151,-0.414447 z m 1.438375,-29.133237 a 39.847931,39.847931 0 0 0 -1.109255,9.386022 c 0,0.694809 0,1.365239 0,2.047858 1.96253,0.304742 4.217615,0.560723 6.801819,0.743567 0,-1.218963 0,-2.169755 0,-2.791425 0,-1.499327 0,-4.875857 0.30474,-8.849679 -2.242894,-0.121898 -4.254184,-0.292552 -5.997304,-0.536343 z m -4.753958,9.386022 a 44.102115,44.102115 0 0 1 1.097068,-9.983316 32.058752,32.058752 0 0 1 -5.095269,-1.413997 24.306141,24.306141 0 0 0 -2.791428,10.409952 28.645653,28.645653 0 0 0 6.80182,2.32822 c 0,-0.451015 -0.01218,-0.889844 -0.01218,-1.340859 z"
     inkscape:connector-curvature="0" />
</svg>
