<?xml version="1.0" encoding="UTF-8" standalone="no"?>
<svg
   xmlns:dc="http://purl.org/dc/elements/1.1/"
   xmlns:cc="http://creativecommons.org/ns#"
   xmlns:rdf="http://www.w3.org/1999/02/22-rdf-syntax-ns#"
   xmlns:svg="http://www.w3.org/2000/svg"
   xmlns="http://www.w3.org/2000/svg"
   xmlns:sodipodi="http://sodipodi.sourceforge.net/DTD/sodipodi-0.dtd"
   xmlns:inkscape="http://www.inkscape.org/namespaces/inkscape"
   id="visual"
   viewBox="0 0 22 22"
   version="1.1"
   sodipodi:docname="lightbulb-circle.svg"
   inkscape:version="0.92.3 (2405546, 2018-03-11)"
   width="22"
   height="22">
  <metadata
     id="metadata19545">
    <rdf:RDF>
      <cc:Work
         rdf:about="">
        <dc:format>image/svg+xml</dc:format>
        <dc:type
           rdf:resource="http://purl.org/dc/dcmitype/StillImage" />
        <dc:title></dc:title>
      </cc:Work>
    </rdf:RDF>
  </metadata>
  <sodipodi:namedview
     pagecolor="#ffffff"
     bordercolor="#666666"
     borderopacity="1"
     objecttolerance="10"
     gridtolerance="10"
     guidetolerance="10"
     inkscape:pageopacity="0"
     inkscape:pageshadow="2"
     inkscape:window-width="1680"
     inkscape:window-height="987"
     id="namedview19543"
     showgrid="false"
     inkscape:zoom="256"
     inkscape:cx="10.445326"
     inkscape:cy="22.951091"
     inkscape:window-x="1912"
     inkscape:window-y="-8"
     inkscape:window-maximized="1"
     inkscape:current-layer="visual"
     inkscape:pagecheckerboard="true" />
  <defs
     id="defs19528">
    <style
       id="style19526">.cls-1{fill:#bb0a30;}.cls-2,.cls-3{fill:none;stroke:#fbfbfd;stroke-width:4px;}.cls-2{stroke-miterlimit:10;}.cls-3{stroke-linecap:round;stroke-linejoin:round;}</style>
  </defs>
  <path
     style="display:inline;fill:#008fb8;fill-opacity:1;stroke-width:0.23115875"
     d="M 10.996327,0.01045556 A 10.980041,10.980041 0 0 0 0.01628707,10.990496 10.980041,10.980041 0 0 0 10.996327,21.970534 10.980041,10.980041 0 0 0 21.976364,10.990496 10.980041,10.980041 0 0 0 10.996327,0.01045556 Z m -0.09279,1.84899434 c 3.229567,0 5.857598,2.6280281 5.857598,5.8575969 0,2.279864 -0.953789,3.5707552 -1.8275,4.5366832 -0.436855,0.482963 -0.845963,0.896594 -1.130677,1.331304 -0.250001,0.381711 -0.392137,0.790586 -0.428482,1.304794 0.289507,0.220166 0.490461,0.551518 0.490461,0.938648 0,0.281648 -0.113875,0.531695 -0.279803,0.737663 0.165788,0.205923 0.279803,0.455789 0.279803,0.737306 0,0.526506 -0.354643,0.965156 -0.831527,1.124227 l -0.926471,1.47676 A 0.46236373,0.46236373 0 0 1 11.715002,20.12118 H 10.092428 A 0.46236373,0.46236373 0 0 1 9.7004891,19.904073 L 8.7761709,18.427314 C 8.3004401,18.267569 7.947509,17.829121 7.947509,17.303445 c 0,-0.281542 0.1139896,-0.531375 0.2798034,-0.737306 -0.165955,-0.205976 -0.2798034,-0.45599 -0.2798034,-0.737663 0,-0.386242 0.1995737,-0.716971 0.4879541,-0.937216 C 8.3570648,13.765375 7.685909,13.057497 6.8684217,12.111499 6.0001102,11.106688 5.046297,9.8288983 5.046297,7.7170467 5.0462966,4.487478 7.673969,1.8594499 10.903535,1.8594499 Z m 0,0.9246764 c -2.7298575,0 -4.9329206,2.2030612 -4.9329204,4.9329204 0,1.8455868 0.7560276,2.8163733 1.5971356,3.7897043 0.5368444,0.621236 1.1041758,1.267614 1.4635035,2.062161 V 10.582791 L 8.3487662,9.7802818 a 0.46236373,0.46236373 0 0 1 0.07631,-0.670309 L 9.4676185,8.3350501 A 0.46236373,0.46236373 0 0 1 9.9996388,8.3221524 L 10.904252,8.9251092 11.8103,8.3217944 a 0.46236373,0.46236373 0 0 1 0.531661,0.013256 l 1.042545,0.7749226 a 0.46236373,0.46236373 0 0 1 0.06772,0.6806991 l -0.722259,0.7996429 v 3.107574 c 0.09169,-0.214116 0.178212,-0.433697 0.299865,-0.619438 0.355886,-0.543378 0.800817,-0.983911 1.218094,-1.445232 0.834552,-0.92264 1.588536,-1.8803013 1.588536,-3.9161718 0,-2.7298591 -2.203063,-4.9329205 -4.932921,-4.9329211 z M 12.05177,9.2715497 11.160054,9.8659073 A 0.46236373,0.46236373 0 0 1 10.64738,9.8651912 L 9.7578139,9.2719088 9.3730394,9.557444 9.8459463,10.112752 a 0.46236373,0.46236373 0 0 1 0.1099867,0.299865 v 4.160864 h 1.849353 v -4.160865 a 0.46236373,0.46236373 0 0 1 0.119302,-0.309897 L 12.424722,9.5488439 Z M 9.146975,15.553329 c -0.1603898,0 -0.2751458,0.114756 -0.2751458,0.275147 2e-7,0.16039 0.1147562,0.274788 0.2751458,0.274788 h 3.5185 c 0.160391,0 0.274788,-0.114398 0.274788,-0.274788 0,-0.160391 -0.114398,-0.275147 -0.274788,-0.275147 z m 0,1.474611 c -0.1603898,0 -0.2751458,0.115114 -0.2751458,0.275505 2e-7,0.160389 0.1147562,0.274787 0.2751458,0.274787 h 3.5185 c 0.160391,0 0.274788,-0.114398 0.274788,-0.274787 0,-0.160391 -0.114398,-0.275505 -0.274788,-0.275505 z m 0.7673991,1.474968 0.4338559,0.693596 h 1.111333 l 0.434572,-0.693596 z"
     id="circle19530"
     inkscape:connector-curvature="0" />
  <path
     style="color:#000000;font-style:normal;font-variant:normal;font-weight:normal;font-stretch:normal;font-size:medium;line-height:normal;font-family:sans-serif;font-variant-ligatures:normal;font-variant-position:normal;font-variant-caps:normal;font-variant-numeric:normal;font-variant-alternates:normal;font-feature-settings:normal;text-indent:0;text-align:start;text-decoration:none;text-decoration-line:none;text-decoration-style:solid;text-decoration-color:#000000;letter-spacing:normal;word-spacing:normal;text-transform:none;writing-mode:lr-tb;direction:ltr;text-orientation:mixed;dominant-baseline:auto;baseline-shift:baseline;text-anchor:start;white-space:normal;shape-padding:0;clip-rule:nonzero;display:inline;overflow:visible;visibility:visible;opacity:1;isolation:auto;mix-blend-mode:normal;color-interpolation:sRGB;color-interpolation-filters:linearRGB;solid-color:#000000;solid-opacity:1;vector-effect:none;fill:#fbfbfd;fill-opacity:1;fill-rule:nonzero;stroke:none;stroke-width:0.92463499px;stroke-linecap:round;stroke-linejoin:round;stroke-miterlimit:4;stroke-dasharray:none;stroke-dashoffset:0;stroke-opacity:1;color-rendering:auto;image-rendering:auto;shape-rendering:auto;text-rendering:auto;enable-background:accumulate"
     d="m 10.90366,1.8595918 c -3.2295659,0 -5.8575267,2.6279582 -5.8575263,5.857527 0,2.1118507 0.9538698,3.3894632 1.822181,4.3942752 0.817488,0.945997 1.4886949,1.653888 1.5670938,2.779773 -0.2883803,0.220245 -0.4880519,0.551036 -0.4880519,0.937277 0,0.281673 0.1139633,0.531746 0.2799186,0.737722 -0.1658146,0.20593 -0.2799186,0.455729 -0.2799186,0.73727 0,0.525677 0.3531895,0.963993 0.8289208,1.123739 l 0.9241835,1.476797 a 0.46236373,0.46236373 0 0 0 0.3918861,0.217163 h 1.622626 a 0.46236373,0.46236373 0 0 0 0.391887,-0.216711 l 0.926441,-1.476798 c 0.476883,-0.15907 0.831628,-0.597683 0.831628,-1.12419 0,-0.281516 -0.11413,-0.531349 -0.279918,-0.73727 0.16593,-0.205967 0.279918,-0.456074 0.279918,-0.737722 0,-0.38713 -0.200801,-0.718464 -0.490309,-0.93863 0.03635,-0.514207 0.178457,-0.923072 0.428457,-1.304784 0.284714,-0.434711 0.693656,-0.848456 1.130511,-1.33142 0.873709,-0.965928 1.827599,-2.256627 1.827599,-4.5364912 0,-3.2295688 -2.62796,-5.857527 -5.857527,-5.857527 z m 0,0.9246353 c 2.729857,0 4.932894,2.2030324 4.932894,4.9328917 0,2.0358697 -0.754211,2.9935142 -1.588766,3.9161562 -0.417277,0.46132 -0.862212,0.901813 -1.218098,1.445193 -0.121652,0.18574 -0.208094,0.405318 -0.299784,0.619433 V 10.59035 l 0.72237,-0.7995742 A 0.46236373,0.46236373 0 0 0 13.384549,9.1099409 L 12.342083,8.3351975 A 0.46236373,0.46236373 0 0 0 11.810237,8.3216532 L 10.904112,8.9252844 9.9997934,8.3221045 a 0.46236373,0.46236373 0 0 0 -0.532297,0.013093 L 8.4250243,9.109941 A 0.46236373,0.46236373 0 0 0 8.3487233,9.7803913 L 9.031364,10.582674 v 2.986104 C 8.6720377,12.774229 8.1045038,12.128096 7.5676602,11.506859 6.7265525,10.533528 5.9707686,9.5627058 5.9707686,7.7171188 5.9707684,4.9872595 8.1738032,2.7842271 10.90366,2.7842271 Z m 1.148118,6.4873445 0.372924,0.27721 -0.500241,0.5539674 a 0.46236373,0.46236373 0 0 0 -0.119191,0.309717 v 4.160858 H 9.9559996 V 10.412466 A 0.46236373,0.46236373 0 0 0 9.8458383,10.112682 L 9.3731365,9.5573597 9.7577991,9.2720226 10.647218,9.86527 a 0.46236373,0.46236373 0 0 0 0.512885,4.578e-4 z M 9.1469441,15.553491 h 3.5183999 c 0.16039,0 0.274953,0.114562 0.274953,0.274953 0,0.160391 -0.114563,0.274952 -0.274953,0.274952 H 9.1469441 c -0.1603906,0 -0.2749525,-0.114561 -0.2749525,-0.274952 0,-0.160391 0.1145619,-0.274953 0.2749525,-0.274953 z m 0,1.474541 h 3.5183999 c 0.16039,0 0.274953,0.115014 0.274953,0.275404 0,0.16039 -0.114563,0.274952 -0.274953,0.274952 H 9.1469441 c -0.1603906,0 -0.2749525,-0.114562 -0.2749525,-0.274952 0,-0.16039 0.1145619,-0.275404 0.2749525,-0.275404 z m 0.7675191,1.474992 h 1.9797498 l -0.434778,0.693475 h -1.111098 z"
     id="polygon19540"
     inkscape:connector-curvature="0" />
</svg>
