<?xml version="1.0" encoding="UTF-8" standalone="no"?>
<svg
   xmlns:dc="http://purl.org/dc/elements/1.1/"
   xmlns:cc="http://creativecommons.org/ns#"
   xmlns:rdf="http://www.w3.org/1999/02/22-rdf-syntax-ns#"
   xmlns:svg="http://www.w3.org/2000/svg"
   xmlns="http://www.w3.org/2000/svg"
   xmlns:sodipodi="http://sodipodi.sourceforge.net/DTD/sodipodi-0.dtd"
   xmlns:inkscape="http://www.inkscape.org/namespaces/inkscape"
   id="Layer_1"
   data-name="Layer 1"
   viewBox="0 0 2145.1248 453.72101"
   version="1.1"
   sodipodi:docname="logo-tl-big.svg"
   width="2145.1248"
   height="453.72101"
   inkscape:export-filename="C:\Users\bhu\Downloads\Toplogic-Logo.new.png"
   inkscape:export-xdpi="6.5776277"
   inkscape:export-ydpi="6.5776277"
   inkscape:version="0.92.3 (2405546, 2018-03-11)">
  <metadata
     id="metadata81">
    <rdf:RDF>
      <cc:Work
         rdf:about="">
        <dc:format>image/svg+xml</dc:format>
        <dc:type
           rdf:resource="http://purl.org/dc/dcmitype/StillImage" />
        <dc:title>Toplogic-Logo</dc:title>
      </cc:Work>
    </rdf:RDF>
  </metadata>
  <sodipodi:namedview
     pagecolor="#ffffff"
     bordercolor="#666666"
     borderopacity="1"
     objecttolerance="10"
     gridtolerance="10"
     guidetolerance="10"
     inkscape:pageopacity="0"
     inkscape:pageshadow="2"
     inkscape:window-width="1680"
     inkscape:window-height="987"
     id="namedview79"
     showgrid="false"
     fit-margin-top="0"
     fit-margin-left="0"
     fit-margin-right="0"
     fit-margin-bottom="0"
     inkscape:zoom="0.35355339"
     inkscape:cx="519.44099"
     inkscape:cy="55.514344"
     inkscape:window-x="1912"
     inkscape:window-y="-8"
     inkscape:window-maximized="1"
     inkscape:current-layer="Layer_1"
     showguides="false" />
  <defs
     id="defs4">
    <style
       id="style2">.cls-1{fill:#0190b8;}</style>
  </defs>
  <title
     id="title6">Toplogic-Logo</title>
  <path
     id="path76"
     style="display:inline;fill:#0190b8;stroke-width:1.0715189"
     d="m 2095.7908,390.22835 h 47.479 v 12.31175 h -33.7207 v 12.77249 h 29.6704 v 12.32248 h -29.6704 v 13.22254 h 34.1708 v 12.32246 h -47.9291 z m -80.0425,0 h 12.7726 l 29.4775,38.75683 v -38.75683 h 13.6725 v 62.95172 h -11.7867 l -30.4846,-40.02123 v 40.02123 h -13.6727 z m -38.5746,0 h 13.8548 v 62.95172 h -13.8548 z m -82.9141,31.70623 v -0.18215 c 0,-17.89436 13.9298,-32.55274 33.0134,-32.55274 11.326,0 18.2159,3.05382 24.72,8.63644 l -8.7222,10.52231 c -4.8539,-4.05034 -9.1723,-6.42911 -16.4477,-6.42911 -10.083,0 -18.0766,8.90432 -18.0766,19.59808 v 0.18216 c 0,11.50812 7.9078,19.96239 19.0623,19.96239 a 22.116148,22.116148 0 0 0 13.0405,-3.77175 v -9.00076 h -13.9298 V 416.9306 h 27.3344 v 27.34514 a 40.846297,40.846297 0 0 1 -26.8844,9.97585 c -19.6195,0 -33.1099,-13.7583 -33.1099,-32.31701 z m -77.2458,-31.70623 h 12.7511 l 29.4989,38.75683 v -38.75683 h 13.6725 v 62.95172 h -11.7866 l -30.4847,-40.02123 v 40.02123 h -13.6512 z m -69.2415,0 h 47.4897 v 12.31175 h -33.7315 v 12.77249 h 29.6597 v 12.32248 h -29.6811 v 13.22254 h 34.1708 v 12.32246 h -47.9291 z m -116.0027,0 h 12.7725 l 29.4882,38.75683 v -38.75683 h 13.6725 v 62.95172 h -11.7866 l -30.4526,-40.02123 v 40.02123 h -13.6726 z m -88.2181,31.70623 v -0.18215 c 0,-17.89436 14.1226,-32.55274 33.5491,-32.55274 19.4268,0 33.3565,14.47623 33.3565,32.37058 v 0.18216 c 0,17.89437 -14.1119,32.55275 -33.5386,32.55275 -19.4265,0 -33.367,-14.5298 -33.367,-32.3706 z m 52.4295,0 v -0.18215 c 0,-10.7902 -7.9079,-19.78023 -19.0625,-19.78023 -11.1545,0 -18.8908,8.80788 -18.8908,19.59807 v 0.18216 c 0,10.79019 7.9185,19.78024 19.0729,19.78024 11.1546,0 18.8804,-8.88289 18.8804,-19.59809 z m -88.2183,-31.70623 h 13.8441 v 62.95172 h -13.8441 z m -53.233,12.76178 h -19.1589 v -12.76178 h 52.1617 v 12.76178 h -19.1588 v 50.18994 h -13.844 z m -65.0198,-13.2011 h 12.7725 l 26.9702,63.40176 h -14.4763 l -5.754,-14.1119 h -26.6165 l -5.754,14.12262 h -14.0691 z m 14.562,37.05311 -8.3579,-20.42315 -8.3685,20.42315 z m -114.2882,-4.90756 v -0.18215 c 0,-17.89436 13.4797,-32.55274 32.8206,-32.55274 11.8724,0 18.9766,3.9539 24.8164,9.70796 l -8.8079,10.16871 c -4.854,-4.40394 -9.8044,-7.10416 -16.0728,-7.10416 -10.608,0 -18.2158,8.80788 -18.2158,19.59807 v 0.18216 c 0,10.79019 7.5006,19.78024 18.2158,19.78024 7.2007,0 11.6045,-2.87167 16.5551,-7.37205 l 8.8078,8.90432 c -6.4291,6.92201 -13.6619,11.24024 -25.813,11.24024 -18.5479,-0.0536 -32.3062,-14.34765 -32.3062,-32.3706 z m -35.7995,-31.70623 h 13.8548 v 62.95172 h -13.8548 z m -65.2769,0 h 13.8441 v 50.36138 h 31.3847 v 12.59034 h -45.2288 z m -69.0701,0 h 25.7165 c 15.0012,0 24.1091,8.90432 24.1091,21.76255 v 0.18215 c 0,14.56194 -11.3366,22.11616 -25.4485,22.11616 h -10.5223 v 18.89086 h -13.8548 z m 24.8272,31.70623 c 6.9219,0 10.9616,-4.13606 10.9616,-9.5258 v -0.11786 c 0,-6.2041 -4.2861,-9.53652 -11.2403,-9.53652 h -10.7152 v 19.28735 z m -93.8866,-31.70623 h 25.7165 c 15.0013,0 24.0984,8.90432 24.0984,21.76255 v 0.18215 c 0,14.56194 -11.3259,22.11616 -25.4486,22.11616 h -10.5222 v 18.89086 h -13.8441 z m 24.8378,31.70623 c 6.922,0 10.9724,-4.13606 10.9724,-9.5258 v -0.11786 c 0,-6.2041 -4.2861,-9.53652 -11.2402,-9.53652 h -10.7152 v 19.28735 z m -83.28896,-32.14555 h 12.77236 l 26.9701,63.40176 h -14.4761 l -5.7541,-14.1119 h -26.61643 l -5.75405,14.12262 H 965.1458 Z m 14.56186,37.05311 -8.35776,-20.42315 -8.36856,20.42315 z M 855.25083,390.22835 h 24.55921 c 19.78024,0 33.45282,13.57614 33.45282,31.28835 v 0.18215 c 0,17.72292 -13.67258,31.48122 -33.45282,31.48122 h -24.55921 z m 13.85475,12.49391 v 37.95318 h 10.71518 c 11.32595,0 18.96587,-7.63993 18.96587,-18.79443 v -0.18216 c 0,-11.1545 -7.63992,-18.97659 -18.96587,-18.97659 z M 786.00929,390.22835 H 833.499 v 12.31175 h -33.7314 v 12.77249 h 29.68106 v 12.32248 H 799.7676 v 13.22254 h 34.18144 v 12.32246 h -47.93975 z m -52.60086,12.76178 h -19.15875 v -12.76178 h 52.16153 v 12.76178 h -19.15876 v 50.18994 h -13.84402 z m -65.01976,-13.2011 h 12.77251 l 26.98084,63.40176 h -14.48693 l -5.75406,-14.1119 h -26.61652 l -5.75406,14.12262 h -14.07976 z m 14.57265,37.05311 -8.36856,-20.42315 -8.36856,20.42315 z M 559.7581,390.22835 h 14.92625 l 16.54425,26.61652 16.54425,-26.61652 h 14.93698 v 62.95172 h -13.75831 v -41.10345 l -17.72292,26.89511 h -0.35359 l -17.54077,-26.62724 v 40.83558 H 559.7581 Z m -88.21815,31.70623 v -0.18215 c 0,-17.89436 14.12262,-32.55274 33.53854,-32.55274 19.41592,0 33.36709,14.47623 33.36709,32.37058 v 0.18216 c 0,17.89437 -14.12261,32.55275 -33.53853,32.55275 -19.41592,0 -33.3671,-14.5298 -33.3671,-32.3706 z m 52.42943,0 v -0.18215 c 0,-10.7902 -7.91854,-19.78023 -19.06233,-19.78023 -11.14379,0 -18.89088,8.80788 -18.89088,19.59807 v 0.18216 c 0,10.79019 7.91853,19.78024 19.06232,19.78024 11.14379,0 18.89089,-8.88289 18.89089,-19.59809 z m -99.55482,-18.94445 h -19.14804 v -12.76178 h 52.15082 v 12.76178 H 438.2693 v 50.18994 h -13.85474 z m -92.6328,23.23053 v -35.99231 h 13.85473 v 35.60657 c 0,10.25443 5.12187,15.55845 13.57615,15.55845 8.45429,0 13.57615,-5.12186 13.57615,-15.10842 v -36.0566 h 13.85473 v 35.52085 c 0,19.06231 -10.71518,28.41667 -27.61303,28.41667 -16.89786,0 -27.24873,-9.44008 -27.24873,-27.94521 z m -55.20465,-36.43163 h 12.77251 l 26.98084,63.40176 h -14.48694 l -5.75406,-14.1119 h -26.61652 l -5.75405,14.12262 h -14.12262 z m 14.57267,37.05311 -8.36857,-20.42315 -8.35785,20.42315 z M 149.7843,390.22835 h 47.479 v 12.31175 h -33.70999 v 12.77249 h 29.67036 v 12.32248 h -29.67036 v 13.22254 h 34.17073 v 12.32246 H 149.7843 Z m -77.310096,0 h 13.822593 v 24.90209 H 111.8311 v -24.90209 h 13.85475 v 62.95172 H 111.8311 V 427.90295 H 86.296797 v 25.27712 H 72.474204 Z M 19.841192,402.99423 H 0.68243775 v -12.7618 H 52.84398 v 12.7618 H 33.685215 v 50.18993 H 19.841192 Z M 1846.9842,167.98463 v -0.91079 c 0,-91.41122 68.8986,-166.288916 167.6605,-166.288916 60.6373,0 96.9188,20.208843 126.7822,49.611323 l -45.0039,51.904283 c -24.7949,-22.501848 -50.0613,-36.281552 -82.2176,-36.281552 -54.1975,0 -93.2222,45.003722 -93.2222,100.133362 v 0.9215 c 0,55.11892 38.1353,101.05494 93.2222,101.05494 36.753,0 59.255,-14.70123 84.5214,-37.66389 l 45.0037,45.47526 c -33.067,35.36012 -69.8201,57.41197 -131.7968,57.41197 -94.6686,0.0428 -164.9495,-72.99185 -164.9495,-165.36749 z M 1744.5577,6.3354058 h 70.7202 V 327.88739 h -70.7202 z M 1401.4252,167.98463 v -0.91079 c 0,-91.41122 71.1918,-166.288916 168.5821,-166.288916 57.862,0 92.7828,15.622753 126.3214,44.093003 l -44.5646,53.747307 c -24.7948,-20.669558 -46.8468,-32.606256 -84.0499,-32.606256 -51.4329,0 -92.3434,45.475192 -92.3434,100.133362 v 0.9215 c 0,58.79424 40.4283,101.97644 97.3903,101.97644 25.7165,0 48.6898,-6.42911 66.6056,-19.28733 v -45.90387 h -71.2024 v -61.07657 h 139.651 v 139.62961 c -33.0778,28.02023 -78.5531,50.98287 -137.358,50.98287 -100.1334,0 -169.0321,-70.28092 -169.0321,-165.41036 z m -356.012,0 v -0.91079 c 0,-91.36835 72.1453,-166.246046 171.368,-166.246046 99.2226,0 170.3714,73.934768 170.3714,165.367406 v 0.92151 c 0,91.41127 -72.1239,166.27828 -171.3359,166.27828 -99.2119,0 -170.4035,-73.95623 -170.4035,-165.41036 z m 267.8795,0 v -0.91079 c 0,-55.12963 -40.4283,-101.054862 -97.3795,-101.054862 -56.9513,0 -96.4368,45.003722 -96.4368,100.133362 v 0.9215 c 0,55.11892 40.4178,101.05494 97.3905,101.05494 56.9726,0 96.4258,-44.97164 96.4258,-100.14415 z M 828.17355,6.3354058 h 70.72024 V 263.57483 h 160.30981 v 64.29112 H 828.17355 Z M 685.99372,3.6137449 H 538.89562 V 61.968638 l 10.08299,17.808614 A 169.78215,169.78215 0 0 1 559.7581,102.62199 V 24.486927 h 126.23562 a 94.872273,94.872273 0 0 1 0,189.744453 H 559.7581 v -37.85676 h -0.4179 c 0.26788,-3.83603 0.4179,-7.69349 0.4179,-11.59382 v 0 A 161.18858,161.18858 0 0 0 398.60168,3.6137449 v 0 -0.17145 H 0.68243775 V 24.315487 H 137.53684 V 325.93722 h 20.87318 V 24.315487 h 240.19166 v 0.17144 0 c 77.35293,0 140.29394,62.930239 140.29394,140.293873 v 0 c 0,77.35293 -62.94101,140.29394 -140.29394,140.29394 -77.35295,0 -140.29396,-62.94101 -140.29396,-140.30467 A 140.44396,140.44396 0 0 1 337.50367,38.513107 H 298.56468 A 161.135,161.135 0 1 0 538.89562,244.06247 v 81.87475 h 20.86248 v -90.83265 h 126.23562 a 115.72403,115.72403 0 0 0 0,-231.4479651 z M 543.16027,235.9725 c -0.16073,0.34289 -0.34289,0.67505 -0.51432,1.07152 0.22501,-0.39647 0.35359,-0.72863 0.51432,-1.07152 z m 6.79343,-15.83705 v 0.10716 z m -3.07525,7.74709 -0.41791,0.97508 z" />
</svg>
