<?xml version="1.0" encoding="UTF-8" standalone="no"?>
<svg
   xmlns:dc="http://purl.org/dc/elements/1.1/"
   xmlns:cc="http://creativecommons.org/ns#"
   xmlns:rdf="http://www.w3.org/1999/02/22-rdf-syntax-ns#"
   xmlns:svg="http://www.w3.org/2000/svg"
   xmlns="http://www.w3.org/2000/svg"
   xmlns:sodipodi="http://sodipodi.sourceforge.net/DTD/sodipodi-0.dtd"
   xmlns:inkscape="http://www.inkscape.org/namespaces/inkscape"
   id="visual"
   viewBox="0 0 22 22"
   version="1.1"
   sodipodi:docname="overlay-search.svg"
   inkscape:version="0.92.3 (2405546, 2018-03-11)">
  <metadata
     id="metadata29">
    <rdf:RDF>
      <cc:Work
         rdf:about="">
        <dc:format>image/svg+xml</dc:format>
        <dc:type
           rdf:resource="http://purl.org/dc/dcmitype/StillImage" />
        <dc:title>newElement</dc:title>
      </cc:Work>
    </rdf:RDF>
  </metadata>
  <sodipodi:namedview
     pagecolor="#ffffff"
     bordercolor="#666666"
     borderopacity="1"
     objecttolerance="10"
     gridtolerance="10"
     guidetolerance="10"
     inkscape:pageopacity="0"
     inkscape:pageshadow="2"
     inkscape:window-width="1920"
     inkscape:window-height="1137"
     id="namedview27"
     showgrid="false"
     inkscape:zoom="32"
     inkscape:cx="30.462747"
     inkscape:cy="1.5713377"
     inkscape:window-x="1912"
     inkscape:window-y="-8"
     inkscape:window-maximized="1"
     inkscape:current-layer="visual"
     inkscape:pagecheckerboard="true" />
  <defs
     id="defs4">
    <style
       id="style2">.cls-1{fill:none;stroke:#fbfbfd;stroke-miterlimit:10;}.cls-2{fill:#fbfbfd;}</style>
  </defs>
  <title
     id="title6">newElement</title>
  <rect
     style="opacity:1;fill:#008fb8;fill-opacity:1;stroke:none;stroke-width:8.36255455;stroke-linejoin:round;stroke-miterlimit:4;stroke-dasharray:none;stroke-opacity:1"
     id="rect819"
     width="21.978367"
     height="21.954729"
     x="0.003286466"
     y="0.0050197653"
     inkscape:label="base" />
  <path
     style="fill:#fbfbfd;stroke-width:0.85326242"
     d="m 21.992584,16.019551 a 5.972837,5.972837 0 0 1 -5.972837,5.972837 5.972837,5.972837 0 0 1 -5.972837,-5.972837 5.972837,5.972837 0 0 1 5.972837,-5.972837 5.972837,5.972837 0 0 1 5.972837,5.972837 z"
     id="circle16"
     inkscape:connector-curvature="0"
     inkscape:label="circle" />
  <path
     style="color:#000000;font-style:normal;font-variant:normal;font-weight:normal;font-stretch:normal;font-size:medium;line-height:normal;font-family:sans-serif;font-variant-ligatures:normal;font-variant-position:normal;font-variant-caps:normal;font-variant-numeric:normal;font-variant-alternates:normal;font-feature-settings:normal;text-indent:0;text-align:start;text-decoration:none;text-decoration-line:none;text-decoration-style:solid;text-decoration-color:#000000;letter-spacing:normal;word-spacing:normal;text-transform:none;writing-mode:lr-tb;direction:ltr;text-orientation:mixed;dominant-baseline:auto;baseline-shift:baseline;text-anchor:start;white-space:normal;shape-padding:0;clip-rule:nonzero;display:inline;overflow:visible;visibility:visible;opacity:1;isolation:auto;mix-blend-mode:normal;color-interpolation:sRGB;color-interpolation-filters:linearRGB;solid-color:#000000;solid-opacity:1;vector-effect:none;fill:#008fb8;fill-opacity:1;fill-rule:nonzero;stroke:none;stroke-width:1.87422585;stroke-linecap:butt;stroke-linejoin:miter;stroke-miterlimit:4;stroke-dasharray:none;stroke-dashoffset:0;stroke-opacity:1;color-rendering:auto;image-rendering:auto;shape-rendering:auto;text-rendering:auto;enable-background:accumulate"
     d="m 15.683954,11.995808 c -2.482729,-0.101423 -4.349968,2.358533 -3.580588,4.721198 0.671942,2.063447 2.983783,2.89678 4.862859,2.073613 l 0.915906,0.918351 0.0073,0.0098 c 0.24226,0.230843 0.614632,0.369378 0.945215,0.346824 0.330581,-0.02257 0.602829,-0.168077 0.803556,-0.368806 0.200729,-0.200727 0.346252,-0.472975 0.368806,-0.803556 0.02257,-0.330581 -0.115992,-0.702957 -0.346824,-0.945217 L 19.381782,17.65736 h -0.02442 L 18.700351,17.002792 C 19.6381,14.804121 18.246046,12.102032 15.683962,11.99583 Z m -0.09282,2.479056 c 0.424718,0.01804 0.637542,0.154269 0.798671,0.344382 0.162555,0.191795 0.260883,0.47597 0.256455,0.771803 -0.0043,0.295835 -0.112672,0.580078 -0.280879,0.766922 -0.167179,0.185682 -0.383616,0.312831 -0.810884,0.317515 -0.617435,-0.0043 -1.097739,-0.483211 -1.099088,-1.101533 0.0012,-0.632954 0.502663,-1.117817 1.135725,-1.099089 z"
     id="path8"
     inkscape:connector-curvature="0"
     inkscape:label="overlay" />
</svg>
