<?xml version="1.0" encoding="UTF-8" standalone="no"?>
<svg
   xmlns:dc="http://purl.org/dc/elements/1.1/"
   xmlns:cc="http://creativecommons.org/ns#"
   xmlns:rdf="http://www.w3.org/1999/02/22-rdf-syntax-ns#"
   xmlns:svg="http://www.w3.org/2000/svg"
   xmlns="http://www.w3.org/2000/svg"
   xmlns:sodipodi="http://sodipodi.sourceforge.net/DTD/sodipodi-0.dtd"
   xmlns:inkscape="http://www.inkscape.org/namespaces/inkscape"
   id="visual"
   viewBox="0 0 22 22"
   version="1.1"
   sodipodi:docname="overlay-gear.svg"
   inkscape:version="0.92.3 (2405546, 2018-03-11)">
  <metadata
     id="metadata29">
    <rdf:RDF>
      <cc:Work
         rdf:about="">
        <dc:format>image/svg+xml</dc:format>
        <dc:type
           rdf:resource="http://purl.org/dc/dcmitype/StillImage" />
        <dc:title>newElement</dc:title>
      </cc:Work>
    </rdf:RDF>
  </metadata>
  <sodipodi:namedview
     pagecolor="#ffffff"
     bordercolor="#666666"
     borderopacity="1"
     objecttolerance="10"
     gridtolerance="10"
     guidetolerance="10"
     inkscape:pageopacity="0"
     inkscape:pageshadow="2"
     inkscape:window-width="1920"
     inkscape:window-height="1137"
     id="namedview27"
     showgrid="false"
     inkscape:zoom="45.254834"
     inkscape:cx="14.164566"
     inkscape:cy="2.0827936"
     inkscape:window-x="1912"
     inkscape:window-y="-8"
     inkscape:window-maximized="1"
     inkscape:current-layer="visual"
     inkscape:pagecheckerboard="true" />
  <defs
     id="defs4">
    <style
       id="style2">.cls-1{fill:none;stroke:#fbfbfd;stroke-miterlimit:10;}.cls-2{fill:#fbfbfd;}</style>
  </defs>
  <title
     id="title6">newElement</title>
  <rect
     style="opacity:1;fill:#008fb8;fill-opacity:1;stroke:none;stroke-width:8.36255455;stroke-linejoin:round;stroke-miterlimit:4;stroke-dasharray:none;stroke-opacity:1"
     id="rect819"
     width="21.978367"
     height="21.954729"
     x="0.003286466"
     y="0.0050197653"
     inkscape:label="base" />
  <path
     style="fill:#fbfbfd;stroke-width:0.85326242"
     d="m 21.992584,16.019551 a 5.972837,5.972837 0 0 1 -5.972837,5.972837 5.972837,5.972837 0 0 1 -5.972837,-5.972837 5.972837,5.972837 0 0 1 5.972837,-5.972837 5.972837,5.972837 0 0 1 5.972837,5.972837 z"
     id="circle16"
     inkscape:connector-curvature="0"
     inkscape:label="circle" />
  <path
     id="path16-6"
     style="display:inline;fill:#008fb8;fill-opacity:1;stroke-width:0.28387719"
     d="M 20.32274,16.535249 V 15.39974 h -1.044667 c -0.03313,-0.185658 -0.08253,-0.368042 -0.147615,-0.545044 l 0.905569,-0.522334 -0.567757,-0.985053 -0.905566,0.522334 c -0.122818,-0.144577 -0.257664,-0.27848 -0.403107,-0.400268 l 0.522334,-0.905568 -0.982214,-0.567755 -0.522333,0.908409 c -0.17786,-0.06546 -0.361219,-0.114853 -0.547884,-0.147617 v -1.047507 h -1.13551 v 1.047507 c -0.185657,0.03313 -0.368041,0.08253 -0.545043,0.147617 l -0.525173,-0.908409 -0.982216,0.567755 0.522334,0.905568 c -0.144532,0.121834 -0.278437,0.255736 -0.400267,0.400268 l -0.905568,-0.522334 -0.567754,0.985053 0.905567,0.522334 c -0.06415,0.177084 -0.112589,0.359468 -0.144777,0.545044 h -1.044668 v 1.135509 h 1.047507 c 0.0323,0.183698 0.08076,0.364187 0.144778,0.539367 l -0.905568,0.522334 0.567753,0.985056 0.905568,-0.513818 c 0.121834,0.144532 0.255736,0.278436 0.400268,0.400265 l -0.513818,0.902732 0.982215,0.567752 0.525173,-0.905567 c 0.177004,0.06509 0.359388,0.114482 0.545046,0.147615 v 1.044669 h 1.135508 v -1.044669 c 0.186665,-0.03276 0.370025,-0.08216 0.547884,-0.147615 l 0.522333,0.905567 0.982214,-0.567752 -0.522332,-0.902732 c 0.141508,-0.122269 0.272548,-0.256159 0.39175,-0.400265 l 0.902727,0.522334 0.567758,-0.985054 -0.902731,-0.530852 c 0.06546,-0.177858 0.114852,-0.361217 0.147615,-0.547883 z m -4.258157,1.419389 c -1.770475,0 -2.656813,-2.140428 -1.405049,-3.392192 1.251764,-1.251764 3.392191,-0.365428 3.392191,1.405049 0.0063,1.1019 -0.885223,1.998515 -1.987142,1.998497 z"
     inkscape:connector-curvature="0"
     sodipodi:nodetypes="ccccccccccccccccccccccccccccccccccccccccccccccccccsccc"
     inkscape:label="overlay" />
</svg>
