<?xml version="1.0" encoding="UTF-8" standalone="no"?>
<svg
   xmlns:dc="http://purl.org/dc/elements/1.1/"
   xmlns:cc="http://creativecommons.org/ns#"
   xmlns:rdf="http://www.w3.org/1999/02/22-rdf-syntax-ns#"
   xmlns:svg="http://www.w3.org/2000/svg"
   xmlns="http://www.w3.org/2000/svg"
   xmlns:sodipodi="http://sodipodi.sourceforge.net/DTD/sodipodi-0.dtd"
   xmlns:inkscape="http://www.inkscape.org/namespaces/inkscape"
   id="visual"
   viewBox="0 0 22 22"
   version="1.1"
   sodipodi:docname="buttonEdit_path.svg"
   inkscape:version="0.92.3 (2405546, 2018-03-11)">
  <metadata
     id="metadata3960">
    <rdf:RDF>
      <cc:Work
         rdf:about="">
        <dc:format>image/svg+xml</dc:format>
        <dc:type
           rdf:resource="http://purl.org/dc/dcmitype/StillImage" />
        <dc:title>buttonEdit</dc:title>
      </cc:Work>
    </rdf:RDF>
  </metadata>
  <sodipodi:namedview
     pagecolor="#ffffff"
     bordercolor="#666666"
     borderopacity="1"
     objecttolerance="10"
     gridtolerance="10"
     guidetolerance="10"
     inkscape:pageopacity="0"
     inkscape:pageshadow="2"
     inkscape:window-width="1920"
     inkscape:window-height="1017"
     id="namedview3958"
     showgrid="false"
     inkscape:zoom="242.73047"
     inkscape:cx="20.542516"
     inkscape:cy="22.453462"
     inkscape:window-x="-8"
     inkscape:window-y="-8"
     inkscape:window-maximized="1"
     inkscape:current-layer="visual" />
  <defs
     id="defs3945">
    <style
       id="style3943">.cls-1,.cls-2,.cls-3{fill:none;stroke:#fbfbfd;}.cls-1{stroke-miterlimit:10;}.cls-2{stroke-linecap:round;}.cls-2,.cls-3{stroke-linejoin:round;}</style>
  </defs>
  <title
     id="title3947">buttonEdit</title>
  <path
     id="rect3955"
     style="color:#000000;font-style:normal;font-variant:normal;font-weight:normal;font-stretch:normal;font-size:medium;line-height:normal;font-family:sans-serif;font-variant-ligatures:normal;font-variant-position:normal;font-variant-caps:normal;font-variant-numeric:normal;font-variant-alternates:normal;font-feature-settings:normal;text-indent:0;text-align:start;text-decoration:none;text-decoration-line:none;text-decoration-style:solid;text-decoration-color:#000000;letter-spacing:normal;word-spacing:normal;text-transform:none;writing-mode:lr-tb;direction:ltr;text-orientation:mixed;dominant-baseline:auto;baseline-shift:baseline;text-anchor:start;white-space:normal;shape-padding:0;clip-rule:nonzero;display:inline;overflow:visible;visibility:visible;opacity:1;isolation:auto;mix-blend-mode:normal;color-interpolation:sRGB;color-interpolation-filters:linearRGB;solid-color:#000000;solid-opacity:1;vector-effect:none;fill:#008fb8;fill-opacity:1;fill-rule:nonzero;stroke:none;stroke-width:1.28492939;stroke-linecap:butt;stroke-linejoin:round;stroke-miterlimit:4;stroke-dasharray:none;stroke-dashoffset:0;stroke-opacity:1;color-rendering:auto;image-rendering:auto;shape-rendering:auto;text-rendering:auto;enable-background:accumulate"
     d="m 2.7170264,13.830806 a 0.64252891,0.64252891 0 0 0 0.00146,0.908766 l 4.5423649,4.542365 a 0.64252891,0.64252891 0 0 0 0.9087651,0.0014 L 21.798179,5.6548416 a 0.64252891,0.64252891 0 0 0 0,-0.9102284 L 17.255814,0.20224807 a 0.64252891,0.64252891 0 0 0 -0.910228,0 z M 4.0794428,14.285921 16.800699,1.5646647 20.435763,5.1997278 7.714506,17.920984 Z M 3.1681244,13.631868 a 0.64252892,0.64252892 0 0 0 -0.5947817,0.426636 l -2.51966619,7.067113 a 0.64252892,0.64252892 0 0 0 0.82064825,0.820648 L 7.9414361,19.426599 A 0.64252892,0.64252892 0 0 0 8.1798509,18.367536 L 3.6324055,13.820092 A 0.64252892,0.64252892 0 0 0 3.1681244,13.631868 Z m 0.2735495,1.814462 3.1119383,3.111939 -4.8335429,1.721603 z M 19.376,3.2179497 5.7563108,16.852127 6.664842,17.760658 20.284532,4.1264809 Z M 17.87351,1.7154586 4.2393327,15.335148 5.147864,16.243679 18.782041,2.6239897 Z"
     inkscape:connector-curvature="0" />
</svg>
