<?xml version="1.0" encoding="UTF-8" standalone="no"?>
<svg
   xmlns:dc="http://purl.org/dc/elements/1.1/"
   xmlns:cc="http://creativecommons.org/ns#"
   xmlns:rdf="http://www.w3.org/1999/02/22-rdf-syntax-ns#"
   xmlns:svg="http://www.w3.org/2000/svg"
   xmlns="http://www.w3.org/2000/svg"
   xmlns:sodipodi="http://sodipodi.sourceforge.net/DTD/sodipodi-0.dtd"
   xmlns:inkscape="http://www.inkscape.org/namespaces/inkscape"
   id="visual"
   viewBox="0 0 22 22"
   version="1.1"
   sodipodi:docname="program.svg"
   inkscape:version="0.92.3 (2405546, 2018-03-11)">
  <metadata
     id="metadata17">
    <rdf:RDF>
      <cc:Work
         rdf:about="">
        <dc:format>image/svg+xml</dc:format>
        <dc:type
           rdf:resource="http://purl.org/dc/dcmitype/StillImage" />
        <dc:title></dc:title>
      </cc:Work>
    </rdf:RDF>
  </metadata>
  <sodipodi:namedview
     pagecolor="#ffffff"
     bordercolor="#666666"
     borderopacity="1"
     objecttolerance="10"
     gridtolerance="10"
     guidetolerance="10"
     inkscape:pageopacity="0"
     inkscape:pageshadow="2"
     inkscape:window-width="1920"
     inkscape:window-height="1017"
     id="namedview15"
     showgrid="false"
     inkscape:zoom="30.341309"
     inkscape:cx="6.1087748"
     inkscape:cy="8.2315661"
     inkscape:window-x="-8"
     inkscape:window-y="-8"
     inkscape:window-maximized="1"
     inkscape:current-layer="visual" />
  <defs
     id="defs4">
    <style
       id="style2">.cls-1,.cls-2{fill:none;stroke-miterlimit:10;stroke-width:2px;}.cls-1{stroke:#bb0a30;}.cls-2{stroke:#4c4c4c;}</style>
  </defs>
  <path
     style="color:#000000;font-style:normal;font-variant:normal;font-weight:normal;font-stretch:normal;font-size:medium;line-height:normal;font-family:sans-serif;font-variant-ligatures:normal;font-variant-position:normal;font-variant-caps:normal;font-variant-numeric:normal;font-variant-alternates:normal;font-feature-settings:normal;text-indent:0;text-align:start;text-decoration:none;text-decoration-line:none;text-decoration-style:solid;text-decoration-color:#000000;letter-spacing:normal;word-spacing:normal;text-transform:none;writing-mode:lr-tb;direction:ltr;text-orientation:mixed;dominant-baseline:auto;baseline-shift:baseline;text-anchor:start;white-space:normal;shape-padding:0;clip-rule:nonzero;display:inline;overflow:visible;visibility:visible;opacity:1;isolation:auto;mix-blend-mode:normal;color-interpolation:sRGB;color-interpolation-filters:linearRGB;solid-color:#000000;solid-opacity:1;vector-effect:none;fill:#008fb8;fill-opacity:1;fill-rule:nonzero;stroke:none;stroke-width:1.5;stroke-linecap:butt;stroke-linejoin:miter;stroke-miterlimit:10;stroke-dasharray:none;stroke-dashoffset:0;stroke-opacity:1;color-rendering:auto;image-rendering:auto;shape-rendering:auto;text-rendering:auto;enable-background:accumulate"
     d="M 17.75 3.2246094 C 17.616905 3.2246094 17.509842 3.2262176 17.425781 3.2324219 C 17.334716 3.2324219 17.2257 3.2447143 17.099609 3.2695312 C 17.050574 3.2695312 17.004921 3.2818236 16.962891 3.3066406 C 16.913855 3.3252534 16.875676 3.3569609 16.847656 3.4003906 C 16.812631 3.4438203 16.787448 3.5036741 16.773438 3.578125 C 16.759427 3.6463717 16.751953 3.7288571 16.751953 3.828125 C 16.751953 3.9335972 16.759427 4.0232053 16.773438 4.0976562 C 16.787448 4.1659029 16.812631 4.2257567 16.847656 4.2753906 C 16.875676 4.3250246 16.913855 4.3583404 16.962891 4.3769531 C 17.004921 4.3955659 17.053335 4.40625 17.109375 4.40625 L 17.541016 4.4140625 C 17.709136 4.4140625 17.851618 4.4422087 17.970703 4.4980469 C 18.089789 4.5476808 18.18857 4.6515345 18.265625 4.8066406 C 18.335675 4.9555425 18.391564 5.162905 18.433594 5.4296875 C 18.468619 5.69647 18.486328 6.1060254 18.486328 6.6582031 L 18.486328 8.015625 C 18.486328 8.4685348 18.514272 8.8570668 18.570312 9.1796875 C 18.626353 9.496104 18.727895 9.7807822 18.875 10.035156 C 19.0151 10.28953 19.205189 10.511138 19.443359 10.697266 C 19.68153 10.877189 19.981442 11.000113 20.345703 11.068359 C 19.981442 11.130402 19.68153 11.255279 19.443359 11.441406 C 19.205189 11.621329 19.0151 11.840984 18.875 12.101562 C 18.727895 12.355937 18.626353 12.642568 18.570312 12.958984 C 18.514272 13.275401 18.486328 13.66198 18.486328 14.121094 L 18.486328 15.890625 C 18.486328 16.436598 18.468619 16.842592 18.433594 17.109375 C 18.398569 17.376158 18.345441 17.58352 18.275391 17.732422 C 18.198335 17.887528 18.104268 17.99299 17.992188 18.048828 C 17.873102 18.104666 17.733381 18.132812 17.572266 18.132812 L 17.130859 18.142578 C 17.067814 18.142578 17.011926 18.151309 16.962891 18.169922 C 16.913855 18.188535 16.875676 18.220242 16.847656 18.263672 C 16.812631 18.313306 16.787448 18.371206 16.773438 18.439453 C 16.759427 18.513904 16.751953 18.607074 16.751953 18.71875 C 16.751953 18.818018 16.759427 18.902456 16.773438 18.970703 C 16.787448 19.045154 16.812631 19.101446 16.847656 19.138672 C 16.875676 19.182102 16.909142 19.215417 16.951172 19.240234 C 16.993202 19.265051 17.036095 19.277344 17.078125 19.277344 C 17.204215 19.302161 17.315992 19.314453 17.414062 19.314453 C 17.505128 19.320657 17.616905 19.324219 17.75 19.324219 C 18.219337 19.324219 18.605034 19.255634 18.90625 19.119141 C 19.207466 18.988851 19.445968 18.79022 19.621094 18.523438 C 19.796219 18.262859 19.91547 17.934181 19.978516 17.537109 C 20.041561 17.140038 20.072266 16.612728 20.072266 15.955078 L 20.072266 14.037109 C 20.072266 13.615221 20.104924 13.27425 20.167969 13.013672 C 20.224009 12.753094 20.315316 12.526316 20.441406 12.333984 C 20.560492 12.135449 20.717922 11.977256 20.914062 11.859375 C 21.103198 11.73529 21.334226 11.661536 21.607422 11.636719 C 21.670467 11.62431 21.721642 11.608456 21.763672 11.589844 C 21.805702 11.565027 21.841121 11.531711 21.869141 11.488281 C 21.890156 11.444852 21.907865 11.388559 21.921875 11.320312 C 21.935885 11.245862 21.943359 11.161423 21.943359 11.068359 C 21.943359 10.969091 21.940599 10.886606 21.933594 10.818359 C 21.919584 10.750113 21.901874 10.69382 21.880859 10.650391 C 21.852839 10.600757 21.817421 10.567441 21.775391 10.548828 C 21.73336 10.530215 21.680233 10.514362 21.617188 10.501953 C 21.098816 10.452319 20.713118 10.230711 20.460938 9.8398438 C 20.201752 9.4427721 20.072266 8.8611232 20.072266 8.0917969 L 20.072266 6.5917969 C 20.072266 5.9403512 20.041561 5.4166029 19.978516 5.0195312 C 19.908465 4.6224596 19.786454 4.29022 19.611328 4.0234375 C 19.429198 3.756655 19.190695 3.5580235 18.896484 3.4277344 C 18.595268 3.291241 18.212332 3.2246094 17.75 3.2246094 z M 4.25 3.2363281 C 3.7876685 3.2363281 3.4047316 3.3029597 3.1035156 3.4394531 C 2.8093047 3.5697423 2.5708025 3.7683737 2.3886719 4.0351562 C 2.2135463 4.3019388 2.0915346 4.6341784 2.0214844 5.03125 C 1.9584392 5.4283216 1.9277344 5.95207 1.9277344 6.6035156 L 1.9277344 8.1035156 C 1.9277344 8.8728419 1.7982483 9.4544909 1.5390625 9.8515625 C 1.2868817 10.24243 0.90118418 10.464038 0.3828125 10.513672 C 0.3197673 10.52608 0.26663951 10.541934 0.22460938 10.560547 C 0.18257924 10.57916 0.14716072 10.612475 0.11914062 10.662109 C 0.098125557 10.705539 0.080416295 10.761831 0.06640625 10.830078 C 0.059401227 10.898325 0.056640625 10.98081 0.056640625 11.080078 C 0.056640625 11.173142 0.064114955 11.25758 0.078125 11.332031 C 0.092135045 11.400278 0.10984431 11.45657 0.13085938 11.5 C 0.15887947 11.54343 0.19429799 11.576746 0.23632812 11.601562 C 0.27835826 11.620175 0.32953292 11.636029 0.39257812 11.648438 C 0.66577401 11.673254 0.89680189 11.747009 1.0859375 11.871094 C 1.2820781 11.988974 1.4395084 12.147167 1.5585938 12.345703 C 1.6846842 12.538035 1.7759911 12.764812 1.8320312 13.025391 C 1.8950765 13.285969 1.9277344 13.62694 1.9277344 14.048828 L 1.9277344 15.966797 C 1.9277344 16.624447 1.9584392 17.151756 2.0214844 17.548828 C 2.0845296 17.9459 2.2037807 18.274578 2.3789062 18.535156 C 2.5540318 18.801939 2.792534 19.00057 3.09375 19.130859 C 3.394966 19.267353 3.7806635 19.335938 4.25 19.335938 C 4.3830954 19.335937 4.4948722 19.332376 4.5859375 19.326172 C 4.6840078 19.326172 4.7957846 19.313879 4.921875 19.289062 C 4.9639051 19.289062 5.006798 19.27677 5.0488281 19.251953 C 5.0908583 19.227136 5.1243237 19.191867 5.1523438 19.148438 C 5.1873689 19.111212 5.2125525 19.056873 5.2265625 18.982422 C 5.2405725 18.914175 5.2480469 18.829737 5.2480469 18.730469 C 5.2480469 18.618792 5.2405725 18.525623 5.2265625 18.451172 C 5.2125525 18.382925 5.1873689 18.325025 5.1523438 18.275391 C 5.1243237 18.231961 5.0861445 18.200253 5.0371094 18.181641 C 4.9880742 18.163028 4.9321858 18.154297 4.8691406 18.154297 L 4.4277344 18.144531 C 4.2666189 18.144531 4.1268979 18.116385 4.0078125 18.060547 C 3.8957321 18.004709 3.8016646 17.899247 3.7246094 17.744141 C 3.6545591 17.595239 3.6014314 17.387876 3.5664062 17.121094 C 3.5313811 16.854311 3.5136719 16.448317 3.5136719 15.902344 L 3.5136719 14.132812 C 3.5136719 13.673698 3.4857277 13.28712 3.4296875 12.970703 C 3.3736473 12.654287 3.2721055 12.367655 3.125 12.113281 C 2.9848995 11.852703 2.7948114 11.633048 2.5566406 11.453125 C 2.3184699 11.266998 2.0185581 11.142121 1.6542969 11.080078 C 2.0185581 11.011831 2.3184699 10.888907 2.5566406 10.708984 C 2.7948114 10.522857 2.9848995 10.301249 3.125 10.046875 C 3.2721055 9.792501 3.3736473 9.5078227 3.4296875 9.1914062 C 3.4857277 8.8687855 3.5136719 8.4802536 3.5136719 8.0273438 L 3.5136719 6.6699219 C 3.5136719 6.1177441 3.5313811 5.7081888 3.5664062 5.4414062 C 3.6084364 5.1746237 3.6643248 4.9672612 3.734375 4.8183594 C 3.8114303 4.6632533 3.9102115 4.5593996 4.0292969 4.5097656 C 4.1483823 4.4539274 4.2908638 4.4257813 4.4589844 4.4257812 L 4.890625 4.4179688 C 4.9466652 4.4179687 4.9950792 4.4072846 5.0371094 4.3886719 C 5.0861445 4.3700591 5.1243237 4.3367433 5.1523438 4.2871094 C 5.1873689 4.2374754 5.2125525 4.1776217 5.2265625 4.109375 C 5.2405725 4.0349241 5.2480469 3.9453159 5.2480469 3.8398438 C 5.2480469 3.7405758 5.2405725 3.6580904 5.2265625 3.5898438 C 5.2125525 3.5153928 5.1873689 3.4555391 5.1523438 3.4121094 C 5.1243237 3.3686797 5.0861445 3.3369721 5.0371094 3.3183594 C 4.9950792 3.2935424 4.9494258 3.28125 4.9003906 3.28125 C 4.7743002 3.256433 4.665284 3.2441406 4.5742188 3.2441406 C 4.4901585 3.2379364 4.3830954 3.2363281 4.25 3.2363281 z M 5.5898438 6.3046875 L 5.5898438 7.0546875 L 5.5898438 16.291016 L 16.787109 16.291016 L 16.787109 6.3046875 L 5.5898438 6.3046875 z M 7.0898438 9.0742188 L 15.287109 9.0742188 L 15.287109 14.791016 L 7.0898438 14.791016 L 7.0898438 9.0742188 z M 8.1132812 9.9414062 L 8.1132812 11.441406 L 11.142578 11.441406 L 11.142578 9.9414062 L 8.1132812 9.9414062 z M 10.675781 12.273438 L 10.675781 13.773438 L 14.3125 13.773438 L 14.3125 12.273438 L 10.675781 12.273438 z "
     id="rect6" />
</svg>
