<?xml version="1.0" encoding="UTF-8" standalone="no"?>
<svg
   xmlns:dc="http://purl.org/dc/elements/1.1/"
   xmlns:cc="http://creativecommons.org/ns#"
   xmlns:rdf="http://www.w3.org/1999/02/22-rdf-syntax-ns#"
   xmlns:svg="http://www.w3.org/2000/svg"
   xmlns="http://www.w3.org/2000/svg"
   xmlns:sodipodi="http://sodipodi.sourceforge.net/DTD/sodipodi-0.dtd"
   xmlns:inkscape="http://www.inkscape.org/namespaces/inkscape"
   id="visual"
   viewBox="0 0 120 120"
   version="1.1"
   sodipodi:docname="question-speachbubble.svg"
   inkscape:version="0.92.3 (2405546, 2018-03-11)">
  <metadata
     id="metadata13858">
    <rdf:RDF>
      <cc:Work
         rdf:about="">
        <dc:format>image/svg+xml</dc:format>
        <dc:type
           rdf:resource="http://purl.org/dc/dcmitype/StillImage" />
        <dc:title />
      </cc:Work>
    </rdf:RDF>
  </metadata>
  <sodipodi:namedview
     pagecolor="#ffffff"
     bordercolor="#666666"
     borderopacity="1"
     objecttolerance="10"
     gridtolerance="10"
     guidetolerance="10"
     inkscape:pageopacity="0"
     inkscape:pageshadow="2"
     inkscape:window-width="1680"
     inkscape:window-height="987"
     id="namedview13856"
     showgrid="false"
     inkscape:pagecheckerboard="true"
     inkscape:zoom="3.9333334"
     inkscape:cx="108.16359"
     inkscape:cy="28.771556"
     inkscape:window-x="1912"
     inkscape:window-y="-8"
     inkscape:window-maximized="1"
     inkscape:current-layer="visual" />
  <defs
     id="defs13851">
    <style
       id="style13849">.cls-1{fill:#bb0a30;}</style>
  </defs>
  <path
     class="cls-1"
     d="M 105.49894,14.045684 H 14.65727 A 14.599554,14.599554 0 0 0 0.2340376,28.774543 V 81.542175 A 14.599554,14.599554 0 0 0 14.65727,96.259279 h 7.217492 V 113.79755 L 46.912645,96.259279 H 105.49894 A 14.599554,14.599554 0 0 0 119.92217,81.542175 V 28.774543 A 14.599554,14.599554 0 0 0 105.49894,14.045684 Z M 66.707853,83.998944 H 54.224177 v -12.2956 h 12.530697 z m 7.241003,-29.457715 c -3.444178,2.550808 -7.052923,4.631419 -7.828746,9.345125 v 3.032757 H 55.34089 V 63.32212 c 0.481949,-6.947133 3.749805,-10.062173 6.94713,-12.530698 3.197328,-2.468522 5.877439,-4.314039 5.877439,-8.628077 0,-4.866519 -2.562564,-7.18223 -6.794318,-7.18223 -5.748134,0 -8.134374,4.701951 -8.228412,10.379555 H 41.387854 c 0.223343,-11.413983 7.722952,-19.724679 19.383788,-19.724679 15.09326,0 19.877493,9.26284 19.877493,15.41064 0,7.746463 -3.267854,10.861505 -6.700279,13.494598 z"
     id="path13853"
     inkscape:connector-curvature="0"
     style="display:inline;fill:#008fb8;fill-opacity:1;stroke-width:1.1754874" />
  <path
     style="display:inline;fill:#fbfbfd;fill-opacity:1;stroke:none;stroke-width:0.19599999;stroke-miterlimit:4;stroke-dasharray:none;stroke-opacity:1"
     d="m 60.771635,25.636061 c -1.457604,0 -2.850393,0.129367 -4.171875,0.378906 -1.321482,0.249539 -2.57095,0.618921 -3.744141,1.097656 -1.173192,0.478736 -2.27047,1.066315 -3.283203,1.753907 -1.012733,0.687591 -1.941144,1.475457 -2.78125,2.351562 -0.840107,0.876105 -1.590783,1.840487 -2.246094,2.884766 -0.655311,1.044278 -1.21548,2.167265 -1.673828,3.359375 -0.458349,1.192109 -0.815236,2.453838 -1.064453,3.773437 -0.249218,1.3196 -0.390051,2.698252 -0.417969,4.125 h 11.753907 c 0.02351,-1.419401 0.190829,-2.778357 0.517578,-4.017578 0.326749,-1.239221 0.813146,-2.36014 1.476562,-3.302734 0.663415,-0.942594 1.5036,-1.706809 2.53711,-2.236328 1.03351,-0.529521 2.260232,-0.824219 3.697265,-0.824219 1.057937,0 2.012326,0.146316 2.847657,0.439453 0.83533,0.293137 1.551912,0.734504 2.136718,1.328125 0.584805,0.593621 1.037388,1.338782 1.34375,2.240234 0.306362,0.901452 0.466797,1.959153 0.466797,3.175781 0,1.078511 -0.167532,2.002064 -0.46875,2.820313 -0.301219,0.818249 -0.736637,1.530947 -1.271484,2.185547 -1.069693,1.309199 -2.540007,2.386833 -4.138672,3.621094 -0.799332,0.617131 -1.601718,1.275717 -2.365235,2.023437 -0.763515,0.74772 -1.486564,1.584641 -2.125,2.5625 -0.638435,0.977859 -1.193094,2.096751 -1.617187,3.404297 -0.424094,1.307546 -0.717404,2.804232 -0.837891,4.541016 v 3.597656 h 10.777344 v -3.033203 c 0.193955,-1.178427 0.565171,-2.192065 1.066406,-3.089844 0.501235,-0.897779 1.132814,-1.680423 1.847657,-2.394531 1.429686,-1.428217 3.19393,-2.585924 4.916015,-3.861328 0.858107,-0.658274 1.705095,-1.345554 2.494141,-2.128907 0.789047,-0.783352 1.519569,-1.663069 2.142578,-2.701171 0.623008,-1.038103 1.138055,-2.23568 1.498047,-3.658204 0.359993,-1.422523 0.564453,-3.069243 0.564453,-5.005859 0,-0.768475 -0.07408,-1.58609 -0.234375,-2.427734 -0.160297,-0.841645 -0.40587,-1.707756 -0.748047,-2.574219 -0.342177,-0.866463 -0.780535,-1.733242 -1.326172,-2.576172 -0.545637,-0.84293 -1.198071,-1.662547 -1.96875,-2.433594 -0.770679,-0.771046 -1.660432,-1.49372 -2.677734,-2.144531 -1.017301,-0.650811 -2.163714,-1.228713 -3.449219,-1.710937 -1.285506,-0.482227 -2.709865,-0.867525 -4.285156,-1.132813 -1.575291,-0.265288 -3.300842,-0.410156 -5.1875,-0.410156 z M 54.22476,71.702467 v 12.294922 h 12.482422 l 0.04687,-12.294922 z"
     id="path879"
     inkscape:connector-curvature="0" />
</svg>
