<?xml version="1.0" encoding="UTF-8" standalone="no"?>
<svg
   xmlns:dc="http://purl.org/dc/elements/1.1/"
   xmlns:cc="http://creativecommons.org/ns#"
   xmlns:rdf="http://www.w3.org/1999/02/22-rdf-syntax-ns#"
   xmlns:svg="http://www.w3.org/2000/svg"
   xmlns="http://www.w3.org/2000/svg"
   xmlns:sodipodi="http://sodipodi.sourceforge.net/DTD/sodipodi-0.dtd"
   xmlns:inkscape="http://www.inkscape.org/namespaces/inkscape"
   id="visual"
   viewBox="0 0 22 22"
   version="1.1"
   sodipodi:docname="quote.svg"
   inkscape:version="0.92.3 (2405546, 2018-03-11)">
  <metadata
     id="metadata885">
    <rdf:RDF>
      <cc:Work
         rdf:about="">
        <dc:format>image/svg+xml</dc:format>
        <dc:type
           rdf:resource="http://purl.org/dc/dcmitype/StillImage" />
        <dc:title>quote</dc:title>
      </cc:Work>
    </rdf:RDF>
  </metadata>
  <sodipodi:namedview
     pagecolor="#ffffff"
     bordercolor="#666666"
     borderopacity="1"
     objecttolerance="10"
     gridtolerance="10"
     guidetolerance="10"
     inkscape:pageopacity="0"
     inkscape:pageshadow="2"
     inkscape:window-width="1680"
     inkscape:window-height="987"
     id="namedview883"
     showgrid="false"
     inkscape:pagecheckerboard="true"
     inkscape:zoom="30.341309"
     inkscape:cx="12.925275"
     inkscape:cy="12.042116"
     inkscape:window-x="1912"
     inkscape:window-y="-8"
     inkscape:window-maximized="1"
     inkscape:current-layer="visual" />
  <defs
     id="defs876">
    <style
       id="style874">.cls-1{fill:#fbfbfd;}</style>
  </defs>
  <title
     id="title878">quote</title>
  <path
     class="cls-1"
     d="M 19.309651,0.92658996 H 2.7233075 A 2.6591575,2.6591575 0 0 0 0.08843446,3.6100321 V 15.679451 a 2.6591575,2.6591575 0 0 0 2.63487304,2.683442 h 1.3113653 v 3.20556 l 4.553352,-3.20556 H 19.285366 a 2.6591575,2.6591575 0 0 0 2.659158,-2.683442 V 3.6100321 A 2.6591575,2.6591575 0 0 0 19.309651,0.92658996 Z M 4.9453433,15.120906 4.4232255,14.088813 C 5.3096114,13.736687 5.7588754,13.238854 5.7953022,12.52246 H 5.6010259 A 1.117089,1.117089 0 0 1 4.3867988,11.381087 1.2142272,1.2142272 0 0 1 5.6010259,10.094006 c 1.0078086,0 1.5542108,0.752821 1.5542108,2.039902 a 3.1327062,3.1327062 0 0 1 -2.2098934,2.986998 z m 3.399836,0 -0.5221176,-1.032093 C 8.7094476,13.736687 9.1587116,13.238854 9.1951384,12.52246 H 9.000862 A 1.117089,1.117089 0 0 1 7.7866348,11.381087 1.2142272,1.2142272 0 0 1 9.000862,10.094006 c 1.007809,0 1.554211,0.752821 1.554211,2.039902 A 3.1327062,3.1327062 0 0 1 8.3330371,15.120906 Z M 12.995669,9.3047576 c -1.007808,0 -1.55421,-0.7528209 -1.55421,-2.0399017 a 3.1448485,3.1448485 0 0 1 2.270604,-2.950572 l 0.522118,1.032093 c -0.886385,0.352126 -1.33565,0.8499591 -1.384219,1.5663532 h 0.206419 a 1.117089,1.117089 0 0 1 1.214227,1.1535158 1.2142272,1.2142272 0 0 1 -1.287081,1.2385117 z m 3.399837,0 c -1.007809,0 -1.554212,-0.7528209 -1.554212,-2.0399017 a 3.1448485,3.1448485 0 0 1 2.246321,-2.950572 l 0.522118,1.032093 c -0.886386,0.352126 -1.33565,0.8499591 -1.384219,1.5663532 h 0.206419 a 1.117089,1.117089 0 0 1 1.214227,1.1535158 1.2142272,1.2142272 0 0 1 -1.262797,1.2385117 z"
     id="path880"
     inkscape:connector-curvature="0"
     style="display:inline;fill:#008fb8;fill-opacity:1;stroke-width:1.2142272" />
  <path
     style="display:inline;opacity:1;fill:#fbfbfd;fill-opacity:1;stroke:none;stroke-width:7.55905533;stroke-linejoin:round;stroke-miterlimit:4;stroke-dasharray:none;stroke-opacity:1"
     d="m 13.712891,4.3144531 c -1.320842,0.3814629 -2.240797,1.5766915 -2.271485,2.9511719 0,1.2870808 0.54688,2.0390625 1.554688,2.0390625 0.703958,0.035662 1.290256,-0.5335778 1.27539,-1.2382813 C 14.296503,7.394419 13.726473,6.852799 13.056641,6.9121094 h -0.207032 c 0.04857,-0.7163941 0.498381,-1.2142803 1.384766,-1.5664063 z m 3.375,0 c -1.310801,0.3906165 -2.218824,1.583679 -2.246094,2.9511719 0,1.2870808 0.544925,2.0390625 1.552734,2.0390625 0.694851,0.021743 1.266065,-0.5432333 1.251953,-1.2382813 C 17.671503,7.394419 17.101473,6.852799 16.431641,6.9121094 h -0.207032 c 0.04857,-0.7163941 0.49838,-1.2142803 1.384766,-1.5664063 z M 5.5605469,10.09375 c -0.6841067,0.02152 -1.215249,0.603918 -1.1738281,1.287109 -0.016625,0.666578 0.5506344,1.199182 1.2148437,1.140625 h 0.1933594 c -0.036427,0.716394 -0.4847079,1.214281 -1.3710938,1.566407 l 0.5214844,1.033203 c 1.3107261,-0.404465 2.2058763,-1.614619 2.2089844,-2.986328 0,-1.287081 -0.5449258,-2.041016 -1.5527344,-2.041016 -0.013671,-2.31e-4 -0.027345,-2.31e-4 -0.041016,0 z m 3.4003906,0 C 8.2768308,10.115268 7.7456885,10.697668 7.7871094,11.380859 7.7706078,12.046586 8.3365399,12.578799 9,12.521484 h 0.1953125 c -0.036427,0.716394 -0.4866612,1.214281 -1.3730469,1.566407 L 8.34375,15.117188 C 9.6538756,14.713851 10.549607,13.505563 10.554688,12.134766 10.554687,10.847685 10.007809,10.09375 9,10.09375 c -0.01302,-2.09e-4 -0.026043,-2.09e-4 -0.039063,0 z"
     id="path814"
     inkscape:connector-curvature="0"
     sodipodi:nodetypes="cccccccccccccccccccccccccccccccccc" />
</svg>
