<svg width="16" height="16" viewBox="0 0 16 16" fill="none" xmlns="http://www.w3.org/2000/svg">
<g clip-path="url(#clip0_31_39)">
<path fill-rule="evenodd" clip-rule="evenodd" d="M1.52608 4.00471C0.909256 3.71113 0.482666 3.08139 0.482666 2.35288C0.482666 1.34347 1.30147 0.524345 2.31048 0.524345C2.64652 0.524345 2.96079 0.614978 3.23161 0.773547H11.3743C11.378 0.770829 11.3816 0.768999 11.3843 0.767187C12.2131 0.288762 13.2638 0.539775 13.7909 1.32084C13.7909 1.32084 14.4766 1.71859 14.982 2.01126C15.3044 2.19882 15.4937 2.55314 15.4693 2.92555C15.4231 3.64047 15.3479 4.81024 15.308 5.43455C15.3008 5.54691 15.2492 5.6511 15.1649 5.7254C15.0798 5.7997 14.9693 5.83778 14.857 5.83053C14.8334 5.82872 14.8099 5.8269 14.7872 5.82599C14.664 5.81784 14.5517 5.75803 14.4757 5.66108C14.3996 5.56503 14.3688 5.44091 14.3896 5.3204C14.4612 4.48135 14.569 2.81953 14.569 2.81953L14.0898 2.54224C14.0264 3.09315 13.713 3.60783 13.1959 3.90594C12.6796 4.20404 12.0772 4.21853 11.5682 3.99835L11.5691 4.552C11.5691 4.552 13.1732 5.34575 13.8978 5.70366C14.0898 5.7988 14.1677 6.03076 14.0735 6.22286C14.0581 6.25367 14.0427 6.2845 14.0273 6.31621C13.9784 6.41407 13.8924 6.48926 13.7882 6.5246C13.684 6.55994 13.5699 6.55268 13.4721 6.50375C12.9133 6.22739 11.8562 5.70456 11.2104 5.38561C10.8762 5.21979 10.6642 4.87908 10.6633 4.50577C10.6633 4.30371 10.6625 4.08535 10.6625 3.90323C10.6616 3.68213 10.4822 3.50271 10.2612 3.50271C9.11357 3.50271 5.82663 3.50271 4.73973 3.50271C4.66727 3.50271 4.60021 3.54167 4.56398 3.60419C4.52685 3.66762 4.52685 3.74558 4.56398 3.8081C5.12827 4.78579 6.85192 7.77321 6.85192 7.77321H6.85557C7.85552 7.77321 8.66708 8.58508 8.66708 9.58542C8.66708 10.0494 8.49226 10.4725 8.20513 10.7933L10.1706 12.736C10.1706 12.736 10.4731 12.736 10.7766 12.736C11.1126 12.736 11.3843 13.0087 11.3843 13.3449C11.3843 13.7979 11.3843 14.4131 11.3843 14.8671C11.3843 15.2024 11.1126 15.4751 10.7766 15.4751C9.12718 15.4751 4.58484 15.4751 2.93546 15.4751C2.59942 15.4751 2.32679 15.2024 2.32679 14.8671C2.32679 14.4131 2.32679 13.7979 2.32679 13.3449C2.32679 13.1836 2.39107 13.0286 2.50519 12.9145C2.61932 12.8003 2.77423 12.736 2.93546 12.736C3.23798 12.736 3.54047 12.736 3.54047 12.736L5.50053 10.7869C5.44528 10.7244 5.39364 10.6583 5.34745 10.5885L5.33114 10.5976L1.52608 4.00471ZM2.32679 1.43045C2.32136 1.43045 2.31592 1.43045 2.31048 1.43045C1.80145 1.43045 1.38842 1.84364 1.38842 2.35288C1.38842 2.70898 1.59041 3.01795 1.88569 3.17199C2.0125 3.23814 2.15741 3.2753 2.31048 3.2753C2.31592 3.2753 2.32136 3.2753 2.32679 3.2753C2.81499 3.26714 3.21081 2.8784 3.23255 2.39364C3.23255 2.37461 3.23255 2.3719 3.23255 2.35288C3.23255 1.84908 2.82858 1.43951 2.32679 1.43045ZM6.13457 10.1336C6.30032 10.3511 6.5621 10.4915 6.85557 10.4915C7.35554 10.4915 7.76132 10.0856 7.76132 9.58542C7.76132 9.46129 7.73684 9.34257 7.69156 9.23474L7.69426 9.23297L7.67796 9.20487C7.6535 9.15685 7.62724 9.10974 7.59735 9.06534C7.43885 8.82885 7.16262 8.67932 6.85557 8.67932C6.68981 8.67932 6.53398 8.72461 6.39993 8.80253C6.26769 8.87955 6.1572 8.98923 6.0784 9.11971C5.99688 9.25653 5.94981 9.41508 5.94981 9.58542C5.94981 9.79111 6.01863 9.98138 6.13457 10.1336ZM3.23255 13.6838V14.569H10.4786V13.6838H3.23255ZM10.6026 1.67965H4.01054C4.09297 1.88806 4.1383 2.11548 4.1383 2.35288C4.1383 2.43533 4.13284 2.51687 4.12288 2.5966H10.4976C10.4523 2.2849 10.4903 1.9687 10.6026 1.67965ZM5.94705 8.01788L3.48613 3.7528C3.25154 3.95033 2.96805 4.08897 2.65556 4.14878L5.27862 8.69381C5.43713 8.41382 5.66898 8.18007 5.94705 8.01788ZM12.2901 3.24267C12.4441 3.24267 12.6008 3.20373 12.743 3.12128C13.1759 2.87119 13.3244 2.31663 13.0745 1.88351C12.9069 1.59355 12.6035 1.43045 12.2901 1.43045C12.1361 1.43045 11.9803 1.46939 11.8372 1.55185C11.4043 1.80193 11.2557 2.3565 11.5057 2.78962C11.6733 3.07957 11.9776 3.24267 12.2901 3.24267ZM8.36451 12.736C8.45056 12.736 8.52849 12.6843 8.5611 12.6045C8.59371 12.5248 8.57469 12.4333 8.514 12.3726C8.19155 12.0537 7.75134 11.6178 7.59011 11.4592C7.55026 11.4194 7.49684 11.3976 7.44068 11.3976C7.19613 11.3976 6.50502 11.3976 6.25956 11.3976C6.20341 11.3976 6.14905 11.4203 6.10919 11.4592C5.94887 11.6187 5.51051 12.0546 5.19078 12.3726C5.13009 12.4333 5.11105 12.5248 5.14456 12.6045C5.17717 12.6843 5.2551 12.736 5.34115 12.736C6.11919 12.736 7.58466 12.736 8.36451 12.736Z" fill="black"/>
</g>
<defs>
<clipPath id="clip0_31_39">
<rect width="16" height="16" fill="white"/>
</clipPath>
</defs>
</svg>
