<svg width="16" height="16" viewBox="0 0 16 16" fill="none" xmlns="http://www.w3.org/2000/svg">
<g clip-path="url(#clip0_31_53)">
<path fill-rule="evenodd" clip-rule="evenodd" d="M3.23168 2.84089C3.08179 2.60461 2.99548 2.32519 2.99548 2.0253C2.99548 1.18166 3.67983 0.497054 4.52314 0.497054C4.80399 0.497054 5.06664 0.572803 5.29299 0.705331H12.0985L12.1069 0.700016C12.7995 0.300158 13.6777 0.509949 14.1182 1.16275L14.8934 1.61258C15.2984 1.84735 15.5346 2.29034 15.5051 2.7576L15.3711 4.8296C15.3688 4.86292 15.3537 4.8932 15.3287 4.91516C15.3037 4.93712 15.2712 4.94849 15.2379 4.94622L14.8934 4.92427C14.8033 4.91821 14.7208 4.87352 14.6655 4.80233C14.611 4.73039 14.5899 4.63875 14.6073 4.55014C14.6746 3.86857 14.7685 2.41532 14.7685 2.41532L14.3681 2.18356C14.3151 2.64401 14.0531 3.07416 13.6209 3.32331C13.1894 3.57247 12.686 3.58457 12.2605 3.40055L12.2613 3.61715L11.8669 3.38918C11.3218 2.65838 10.3188 2.41831 9.49744 2.84089H3.23168ZM13.0857 4.27068L14.3854 4.91363C14.4475 4.94468 14.4725 5.01969 14.4422 5.08179L14.3378 5.29307C14.2908 5.38698 14.2091 5.45891 14.1099 5.49298C14.01 5.52631 13.901 5.51951 13.8071 5.47255L13.3695 5.25596C13.3862 4.89927 13.2825 4.55467 13.0857 4.27068ZM9.773 7.63617C9.81388 7.77324 9.83584 7.9194 9.83584 8.0701C9.83584 8.45785 9.68973 8.81151 9.44976 9.0796L11.0925 10.7032H11.3445C11.5467 10.7032 11.7404 10.7835 11.8835 10.9266C12.0266 11.0698 12.1069 11.2637 12.1069 11.4659V12.23C12.1069 12.4322 12.0266 12.6261 11.8835 12.7692C11.7404 12.9123 11.5467 12.9926 11.3445 12.9926H9.40734C9.23626 12.8934 9.04021 12.8396 8.83884 12.8396H8.73817L8.12725 12.2353H11.3499V11.4954H7.46108C7.59356 11.2584 7.67683 10.9895 7.69575 10.7032H9.36645C9.4747 10.7032 9.5724 10.6381 9.61327 10.5381C9.65415 10.4382 9.63068 10.3231 9.55423 10.2474L8.96147 9.66195C8.91151 9.61273 8.84413 9.58472 8.77448 9.58472H7.86001C7.78961 9.58472 7.72224 9.61273 7.67228 9.66195L7.53297 9.80053C7.42623 9.56425 7.27184 9.35372 7.08183 9.18106L7.18931 9.07428C7.14313 9.02203 7.09997 8.96675 7.06137 8.90844L7.04774 8.91602L5.28541 5.86258H6.15978L7.00384 7.32491C7.13632 7.0909 7.3301 6.89554 7.5625 6.75998L7.04473 5.86258H7.91906L8.31877 6.55549H8.32182C8.45959 6.55549 8.59204 6.57368 8.71922 6.60851C8.85548 6.99549 9.13861 7.32263 9.51939 7.51045L9.773 7.63617ZM7.71922 8.52826C7.85776 8.71001 8.07655 8.82741 8.32182 8.82741C8.73969 8.82741 9.07883 8.48814 9.07883 8.0701C9.07883 7.96635 9.05837 7.86713 9.02052 7.77701L9.02278 7.77553L9.00915 7.75205C8.98871 7.71191 8.96677 7.67254 8.94179 7.63543C8.80931 7.43777 8.57845 7.3128 8.32182 7.3128C8.18329 7.3128 8.05304 7.35065 7.941 7.41578C7.83048 7.48015 7.73814 7.57182 7.67228 7.68087C7.60415 7.79522 7.56481 7.92773 7.56481 8.0701C7.56481 8.24201 7.62233 8.40103 7.71922 8.52826ZM11.4535 1.46264H5.94401C6.0129 1.63682 6.05079 1.82689 6.05079 2.0253C6.05079 2.09421 6.04622 2.16236 6.0379 2.229H11.3658C11.3279 1.96849 11.3597 1.70422 11.4535 1.46264ZM4.53677 1.25436C4.53222 1.25436 4.52768 1.25436 4.52314 1.25436C4.0977 1.25436 3.75249 1.59969 3.75249 2.0253C3.75249 2.32292 3.92132 2.58116 4.1681 2.7099C4.27408 2.76518 4.3952 2.79624 4.52314 2.79624C4.52768 2.79624 4.53222 2.79624 4.53677 2.79624C4.94479 2.78942 5.27561 2.46452 5.29378 2.05937C5.29378 2.04346 5.29378 2.0412 5.29378 2.0253C5.29378 1.60424 4.95615 1.26193 4.53677 1.25436ZM12.8639 2.76897C12.9926 2.76897 13.1235 2.73643 13.2424 2.66751C13.6042 2.4585 13.7284 1.995 13.5194 1.63301C13.3794 1.39067 13.1258 1.25436 12.8639 1.25436C12.7352 1.25436 12.605 1.2869 12.4854 1.35582C12.1235 1.56483 11.9994 2.02832 12.2083 2.39032C12.3483 2.63265 12.6027 2.76897 12.8639 2.76897Z" fill="black"/>
<path fill-rule="evenodd" clip-rule="evenodd" d="M1.36132 5.91209C0.845793 5.66672 0.489258 5.1404 0.489258 4.53153C0.489258 3.68789 1.1736 3.00328 2.01691 3.00328C2.29776 3.00328 2.56042 3.07903 2.78676 3.21156H9.59228C9.59531 3.20928 9.59838 3.20776 9.60065 3.20624C10.2933 2.80638 11.1714 3.01617 11.612 3.66897C11.612 3.66897 12.1109 3.95825 12.5204 4.19604C12.8437 4.3831 13.0329 4.73749 13.0087 5.11009C12.9617 5.84089 12.8861 7.01399 12.8634 7.36083C12.8618 7.38734 12.8497 7.41229 12.8293 7.42971C12.8096 7.44712 12.7839 7.45624 12.7574 7.45397C12.6703 7.44867 12.5393 7.44035 12.4174 7.43202C12.3152 7.4252 12.2214 7.37445 12.1601 7.29266C12.0988 7.21087 12.076 7.10637 12.098 7.0064C12.1729 6.30892 12.2623 4.92155 12.2623 4.92155L11.8618 4.68979C11.8088 5.15023 11.5469 5.58038 11.1147 5.82954C10.6832 6.07869 10.1798 6.0908 9.75432 5.90678L9.75506 6.36951C9.75506 6.36951 11.4848 7.22524 11.9019 7.43123C11.9511 7.45546 11.9716 7.51605 11.9474 7.56528C11.9163 7.62737 11.8732 7.71448 11.83 7.80309C11.7838 7.89624 11.7021 7.96741 11.6037 8.00074C11.5053 8.03406 11.3978 8.0265 11.3047 7.9803C10.855 7.75841 10.0723 7.3714 9.54539 7.11013C9.21079 6.94503 8.99881 6.60428 8.99805 6.23093C8.99805 6.11582 8.99731 5.99916 8.99731 5.89314C8.99731 5.67201 8.81712 5.49253 8.59607 5.49253C7.60439 5.49253 5.04569 5.49253 4.10548 5.49253C4.03281 5.49253 3.96546 5.53116 3.92912 5.59478C3.89278 5.65763 3.89278 5.73486 3.92912 5.79848C4.42799 6.66256 5.81254 9.06172 5.81254 9.06172H5.81559C6.65133 9.06172 7.32961 9.74027 7.32961 10.5763C7.32961 10.9641 7.1835 11.3177 6.94353 11.5858L8.58623 13.2095C8.58623 13.2095 8.77623 13.2095 8.99274 13.2095C9.32809 13.2095 9.60065 13.4821 9.60065 13.8184C9.60065 14.1493 9.60065 14.559 9.60065 14.8907C9.60065 15.2262 9.32809 15.4988 8.99274 15.4988C7.57334 15.4988 4.05778 15.4988 2.63914 15.4988C2.30303 15.4988 2.03054 15.2262 2.03054 14.8907C2.03054 14.559 2.03054 14.1493 2.03054 13.8184C2.03054 13.4821 2.30303 13.2095 2.63914 13.2095C2.85489 13.2095 3.04491 13.2095 3.04491 13.2095L4.68308 11.5805C4.6369 11.5283 4.59375 11.473 4.55514 11.4147L1.36132 5.91209ZM2.03054 3.76058C2.026 3.76058 2.02145 3.76058 2.01691 3.76058C1.59147 3.76058 1.24627 4.10592 1.24627 4.53153C1.24627 4.82915 1.41509 5.08738 1.66188 5.21612C1.76786 5.27141 1.88897 5.30247 2.01691 5.30247C2.02145 5.30247 2.026 5.30247 2.03054 5.30247C2.43857 5.29565 2.76938 4.97075 2.78755 4.56559C2.78755 4.54969 2.78755 4.54743 2.78755 4.53153C2.78755 4.11046 2.44992 3.76816 2.03054 3.76058ZM5.213 11.0345C5.35153 11.2162 5.57032 11.3336 5.81559 11.3336C6.23346 11.3336 6.5726 10.9944 6.5726 10.5763C6.5726 10.4726 6.55214 10.3734 6.51429 10.2832L6.50293 10.2583C6.48249 10.2181 6.46054 10.1788 6.43556 10.1417C6.30309 9.944 6.07222 9.81903 5.81559 9.81903C5.67706 9.81903 5.54682 9.85688 5.43478 9.92201C5.32425 9.98638 5.23191 10.078 5.16605 10.1871C5.09792 10.3014 5.05858 10.434 5.05858 10.5763C5.05858 10.7482 5.1161 10.9073 5.213 11.0345ZM2.78755 14.0016V14.7415H8.84364V14.0016H2.78755ZM8.94732 3.96886H3.43778C3.50667 4.14304 3.54456 4.33311 3.54456 4.53153C3.54456 4.60044 3.54 4.66858 3.53167 4.73523H8.85953C8.82168 4.47471 8.85345 4.21044 8.94732 3.96886ZM5.05627 9.26621L2.99949 5.70155C2.80342 5.86664 2.56649 5.98252 2.30532 6.0325L4.49762 9.83114C4.63009 9.59713 4.82387 9.40176 5.05627 9.26621ZM10.3577 5.27519C10.4863 5.27519 10.6173 5.24265 10.7362 5.17374C11.098 4.96472 11.2221 4.50123 11.0132 4.13924C10.8732 3.8969 10.6196 3.76058 10.3577 3.76058C10.229 3.76058 10.0988 3.79313 9.97915 3.86204C9.6173 4.07106 9.49313 4.53455 9.70207 4.89654C9.84211 5.13888 10.0965 5.27519 10.3577 5.27519ZM6.99121 13.2095C7.07751 13.2095 7.15549 13.1572 7.18804 13.0777C7.2206 12.9982 7.20242 12.9066 7.1411 12.846C6.88675 12.5946 6.57107 12.2825 6.43935 12.1523C6.39999 12.1129 6.34622 12.0909 6.2902 12.0909C6.079 12.0909 5.54304 12.0909 5.33183 12.0909C5.27506 12.0909 5.22131 12.1129 5.18195 12.153C5.05023 12.2833 4.73683 12.5946 4.48399 12.846C4.42343 12.9066 4.40452 12.9982 4.43783 13.0785C4.47038 13.158 4.54833 13.2095 4.63387 13.2095C5.27203 13.2095 6.3523 13.2095 6.99121 13.2095Z" fill="black"/>
</g>
<defs>
<clipPath id="clip0_31_53">
<rect width="16" height="16" fill="white"/>
</clipPath>
</defs>
</svg>
