<?xml version="1.0" encoding="UTF-8" standalone="no"?>
<!-- Created with Inkscape (http://www.inkscape.org/) -->

<svg
   xmlns:dc="http://purl.org/dc/elements/1.1/"
   xmlns:cc="http://creativecommons.org/ns#"
   xmlns:rdf="http://www.w3.org/1999/02/22-rdf-syntax-ns#"
   xmlns:svg="http://www.w3.org/2000/svg"
   xmlns="http://www.w3.org/2000/svg"
   xmlns:sodipodi="http://sodipodi.sourceforge.net/DTD/sodipodi-0.dtd"
   xmlns:inkscape="http://www.inkscape.org/namespaces/inkscape"
   width="10"
   height="10"
   viewBox="0 0 2.645835 2.6458332"
   version="1.1"
   id="svg8"
   inkscape:version="0.92.3 (2405546, 2018-03-11)"
   sodipodi:docname="square-dashed.svg">
  <defs
     id="defs2" />
  <sodipodi:namedview
     id="base"
     pagecolor="#ffffff"
     bordercolor="#666666"
     borderopacity="1.0"
     inkscape:pageopacity="0.0"
     inkscape:pageshadow="2"
     inkscape:zoom="44.8"
     inkscape:cx="-1.2913216"
     inkscape:cy="3.6950432"
     inkscape:document-units="mm"
     inkscape:current-layer="layer1-3"
     showgrid="false"
     fit-margin-top="0"
     fit-margin-left="0"
     fit-margin-right="0"
     fit-margin-bottom="0"
     inkscape:window-width="1680"
     inkscape:window-height="987"
     inkscape:window-x="1912"
     inkscape:window-y="-8"
     inkscape:window-maximized="1"
     units="px"
     showguides="false" />
  <metadata
     id="metadata5">
    <rdf:RDF>
      <cc:Work
         rdf:about="">
        <dc:format>image/svg+xml</dc:format>
        <dc:type
           rdf:resource="http://purl.org/dc/dcmitype/StillImage" />
        <dc:title />
      </cc:Work>
    </rdf:RDF>
  </metadata>
  <g
     inkscape:label="Ebene 1"
     inkscape:groupmode="layer"
     id="layer1"
     transform="translate(69.654832,-222.07892)">
    <g
       id="layer1-3"
       inkscape:label="Ebene 1"
       transform="matrix(0.02633951,0,0,0.02633951,-71.140645,220.1346)">
      <path
         style="stroke-width:0.02453548;stroke:none;stroke-opacity:1;fill:#008fb8;fill-opacity:1"
         d="M 0.51953125 0.017578125 C 0.24377536 0.017578125 0.021484375 0.20994288 0.021484375 0.44921875 L 0.021484375 1.4394531 L 0.7890625 1.4394531 L 0.7890625 1.1191406 C 0.7890625 0.87986528 1.0113532 0.6875 1.2871094 0.6875 L 1.6289062 0.6875 L 1.6289062 0.017578125 L 0.51953125 0.017578125 z M 2.5898438 0.017578125 L 2.5898438 0.6875 L 4.4746094 0.6875 L 4.4746094 0.017578125 L 2.5898438 0.017578125 z M 5.4355469 0.017578125 L 5.4355469 0.6875 L 7.6679688 0.6875 L 7.6679688 0.017578125 L 5.4355469 0.017578125 z M 8.6269531 0.017578125 L 8.6269531 0.6875 L 8.7519531 0.6875 C 9.0277091 0.6875 9.25 0.87986528 9.25 1.1191406 L 9.25 1.4179688 L 9.9765625 1.4179688 L 9.9765625 0.44921875 C 9.9765625 0.20994288 9.7542716 0.017578125 9.4785156 0.017578125 L 8.6269531 0.017578125 z M 9.25 2.5117188 L 9.25 3.8066406 L 9.9765625 3.8066406 L 9.9765625 2.5117188 L 9.25 2.5117188 z M 0.021484375 2.5332031 L 0.021484375 3.7617188 L 0.7890625 3.7617188 L 0.7890625 2.5332031 L 0.021484375 2.5332031 z M 0.021484375 4.8554688 L 0.021484375 6.2285156 L 0.7890625 6.2285156 L 0.7890625 4.8554688 L 0.021484375 4.8554688 z M 9.25 4.9003906 L 9.25 6.2617188 L 9.9765625 6.2617188 L 9.9765625 4.9003906 L 9.25 4.9003906 z M 0.021484375 7.3222656 L 0.021484375 8.2246094 C 0.021484375 8.463885 0.24377536 8.65625 0.51953125 8.65625 L 1.5742188 8.65625 L 1.5742188 8.0292969 L 1.2871094 8.0292969 C 1.0113532 8.0292969 0.7890625 7.8369318 0.7890625 7.5976562 L 0.7890625 7.3222656 L 0.021484375 7.3222656 z M 9.25 7.3554688 L 9.25 7.5976562 C 9.25 7.8369318 9.0277091 8.0292969 8.7519531 8.0292969 L 8.4492188 8.0292969 L 8.4492188 8.65625 L 9.4785156 8.65625 C 9.7542716 8.65625 9.9765625 8.463885 9.9765625 8.2246094 L 9.9765625 7.3554688 L 9.25 7.3554688 z M 2.5332031 8.0292969 L 2.5332031 8.65625 L 4.453125 8.65625 L 4.453125 8.0292969 L 2.5332031 8.0292969 z M 5.4121094 8.0292969 L 5.4121094 8.65625 L 7.4882812 8.65625 L 7.4882812 8.0292969 L 5.4121094 8.0292969 z "
         transform="matrix(10.045112,0,0,10.045112,56.410047,73.817622)"
         id="rect3713" />
    </g>
  </g>
</svg>
