<?xml version="1.0" encoding="UTF-8" standalone="no"?>
<svg
   xmlns:dc="http://purl.org/dc/elements/1.1/"
   xmlns:cc="http://creativecommons.org/ns#"
   xmlns:rdf="http://www.w3.org/1999/02/22-rdf-syntax-ns#"
   xmlns:svg="http://www.w3.org/2000/svg"
   xmlns="http://www.w3.org/2000/svg"
   xmlns:sodipodi="http://sodipodi.sourceforge.net/DTD/sodipodi-0.dtd"
   xmlns:inkscape="http://www.inkscape.org/namespaces/inkscape"
   id="visual"
   viewBox="0 0 22 22"
   version="1.1"
   sodipodi:docname="star-circle.svg"
   inkscape:version="0.92.3 (2405546, 2018-03-11)">
  <metadata
     id="metadata16138">
    <rdf:RDF>
      <cc:Work
         rdf:about="">
        <dc:format>image/svg+xml</dc:format>
        <dc:type
           rdf:resource="http://purl.org/dc/dcmitype/StillImage" />
        <dc:title></dc:title>
      </cc:Work>
    </rdf:RDF>
  </metadata>
  <sodipodi:namedview
     pagecolor="#ffffff"
     bordercolor="#666666"
     borderopacity="1"
     objecttolerance="10"
     gridtolerance="10"
     guidetolerance="10"
     inkscape:pageopacity="0"
     inkscape:pageshadow="2"
     inkscape:window-width="1920"
     inkscape:window-height="1017"
     id="namedview16136"
     showgrid="false"
     inkscape:zoom="10.727273"
     inkscape:cx="-29.737288"
     inkscape:cy="11"
     inkscape:window-x="-8"
     inkscape:window-y="-8"
     inkscape:window-maximized="1"
     inkscape:current-layer="visual"
     inkscape:pagecheckerboard="true" />
  <defs
     id="defs16129">
    <style
       id="style16127">.cls-1{fill:#fa0;}.cls-2{fill:#fbfbfd;}</style>
  </defs>
  <path
     style="fill:#ffcc00;stroke-width:1.09322023;fill-opacity:1"
     d="M 11 0.068359375 A 10.932204 10.932204 0 0 0 0.068359375 11 A 10.932204 10.932204 0 0 0 11 21.931641 A 10.932204 10.932204 0 0 0 21.931641 11 A 10.932204 10.932204 0 0 0 11 0.068359375 z M 11 2.5273438 L 12.935547 8.4863281 L 19.199219 8.4863281 L 14.136719 12.169922 L 16.0625 18.126953 L 11 14.443359 L 5.9375 18.126953 L 7.8632812 12.169922 L 2.8007812 8.4863281 L 9.0644531 8.4863281 L 11 2.5273438 z "
     id="circle16131" />
  <path
     style="display:inline;fill:#fbfbfd;stroke-width:1.09322023"
     d="m 11,2.5275424 1.935,5.9580508 h 6.264153 L 14.137542,12.169746 16.06161,18.127797 11,14.443644 5.9383898,18.127797 7.8624576,12.169746 2.8008474,8.4855932 H 9.065 Z"
     id="polygon16133"
     inkscape:connector-curvature="0" />
</svg>
