<?xml version="1.0" encoding="UTF-8" standalone="no"?>
<svg
   xmlns:dc="http://purl.org/dc/elements/1.1/"
   xmlns:cc="http://creativecommons.org/ns#"
   xmlns:rdf="http://www.w3.org/1999/02/22-rdf-syntax-ns#"
   xmlns:svg="http://www.w3.org/2000/svg"
   xmlns="http://www.w3.org/2000/svg"
   xmlns:sodipodi="http://sodipodi.sourceforge.net/DTD/sodipodi-0.dtd"
   xmlns:inkscape="http://www.inkscape.org/namespaces/inkscape"
   id="visual"
   viewBox="0 0 22 22"
   version="1.1"
   sodipodi:docname="star-square.svg"
   inkscape:version="0.92.3 (2405546, 2018-03-11)">
  <metadata
     id="metadata21">
    <rdf:RDF>
      <cc:Work
         rdf:about="">
        <dc:format>image/svg+xml</dc:format>
        <dc:type
           rdf:resource="http://purl.org/dc/dcmitype/StillImage" />
        <dc:title>dontcare</dc:title>
      </cc:Work>
    </rdf:RDF>
  </metadata>
  <sodipodi:namedview
     pagecolor="#ffffff"
     bordercolor="#666666"
     borderopacity="1"
     objecttolerance="10"
     gridtolerance="10"
     guidetolerance="10"
     inkscape:pageopacity="0"
     inkscape:pageshadow="2"
     inkscape:window-width="1920"
     inkscape:window-height="1017"
     id="namedview19"
     showgrid="false"
     inkscape:zoom="21.454545"
     inkscape:cx="5.7605288"
     inkscape:cy="10.983064"
     inkscape:window-x="-8"
     inkscape:window-y="-8"
     inkscape:window-maximized="1"
     inkscape:current-layer="visual"
     inkscape:pagecheckerboard="true" />
  <defs
     id="defs4">
    <style
       id="style2">.cls-1{fill:#cfd1d2;}.cls-2{fill:none;stroke:#e4246f;stroke-miterlimit:10;stroke-width:2px;}</style>
  </defs>
  <title
     id="title6">dontcare</title>
  <path
     id="line16"
     style="color:#000000;font-style:normal;font-variant:normal;font-weight:normal;font-stretch:normal;font-size:medium;line-height:normal;font-family:sans-serif;font-variant-ligatures:normal;font-variant-position:normal;font-variant-caps:normal;font-variant-numeric:normal;font-variant-alternates:normal;font-feature-settings:normal;text-indent:0;text-align:start;text-decoration:none;text-decoration-line:none;text-decoration-style:solid;text-decoration-color:#000000;letter-spacing:normal;word-spacing:normal;text-transform:none;writing-mode:lr-tb;direction:ltr;text-orientation:mixed;dominant-baseline:auto;baseline-shift:baseline;text-anchor:start;white-space:normal;shape-padding:0;clip-rule:nonzero;display:inline;overflow:visible;visibility:visible;opacity:1;isolation:auto;mix-blend-mode:normal;color-interpolation:sRGB;color-interpolation-filters:linearRGB;solid-color:#000000;solid-opacity:1;vector-effect:none;fill:#e4246f;fill-opacity:1;fill-rule:nonzero;stroke:none;stroke-width:3.13196135px;stroke-linecap:butt;stroke-linejoin:miter;stroke-miterlimit:10;stroke-dasharray:none;stroke-dashoffset:0;stroke-opacity:1;color-rendering:auto;image-rendering:auto;shape-rendering:auto;text-rendering:auto;enable-background:accumulate"
     d="M 6.6113281,4.3964844 4.3964844,6.6113281 15.482422,17.697266 17.697266,15.482422 Z m 8.8710939,0 L 4.3964844,15.482422 6.6113281,17.697266 17.697266,6.6113281 Z M 3.2167969,9.4804688 V 12.613281 H 18.876953 V 9.4804688 Z M 9.4804688,3.2167969 V 18.876953 H 12.613281 V 3.2167969 Z"
     inkscape:connector-curvature="0" />
  <path
     style="fill:#cfd1d2;stroke-width:1.56598067"
     d="M 2.0839844 0.083984375 C 0.97598433 0.083984375 0.083984375 0.97598433 0.083984375 2.0839844 L 0.083984375 20.007812 C 0.083984375 21.115813 0.97598433 22.007812 2.0839844 22.007812 L 20.007812 22.007812 C 21.115813 22.007812 22.007812 21.115813 22.007812 20.007812 L 22.007812 2.0839844 C 22.007812 0.97598433 21.115813 0.083984375 20.007812 0.083984375 L 2.0839844 0.083984375 z M 9.4804688 3.2167969 L 12.613281 3.2167969 L 12.613281 7.265625 L 15.482422 4.3964844 L 17.697266 6.6113281 L 14.828125 9.4804688 L 18.876953 9.4804688 L 18.876953 12.613281 L 14.828125 12.613281 L 17.697266 15.482422 L 15.482422 17.697266 L 12.613281 14.828125 L 12.613281 18.876953 L 9.4804688 18.876953 L 9.4804688 14.828125 L 6.6113281 17.697266 L 4.3964844 15.482422 L 7.265625 12.613281 L 3.2167969 12.613281 L 3.2167969 9.4804688 L 7.265625 9.4804688 L 4.3964844 6.6113281 L 6.6113281 4.3964844 L 9.4804688 7.265625 L 9.4804688 3.2167969 z "
     id="rect8" />
</svg>
