<?xml version="1.0" encoding="UTF-8" standalone="no"?>
<svg
   xmlns:dc="http://purl.org/dc/elements/1.1/"
   xmlns:cc="http://creativecommons.org/ns#"
   xmlns:rdf="http://www.w3.org/1999/02/22-rdf-syntax-ns#"
   xmlns:svg="http://www.w3.org/2000/svg"
   xmlns="http://www.w3.org/2000/svg"
   xmlns:sodipodi="http://sodipodi.sourceforge.net/DTD/sodipodi-0.dtd"
   xmlns:inkscape="http://www.inkscape.org/namespaces/inkscape"
   id="visual"
   viewBox="0 0 22 22"
   version="1.1"
   sodipodi:docname="target-qualitative.svg"
   inkscape:version="0.92.3 (2405546, 2018-03-11)">
  <metadata
     id="metadata17">
    <rdf:RDF>
      <cc:Work
         rdf:about="">
        <dc:format>image/svg+xml</dc:format>
        <dc:type
           rdf:resource="http://purl.org/dc/dcmitype/StillImage" />
        <dc:title />
      </cc:Work>
    </rdf:RDF>
  </metadata>
  <sodipodi:namedview
     pagecolor="#ffffff"
     bordercolor="#666666"
     borderopacity="1"
     objecttolerance="10"
     gridtolerance="10"
     guidetolerance="10"
     inkscape:pageopacity="0"
     inkscape:pageshadow="2"
     inkscape:window-width="1680"
     inkscape:window-height="987"
     id="namedview15"
     showgrid="false"
     inkscape:zoom="22.627417"
     inkscape:cx="12.209552"
     inkscape:cy="10.642098"
     inkscape:window-x="1912"
     inkscape:window-y="-8"
     inkscape:window-maximized="1"
     inkscape:current-layer="visual"
     inkscape:pagecheckerboard="true" />
  <defs
     id="defs4">
    <style
       id="style2">.cls-1{fill:none;stroke-width:2px;}.cls-1,.cls-3{stroke:#4c4c4c;stroke-miterlimit:10;}.cls-2{fill:#4c4c4c;}.cls-3{fill:#fbfbfd;}.cls-4{fill:#bb0a30;}</style>
  </defs>
  <path
     inkscape:connector-curvature="0"
     id="circle10-1-5"
     style="color:#000000;font-style:normal;font-variant:normal;font-weight:normal;font-stretch:normal;font-size:medium;line-height:normal;font-family:sans-serif;font-variant-ligatures:normal;font-variant-position:normal;font-variant-caps:normal;font-variant-numeric:normal;font-variant-alternates:normal;font-feature-settings:normal;text-indent:0;text-align:start;text-decoration:none;text-decoration-line:none;text-decoration-style:solid;text-decoration-color:#000000;letter-spacing:normal;word-spacing:normal;text-transform:none;writing-mode:lr-tb;direction:ltr;text-orientation:mixed;dominant-baseline:auto;baseline-shift:baseline;text-anchor:start;white-space:normal;shape-padding:0;clip-rule:nonzero;display:inline;overflow:visible;visibility:visible;opacity:1;isolation:auto;mix-blend-mode:normal;color-interpolation:sRGB;color-interpolation-filters:linearRGB;solid-color:#000000;solid-opacity:1;vector-effect:none;fill:#008fb8;fill-opacity:1;fill-rule:nonzero;stroke:none;stroke-width:1.04680884;stroke-linecap:butt;stroke-linejoin:miter;stroke-miterlimit:10;stroke-dasharray:none;stroke-dashoffset:0;stroke-opacity:1;color-rendering:auto;image-rendering:auto;shape-rendering:auto;text-rendering:auto;enable-background:accumulate"
     d="M 6.542969,-4.9999998e-8 C 2.935815,-1.1e-7 1e-7,2.9358148 2e-7,6.5429688 0,10.150123 2.9358149,13.085938 6.542969,13.085938 c 3.607154,0 6.542969,-2.935815 6.542969,-6.5429692 C 13.085938,2.9358147 10.150123,-2.3e-7 6.542969,-4.9999998e-8 Z M 6.542969,1.046875 c 3.041416,-2e-7 5.496094,2.4546772 5.496093,5.4960938 1e-6,3.0414166 -2.454676,5.4960942 -5.496093,5.4960932 -3.0414166,1e-6 -5.496094,-2.4546767 -5.4960938,-5.4960932 0,-3.0414165 2.4546773,-5.4960939 5.4960938,-5.4960938 z m 4.972656,0 c -0.716375,0 -1.415348,0.072948 -2.091797,0.2109375 A 6.0191507,6.0191507 0 0 1 11.5,3.140625 c 0.0053,-9.6e-6 0.01036,0 0.01563,0 4.637492,0 8.373047,3.7375083 8.373047,8.375 0,4.637492 -3.735555,8.373047 -8.373047,8.373047 -4.6374915,0 -8.3749998,-3.735555 -8.3749998,-8.373047 0,-0.0026 -2.4e-6,-0.0052 0,-0.0078 A 6.0191507,6.0191507 0 0 1 1.2597658,9.4140625 C 1.1204896,10.093515 1.0468752,10.795831 1.0468752,11.515625 c 0,5.768967 4.6997833,10.466797 10.4687498,10.466797 5.768967,0 10.466797,-4.69783 10.466797,-10.466797 0,-5.7689667 -4.69783,-10.46875 -10.466797,-10.46875 z m 0.912109,4.2617188 A 6.0191507,6.0191507 0 0 1 12.5625,6.5429688 6.0191507,6.0191507 0 0 1 6.542969,12.5625 6.0191507,6.0191507 0 0 1 5.308594,12.431641 a 6.2808523,6.2808523 0 0 0 6.207031,5.363281 6.2808523,6.2808523 0 0 0 6.279297,-6.279297 6.2808523,6.2808523 0 0 0 -5.367188,-6.2070312 z" />
  <path
     style="display:inline;fill:#fbfbfd;stroke:none;stroke-width:1.04680884;stroke-miterlimit:10;stroke-opacity:1"
     d="m 6.5429688,1.046875 c -3.0414165,-1e-7 -5.4960938,2.4546773 -5.4960938,5.4960938 -2e-7,3.0414165 2.4546772,5.4960942 5.4960938,5.4960932 3.0414165,1e-6 5.4960942,-2.4546767 5.4960932,-5.4960932 1e-6,-3.0414166 -2.4546768,-5.496094 -5.4960932,-5.4960938 z"
     id="circle10-0"
     inkscape:connector-curvature="0" />
  <path
     inkscape:connector-curvature="0"
     id="path14"
     d="m 7.09875,6.3575 h 3.73 v 1 h -3.73 z m -2.39,-1.6 v 1.51 h 1.51 v 0.83 h -1.51 v 1.52 h -0.83 v -1.52 h -1.52 v -0.83 h 1.52 v -1.51 z"
     style="fill:#008fb8;fill-opacity:1" />
</svg>
