<?xml version="1.0" encoding="UTF-8" standalone="no"?>
<svg
   xmlns:dc="http://purl.org/dc/elements/1.1/"
   xmlns:cc="http://creativecommons.org/ns#"
   xmlns:rdf="http://www.w3.org/1999/02/22-rdf-syntax-ns#"
   xmlns:svg="http://www.w3.org/2000/svg"
   xmlns="http://www.w3.org/2000/svg"
   xmlns:sodipodi="http://sodipodi.sourceforge.net/DTD/sodipodi-0.dtd"
   xmlns:inkscape="http://www.inkscape.org/namespaces/inkscape"
   id="visual"
   viewBox="0 0 22 22"
   version="1.1"
   sodipodi:docname="configure_path.svg"
   inkscape:version="0.92.3 (2405546, 2018-03-11)">
  <metadata
     id="metadata12316">
    <rdf:RDF>
      <cc:Work
         rdf:about="">
        <dc:format>image/svg+xml</dc:format>
        <dc:type
           rdf:resource="http://purl.org/dc/dcmitype/StillImage" />
        <dc:title />
      </cc:Work>
    </rdf:RDF>
  </metadata>
  <sodipodi:namedview
     pagecolor="#ffffff"
     bordercolor="#666666"
     borderopacity="1"
     objecttolerance="10"
     gridtolerance="10"
     guidetolerance="10"
     inkscape:pageopacity="0"
     inkscape:pageshadow="2"
     inkscape:window-width="1920"
     inkscape:window-height="1017"
     id="namedview12314"
     showgrid="false"
     inkscape:zoom="22.627417"
     inkscape:cx="2.397054"
     inkscape:cy="11.609834"
     inkscape:window-x="-8"
     inkscape:window-y="-8"
     inkscape:window-maximized="1"
     inkscape:current-layer="visual" />
  <defs
     id="defs12307">
    <style
       id="style12305">.cls-1{fill:#d9d9d9;stroke:#d9d9d9;stroke-miterlimit:10;stroke-width:0.5px;}</style>
  </defs>
  <path
     style="fill:#008fb8;fill-opacity:1;stroke:#008fb8;stroke-width:0.124;stroke-opacity:1;stroke-miterlimit:4;stroke-dasharray:none"
     d="M 5.0683594 0.05078125 L 4.9453125 0.17382812 L 4.1816406 0.93554688 L 6.5917969 3.34375 L 6.0117188 5.6660156 L 3.7285156 6.2832031 L 1.3203125 3.875 L 0.45507812 4.7597656 L 0.49804688 4.9199219 C 0.79037651 6.0110513 1.2529516 7.0493459 1.8691406 7.9960938 L 1.8847656 8.0195312 L 1.90625 8.0429688 C 3.2652476 9.4066848 5.3157053 9.6924893 7.046875 8.8925781 L 9.8476562 11.720703 L 8.8847656 12.685547 L 8.4472656 12.8125 L 7.9609375 12.326172 L 7.9589844 12.324219 C 7.7478047 12.126497 7.439695 12.110897 7.2207031 12.228516 C 7.0017109 12.346138 6.84631 12.61124 6.8945312 12.896484 L 6.8925781 12.880859 C 6.9356141 13.249246 6.7929122 13.615271 6.5136719 13.859375 L 6.5058594 13.865234 L 6.4980469 13.875 C 6.3096064 14.067693 6.0526702 14.177634 5.7832031 14.181641 L 5.78125 14.181641 C 5.341307 14.190941 4.9220452 14.364367 4.6035156 14.667969 L 4.6015625 14.669922 L 0.90039062 18.326172 C 0.79772513 18.42736 0.72993271 18.560156 0.7109375 18.703125 L 0.7109375 18.708984 L 0.62695312 19.640625 C 0.60925133 19.823435 0.67107478 20.005 0.79492188 20.140625 L 0.79882812 20.146484 L 2.4394531 21.775391 L 2.4296875 21.763672 C 2.5486708 21.897243 2.7216097 21.9708 2.9003906 21.964844 L 2.9375 21.964844 L 3.8574219 21.871094 C 4.0154233 21.861394 4.1652712 21.797185 4.28125 21.689453 L 4.2851562 21.685547 L 7.9570312 17.980469 L 7.9589844 17.978516 C 8.2614151 17.655277 8.4337994 17.229666 8.4433594 16.787109 L 8.4433594 16.785156 C 8.4473694 16.515696 8.5592797 16.258741 8.7519531 16.070312 C 9.0135532 15.815319 9.3763941 15.696154 9.7382812 15.746094 L 9.6933594 15.736328 C 9.9761051 15.822808 10.28481 15.692682 10.419922 15.429688 L 10.419922 15.427734 L 10.419922 15.425781 C 10.543128 15.180215 10.503165 14.883143 10.316406 14.681641 L 10.310547 14.675781 L 9.8066406 14.179688 L 9.9023438 13.748047 L 10.884766 12.767578 L 19.117188 21.076172 C 19.407044 21.370625 19.805599 21.535582 20.21875 21.533203 C 20.627766 21.536803 21.022655 21.380569 21.314453 21.09375 L 21.316406 21.091797 L 21.316406 21.089844 C 21.914185 20.486762 21.918904 19.508375 21.328125 18.898438 L 21.328125 18.896484 L 13.076172 10.574219 L 18.865234 4.7871094 L 20.050781 4.40625 L 21.396484 2.484375 L 20.800781 1.7949219 L 20.169922 1.1621094 L 18.230469 2.5195312 L 17.851562 3.703125 L 12.035156 9.5273438 L 9.2402344 6.7089844 C 10.036704 4.973824 9.7526504 2.9217603 8.3945312 1.5546875 L 8.3691406 1.53125 L 8.3417969 1.5136719 C 7.3710098 0.91332393 6.3291978 0.43733946 5.2382812 0.1015625 L 5.0683594 0.05078125 z M 5.2148438 0.72460938 C 5.236047 0.73143567 5.2561738 0.74112256 5.2773438 0.74804688 L 5.5996094 0.86328125 C 5.7746801 0.92555372 5.9375588 1.0003073 6.1074219 1.0683594 C 6.4210005 1.1937436 6.7286258 1.3289665 7.03125 1.4785156 C 7.2316928 1.5774082 7.4381187 1.6726046 7.6269531 1.7792969 C 7.7108922 1.8267229 7.733669 1.8451023 7.7871094 1.8769531 C 7.8545709 1.9164782 7.9274467 1.9454215 7.9941406 1.9863281 C 8.052458 2.0457873 8.098301 2.1135215 8.1523438 2.1757812 C 8.1691317 2.1954857 8.1791173 2.2005405 8.1992188 2.2246094 C 8.2128405 2.2409197 8.2229962 2.2589301 8.2363281 2.2753906 C 8.3431763 2.4067575 8.4409629 2.542158 8.5292969 2.6835938 C 8.5433111 2.7059499 8.5548205 2.7293973 8.5683594 2.7519531 C 8.6547108 2.8964401 8.7337357 3.0427437 8.8007812 3.1953125 C 8.8154019 3.2283701 8.8281128 3.2615662 8.8417969 3.2949219 C 8.9021344 3.4428428 8.9558589 3.592847 8.9980469 3.7460938 C 9.0060933 3.7752991 9.0121645 3.8046294 9.0195312 3.8339844 C 9.2479026 4.74291 9.1597761 5.7195076 8.7207031 6.5976562 C 8.706993 6.6250767 8.6999369 6.6544263 8.6855469 6.6816406 L 8.5898438 6.8671875 L 8.890625 7.1777344 L 11.376953 9.6835938 L 12.039062 10.34375 L 18.361328 4.015625 L 18.724609 2.8789062 L 20.103516 1.9179688 L 20.375 2.1875 L 20.662109 2.5214844 L 19.689453 3.9140625 L 18.552734 4.2773438 L 14.554688 8.2773438 C 13.479234 9.3556512 12.266402 10.573571 12.267578 10.582031 L 20.916016 19.302734 C 21.024582 19.415457 21.0921 19.548509 21.136719 19.6875 C 21.143608 19.711113 21.14935 19.744223 21.152344 19.767578 C 21.185671 19.912182 21.185439 20.058489 21.152344 20.203125 C 21.150523 20.215361 21.145179 20.234755 21.142578 20.246094 C 21.099147 20.403042 21.030803 20.554793 20.908203 20.679688 C 20.842287 20.74448 20.75955 20.785089 20.679688 20.828125 C 20.665428 20.836085 20.655313 20.850209 20.640625 20.857422 C 20.636697 20.859351 20.63462 20.859505 20.630859 20.861328 C 20.595632 20.877619 20.560378 20.888474 20.523438 20.900391 C 20.499396 20.907059 20.458298 20.914932 20.427734 20.917969 C 20.359212 20.932566 20.293905 20.957874 20.222656 20.957031 L 20.21875 20.957031 L 20.216797 20.957031 C 20.146547 20.957576 20.08119 20.930602 20.013672 20.916016 C 19.980899 20.912769 19.933804 20.90454 19.908203 20.896484 C 19.870143 20.88363 19.834958 20.869126 19.798828 20.851562 C 19.794186 20.849157 19.792029 20.850227 19.787109 20.847656 C 19.786126 20.847142 19.774471 20.836508 19.773438 20.835938 C 19.686528 20.790263 19.601402 20.741369 19.53125 20.669922 L 11.787109 12.857422 C 12.381869 13.453541 13.362056 14.438837 15.271484 16.365234 C 19.056267 20.183651 19.636202 20.760165 19.773438 20.835938 C 19.782252 20.84057 19.789878 20.847211 19.798828 20.851562 C 19.843327 20.874624 19.874636 20.885923 19.908203 20.896484 C 19.94196 20.907885 19.978727 20.908466 20.013672 20.916016 C 20.064737 20.921074 20.113913 20.925781 20.21875 20.925781 C 20.322975 20.925781 20.375573 20.923152 20.427734 20.917969 C 20.459671 20.911165 20.492454 20.910385 20.523438 20.900391 C 20.557257 20.891011 20.58997 20.881151 20.630859 20.861328 C 20.648676 20.853089 20.662385 20.837449 20.679688 20.828125 C 20.852571 20.731613 20.997525 20.586809 21.083984 20.404297 C 21.116141 20.336419 21.131407 20.2948 21.142578 20.246094 C 21.146517 20.23186 21.149058 20.217485 21.152344 20.203125 C 21.160296 20.149697 21.162109 20.090371 21.162109 19.982422 C 21.162109 19.893527 21.160582 19.831853 21.152344 19.767578 C 21.146203 19.740934 21.145121 19.713674 21.136719 19.6875 C 21.066027 19.445196 20.756884 19.145841 19.388672 17.767578 C 18.50578 16.878201 17.143337 15.504873 16.361328 14.716797 C 15.579318 13.92872 14.339474 12.68115 13.605469 11.943359 C 12.871464 11.205567 12.269025 10.593884 12.265625 10.583984 C 12.265623 10.583978 12.267579 10.582038 12.267578 10.582031 L 12.259766 10.574219 L 14.554688 8.2773438 C 14.957696 7.8732658 14.939615 7.8861231 15.412109 7.4140625 L 18.552734 4.2773438 L 18.566406 4.2636719 L 19.091797 4.0996094 C 19.381433 4.0092849 19.643918 3.9169173 19.673828 3.8945312 C 19.703743 3.8721445 19.9361 3.5541676 20.191406 3.1875 L 20.65625 2.5214844 L 20.476562 2.3183594 C 20.37819 2.2067922 20.253579 2.0716672 20.199219 2.0195312 L 20.101562 1.9257812 L 19.421875 2.4003906 C 18.905093 2.761085 18.735771 2.8911486 18.712891 2.9472656 C 18.69635 2.987839 18.611231 3.2448954 18.525391 3.5175781 L 18.369141 4.0136719 L 15.205078 7.1777344 L 12.039062 10.34375 L 12.035156 10.347656 L 11.376953 9.6835938 L 10.873047 9.1816406 C 10.23227 8.5417855 9.4558448 7.7580788 9.1484375 7.4414062 L 8.890625 7.1777344 L 8.5878906 6.8710938 L 8.5898438 6.8671875 L 8.7207031 6.5976562 C 9.1538099 5.7064006 9.2458132 4.7356703 9.0195312 3.8339844 C 9.0121803 3.8047275 9.0060583 3.7751952 8.9980469 3.7460938 C 8.9558427 3.5929091 8.9025947 3.4431193 8.8417969 3.2949219 C 8.8282472 3.261704 8.8152375 3.2282092 8.8007812 3.1953125 C 8.7336819 3.0435992 8.6550664 2.896408 8.5683594 2.7519531 C 8.5548561 2.7293588 8.5432677 2.7059632 8.5292969 2.6835938 C 8.441387 2.5433552 8.3428374 2.4068939 8.2363281 2.2753906 C 8.2089994 2.2417907 8.1808711 2.208646 8.1523438 2.1757812 C 8.0468745 2.0519894 7.9435289 1.9701803 7.7871094 1.8769531 C 7.5409299 1.7327189 7.2867631 1.6047837 7.03125 1.4785156 C 6.7340565 1.3318891 6.4263984 1.1961507 6.1074219 1.0683594 C 5.8320017 0.9582328 5.5595345 0.84034667 5.2773438 0.74804688 L 5.2207031 0.72851562 L 5.1152344 0.83398438 L 5.0078125 0.9375 L 6.1230469 2.0546875 L 7.2402344 3.1699219 L 6.8691406 4.65625 L 6.4960938 6.1425781 L 6.4199219 6.1640625 C 6.3777767 6.17556 5.7165368 6.3538715 4.9511719 6.5605469 L 3.5605469 6.9375 L 3.5566406 6.9316406 L 6.4921875 6.1367188 L 7.2324219 3.1679688 L 5.0039062 0.93554688 L 5.2148438 0.72460938 z M 1.3242188 4.7011719 L 1.3359375 4.7128906 L 1.2363281 4.8085938 C 1.1821501 4.8614972 1.1386719 4.9178368 1.1386719 4.9335938 C 1.1386719 4.9493507 1.1849279 5.1038672 1.2402344 5.2773438 C 1.4540089 5.9478763 1.8145954 6.7599995 2.1425781 7.3125 C 2.1483432 7.3223114 2.1543545 7.3320055 2.1601562 7.3417969 C 2.3494812 7.6549261 2.5657152 7.8735812 2.9316406 8.1171875 C 3.1465002 8.2602253 3.3751277 8.3821066 3.6152344 8.4824219 C 3.842412 8.5773355 4.0809141 8.6506202 4.3300781 8.7070312 C 4.3509104 8.7114353 4.3716824 8.7166336 4.3925781 8.7207031 C 4.6032347 8.7654469 4.7127787 8.7753906 5.15625 8.7753906 C 5.5995177 8.7753906 5.7092839 8.7669404 5.9160156 8.7226562 C 5.9573843 8.7145402 5.9978602 8.7008677 6.0390625 8.6914062 C 6.3540291 8.6153641 6.6314302 8.5205176 6.9257812 8.375 L 7.2148438 8.2324219 L 8.9335938 9.96875 C 9.4947865 10.535437 9.640629 10.684069 9.9550781 11.003906 L 10.664062 11.720703 L 9.7363281 12.652344 L 9.1875 13.207031 L 8.734375 13.337891 L 8.2832031 13.470703 L 7.9101562 13.099609 C 7.6936337 12.883426 7.5255686 12.734341 7.5097656 12.744141 C 7.4932566 12.754344 7.4826791 12.843467 7.4824219 12.972656 C 7.4822961 13.035593 7.4702565 13.092458 7.4648438 13.152344 C 7.4614919 13.191826 7.4592153 13.230552 7.453125 13.269531 C 7.4374846 13.371304 7.4114578 13.468609 7.3789062 13.5625 C 7.370904 13.585546 7.3683612 13.610133 7.359375 13.632812 C 7.3112625 13.753468 7.2522606 13.868255 7.1738281 13.978516 C 7.1040363 14.076629 7.0205192 14.171609 6.9257812 14.263672 C 6.9214071 14.267922 6.9164904 14.269244 6.9121094 14.273438 C 6.9075976 14.277513 6.9049512 14.283077 6.9003906 14.287109 C 6.7910508 14.396936 6.6646337 14.483046 6.53125 14.556641 C 6.5040994 14.571925 6.4767498 14.588168 6.4492188 14.601562 C 6.3157826 14.665369 6.1741265 14.709732 6.0273438 14.734375 C 6.0212077 14.73526 6.0159239 14.739426 6.0097656 14.740234 C 5.9250925 14.75135 5.7999416 14.768326 5.7011719 14.78125 C 5.6698523 14.784434 5.6402003 14.793195 5.609375 14.798828 C 5.5020124 14.81681 5.3994588 14.845441 5.2910156 14.898438 C 5.2257181 14.93132 5.1659269 14.972871 5.1074219 15.017578 C 4.8910733 15.195467 4.3245903 15.758494 1.96875 18.091797 L 1.2949219 18.759766 L 1.2519531 19.240234 L 1.2089844 19.710938 C 1.2096473 19.716604 1.2127877 19.721309 1.2148438 19.726562 L 2.0371094 20.550781 C 2.4927508 21.00657 2.876494 21.378906 2.890625 21.378906 C 2.9047555 21.378906 3.1304705 21.356968 3.3925781 21.330078 L 3.8417969 21.283203 C 3.8560339 21.27936 3.8715394 21.277073 3.8828125 21.267578 L 4.2871094 20.859375 C 4.5165118 20.626935 5.3613498 19.772778 6.1640625 18.962891 C 7.4536342 17.661794 7.6054292 17.499449 7.6875 17.345703 C 7.6967118 17.329708 7.7083339 17.315202 7.7167969 17.298828 C 7.7565505 17.217589 7.7848429 17.146418 7.8066406 17.0625 C 7.8129068 17.039427 7.8154124 17.015648 7.8203125 16.992188 C 7.8397131 16.900988 7.8561176 16.803161 7.8730469 16.646484 C 7.8754738 16.624025 7.8831821 16.603923 7.8867188 16.580078 C 7.8980238 16.498957 7.9161241 16.419709 7.9394531 16.341797 C 7.948102 16.310722 7.9521344 16.265592 7.9609375 16.242188 C 7.9668727 16.226409 7.9778992 16.212848 7.984375 16.197266 C 8.0271766 16.09172 8.0800151 15.99093 8.1445312 15.896484 C 8.0786775 15.990514 8.0279291 16.092462 7.984375 16.197266 C 7.9654447 16.243946 7.9539251 16.293465 7.9394531 16.341797 C 7.9187395 16.41622 7.8994499 16.494241 7.8867188 16.580078 C 7.8776162 16.645396 7.8662249 16.710727 7.8652344 16.777344 C 7.8635069 16.851823 7.835329 16.920292 7.8203125 16.992188 C 7.8159267 17.012804 7.8115428 17.043627 7.8066406 17.0625 C 7.7841555 17.145293 7.7561586 17.222672 7.7167969 17.298828 C 7.7138853 17.304778 7.7139817 17.310321 7.7109375 17.316406 C 7.7078198 17.322638 7.6908217 17.33948 7.6875 17.345703 C 7.641089 17.426289 7.6016797 17.511065 7.5371094 17.580078 L 7.5429688 17.576172 L 3.8867188 21.265625 C 3.8856428 21.266625 3.8839316 21.266636 3.8828125 21.267578 L 3.8691406 21.28125 L 3.8417969 21.283203 C 3.8341441 21.285269 3.828249 21.292486 3.8203125 21.292969 L 3.8164062 21.292969 L 2.9101562 21.384766 L 2.8847656 21.384766 L 2.8789062 21.384766 C 2.8718262 21.385003 2.8660371 21.382153 2.8613281 21.376953 L 2.8554688 21.371094 L 1.2226562 19.748047 C 1.2173656 19.7419 1.217661 19.733761 1.2148438 19.726562 L 1.2089844 19.720703 L 1.2089844 19.710938 C 1.2084202 19.706115 1.2045904 19.702304 1.2050781 19.697266 L 1.2050781 19.695312 L 1.2851562 18.779297 L 1.2851562 18.777344 C 1.2862207 18.770704 1.2919483 18.765812 1.2949219 18.759766 C 1.2985408 18.752407 1.3007795 18.744029 1.3066406 18.738281 L 5.0019531 15.087891 C 5.0330799 15.058223 5.0735384 15.043471 5.1074219 15.017578 C 5.1876494 14.951612 5.2328271 14.926253 5.2851562 14.900391 C 5.2871685 14.899396 5.2890081 14.899419 5.2910156 14.898438 C 5.3918682 14.847651 5.4978004 14.819218 5.609375 14.798828 C 5.6225001 14.79663 5.6351169 14.78885 5.6484375 14.787109 C 5.6629928 14.785206 5.6843404 14.783452 5.7011719 14.78125 C 5.7319828 14.778118 5.7598611 14.762427 5.7910156 14.761719 C 5.8709707 14.760531 5.9494961 14.747445 6.0273438 14.734375 C 6.1738292 14.713246 6.313808 14.667444 6.4492188 14.601562 C 6.4773008 14.588134 6.5039642 14.571696 6.53125 14.556641 C 6.6621007 14.482977 6.7883305 14.391916 6.9121094 14.273438 C 7.0109189 14.184193 7.0994684 14.085619 7.1738281 13.978516 C 7.2487528 13.870599 7.3113372 13.754053 7.359375 13.632812 C 7.368322 13.610375 7.370982 13.585356 7.3789062 13.5625 C 7.4120331 13.467097 7.4374562 13.369816 7.453125 13.269531 C 7.4589419 13.231681 7.461313 13.191408 7.4648438 13.152344 C 7.474319 13.040733 7.4800697 12.928068 7.4667969 12.814453 L 7.4667969 12.806641 L 7.4648438 12.798828 C 7.4575438 12.755628 7.4715338 12.751481 7.4960938 12.738281 C 7.5206507 12.725081 7.5285599 12.718117 7.5605469 12.748047 L 8.2792969 13.464844 L 9.1894531 13.199219 L 9.7363281 12.652344 L 9.9199219 12.464844 C 10.32344 12.057286 10.654297 11.720069 10.654297 11.714844 C 10.654297 11.712688 10.170686 11.223208 9.9550781 11.003906 L 7.2109375 8.2363281 L 7.0214844 8.3359375 C 6.7061858 8.5040769 6.3749834 8.6142671 6.0390625 8.6914062 C 6.0027403 8.7001755 5.9711402 8.7125261 5.9335938 8.7207031 C 5.9286907 8.7217709 5.9208126 8.7216287 5.9160156 8.7226562 C 5.4089844 8.8221292 4.8933144 8.8182246 4.3925781 8.7207031 C 4.3866435 8.7194426 4.3771952 8.720071 4.3710938 8.71875 C 4.3568432 8.7156647 4.3442585 8.7102417 4.3300781 8.7070312 C 4.0857903 8.6553878 3.8471183 8.5794532 3.6152344 8.4824219 C 3.1492828 8.2874454 2.7125629 8.0140765 2.3378906 7.6425781 C 2.2746932 7.5446217 2.2194847 7.4419224 2.1601562 7.3417969 C 2.1578935 7.3380544 2.1545986 7.3358011 2.1523438 7.3320312 C 2.1490644 7.3265486 2.1458643 7.3180357 2.1425781 7.3125 C 1.700176 6.5595952 1.3584 5.7512155 1.1191406 4.9101562 L 1.3242188 4.7011719 z M 10.884766 11.947266 L 10.890625 11.955078 C 10.884692 11.952811 10.602777 12.231015 10.376953 12.453125 L 9.3730469 13.457031 L 9.1699219 14.369141 L 9.8886719 15.074219 C 9.90051 15.086987 9.894387 15.105077 9.8964844 15.121094 C 9.8965063 15.121587 9.9024214 15.128503 9.9023438 15.128906 C 9.9022205 15.129546 9.8966403 15.128288 9.8964844 15.128906 C 9.8968596 15.14105 9.9075326 15.152275 9.9023438 15.164062 C 9.8937737 15.180742 9.8792581 15.187121 9.8613281 15.181641 L 9.8417969 15.175781 L 9.8164062 15.171875 C 9.7294575 15.159876 9.643178 15.165028 9.5566406 15.166016 C 9.4386212 15.165664 9.3513129 15.178697 9.2675781 15.193359 C 9.1973186 15.205972 9.1266703 15.215362 9.0585938 15.236328 C 9.0148168 15.250145 8.9740825 15.269877 8.9316406 15.287109 C 8.855455 15.31723 8.7805347 15.350047 8.7089844 15.390625 C 8.6473534 15.426398 8.589919 15.469077 8.5332031 15.511719 C 8.4857793 15.546844 8.4366277 15.579053 8.3925781 15.619141 C 8.3074927 15.697424 8.2291703 15.782565 8.1621094 15.875 C 8.2170018 15.797563 8.2769033 15.723534 8.3457031 15.65625 C 8.3601671 15.642151 8.3776967 15.632684 8.3925781 15.619141 C 8.4359807 15.579208 8.4858345 15.547333 8.5332031 15.511719 C 8.5908773 15.469002 8.6470131 15.425771 8.7089844 15.390625 C 8.7802758 15.349244 8.8549841 15.318234 8.9316406 15.287109 C 8.9742304 15.270271 9.0148407 15.249803 9.0585938 15.236328 C 9.0866975 15.227458 9.1120457 15.212475 9.140625 15.205078 C 9.1800396 15.194885 9.2308106 15.199797 9.2675781 15.193359 C 9.3632623 15.176183 9.4585959 15.167134 9.5566406 15.166016 C 9.5797853 15.166085 9.5872832 15.159653 9.6132812 15.160156 C 9.8460205 15.164703 9.8888591 15.159139 9.8964844 15.128906 C 9.8964031 15.126274 9.8968253 15.123697 9.8964844 15.121094 C 9.8952875 15.094231 9.7533431 14.939702 9.5371094 14.732422 L 9.1640625 14.375 L 9.265625 13.916016 L 9.3691406 13.455078 L 10.121094 12.703125 C 10.259104 12.565041 10.264047 12.564174 10.376953 12.453125 L 10.884766 11.947266 z "
     id="path12867" />
</svg>
