<?xml version="1.0" encoding="UTF-8" standalone="no"?>
<svg
   xmlns:dc="http://purl.org/dc/elements/1.1/"
   xmlns:cc="http://creativecommons.org/ns#"
   xmlns:rdf="http://www.w3.org/1999/02/22-rdf-syntax-ns#"
   xmlns:svg="http://www.w3.org/2000/svg"
   xmlns="http://www.w3.org/2000/svg"
   xmlns:sodipodi="http://sodipodi.sourceforge.net/DTD/sodipodi-0.dtd"
   xmlns:inkscape="http://www.inkscape.org/namespaces/inkscape"
   id="visual"
   viewBox="0 0 120 120"
   version="1.1"
   sodipodi:docname="admin_simple_path.svg"
   inkscape:version="0.92.3 (2405546, 2018-03-11)">
  <metadata
     id="metadata14791">
    <rdf:RDF>
      <cc:Work
         rdf:about="">
        <dc:format>image/svg+xml</dc:format>
        <dc:type
           rdf:resource="http://purl.org/dc/dcmitype/StillImage" />
        <dc:title />
      </cc:Work>
    </rdf:RDF>
  </metadata>
  <sodipodi:namedview
     pagecolor="#ffffff"
     bordercolor="#666666"
     borderopacity="1"
     objecttolerance="10"
     gridtolerance="10"
     guidetolerance="10"
     inkscape:pageopacity="0"
     inkscape:pageshadow="2"
     inkscape:window-width="1920"
     inkscape:window-height="1017"
     id="namedview14789"
     showgrid="false"
     inkscape:zoom="3.9333333"
     inkscape:cx="67.976674"
     inkscape:cy="56.206319"
     inkscape:window-x="-8"
     inkscape:window-y="-8"
     inkscape:window-maximized="1"
     inkscape:current-layer="visual" />
  <defs
     id="defs14782">
    <style
       id="style14780">.cls-1{fill:#d9d9d9;}</style>
  </defs>
  <path
     id="path14786"
     style="fill:#008fb8;fill-opacity:1;stroke-width:1.28993094"
     d="M 116.81843,105.47855 48.206995,36.29956 A 24.212006,24.212006 0 0 0 43.950223,7.817882 C 40.802792,4.6704513 26.832837,0.07829591 26.832837,0.07829591 L 23.711204,3.199929 37.049092,16.434623 33.050305,31.139836 18.370891,35.138622 5.0459021,21.762038 1.924269,24.88367 c 0,0 3.9858868,13.31209 7.7395859,17.117386 a 24.224905,24.224905 0 0 0 28.4558781,4.269671 l 68.559857,69.191883 a 7.0963797,7.0963797 0 0 0 10.08724,-9.98406 z m -5.04363,8.86182 a 3.8697933,3.8697933 0 1 1 3.86978,-3.86979 3.8697933,3.8697933 0 0 1 -3.86978,3.86979 z m -1.03195,-104.548892 -2.57986,-2.5798633 -9.274603,6.7463393 -2.115488,6.320662 -43.857655,43.857657 -3.702103,0.915852 -3.392518,-3.37962 a 1.9348966,1.9348966 0 0 0 -3.250626,1.793005 7.8943781,7.8943781 0 0 1 -2.579863,6.862432 7.391305,7.391305 0 0 1 -5.159723,2.231582 8.3587533,8.3587533 0 0 0 -5.533806,2.257377 L 1.6017861,102.38272 a 2.0380912,2.0380912 0 0 0 -0.5546703,1.18674 l -0.5030731,5.15971 a 1.9477959,1.9477959 0 0 0 0.5546705,1.54793 l 9.1327108,9.11982 a 1.8832994,1.8832994 0 0 0 1.367328,0.56757 h 0.206389 l 5.159724,-0.50309 a 1.9735945,1.9735945 0 0 0 1.186736,-0.56757 L 45.717428,91.353817 a 8.3587533,8.3587533 0 0 0 2.205783,-5.546702 7.391305,7.391305 0 0 1 2.231582,-5.159724 7.8556801,7.8556801 0 0 1 6.836632,-2.579864 1.9348966,1.9348966 0 0 0 1.818802,-3.250626 l -3.340919,-3.431214 0.851353,-3.792398 43.857659,-43.857657 6.32066,-2.115487 6.74634,-9.274604 z M 6.1165448,107.24576 a 1.909098,1.909098 0 0 1 -1.3673268,-0.56756 1.9477959,1.9477959 0 0 1 0,-2.73465 L 32.121555,76.558309 a 1.9348966,1.9348966 0 1 1 2.734654,2.734654 L 7.4838716,106.65239 a 1.8704002,1.8704002 0 0 1 -1.3673268,0.59337 z m 5.0178322,4.91463 a 1.9219973,1.9219973 0 0 1 -1.3673274,0.56757 1.9348966,1.9348966 0 0 1 -1.367327,-3.30223 L 37.603762,80.157218 a 1.9348966,1.9348966 0 1 1 2.734653,2.734652 z M 43.976022,88.412775 16.603684,115.78511 a 1.9219973,1.9219973 0 0 1 -1.367327,0.56756 1.9735945,1.9735945 0 0 1 -1.367327,-0.56756 1.9477959,1.9477959 0 0 1 0,-2.73466 L 41.241368,85.678121 a 1.9348966,1.9348966 0 0 1 2.734654,2.734654 z"
     inkscape:connector-curvature="0" />
</svg>
