<?xml version="1.0" encoding="UTF-8" standalone="no"?>
<svg
   xmlns:dc="http://purl.org/dc/elements/1.1/"
   xmlns:cc="http://creativecommons.org/ns#"
   xmlns:rdf="http://www.w3.org/1999/02/22-rdf-syntax-ns#"
   xmlns:svg="http://www.w3.org/2000/svg"
   xmlns="http://www.w3.org/2000/svg"
   xmlns:sodipodi="http://sodipodi.sourceforge.net/DTD/sodipodi-0.dtd"
   xmlns:inkscape="http://www.inkscape.org/namespaces/inkscape"
   id="visual"
   viewBox="0 0 66 22"
   version="1.1"
   sodipodi:docname="traffic-hoizontal.svg"
   inkscape:version="0.92.3 (2405546, 2018-03-11)"
   width="66"
   height="22">
  <metadata
     id="metadata15">
    <rdf:RDF>
      <cc:Work
         rdf:about="">
        <dc:format>image/svg+xml</dc:format>
        <dc:type
           rdf:resource="http://purl.org/dc/dcmitype/StillImage" />
        <dc:title>empty_inactive</dc:title>
      </cc:Work>
    </rdf:RDF>
  </metadata>
  <sodipodi:namedview
     pagecolor="#ffffff"
     bordercolor="#666666"
     borderopacity="1"
     objecttolerance="10"
     gridtolerance="10"
     guidetolerance="10"
     inkscape:pageopacity="0"
     inkscape:pageshadow="2"
     inkscape:window-width="1680"
     inkscape:window-height="987"
     id="namedview13"
     showgrid="false"
     inkscape:zoom="15.170655"
     inkscape:cx="28.804979"
     inkscape:cy="12.095236"
     inkscape:window-x="1912"
     inkscape:window-y="-8"
     inkscape:window-maximized="1"
     inkscape:current-layer="visual"
     inkscape:pagecheckerboard="true" />
  <defs
     id="defs4">
    <style
       id="style2">.cls-1{fill:#cfd1d2;}.cls-2{fill:none;stroke:#fbfbfd;stroke-linecap:round;stroke-miterlimit:10;stroke-width:2px;}</style>
  </defs>
  <title
     id="title6">empty_inactive</title>
  <path
     style="fill:#008fb8;stroke-width:1.02851772;fill-opacity:1"
     d="M 10.539062 0.62695312 A 10.285179 10.285179 0 0 0 0.25390625 10.912109 A 10.285179 10.285179 0 0 0 10.539062 21.197266 A 10.285179 10.285179 0 0 0 20.824219 10.912109 A 10.285179 10.285179 0 0 0 10.539062 0.62695312 z M 10.539062 2.6835938 C 14.050412 2.6844538 17.183586 4.922546 18.322266 8.2441406 A 1.0288167 1.0288167 0 1 1 16.375 8.9121094 C 15.518828 6.4146084 13.179241 4.740881 10.539062 4.7402344 A 1.0286206 1.0286206 0 1 1 10.539062 2.6835938 z "
     id="circle8" />
  <path
     style="fill:#008fb8;stroke-width:1.02851772;fill-opacity:1"
     d="M 33.253906 0.80273438 A 10.285179 10.285179 0 0 0 22.96875 11.087891 A 10.285179 10.285179 0 0 0 33.253906 21.373047 A 10.285179 10.285179 0 0 0 43.539062 11.087891 A 10.285179 10.285179 0 0 0 33.253906 0.80273438 z M 33.253906 2.859375 C 36.765257 2.8602355 39.898429 5.0983273 41.037109 8.4199219 A 1.0288168 1.0288168 0 1 1 39.089844 9.0878906 C 38.233673 6.5903897 35.894085 4.9166629 33.253906 4.9160156 A 1.0286206 1.0286206 0 1 1 33.253906 2.859375 z "
     id="circle8-8" />
  <path
     style="fill:#008fb8;stroke-width:1.02851772;fill-opacity:1"
     d="M 55.707031 0.71484375 A 10.285179 10.285179 0 0 0 45.421875 11 A 10.285179 10.285179 0 0 0 55.707031 21.285156 A 10.285179 10.285179 0 0 0 65.992188 11 A 10.285179 10.285179 0 0 0 55.707031 0.71484375 z M 55.707031 2.7714844 C 59.218381 2.7723444 62.349601 5.0104371 63.488281 8.3320312 A 1.0288167 1.0288167 0 1 1 61.542969 9 C 60.686797 6.5024991 58.347209 4.8287716 55.707031 4.828125 A 1.0286206 1.0286206 0 1 1 55.707031 2.7714844 z "
     id="circle8-81" />
  <path
     id="path10-3"
     style="color:#000000;font-style:normal;font-variant:normal;font-weight:normal;font-stretch:normal;font-size:medium;line-height:normal;font-family:sans-serif;font-variant-ligatures:normal;font-variant-position:normal;font-variant-caps:normal;font-variant-numeric:normal;font-variant-alternates:normal;font-feature-settings:normal;text-indent:0;text-align:start;text-decoration:none;text-decoration-line:none;text-decoration-style:solid;text-decoration-color:#000000;letter-spacing:normal;word-spacing:normal;text-transform:none;writing-mode:lr-tb;direction:ltr;text-orientation:mixed;dominant-baseline:auto;baseline-shift:baseline;text-anchor:start;white-space:normal;shape-padding:0;clip-rule:nonzero;display:inline;overflow:visible;visibility:visible;opacity:1;isolation:auto;mix-blend-mode:normal;color-interpolation:sRGB;color-interpolation-filters:linearRGB;solid-color:#000000;solid-opacity:1;vector-effect:none;fill:#fbfbfd;fill-opacity:1;fill-rule:nonzero;stroke:none;stroke-width:2.05703545px;stroke-linecap:round;stroke-linejoin:miter;stroke-miterlimit:10;stroke-dasharray:none;stroke-dashoffset:0;stroke-opacity:1;color-rendering:auto;image-rendering:auto;shape-rendering:auto;text-rendering:auto;enable-background:accumulate"
     d="m 55.706497,2.7718576 a 1.0286206,1.0286206 0 1 0 0,2.0570358 c 2.640178,6.466e-4 4.979461,1.6728175 5.835633,4.1703184 A 1.0288167,1.0288167 0 1 0 63.48868,8.3322822 C 62.35,5.010688 59.217847,2.7727176 55.706497,2.7718576 Z m -22.451986,0.087703 a 1.0286206,1.0286206 0 1 0 0,2.057036 c 2.640179,6.473e-4 4.979462,1.6728176 5.835633,4.1703185 A 1.0288168,1.0288168 0 1 0 41.036695,8.4199854 C 39.898015,5.0983908 36.765862,2.8604211 33.254511,2.8595606 Z M 10.539416,2.6841542 a 1.0286206,1.0286206 0 1 0 0,2.0570358 c 2.640178,6.466e-4 4.979461,1.6728175 5.835633,4.1703184 a 1.0288167,1.0288167 0 1 0 1.94655,-0.6669296 C 17.182919,4.9229846 14.050766,2.6850142 10.539416,2.6841542 Z"
     inkscape:connector-curvature="0" />
</svg>
