<?xml version="1.0" encoding="UTF-8" standalone="no"?>
<svg
   xmlns:dc="http://purl.org/dc/elements/1.1/"
   xmlns:cc="http://creativecommons.org/ns#"
   xmlns:rdf="http://www.w3.org/1999/02/22-rdf-syntax-ns#"
   xmlns:svg="http://www.w3.org/2000/svg"
   xmlns="http://www.w3.org/2000/svg"
   xmlns:sodipodi="http://sodipodi.sourceforge.net/DTD/sodipodi-0.dtd"
   xmlns:inkscape="http://www.inkscape.org/namespaces/inkscape"
   id="visual"
   viewBox="0 0 22 66"
   version="1.1"
   sodipodi:docname="traffic-vertical.svg"
   inkscape:version="0.92.3 (2405546, 2018-03-11)"
   width="22"
   height="66">
  <metadata
     id="metadata15">
    <rdf:RDF>
      <cc:Work
         rdf:about="">
        <dc:format>image/svg+xml</dc:format>
        <dc:type
           rdf:resource="http://purl.org/dc/dcmitype/StillImage" />
        <dc:title>empty_inactive</dc:title>
      </cc:Work>
    </rdf:RDF>
  </metadata>
  <sodipodi:namedview
     pagecolor="#ffffff"
     bordercolor="#666666"
     borderopacity="1"
     objecttolerance="10"
     gridtolerance="10"
     guidetolerance="10"
     inkscape:pageopacity="0"
     inkscape:pageshadow="2"
     inkscape:window-width="1680"
     inkscape:window-height="987"
     id="namedview13"
     showgrid="false"
     inkscape:zoom="11.313708"
     inkscape:cx="-10.773747"
     inkscape:cy="31.346185"
     inkscape:window-x="1912"
     inkscape:window-y="-8"
     inkscape:window-maximized="1"
     inkscape:current-layer="visual"
     inkscape:pagecheckerboard="true" />
  <defs
     id="defs4">
    <style
       id="style2">.cls-1{fill:#cfd1d2;}.cls-2{fill:none;stroke:#fbfbfd;stroke-linecap:round;stroke-miterlimit:10;stroke-width:2px;}</style>
  </defs>
  <title
     id="title6">empty_inactive</title>
  <path
     style="fill:#008fb8;fill-opacity:1;stroke-width:1.03011775"
     d="M 10.978516 0.453125 A 10.301179 10.301179 0 0 0 0.67578125 10.755859 A 10.301179 10.301179 0 0 0 10.978516 21.056641 A 10.301179 10.301179 0 0 0 21.279297 10.755859 A 10.301179 10.301179 0 0 0 10.978516 0.453125 z M 10.978516 2.5136719 C 14.495329 2.5145334 17.631032 4.7572224 18.771484 8.0839844 A 1.0304172 1.0304172 0 1 1 16.822266 8.7519531 C 15.964762 6.2505671 13.622802 4.5748667 10.978516 4.5742188 A 1.0302207 1.0302207 0 1 1 10.978516 2.5136719 z "
     id="circle8-3" />
  <path
     style="fill:#008fb8;fill-opacity:1;stroke-width:1.03011775"
     d="M 11 22.574219 A 10.301179 10.301179 0 0 0 0.69921875 32.875 A 10.301179 10.301179 0 0 0 11 43.175781 A 10.301179 10.301179 0 0 0 21.300781 32.875 A 10.301179 10.301179 0 0 0 11 22.574219 z M 11 24.634766 C 14.516813 24.635627 17.654469 26.876363 18.794922 30.203125 A 1.0304172 1.0304172 0 1 1 16.84375 30.871094 C 15.986246 28.369708 13.644286 26.694006 11 26.693359 A 1.0302207 1.0302207 0 1 1 11 24.634766 z "
     id="circle8-3-6" />
  <path
     style="fill:#008fb8;fill-opacity:1;stroke-width:1.03011775"
     d="M 10.875 45.199219 A 10.301179 10.301179 0 0 0 0.57421875 55.5 A 10.301179 10.301179 0 0 0 10.875 65.800781 A 10.301179 10.301179 0 0 0 21.175781 55.5 A 10.301179 10.301179 0 0 0 10.875 45.199219 z M 10.875 47.259766 C 14.391813 47.260627 17.529469 49.501363 18.669922 52.828125 A 1.0304172 1.0304172 0 1 1 16.71875 53.496094 C 15.861246 50.994708 13.519286 49.319006 10.875 49.318359 A 1.0302207 1.0302207 0 1 1 10.875 47.259766 z "
     id="circle8-3-1" />
  <path
     id="path10-6"
     style="color:#000000;font-style:normal;font-variant:normal;font-weight:normal;font-stretch:normal;font-size:medium;line-height:normal;font-family:sans-serif;font-variant-ligatures:normal;font-variant-position:normal;font-variant-caps:normal;font-variant-numeric:normal;font-variant-alternates:normal;font-feature-settings:normal;text-indent:0;text-align:start;text-decoration:none;text-decoration-line:none;text-decoration-style:solid;text-decoration-color:#000000;letter-spacing:normal;word-spacing:normal;text-transform:none;writing-mode:lr-tb;direction:ltr;text-orientation:mixed;dominant-baseline:auto;baseline-shift:baseline;text-anchor:start;white-space:normal;shape-padding:0;clip-rule:nonzero;display:inline;overflow:visible;visibility:visible;opacity:1;isolation:auto;mix-blend-mode:normal;color-interpolation:sRGB;color-interpolation-filters:linearRGB;solid-color:#000000;solid-opacity:1;vector-effect:none;fill:#fbfbfd;fill-opacity:1;fill-rule:nonzero;stroke:none;stroke-width:2.0602355px;stroke-linecap:round;stroke-linejoin:miter;stroke-miterlimit:10;stroke-dasharray:none;stroke-dashoffset:0;stroke-opacity:1;color-rendering:auto;image-rendering:auto;shape-rendering:auto;text-rendering:auto;enable-background:accumulate"
     d="m 10.874999,47.259057 a 1.0302207,1.0302207 0 1 0 0,2.060236 c 2.644286,6.47e-4 4.987208,1.675419 5.844712,4.176805 A 1.0304172,1.0304172 0 1 0 18.66929,52.828132 C 17.528837,49.50137 14.391812,47.259918 10.874999,47.259057 Z m 0.125,-22.625 a 1.0302207,1.0302207 0 1 0 0,2.060236 c 2.644286,6.47e-4 4.987208,1.675419 5.844712,4.176805 A 1.0304172,1.0304172 0 1 0 18.79429,30.203132 C 17.653837,26.87637 14.516812,24.634918 10.999999,24.634057 Z M 10.97792,2.5140463 a 1.0302207,1.0302207 0 1 0 0,2.060236 c 2.644286,6.478e-4 4.987208,1.6754196 5.844712,4.1768057 A 1.0304172,1.0304172 0 1 0 18.772211,8.0831216 C 17.631758,4.7563595 14.494733,2.5149078 10.97792,2.5140463 Z"
     inkscape:connector-curvature="0" />
</svg>
