<?xml version="1.0" encoding="UTF-8" standalone="no"?>
<svg
   xmlns:dc="http://purl.org/dc/elements/1.1/"
   xmlns:cc="http://creativecommons.org/ns#"
   xmlns:rdf="http://www.w3.org/1999/02/22-rdf-syntax-ns#"
   xmlns:svg="http://www.w3.org/2000/svg"
   xmlns="http://www.w3.org/2000/svg"
   xmlns:sodipodi="http://sodipodi.sourceforge.net/DTD/sodipodi-0.dtd"
   xmlns:inkscape="http://www.inkscape.org/namespaces/inkscape"
   id="visual"
   viewBox="0 0 22 22"
   version="1.1"
   sodipodi:docname="type-xs.svg"
   inkscape:version="0.92.3 (2405546, 2018-03-11)">
  <metadata
     id="metadata1464">
    <rdf:RDF>
      <cc:Work
         rdf:about="">
        <dc:format>image/svg+xml</dc:format>
        <dc:type
           rdf:resource="http://purl.org/dc/dcmitype/StillImage" />
        <dc:title>xs</dc:title>
      </cc:Work>
    </rdf:RDF>
  </metadata>
  <sodipodi:namedview
     pagecolor="#ffffff"
     bordercolor="#666666"
     borderopacity="1"
     objecttolerance="10"
     gridtolerance="10"
     guidetolerance="10"
     inkscape:pageopacity="0"
     inkscape:pageshadow="2"
     inkscape:window-width="1680"
     inkscape:window-height="987"
     id="namedview1462"
     showgrid="false"
     inkscape:zoom="10.727273"
     inkscape:cx="-29.737288"
     inkscape:cy="11"
     inkscape:window-x="1912"
     inkscape:window-y="-8"
     inkscape:window-maximized="1"
     inkscape:current-layer="visual" />
  <defs
     id="defs1451">
    <style
       id="style1449">.cls-1{fill:#eaeef1;}.cls-2{fill:none;stroke:#008fb8;stroke-linecap:round;stroke-linejoin:round;stroke-width:2px;}</style>
  </defs>
  <title
     id="title1453">xs</title>
  <path
     style="fill:#eaeef1;stroke-width:1.08389831"
     d="M 7.7480469 0.16015625 C 3.5446893 0.16015625 0.16015625 3.5446893 0.16015625 7.7480469 L 0.16015625 14.251953 C 0.16015625 18.455311 3.5446893 21.839844 7.7480469 21.839844 L 14.251953 21.839844 C 18.455311 21.839844 21.839844 18.455311 21.839844 14.251953 L 21.839844 7.7480469 C 21.839844 3.5446893 18.455311 0.16015625 14.251953 0.16015625 L 7.7480469 0.16015625 z M 6.6191406 2.3164062 A 1.0840066 1.0840066 0 0 1 7.6074219 2.875 L 11 8.8125 L 14.392578 2.875 A 1.0840066 1.0840066 0 0 1 15.347656 2.3164062 A 1.0840066 1.0840066 0 0 1 16.277344 3.9511719 L 12.25 11 L 16.277344 18.048828 A 1.0847195 1.0847195 0 1 1 14.392578 19.125 L 11 13.1875 L 7.6074219 19.125 A 1.0847188 1.0847188 0 1 1 5.7226562 18.048828 L 9.75 11 L 5.7226562 3.9511719 A 1.0840066 1.0840066 0 0 1 6.6191406 2.3164062 z "
     id="rect1455" />
  <path
     id="line1459"
     style="color:#000000;font-style:normal;font-variant:normal;font-weight:normal;font-stretch:normal;font-size:medium;line-height:normal;font-family:sans-serif;font-variant-ligatures:normal;font-variant-position:normal;font-variant-caps:normal;font-variant-numeric:normal;font-variant-alternates:normal;font-feature-settings:normal;text-indent:0;text-align:start;text-decoration:none;text-decoration-line:none;text-decoration-style:solid;text-decoration-color:#000000;letter-spacing:normal;word-spacing:normal;text-transform:none;writing-mode:lr-tb;direction:ltr;text-orientation:mixed;dominant-baseline:auto;baseline-shift:baseline;text-anchor:start;white-space:normal;shape-padding:0;clip-rule:nonzero;display:inline;overflow:visible;visibility:visible;opacity:1;isolation:auto;mix-blend-mode:normal;color-interpolation:sRGB;color-interpolation-filters:linearRGB;solid-color:#000000;solid-opacity:1;vector-effect:none;fill:#008fb8;fill-opacity:1;fill-rule:nonzero;stroke:none;stroke-width:2.16779661px;stroke-linecap:round;stroke-linejoin:round;stroke-miterlimit:4;stroke-dasharray:none;stroke-dashoffset:0;stroke-opacity:1;color-rendering:auto;image-rendering:auto;shape-rendering:auto;text-rendering:auto;enable-background:accumulate"
     d="m 15.348296,2.3161116 a 1.0840066,1.0840066 0 0 0 -0.954764,0.558885 L 5.7223468,18.049573 a 1.0847188,1.0847188 0 1 0 1.88412,1.07543 L 16.277654,3.9504271 A 1.0840066,1.0840066 0 0 0 15.348296,2.3161116 Z m -8.728346,0 A 1.0840066,1.0840066 0 0 0 5.7223468,3.9504271 L 14.393532,19.125003 a 1.0847195,1.0847195 0 1 0 1.884122,-1.07543 L 7.6064668,2.8749966 A 1.0840066,1.0840066 0 0 0 6.61995,2.3161116 Z"
     inkscape:connector-curvature="0" />
</svg>
