<?xml version="1.0" encoding="UTF-8" standalone="no"?>
<svg
   xmlns:dc="http://purl.org/dc/elements/1.1/"
   xmlns:cc="http://creativecommons.org/ns#"
   xmlns:rdf="http://www.w3.org/1999/02/22-rdf-syntax-ns#"
   xmlns:svg="http://www.w3.org/2000/svg"
   xmlns="http://www.w3.org/2000/svg"
   xmlns:sodipodi="http://sodipodi.sourceforge.net/DTD/sodipodi-0.dtd"
   xmlns:inkscape="http://www.inkscape.org/namespaces/inkscape"
   id="visual"
   viewBox="0 0 22 22"
   version="1.1"
   sodipodi:docname="type-new-cp.svg"
   inkscape:version="0.92.3 (2405546, 2018-03-11)">
  <metadata
     id="metadata12592">
    <rdf:RDF>
      <cc:Work
         rdf:about="">
        <dc:format>image/svg+xml</dc:format>
        <dc:type
           rdf:resource="http://purl.org/dc/dcmitype/StillImage" />
        <dc:title />
      </cc:Work>
    </rdf:RDF>
  </metadata>
  <sodipodi:namedview
     pagecolor="#ffffff"
     bordercolor="#666666"
     borderopacity="1"
     objecttolerance="10"
     gridtolerance="10"
     guidetolerance="10"
     inkscape:pageopacity="0"
     inkscape:pageshadow="2"
     inkscape:window-width="1680"
     inkscape:window-height="987"
     id="namedview12590"
     showgrid="false"
     inkscape:zoom="21.454545"
     inkscape:cx="-11.374156"
     inkscape:cy="11.23405"
     inkscape:window-x="1912"
     inkscape:window-y="-8"
     inkscape:window-maximized="1"
     inkscape:current-layer="visual" />
  <defs
     id="defs12575">
    <style
       id="style12573">.cls-1{fill:#eaeef1;}.cls-2,.cls-3{fill:none;stroke:#bb0a30;}.cls-2{stroke-miterlimit:10;}.cls-3{stroke-linecap:round;stroke-linejoin:round;stroke-width:2px;}</style>
  </defs>
  <path
     style="fill:#eaeef1;stroke-width:1.09322035"
     d="M 7.7675781 0.11523438 C 3.5280697 0.11523438 0.11523438 3.5280697 0.11523438 7.7675781 L 0.11523438 14.326172 C 0.11523438 18.565681 3.5280697 21.978516 7.7675781 21.978516 L 14.326172 21.978516 C 18.565681 21.978516 21.978516 18.565681 21.978516 14.326172 L 21.978516 7.7675781 C 21.978516 3.5280697 18.565681 0.11523438 14.326172 0.11523438 L 7.7675781 0.11523438 z M 15.220703 2.3261719 L 16.314453 2.3261719 L 16.314453 4.2851562 L 17.697266 2.9023438 L 18.470703 3.6757812 L 17.087891 5.0585938 L 19.046875 5.0585938 L 19.046875 6.1523438 L 17.085938 6.1523438 L 18.470703 7.5371094 L 17.697266 8.3085938 L 16.314453 6.9257812 L 16.314453 8.8847656 L 15.220703 8.8847656 L 15.220703 6.9238281 L 13.835938 8.3085938 L 13.064453 7.5371094 L 14.449219 6.1523438 L 12.486328 6.1523438 L 12.486328 5.0585938 L 14.447266 5.0585938 L 13.064453 3.6757812 L 13.835938 2.9023438 L 15.220703 4.2871094 L 15.220703 2.3261719 z M 10.234375 8.8886719 C 10.483783 8.8979986 10.734074 8.9248642 10.982422 8.9707031 C 11.975812 9.1540587 12.94159 9.6353461 13.738281 10.451172 A 1.0933297 1.0933297 0 1 1 12.175781 11.976562 C 11.20079 10.978153 9.9555112 10.860359 8.8886719 11.294922 C 7.8218319 11.729485 7.0195312 12.682878 7.0195312 14.078125 C 7.0195313 15.473372 7.8218319 16.428717 8.8886719 16.863281 C 9.9555112 17.297843 11.20079 17.178096 12.175781 16.179688 A 1.0933297 1.0933297 0 1 1 13.738281 17.707031 C 12.144901 19.338683 9.8717132 19.622883 8.0644531 18.886719 C 6.2571931 18.150556 4.8320312 16.358508 4.8320312 14.078125 C 4.8320312 11.797741 6.2571931 10.005695 8.0644531 9.2695312 C 8.7421757 8.9934702 9.4861522 8.8606917 10.234375 8.8886719 z "
     id="rect12577" />
  <path
     id="path12587"
     style="color:#000000;font-style:normal;font-variant:normal;font-weight:normal;font-stretch:normal;font-size:medium;line-height:normal;font-family:sans-serif;font-variant-ligatures:normal;font-variant-position:normal;font-variant-caps:normal;font-variant-numeric:normal;font-variant-alternates:normal;font-feature-settings:normal;text-indent:0;text-align:start;text-decoration:none;text-decoration-line:none;text-decoration-style:solid;text-decoration-color:#000000;letter-spacing:normal;word-spacing:normal;text-transform:none;writing-mode:lr-tb;direction:ltr;text-orientation:mixed;dominant-baseline:auto;baseline-shift:baseline;text-anchor:start;white-space:normal;shape-padding:0;clip-rule:nonzero;display:inline;overflow:visible;visibility:visible;opacity:1;isolation:auto;mix-blend-mode:normal;color-interpolation:sRGB;color-interpolation-filters:linearRGB;solid-color:#000000;solid-opacity:1;vector-effect:none;fill:#008fb8;fill-opacity:1;fill-rule:nonzero;stroke:none;stroke-width:2.18644071px;stroke-linecap:round;stroke-linejoin:round;stroke-miterlimit:4;stroke-dasharray:none;stroke-dashoffset:0;stroke-opacity:1;color-rendering:auto;image-rendering:auto;shape-rendering:auto;text-rendering:auto;enable-background:accumulate"
     d="M 10.981975,8.9710011 C 9.9885853,8.7876455 8.9689273,8.9018468 8.0652972,9.2699286 6.2580372,10.006092 4.8326106,11.798006 4.8326106,14.07839 c 0,2.280383 1.4254266,4.072298 3.2326866,4.808461 1.8072601,0.736164 4.0798348,0.450889 5.6732148,-1.180763 a 1.0933297,1.0933297 0 1 0 -1.562963,-1.526665 c -0.974991,0.998408 -2.2192267,1.117825 -3.286066,0.683263 -1.06684,-0.434564 -1.8704317,-1.389049 -1.8704317,-2.784296 0,-1.395247 0.8035917,-2.349733 1.8704317,-2.784296 1.0668393,-0.434563 2.311075,-0.315146 3.286066,0.683263 a 1.0933297,1.0933297 0 1 0 1.562963,-1.526665 C 12.941821,9.6348662 11.975365,9.1543567 10.981975,8.9710011 Z m 2.854756,-6.068227 -0.77294,0.7729409 4.633375,4.6333753 0.772941,-0.7729409 z m 3.860435,0 -4.633375,4.6333753 0.77294,0.7729409 4.633376,-4.6333753 z m -5.209878,2.156548 V 6.1525425 H 19.04661 V 5.0593221 Z m 2.733051,-2.7330509 v 6.559322 h 1.093221 v -6.559322 z"
     inkscape:connector-curvature="0" />
</svg>
