<?xml version="1.0" encoding="UTF-8" standalone="no"?>
<svg
   xmlns:dc="http://purl.org/dc/elements/1.1/"
   xmlns:cc="http://creativecommons.org/ns#"
   xmlns:rdf="http://www.w3.org/1999/02/22-rdf-syntax-ns#"
   xmlns:svg="http://www.w3.org/2000/svg"
   xmlns="http://www.w3.org/2000/svg"
   xmlns:sodipodi="http://sodipodi.sourceforge.net/DTD/sodipodi-0.dtd"
   xmlns:inkscape="http://www.inkscape.org/namespaces/inkscape"
   id="visual"
   viewBox="0 0 22 22"
   version="1.1"
   sodipodi:docname="type-as.svg"
   inkscape:version="0.92.3 (2405546, 2018-03-11)">
  <metadata
     id="metadata5555">
    <rdf:RDF>
      <cc:Work
         rdf:about="">
        <dc:format>image/svg+xml</dc:format>
        <dc:type
           rdf:resource="http://purl.org/dc/dcmitype/StillImage" />
        <dc:title />
      </cc:Work>
    </rdf:RDF>
  </metadata>
  <sodipodi:namedview
     pagecolor="#ffffff"
     bordercolor="#666666"
     borderopacity="1"
     objecttolerance="10"
     gridtolerance="10"
     guidetolerance="10"
     inkscape:pageopacity="0"
     inkscape:pageshadow="2"
     inkscape:window-width="1680"
     inkscape:window-height="987"
     id="namedview5553"
     showgrid="false"
     inkscape:zoom="21.454545"
     inkscape:cx="8.337022"
     inkscape:cy="7.231092"
     inkscape:window-x="1912"
     inkscape:window-y="-8"
     inkscape:window-maximized="1"
     inkscape:current-layer="visual" />
  <defs
     id="defs5544">
    <style
       id="style5542">.cls-1{fill:#eaeef1;}.cls-2{fill:none;stroke:#bb0a30;stroke-linecap:round;stroke-linejoin:round;stroke-width:2px;}</style>
  </defs>
  <path
     style="fill:#eaeef1;fill-opacity:1;stroke-width:1.08855927"
     d="M 7.6875 0.068359375 C 3.466067 0.068359375 0.068359375 3.466067 0.068359375 7.6875 L 0.068359375 14.21875 C 0.068359375 18.440183 3.466067 21.839844 7.6875 21.839844 L 14.21875 21.839844 C 18.440183 21.839844 21.839844 18.440183 21.839844 14.21875 L 21.839844 7.6875 C 21.839844 3.466067 18.440183 0.068359375 14.21875 0.068359375 L 7.6875 0.068359375 z M 10.996094 2.2441406 A 1.0886681 1.0886681 0 0 1 11.941406 2.8769531 L 18.472656 17.027344 A 1.0891945 1.0891945 0 1 1 16.496094 17.941406 L 14.777344 14.21875 L 7.1289062 14.21875 L 5.4101562 17.941406 A 1.0891945 1.0891945 0 1 1 3.4335938 17.027344 L 9.9648438 2.8769531 A 1.0886681 1.0886681 0 0 1 10.996094 2.2441406 z M 10.953125 5.9316406 L 8.1328125 12.041016 L 13.773438 12.041016 L 10.953125 5.9316406 z "
     id="rect5546" />
  <path
     id="line5550"
     style="color:#000000;font-style:normal;font-variant:normal;font-weight:normal;font-stretch:normal;font-size:medium;line-height:normal;font-family:sans-serif;font-variant-ligatures:normal;font-variant-position:normal;font-variant-caps:normal;font-variant-numeric:normal;font-variant-alternates:normal;font-feature-settings:normal;text-indent:0;text-align:start;text-decoration:none;text-decoration-line:none;text-decoration-style:solid;text-decoration-color:#000000;letter-spacing:normal;word-spacing:normal;text-transform:none;writing-mode:lr-tb;direction:ltr;text-orientation:mixed;dominant-baseline:auto;baseline-shift:baseline;text-anchor:start;white-space:normal;shape-padding:0;clip-rule:nonzero;display:inline;overflow:visible;visibility:visible;opacity:1;isolation:auto;mix-blend-mode:normal;color-interpolation:sRGB;color-interpolation-filters:linearRGB;solid-color:#000000;solid-opacity:1;vector-effect:none;fill:#008fb8;fill-opacity:1;fill-rule:nonzero;stroke:none;stroke-width:2.17711854px;stroke-linecap:round;stroke-linejoin:round;stroke-miterlimit:4;stroke-dasharray:none;stroke-dashoffset:0;stroke-opacity:1;color-rendering:auto;image-rendering:auto;shape-rendering:auto;text-rendering:auto;enable-background:accumulate"
     d="m 6.5991525,12.041949 a 1.0886681,1.0886681 0 1 0 0,2.177119 h 8.7084745 a 1.0886681,1.0886681 0 1 0 0,-2.177119 z M 10.995911,2.2449152 A 1.0886681,1.0886681 0 0 0 9.964757,2.8763647 L 3.433401,17.027636 a 1.0891945,1.0891945 0 1 0 1.9772659,0.91422 L 10.95339,5.9315596 16.496113,17.941856 a 1.0891945,1.0891945 0 1 0 1.977266,-0.91422 L 11.942023,2.8763647 A 1.0886681,1.0886681 0 0 0 10.995911,2.2449152 Z"
     inkscape:connector-curvature="0" />
</svg>
