<?xml version="1.0" encoding="UTF-8" standalone="no"?>
<svg
   xmlns:dc="http://purl.org/dc/elements/1.1/"
   xmlns:cc="http://creativecommons.org/ns#"
   xmlns:rdf="http://www.w3.org/1999/02/22-rdf-syntax-ns#"
   xmlns:svg="http://www.w3.org/2000/svg"
   xmlns="http://www.w3.org/2000/svg"
   xmlns:sodipodi="http://sodipodi.sourceforge.net/DTD/sodipodi-0.dtd"
   xmlns:inkscape="http://www.inkscape.org/namespaces/inkscape"
   id="visual"
   viewBox="0 0 22 22"
   version="1.1"
   sodipodi:docname="type-cs.svg"
   inkscape:version="0.92.3 (2405546, 2018-03-11)">
  <metadata
     id="metadata10761">
    <rdf:RDF>
      <cc:Work
         rdf:about="">
        <dc:format>image/svg+xml</dc:format>
        <dc:type
           rdf:resource="http://purl.org/dc/dcmitype/StillImage" />
        <dc:title />
      </cc:Work>
    </rdf:RDF>
  </metadata>
  <sodipodi:namedview
     pagecolor="#ffffff"
     bordercolor="#666666"
     borderopacity="1"
     objecttolerance="10"
     gridtolerance="10"
     guidetolerance="10"
     inkscape:pageopacity="0"
     inkscape:pageshadow="2"
     inkscape:window-width="1680"
     inkscape:window-height="987"
     id="namedview10759"
     showgrid="false"
     inkscape:zoom="10.727273"
     inkscape:cx="-29.737288"
     inkscape:cy="11"
     inkscape:window-x="1912"
     inkscape:window-y="-8"
     inkscape:window-maximized="1"
     inkscape:current-layer="visual" />
  <defs
     id="defs10752">
    <style
       id="style10750">.cls-1{fill:#eaeef1;}.cls-2{fill:none;stroke:#bb0a30;stroke-linecap:round;stroke-linejoin:round;stroke-width:2px;}</style>
  </defs>
  <path
     style="fill:#eaeef1;stroke-width:1.09322023"
     d="M 7.7207031 0.068359375 C 3.4811947 0.068359375 0.068359375 3.4811947 0.068359375 7.7207031 L 0.068359375 14.279297 C 0.068359375 18.518805 3.4811947 21.931641 7.7207031 21.931641 L 14.279297 21.931641 C 18.518805 21.931641 21.931641 18.518805 21.931641 14.279297 L 21.931641 7.7207031 C 21.931641 3.4811947 18.518805 0.068359375 14.279297 0.068359375 L 7.7207031 0.068359375 z M 11.029297 2.2480469 C 13.226122 2.2484417 15.472128 3.0715674 17.248047 4.890625 A 1.0933296 1.0933296 0 1 1 15.685547 6.4179688 C 13.597722 4.2794286 10.830051 3.9840054 8.5175781 4.9257812 C 6.2051053 5.8675571 4.4316406 8.0117572 4.4316406 11 C 4.4316406 13.988242 6.2051053 16.132442 8.5175781 17.074219 C 10.830051 18.015994 13.597721 17.720572 15.685547 15.582031 A 1.0933296 1.0933296 0 1 1 17.248047 17.109375 C 14.541886 19.881271 10.746306 20.344904 7.6933594 19.101562 C 4.6404127 17.858223 2.2460938 14.873424 2.2460938 11 C 2.2460937 7.1265759 4.6404127 4.1417779 7.6933594 2.8984375 C 8.456596 2.5876022 9.2642107 2.3851112 10.091797 2.296875 C 10.402142 2.2637864 10.715465 2.2479905 11.029297 2.2480469 z "
     id="rect10754" />
  <path
     style="color:#000000;font-style:normal;font-variant:normal;font-weight:normal;font-stretch:normal;font-size:medium;line-height:normal;font-family:sans-serif;font-variant-ligatures:normal;font-variant-position:normal;font-variant-caps:normal;font-variant-numeric:normal;font-variant-alternates:normal;font-feature-settings:normal;text-indent:0;text-align:start;text-decoration:none;text-decoration-line:none;text-decoration-style:solid;text-decoration-color:#000000;letter-spacing:normal;word-spacing:normal;text-transform:none;writing-mode:lr-tb;direction:ltr;text-orientation:mixed;dominant-baseline:auto;baseline-shift:baseline;text-anchor:start;white-space:normal;shape-padding:0;clip-rule:nonzero;display:inline;overflow:visible;visibility:visible;opacity:1;isolation:auto;mix-blend-mode:normal;color-interpolation:sRGB;color-interpolation-filters:linearRGB;solid-color:#000000;solid-opacity:1;vector-effect:none;fill:#008fb8;fill-opacity:1;fill-rule:nonzero;stroke:none;stroke-width:2.18644047px;stroke-linecap:round;stroke-linejoin:round;stroke-miterlimit:4;stroke-dasharray:none;stroke-dashoffset:0;stroke-opacity:1;color-rendering:auto;image-rendering:auto;shape-rendering:auto;text-rendering:auto;enable-background:accumulate"
     d="M 10.092542,2.2969413 C 9.2649558,2.3851775 8.455818,2.5882313 7.6925814,2.8990666 4.6396347,4.142407 2.2456965,7.1265759 2.2456965,11 c 0,3.873424 2.3939382,6.857593 5.4468849,8.100933 3.0529466,1.243342 6.8488406,0.779759 9.5550026,-1.992137 A 1.0933296,1.0933296 0 1 0 15.68462,15.58213 C 13.596795,17.720671 10.82924,18.016408 8.516767,17.074633 6.2042942,16.132856 4.4321371,13.988242 4.4321371,11 c 0,-2.9882428 1.7721571,-5.1328567 4.0846299,-6.0746326 2.312473,-0.9417758 5.080028,-0.6460381 7.167853,1.4925021 A 1.0933296,1.0933296 0 1 0 17.247584,4.8912044 C 15.217962,2.8122814 12.5753,2.0322325 10.092542,2.2969413 Z"
     id="path10756"
     inkscape:connector-curvature="0" />
</svg>
