<?xml version="1.0" encoding="UTF-8" standalone="no"?>
<svg
   xmlns:dc="http://purl.org/dc/elements/1.1/"
   xmlns:cc="http://creativecommons.org/ns#"
   xmlns:rdf="http://www.w3.org/1999/02/22-rdf-syntax-ns#"
   xmlns:svg="http://www.w3.org/2000/svg"
   xmlns="http://www.w3.org/2000/svg"
   xmlns:sodipodi="http://sodipodi.sourceforge.net/DTD/sodipodi-0.dtd"
   xmlns:inkscape="http://www.inkscape.org/namespaces/inkscape"
   id="visual"
   viewBox="0 0 22 22"
   version="1.1"
   sodipodi:docname="type-new-bs-child.svg"
   inkscape:version="0.92.3 (2405546, 2018-03-11)">
  <metadata
     id="metadata13191">
    <rdf:RDF>
      <cc:Work
         rdf:about="">
        <dc:format>image/svg+xml</dc:format>
        <dc:type
           rdf:resource="http://purl.org/dc/dcmitype/StillImage" />
        <dc:title />
      </cc:Work>
    </rdf:RDF>
  </metadata>
  <sodipodi:namedview
     pagecolor="#ffffff"
     bordercolor="#666666"
     borderopacity="1"
     objecttolerance="10"
     gridtolerance="10"
     guidetolerance="10"
     inkscape:pageopacity="0"
     inkscape:pageshadow="2"
     inkscape:window-width="1680"
     inkscape:window-height="987"
     id="namedview13189"
     showgrid="false"
     inkscape:zoom="30.341309"
     inkscape:cx="-2.5289578"
     inkscape:cy="12.926581"
     inkscape:window-x="1912"
     inkscape:window-y="-8"
     inkscape:window-maximized="1"
     inkscape:current-layer="visual" />
  <defs
     id="defs13174">
    <style
       id="style13172">.cls-1{fill:#eaeef1;}.cls-2{fill:none;stroke:#bb0a30;stroke-miterlimit:10;}.cls-3{fill:#bb0a30;}</style>
  </defs>
  <path
     style="fill:#eaeef1;stroke-width:1.0972271"
     d="M 7.7246094 0.044921875 C 3.4695623 0.044921875 0.044921875 3.4695623 0.044921875 7.7246094 L 0.044921875 14.308594 C 0.044921875 18.563641 3.4695623 21.988281 7.7246094 21.988281 L 14.308594 21.988281 C 18.563641 21.988281 21.988281 18.563641 21.988281 14.308594 L 21.988281 7.7246094 C 21.988281 3.4695623 18.563641 0.044921875 14.308594 0.044921875 L 7.7246094 0.044921875 z M 16.416016 1.9003906 L 17.511719 1.9003906 L 17.511719 3.8671875 L 18.900391 2.4785156 L 19.677734 3.2539062 L 18.289062 4.6425781 L 20.255859 4.6425781 L 20.255859 5.7402344 L 18.289062 5.7402344 L 19.677734 7.1289062 L 18.900391 7.9042969 L 17.511719 6.515625 L 17.511719 8.4824219 L 16.416016 8.4824219 L 16.416016 6.515625 L 15.027344 7.9042969 L 14.25 7.1289062 L 15.638672 5.7402344 L 13.671875 5.7402344 L 13.671875 4.6425781 L 15.638672 4.6425781 L 14.25 3.2539062 L 15.027344 2.4785156 L 16.416016 3.8671875 L 16.416016 1.9003906 z M 6.859375 2.984375 A 3.149042 3.149042 0 0 1 10.162109 6.0703125 A 2.9515411 2.9515411 0 0 1 9.7441406 7.6269531 A 3.5769606 3.5769606 0 0 1 11.269531 9.5800781 L 13.277344 9.5800781 A 3.149042 3.149042 0 0 1 16.746094 12.652344 A 2.9515411 2.9515411 0 0 1 16.328125 14.210938 A 3.6098774 3.6098774 0 0 1 18.060547 17.259766 C 18.060547 19.070191 16.964415 20.992188 13.771484 20.992188 L 10.380859 20.992188 A 1.0972271 1.0972271 0 0 1 9.2832031 19.894531 L 9.2832031 14.035156 A 5.486136 5.486136 0 0 1 7.1875 14.408203 L 3.796875 14.408203 A 1.0972271 1.0972271 0 0 1 2.6992188 13.310547 L 2.6992188 4.09375 A 1.0972271 1.0972271 0 0 1 3.796875 2.9960938 L 6.6953125 2.9960938 A 3.149042 3.149042 0 0 1 6.859375 2.984375 z M 4.8945312 5.1914062 L 4.8945312 6.9472656 L 6.6953125 6.9472656 C 7.2768429 6.9472656 7.9667969 6.8822608 7.9667969 6.0703125 C 7.966797 5.2583646 6.9915638 5.1914062 6.6953125 5.1914062 L 4.8945312 5.1914062 z M 4.8945312 9.140625 L 4.8945312 12.212891 L 7.1875 12.212891 C 9.0418138 12.212891 9.2832031 11.23732 9.2832031 10.677734 C 9.2832031 10.118149 8.8338009 9.140625 7.1660156 9.140625 L 4.8945312 9.140625 z M 11.478516 11.775391 L 11.478516 13.529297 L 13.277344 13.529297 C 13.858874 13.529297 14.550781 13.376514 14.550781 12.652344 C 14.550781 11.840386 13.573595 11.775391 13.277344 11.775391 L 11.478516 11.775391 z M 11.478516 15.724609 L 11.478516 18.796875 L 13.771484 18.796875 C 15.625798 18.796875 15.867188 17.842042 15.867188 17.271484 C 15.867187 16.700926 15.417785 15.724609 13.75 15.724609 L 11.478516 15.724609 z "
     id="rect13176" />
  <path
     id="path13186"
     style="fill:#008fb8;fill-opacity:1;stroke-width:1.0972271"
     d="M 6.8596842,2.983846 A 3.149042,3.149042 0 0 0 6.6946716,2.9967041 H 3.7973061 A 1.0972271,1.0972271 0 0 0 2.7000788,4.0939314 v 9.2171366 a 1.0972271,1.0972271 0 0 0 1.0972273,1.097227 h 3.3902606 a 5.486136,5.486136 0 0 0 2.0958752,-0.372886 v 5.859023 a 1.0972271,1.0972271 0 0 0 1.0972271,1.097226 h 3.390261 c 3.192931,0 4.290329,-1.920576 4.290329,-3.731001 A 3.6098774,3.6098774 0 0 0 16.327555,14.211137 2.9515411,2.9515411 0 0 0 16.745443,12.65316 3.149042,3.149042 0 0 0 13.278035,9.5800672 H 11.270023 A 3.5769606,3.5769606 0 0 0 9.7441916,7.6277743 2.9515411,2.9515411 0 0 0 10.162081,6.0697974 3.149042,3.149042 0 0 0 6.8596842,2.983846 Z m -1.965151,2.2073125 h 1.8001384 c 0.2962513,0 1.272955,0.066691 1.2729549,0.8786389 0,0.8119483 -0.6914245,0.876496 -1.2729549,0.876496 H 4.8945332 Z m 0,3.9495893 h 2.2716032 c 1.6677853,0 2.1173055,0.9769612 2.1173055,1.5365462 0,0.559586 -0.2415614,1.536547 -2.0958752,1.536547 H 4.8945332 Z m 6.5833638,2.6337742 h 1.800138 c 0.296251,0 1.272954,0.06668 1.272954,0.878638 0,0.72417 -0.691424,0.876495 -1.272954,0.876495 h -1.800138 z m 0,3.949588 h 2.271602 c 1.667785,0 2.117306,0.976705 2.117306,1.547263 0,0.570558 -0.241561,1.525831 -2.095875,1.525831 H 11.477897 Z M 15.02674,2.4780929 14.250967,3.2538667 18.901323,7.9042241 19.677097,7.1284503 Z m 3.874583,0 -4.650356,4.6503574 0.775773,0.7757738 4.650357,-4.6503574 z m -5.228972,2.164452 v 1.0972272 h 6.583363 V 4.6425449 Z M 16.415418,1.899477 v 6.5833631 h 1.097228 V 1.899477 Z"
     inkscape:connector-curvature="0" />
</svg>
