<?xml version="1.0" encoding="UTF-8" standalone="no"?>
<svg
   xmlns:dc="http://purl.org/dc/elements/1.1/"
   xmlns:cc="http://creativecommons.org/ns#"
   xmlns:rdf="http://www.w3.org/1999/02/22-rdf-syntax-ns#"
   xmlns:svg="http://www.w3.org/2000/svg"
   xmlns="http://www.w3.org/2000/svg"
   xmlns:sodipodi="http://sodipodi.sourceforge.net/DTD/sodipodi-0.dtd"
   xmlns:inkscape="http://www.inkscape.org/namespaces/inkscape"
   id="visual"
   viewBox="0 0 22 22"
   version="1.1"
   sodipodi:docname="type-bs.svg"
   inkscape:version="0.92.3 (2405546, 2018-03-11)">
  <metadata
     id="metadata7304">
    <rdf:RDF>
      <cc:Work
         rdf:about="">
        <dc:format>image/svg+xml</dc:format>
        <dc:type
           rdf:resource="http://purl.org/dc/dcmitype/StillImage" />
        <dc:title />
      </cc:Work>
    </rdf:RDF>
  </metadata>
  <sodipodi:namedview
     pagecolor="#ffffff"
     bordercolor="#666666"
     borderopacity="1"
     objecttolerance="10"
     gridtolerance="10"
     guidetolerance="10"
     inkscape:pageopacity="0"
     inkscape:pageshadow="2"
     inkscape:window-width="1680"
     inkscape:window-height="987"
     id="namedview7302"
     showgrid="false"
     inkscape:zoom="10.727273"
     inkscape:cx="-29.737288"
     inkscape:cy="11"
     inkscape:window-x="1912"
     inkscape:window-y="-8"
     inkscape:window-maximized="1"
     inkscape:current-layer="visual" />
  <defs
     id="defs7295">
    <style
       id="style7293">.cls-1{fill:#eaeef1;}.cls-2{fill:#bb0a30;}</style>
  </defs>
  <path
     style="fill:#eaeef1;stroke-width:1.08855927"
     d="M 7.78125 0.16015625 C 3.5598169 0.16015625 0.16015625 3.5598169 0.16015625 7.78125 L 0.16015625 14.3125 C 0.16015625 18.533933 3.5598169 21.931641 7.78125 21.931641 L 14.3125 21.931641 C 18.533933 21.931641 21.931641 18.533933 21.931641 14.3125 L 21.931641 7.78125 C 21.931641 3.5598169 18.533933 0.16015625 14.3125 0.16015625 L 7.78125 0.16015625 z M 6.2402344 2.2363281 L 11.019531 2.2363281 C 13.980412 2.2363281 16.037109 4.0336824 16.037109 6.5917969 A 4.0603262 4.0603262 0 0 1 14.949219 9.4101562 A 5.3230551 5.3230551 0 0 1 18.214844 14.210938 C 18.214844 15.506324 17.757414 19.654297 11.857422 19.654297 L 6.2402344 19.654297 A 1.0885594 1.0885594 0 0 1 5.1523438 18.564453 L 5.1523438 3.3261719 A 1.0885594 1.0885594 0 0 1 6.2402344 2.2363281 z M 7.328125 4.4140625 L 7.328125 8.7675781 L 11.019531 8.7675781 C 12.772111 8.7675781 13.859375 7.952496 13.859375 6.5917969 C 13.859375 5.2310977 12.772111 4.4140625 11.019531 4.4140625 L 7.328125 4.4140625 z M 7.328125 10.945312 L 7.328125 17.476562 L 11.857422 17.476562 C 14.633248 17.476562 16.037109 16.388058 16.037109 14.210938 C 16.037109 12.632526 14.709188 10.945313 11.802734 10.945312 L 7.328125 10.945312 z "
     id="rect7297" />
  <path
     id="path7299"
     d="M 11.85731,19.653609 H 6.240344 A 1.0885594,1.0885594 0 0 1 5.1517848,18.56505 V 3.3252191 A 1.0885594,1.0885594 0 0 1 6.240344,2.2366597 h 4.778776 c 2.960881,0 5.018258,1.7961229 5.018258,4.3542374 a 4.0603262,4.0603262 0 0 1 -1.088559,2.8193686 5.3230551,5.3230551 0 0 1 3.265678,4.8005463 c 0,1.295386 -0.457195,5.442797 -6.357187,5.442797 z M 7.3289034,17.476491 H 11.85731 c 2.775826,0 4.180068,-1.088559 4.180068,-3.265679 0,-1.578411 -1.328042,-3.265677 -4.234496,-3.265677 H 7.3289034 Z m 0,-8.7084753 H 11.01912 c 1.75258,0 2.841139,-0.8164195 2.841139,-2.1771186 0,-1.3606992 -1.088559,-2.1771187 -2.841139,-2.1771187 H 7.3289034 Z"
     style="display:inline;fill:#008fb8;fill-opacity:1;stroke:none;stroke-width:1.08855927;stroke-opacity:1"
     inkscape:connector-curvature="0" />
</svg>
