<?xml version="1.0" encoding="UTF-8" standalone="no"?>
<svg
   xmlns:dc="http://purl.org/dc/elements/1.1/"
   xmlns:cc="http://creativecommons.org/ns#"
   xmlns:rdf="http://www.w3.org/1999/02/22-rdf-syntax-ns#"
   xmlns:svg="http://www.w3.org/2000/svg"
   xmlns="http://www.w3.org/2000/svg"
   xmlns:sodipodi="http://sodipodi.sourceforge.net/DTD/sodipodi-0.dtd"
   xmlns:inkscape="http://www.inkscape.org/namespaces/inkscape"
   id="visual"
   viewBox="0 0 22 22"
   version="1.1"
   sodipodi:docname="type-new-ap.svg"
   inkscape:version="0.92.3 (2405546, 2018-03-11)">
  <metadata
     id="metadata15555">
    <rdf:RDF>
      <cc:Work
         rdf:about="">
        <dc:format>image/svg+xml</dc:format>
        <dc:type
           rdf:resource="http://purl.org/dc/dcmitype/StillImage" />
        <dc:title />
      </cc:Work>
    </rdf:RDF>
  </metadata>
  <sodipodi:namedview
     pagecolor="#ffffff"
     bordercolor="#666666"
     borderopacity="1"
     objecttolerance="10"
     gridtolerance="10"
     guidetolerance="10"
     inkscape:pageopacity="0"
     inkscape:pageshadow="2"
     inkscape:window-width="1680"
     inkscape:window-height="987"
     id="namedview15553"
     showgrid="false"
     inkscape:zoom="10.727273"
     inkscape:cx="-29.737288"
     inkscape:cy="11"
     inkscape:window-x="1912"
     inkscape:window-y="-8"
     inkscape:window-maximized="1"
     inkscape:current-layer="visual" />
  <defs
     id="defs15536">
    <style
       id="style15534">.cls-1{fill:#eaeef1;}.cls-2,.cls-3{fill:none;stroke:#bb0a30;}.cls-2{stroke-miterlimit:10;}.cls-3{stroke-linecap:round;stroke-linejoin:round;stroke-width:2px;}</style>
  </defs>
  <path
     style="fill:#eaeef1;stroke-width:1.09788132"
     d="M 7.7539062 0.068359375 C 3.4963224 0.068359375 0.068359375 3.4963223 0.068359375 7.7539062 L 0.068359375 14.339844 C 0.068359375 18.597428 3.4963223 22.025391 7.7539062 22.025391 L 14.339844 22.025391 C 18.597428 22.025391 22.025391 18.597428 22.025391 14.339844 L 22.025391 7.7539062 C 22.025391 3.4963224 18.597428 0.068359375 14.339844 0.068359375 L 7.7539062 0.068359375 z M 14.308594 2.3769531 L 15.40625 2.3769531 L 15.40625 4.3476562 L 16.796875 2.9570312 L 17.572266 3.7324219 L 16.181641 5.1230469 L 18.152344 5.1230469 L 18.152344 6.2207031 L 16.183594 6.2207031 L 17.572266 7.609375 L 16.796875 8.3867188 L 15.40625 6.9960938 L 15.40625 8.9648438 L 14.308594 8.9648438 L 14.308594 6.9980469 L 12.919922 8.3867188 L 12.142578 7.609375 L 13.53125 6.2207031 L 11.564453 6.2207031 L 11.564453 5.1230469 L 13.533203 5.1230469 L 12.142578 3.7324219 L 12.919922 2.9570312 L 14.308594 4.3457031 L 14.308594 2.3769531 z M 8.8046875 8.0976562 C 9.086598 8.0913876 9.3727897 8.093426 9.6601562 8.1152344 C 10.23489 8.1588514 10.812973 8.27758 11.363281 8.5527344 C 12.4148 9.0784937 12.865579 10.156033 13.001953 11.052734 C 13.138333 11.949436 13.068359 12.809783 13.068359 13.443359 L 13.068359 13.683594 A 1.0979911 1.0979911 0 0 1 13.068359 14.076172 L 13.068359 16.369141 L 13.833984 16.951172 A 1.0985559 1.0985559 0 1 1 12.501953 18.697266 L 12.054688 18.357422 C 11.168308 18.970706 10.128889 19.335974 9.0410156 19.386719 C 6.720455 19.598509 4.6432252 17.854563 4.4648438 15.527344 A 1.0979911 1.0979911 0 0 1 4.4648438 15.359375 C 4.6431687 13.032894 6.719394 11.289522 9.0390625 11.5 C 9.6696531 11.527705 10.280303 11.671685 10.859375 11.896484 C 10.851907 11.722507 10.854402 11.529914 10.832031 11.382812 C 10.748835 10.835801 10.646798 10.650548 10.380859 10.517578 C 10.164019 10.409161 9.031389 10.275479 8.0898438 10.324219 C 7.148298 10.372964 6.3574219 10.5 6.3574219 10.5 A 1.0986607 1.0986607 0 1 1 6.0136719 8.3300781 C 6.0136719 8.3300781 6.9034959 8.1883663 7.9765625 8.1328125 C 8.2448291 8.1189241 8.522777 8.1039249 8.8046875 8.0976562 z M 8.4511719 13.679688 C 7.5355351 13.7723 6.8162208 14.494684 6.6972656 15.443359 C 6.8332144 16.52756 7.7523848 17.311934 8.8535156 17.203125 A 1.0979911 1.0979911 0 0 1 8.9179688 17.199219 C 9.6272306 17.170557 10.302977 16.921802 10.871094 16.507812 L 10.871094 14.382812 C 10.305903 13.962664 9.6307818 13.71033 8.9199219 13.683594 A 1.0979911 1.0979911 0 0 1 8.8535156 13.679688 C 8.7158753 13.666087 8.5819771 13.666457 8.4511719 13.679688 z "
     id="rect15538" />
  <path
     id="path15550"
     style="color:#000000;font-style:normal;font-variant:normal;font-weight:normal;font-stretch:normal;font-size:medium;line-height:normal;font-family:sans-serif;font-variant-ligatures:normal;font-variant-position:normal;font-variant-caps:normal;font-variant-numeric:normal;font-variant-alternates:normal;font-feature-settings:normal;text-indent:0;text-align:start;text-decoration:none;text-decoration-line:none;text-decoration-style:solid;text-decoration-color:#000000;letter-spacing:normal;word-spacing:normal;text-transform:none;writing-mode:lr-tb;direction:ltr;text-orientation:mixed;dominant-baseline:auto;baseline-shift:baseline;text-anchor:start;white-space:normal;shape-padding:0;clip-rule:nonzero;display:inline;overflow:visible;visibility:visible;opacity:1;isolation:auto;mix-blend-mode:normal;color-interpolation:sRGB;color-interpolation-filters:linearRGB;solid-color:#000000;solid-opacity:1;vector-effect:none;fill:#008fb8;fill-opacity:1;fill-rule:nonzero;stroke:none;stroke-width:2.19576263px;stroke-linecap:round;stroke-linejoin:round;stroke-miterlimit:4;stroke-dasharray:none;stroke-dashoffset:0;stroke-opacity:1;color-rendering:auto;image-rendering:auto;shape-rendering:auto;text-rendering:auto;enable-background:accumulate"
     d="M 9.6602689,8.1156878 C 9.0855359,8.072071 8.5135269,8.1050654 7.9769937,8.1328423 6.9039271,8.1883961 6.0128154,8.3301179 6.0128154,8.3301179 a 1.0986607,1.0986607 0 1 0 0.3452322,2.1700311 c 0,0 0.7910483,-0.127088 1.732594,-0.175833 0.9415453,-0.04874 2.0732714,0.08457 2.2901114,0.192987 0.265939,0.13297 0.367107,0.319285 0.450303,0.866297 0.08319,0.547013 0.04074,1.310917 0.04074,2.060672 v 3.469476 a 1.0979911,1.0979911 0 0 0 0.433148,0.87273 l 1.19652,0.911327 a 1.0985559,1.0985559 0 1 0 1.331609,-1.747603 L 13.06756,16.369096 v -2.924824 c 0,-0.633576 0.0699,-1.494192 -0.06648,-2.390894 C 12.864706,10.156677 12.414361,9.0788843 11.362842,8.553125 10.812534,8.2779706 10.235002,8.1593048 9.6602689,8.1156878 Z m -0.621847,3.3837042 c -2.3196685,-0.210478 -4.395466,1.533259 -4.5737909,3.85974 a 1.0979911,1.0979911 0 0 0 0,0.167254 c 0.1783814,2.327219 2.2553753,4.07153 4.5759359,3.85974 1.3791071,-0.06433 2.6935461,-0.615719 3.6967711,-1.56534 a 1.0981829,1.0981829 0 1 0 -1.509587,-1.595358 c -0.626744,0.593255 -1.4471181,0.938666 -2.3094091,0.973512 a 1.0979911,1.0979911 0 0 0 -0.06432,0.0043 c -1.1011308,0.108809 -2.0212252,-0.676261 -2.157174,-1.760462 0.1359488,-1.084201 1.0560432,-1.871416 2.157166,-1.762614 a 1.0979911,1.0979911 0 0 0 0.06647,0.0043 c 0.860655,0.03237 1.6785291,0.380156 2.2986891,0.9778 a 1.0979911,1.0979911 0 1 0 1.524594,-1.580342 C 11.743976,12.11843 10.424756,11.560337 9.0384169,11.499429 Z m 3.8811821,-8.5428887 -0.776236,0.7762364 4.653129,4.6531299 0.776237,-0.7762364 z m 3.876893,0 -4.653129,4.6531299 0.776236,0.7762364 4.65313,-4.6531299 z m -5.23209,2.1657425 v 1.0978813 h 6.587288 V 5.1222458 Z M 14.30911,2.3775424 v 6.5872881 h 1.097881 V 2.3775424 Z"
     inkscape:connector-curvature="0" />
</svg>
