<?xml version="1.0" encoding="UTF-8" standalone="no"?>
<svg
   xmlns:dc="http://purl.org/dc/elements/1.1/"
   xmlns:cc="http://creativecommons.org/ns#"
   xmlns:rdf="http://www.w3.org/1999/02/22-rdf-syntax-ns#"
   xmlns:svg="http://www.w3.org/2000/svg"
   xmlns="http://www.w3.org/2000/svg"
   xmlns:sodipodi="http://sodipodi.sourceforge.net/DTD/sodipodi-0.dtd"
   xmlns:inkscape="http://www.inkscape.org/namespaces/inkscape"
   id="visual"
   viewBox="0 0 22 22"
   version="1.1"
   sodipodi:docname="type-new-as.svg"
   inkscape:version="0.92.3 (2405546, 2018-03-11)">
  <metadata
     id="metadata17355">
    <rdf:RDF>
      <cc:Work
         rdf:about="">
        <dc:format>image/svg+xml</dc:format>
        <dc:type
           rdf:resource="http://purl.org/dc/dcmitype/StillImage" />
        <dc:title />
      </cc:Work>
    </rdf:RDF>
  </metadata>
  <sodipodi:namedview
     pagecolor="#ffffff"
     bordercolor="#666666"
     borderopacity="1"
     objecttolerance="10"
     gridtolerance="10"
     guidetolerance="10"
     inkscape:pageopacity="0"
     inkscape:pageshadow="2"
     inkscape:window-width="1680"
     inkscape:window-height="987"
     id="namedview17353"
     showgrid="false"
     inkscape:zoom="10.727273"
     inkscape:cx="-29.737288"
     inkscape:cy="11"
     inkscape:window-x="1912"
     inkscape:window-y="-8"
     inkscape:window-maximized="1"
     inkscape:current-layer="visual" />
  <defs
     id="defs17336">
    <style
       id="style17334">.cls-1{fill:#eaeef1;}.cls-2,.cls-3{fill:none;stroke:#bb0a30;}.cls-2{stroke-miterlimit:10;}.cls-3{stroke-linecap:round;stroke-linejoin:round;stroke-width:2px;}</style>
  </defs>
  <path
     style="fill:#eaeef1;stroke-width:1.08855927"
     d="M 7.78125 0.16015625 C 3.5598169 0.16015625 0.16015625 3.5598169 0.16015625 7.78125 L 0.16015625 14.3125 C 0.16015625 18.533933 3.5598169 21.931641 7.78125 21.931641 L 14.3125 21.931641 C 18.533933 21.931641 21.931641 18.533933 21.931641 14.3125 L 21.931641 7.78125 C 21.931641 3.5598169 18.533933 0.16015625 14.3125 0.16015625 L 7.78125 0.16015625 z M 15.945312 1.25 L 17.033203 1.25 L 17.033203 3.203125 L 18.412109 1.8242188 L 19.181641 2.59375 L 17.804688 3.9707031 L 19.755859 3.9707031 L 19.755859 5.0585938 L 17.802734 5.0585938 L 19.181641 6.4375 L 18.412109 7.2070312 L 17.033203 5.828125 L 17.033203 7.78125 L 15.945312 7.78125 L 15.945312 5.8300781 L 14.568359 7.2070312 L 13.796875 6.4375 L 15.175781 5.0585938 L 13.224609 5.0585938 L 13.224609 3.9707031 L 15.173828 3.9707031 L 13.796875 2.59375 L 14.568359 1.8242188 L 15.945312 3.2011719 L 15.945312 1.25 z M 11.089844 2.3378906 A 1.0886681 1.0886681 0 0 1 12.035156 2.96875 L 18.566406 17.121094 A 1.0891946 1.0891946 0 1 1 16.589844 18.035156 L 14.871094 14.3125 L 7.2226562 14.3125 L 5.5039062 18.035156 A 1.0891946 1.0891946 0 1 1 3.5273438 17.121094 L 10.058594 2.96875 A 1.0886681 1.0886681 0 0 1 11.089844 2.3378906 z M 11.046875 6.0253906 L 8.2265625 12.134766 L 13.867188 12.134766 L 11.046875 6.0253906 z "
     id="rect17338" />
  <path
     id="line17350"
     style="color:#000000;font-style:normal;font-variant:normal;font-weight:normal;font-stretch:normal;font-size:medium;line-height:normal;font-family:sans-serif;font-variant-ligatures:normal;font-variant-position:normal;font-variant-caps:normal;font-variant-numeric:normal;font-variant-alternates:normal;font-feature-settings:normal;text-indent:0;text-align:start;text-decoration:none;text-decoration-line:none;text-decoration-style:solid;text-decoration-color:#000000;letter-spacing:normal;word-spacing:normal;text-transform:none;writing-mode:lr-tb;direction:ltr;text-orientation:mixed;dominant-baseline:auto;baseline-shift:baseline;text-anchor:start;white-space:normal;shape-padding:0;clip-rule:nonzero;display:inline;overflow:visible;visibility:visible;opacity:1;isolation:auto;mix-blend-mode:normal;color-interpolation:sRGB;color-interpolation-filters:linearRGB;solid-color:#000000;solid-opacity:1;vector-effect:none;fill:#008fb8;fill-opacity:1;fill-rule:nonzero;stroke:none;stroke-width:2.17711854px;stroke-linecap:round;stroke-linejoin:round;stroke-miterlimit:4;stroke-dasharray:none;stroke-dashoffset:0;stroke-opacity:1;color-rendering:auto;image-rendering:auto;shape-rendering:auto;text-rendering:auto;enable-background:accumulate"
     d="m 6.6923729,12.13517 a 1.0886681,1.0886681 0 1 0 0,2.177118 h 8.7084741 a 1.0886681,1.0886681 0 1 0 0,-2.177118 z M 11.089131,2.3381356 A 1.0886681,1.0886681 0 0 0 10.057977,2.969585 L 3.5266213,17.120856 a 1.0891946,1.0891946 0 1 0 1.9772659,0.91422 L 11.04661,6.0247799 16.589333,18.035076 a 1.0891946,1.0891946 0 1 0 1.977266,-0.91422 L 12.035243,2.969585 A 1.0886681,1.0886681 0 0 0 11.089131,2.3381356 Z m 3.478288,-0.5145143 -0.769645,0.7696454 4.613621,4.6136205 0.769644,-0.7696454 z m 3.843976,0 -4.613621,4.6136205 0.769645,0.7696454 4.61362,-4.6136205 z m -5.187666,2.1473533 v 1.0885593 h 6.531356 V 3.9709746 Z m 2.721398,-2.7213983 v 6.5313559 h 1.08856 V 1.2495763 Z"
     inkscape:connector-curvature="0" />
</svg>
