<?xml version="1.0" encoding="UTF-8" standalone="no"?>
<svg
   xmlns:dc="http://purl.org/dc/elements/1.1/"
   xmlns:cc="http://creativecommons.org/ns#"
   xmlns:rdf="http://www.w3.org/1999/02/22-rdf-syntax-ns#"
   xmlns:svg="http://www.w3.org/2000/svg"
   xmlns="http://www.w3.org/2000/svg"
   xmlns:sodipodi="http://sodipodi.sourceforge.net/DTD/sodipodi-0.dtd"
   xmlns:inkscape="http://www.inkscape.org/namespaces/inkscape"
   id="visual"
   viewBox="0 0 22 22"
   version="1.1"
   sodipodi:docname="type-new-cs-child.svg"
   inkscape:version="0.92.3 (2405546, 2018-03-11)">
  <metadata
     id="metadata11355">
    <rdf:RDF>
      <cc:Work
         rdf:about="">
        <dc:format>image/svg+xml</dc:format>
        <dc:type
           rdf:resource="http://purl.org/dc/dcmitype/StillImage" />
        <dc:title />
      </cc:Work>
    </rdf:RDF>
  </metadata>
  <sodipodi:namedview
     pagecolor="#ffffff"
     bordercolor="#666666"
     borderopacity="1"
     objecttolerance="10"
     gridtolerance="10"
     guidetolerance="10"
     inkscape:pageopacity="0"
     inkscape:pageshadow="2"
     inkscape:window-width="1680"
     inkscape:window-height="987"
     id="namedview11353"
     showgrid="false"
     inkscape:zoom="10.727273"
     inkscape:cx="-29.737288"
     inkscape:cy="11"
     inkscape:window-x="1912"
     inkscape:window-y="-8"
     inkscape:window-maximized="1"
     inkscape:current-layer="visual" />
  <defs
     id="defs11336">
    <style
       id="style11334">.cls-1{fill:#eaeef1;}.cls-2,.cls-3{fill:none;stroke:#bb0a30;}.cls-2{stroke-miterlimit:10;}.cls-3{stroke-linecap:round;stroke-linejoin:round;stroke-width:2px;}.cls-4{fill:#bb0a30;}</style>
  </defs>
  <path
     style="fill:#eaeef1;stroke-width:1.08855927"
     d="M 7.6875 0.068359375 C 3.466067 0.068359375 0.068359375 3.466067 0.068359375 7.6875 L 0.068359375 14.21875 C 0.068359375 18.440183 3.466067 21.839844 7.6875 21.839844 L 14.21875 21.839844 C 18.440183 21.839844 21.839844 18.440183 21.839844 14.21875 L 21.839844 7.6875 C 21.839844 3.466067 18.440183 0.068359375 14.21875 0.068359375 L 7.6875 0.068359375 z M 15.851562 1.15625 L 16.941406 1.15625 L 16.941406 3.1074219 L 18.318359 1.7304688 L 19.087891 2.5 L 17.710938 3.8769531 L 19.662109 3.8769531 L 19.662109 4.9667969 L 17.710938 4.9667969 L 19.087891 6.34375 L 18.318359 7.1132812 L 16.941406 5.7363281 L 16.941406 7.6875 L 15.851562 7.6875 L 15.851562 5.7363281 L 14.474609 7.1132812 L 13.705078 6.34375 L 15.082031 4.9667969 L 13.130859 4.9667969 L 13.130859 3.8769531 L 15.082031 3.8769531 L 13.705078 2.5 L 14.474609 1.7304688 L 15.851562 3.1074219 L 15.851562 1.15625 z M 9.8320312 2.2363281 A 6.5351512 6.5351512 0 0 1 12.380859 2.7460938 A 4.2671526 4.2671526 0 0 0 12.041016 4.421875 A 4.2780382 4.2780382 0 0 0 12.107422 5.0644531 A 4.2671526 4.2671526 0 0 0 9.8652344 4.421875 A 4.3542373 4.3542373 0 0 0 7.2128906 12.236328 C 7.8929791 10.843065 9.0671796 9.7828875 10.431641 9.2265625 C 11.506518 8.7883089 12.717079 8.6525246 13.896484 8.8691406 C 15.075888 9.0857566 16.223357 9.6569028 17.173828 10.628906 A 1.0886681 1.0886681 0 1 1 15.617188 12.150391 C 14.332262 10.836358 12.666664 10.66617 11.253906 11.242188 C 9.8411482 11.818205 8.7675781 13.103863 8.7675781 14.941406 C 8.7675781 16.77895 9.8411482 18.064608 11.253906 18.640625 C 12.666664 19.216643 14.332263 19.050362 15.617188 17.736328 A 1.0886681 1.0886681 0 1 1 17.173828 19.257812 C 15.272885 21.201819 12.581395 21.534711 10.431641 20.658203 C 8.2818875 19.781694 6.5898438 17.66009 6.5898438 14.941406 C 6.5898438 14.772488 6.6161379 14.613358 6.6289062 14.449219 A 6.5351512 6.5351512 0 0 1 9.8320312 2.2363281 z "
     id="rect11338" />
  <path
     id="path11350"
     style="fill:#008fb8;fill-opacity:1;stroke-width:1.08855927"
     d="M 9.8329391,2.2364109 A 6.5351512,6.5351512 0 0 0 7.3177717,14.795239 1.1865297,1.1865297 0 0 0 7.7429902,14.882409 1.0885594,1.0885594 0 0 0 8.1660827,12.79246 4.3542373,4.3542373 0 0 1 9.8648305,4.4220339 4.2671526,4.2671526 0 0 1 12.107859,5.0641139 4.2780382,4.2780382 0 0 1 12.041949,4.4220339 4.2671526,4.2671526 0 0 1 12.379998,2.746673 6.5351512,6.5351512 0 0 0 9.8329391,2.2364109 Z m 4.0629619,6.6334083 c -1.179404,-0.216616 -2.388527,-0.08107 -3.463404,0.3571836 -2.1497536,0.8765082 -3.8418488,2.9962532 -3.8418488,5.7149362 0,2.718684 1.6920952,4.840554 3.8418488,5.717063 2.149754,0.876508 4.840896,0.542912 6.741839,-1.401095 a 1.0886681,1.0886681 0 1 0 -1.5563,-1.522282 c -1.284925,1.314034 -2.952109,1.481733 -4.364867,0.905715 -1.4127584,-0.576017 -2.4854022,-1.861857 -2.4854022,-3.699401 0,-1.837543 1.0726438,-3.123383 2.4854022,-3.699401 1.412758,-0.576017 3.079942,-0.406192 4.364867,0.907841 a 1.0886681,1.0886681 0 1 0 1.5563,-1.522281 C 16.223865,9.6560945 15.075305,9.0864352 13.895901,8.8698192 Z m 0.578298,-7.1394182 -0.769646,0.7696453 4.613621,4.6136205 0.769645,-0.7696453 z m 3.843975,0 -4.613621,4.6136205 0.769646,0.7696453 4.61362,-4.6136205 z m -5.187665,2.1473532 v 1.0885594 h 6.531356 V 3.8777542 Z M 15.851907,1.156356 v 6.5313559 h 1.088559 V 1.156356 Z"
     inkscape:connector-curvature="0" />
</svg>
