<?xml version="1.0" encoding="UTF-8" standalone="no"?>
<svg
   xmlns:dc="http://purl.org/dc/elements/1.1/"
   xmlns:cc="http://creativecommons.org/ns#"
   xmlns:rdf="http://www.w3.org/1999/02/22-rdf-syntax-ns#"
   xmlns:svg="http://www.w3.org/2000/svg"
   xmlns="http://www.w3.org/2000/svg"
   xmlns:sodipodi="http://sodipodi.sourceforge.net/DTD/sodipodi-0.dtd"
   xmlns:inkscape="http://www.inkscape.org/namespaces/inkscape"
   id="visual"
   viewBox="0 0 22 22"
   version="1.1"
   sodipodi:docname="type-b.svg"
   inkscape:version="0.92.3 (2405546, 2018-03-11)">
  <metadata
     id="metadata6732">
    <rdf:RDF>
      <cc:Work
         rdf:about="">
        <dc:format>image/svg+xml</dc:format>
        <dc:type
           rdf:resource="http://purl.org/dc/dcmitype/StillImage" />
        <dc:title />
      </cc:Work>
    </rdf:RDF>
  </metadata>
  <sodipodi:namedview
     pagecolor="#ffffff"
     bordercolor="#666666"
     borderopacity="1"
     objecttolerance="10"
     gridtolerance="10"
     guidetolerance="10"
     inkscape:pageopacity="0"
     inkscape:pageshadow="2"
     inkscape:window-width="1680"
     inkscape:window-height="987"
     id="namedview6730"
     showgrid="false"
     inkscape:zoom="3.7926636"
     inkscape:cx="-119.32536"
     inkscape:cy="-16.14977"
     inkscape:window-x="1912"
     inkscape:window-y="-8"
     inkscape:window-maximized="1"
     inkscape:current-layer="visual" />
  <defs
     id="defs6723">
    <style
       id="style6721">.cls-1{fill:#eaeef1;}.cls-2{fill:none;stroke:#bb0a30;stroke-linecap:round;stroke-linejoin:round;stroke-width:2px;}</style>
  </defs>
  <path
     style="fill:#eaeef1;fill-opacity:1;stroke-width:1.09322023"
     d="M 7.7207031 0.068359375 C 3.4811947 0.068359375 0.068359375 3.4811947 0.068359375 7.7207031 L 0.068359375 14.279297 C 0.068359375 18.518805 3.4811947 21.931641 7.7207031 21.931641 L 14.279297 21.931641 C 18.518805 21.931641 21.931641 18.518805 21.931641 14.279297 L 21.931641 7.7207031 C 21.931641 3.4811947 18.518805 0.068359375 14.279297 0.068359375 L 7.7207031 0.068359375 z M 8.3417969 2.7480469 A 1.0933296 1.0933296 0 0 1 9.453125 3.8574219 L 9.453125 9.3222656 L 10.949219 9.3222656 C 11.98551 9.3222656 13.189764 9.5070408 14.25 10.164062 C 15.310236 10.821086 16.154297 12.080485 16.154297 13.695312 C 16.154297 15.107572 15.650377 16.360369 14.662109 17.103516 C 13.673841 17.846662 12.405413 18.068359 10.949219 18.068359 L 8.359375 18.068359 A 1.0933296 1.0933296 0 0 1 7.265625 16.976562 L 7.265625 10.589844 A 1.0933296 1.0933296 0 0 1 7.265625 10.232422 L 7.265625 3.8574219 A 1.0933296 1.0933296 0 0 1 8.3417969 2.7480469 z M 9.453125 11.509766 L 9.453125 15.882812 L 10.949219 15.882812 C 12.160484 15.882812 12.949487 15.656348 13.349609 15.355469 C 13.749731 15.054591 13.96875 14.666272 13.96875 13.695312 C 13.96875 12.741069 13.647187 12.362026 13.097656 12.021484 C 12.548124 11.680943 11.694879 11.509766 10.949219 11.509766 L 9.453125 11.509766 z "
     id="rect6725" />
  <path
     style="color:#000000;font-style:normal;font-variant:normal;font-weight:normal;font-stretch:normal;font-size:medium;line-height:normal;font-family:sans-serif;font-variant-ligatures:normal;font-variant-position:normal;font-variant-caps:normal;font-variant-numeric:normal;font-variant-alternates:normal;font-feature-settings:normal;text-indent:0;text-align:start;text-decoration:none;text-decoration-line:none;text-decoration-style:solid;text-decoration-color:#000000;letter-spacing:normal;word-spacing:normal;text-transform:none;writing-mode:lr-tb;direction:ltr;text-orientation:mixed;dominant-baseline:auto;baseline-shift:baseline;text-anchor:start;white-space:normal;shape-padding:0;clip-rule:nonzero;display:inline;overflow:visible;visibility:visible;opacity:1;isolation:auto;mix-blend-mode:normal;color-interpolation:sRGB;color-interpolation-filters:linearRGB;solid-color:#000000;solid-opacity:1;vector-effect:none;fill:#008fb8;fill-opacity:1;fill-rule:nonzero;stroke:none;stroke-width:2.18644047px;stroke-linecap:round;stroke-linejoin:round;stroke-miterlimit:4;stroke-dasharray:none;stroke-dashoffset:0;stroke-opacity:1;color-rendering:auto;image-rendering:auto;shape-rendering:auto;text-rendering:auto;enable-background:accumulate"
     d="M 8.3425134,2.7488428 A 1.0933296,1.0933296 0 0 0 7.2663746,3.8570095 v 6.3756955 a 1.0933296,1.0933296 0 0 0 0,0.356577 v 6.386372 a 1.0933296,1.0933296 0 0 0 1.0932204,1.09322 h 2.589992 c 1.456194,0 2.724839,-0.221962 3.713107,-0.965108 0.988268,-0.743147 1.492501,-1.995513 1.492501,-3.407773 0,-1.614826 -0.844358,-2.874592 -1.904594,-3.531615 C 13.190365,9.5073563 11.985878,9.3231111 10.949587,9.3231111 H 9.4528154 V 3.8570095 A 1.0933296,1.0933296 0 0 0 8.3425134,2.7488428 Z m 1.110302,8.7607092 h 1.4967716 c 0.74566,0 1.598476,0.171906 2.148008,0.512447 0.549531,0.340542 0.871159,0.719752 0.871159,1.673994 0,0.97096 -0.219084,1.358169 -0.619206,1.659047 -0.400122,0.300879 -1.188696,0.527393 -2.399961,0.527393 H 9.4528154 Z"
     id="path6727"
     inkscape:connector-curvature="0" />
</svg>
