<?xml version="1.0" encoding="UTF-8" standalone="no"?>
<svg
   xmlns:dc="http://purl.org/dc/elements/1.1/"
   xmlns:cc="http://creativecommons.org/ns#"
   xmlns:rdf="http://www.w3.org/1999/02/22-rdf-syntax-ns#"
   xmlns:svg="http://www.w3.org/2000/svg"
   xmlns="http://www.w3.org/2000/svg"
   xmlns:sodipodi="http://sodipodi.sourceforge.net/DTD/sodipodi-0.dtd"
   xmlns:inkscape="http://www.inkscape.org/namespaces/inkscape"
   id="visual"
   viewBox="0 0 22 22"
   version="1.1"
   sodipodi:docname="type-new-as-child.svg"
   inkscape:version="0.92.3 (2405546, 2018-03-11)">
  <metadata
     id="metadata16746">
    <rdf:RDF>
      <cc:Work
         rdf:about="">
        <dc:format>image/svg+xml</dc:format>
        <dc:type
           rdf:resource="http://purl.org/dc/dcmitype/StillImage" />
        <dc:title />
      </cc:Work>
    </rdf:RDF>
  </metadata>
  <sodipodi:namedview
     pagecolor="#ffffff"
     bordercolor="#666666"
     borderopacity="1"
     objecttolerance="10"
     gridtolerance="10"
     guidetolerance="10"
     inkscape:pageopacity="0"
     inkscape:pageshadow="2"
     inkscape:window-width="1680"
     inkscape:window-height="987"
     id="namedview16744"
     showgrid="false"
     inkscape:zoom="15.170655"
     inkscape:cx="-14.384906"
     inkscape:cy="9.5739039"
     inkscape:window-x="1912"
     inkscape:window-y="-8"
     inkscape:window-maximized="1"
     inkscape:current-layer="visual" />
  <defs
     id="defs16723">
    <style
       id="style16721">.cls-1{fill:#eaeef1;}.cls-2,.cls-3{fill:none;stroke:#bb0a30;}.cls-2{stroke-miterlimit:10;}.cls-3{stroke-linecap:round;stroke-linejoin:round;stroke-width:2px;}</style>
  </defs>
  <path
     style="fill:#eaeef1;stroke-width:1.09788132"
     d="M 7.7539062 0.068359375 C 3.4963224 0.068359375 0.068359375 3.4963223 0.068359375 7.7539062 L 0.068359375 14.339844 C 0.068359375 18.597428 3.4963223 22.025391 7.7539062 22.025391 L 14.339844 22.025391 C 18.597428 22.025391 22.025391 18.597428 22.025391 14.339844 L 22.025391 7.7539062 C 22.025391 3.4963224 18.597428 0.068359375 14.339844 0.068359375 L 7.7539062 0.068359375 z M 7.3125 0.58398438 A 1.0979911 1.0979911 0 0 1 7.4238281 0.58398438 A 1.0979911 1.0979911 0 0 1 8.3769531 1.2226562 L 11.642578 8.3066406 L 11.873047 7.8085938 A 1.0979911 1.0979911 0 0 1 12.912109 7.171875 A 1.0979911 1.0979911 0 0 1 13.867188 7.8105469 L 18.927734 18.789062 A 1.0979911 1.0979911 0 1 1 16.933594 19.707031 L 15.669922 16.964844 L 10.060547 16.964844 L 8.7929688 19.708984 A 1.0979911 1.0979911 0 1 1 6.8007812 18.787109 L 10.433594 10.925781 L 10.179688 10.376953 L 4.5722656 10.376953 L 3.3046875 13.121094 A 1.0979911 1.0979911 0 1 1 1.3125 12.199219 L 6.3828125 1.2207031 A 1.0979911 1.0979911 0 0 1 7.3125 0.58398438 z M 15.613281 0.58398438 L 16.712891 0.58398438 L 16.712891 2.5507812 L 18.101562 1.1621094 L 18.876953 1.9394531 L 17.488281 3.328125 L 19.457031 3.328125 L 19.457031 4.4257812 L 17.486328 4.4257812 L 18.876953 5.8164062 L 18.101562 6.5917969 L 16.712891 5.203125 L 16.712891 7.171875 L 15.613281 7.171875 L 15.613281 5.203125 L 14.224609 6.5917969 L 13.449219 5.8164062 L 14.839844 4.4257812 L 12.869141 4.4257812 L 12.869141 3.328125 L 14.837891 3.328125 L 13.449219 1.9394531 L 14.224609 1.1621094 L 15.613281 2.5507812 L 15.613281 0.58398438 z M 7.3808594 4.3027344 L 5.5878906 8.1816406 L 9.1679688 8.1816406 L 7.3808594 4.3027344 z M 12.869141 10.888672 L 12.720703 11.208984 A 1.0979911 1.0979911 0 0 1 12.546875 11.585938 L 11.076172 14.767578 L 14.65625 14.767578 L 12.869141 10.888672 z "
     id="rect16725" />
  <path
     id="line16741"
     style="color:#000000;font-style:normal;font-variant:normal;font-weight:normal;font-stretch:normal;font-size:medium;line-height:normal;font-family:sans-serif;font-variant-ligatures:normal;font-variant-position:normal;font-variant-caps:normal;font-variant-numeric:normal;font-variant-alternates:normal;font-feature-settings:normal;text-indent:0;text-align:start;text-decoration:none;text-decoration-line:none;text-decoration-style:solid;text-decoration-color:#000000;letter-spacing:normal;word-spacing:normal;text-transform:none;writing-mode:lr-tb;direction:ltr;text-orientation:mixed;dominant-baseline:auto;baseline-shift:baseline;text-anchor:start;white-space:normal;shape-padding:0;clip-rule:nonzero;display:inline;overflow:visible;visibility:visible;opacity:1;isolation:auto;mix-blend-mode:normal;color-interpolation:sRGB;color-interpolation-filters:linearRGB;solid-color:#000000;solid-opacity:1;vector-effect:none;fill:#008fb8;fill-opacity:1;fill-rule:nonzero;stroke:none;stroke-width:2.19576263px;stroke-linecap:round;stroke-linejoin:round;stroke-miterlimit:4;stroke-dasharray:none;stroke-dashoffset:0;stroke-opacity:1;color-rendering:auto;image-rendering:auto;shape-rendering:auto;text-rendering:auto;enable-background:accumulate"
     d="m 3.9985243,8.1809901 a 1.0979911,1.0979911 0 1 0 0,2.1957629 h 6.7631217 a 1.0979911,1.0979911 0 1 0 0,-2.1957629 z M 7.4229707,0.58373692 A 1.0979911,1.0979911 0 0 0 6.3829855,1.2205938 L 1.311717,12.199407 a 1.0979911,1.0979911 0 1 0 1.9920543,0.922049 L 7.3800847,4.3019523 10.643709,11.384575 a 1.0979911,1.0979911 0 1 0 1.994198,-0.917762 L 8.377184,1.2227381 A 1.0979911,1.0979911 0 0 0 7.4229707,0.58373692 Z M 9.4879312,14.768279 a 1.0979911,1.0979911 0 1 0 0,2.195762 h 6.7631218 a 1.0979911,1.0979911 0 1 0 0,-2.195762 z M 12.912377,7.171025 A 1.0979911,1.0979911 0 0 0 11.872393,7.8078819 L 6.8011238,18.786695 a 1.0979911,1.0979911 0 1 0 1.9920543,0.922049 L 12.869492,10.88924 16.93294,19.7066 a 1.0979911,1.0979911 0 1 0 1.994198,-0.91776 L 13.866591,7.8100262 A 1.0979911,1.0979911 0 0 0 12.912377,7.171025 Z m 1.312312,-6.0083272 -0.776236,0.7762364 4.653129,4.6531299 0.776237,-0.7762364 z m 3.876893,0 -4.653129,4.6531299 0.776236,0.7762364 4.65313,-4.6531299 z m -5.23209,2.1657425 V 4.4263216 H 19.45678 V 3.3284403 Z M 15.614195,0.58373692 V 7.171025 h 1.097881 V 0.58373692 Z"
     inkscape:connector-curvature="0" />
</svg>
