<?xml version="1.0" encoding="UTF-8" standalone="no"?>
<svg
   xmlns:dc="http://purl.org/dc/elements/1.1/"
   xmlns:cc="http://creativecommons.org/ns#"
   xmlns:rdf="http://www.w3.org/1999/02/22-rdf-syntax-ns#"
   xmlns:svg="http://www.w3.org/2000/svg"
   xmlns="http://www.w3.org/2000/svg"
   xmlns:sodipodi="http://sodipodi.sourceforge.net/DTD/sodipodi-0.dtd"
   xmlns:inkscape="http://www.inkscape.org/namespaces/inkscape"
   id="visual"
   viewBox="0 0 22 22"
   version="1.1"
   sodipodi:docname="type-new-cs.svg"
   inkscape:version="0.92.3 (2405546, 2018-03-11)">
  <metadata
     id="metadata11992">
    <rdf:RDF>
      <cc:Work
         rdf:about="">
        <dc:format>image/svg+xml</dc:format>
        <dc:type
           rdf:resource="http://purl.org/dc/dcmitype/StillImage" />
        <dc:title />
      </cc:Work>
    </rdf:RDF>
  </metadata>
  <sodipodi:namedview
     pagecolor="#ffffff"
     bordercolor="#666666"
     borderopacity="1"
     objecttolerance="10"
     gridtolerance="10"
     guidetolerance="10"
     inkscape:pageopacity="0"
     inkscape:pageshadow="2"
     inkscape:window-width="1680"
     inkscape:window-height="987"
     id="namedview11990"
     showgrid="false"
     inkscape:zoom="21.454545"
     inkscape:cx="6.5109327"
     inkscape:cy="12.552658"
     inkscape:window-x="1912"
     inkscape:window-y="-8"
     inkscape:window-maximized="1"
     inkscape:current-layer="visual" />
  <defs
     id="defs11975">
    <style
       id="style11973">.cls-1{fill:#eaeef1;}.cls-2{fill:none;stroke:#bb0a30;stroke-miterlimit:10;}.cls-3{fill:#bb0a30;}</style>
  </defs>
  <path
     style="fill:#eaeef1;stroke-width:1.0943855"
     d="M 7.7050781 0.044921875 C 3.4610507 0.044921875 0.044921875 3.4610507 0.044921875 7.7050781 L 0.044921875 14.271484 C 0.044921875 18.515511 3.4610507 21.931641 7.7050781 21.931641 L 14.271484 21.931641 C 18.515511 21.931641 21.931641 18.515511 21.931641 14.271484 L 21.931641 7.7050781 C 21.931641 3.4610507 18.515511 0.044921875 14.271484 0.044921875 L 7.7050781 0.044921875 z M 15.894531 1.0722656 L 16.992188 1.0722656 L 16.992188 3.0410156 L 18.380859 1.6523438 L 19.158203 2.4277344 L 17.769531 3.8164062 L 19.736328 3.8164062 L 19.736328 4.9160156 L 17.769531 4.9160156 L 19.158203 6.3046875 L 18.380859 7.0800781 L 16.992188 5.6914062 L 16.992188 7.6601562 L 15.894531 7.6601562 L 15.894531 5.6894531 L 14.503906 7.0800781 L 13.728516 6.3046875 L 15.117188 4.9160156 L 13.148438 4.9160156 L 13.148438 3.8164062 L 15.117188 3.8164062 L 13.728516 2.4277344 L 14.503906 1.6523438 L 15.894531 3.0429688 L 15.894531 1.0722656 z M 10.832031 2.1699219 A 8.7830509 8.7830509 0 0 1 12.578125 2.3242188 A 4.2817373 4.2817373 0 0 0 12.050781 4.3652344 L 12.050781 4.4648438 A 6.2140085 6.2140085 0 0 0 10.953125 4.3652344 A 6.5872881 6.5872881 0 1 0 15.662109 15.552734 A 1.0978814 1.0978814 0 0 1 17.222656 17.089844 A 8.651305 8.651305 0 0 1 10.953125 19.736328 A 8.7832637 8.7832637 0 0 1 10.832031 2.1699219 z "
     id="rect11977" />
  <path
     id="path11987"
     style="display:inline;fill:#008fb8;fill-opacity:1;stroke-width:1.09788132"
     d="M 10.831165,2.1703389 A 8.7832637,8.7832637 0 0 0 10.95339,19.736441 8.651305,8.651305 0 0 0 17.223322,17.090375 1.0978814,1.0978814 0 0 0 15.662271,15.552912 6.5872881,6.5872881 0 1 1 10.95339,4.3661017 6.2140085,6.2140085 0 0 1 12.051271,4.4647393 V 4.3661017 A 4.2817373,4.2817373 0 0 1 12.57877,2.3247286 8.7830509,8.7830509 0 0 0 10.831165,2.1703389 Z m 3.673184,-0.5189203 -0.776235,0.7762363 4.65313,4.6531299 0.776235,-0.7762363 z m 3.876895,0 -4.65313,4.6531299 0.776235,0.7762363 4.65313,-4.6531299 z M 13.149153,3.817161 v 1.0978814 h 6.587288 V 3.817161 Z m 2.744702,-2.7447033 v 6.5872881 h 1.097883 V 1.0724577 Z"
     inkscape:connector-curvature="0" />
</svg>
