<svg width="16" height="16" viewBox="0 0 16 16" fill="none" xmlns="http://www.w3.org/2000/svg">
<path d="M11.375 3.8125C11.8237 3.8125 12.1875 4.17627 12.1875 4.625V14.375C12.1875 14.8237 11.8237 15.1875 11.375 15.1875H1.625C1.17627 15.1875 0.8125 14.8237 0.8125 14.375V4.625C0.8125 4.17627 1.17627 3.8125 1.625 3.8125H11.375ZM1.625 3C0.727537 3 0 3.72754 0 4.625V14.375C0 15.2725 0.727537 16 1.625 16H11.375C12.2725 16 13 15.2725 13 14.375V4.625C13 3.72754 12.2725 3 11.375 3H1.625Z" fill="black"/>
<path fill-rule="evenodd" clip-rule="evenodd" d="M15.2 1.6C15.2 1.15817 14.8418 0.8 14.4 0.8H4.80001C4.35818 0.8 4.00001 1.15817 4.00001 1.6H3.20001C3.20001 0.716344 3.91636 0 4.80001 0H14.4C15.2837 0 16 0.716344 16 1.6V11.2C16 12.0837 15.2837 12.8 14.4 12.8V12C14.8418 12 15.2 11.6418 15.2 11.2V1.6Z" fill="black"/>
</svg>
