<?xml version="1.0" encoding="UTF-8" standalone="no"?>
<svg
   xmlns:dc="http://purl.org/dc/elements/1.1/"
   xmlns:cc="http://creativecommons.org/ns#"
   xmlns:rdf="http://www.w3.org/1999/02/22-rdf-syntax-ns#"
   xmlns:svg="http://www.w3.org/2000/svg"
   xmlns="http://www.w3.org/2000/svg"
   xmlns:sodipodi="http://sodipodi.sourceforge.net/DTD/sodipodi-0.dtd"
   xmlns:inkscape="http://www.inkscape.org/namespaces/inkscape"
   width="16"
   height="16"
   viewBox="0 0 16 16"
   fill="none"
   version="1.1"
   id="svg4"
   sodipodi:docname="workplace2.svg"
   inkscape:version="0.92.3 (2405546, 2018-03-11)">
  <metadata
     id="metadata10">
    <rdf:RDF>
      <cc:Work
         rdf:about="">
        <dc:format>image/svg+xml</dc:format>
        <dc:type
           rdf:resource="http://purl.org/dc/dcmitype/StillImage" />
      </cc:Work>
    </rdf:RDF>
  </metadata>
  <defs
     id="defs8" />
  <sodipodi:namedview
     pagecolor="#ffffff"
     bordercolor="#666666"
     borderopacity="1"
     objecttolerance="10"
     gridtolerance="10"
     guidetolerance="10"
     inkscape:pageopacity="0"
     inkscape:pageshadow="2"
     inkscape:window-width="1920"
     inkscape:window-height="1001"
     id="namedview6"
     showgrid="false"
     inkscape:zoom="256"
     inkscape:cx="3.6904604"
     inkscape:cy="11.789838"
     inkscape:window-x="-9"
     inkscape:window-y="-9"
     inkscape:window-maximized="1"
     inkscape:current-layer="svg4" />
  <path
     style="color:#000000;font-style:normal;font-variant:normal;font-weight:normal;font-stretch:normal;font-size:medium;line-height:normal;font-family:sans-serif;font-variant-ligatures:normal;font-variant-position:normal;font-variant-caps:normal;font-variant-numeric:normal;font-variant-alternates:normal;font-feature-settings:normal;text-indent:0;text-align:start;text-decoration:none;text-decoration-line:none;text-decoration-style:solid;text-decoration-color:#000000;letter-spacing:normal;word-spacing:normal;text-transform:none;writing-mode:lr-tb;direction:ltr;text-orientation:mixed;dominant-baseline:auto;baseline-shift:baseline;text-anchor:start;white-space:normal;shape-padding:0;clip-rule:nonzero;display:inline;overflow:visible;visibility:visible;opacity:1;isolation:auto;mix-blend-mode:normal;color-interpolation:sRGB;color-interpolation-filters:linearRGB;solid-color:#000000;solid-opacity:1;vector-effect:none;fill:#000000;fill-opacity:1;fill-rule:nonzero;stroke:none;stroke-width:1;stroke-linecap:butt;stroke-linejoin:round;stroke-miterlimit:4;stroke-dasharray:4, 1;stroke-dashoffset:0;stroke-opacity:1;color-rendering:auto;image-rendering:auto;shape-rendering:auto;text-rendering:auto;enable-background:accumulate"
     d="M 3 3 L 3 3.0019531 L 2.9492188 3.0019531 A 0.15001501 0.15001501 0 0 0 2.9199219 3.0039062 A 0.15001501 0.15001501 0 0 0 2.9121094 3.0058594 L 2.6464844 3.0332031 L 2.5488281 3.0527344 L 2.2675781 3.140625 L 2.1777344 3.1777344 L 1.921875 3.3164062 L 1.8417969 3.3691406 L 1.6210938 3.5527344 L 1.5527344 3.6210938 L 1.4003906 3.8046875 L 2.171875 4.4414062 L 2.2929688 4.2929688 L 2.4394531 4.1738281 L 2.6054688 4.0820312 L 2.796875 4.0234375 L 3.03125 4 L 7 4 L 7 3 L 3 3 z M 8 3 L 8 4 L 12 4 L 12 3 L 8 3 z M 13.050781 3.0019531 L 12.949219 3.9980469 L 13.203125 4.0234375 L 13.394531 4.0820312 L 13.560547 4.1738281 L 13.707031 4.2929688 L 13.826172 4.4394531 L 13.917969 4.6054688 L 13.976562 4.796875 L 14 5.03125 L 14 6.6464844 L 15 6.6464844 L 15 5 L 14.998047 4.9492188 L 14.966797 4.6464844 L 14.947266 4.5488281 L 14.859375 4.2675781 L 14.822266 4.1777344 L 14.683594 3.921875 L 14.630859 3.8417969 L 14.447266 3.6210938 L 14.378906 3.5527344 L 14.158203 3.3691406 L 14.078125 3.3164062 L 13.822266 3.1777344 L 13.732422 3.140625 L 13.451172 3.0527344 L 13.353516 3.0332031 L 13.050781 3.0019531 z M 1 5.0625 L 1 9.0625 L 2 9.0625 L 2 5.0625 L 1 5.0625 z M 14 7.6464844 L 14 10.96875 L 13.976562 11.203125 L 13.919922 11.388672 L 13.904297 11.4375 L 14.150391 11.513672 L 14.800781 11.863281 L 14.822266 11.822266 L 14.859375 11.732422 L 14.947266 11.451172 L 14.966797 11.353516 L 14.998047 11.050781 L 15 11 L 15 7.6464844 L 14 7.6464844 z M 1 10.0625 L 1 11 L 1.0019531 11.050781 L 1.0332031 11.353516 L 1.0527344 11.451172 L 1.140625 11.732422 L 1.1777344 11.822266 L 1.3164062 12.078125 L 1.3691406 12.158203 L 1.5527344 12.378906 L 1.6210938 12.447266 L 1.8417969 12.630859 L 1.921875 12.683594 L 2.1777344 12.822266 L 2.2675781 12.859375 L 2.5488281 12.947266 L 2.6464844 12.966797 L 2.9492188 12.998047 L 3 13 L 3.7070312 13 L 3.7070312 12 L 3.03125 12 L 2.796875 11.976562 L 2.6054688 11.917969 L 2.4394531 11.826172 L 2.2929688 11.707031 L 2.1738281 11.560547 L 2.0820312 11.394531 L 2.0234375 11.203125 L 2 10.96875 L 2 10.0625 L 1 10.0625 z M 13.441406 11.890625 L 13.390625 11.917969 L 13.203125 11.976562 L 12.96875 12 L 9.7070312 12 L 9.7070312 13 L 13 13 L 13.050781 12.998047 L 13.353516 12.966797 L 13.451172 12.947266 L 13.732422 12.859375 L 13.822266 12.822266 L 13.917969 12.771484 L 13.441406 11.890625 z M 4.7070312 12 L 4.7070312 13 L 8.7070312 13 L 8.7070312 12 L 4.7070312 12 z "
     id="rect2" />
</svg>
