<svg width="16" height="16" viewBox="0 0 16 16" fill="none" xmlns="http://www.w3.org/2000/svg">
<path fill-rule="evenodd" clip-rule="evenodd" d="M0.00898369 6.93027C0.0157383 6.66289 0.0586914 6.33453 0.262107 6.01515C0.489435 5.65822 0.869538 5.38456 1.42413 5.17382C2.50832 4.76184 4.46653 4.51501 8.00399 4.51501C11.5414 4.51501 13.4998 4.76184 14.5841 5.1738C15.1388 5.38453 15.519 5.65816 15.7464 6.01506C15.9736 6.3717 16.0007 6.73955 16.0007 7.02125H15.9911C15.9916 7.035 15.9919 7.04882 15.9919 7.06272V12.8823C15.9919 13.1813 15.8558 13.4629 15.5938 13.6071C14.7567 14.0679 12.508 14.9984 7.99613 14.9984C3.48429 14.9984 1.23551 14.0679 0.398446 13.6071C0.136459 13.4629 0.000366211 13.1813 0.000366211 12.8823V7.06272C0.000366211 7.01773 0.0033049 6.97354 0.00898369 6.93027ZM14.1931 6.09521C13.2869 5.76209 11.4977 5.51501 8.00399 5.51501C4.50061 5.51501 2.71138 5.76347 1.80772 6.09797C3.18316 6.53884 5.29837 7.01788 7.99613 7.01788C10.6995 7.01788 12.8179 6.53684 14.1931 6.09521ZM14.9919 7.06272V12.7946C14.2157 13.1919 12.1332 13.9984 7.99613 13.9984C3.859 13.9984 1.77653 13.1919 1.00037 12.7946V7.06272L1.00035 7.06231C1.00029 7.06096 1.00019 7.05875 1.00462 7.05121C1.01122 7.03999 1.02767 7.01915 1.0593 6.99834C1.13077 6.95131 1.20168 6.95082 1.23815 6.96317C2.68613 7.45329 5.00355 8.01788 7.99613 8.01788C10.9887 8.01788 13.3061 7.45329 14.7541 6.96317C14.7906 6.95082 14.8615 6.95131 14.933 6.99834C14.9646 7.01915 14.981 7.03999 14.9876 7.05121C14.9921 7.05875 14.992 7.06096 14.9919 7.06231L14.9919 7.06272Z" fill="black"/>
</svg>
