<svg id="visual" xmlns="http://www.w3.org/2000/svg" viewBox="0 0 22 22"><defs><style>.cls-1{fill:#eaeef1;}.cls-2{fill:#008fb8;}.cls-3{fill:none;stroke:#008fb8;stroke-miterlimit:10;}</style></defs><title>new-bs</title><rect class="cls-1" x="1" y="1" width="20" height="20" rx="7"/><path class="cls-2" d="M10.16,19H5a1,1,0,0,1-1-1V4A1,1,0,0,1,5,3H9.39C12.11,3,14,4.65,14,7a3.73,3.73,0,0,1-1,2.59A4.89,4.89,0,0,1,16,14C16,15.19,15.58,19,10.16,19ZM6,17h4.16C12.71,17,14,16,14,14c0-1.45-1.22-3-3.89-3H6ZM6,9H9.39C11,9,12,8.25,12,7S11,5,9.39,5H6Z"/><path class="cls-1" d="M19,7.6a4,4,0,1,1-5.35-5.87C14.34,1.27,19.64,6.9,19,7.6Z"/><line class="cls-3" x1="16" y1="2" x2="16" y2="8"/><line class="cls-3" x1="13" y1="5" x2="19" y2="5"/><line class="cls-3" x1="13.88" y1="7.12" x2="18.12" y2="2.88"/><line class="cls-3" x1="18.12" y1="7.12" x2="13.88" y2="2.88"/></svg>