<svg id="visual" xmlns="http://www.w3.org/2000/svg" viewBox="0 0 22 22"><defs><style>.cls-1{fill:#eaeef1;}.cls-2{fill:none;stroke:#008fb8;stroke-miterlimit:10;}.cls-3{fill:#008fb8;}</style></defs><title>new-cs</title><rect class="cls-1" x="1" y="1" width="20" height="20" rx="7"/><line class="cls-2" x1="16" y1="2" x2="16" y2="8"/><line class="cls-2" x1="13" y1="5" x2="19" y2="5"/><line class="cls-2" x1="13.88" y1="7.12" x2="18.12" y2="2.88"/><line class="cls-2" x1="18.12" y1="7.12" x2="13.88" y2="2.88"/><path class="cls-3" d="M15.29,15.19A6,6,0,1,1,11,5a5.66,5.66,0,0,1,1,.09S12,5,12,5a3.9,3.9,0,0,1,.48-1.86A8,8,0,1,0,11,19a7.88,7.88,0,0,0,5.71-2.41,1,1,0,0,0-1.42-1.4Z"/></svg>