<svg id="visual" xmlns="http://www.w3.org/2000/svg" viewBox="0 0 120 120"><defs><style>.cls-1{fill:#eaeef1;}</style></defs><title>admin_active</title><path class="cls-1" d="M97.7,18.45l-2-2-7.19,5.23-1.64,4.9-34,34L50,61.29l-2.63-2.62a1.5,1.5,0,0,0-2.52,1.39,6.12,6.12,0,0,1-2,5.32,5.73,5.73,0,0,1-4,1.73,6.48,6.48,0,0,0-4.29,1.75L13.09,90.23a1.58,1.58,0,0,0-.43.92l-.39,4a1.51,1.51,0,0,0,.43,1.2l7.08,7.07a1.46,1.46,0,0,0,1.06.44H21l4-.39a1.53,1.53,0,0,0,.92-.44L47.29,81.68A6.48,6.48,0,0,0,49,77.38a5.73,5.73,0,0,1,1.73-4,6.09,6.09,0,0,1,5.3-2,1.5,1.5,0,0,0,1.41-2.52L54.85,66.2l.66-2.94,34-34,4.9-1.64,5.23-7.19ZM16.59,94a1.48,1.48,0,0,1-1.06-.44,1.51,1.51,0,0,1,0-2.12L36.75,70.21a1.49,1.49,0,0,1,2.12,0,1.51,1.51,0,0,1,0,2.12L17.65,93.54A1.45,1.45,0,0,1,16.59,94Zm3.89,3.81a1.49,1.49,0,0,1-1.06.44,1.5,1.5,0,0,1-1.06-2.56L41,73a1.5,1.5,0,1,1,2.12,2.12ZM45.94,79.4,24.72,100.62a1.49,1.49,0,0,1-1.06.44,1.53,1.53,0,0,1-1.06-.44,1.51,1.51,0,0,1,0-2.12L43.82,77.28a1.5,1.5,0,0,1,2.12,2.12Z"/><path class="cls-1" d="M102.41,92.63,49.22,39a18.77,18.77,0,0,0-3.3-22.08c-2.44-2.44-13.27-6-13.27-6l-2.42,2.42L40.57,23.6,37.47,35l-11.38,3.1L15.76,27.73l-2.42,2.42s3.09,10.32,6,13.27a18.78,18.78,0,0,0,22.06,3.31l53.15,53.64a5.5,5.5,0,0,0,7.82-7.74ZM98.5,99.5a3,3,0,1,1,3-3A3,3,0,0,1,98.5,99.5Z"/></svg>