<svg id="visual" xmlns="http://www.w3.org/2000/svg" viewBox="0 0 120 120"><defs><style>.cls-1{fill:#008fb8;}</style></defs><title>createWfInstance</title><path class="cls-1" d="M59,40.53H57.73V35.76l-15.2,8.77,15.2,8.78V48.53H59A12.49,12.49,0,0,1,71.47,61h8A20.49,20.49,0,0,0,59,40.53Z"/><path class="cls-1" d="M55,72.8A12.49,12.49,0,0,1,46.53,61h-8A20.5,20.5,0,0,0,55,81.07Z"/><polygon class="cls-1" points="63 94.63 90.29 94.63 90.29 102.6 107.61 83.4 90.29 64.19 90.29 72.16 63 72.16 63 94.63"/><polygon class="cls-1" points="32 20 24.83 20 29.9 14.93 27.07 12.1 22 17.17 22 10 18 10 18 17.17 12.93 12.1 10.1 14.93 15.17 20 8 20 8 24 15.17 24 10.1 29.07 12.93 31.9 18 26.83 18 34 22 34 22 26.83 27.07 31.9 29.9 29.07 24.83 24 32 24 32 20"/><path class="cls-1" d="M63,103.81a43.62,43.62,0,0,1-8.08,0V95l-3.16-.68a33.56,33.56,0,0,1-11.28-4.67L37.8,87.92l-6.21,6.21a42.94,42.94,0,0,1-5.72-5.72l6.21-6.21-1.75-2.72A33.56,33.56,0,0,1,25.66,68.2L25,65H16.19c-.13-1.34-.19-2.69-.19-4s.06-2.7.19-4H25l.68-3.16a33.56,33.56,0,0,1,4.67-11.28l1.75-2.72L28.8,36.52A16.89,16.89,0,0,1,20,39h0l2,2a41.84,41.84,0,0,0-3.31,8H9.32l-.57,3.31a51.18,51.18,0,0,0,0,17.46L9.32,73h9.32A41.84,41.84,0,0,0,22,81l-6.59,6.59,1.94,2.75A50.93,50.93,0,0,0,29.64,102.7l2.75,1.94L39,98.05a41.84,41.84,0,0,0,8,3.31v9.32l3.31.57a51.18,51.18,0,0,0,17.46,0l3.31-.57v-8.06H63Z"/><path class="cls-1" d="M109.25,52.27,108.68,49H99.36a41.84,41.84,0,0,0-3.31-8l6.59-6.59-1.94-2.75A50.93,50.93,0,0,0,88.36,19.3l-2.75-1.94L79,24a41.84,41.84,0,0,0-8-3.31V11.32l-3.32-.57a51.58,51.58,0,0,0-17.44,0L47,11.32v9.32A41.84,41.84,0,0,0,39,24l-2-2v0a16.89,16.89,0,0,1-2.48,8.8l3.28,3.28,2.72-1.75A33.56,33.56,0,0,1,51.8,27.66L55,27V18.19a43.62,43.62,0,0,1,8.08,0V27l3.16.68a33.56,33.56,0,0,1,11.28,4.67l2.72,1.75,6.21-6.21a42.35,42.35,0,0,1,5.72,5.72L85.92,39.8l1.75,2.72A33.56,33.56,0,0,1,92.34,53.8l.21,1,2,2.2h7.28c.13,1.34.19,2.69.19,4s-.06,2.69-.19,4l6.93,7.68.51-3a51.18,51.18,0,0,0,0-17.46Z"/></svg>