<svg id="visual" xmlns="http://www.w3.org/2000/svg" viewBox="0 0 120 120"><defs><style>.cls-1{fill:#008fb8;}</style></defs><title>i18nReload22</title><path class="cls-1" d="M40.1,46.5A36.18,36.18,0,0,1,41,38.31a26.3,26.3,0,0,1-4.18-1.16,19.94,19.94,0,0,0-2.29,8.54,23.5,23.5,0,0,0,5.58,1.91C40.11,47.23,40.1,46.87,40.1,46.5Z"/><path class="cls-1" d="M44,38.8a32.69,32.69,0,0,0-.91,7.7c0,.57,0,1.12,0,1.68,1.61.25,3.46.46,5.58.61,0-1,0-1.78,0-2.29,0-1.23,0-4,.25-7.26C47.08,39.14,45.43,39,44,38.8Z"/><path class="cls-1" d="M42.82,62.7a20.18,20.18,0,0,0,2.38,1.49c-.27-.36-.54-.75-.79-1.15C43.85,62.93,43.32,62.82,42.82,62.7Z"/><path class="cls-1" d="M48.83,51.8c-2-.13-3.78-.32-5.38-.54a27,27,0,0,0,2.9,9.06c1,.15,2.15.28,3.38.38A80.83,80.83,0,0,1,48.83,51.8Z"/><path class="cls-1" d="M34.68,49.05a19.89,19.89,0,0,0,3.06,8.34,13.72,13.72,0,0,0,4.82,2.13,31.52,31.52,0,0,1-2.22-8.81A31.61,31.61,0,0,1,34.68,49.05Z"/><path class="cls-1" d="M65.85,48.18c0-.56.05-1.11.05-1.68A32.69,32.69,0,0,0,65,38.8c-1.42.18-3.07.34-4.94.44.22,3.24.25,6,.25,7.26,0,.51,0,1.31,0,2.29C62.39,48.64,64.24,48.43,65.85,48.18Z"/><path class="cls-1" d="M48.73,63.63a10.7,10.7,0,0,0,2.13,1.76c-.17-.51-.34-1.06-.49-1.64C49.81,63.72,49.26,63.68,48.73,63.63Z"/><path class="cls-1" d="M45.2,28.81a20,20,0,0,0-6.7,5.74,26.14,26.14,0,0,0,3.33.84A23.8,23.8,0,0,1,45.2,28.81Z"/><path class="cls-1" d="M70.5,34.55a20,20,0,0,0-6.7-5.74,23.8,23.8,0,0,1,3.37,6.58A26.14,26.14,0,0,0,70.5,34.55Z"/><path class="cls-1" d="M64.09,35.87c-1.4-3.8-3.5-6.76-6-8.26a41,41,0,0,1,1.66,8.64C61.41,36.16,62.84,36,64.09,35.87Z"/><path class="cls-1" d="M56.79,36.37c-.59-5.4-1.58-8.63-2.29-9.64-.71,1-1.7,4.24-2.29,9.64.73,0,1.49,0,2.29,0S56.06,36.39,56.79,36.37Z"/><path class="cls-1" d="M66.44,59.52a13.72,13.72,0,0,0,4.82-2.13,19.89,19.89,0,0,0,3.06-8.34,31.61,31.61,0,0,1-5.66,1.66A31.52,31.52,0,0,1,66.44,59.52Z"/><path class="cls-1" d="M63.8,64.19a20.18,20.18,0,0,0,2.38-1.49c-.5.12-1,.23-1.59.34C64.34,63.44,64.07,63.83,63.8,64.19Z"/><path class="cls-1" d="M44.91,35.87c1.25.16,2.68.29,4.29.38a41,41,0,0,1,1.66-8.64C48.41,29.11,46.31,32.07,44.91,35.87Z"/><path class="cls-1" d="M60.17,51.8a80.83,80.83,0,0,1-.9,8.9c1.23-.1,2.36-.23,3.38-.38a27,27,0,0,0,2.9-9.06C64,51.48,62.17,51.67,60.17,51.8Z"/><path class="cls-1" d="M68.9,46.5c0,.37,0,.74,0,1.1a22.69,22.69,0,0,0,5.58-1.91,19.84,19.84,0,0,0-2.29-8.54A26.3,26.3,0,0,1,68,38.31,36.18,36.18,0,0,1,68.9,46.5Z"/><path class="cls-1" d="M86,18H23A10.13,10.13,0,0,0,13,28.2V64.79A10.12,10.12,0,0,0,23,75h5V87.16L45.37,75H86A10.12,10.12,0,0,0,96,64.79V28.2A10.13,10.13,0,0,0,86,18ZM54.5,69.5a23,23,0,1,1,23-23A23,23,0,0,1,54.5,69.5Z"/><path class="cls-1" d="M53.52,63.87a8.94,8.94,0,0,0,1,2.4,8.94,8.94,0,0,0,1-2.4h-2Z"/><path class="cls-1" d="M51.84,51.93a69,69,0,0,0,1,8.92c.55,0,1.1,0,1.68,0s1.13,0,1.68,0a69,69,0,0,0,1-8.92c-.86,0-1.74,0-2.66,0S52.7,52,51.84,51.93Z"/><path class="cls-1" d="M58.14,65.39a10.7,10.7,0,0,0,2.13-1.76c-.53,0-1.08.09-1.64.12C58.48,64.33,58.31,64.88,58.14,65.39Z"/><path class="cls-1" d="M54.5,39.4c-.89,0-1.74,0-2.56,0-.15,2.13-.24,4.49-.24,7.13,0,.84,0,1.64,0,2.43.88,0,1.81,0,2.77,0s1.89,0,2.77,0c0-.79,0-1.59,0-2.43,0-2.64-.09-5-.24-7.13C56.24,39.39,55.39,39.4,54.5,39.4Z"/><path class="cls-1" d="M100,43V64.79A14.13,14.13,0,0,1,86,79H46.63L35.89,86.52A12.06,12.06,0,0,0,47,94H63.66L80,106V94H99a12,12,0,0,0,12-12V55A12,12,0,0,0,100,43Z"/></svg>