<?xml version="1.0" encoding="UTF-8" standalone="no"?>
<svg
   xmlns:dc="http://purl.org/dc/elements/1.1/"
   xmlns:cc="http://creativecommons.org/ns#"
   xmlns:rdf="http://www.w3.org/1999/02/22-rdf-syntax-ns#"
   xmlns:svg="http://www.w3.org/2000/svg"
   xmlns="http://www.w3.org/2000/svg"
   xmlns:sodipodi="http://sodipodi.sourceforge.net/DTD/sodipodi-0.dtd"
   xmlns:inkscape="http://www.inkscape.org/namespaces/inkscape"
   id="visual"
   viewBox="0 0 120 120"
   version="1.1"
   sodipodi:docname="i18nDebugActive22.svg"
   inkscape:version="0.92.3 (2405546, 2018-03-11)">
  <metadata
     id="metadata15">
    <rdf:RDF>
      <cc:Work
         rdf:about="">
        <dc:format>image/svg+xml</dc:format>
        <dc:type
           rdf:resource="http://purl.org/dc/dcmitype/StillImage" />
      </cc:Work>
    </rdf:RDF>
  </metadata>
  <sodipodi:namedview
     pagecolor="#ffffff"
     bordercolor="#666666"
     borderopacity="1"
     objecttolerance="10"
     gridtolerance="10"
     guidetolerance="10"
     inkscape:pageopacity="0"
     inkscape:pageshadow="2"
     inkscape:window-width="1920"
     inkscape:window-height="1017"
     id="namedview13"
     showgrid="false"
     inkscape:zoom="1.9666667"
     inkscape:cx="60"
     inkscape:cy="60"
     inkscape:window-x="-8"
     inkscape:window-y="-8"
     inkscape:window-maximized="1"
     inkscape:current-layer="visual" />
  <defs
     id="defs4">
    <style
       id="style2">.cls-1{fill:#eaeef1;}</style>
  </defs>
  <title
     id="title6">i18nDebugActive22</title>
  <path
     class="cls-1"
     d="M68.78,37.51c0-.26,0-.53,0-.8a8.72,8.72,0,0,0-17.43,0c0,.27,0,.54,0,.8Z"
     id="path8"
     style="fill:#e4246f;fill-opacity:1" />
  <path
     class="cls-1"
     d="M60.5,10.5a49,49,0,1,0,49,49A49.05,49.05,0,0,0,60.5,10.5Zm-44,49A44,44,0,0,1,83,21.7l-12.8,19H50.08a6.61,6.61,0,0,0-6.61,6.61v3.58l-8.59-8.1V35.13h-5v9.79L43.47,57.74v.64H27.23v5H43.47V64L29.88,76.83v9.79h5V79l8.59-8.1v2.36a15.87,15.87,0,0,0,1,5.53L33.88,94.5A44,44,0,0,1,16.5,59.5Zm44,44A43.71,43.71,0,0,1,38,97.3l9.29-13.77A15.65,15.65,0,0,0,59.22,89H61A15.75,15.75,0,0,0,76.74,73.25V70.14L86.12,79v7.63h5V76.83L76.85,63.38H93.77v-5H76.85L91.12,44.92V35.13h-5v7.64l-9.38,8.84V47.29a6.58,6.58,0,0,0-1.88-4.61L87.12,24.5a44,44,0,0,1-26.62,79Z"
     id="path10"
     style="fill:#e4246f;fill-opacity:1" />
</svg>
