<svg id="visual" xmlns="http://www.w3.org/2000/svg" viewBox="0 0 120 120"><defs><style>.cls-1{fill:#cfd1d2;}</style></defs><title>themeReload22</title><path class="cls-1" d="M108.87,18.23a2,2,0,0,0-2.5.39c-.94,1.06-23.2,26-28.22,34.63-3.07,5.3-4.19,12.13-4.59,16.94a10,10,0,0,0-8,5.35c-1.35,2.32-1.22,5.53-1.09,8.62.11,2.67.22,5.43-.69,7-2.16,3.73-5.18,3.68-5.35,3.67a1.5,1.5,0,0,0-.32,3,20.55,20.55,0,0,0,3.41.28c7.2,0,14.25-3.67,17.61-9.48a20.58,20.58,0,0,0,2.71-9,11.18,11.18,0,0,0-.76-4.74c4-2.72,9.5-7.14,12.63-12.54,5-8.65,15.59-40.34,16-41.69A2,2,0,0,0,108.87,18.23Zm-30,61.21a17.72,17.72,0,0,1-2.3,7.67,14.32,14.32,0,0,1-2.84,3.4c-3.73.19-5.3-1.32-6.18-2.77,0-1.21,0-2.46,0-3.7-.11-2.67-.23-5.43.68-7,1.24-2.13,3.37-3.89,5.77-3.89a5.25,5.25,0,0,1,2.65.75C78.6,75.08,78.93,77.56,78.85,79.44Z"/><path class="cls-1" d="M35.8,102.66c-6.66-.17-12.44-2.3-9.55-4.44S39,96.45,39.72,96s-1.46-.7-1.32-1.22,2.79-.93,7.93-1.15a37.66,37.66,0,0,1,11.29,1c1.38.37-.63,1-.25,1.25,1.08.72,8.66-.38,9.91,1.13s-5.66,1.18-4,2.16,7.93,1,10.7,3.32c.58.48,1.12,1.24.83,1.93a1.73,1.73,0,0,1-.6.69,8.25,8.25,0,0,1-3.09,1.19c-4.28,1-16,2.76-17.87,1-1.31-1.23,1.63-2.3,1.63-2.76s-2.09-.82-2.75-.93C46.43,102.58,42.47,102.82,35.8,102.66Z"/><path class="cls-1" d="M69.55,48,60.82,32.76,52,47.93h4.26a19,19,0,0,1-32.54,3.33L17.27,56A27,27,0,0,0,64.78,48Z"/><path class="cls-1" d="M21.75,32.06a19,19,0,0,1,32.34-3.6l6.35-4.86A27,27,0,0,0,13.22,32H8.45l8.73,15.22L26,32.07Z"/></svg>