<svg width="512" height="120" viewBox="0 0 512 120" fill="none" xmlns="http://www.w3.org/2000/svg">
<g clip-path="url(#clip0_2162_6663)">
<path d="M163.721 0.734192H128.561V14.6862L130.992 18.9504C131.98 20.7077 132.842 22.5326 133.573 24.4115V5.70904H163.721C166.698 5.70904 169.645 6.29535 172.396 7.43449C175.146 8.57363 177.645 10.2433 179.749 12.3482C181.854 14.453 183.524 16.9518 184.663 19.702C185.802 22.4521 186.389 25.3997 186.389 28.3764C186.389 31.3531 185.802 34.3007 184.663 37.0508C183.524 39.801 181.854 42.2998 179.749 44.4046C177.645 46.5095 175.146 48.1792 172.396 49.3183C169.645 50.4574 166.698 51.0438 163.721 51.0438H133.573V42.0292C133.573 41.0941 133.573 40.1963 133.573 39.2612C133.563 29.0463 129.501 19.2525 122.278 12.0294C115.055 4.80636 105.261 0.744095 95.0458 0.734192H0V5.74644H32.6919V77.7508H37.6667V5.70904H95.0458C103.974 5.70904 112.537 9.25581 118.85 15.5691C125.163 21.8824 128.71 30.4451 128.71 39.3734C128.751 45.4068 127.169 51.3402 124.13 56.5526C121.091 61.7651 116.708 66.0652 111.438 69.0028C106.168 71.9405 100.205 73.4079 94.1733 73.2514C88.1419 73.0949 82.2633 71.3203 77.1527 68.1132C72.0421 64.9062 67.8873 60.3846 65.1231 55.0215C62.3588 49.6585 61.0867 43.6511 61.4399 37.6279C61.793 31.6048 63.7584 25.7872 67.1304 20.7839C70.5025 15.7806 75.1572 11.7755 80.6075 9.18769H71.1441C66.6691 12.71 63.0316 17.1815 60.4937 22.2796C57.9558 27.3778 56.5809 32.9756 56.468 38.6693C56.3552 44.3631 57.5072 50.011 59.8411 55.2057C62.1749 60.4004 65.6324 65.0125 69.9643 68.7094C74.2961 72.4063 79.3944 75.0958 84.8914 76.5841C90.3883 78.0724 96.1471 78.3223 101.752 77.3159C107.358 76.3094 112.67 74.0717 117.306 70.764C121.941 67.4563 125.785 63.1611 128.561 58.1881V77.7508H133.573V56.056H163.721C170.881 55.7927 177.66 52.7631 182.633 47.6045C187.605 42.4458 190.383 35.56 190.383 28.3951C190.383 21.2302 187.605 14.3444 182.633 9.18571C177.66 4.02707 170.881 0.997536 163.721 0.734192Z" fill="#2968C8"/>
<path d="M197.797 1.40747H214.704V62.8637H252.894V78.2371H197.797V1.40747Z" fill="#2968C8"/>
<path d="M249.603 40.0467V39.7849C249.924 29.1707 254.366 19.0989 261.988 11.7045C269.61 4.31019 279.811 0.174683 290.43 0.174683C301.049 0.174683 311.251 4.31019 318.872 11.7045C326.494 19.0989 330.936 29.1707 331.258 39.7849C330.967 50.4009 326.553 60.4862 318.951 67.9025C311.35 75.3189 301.159 79.4831 290.539 79.5123C279.919 79.5415 269.705 75.4333 262.063 68.0589C254.421 60.6844 249.952 50.6235 249.603 40.0093V40.0467ZM313.565 40.0467V39.7849C313.675 36.6575 313.156 33.5399 312.037 30.6173C310.918 27.6948 309.223 25.0271 307.053 22.7729C304.882 20.5186 302.281 18.7238 299.402 17.4953C296.524 16.2667 293.429 15.6294 290.299 15.6213C287.175 15.6123 284.082 16.2397 281.208 17.4653C278.334 18.691 275.74 20.4891 273.584 22.7501C271.428 25.0111 269.756 27.6876 268.668 30.6164C267.58 33.5451 267.1 36.6647 267.258 39.7849C267.147 42.9105 267.667 46.0264 268.787 48.9469C269.906 51.8673 271.601 54.5326 273.772 56.7839C275.943 59.0352 278.545 60.8265 281.423 62.0509C284.301 63.2754 287.396 63.908 290.524 63.9111C293.639 63.949 296.729 63.3527 299.606 62.1587C302.484 60.9646 305.088 59.1976 307.261 56.9652C309.434 54.7329 311.13 52.0818 312.246 49.1733C313.362 46.2648 313.874 43.1596 313.752 40.0467H313.565Z" fill="#2968C8"/>
<path d="M334.661 40.0467V39.7849C334.615 34.511 335.628 29.2815 337.641 24.4067C339.654 19.5318 342.626 15.1108 346.379 11.406C350.133 7.70115 354.592 4.78791 359.493 2.83908C364.394 0.890244 369.636 -0.0544926 374.909 0.0609093C385.961 -0.533857 396.803 3.24142 405.095 10.5717L394.472 23.439C389.064 18.294 381.848 15.4855 374.385 15.6213C368.29 15.8839 362.546 18.5498 358.41 23.0359C354.274 27.522 352.084 33.4634 352.317 39.5605V39.7849C352.131 42.9393 352.598 46.0981 353.687 49.0643C354.777 52.0305 356.466 54.7404 358.649 57.0251C360.831 59.3097 363.462 61.1202 366.375 62.3435C369.289 63.5669 372.423 64.1769 375.582 64.1355C381.244 64.3011 386.815 62.6924 391.517 59.5347V48.575H374.498V33.9871H407.863V67.3523C398.746 75.2466 387.081 79.5776 375.021 79.5463C351.157 79.5463 334.661 62.7515 334.661 40.0467Z" fill="#2968C8"/>
<path d="M416.616 1.40747H433.448V78.2371H416.616V1.40747Z" fill="#2968C8"/>
<path d="M441.116 40.0467V39.7849C441.023 34.5142 441.999 29.2793 443.983 24.3957C445.968 19.5121 448.921 15.0809 452.664 11.3691C456.407 7.65735 460.863 4.74189 465.764 2.79843C470.664 0.854978 475.907 -0.0762371 481.176 0.0609097C486.769 -0.217404 492.357 0.692026 497.573 2.72932C502.789 4.76662 507.514 7.88558 511.437 11.8809L500.777 24.3367C495.619 18.9851 488.568 15.8694 481.139 15.6587C478.076 15.7 475.053 16.3587 472.25 17.5955C469.447 18.8322 466.923 20.6215 464.827 22.8564C462.732 25.0912 461.109 27.7258 460.056 30.6023C459.002 33.4789 458.54 36.5384 458.696 39.5979V39.7849C458.696 52.9514 467.823 63.911 481.139 63.911C484.935 63.873 488.683 63.0567 492.15 61.5126C495.618 59.9685 498.732 57.7294 501.3 54.9339L511.998 65.9683C508.133 70.4955 503.289 74.0841 497.833 76.4624C492.376 78.8408 486.45 79.9465 480.503 79.6959C475.286 79.7777 470.106 78.8061 465.273 76.8391C460.44 74.8722 456.054 71.9504 452.376 68.2487C448.699 64.5469 445.806 60.1413 443.872 55.2954C441.937 50.4496 440.999 45.2633 441.116 40.0467Z" fill="#2968C8"/>
<path d="M436.44 104.608C436.733 108.568 435.707 112.513 433.523 115.829C432.509 117.086 431.21 118.081 429.732 118.732C428.255 119.383 426.643 119.67 425.032 119.57H417.887V90.2815H425.705C427.231 90.2159 428.75 90.522 430.131 91.1736C431.513 91.8252 432.715 92.8027 433.635 94.022C435.688 97.1553 436.672 100.869 436.44 104.608ZM430.867 104.795C430.867 98.2487 429.071 94.9945 425.481 94.9945H423.311V114.595H425.069C425.962 114.636 426.849 114.427 427.629 113.991C428.409 113.554 429.051 112.908 429.483 112.126C430.525 109.828 430.999 107.314 430.867 104.795Z" fill="#101113"/>
<path d="M453.871 119.495H440.704V90.2815H453.871V94.9945H446.165V101.952H453.31V106.665H446.165V114.595H453.871V119.495Z" fill="#101113"/>
<path d="M468.571 119.495L462.998 94.6205H462.773C463.029 96.3672 463.166 98.1293 463.185 99.8945V119.495H458.135V90.2815H466.476L471.489 113.248L476.463 90.2815H484.917V119.495H479.755V99.6327C479.764 97.9453 479.864 96.2597 480.054 94.5831H479.867L474.593 119.495H468.571Z" fill="#101113"/>
<path d="M510.315 104.869C510.566 108.796 509.627 112.706 507.622 116.091C506.712 117.299 505.534 118.279 504.18 118.955C502.827 119.63 501.335 119.981 499.823 119.981C498.31 119.981 496.819 119.63 495.465 118.955C494.112 118.279 492.934 117.299 492.024 116.091C490.016 112.707 489.077 108.796 489.331 104.869C489.068 100.942 490.007 97.0281 492.024 93.648C492.914 92.4149 494.1 91.4259 495.473 90.7721C496.845 90.1184 498.361 89.821 499.879 89.9075C501.381 89.8228 502.88 90.1217 504.234 90.7761C505.589 91.4304 506.754 92.4187 507.622 93.648C509.638 97.0281 510.578 100.942 510.315 104.869ZM494.867 104.869C494.763 107.425 495.196 109.973 496.138 112.35C496.411 113.122 496.918 113.789 497.589 114.259C498.26 114.728 499.06 114.977 499.879 114.969C503.133 114.969 504.779 111.565 504.779 104.757C504.779 97.9495 503.171 94.5083 499.916 94.5083C499.1 94.5113 498.305 94.7637 497.636 95.2317C496.967 95.6997 496.458 96.3609 496.176 97.1266C495.183 99.582 494.736 102.224 494.867 104.869Z" fill="#101113"/>
</g>
<defs>
<clipPath id="clip0_2162_6663">
<rect width="511.998" height="119.981" fill="white"/>
</clipPath>
</defs>
</svg>
