<?xml version="1.0" encoding="UTF-8" standalone="no"?>
<svg
   id="visual"
   viewBox="0 0 511.99805 119.981"
   version="1.1"
   sodipodi:docname="appLogo.svg"
   width="511.99805"
   height="119.981"
   inkscape:version="1.1.2 (0a00cf5339, 2022-02-04)"
   xmlns:inkscape="http://www.inkscape.org/namespaces/inkscape"
   xmlns:sodipodi="http://sodipodi.sourceforge.net/DTD/sodipodi-0.dtd"
   xmlns="http://www.w3.org/2000/svg"
   xmlns:svg="http://www.w3.org/2000/svg"
   xmlns:rdf="http://www.w3.org/1999/02/22-rdf-syntax-ns#"
   xmlns:cc="http://creativecommons.org/ns#"
   xmlns:dc="http://purl.org/dc/elements/1.1/">
  <sodipodi:namedview
     id="namedview29"
     pagecolor="#ffffff"
     bordercolor="#666666"
     borderopacity="1.0"
     inkscape:pageshadow="2"
     inkscape:pageopacity="0.0"
     inkscape:pagecheckerboard="0"
     showgrid="false"
     fit-margin-top="0"
     fit-margin-left="0"
     fit-margin-right="0"
     fit-margin-bottom="0"
     inkscape:zoom="1.5685985"
     inkscape:cx="-15.300282"
     inkscape:cy="49.088405"
     inkscape:window-width="1920"
     inkscape:window-height="1012"
     inkscape:window-x="0"
     inkscape:window-y="0"
     inkscape:window-maximized="1"
     inkscape:current-layer="visual" />
  <defs
     id="defs4">
    <style
       id="style2">.cls-1{fill:#008fb8;}.cls-2{fill:#454952;}</style>
  </defs>
  <title
     id="title6">appLogo</title>
  <g
     id="g858"
     transform="matrix(3.7404883,0,0,3.7404883,-26.632277,-49.986818)"
     style="stroke-width:0.267345">
    <path
       class="cls-1"
       d="m 50.89,13.56 h -9.4 v 3.73 l 0.65,1.14 a 11.44,11.44 0 0 1 0.69,1.46 v -5 h 8.06 a 6.06,6.06 0 1 1 0,12.12 h -8.06 v -2.41 0 c 0,-0.25 0,-0.49 0,-0.74 v 0 A 10.31,10.31 0 0 0 32.53,13.56 H 7.12 v 1.34 h 8.74 v 19.25 h 1.33 V 14.89 h 15.34 a 9,9 0 0 1 9,9 v 0 A 9,9 0 1 1 28.67,15.82 h -2.53 a 10.29,10.29 0 1 0 15.35,13.1 v 5.23 h 1.34 v -5.8 h 8.06 a 7.4,7.4 0 0 0 0,-14.79 z m -9.12,14.85 v 0.06 z m 0.43,-1 z M 42,27.91 V 28 Z"
       id="path8"
       style="stroke-width:0.267345" />
    <path
       class="cls-1"
       d="m 60,13.74 h 4.52 v 16.43 h 10.21 v 4.11 H 60 Z"
       id="path10"
       style="stroke-width:0.267345" />
    <path
       class="cls-1"
       d="M 73.85,24.07 V 24 a 10.92,10.92 0 0 1 21.83,0 v 0 a 10.92,10.92 0 0 1 -21.83,0.06 z m 17.1,0 V 24 A 6.24,6.24 0 0 0 84.73,17.54 6.15,6.15 0 0 0 78.57,24 v 0 a 6.23,6.23 0 0 0 6.22,6.45 6.14,6.14 0 0 0 6.21,-6.38 z"
       id="path12"
       style="stroke-width:0.267345" />
    <path
       class="cls-1"
       d="M 96.59,24.07 V 24 a 10.53,10.53 0 0 1 10.76,-10.62 11.27,11.27 0 0 1 8.07,2.81 l -2.84,3.44 a 7.59,7.59 0 0 0 -5.37,-2.09 6.17,6.17 0 0 0 -5.9,6.4 V 24 a 6.15,6.15 0 0 0 6.22,6.51 7.26,7.26 0 0 0 4.26,-1.23 v -2.93 h -4.55 v -3.9 h 8.92 v 8.92 a 13.36,13.36 0 0 1 -8.78,3.26 C 101,34.63 96.59,30.14 96.59,24.07 Z"
       id="path14"
       style="stroke-width:0.267345" />
    <path
       class="cls-1"
       d="m 118.5,13.74 h 4.5 v 20.54 h -4.5 z"
       id="path16"
       style="stroke-width:0.267345" />
    <path
       class="cls-1"
       d="M 125.05,24.07 V 24 a 10.44,10.44 0 0 1 10.71,-10.62 10.6,10.6 0 0 1 8.09,3.16 L 141,19.87 a 7.59,7.59 0 0 0 -5.25,-2.32 6.09,6.09 0 0 0 -6,6.4 V 24 c 0,3.52 2.44,6.45 6,6.45 a 7.42,7.42 0 0 0 5.39,-2.4 L 144,31 a 10.49,10.49 0 0 1 -8.42,3.67 10.37,10.37 0 0 1 -10.53,-10.6 z"
       id="path18"
       style="stroke-width:0.267345" />
    <path
       class="cls-2"
       d="m 123.8,41.33 a 4.81,4.81 0 0 1 -0.78,3 2.7,2.7 0 0 1 -2.27,1 h -1.91 V 37.5 h 2.09 a 2.52,2.52 0 0 1 2.12,1 4.64,4.64 0 0 1 0.75,2.83 z m -1.49,0.05 c 0,-1.75 -0.48,-2.62 -1.44,-2.62 h -0.58 V 44 h 0.47 a 1.28,1.28 0 0 0 1.18,-0.66 4.21,4.21 0 0 0 0.37,-1.96 z"
       id="path20"
       style="stroke-width:0.267345" />
    <path
       class="cls-2"
       d="m 128.46,45.31 h -3.52 V 37.5 h 3.52 v 1.26 h -2.06 v 1.86 h 1.91 v 1.26 H 126.4 V 44 h 2.06 z"
       id="path22"
       style="stroke-width:0.267345" />
    <path
       class="cls-2"
       d="m 132.39,45.31 -1.49,-6.65 h -0.06 a 10.48,10.48 0 0 1 0.11,1.41 v 5.24 H 129.6 V 37.5 h 2.23 l 1.34,6.14 v 0 l 1.33,-6.14 h 2.26 v 7.81 h -1.38 V 40 a 12.52,12.52 0 0 1 0.08,-1.35 h -0.05 L 134,45.31 Z"
       id="path24"
       style="stroke-width:0.267345" />
    <path
       class="cls-2"
       d="m 143.55,41.4 a 5.23,5.23 0 0 1 -0.72,3 2.61,2.61 0 0 1 -4.17,0 5.22,5.22 0 0 1 -0.72,-3 5.18,5.18 0 0 1 0.72,-3 2.42,2.42 0 0 1 2.1,-1 2.37,2.37 0 0 1 2.07,1 5.18,5.18 0 0 1 0.72,3 z m -4.13,0 a 4.89,4.89 0 0 0 0.34,2 1.05,1.05 0 0 0 1,0.7 c 0.87,0 1.31,-0.91 1.31,-2.73 0,-1.82 -0.43,-2.74 -1.3,-2.74 a 1.07,1.07 0 0 0 -1,0.7 4.88,4.88 0 0 0 -0.35,2.07 z"
       id="path26"
       style="stroke-width:0.267345" />
  </g>
  <metadata
     id="metadata846">
    <rdf:RDF>
      <cc:Work
         rdf:about="">
        <dc:title>appLogo</dc:title>
      </cc:Work>
    </rdf:RDF>
  </metadata>
</svg>
