<?xml version="1.0" encoding="UTF-8" standalone="no"?>
<!-- Created with Inkscape (http://www.inkscape.org/) -->

<svg
   xmlns:dc="http://purl.org/dc/elements/1.1/"
   xmlns:cc="http://creativecommons.org/ns#"
   xmlns:rdf="http://www.w3.org/1999/02/22-rdf-syntax-ns#"
   xmlns:svg="http://www.w3.org/2000/svg"
   xmlns="http://www.w3.org/2000/svg"
   xmlns:sodipodi="http://sodipodi.sourceforge.net/DTD/sodipodi-0.dtd"
   xmlns:inkscape="http://www.inkscape.org/namespaces/inkscape"
   width="10"
   height="10"
   viewBox="0 0 2.645835 2.6458332"
   version="1.1"
   id="svg8"
   inkscape:version="0.92.3 (2405546, 2018-03-11)"
   sodipodi:docname="columnsLayout_grey.svg">
  <defs
     id="defs2" />
  <sodipodi:namedview
     id="base"
     pagecolor="#ffffff"
     bordercolor="#666666"
     borderopacity="1.0"
     inkscape:pageopacity="0.0"
     inkscape:pageshadow="2"
     inkscape:zoom="31.678385"
     inkscape:cx="-6.6372065"
     inkscape:cy="2.1945107"
     inkscape:document-units="mm"
     inkscape:current-layer="layer1"
     showgrid="false"
     fit-margin-top="0"
     fit-margin-left="0"
     fit-margin-right="0"
     fit-margin-bottom="0"
     inkscape:window-width="1920"
     inkscape:window-height="1137"
     inkscape:window-x="1912"
     inkscape:window-y="-8"
     inkscape:window-maximized="1"
     units="px"
     inkscape:pagecheckerboard="false" />
  <metadata
     id="metadata5">
    <rdf:RDF>
      <cc:Work
         rdf:about="">
        <dc:format>image/svg+xml</dc:format>
        <dc:type
           rdf:resource="http://purl.org/dc/dcmitype/StillImage" />
        <dc:title></dc:title>
      </cc:Work>
    </rdf:RDF>
  </metadata>
  <g
     inkscape:label="Ebene 1"
     inkscape:groupmode="layer"
     id="layer1"
     transform="translate(69.654832,-222.07892)">
    <rect
       y="-224.25317"
       x="68.222313"
       height="2.0298977"
       width="0.20057756"
       id="rect3724-3"
       style="stroke-width:0.01099592;fill:#646463;fill-opacity:1"
       transform="scale(-1)" />
    <path
       inkscape:connector-curvature="0"
       id="rect3713"
       d="m -69.512111,222.09531 c -0.07296,0 -0.131703,0.051 -0.131703,0.11428 v 2.05694 c 0,0.0633 0.05874,0.11428 0.131703,0.11428 h 2.370549 c 0.07296,0 0.131703,-0.051 0.131703,-0.11428 v -2.05694 c 0,-0.0633 -0.05874,-0.11428 -0.131703,-0.11428 z m 0.203095,0.1771 h 1.975466 c 0.07296,0 0.13169,0.051 0.13169,0.11427 v 1.71413 c 0,0.0633 -0.05873,0.11428 -0.13169,0.11428 h -1.975466 c -0.07296,0 -0.131704,-0.051 -0.131704,-0.11428 v -1.71413 c 0,-0.0633 0.05874,-0.11427 0.131704,-0.11427 z"
       style="fill:#646463;fill-opacity:1;stroke-width:0.00649168" />
  </g>
</svg>
