<?xml version="1.0" encoding="UTF-8" standalone="no"?>
<!-- Generator: Adobe Illustrator 16.0.0, SVG Export Plug-In . SVG Version: 6.00 Build 0)  -->

<svg
   xmlns:dc="http://purl.org/dc/elements/1.1/"
   xmlns:cc="http://creativecommons.org/ns#"
   xmlns:rdf="http://www.w3.org/1999/02/22-rdf-syntax-ns#"
   xmlns:svg="http://www.w3.org/2000/svg"
   xmlns="http://www.w3.org/2000/svg"
   xmlns:xlink="http://www.w3.org/1999/xlink"
   xmlns:sodipodi="http://sodipodi.sourceforge.net/DTD/sodipodi-0.dtd"
   xmlns:inkscape="http://www.inkscape.org/namespaces/inkscape"
   version="1.1"
   id="Layer_1"
   x="0px"
   y="0px"
   width="512px"
   height="512px"
   viewBox="0 0 512 512"
   enable-background="new 0 0 512 512"
   xml:space="preserve"
   inkscape:version="0.48.3.1 r9886"
   sodipodi:docname="pencil43.svg"><metadata
   id="metadata9"><rdf:RDF><cc:Work
       rdf:about=""><dc:format>image/svg+xml</dc:format><dc:type
         rdf:resource="http://purl.org/dc/dcmitype/StillImage" /><dc:title></dc:title></cc:Work></rdf:RDF></metadata><defs
   id="defs7"><linearGradient
     id="linearGradient3754"><stop
       style="stop-color:#ffffff;stop-opacity:1;"
       offset="0"
       id="stop3756" /><stop
       style="stop-color:#ffffff;stop-opacity:0;"
       offset="1"
       id="stop3758" /></linearGradient><linearGradient
     inkscape:collect="always"
     xlink:href="#linearGradient3754"
     id="linearGradient3760"
     x1="318.91125"
     y1="203.93172"
     x2="544.54626"
     y2="-34.712368"
     gradientUnits="userSpaceOnUse" /></defs><sodipodi:namedview
   pagecolor="#ffffff"
   bordercolor="#666666"
   borderopacity="1"
   objecttolerance="10"
   gridtolerance="10"
   guidetolerance="10"
   inkscape:pageopacity="0"
   inkscape:pageshadow="2"
   inkscape:window-width="1070"
   inkscape:window-height="800"
   id="namedview5"
   showgrid="false"
   borderlayer="true"
   inkscape:showpageshadow="false"
   showborder="true"
   inkscape:zoom="0.4609375"
   inkscape:cx="357.54608"
   inkscape:cy="392.81974"
   inkscape:window-x="404"
   inkscape:window-y="77"
   inkscape:window-maximized="0"
   inkscape:current-layer="Layer_1" />
<rect
   style="fill:#9ce2f7;fill-opacity:1;stroke:#d4d9df;stroke-width:1;stroke-linecap:square;stroke-linejoin:miter;stroke-miterlimit:4;stroke-opacity:1;stroke-dasharray:none;stroke-dashoffset:3.90000017"
   id="rect3764"
   width="774.50854"
   height="737.62714"
   x="-82.440681"
   y="-156.20338"
   rx="6.0460463"
   ry="6.0460458" /><path
   d="M493.278,154.515l-22.625,22.641L334.871,41.39l22.625-22.641c25-25,65.531-25,90.531,0l45.25,45.266  C518.246,89,518.246,129.515,493.278,154.515z M176.465,426.031c-6.25,6.25-6.25,16.375,0,22.625c6.25,6.281,16.375,6.281,22.625,0  l248.938-248.875l-22.656-22.641L176.465,426.031z M63.309,312.906c-6.25,6.25-6.25,16.375,0,22.625s16.375,6.25,22.625,0  L334.871,86.64l-22.625-22.625L63.309,312.906z M357.465,109.25L108.559,358.156c-12.5,12.469-12.469,32.75,0,45.25  c12.5,12.5,32.75,12.563,45.281-0.031l248.906-248.859L357.465,109.25z M153.778,471.219c-7.656-7.656-11.344-17.375-12.719-27.375  c-3.25,0.5-6.531,0.969-9.875,0.969c-17.094,0-33.156-6.688-45.25-18.781c-12.094-12.125-18.75-28.156-18.75-45.25  c0-3.125,0.469-6.156,0.906-9.188c-10.344-1.406-19.906-5.938-27.406-13.438c-0.719-0.719-0.969-1.688-1.625-2.469L-0.004,512  l155.906-39.031C155.215,472.344,154.434,471.875,153.778,471.219z"
   id="path3"
   style="fill:url(#linearGradient3760);fill-opacity:1"
   inkscape:export-filename="C:\local\devel\workspace-toplogic-5.7.4_x\com.top_logic.themes.modern\webapps\themes_modern\images\icons\edit48.png"
   inkscape:export-xdpi="8.4373703"
   inkscape:export-ydpi="8.4373703" />
<text
   xml:space="preserve"
   style="font-size:48px;font-style:normal;font-weight:normal;line-height:125%;letter-spacing:0px;word-spacing:0px;fill:#000000;fill-opacity:1;stroke:none;font-family:Sans"
   x="0.33898306"
   y="-88.474579"
   id="text3766"
   sodipodi:linespacing="125%"><tspan
     sodipodi:role="line"
     id="tspan3768"
     x="0.33898306"
     y="-88.474579">Hintergrund beim Exportieren </tspan><tspan
     sodipodi:role="line"
     x="0.33898306"
     y="-28.474579"
     id="tspan3770">verstecken!</tspan></text>
</svg>