<?xml version="1.0" encoding="UTF-8" standalone="no"?>
<!-- Created with Inkscape (http://www.inkscape.org/) -->

<svg
   xmlns:dc="http://purl.org/dc/elements/1.1/"
   xmlns:cc="http://creativecommons.org/ns#"
   xmlns:rdf="http://www.w3.org/1999/02/22-rdf-syntax-ns#"
   xmlns:svg="http://www.w3.org/2000/svg"
   xmlns="http://www.w3.org/2000/svg"
   xmlns:sodipodi="http://sodipodi.sourceforge.net/DTD/sodipodi-0.dtd"
   xmlns:inkscape="http://www.inkscape.org/namespaces/inkscape"
   width="10"
   height="10"
   viewBox="0 0 2.645835 2.6458332"
   version="1.1"
   id="svg8"
   inkscape:version="0.92.3 (2405546, 2018-03-11)"
   sodipodi:docname="groupCell_grey.svg">
  <defs
     id="defs2" />
  <sodipodi:namedview
     id="base"
     pagecolor="#ffffff"
     bordercolor="#666666"
     borderopacity="1.0"
     inkscape:pageopacity="0.0"
     inkscape:pageshadow="2"
     inkscape:zoom="63.35677"
     inkscape:cx="0.78843081"
     inkscape:cy="4.1880303"
     inkscape:document-units="mm"
     inkscape:current-layer="layer1-3"
     showgrid="false"
     fit-margin-top="0"
     fit-margin-left="0"
     fit-margin-right="0"
     fit-margin-bottom="0"
     inkscape:window-width="1920"
     inkscape:window-height="1137"
     inkscape:window-x="1912"
     inkscape:window-y="-8"
     inkscape:window-maximized="1"
     units="px" />
  <metadata
     id="metadata5">
    <rdf:RDF>
      <cc:Work
         rdf:about="">
        <dc:format>image/svg+xml</dc:format>
        <dc:type
           rdf:resource="http://purl.org/dc/dcmitype/StillImage" />
        <dc:title></dc:title>
      </cc:Work>
    </rdf:RDF>
  </metadata>
  <g
     inkscape:label="Ebene 1"
     inkscape:groupmode="layer"
     id="layer1"
     transform="translate(69.654832,-222.07892)">
    <g
       id="layer1-3"
       inkscape:label="Ebene 1"
       transform="matrix(0.02633951,0,0,0.02633951,-71.140645,220.1346)">
      <path
         inkscape:connector-curvature="0"
         id="rect3713"
         d="m 61.621051,73.993932 c -2.77,0 -5.000213,1.935174 -5.000213,4.338727 v 78.093481 c 0,2.40355 2.230213,4.33872 5.000213,4.33872 h 89.999719 c 2.77,0 5.00021,-1.93517 5.00021,-4.33872 V 78.332659 c 0,-2.403553 -2.23021,-4.338727 -5.00021,-4.338727 z m 7.71064,6.72377 h 75.000119 c 2.77,0 4.9997,1.934725 4.9997,4.338276 v 65.078202 c 0,2.40355 -2.2297,4.33872 -4.9997,4.33872 H 69.331691 c -2.770002,0 -5.000212,-1.93517 -5.000212,-4.33872 V 85.055978 c 0,-2.403551 2.23021,-4.338276 5.000212,-4.338276 z"
         style="stroke-width:0.24646166;fill:#646463;fill-opacity:1" />
      <path
         style="stroke-width:0.08113629;fill:#646463;fill-opacity:1"
         d="M 0.36523438 0.4765625 L 0.36523438 2.9257812 L 9.4179688 2.9257812 L 9.4179688 0.4765625 L 0.36523438 0.4765625 z M 2.2265625 0.68554688 L 3.1660156 0.68554688 L 2.6972656 1.2753906 L 2.2285156 1.8671875 L 1.7578125 1.2773438 L 1.2871094 0.6875 L 2.2265625 0.68554688 z "
         transform="matrix(10.045112,0,0,10.045112,56.410047,73.817622)"
         id="rect3724-3" />
    </g>
  </g>
</svg>
