<?xml version="1.0" encoding="UTF-8" standalone="no"?>
<!-- Created with Inkscape (http://www.inkscape.org/) -->

<svg
   xmlns:dc="http://purl.org/dc/elements/1.1/"
   xmlns:cc="http://creativecommons.org/ns#"
   xmlns:rdf="http://www.w3.org/1999/02/22-rdf-syntax-ns#"
   xmlns:svg="http://www.w3.org/2000/svg"
   xmlns="http://www.w3.org/2000/svg"
   xmlns:xlink="http://www.w3.org/1999/xlink"
   xmlns:sodipodi="http://sodipodi.sourceforge.net/DTD/sodipodi-0.dtd"
   xmlns:inkscape="http://www.inkscape.org/namespaces/inkscape"
   width="109.27292mm"
   height="89.958336mm"
   viewBox="0 0 109.27292 89.958336"
   version="1.1"
   id="svg8"
   inkscape:version="0.92.3 (2405546, 2018-03-11)"
   sodipodi:docname="loginscreen.svg"
   inkscape:export-filename="C:\local\devel\workspace-porting\TL\com.top_logic.themes.modern\webapp\images\login\loginscreen.png"
   inkscape:export-xdpi="95.76133"
   inkscape:export-ydpi="95.76133">
  <defs
     id="defs2">
    <marker
       inkscape:isstock="true"
       style="overflow:visible"
       id="marker4932"
       refX="0"
       refY="0"
       orient="auto"
       inkscape:stockid="TriangleOutS">
      <path
         transform="scale(0.2)"
         style="fill:#296d8e;fill-opacity:1;fill-rule:evenodd;stroke:#296d8e;stroke-width:1.00000003pt;stroke-opacity:1"
         d="M 5.77,0 -2.88,5 V -5 Z"
         id="path4930"
         inkscape:connector-curvature="0" />
    </marker>
    <defs
       id="defs5226">
      <rect
         y="0"
         x="0"
         id="SVGID_1_"
         width="2040"
         height="463.16299" />
    </defs>
    <clipPath
       id="SVGID_2_">
      <use
         height="100%"
         width="100%"
         y="0"
         x="0"
         style="overflow:visible"
         xlink:href="#SVGID_1_"
         overflow="visible"
         id="use5228" />
    </clipPath>
    <clipPath
       id="SVGID_2_-0">
      <use
         height="100%"
         width="100%"
         y="0"
         x="0"
         style="overflow:visible"
         xlink:href="#SVGID_1_"
         overflow="visible"
         id="use5228-4" />
    </clipPath>
    <clipPath
       id="clipPath6863">
      <use
         height="100%"
         width="100%"
         y="0"
         x="0"
         style="overflow:visible"
         xlink:href="#SVGID_1_"
         overflow="visible"
         id="use6861" />
    </clipPath>
    <clipPath
       id="clipPath6867">
      <use
         height="100%"
         width="100%"
         y="0"
         x="0"
         style="overflow:visible"
         xlink:href="#SVGID_1_"
         overflow="visible"
         id="use6865" />
    </clipPath>
    <clipPath
       id="clipPath6871">
      <use
         height="100%"
         width="100%"
         y="0"
         x="0"
         style="overflow:visible"
         xlink:href="#SVGID_1_"
         overflow="visible"
         id="use6869" />
    </clipPath>
    <clipPath
       id="clipPath6875">
      <use
         height="100%"
         width="100%"
         y="0"
         x="0"
         style="overflow:visible"
         xlink:href="#SVGID_1_"
         overflow="visible"
         id="use6873" />
    </clipPath>
    <clipPath
       id="clipPath6879">
      <use
         height="100%"
         width="100%"
         y="0"
         x="0"
         style="overflow:visible"
         xlink:href="#SVGID_1_"
         overflow="visible"
         id="use6877" />
    </clipPath>
    <rect
       y="0"
       x="0"
       id="rect7100"
       width="2040"
       height="463.16299" />
    <clipPath
       id="SVGID_2_-4">
      <use
         height="100%"
         width="100%"
         y="0"
         x="0"
         style="overflow:visible"
         xlink:href="#SVGID_1_-1"
         overflow="visible"
         id="use1419" />
    </clipPath>
    <clipPath
       id="clipPath2095">
      <use
         height="100%"
         width="100%"
         y="0"
         x="0"
         style="overflow:visible"
         xlink:href="#SVGID_1_-1"
         overflow="visible"
         id="use2093" />
    </clipPath>
    <clipPath
       id="clipPath2099">
      <use
         height="100%"
         width="100%"
         y="0"
         x="0"
         style="overflow:visible"
         xlink:href="#SVGID_1_-1"
         overflow="visible"
         id="use2097" />
    </clipPath>
    <clipPath
       id="clipPath2103">
      <use
         height="100%"
         width="100%"
         y="0"
         x="0"
         style="overflow:visible"
         xlink:href="#SVGID_1_-1"
         overflow="visible"
         id="use2101" />
    </clipPath>
    <clipPath
       id="clipPath2107">
      <use
         height="100%"
         width="100%"
         y="0"
         x="0"
         style="overflow:visible"
         xlink:href="#SVGID_1_-1"
         overflow="visible"
         id="use2105" />
    </clipPath>
    <clipPath
       id="clipPath2111">
      <use
         height="100%"
         width="100%"
         y="0"
         x="0"
         style="overflow:visible"
         xlink:href="#SVGID_1_-1"
         overflow="visible"
         id="use2109" />
    </clipPath>
    <clipPath
       id="clipPath2115">
      <use
         height="100%"
         width="100%"
         y="0"
         x="0"
         style="overflow:visible"
         xlink:href="#SVGID_1_-1"
         overflow="visible"
         id="use2113" />
    </clipPath>
    <clipPath
       id="clipPath2119">
      <use
         height="100%"
         width="100%"
         y="0"
         x="0"
         style="overflow:visible"
         xlink:href="#SVGID_1_-1"
         overflow="visible"
         id="use2117" />
    </clipPath>
    <clipPath
       id="clipPath2123">
      <use
         height="100%"
         width="100%"
         y="0"
         x="0"
         style="overflow:visible"
         xlink:href="#SVGID_1_-1"
         overflow="visible"
         id="use2121" />
    </clipPath>
    <clipPath
       id="clipPath2127">
      <use
         height="100%"
         width="100%"
         y="0"
         x="0"
         style="overflow:visible"
         xlink:href="#SVGID_1_-1"
         overflow="visible"
         id="use2125" />
    </clipPath>
    <clipPath
       id="clipPath2131">
      <use
         height="100%"
         width="100%"
         y="0"
         x="0"
         style="overflow:visible"
         xlink:href="#SVGID_1_-1"
         overflow="visible"
         id="use2129" />
    </clipPath>
    <clipPath
       id="clipPath2135">
      <use
         height="100%"
         width="100%"
         y="0"
         x="0"
         style="overflow:visible"
         xlink:href="#SVGID_1_-1"
         overflow="visible"
         id="use2133" />
    </clipPath>
    <clipPath
       id="clipPath2139">
      <use
         height="100%"
         width="100%"
         y="0"
         x="0"
         style="overflow:visible"
         xlink:href="#SVGID_1_-1"
         overflow="visible"
         id="use2137" />
    </clipPath>
    <clipPath
       id="clipPath2143">
      <use
         height="100%"
         width="100%"
         y="0"
         x="0"
         style="overflow:visible"
         xlink:href="#SVGID_1_-1"
         overflow="visible"
         id="use2141" />
    </clipPath>
    <clipPath
       id="clipPath2147">
      <use
         height="100%"
         width="100%"
         y="0"
         x="0"
         style="overflow:visible"
         xlink:href="#SVGID_1_-1"
         overflow="visible"
         id="use2145" />
    </clipPath>
    <clipPath
       id="clipPath2151">
      <use
         height="100%"
         width="100%"
         y="0"
         x="0"
         style="overflow:visible"
         xlink:href="#SVGID_1_-1"
         overflow="visible"
         id="use2149" />
    </clipPath>
    <clipPath
       id="clipPath2155">
      <use
         height="100%"
         width="100%"
         y="0"
         x="0"
         style="overflow:visible"
         xlink:href="#SVGID_1_-1"
         overflow="visible"
         id="use2153" />
    </clipPath>
    <clipPath
       id="clipPath2159">
      <use
         height="100%"
         width="100%"
         y="0"
         x="0"
         style="overflow:visible"
         xlink:href="#SVGID_1_-1"
         overflow="visible"
         id="use2157" />
    </clipPath>
    <clipPath
       id="clipPath2163">
      <use
         height="100%"
         width="100%"
         y="0"
         x="0"
         style="overflow:visible"
         xlink:href="#SVGID_1_-1"
         overflow="visible"
         id="use2161" />
    </clipPath>
    <clipPath
       id="clipPath2167">
      <use
         height="100%"
         width="100%"
         y="0"
         x="0"
         style="overflow:visible"
         xlink:href="#SVGID_1_-1"
         overflow="visible"
         id="use2165" />
    </clipPath>
    <clipPath
       id="clipPath2171">
      <use
         height="100%"
         width="100%"
         y="0"
         x="0"
         style="overflow:visible"
         xlink:href="#SVGID_1_-1"
         overflow="visible"
         id="use2169" />
    </clipPath>
    <clipPath
       id="clipPath2175">
      <use
         height="100%"
         width="100%"
         y="0"
         x="0"
         style="overflow:visible"
         xlink:href="#SVGID_1_-1"
         overflow="visible"
         id="use2173" />
    </clipPath>
    <clipPath
       id="clipPath2179">
      <use
         height="100%"
         width="100%"
         y="0"
         x="0"
         style="overflow:visible"
         xlink:href="#SVGID_1_-1"
         overflow="visible"
         id="use2177" />
    </clipPath>
    <clipPath
       id="clipPath2183">
      <use
         height="100%"
         width="100%"
         y="0"
         x="0"
         style="overflow:visible"
         xlink:href="#SVGID_1_-1"
         overflow="visible"
         id="use2181" />
    </clipPath>
    <clipPath
       id="clipPath2187">
      <use
         height="100%"
         width="100%"
         y="0"
         x="0"
         style="overflow:visible"
         xlink:href="#SVGID_1_-1"
         overflow="visible"
         id="use2185" />
    </clipPath>
    <clipPath
       id="clipPath2191">
      <use
         height="100%"
         width="100%"
         y="0"
         x="0"
         style="overflow:visible"
         xlink:href="#SVGID_1_-1"
         overflow="visible"
         id="use2189" />
    </clipPath>
    <clipPath
       id="clipPath2195">
      <use
         height="100%"
         width="100%"
         y="0"
         x="0"
         style="overflow:visible"
         xlink:href="#SVGID_1_-1"
         overflow="visible"
         id="use2193" />
    </clipPath>
    <clipPath
       id="clipPath2199">
      <use
         height="100%"
         width="100%"
         y="0"
         x="0"
         style="overflow:visible"
         xlink:href="#SVGID_1_-1"
         overflow="visible"
         id="use2197" />
    </clipPath>
    <clipPath
       id="clipPath2203">
      <use
         height="100%"
         width="100%"
         y="0"
         x="0"
         style="overflow:visible"
         xlink:href="#SVGID_1_-1"
         overflow="visible"
         id="use2201" />
    </clipPath>
    <clipPath
       id="clipPath2207">
      <use
         height="100%"
         width="100%"
         y="0"
         x="0"
         style="overflow:visible"
         xlink:href="#SVGID_1_-1"
         overflow="visible"
         id="use2205" />
    </clipPath>
    <clipPath
       id="clipPath2211">
      <use
         height="100%"
         width="100%"
         y="0"
         x="0"
         style="overflow:visible"
         xlink:href="#SVGID_1_-1"
         overflow="visible"
         id="use2209" />
    </clipPath>
    <clipPath
       id="clipPath2215">
      <use
         height="100%"
         width="100%"
         y="0"
         x="0"
         style="overflow:visible"
         xlink:href="#SVGID_1_-1"
         overflow="visible"
         id="use2213" />
    </clipPath>
    <clipPath
       id="clipPath2219">
      <use
         height="100%"
         width="100%"
         y="0"
         x="0"
         style="overflow:visible"
         xlink:href="#SVGID_1_-1"
         overflow="visible"
         id="use2217" />
    </clipPath>
    <clipPath
       id="clipPath2223">
      <use
         height="100%"
         width="100%"
         y="0"
         x="0"
         style="overflow:visible"
         xlink:href="#SVGID_1_-1"
         overflow="visible"
         id="use2221" />
    </clipPath>
    <clipPath
       id="clipPath2227">
      <use
         height="100%"
         width="100%"
         y="0"
         x="0"
         style="overflow:visible"
         xlink:href="#SVGID_1_-1"
         overflow="visible"
         id="use2225" />
    </clipPath>
    <rect
       y="0"
       x="0"
       id="SVGID_1_-1"
       width="2040"
       height="463.16299" />
  </defs>
  <sodipodi:namedview
     id="base"
     pagecolor="#ffffff"
     bordercolor="#666666"
     borderopacity="1.0"
     inkscape:pageopacity="0.0"
     inkscape:pageshadow="2"
     inkscape:zoom="0.9899495"
     inkscape:cx="-138.35726"
     inkscape:cy="213.28172"
     inkscape:document-units="mm"
     inkscape:current-layer="layer1"
     showgrid="false"
     fit-margin-top="0"
     fit-margin-left="0"
     fit-margin-right="0"
     fit-margin-bottom="0"
     inkscape:window-width="1920"
     inkscape:window-height="1013"
     inkscape:window-x="-9"
     inkscape:window-y="-9"
     inkscape:window-maximized="1" />
  <metadata
     id="metadata5">
    <rdf:RDF>
      <cc:Work
         rdf:about="">
        <dc:format>image/svg+xml</dc:format>
        <dc:type
           rdf:resource="http://purl.org/dc/dcmitype/StillImage" />
        <dc:title />
      </cc:Work>
    </rdf:RDF>
  </metadata>
  <g
     inkscape:label="Ebene 1"
     inkscape:groupmode="layer"
     id="layer1"
     transform="translate(-31.920092,-15.785713)">
    <rect
       style="fill:#d5e6ef;fill-opacity:1;stroke:#296d8e;stroke-width:0.78226566;stroke-linecap:round;stroke-linejoin:miter;stroke-miterlimit:4;stroke-dasharray:none;stroke-opacity:1"
       id="rect5221"
       width="84.998459"
       height="37.435284"
       x="43.142036"
       y="41.986095"
       rx="3.0738559"
       ry="2.9386175" />
    <g
       transform="matrix(0.04243403,0,0,0.04243403,42.293356,20.478574)"
       id="g1492"
       style="stroke-width:6.23516846">
      <defs
         id="defs1417">
        <rect
           y="0"
           x="0"
           id="rect2456"
           width="2040"
           height="463.16299" />
      </defs>
      <clipPath
         id="clipPath2233">
        <use
           height="100%"
           width="100%"
           y="0"
           x="0"
           style="overflow:visible"
           xlink:href="#SVGID_1_-1"
           overflow="visible"
           id="use2231" />
      </clipPath>
      <path
         style="fill:#0190b8;stroke-width:6.23516846"
         inkscape:connector-curvature="0"
         clip-path="url(#SVGID_2_-4)"
         d="m 659.568,22.6 h -129.972 -7.309 v 54.456 l 9.415,16.623 c 3.889,6.865 7.236,14.005 10.062,21.337 V 42.077 h 117.804 c 48.824,0 88.543,39.719 88.543,88.542 0,48.823 -39.719,88.543 -88.543,88.543 H 541.764 v -35.334 h -0.396 c 0.255,-3.575 0.396,-7.181 0.396,-10.821 0,-26.907 -7.1,-52.142 -19.477,-73.995 C 496.454,53.402 447.517,22.6 391.357,22.6 h -0.001 V 22.444 H 20 V 41.92 h 127.722 v 281.495 h 19.477 V 41.92 h 150.434 73.723 v 0.157 h 0.001 c 72.195,0 130.93,58.735 130.93,130.93 0,72.196 -58.735,130.932 -130.93,130.932 -72.196,0 -130.93,-58.735 -130.93,-130.932 0,-51.767 30.203,-96.608 73.91,-117.841 h -36.379 c -34.722,27.544 -57.009,70.077 -57.009,117.841 0,83.068 67.34,150.408 150.408,150.408 56.16,0 105.097,-30.802 130.93,-76.413 v 76.413 h 19.477 v -84.776 h 117.804 c 59.562,0 108.02,-48.458 108.02,-108.02 C 767.588,71.057 719.13,22.6 659.568,22.6 M 526.272,239.453 c -0.157,0.315 -0.32,0.629 -0.478,0.944 0.159,-0.315 0.322,-0.628 0.478,-0.944 m 6.341,-14.786 c -0.012,0.033 -0.023,0.067 -0.036,0.101 0.013,-0.034 0.024,-0.068 0.036,-0.101 m -2.873,7.23 c -0.13,0.307 -0.261,0.612 -0.394,0.918 0.133,-0.306 0.264,-0.611 0.394,-0.918"
         id="path1422" />
      <polygon
         style="fill:#0190b8;stroke-width:6.23516846"
         clip-path="url(#SVGID_2_-4)"
         points="792.26,325.23 792.26,25.144 858.279,25.144 858.279,265.213 1007.891,265.213 1007.891,325.23 "
         id="polygon1424" />
      <path
         style="fill:#0190b8;stroke-width:6.23516846"
         inkscape:connector-curvature="0"
         clip-path="url(#SVGID_2_-4)"
         d="m 995.023,176.044 v -0.856 C 995.023,89.878 1062.329,20 1154.925,20 c 92.598,0 159.045,69.02 159.045,154.33 v 0.858 c 0,85.31 -67.306,155.186 -159.902,155.186 -92.597,0 -159.045,-69.02 -159.045,-154.33 m 249.925,0 v -0.856 c 0,-51.445 -37.724,-94.313 -90.88,-94.313 -53.156,0 -90.028,42.013 -90.028,93.455 v 0.858 c 0,51.443 37.724,94.311 90.886,94.311 53.156,0 90.022,-42.011 90.022,-93.455"
         id="path1426" />
      <path
         style="fill:#0190b8;stroke-width:6.23516846"
         inkscape:connector-curvature="0"
         clip-path="url(#SVGID_2_-4)"
         d="m 1327.247,176.044 v -0.856 c 0,-85.31 66.448,-155.188 157.328,-155.188 54.015,0 86.595,14.576 117.894,41.154 l -41.586,50.159 c -23.146,-19.292 -43.727,-30.438 -78.447,-30.438 -48.018,0 -86.171,42.441 -86.171,93.455 v 0.858 c 0,54.873 37.724,95.169 90.886,95.169 24.003,0 45.438,-6.002 62.156,-18.004 v -42.871 h -66.442 v -57.015 h 130.321 v 130.321 c -30.869,26.152 -73.309,47.586 -128.181,47.586 -93.455,0 -157.758,-65.59 -157.758,-154.33"
         id="path1428" />
      <rect
         style="fill:#0190b8;stroke-width:6.23516846"
         x="1647.479"
         y="25.143999"
         clip-path="url(#SVGID_2_-4)"
         width="66.018997"
         height="300.086"
         id="rect1430" />
      <path
         style="fill:#0190b8;stroke-width:6.23516846"
         inkscape:connector-curvature="0"
         clip-path="url(#SVGID_2_-4)"
         d="m 1743.067,176.044 v -0.856 C 1743.067,89.878 1807.37,20 1899.538,20 c 56.589,0 90.456,18.862 118.321,46.298 l -42.015,48.444 c -23.146,-21.008 -46.726,-33.867 -76.736,-33.867 -50.581,0 -87.023,42.013 -87.023,93.455 v 0.858 c 0,51.443 35.584,94.311 87.023,94.311 34.297,0 55.302,-13.719 78.882,-35.151 l 42.01,42.44 c -30.864,33.011 -65.16,53.586 -123.033,53.586 -88.31,0 -153.9,-68.161 -153.9,-154.33"
         id="path1432" />
      <polygon
         style="fill:#0190b8;stroke-width:6.23516846"
         clip-path="url(#SVGID_2_-4)"
         points="37.876,442.156 37.876,395.325 20,395.325 20,383.407 68.678,383.407 68.678,395.325 50.801,395.325 50.801,442.156 "
         id="polygon1434" />
      <polygon
         style="fill:#0190b8;stroke-width:6.23516846"
         clip-path="url(#SVGID_2_-4)"
         points="86.972,442.156 86.972,383.407 99.896,383.407 99.896,406.655 123.731,406.655 123.731,383.407 136.657,383.407 136.657,442.156 123.731,442.156 123.731,418.573 99.896,418.573 99.896,442.156 "
         id="polygon1436" />
      <polygon
         style="fill:#0190b8;stroke-width:6.23516846"
         clip-path="url(#SVGID_2_-4)"
         points="159.147,442.156 159.147,383.407 203.46,383.407 203.46,394.905 171.988,394.905 171.988,406.824 199.685,406.824 199.685,418.322 171.988,418.322 171.988,430.658 203.88,430.658 203.88,442.156 "
         id="polygon1438" />
      <path
         style="fill:#0190b8;stroke-width:6.23516846"
         inkscape:connector-curvature="0"
         clip-path="url(#SVGID_2_-4)"
         d="m 277.48,382.987 h 11.918 l 25.178,59.169 h -13.513 l -5.371,-13.176 h -24.843 l -5.371,13.176 h -13.176 z m 13.596,34.579 -7.805,-19.053 -7.806,19.053 z"
         id="path1440" />
      <path
         style="fill:#0190b8;stroke-width:6.23516846"
         inkscape:connector-curvature="0"
         clip-path="url(#SVGID_2_-4)"
         d="m 329.01,416.978 v -33.57 h 12.925 v 33.233 c 0,9.57 4.784,14.522 12.673,14.522 7.889,0 12.673,-4.786 12.673,-14.101 v -33.655 h 12.925 v 33.149 c 0,17.795 -9.987,26.522 -25.766,26.522 -15.778,0.001 -25.43,-8.811 -25.43,-26.1"
         id="path1442" />
      <polygon
         style="fill:#0190b8;stroke-width:6.23516846"
         clip-path="url(#SVGID_2_-4)"
         points="415.452,442.156 415.452,395.325 397.576,395.325 397.576,383.407 446.254,383.407 446.254,395.325 428.376,395.325 428.376,442.156 "
         id="polygon1444" />
      <path
         style="fill:#0190b8;stroke-width:6.23516846"
         inkscape:connector-curvature="0"
         clip-path="url(#SVGID_2_-4)"
         d="m 459.428,412.951 v -0.17 c 0,-16.7 13.177,-30.382 31.305,-30.382 18.128,0 31.137,13.513 31.137,30.213 v 0.169 c 0,16.7 -13.177,30.382 -31.305,30.382 -18.128,0 -31.137,-13.513 -31.137,-30.212 m 48.93,0 v -0.17 c 0,-10.071 -7.386,-18.464 -17.793,-18.464 -10.407,0 -17.624,8.227 -17.624,18.295 v 0.169 c 0,10.071 7.385,18.464 17.792,18.464 10.407,0 17.625,-8.225 17.625,-18.294"
         id="path1446" />
      <polygon
         style="fill:#0190b8;stroke-width:6.23516846"
         clip-path="url(#SVGID_2_-4)"
         points="554.431,404.053 554.431,442.156 541.758,442.156 541.758,383.407 555.69,383.407 571.133,408.251 586.574,383.407 600.508,383.407 600.508,442.156 587.666,442.156 587.666,403.802 571.133,428.895 570.796,428.895 "
         id="polygon1448" />
      <path
         style="fill:#0190b8;stroke-width:6.23516846"
         inkscape:connector-curvature="0"
         clip-path="url(#SVGID_2_-4)"
         d="m 643.14,382.987 h 11.918 l 25.178,59.169 h -13.513 l -5.371,-13.176 h -24.843 l -5.371,13.176 h -13.176 z m 13.595,34.579 -7.805,-19.053 -7.806,19.053 z"
         id="path1450" />
      <polygon
         style="fill:#0190b8;stroke-width:6.23516846"
         clip-path="url(#SVGID_2_-4)"
         points="703.816,442.156 703.816,395.325 685.94,395.325 685.94,383.407 734.617,383.407 734.617,395.325 716.741,395.325 716.741,442.156 "
         id="polygon1452" />
      <polygon
         style="fill:#0190b8;stroke-width:6.23516846"
         clip-path="url(#SVGID_2_-4)"
         points="752.912,442.156 752.912,383.407 797.225,383.407 797.225,394.905 765.752,394.905 765.752,406.824 793.448,406.824 793.448,418.322 765.752,418.322 765.752,430.658 797.645,430.658 797.645,442.156 "
         id="polygon1454" />
      <path
         style="fill:#0190b8;stroke-width:6.23516846"
         inkscape:connector-curvature="0"
         clip-path="url(#SVGID_2_-4)"
         d="m 817.534,383.407 h 22.912 c 18.464,0 31.22,12.674 31.22,29.205 v 0.17 c 0,16.533 -12.756,29.374 -31.22,29.374 h -22.912 z m 12.924,11.665 v 35.419 h 9.988 c 10.575,0 17.709,-7.137 17.709,-17.54 v -0.169 c 0,-10.407 -7.134,-17.71 -17.709,-17.71 z"
         id="path1456" />
      <path
         style="fill:#0190b8;stroke-width:6.23516846"
         inkscape:connector-curvature="0"
         clip-path="url(#SVGID_2_-4)"
         d="m 945.268,382.987 h 11.918 l 25.177,59.169 H 968.851 L 963.48,428.98 h -24.841 l -5.372,13.176 h -13.178 z m 13.596,34.579 -7.805,-19.053 -7.804,19.053 z"
         id="path1458" />
      <path
         style="fill:#0190b8;stroke-width:6.23516846"
         inkscape:connector-curvature="0"
         clip-path="url(#SVGID_2_-4)"
         d="m 999.816,383.407 h 24.004 c 14.016,0 22.492,8.31 22.492,20.31 v 0.169 c 0,13.596 -10.574,20.646 -23.75,20.646 h -9.821 v 17.625 h -12.925 z m 23.166,29.626 c 6.463,0 10.238,-3.86 10.238,-8.896 v -0.167 c 0,-5.791 -4.029,-8.897 -10.491,-8.897 h -9.988 v 17.961 h 10.241 z"
         id="path1460" />
      <path
         style="fill:#0190b8;stroke-width:6.23516846"
         inkscape:connector-curvature="0"
         clip-path="url(#SVGID_2_-4)"
         d="m 1064.271,383.407 h 24.004 c 14.016,0 22.492,8.31 22.492,20.31 v 0.169 c 0,13.596 -10.574,20.646 -23.75,20.646 h -9.82 v 17.625 h -12.926 z m 23.166,29.626 c 6.463,0 10.238,-3.86 10.238,-8.896 v -0.167 c 0,-5.791 -4.029,-8.897 -10.491,-8.897 h -9.987 v 17.961 h 10.24 z"
         id="path1462" />
      <polygon
         style="fill:#0190b8;stroke-width:6.23516846"
         clip-path="url(#SVGID_2_-4)"
         points="1128.726,442.156 1128.726,383.407 1141.65,383.407 1141.65,430.407 1170.94,430.407 1170.94,442.156 "
         id="polygon1464" />
      <rect
         style="fill:#0190b8;stroke-width:6.23516846"
         x="1189.6541"
         y="383.40701"
         clip-path="url(#SVGID_2_-4)"
         width="12.926"
         height="58.749001"
         id="rect1466" />
      <path
         style="fill:#0190b8;stroke-width:6.23516846"
         inkscape:connector-curvature="0"
         clip-path="url(#SVGID_2_-4)"
         d="m 1223.057,412.951 v -0.17 c 0,-16.7 12.587,-30.382 30.632,-30.382 11.078,0 17.71,3.694 23.163,9.066 l -8.225,9.481 c -4.531,-4.11 -9.146,-6.63 -15.022,-6.63 -9.903,0 -17.036,8.227 -17.036,18.295 v 0.169 c 0,10.071 6.964,18.464 17.036,18.464 6.716,0 10.827,-2.686 15.442,-6.882 l 8.226,8.309 c -6.043,6.462 -12.757,10.491 -24.088,10.491 -17.289,0.001 -30.128,-13.345 -30.128,-30.211"
         id="path1468" />
      <path
         style="fill:#0190b8;stroke-width:6.23516846"
         inkscape:connector-curvature="0"
         clip-path="url(#SVGID_2_-4)"
         d="m 1316.127,382.987 h 11.919 l 25.177,59.169 h -13.512 l -5.372,-13.176 h -24.841 l -5.371,13.176 h -13.179 z m 13.597,34.579 -7.805,-19.053 -7.806,19.053 z"
         id="path1470" />
      <polygon
         style="fill:#0190b8;stroke-width:6.23516846"
         clip-path="url(#SVGID_2_-4)"
         points="1376.806,442.156 1376.806,395.325 1358.929,395.325 1358.929,383.407 1407.607,383.407 1407.607,395.325 1389.73,395.325 1389.73,442.156 "
         id="polygon1472" />
      <rect
         style="fill:#0190b8;stroke-width:6.23516846"
         x="1426.488"
         y="383.40701"
         clip-path="url(#SVGID_2_-4)"
         width="12.925"
         height="58.749001"
         id="rect1474" />
      <path
         style="fill:#0190b8;stroke-width:6.23516846"
         inkscape:connector-curvature="0"
         clip-path="url(#SVGID_2_-4)"
         d="m 1459.892,412.951 v -0.17 c 0,-16.7 13.177,-30.382 31.304,-30.382 18.13,0 31.137,13.513 31.137,30.213 v 0.169 c 0,16.7 -13.176,30.382 -31.304,30.382 -18.13,0 -31.137,-13.513 -31.137,-30.212 m 48.928,0 v -0.17 c 0,-10.071 -7.385,-18.464 -17.792,-18.464 -10.407,0 -17.625,8.227 -17.625,18.295 v 0.169 c 0,10.071 7.385,18.464 17.792,18.464 10.407,0 17.625,-8.225 17.625,-18.294"
         id="path1476" />
      <polygon
         style="fill:#0190b8;stroke-width:6.23516846"
         clip-path="url(#SVGID_2_-4)"
         points="1581.664,383.407 1594.423,383.407 1594.423,442.156 1583.427,442.156 1554.977,404.808 1554.977,442.156 1542.218,442.156 1542.218,383.407 1554.136,383.407 1581.664,419.58 "
         id="polygon1478" />
      <polygon
         style="fill:#0190b8;stroke-width:6.23516846"
         clip-path="url(#SVGID_2_-4)"
         points="1650.48,442.156 1650.48,383.407 1694.795,383.407 1694.795,394.905 1663.321,394.905 1663.321,406.824 1691.018,406.824 1691.018,418.322 1663.321,418.322 1663.321,430.658 1695.213,430.658 1695.213,442.156 "
         id="polygon1480" />
      <polygon
         style="fill:#0190b8;stroke-width:6.23516846"
         clip-path="url(#SVGID_2_-4)"
         points="1754.548,383.407 1767.306,383.407 1767.306,442.156 1756.31,442.156 1727.859,404.808 1727.859,442.156 1715.102,442.156 1715.102,383.407 1727.02,383.407 1754.548,419.58 "
         id="polygon1482" />
      <path
         style="fill:#0190b8;stroke-width:6.23516846"
         inkscape:connector-curvature="0"
         clip-path="url(#SVGID_2_-4)"
         d="m 1787.193,412.951 v -0.17 c 0,-16.7 13.008,-30.382 30.802,-30.382 10.574,0 16.952,2.854 23.079,8.057 l -8.141,9.819 c -4.533,-3.774 -8.561,-5.958 -15.358,-5.958 -9.401,0 -16.87,8.309 -16.87,18.295 v 0.169 c 0,10.742 7.385,18.633 17.792,18.633 4.7,0 8.896,-1.177 12.17,-3.525 v -8.394 h -13.01 v -11.162 h 25.515 v 25.514 c -6.043,5.121 -14.352,9.316 -25.095,9.316 -18.296,0 -30.884,-12.842 -30.884,-30.212"
         id="path1484" />
      <rect
         style="fill:#0190b8;stroke-width:6.23516846"
         x="1864.573"
         y="383.40701"
         clip-path="url(#SVGID_2_-4)"
         width="12.925"
         height="58.749001"
         id="rect1486" />
      <polygon
         style="fill:#0190b8;stroke-width:6.23516846"
         clip-path="url(#SVGID_2_-4)"
         points="1940.021,383.407 1952.779,383.407 1952.779,442.156 1941.783,442.156 1913.333,404.808 1913.333,442.156 1900.574,442.156 1900.574,383.407 1912.493,383.407 1940.021,419.58 "
         id="polygon1488" />
      <polygon
         style="fill:#0190b8;stroke-width:6.23516846"
         clip-path="url(#SVGID_2_-4)"
         points="1975.267,442.156 1975.267,383.407 2019.582,383.407 2019.582,394.905 1988.107,394.905 1988.107,406.824 2015.805,406.824 2015.805,418.322 1988.107,418.322 1988.107,430.658 2020,430.658 2020,442.156 "
         id="polygon1490" />
    </g>
  </g>
</svg>
