<svg id="visual" xmlns="http://www.w3.org/2000/svg" viewBox="0 0 22 22"><defs><style>.cls-1{fill:#eaeef1;}.cls-2{fill:none;stroke:#bb0a30;stroke-miterlimit:10;}.cls-3{fill:#bb0a30;}</style></defs><rect class="cls-1" x="1" y="1" width="20" height="20" rx="7"/><line class="cls-2" x1="16" y1="2" x2="16" y2="8"/><line class="cls-2" x1="13" y1="5" x2="19" y2="5"/><line class="cls-2" x1="13.88" y1="7.12" x2="18.12" y2="2.88"/><line class="cls-2" x1="18.12" y1="7.12" x2="13.88" y2="2.88"/><path class="cls-3" d="M15.42,13.22a2.69,2.69,0,0,0,.38-1.42A2.87,2.87,0,0,0,12.64,9H10.81A3.26,3.26,0,0,0,9.42,7.22,2.69,2.69,0,0,0,9.8,5.8,2.87,2.87,0,0,0,6.64,3H4A1,1,0,0,0,3,4v8.4a1,1,0,0,0,1,1H7.09A5,5,0,0,0,9,13.06V18.4a1,1,0,0,0,1,1h3.09C16,19.4,17,17.65,17,16A3.29,3.29,0,0,0,15.42,13.22ZM13.8,11.8c0,.66-.63.8-1.16.8H11V11h1.64C12.91,11,13.8,11.06,13.8,11.8ZM5,5H6.64c.27,0,1.16.06,1.16.8s-.63.8-1.16.8H5Zm2.09,6.4H5V8.6H7.07C8.59,8.6,9,9.49,9,10S8.78,11.4,7.09,11.4Zm6,6H11V14.6h2.07c1.52,0,1.93.89,1.93,1.41S14.78,17.4,13.09,17.4Z"/></svg>