<svg id="visual" xmlns="http://www.w3.org/2000/svg" viewBox="0 0 22 22"><defs><style>.cls-1{fill:#eaeef1;}.cls-2,.cls-3{fill:none;stroke:#bb0a30;}.cls-2{stroke-miterlimit:10;}.cls-3{stroke-linecap:round;stroke-linejoin:round;stroke-width:2px;}.cls-4{fill:#bb0a30;}</style></defs><rect class="cls-1" x="1" y="1" width="20" height="20" rx="7"/><line class="cls-2" x1="16" y1="2" x2="16" y2="8"/><line class="cls-2" x1="13" y1="5" x2="19" y2="5"/><line class="cls-2" x1="13.88" y1="7.12" x2="18.12" y2="2.88"/><line class="cls-2" x1="18.12" y1="7.12" x2="13.88" y2="2.88"/><path class="cls-3" d="M16,11.4a4.67,4.67,0,1,0,0,6.53"/><path class="cls-4" d="M10,5a3.92,3.92,0,0,1,2.06.59A3.93,3.93,0,0,1,12,5a3.92,3.92,0,0,1,.31-1.54A6,6,0,0,0,7.66,14.53a1.09,1.09,0,0,0,.39.08,1,1,0,0,0,.39-1.92A4,4,0,0,1,10,5Z"/></svg>