<svg id="visual" xmlns="http://www.w3.org/2000/svg" viewBox="0 0 22 22"><defs><style>.cls-1{fill:#cfd1d2;}.cls-2{fill:none;stroke:#cfd1d2;stroke-miterlimit:10;stroke-width:2px;}</style></defs><title>buttonMissingDisabled</title><rect class="cls-1" x="9.41" y="14.23" width="2.58" height="2.53"/><path class="cls-1" d="M13.48,10.7c-.71.52-1.47,1-1.62,1.92v.63H9.64v-.74a3.27,3.27,0,0,1,1.43-2.59c.65-.5,1.2-.88,1.2-1.77a1.29,1.29,0,0,0-1.39-1.48c-1.19,0-1.68,1-1.7,2.14H6.76a3.88,3.88,0,0,1,4-4.07c3.11,0,4.1,1.91,4.1,3.18A3.08,3.08,0,0,1,13.48,10.7Z"/><polyline class="cls-2" points="17 9.36 20 12.36 17 15.36"/><polyline class="cls-2" points="5 15.36 2 12.36 5 9.36"/></svg>