<svg id="visual" xmlns="http://www.w3.org/2000/svg" viewBox="0 0 22 22"><defs><style>.cls-1,.cls-4{fill:none;stroke:#cfd1d2;stroke-miterlimit:10;}.cls-1{stroke-width:2px;}.cls-2{fill:#fbfbfd;}.cls-3{fill:#cfd1d2;}</style></defs><title>exportPDFDisabled</title><path class="cls-1" d="M17,19H5V3h8.3L17,6.7Z"/><polyline class="cls-1" points="13 3 13 7 17 7"/><circle class="cls-2" cx="17" cy="17" r="4"/><line class="cls-1" x1="17" y1="15" x2="17" y2="18.11"/><polygon class="cls-3" points="19.19 17.81 14.81 17.81 17 20 19.19 17.81"/><path class="cls-4" d="M9.71,8.63c-.28-1.3.14-1.57.51-1.6s.69.5.6,1.25A35,35,0,0,1,8.67,14.8c-.44.71-1.24,1.32-1.72.8s0-1,.85-1.4,4.73-1.79,5.84-1.58c.56.1.94.39.57.91s-1.23.36-1.7-.2A18.34,18.34,0,0,1,9.71,8.63Z"/></svg>