<svg id="visual" xmlns="http://www.w3.org/2000/svg" viewBox="0 0 22 22"><defs><style>.cls-1{fill:none;stroke:#008fb8;stroke-miterlimit:10;stroke-width:2px;}.cls-2{fill:#008fb8;}</style></defs><title>exportGridPPT</title><polygon class="cls-1" points="12 19.37 2.81 17.65 2.81 4.35 12 2.63 12 19.37"/><rect class="cls-1" x="12" y="5" width="7" height="12"/><line class="cls-1" x1="12" y1="14" x2="17" y2="14"/><path class="cls-2" d="M14,7.78A2.22,2.22,0,1,0,16.22,10H14Z"/><path class="cls-2" d="M15,6.78V9h2.22A2.21,2.21,0,0,0,15,6.78Z"/><path class="cls-2" d="M5.11,7.43l1.95-.16a3.44,3.44,0,0,1,2.36.42,2.34,2.34,0,0,1,.76,2,2.5,2.5,0,0,1-.76,2,3.6,3.6,0,0,1-2.36.57H6.52v3l-1.41-.12Zm1.41,1.2V11h.6a1.59,1.59,0,0,0,1-.28,1.18,1.18,0,0,0,.31-.94,1.14,1.14,0,0,0-.31-.93,1.63,1.63,0,0,0-1-.21Z"/></svg>