<svg id="visual" xmlns="http://www.w3.org/2000/svg" viewBox="0 0 22 22"><defs><style>.cls-1{fill:#008fb8;}</style></defs><title>filterOptions</title><path class="cls-1" d="M18.85,12.5a7.58,7.58,0,0,0,0-3H16.8A5.51,5.51,0,0,0,16.16,8L17.62,6.5A8.22,8.22,0,0,0,15.5,4.38L14,5.84A5.51,5.51,0,0,0,12.5,5.2V3.15a7.58,7.58,0,0,0-3,0V5.2A5.51,5.51,0,0,0,8,5.84L6.5,4.38A8.22,8.22,0,0,0,4.38,6.5L5.84,8A5.51,5.51,0,0,0,5.2,9.5H3.15a7.58,7.58,0,0,0,0,3H5.2A5.51,5.51,0,0,0,5.84,14L4.38,15.5A8.22,8.22,0,0,0,6.5,17.62L8,16.16a5.51,5.51,0,0,0,1.54.64v2.05a7.58,7.58,0,0,0,3,0V16.8A5.51,5.51,0,0,0,14,16.16l1.46,1.46a8.22,8.22,0,0,0,2.12-2.12L16.16,14a5.51,5.51,0,0,0,.64-1.54ZM11,14a3,3,0,1,1,3-3A3,3,0,0,1,11,14Z"/></svg>