<?xml version="1.0" encoding="UTF-8" standalone="no"?>
<svg
   xmlns:dc="http://purl.org/dc/elements/1.1/"
   xmlns:cc="http://creativecommons.org/ns#"
   xmlns:rdf="http://www.w3.org/1999/02/22-rdf-syntax-ns#"
   xmlns:svg="http://www.w3.org/2000/svg"
   xmlns="http://www.w3.org/2000/svg"
   xmlns:sodipodi="http://sodipodi.sourceforge.net/DTD/sodipodi-0.dtd"
   xmlns:inkscape="http://www.inkscape.org/namespaces/inkscape"
   id="visual"
   viewBox="0 0 60 60"
   version="1.1"
   sodipodi:docname="keywords-60.svg"
   inkscape:version="0.92.3 (2405546, 2018-03-11)"
   width="60"
   height="60">
  <metadata
     id="metadata29">
    <rdf:RDF>
      <cc:Work
         rdf:about="">
        <dc:format>image/svg+xml</dc:format>
        <dc:type
           rdf:resource="http://purl.org/dc/dcmitype/StillImage" />
        <dc:title>newElementDisabled</dc:title>
      </cc:Work>
    </rdf:RDF>
  </metadata>
  <sodipodi:namedview
     pagecolor="#ffffff"
     bordercolor="#666666"
     borderopacity="1"
     objecttolerance="10"
     gridtolerance="10"
     guidetolerance="10"
     inkscape:pageopacity="0"
     inkscape:pageshadow="2"
     inkscape:window-width="1920"
     inkscape:window-height="1017"
     id="namedview27"
     showgrid="false"
     inkscape:pagecheckerboard="true"
     inkscape:zoom="2.8284271"
     inkscape:cx="29.854504"
     inkscape:cy="35.136287"
     inkscape:window-x="-8"
     inkscape:window-y="-8"
     inkscape:window-maximized="1"
     inkscape:current-layer="visual" />
  <defs
     id="defs4">
    <style
       id="style2">.cls-1{fill:none;stroke:#cfd1d2;stroke-miterlimit:10;}.cls-2{fill:#cfd1d2;}</style>
  </defs>
  <title
     id="title6">newElementDisabled</title>
  <path
     inkscape:connector-curvature="0"
     id="circle8"
     style="fill:#fbfbfd;stroke-width:0.52303648"
     d="M 57.861359,30.124737 A 27.720932,27.720932 0 0 1 30.140429,57.845671 27.720932,27.720932 0 0 1 2.4194944,30.124737 27.720932,27.720932 0 0 1 30.140429,2.4038057 27.720932,27.720932 0 0 1 57.861359,30.124737 Z" />
  <path
     d="m 20.030732,35.37582 v -4.025132 h 20.125664 v 0.550311 a 8.5704936,8.5704936 0 0 0 -6.14383,3.474821 z"
     id="path16"
     style="fill:#454952;fill-opacity:1;stroke-width:2.01256657"
     inkscape:connector-curvature="0" />
  <rect
     class="cls-2"
     x="20.030733"
     y="-23.300423"
     width="20.125666"
     height="4.0251331"
     id="rect18"
     style="fill:#454952;fill-opacity:1;stroke-width:2.01256657"
     transform="scale(1,-1)" />
  <rect
     class="cls-2"
     x="20.030733"
     y="-29.338121"
     width="20.125666"
     height="4.0251331"
     id="rect20"
     style="fill:#454952;fill-opacity:1;stroke-width:2.01256657"
     transform="scale(1,-1)" />
  <path
     d="m 20.030732,41.41352 v -4.025132 h 12.912659 a 8.5704936,8.5704936 0 0 0 -0.593551,3.132842 8.5704936,8.5704936 0 0 0 0.04717,0.89229 z"
     id="path22"
     style="fill:#454952;fill-opacity:1;stroke-width:2.01256657"
     inkscape:connector-curvature="0" />
  <path
     d="M 13.993032,47.45122 V 13.237589 h 32.201064 v 20.408682 a 8.231397,8.231397 0 0 0 -0.290878,-0.06289 8.5704936,8.5704936 0 0 0 -3.734254,-1.580178 V 17.262723 H 18.018165 v 26.163364 h 14.760131 a 8.5704936,8.5704936 0 0 0 3.089606,4.025133 z"
     id="path24"
     style="fill:#454952;fill-opacity:1;stroke-width:2.01256657"
     inkscape:connector-curvature="0" />
  <path
     inkscape:connector-curvature="0"
     id="path8"
     d="m 45.041227,44.010887 -1.765423,-1.765422 a 3.5259123,3.5259123 0 1 0 -0.576969,0.576968 l 1.770354,1.775285 a 0.41495232,0.41495232 0 1 0 0.58683,-0.586831 z m -7.194835,-3.984528 a 2.692515,2.692515 0 1 1 2.692514,2.692517 2.6974461,2.6974461 0 0 1 -2.692514,-2.692517 z"
     style="display:inline;stroke:#454952;stroke-width:2.47353244;stroke-miterlimit:4;stroke-dasharray:none;stroke-opacity:1" />
</svg>
