<svg id="visual" xmlns="http://www.w3.org/2000/svg" viewBox="0 0 150 60"><defs><style>.cls-1{fill:#008fb8;}</style></defs><title>top-logic</title><path class="cls-1" d="M50.89,15.56h-9.4v3.73l.65,1.14a11.44,11.44,0,0,1,.69,1.46v-5h8.06a6.06,6.06,0,1,1,0,12.12H42.83V26.6h0c0-.25,0-.49,0-.74h0a10.31,10.31,0,0,0-10.3-10.3H7.12v1.34h8.74V36.15h1.33V16.89H32.53a9,9,0,0,1,9,9h0a9,9,0,1,1-12.86-8.07H26.14A10.29,10.29,0,1,0,41.49,30.92v5.23h1.34v-5.8h8.06a7.4,7.4,0,0,0,0-14.79ZM41.77,30.41l0,.06Zm.43-1h0Zm-.2.5L42,30Z"/><path class="cls-1" d="M60,15.74h4.52V32.17H74.73v4.11H60Z"/><path class="cls-1" d="M73.85,26.07V26A10.92,10.92,0,0,1,95.68,26V26a10.92,10.92,0,0,1-21.83.06Zm17.1,0V26a6.24,6.24,0,0,0-6.22-6.46A6.15,6.15,0,0,0,78.57,26V26a6.23,6.23,0,0,0,6.22,6.45A6.14,6.14,0,0,0,91,26.07Z"/><path class="cls-1" d="M96.59,26.07V26a10.53,10.53,0,0,1,10.76-10.62,11.27,11.27,0,0,1,8.07,2.81l-2.84,3.44a7.59,7.59,0,0,0-5.37-2.09,6.17,6.17,0,0,0-5.9,6.4V26a6.15,6.15,0,0,0,6.22,6.51,7.26,7.26,0,0,0,4.26-1.23V28.35h-4.55v-3.9h8.92v8.92a13.36,13.36,0,0,1-8.78,3.26C101,36.63,96.59,32.14,96.59,26.07Z"/><path class="cls-1" d="M118.5,15.74H123V36.28H118.5Z"/><path class="cls-1" d="M125.05,26.07V26a10.44,10.44,0,0,1,10.71-10.62,10.6,10.6,0,0,1,8.09,3.16L141,21.87a7.59,7.59,0,0,0-5.25-2.32,6.09,6.09,0,0,0-6,6.4V26c0,3.52,2.44,6.45,6,6.45a7.42,7.42,0,0,0,5.39-2.4L144,33a10.49,10.49,0,0,1-8.42,3.67A10.37,10.37,0,0,1,125.05,26.07Z"/><path class="cls-1" d="M8.34,41.07H7.12v-.81h3.33v.81H9.23v3.21H8.34Z"/><path class="cls-1" d="M11.7,40.26h.89v1.59h1.63V40.26h.88v4h-.88V42.66H12.59v1.62H11.7Z"/><path class="cls-1" d="M16.64,40.26h3V41H17.52v.82h1.9v.79h-1.9v.84H19.7v.79H16.64Z"/><path class="cls-1" d="M24.74,40.23h.82l1.72,4.05h-.93l-.36-.9h-1.7l-.37.9H23Zm.93,2.37-.53-1.31L24.6,42.6Z"/><path class="cls-1" d="M28.27,42.56v-2.3h.88v2.27c0,.66.33,1,.87,1s.87-.33.87-1v-2.3h.88v2.27A1.62,1.62,0,0,1,30,44.34,1.59,1.59,0,0,1,28.27,42.56Z"/><path class="cls-1" d="M34.18,41.07H33v-.81h3.33v.81H35.07v3.21h-.89Z"/><path class="cls-1" d="M37.19,42.28h0a2.08,2.08,0,0,1,2.15-2.08,2.06,2.06,0,0,1,2.13,2.07h0a2.09,2.09,0,0,1-2.15,2.08A2.06,2.06,0,0,1,37.19,42.28Zm3.35,0h0A1.22,1.22,0,0,0,39.32,41a1.21,1.21,0,0,0-1.2,1.26h0a1.22,1.22,0,0,0,1.22,1.26A1.2,1.2,0,0,0,40.54,42.28Z"/><path class="cls-1" d="M42.83,40.26h1L44.84,42l1-1.7h1v4H46V41.65l-1.13,1.72h0l-1.12-1.7v2.61h-.86Z"/><path class="cls-1" d="M49.77,40.23h.81l1.73,4.05h-.93l-.37-.9h-1.7l-.37.9H48Zm.93,2.37-.54-1.31-.53,1.31Z"/><path class="cls-1" d="M53.92,41.07H52.7v-.81H56v.81H54.8v3.21h-.88Z"/><path class="cls-1" d="M57.28,40.26h3V41H58.16v.82h1.89v.79H58.16v.84h2.18v.79H57.28Z"/><path class="cls-1" d="M61.7,40.26h1.57a2,2,0,0,1,2.14,2h0a2,2,0,0,1-2.14,2H61.7Zm.89.8v2.42h.68a1.15,1.15,0,0,0,1.21-1.2h0a1.15,1.15,0,0,0-1.21-1.21Z"/><path class="cls-1" d="M70.44,40.23h.82L73,44.28h-.92l-.37-.9H70l-.37.9h-.9Zm.93,2.37-.53-1.31-.53,1.31Z"/><path class="cls-1" d="M74.18,40.26h1.64a1.38,1.38,0,0,1,1.54,1.39h0c0,.93-.72,1.41-1.63,1.41h-.67v1.21h-.88Zm1.58,2a.62.62,0,0,0,.7-.61h0c0-.4-.27-.61-.71-.61h-.69v1.23Z"/><path class="cls-1" d="M78.59,40.26h1.64a1.38,1.38,0,0,1,1.54,1.39h0a1.43,1.43,0,0,1-1.62,1.41h-.68v1.21h-.88Zm1.58,2a.63.63,0,0,0,.71-.61h0c0-.4-.28-.61-.72-.61h-.69v1.23Z"/><path class="cls-1" d="M83,40.26h.88v3.21h2v.81H83Z"/><path class="cls-1" d="M87.17,40.26h.88v4h-.88Z"/><path class="cls-1" d="M89.46,42.28h0a2,2,0,0,1,2.09-2.08,2.08,2.08,0,0,1,1.59.62l-.56.65a1.51,1.51,0,0,0-1-.46,1.2,1.2,0,0,0-1.17,1.26h0a1.19,1.19,0,0,0,1.17,1.26,1.41,1.41,0,0,0,1-.47l.57.57a2.08,2.08,0,0,1-1.65.72A2,2,0,0,1,89.46,42.28Z"/><path class="cls-1" d="M95.83,40.23h.81l1.72,4.05h-.92l-.37-.9h-1.7l-.37.9h-.9Zm.93,2.37-.54-1.31-.53,1.31Z"/><path class="cls-1" d="M100,41.07H98.76v-.81h3.33v.81h-1.23v3.21H100Z"/><path class="cls-1" d="M103.38,40.26h.88v4h-.88Z"/><path class="cls-1" d="M105.67,42.28h0a2.08,2.08,0,0,1,2.14-2.08,2.06,2.06,0,0,1,2.13,2.07h0a2.14,2.14,0,0,1-4.27,0Zm3.34,0h0A1.22,1.22,0,0,0,107.8,41a1.21,1.21,0,0,0-1.21,1.26h0a1.22,1.22,0,0,0,1.22,1.26A1.2,1.2,0,0,0,109,42.28Z"/><path class="cls-1" d="M111.3,40.26h.82L114,42.73V40.26h.87v4h-.75l-2-2.56v2.56h-.87Z"/><path class="cls-1" d="M118.71,40.26h3V41h-2.15v.82h1.89v.79h-1.89v.84h2.18v.79h-3.06Z"/><path class="cls-1" d="M123.13,40.26H124l1.88,2.47V40.26h.88v4H126L124,41.72v2.56h-.88Z"/><path class="cls-1" d="M128.07,42.28h0a2.06,2.06,0,0,1,2.1-2.08,2.18,2.18,0,0,1,1.58.55l-.55.67a1.48,1.48,0,0,0-1-.41A1.21,1.21,0,0,0,129,42.26h0a1.21,1.21,0,0,0,1.22,1.27,1.4,1.4,0,0,0,.83-.24v-.57h-.89V42h1.75v1.75a2.62,2.62,0,0,1-1.72.64A2,2,0,0,1,128.07,42.28Z"/><path class="cls-1" d="M133.36,40.26h.89v4h-.89Z"/><path class="cls-1" d="M135.83,40.26h.81l1.89,2.47V40.26h.87v4h-.75l-2-2.56v2.56h-.87Z"/><path class="cls-1" d="M140.94,40.26h3V41h-2.15v.82h1.89v.79h-1.89v.84H144v.79h-3.06Z"/></svg>