<?xml version="1.0" encoding="UTF-8"?>
<!-- Generator: Adobe Illustrator 16.0.0, SVG Export Plug-In . SVG Version: 6.00 Build 0)  -->
<!DOCTYPE svg PUBLIC "-//W3C//DTD SVG 1.1//EN" "http://www.w3.org/Graphics/SVG/1.1/DTD/svg11.dtd">
<svg version="1.1" id="Layer_1" xmlns="http://www.w3.org/2000/svg" xmlns:xlink="http://www.w3.org/1999/xlink" x="0px" y="0px" width="2040px" height="463.163px" viewBox="0 0 2040 463.163" enable-background="new 0 0 2040 463.163" xml:space="preserve">
<g>
	<defs>
		<rect id="SVGID_1_" width="2040" height="463.163"/>
	</defs>
	<clipPath id="SVGID_2_">
		<use xlink:href="#SVGID_1_" overflow="visible"/>
	</clipPath>
	<path clip-path="url(#SVGID_2_)" fill="#0190B8" d="M659.568,22.6H529.596h-7.309v54.456l9.415,16.623   c3.889,6.865,7.236,14.005,10.062,21.337V42.077h117.804c48.824,0,88.543,39.719,88.543,88.542   c0,48.823-39.719,88.543-88.543,88.543H541.764v-35.334h-0.396c0.255-3.575,0.396-7.181,0.396-10.821   c0-26.907-7.1-52.142-19.477-73.995c-25.833-45.61-74.77-76.412-130.93-76.412h-0.001v-0.156H20V41.92h127.722v281.495h19.477   V41.92h150.434h73.723v0.157h0.001c72.195,0,130.93,58.735,130.93,130.93c0,72.196-58.735,130.932-130.93,130.932   c-72.196,0-130.93-58.735-130.93-130.932c0-51.767,30.203-96.608,73.91-117.841h-36.379   c-34.722,27.544-57.009,70.077-57.009,117.841c0,83.068,67.34,150.408,150.408,150.408c56.16,0,105.097-30.802,130.93-76.413   v76.413h19.477v-84.776h117.804c59.562,0,108.02-48.458,108.02-108.02S719.13,22.6,659.568,22.6 M526.272,239.453   c-0.157,0.315-0.32,0.629-0.478,0.944C525.953,240.082,526.116,239.769,526.272,239.453 M532.613,224.667   c-0.012,0.033-0.023,0.067-0.036,0.101C532.59,224.734,532.601,224.7,532.613,224.667 M529.74,231.897   c-0.13,0.307-0.261,0.612-0.394,0.918C529.479,232.509,529.61,232.204,529.74,231.897"/>
	<polygon clip-path="url(#SVGID_2_)" fill="#0190B8" points="792.26,25.144 858.279,25.144 858.279,265.213 1007.891,265.213    1007.891,325.23 792.26,325.23  "/>
	<path clip-path="url(#SVGID_2_)" fill="#0190B8" d="M995.023,176.044v-0.856c0-85.31,67.306-155.188,159.902-155.188   c92.598,0,159.045,69.02,159.045,154.33v0.858c0,85.31-67.306,155.186-159.902,155.186   C1061.471,330.374,995.023,261.354,995.023,176.044 M1244.948,176.044v-0.856c0-51.445-37.724-94.313-90.88-94.313   s-90.028,42.013-90.028,93.455v0.858c0,51.443,37.724,94.311,90.886,94.311C1208.082,269.499,1244.948,227.488,1244.948,176.044"/>
	<path clip-path="url(#SVGID_2_)" fill="#0190B8" d="M1327.247,176.044v-0.856c0-85.31,66.448-155.188,157.328-155.188   c54.015,0,86.595,14.576,117.894,41.154l-41.586,50.159c-23.146-19.292-43.727-30.438-78.447-30.438   c-48.018,0-86.171,42.441-86.171,93.455v0.858c0,54.873,37.724,95.169,90.886,95.169c24.003,0,45.438-6.002,62.156-18.004v-42.871   h-66.442v-57.015h130.321v130.321c-30.869,26.152-73.309,47.586-128.181,47.586C1391.55,330.374,1327.247,264.784,1327.247,176.044   "/>
	<rect x="1647.479" y="25.144" clip-path="url(#SVGID_2_)" fill="#0190B8" width="66.019" height="300.086"/>
	<path clip-path="url(#SVGID_2_)" fill="#0190B8" d="M1743.067,176.044v-0.856c0-85.31,64.303-155.188,156.471-155.188   c56.589,0,90.456,18.862,118.321,46.298l-42.015,48.444c-23.146-21.008-46.726-33.867-76.736-33.867   c-50.581,0-87.023,42.013-87.023,93.455v0.858c0,51.443,35.584,94.311,87.023,94.311c34.297,0,55.302-13.719,78.882-35.151   l42.01,42.44c-30.864,33.011-65.16,53.586-123.033,53.586C1808.657,330.374,1743.067,262.213,1743.067,176.044"/>
	<polygon clip-path="url(#SVGID_2_)" fill="#0190B8" points="37.876,395.325 20,395.325 20,383.407 68.678,383.407 68.678,395.325    50.801,395.325 50.801,442.156 37.876,442.156  "/>
	<polygon clip-path="url(#SVGID_2_)" fill="#0190B8" points="86.972,383.407 99.896,383.407 99.896,406.655 123.731,406.655    123.731,383.407 136.657,383.407 136.657,442.156 123.731,442.156 123.731,418.573 99.896,418.573 99.896,442.156 86.972,442.156     "/>
	<polygon clip-path="url(#SVGID_2_)" fill="#0190B8" points="159.147,383.407 203.46,383.407 203.46,394.905 171.988,394.905    171.988,406.824 199.685,406.824 199.685,418.322 171.988,418.322 171.988,430.658 203.88,430.658 203.88,442.156 159.147,442.156     "/>
	<path clip-path="url(#SVGID_2_)" fill="#0190B8" d="M277.48,382.987h11.918l25.178,59.169h-13.513l-5.371-13.176h-24.843   l-5.371,13.176h-13.176L277.48,382.987z M291.076,417.566l-7.805-19.053l-7.806,19.053H291.076z"/>
	<path clip-path="url(#SVGID_2_)" fill="#0190B8" d="M329.01,416.978v-33.57h12.925v33.233c0,9.57,4.784,14.522,12.673,14.522   c7.889,0,12.673-4.786,12.673-14.101v-33.655h12.925v33.149c0,17.795-9.987,26.522-25.766,26.522   C338.662,443.079,329.01,434.267,329.01,416.978"/>
	<polygon clip-path="url(#SVGID_2_)" fill="#0190B8" points="415.452,395.325 397.576,395.325 397.576,383.407 446.254,383.407    446.254,395.325 428.376,395.325 428.376,442.156 415.452,442.156  "/>
	<path clip-path="url(#SVGID_2_)" fill="#0190B8" d="M459.428,412.951v-0.17c0-16.7,13.177-30.382,31.305-30.382   s31.137,13.513,31.137,30.213v0.169c0,16.7-13.177,30.382-31.305,30.382C472.437,443.163,459.428,429.65,459.428,412.951    M508.358,412.951v-0.17c0-10.071-7.386-18.464-17.793-18.464c-10.407,0-17.624,8.227-17.624,18.295v0.169   c0,10.071,7.385,18.464,17.792,18.464S508.358,423.02,508.358,412.951"/>
	<polygon clip-path="url(#SVGID_2_)" fill="#0190B8" points="541.758,383.407 555.69,383.407 571.133,408.251 586.574,383.407    600.508,383.407 600.508,442.156 587.666,442.156 587.666,403.802 571.133,428.895 570.796,428.895 554.431,404.053    554.431,442.156 541.758,442.156  "/>
	<path clip-path="url(#SVGID_2_)" fill="#0190B8" d="M643.14,382.987h11.918l25.178,59.169h-13.513l-5.371-13.176h-24.843   l-5.371,13.176h-13.176L643.14,382.987z M656.735,417.566l-7.805-19.053l-7.806,19.053H656.735z"/>
	<polygon clip-path="url(#SVGID_2_)" fill="#0190B8" points="703.816,395.325 685.94,395.325 685.94,383.407 734.617,383.407    734.617,395.325 716.741,395.325 716.741,442.156 703.816,442.156  "/>
	<polygon clip-path="url(#SVGID_2_)" fill="#0190B8" points="752.912,383.407 797.225,383.407 797.225,394.905 765.752,394.905    765.752,406.824 793.448,406.824 793.448,418.322 765.752,418.322 765.752,430.658 797.645,430.658 797.645,442.156    752.912,442.156  "/>
	<path clip-path="url(#SVGID_2_)" fill="#0190B8" d="M817.534,383.407h22.912c18.464,0,31.22,12.674,31.22,29.205v0.17   c0,16.533-12.756,29.374-31.22,29.374h-22.912V383.407z M830.458,395.072v35.419h9.988c10.575,0,17.709-7.137,17.709-17.54v-0.169   c0-10.407-7.134-17.71-17.709-17.71H830.458z"/>
	<path clip-path="url(#SVGID_2_)" fill="#0190B8" d="M945.268,382.987h11.918l25.177,59.169h-13.512l-5.371-13.176h-24.841   l-5.372,13.176h-13.178L945.268,382.987z M958.864,417.566l-7.805-19.053l-7.804,19.053H958.864z"/>
	<path clip-path="url(#SVGID_2_)" fill="#0190B8" d="M999.816,383.407h24.004c14.016,0,22.492,8.31,22.492,20.31v0.169   c0,13.596-10.574,20.646-23.75,20.646h-9.821v17.625h-12.925V383.407z M1022.982,413.033c6.463,0,10.238-3.86,10.238-8.896v-0.167   c0-5.791-4.029-8.897-10.491-8.897h-9.988v17.961H1022.982z"/>
	<path clip-path="url(#SVGID_2_)" fill="#0190B8" d="M1064.271,383.407h24.004c14.016,0,22.492,8.31,22.492,20.31v0.169   c0,13.596-10.574,20.646-23.75,20.646h-9.82v17.625h-12.926V383.407z M1087.437,413.033c6.463,0,10.238-3.86,10.238-8.896v-0.167   c0-5.791-4.029-8.897-10.491-8.897h-9.987v17.961H1087.437z"/>
	<polygon clip-path="url(#SVGID_2_)" fill="#0190B8" points="1128.726,383.407 1141.65,383.407 1141.65,430.407 1170.94,430.407    1170.94,442.156 1128.726,442.156  "/>
	<rect x="1189.654" y="383.407" clip-path="url(#SVGID_2_)" fill="#0190B8" width="12.926" height="58.749"/>
	<path clip-path="url(#SVGID_2_)" fill="#0190B8" d="M1223.057,412.951v-0.17c0-16.7,12.587-30.382,30.632-30.382   c11.078,0,17.71,3.694,23.163,9.066l-8.225,9.481c-4.531-4.11-9.146-6.63-15.022-6.63c-9.903,0-17.036,8.227-17.036,18.295v0.169   c0,10.071,6.964,18.464,17.036,18.464c6.716,0,10.827-2.686,15.442-6.882l8.226,8.309c-6.043,6.462-12.757,10.491-24.088,10.491   C1235.896,443.163,1223.057,429.817,1223.057,412.951"/>
	<path clip-path="url(#SVGID_2_)" fill="#0190B8" d="M1316.127,382.987h11.919l25.177,59.169h-13.512l-5.372-13.176h-24.841   l-5.371,13.176h-13.179L1316.127,382.987z M1329.724,417.566l-7.805-19.053l-7.806,19.053H1329.724z"/>
	<polygon clip-path="url(#SVGID_2_)" fill="#0190B8" points="1376.806,395.325 1358.929,395.325 1358.929,383.407 1407.607,383.407    1407.607,395.325 1389.73,395.325 1389.73,442.156 1376.806,442.156  "/>
	<rect x="1426.488" y="383.407" clip-path="url(#SVGID_2_)" fill="#0190B8" width="12.925" height="58.749"/>
	<path clip-path="url(#SVGID_2_)" fill="#0190B8" d="M1459.892,412.951v-0.17c0-16.7,13.177-30.382,31.304-30.382   c18.13,0,31.137,13.513,31.137,30.213v0.169c0,16.7-13.176,30.382-31.304,30.382   C1472.899,443.163,1459.892,429.65,1459.892,412.951 M1508.82,412.951v-0.17c0-10.071-7.385-18.464-17.792-18.464   s-17.625,8.227-17.625,18.295v0.169c0,10.071,7.385,18.464,17.792,18.464S1508.82,423.02,1508.82,412.951"/>
	<polygon clip-path="url(#SVGID_2_)" fill="#0190B8" points="1542.218,383.407 1554.136,383.407 1581.664,419.58 1581.664,383.407    1594.423,383.407 1594.423,442.156 1583.427,442.156 1554.977,404.808 1554.977,442.156 1542.218,442.156  "/>
	<polygon clip-path="url(#SVGID_2_)" fill="#0190B8" points="1650.48,383.407 1694.795,383.407 1694.795,394.905 1663.321,394.905    1663.321,406.824 1691.018,406.824 1691.018,418.322 1663.321,418.322 1663.321,430.658 1695.213,430.658 1695.213,442.156    1650.48,442.156  "/>
	<polygon clip-path="url(#SVGID_2_)" fill="#0190B8" points="1715.102,383.407 1727.02,383.407 1754.548,419.58 1754.548,383.407    1767.306,383.407 1767.306,442.156 1756.31,442.156 1727.859,404.808 1727.859,442.156 1715.102,442.156  "/>
	<path clip-path="url(#SVGID_2_)" fill="#0190B8" d="M1787.193,412.951v-0.17c0-16.7,13.008-30.382,30.802-30.382   c10.574,0,16.952,2.854,23.079,8.057l-8.141,9.819c-4.533-3.774-8.561-5.958-15.358-5.958c-9.401,0-16.87,8.309-16.87,18.295v0.169   c0,10.742,7.385,18.633,17.792,18.633c4.7,0,8.896-1.177,12.17-3.525v-8.394h-13.01v-11.162h25.515v25.514   c-6.043,5.121-14.352,9.316-25.095,9.316C1799.781,443.163,1787.193,430.321,1787.193,412.951"/>
	<rect x="1864.573" y="383.407" clip-path="url(#SVGID_2_)" fill="#0190B8" width="12.925" height="58.749"/>
	<polygon clip-path="url(#SVGID_2_)" fill="#0190B8" points="1900.574,383.407 1912.493,383.407 1940.021,419.58 1940.021,383.407    1952.779,383.407 1952.779,442.156 1941.783,442.156 1913.333,404.808 1913.333,442.156 1900.574,442.156  "/>
	<polygon clip-path="url(#SVGID_2_)" fill="#0190B8" points="1975.267,383.407 2019.582,383.407 2019.582,394.905 1988.107,394.905    1988.107,406.824 2015.805,406.824 2015.805,418.322 1988.107,418.322 1988.107,430.658 2020,430.658 2020,442.156    1975.267,442.156  "/>
</g>
</svg>