<svg width="220" height="50" viewBox="0 0 220 50" fill="none" xmlns="http://www.w3.org/2000/svg">
<path d="M71.1299 2.43726H57.1133H56.3251V8.30997L57.3404 10.1026C57.7598 10.843 58.1208 11.613 58.4255 12.4037V4.53773H71.1299C76.3952 4.53773 80.6786 8.82115 80.6786 14.0864C80.6786 19.3516 76.3952 23.6351 71.1299 23.6351H58.4255V19.8246H58.3828C58.4103 19.4391 58.4255 19.0502 58.4255 18.6576C58.4255 15.7559 57.6598 13.0345 56.3251 10.6778C53.5392 5.75905 48.2616 2.43726 42.2052 2.43726H42.2051V2.42044H2.15686V4.52079H15.9308V34.8781H18.0313V4.52079H34.2545H42.2051V4.53773H42.2052C49.9909 4.53773 56.3251 10.8719 56.3251 18.6576C56.3251 26.4435 49.9909 32.7778 42.2052 32.7778C34.4193 32.7778 28.0853 26.4436 28.0853 18.6576C28.0853 13.0749 31.3424 8.23912 36.056 5.94928H32.1327C28.3882 8.91972 25.9847 13.5066 25.9847 18.6576C25.9847 27.6159 33.2469 34.8781 42.2052 34.8781C48.2616 34.8781 53.5392 31.5563 56.3251 26.6375V34.8781H58.4255V25.7356H71.1299C77.5532 25.7356 82.7791 20.5097 82.7791 14.0864C82.7791 7.66302 77.5532 2.43726 71.1299 2.43726ZM56.7548 25.8234C56.7379 25.8573 56.7203 25.8912 56.7033 25.9252C56.7204 25.8912 56.738 25.8575 56.7548 25.8234ZM57.4387 24.2288C57.4374 24.2324 57.4362 24.236 57.4348 24.2397C57.4362 24.236 57.4374 24.2324 57.4387 24.2288ZM57.1288 25.0085C57.1148 25.0416 57.1007 25.0745 57.0863 25.1075C57.1007 25.0745 57.1148 25.0416 57.1288 25.0085Z" fill="#2968C8"/>
<path d="M85.4398 2.71161H92.5595V28.6014H108.694V35.0738H85.4398V2.71161Z" fill="#2968C8"/>
<path d="M107.306 18.9851V18.8928C107.306 9.69272 114.565 2.15686 124.551 2.15686C134.537 2.15686 141.703 9.60019 141.703 18.8003V18.8928C141.703 28.0929 134.444 35.6286 124.458 35.6286C114.472 35.6286 107.306 28.1852 107.306 18.9851ZM134.259 18.9851V18.8928C134.259 13.3448 130.191 8.72181 124.458 8.72181C118.726 8.72181 114.749 13.2526 114.749 18.8003V18.8928C114.749 24.4406 118.818 29.0636 124.551 29.0636C130.283 29.0636 134.259 24.533 134.259 18.9851Z" fill="#2968C8"/>
<path d="M143.134 18.9851V18.8928C143.134 9.69272 150.3 2.15686 160.101 2.15686C165.926 2.15686 169.44 3.72878 172.815 6.59504L168.331 12.0043C165.834 9.92383 163.615 8.72181 159.871 8.72181C154.692 8.72181 150.578 13.2988 150.578 18.8003V18.8928C150.578 24.8105 154.646 29.1561 160.379 29.1561C162.968 29.1561 165.279 28.5089 167.082 27.2145V22.5912H159.917V16.4425H173.971V30.4967C170.642 33.3171 166.065 35.6286 160.148 35.6286C150.069 35.6286 143.134 28.5551 143.134 18.9851Z" fill="#2968C8"/>
<path d="M184.789 2.71161H177.669V35.0738H184.789V2.71161Z" fill="#2968C8"/>
<path d="M187.978 18.9851V18.8928C187.978 9.69272 194.912 2.15686 204.852 2.15686C210.955 2.15686 214.607 4.191 217.612 7.14978L213.081 12.3741C210.585 10.1086 208.042 8.72181 204.806 8.72181C199.351 8.72181 195.421 13.2526 195.421 18.8003V18.8928C195.421 24.4406 199.258 29.0636 204.806 29.0636C208.504 29.0636 210.77 27.5841 213.313 25.2728L217.843 29.8497C214.515 33.4097 210.816 35.6286 204.575 35.6286C195.051 35.6286 187.978 28.2779 187.978 18.9851Z" fill="#2968C8"/>
<path d="M4.08466 42.6331H2.15686V41.3478H7.40645V42.6331H5.47854V47.6835H4.08466V42.6331Z" fill="#2968C8"/>
<path d="M9.37933 41.3478H10.7731V43.8549H13.3435V41.3478H14.7375V47.6835H13.3435V45.1402H10.7731V47.6835H9.37933V41.3478Z" fill="#2968C8"/>
<path d="M17.1629 41.3478H21.9418V42.5878H18.5477V43.8732H21.5347V45.1131H18.5477V46.4435H21.9871V47.6835H17.1629V41.3478Z" fill="#2968C8"/>
<path d="M29.9243 41.3025H31.2096L33.9249 47.6835H32.4676L31.8884 46.2626H29.2092L28.63 47.6835H27.209L29.9243 41.3025ZM31.3905 45.0316L30.5488 42.9769L29.707 45.0316H31.3905Z" fill="#2968C8"/>
<path d="M35.4815 44.9682V41.3479H36.8753V44.9319C36.8753 45.9639 37.3913 46.498 38.242 46.498C39.0928 46.498 39.6087 45.9818 39.6087 44.9773V41.3478H41.0026V44.9227C41.0026 46.8418 39.9256 47.7829 38.2239 47.7829C36.5224 47.783 35.4815 46.8327 35.4815 44.9682Z" fill="#2968C8"/>
<path d="M44.8036 42.6331H42.8758V41.3478H48.1254V42.6331H46.1974V47.6835H44.8036V42.6331Z" fill="#2968C8"/>
<path d="M49.5462 44.5339V44.5156C49.5462 42.7146 50.9672 41.2391 52.9222 41.2391C54.8772 41.2391 56.2801 42.6964 56.2801 44.4974V44.5156C56.2801 46.3166 54.859 47.7921 52.9041 47.7921C50.9491 47.7921 49.5462 46.3348 49.5462 44.5339ZM54.8229 44.5339V44.5156C54.8229 43.4295 54.0264 42.5244 52.9041 42.5244C51.7817 42.5244 51.0034 43.4116 51.0034 44.4974V44.5156C51.0034 45.6017 51.7999 46.5068 52.9222 46.5068C54.0445 46.5068 54.8229 45.6198 54.8229 44.5339Z" fill="#2968C8"/>
<path d="M58.4249 41.3478H59.9274L61.5928 44.0271L63.258 41.3478H64.7607V47.6835H63.3757V43.5473L61.5928 46.2534H61.5564L59.7916 43.5743V47.6835H58.4249V41.3478Z" fill="#2968C8"/>
<path d="M69.3582 41.3025H70.6435L73.3588 47.6835H71.9015L71.3223 46.2626H68.6431L68.0639 47.6835H66.643L69.3582 41.3025ZM70.8244 45.0316L69.9826 42.9769L69.1408 45.0316H70.8244Z" fill="#2968C8"/>
<path d="M75.9017 42.6331H73.9739V41.3478H79.2234V42.6331H77.2956V47.6835H75.9017V42.6331Z" fill="#2968C8"/>
<path d="M81.1964 41.3478H85.9752V42.5878H82.5811V43.8732H85.5679V45.1131H82.5811V46.4435H86.0205V47.6835H81.1964V41.3478Z" fill="#2968C8"/>
<path d="M88.1654 41.3478H90.6363C92.6276 41.3478 94.0032 42.7146 94.0032 44.4974V44.5157C94.0032 46.2987 92.6276 47.6835 90.6363 47.6835H88.1654V41.3478ZM89.5592 42.6058V46.4255H90.6363C91.7768 46.4255 92.5461 45.6558 92.5461 44.5339V44.5157C92.5461 43.3934 91.7768 42.6058 90.6363 42.6058H89.5592Z" fill="#2968C8"/>
<path d="M101.941 41.3025H103.226L105.941 47.6835H104.484L103.905 46.2626H101.226L100.646 47.6835H99.2253L101.941 41.3025ZM103.407 45.0316L102.565 42.9769L101.724 45.0316H103.407Z" fill="#2968C8"/>
<path d="M107.823 41.3478H110.412C111.923 41.3478 112.838 42.244 112.838 43.5381V43.5563C112.838 45.0226 111.697 45.7829 110.276 45.7829H109.217V47.6836H107.823V41.3478ZM110.322 44.5428C111.019 44.5428 111.426 44.1265 111.426 43.5834V43.5654C111.426 42.9409 110.991 42.6059 110.294 42.6059H109.217V44.5429H110.322V44.5428Z" fill="#2968C8"/>
<path d="M114.774 41.3478H117.363C118.875 41.3478 119.789 42.244 119.789 43.5381V43.5563C119.789 45.0226 118.648 45.7829 117.227 45.7829H116.168V47.6836H114.774V41.3478ZM117.273 44.5428C117.97 44.5428 118.377 44.1265 118.377 43.5834V43.5654C118.377 42.9409 117.942 42.6059 117.245 42.6059H116.168V44.5429H117.273V44.5428Z" fill="#2968C8"/>
<path d="M121.725 41.3478H123.119V46.4164H126.278V47.6835H121.725V41.3478Z" fill="#2968C8"/>
<path d="M129.69 41.3478H128.296V47.6835H129.69V41.3478Z" fill="#2968C8"/>
<path d="M131.898 44.5339V44.5156C131.898 42.7146 133.256 41.2391 135.202 41.2391C136.396 41.2391 137.112 41.6375 137.7 42.2168L136.813 43.2393C136.324 42.796 135.826 42.5243 135.193 42.5243C134.125 42.5243 133.355 43.4115 133.355 44.4973V44.5155C133.355 45.6016 134.106 46.5067 135.193 46.5067C135.917 46.5067 136.36 46.217 136.858 45.7645L137.745 46.6606C137.093 47.3575 136.369 47.792 135.147 47.792C133.283 47.7921 131.898 46.3528 131.898 44.5339Z" fill="#2968C8"/>
<path d="M141.935 41.3025H143.221L145.936 47.6835H144.479L143.899 46.2626H141.22L140.641 47.6835H139.22L141.935 41.3025ZM143.402 45.0316L142.56 42.9769L141.718 45.0316H143.402Z" fill="#2968C8"/>
<path d="M148.479 42.6331H146.551V41.3478H151.801V42.6331H149.873V47.6835H148.479V42.6331Z" fill="#2968C8"/>
<path d="M155.231 41.3478H153.837V47.6835H155.231V41.3478Z" fill="#2968C8"/>
<path d="M157.439 44.5339V44.5156C157.439 42.7146 158.86 41.2391 160.815 41.2391C162.77 41.2391 164.173 42.6964 164.173 44.4974V44.5156C164.173 46.3166 162.752 47.7921 160.797 47.7921C158.842 47.7921 157.439 46.3348 157.439 44.5339ZM162.716 44.5339V44.5156C162.716 43.4295 161.919 42.5244 160.797 42.5244C159.675 42.5244 158.896 43.4116 158.896 44.4974V44.5156C158.896 45.6017 159.693 46.5068 160.815 46.5068C161.937 46.5068 162.716 45.6198 162.716 44.5339Z" fill="#2968C8"/>
<path d="M166.318 41.3478H167.603L170.572 45.2488V41.3478H171.948V47.6835H170.762L167.694 43.6558V47.6835H166.318V41.3478Z" fill="#2968C8"/>
<path d="M177.993 41.3478H182.772V42.5878H179.378V43.8732H182.365V45.1131H179.378V46.4435H182.817V47.6835H177.993V41.3478Z" fill="#2968C8"/>
<path d="M184.962 41.3478H186.247L189.216 45.2488V41.3478H190.592V47.6835H189.406L186.338 43.6558V47.6835H184.962V41.3478Z" fill="#2968C8"/>
<path d="M192.736 44.5339V44.5156C192.736 42.7146 194.139 41.2391 196.058 41.2391C197.199 41.2391 197.886 41.5469 198.547 42.108L197.669 43.1669C197.18 42.7599 196.746 42.5244 196.013 42.5244C194.999 42.5244 194.194 43.4204 194.194 44.4974V44.5156C194.194 45.674 194.99 46.525 196.112 46.525C196.619 46.525 197.072 46.3981 197.425 46.1449V45.2397H196.022V44.0359H198.773V46.7874C198.122 47.3397 197.226 47.7921 196.067 47.7921C194.094 47.7921 192.736 46.4072 192.736 44.5339Z" fill="#2968C8"/>
<path d="M202.475 41.3478H201.081V47.6835H202.475V41.3478Z" fill="#2968C8"/>
<path d="M204.964 41.3478H206.249L209.218 45.2488V41.3478H210.594V47.6835H209.408L206.34 43.6558V47.6835H204.964V41.3478Z" fill="#2968C8"/>
<path d="M213.019 41.3478H217.798V42.5878H214.404V43.8732H217.391V45.1131H214.404V46.4435H217.843V47.6835H213.019V41.3478Z" fill="#2968C8"/>
</svg>
