<?xml version="1.0" encoding="UTF-8" standalone="no"?>
<svg
   id="Layer_1"
   data-name="Layer 1"
   viewBox="0 0 2000.01 423.25"
   version="1.1"
   sodipodi:docname="appLogo.svg"
   width="2000.01"
   height="423.25"
   inkscape:version="1.1.2 (0a00cf5339, 2022-02-04)"
   xmlns:inkscape="http://www.inkscape.org/namespaces/inkscape"
   xmlns:sodipodi="http://sodipodi.sourceforge.net/DTD/sodipodi-0.dtd"
   xmlns="http://www.w3.org/2000/svg"
   xmlns:svg="http://www.w3.org/2000/svg"
   xmlns:rdf="http://www.w3.org/1999/02/22-rdf-syntax-ns#"
   xmlns:cc="http://creativecommons.org/ns#"
   xmlns:dc="http://purl.org/dc/elements/1.1/">
  <sodipodi:namedview
     id="namedview79"
     pagecolor="#ffffff"
     bordercolor="#666666"
     borderopacity="1.0"
     inkscape:pageshadow="2"
     inkscape:pageopacity="0.0"
     inkscape:pagecheckerboard="0"
     showgrid="false"
     fit-margin-top="0"
     fit-margin-left="0"
     fit-margin-right="0"
     fit-margin-bottom="0"
     inkscape:zoom="0.65343137"
     inkscape:cx="999.33983"
     inkscape:cy="211.1928"
     inkscape:window-width="2560"
     inkscape:window-height="1372"
     inkscape:window-x="0"
     inkscape:window-y="0"
     inkscape:window-maximized="1"
     inkscape:current-layer="Layer_1" />
  <defs
     id="defs4">
    <style
       id="style2">.cls-1{fill:#0190b8;}</style>
  </defs>
  <title
     id="title6">Artboard 1</title>
  <path
     class="cls-1"
     d="M 639.57,2.64 H 502.29 V 57.1 l 9.41,16.62 a 158.45,158.45 0 0 1 10.06,21.32 V 22.12 h 117.81 a 88.54,88.54 0 0 1 0,177.08 H 521.76 v -35.33 h -0.39 c 0.25,-3.58 0.39,-7.18 0.39,-10.82 v 0 A 150.43,150.43 0 0 0 371.36,2.64 v 0 -0.16 H 0 V 21.96 H 127.72 V 303.45 H 147.2 V 21.96 h 224.16 v 0.16 0 c 72.19,0 130.93,58.73 130.93,130.93 v 0 c 0,72.19 -58.74,130.93 -130.93,130.93 -72.19,0 -130.93,-58.74 -130.93,-130.94 A 131.07,131.07 0 0 1 314.34,35.21 H 278 a 150.38,150.38 0 1 0 224.29,191.83 v 76.41 h 19.47 v -84.77 h 117.81 a 108,108 0 0 0 0,-216 z m -133.3,216.85 c -0.15,0.32 -0.32,0.63 -0.48,1 0.21,-0.37 0.33,-0.68 0.48,-1 z m 6.34,-14.78 v 0.1 z m -2.87,7.23 -0.39,0.91 z"
     id="path8" />
  <path
     class="cls-1"
     d="m 772.26,5.18 h 66 v 240.07 h 149.61 v 60 H 772.26 Z"
     id="path10" />
  <path
     class="cls-1"
     d="m 975,156.04 v -0.85 c 0,-85.27 67.33,-155.15 159.93,-155.15 92.6,0 159,69 159,154.33 v 0.86 c 0,85.31 -67.31,155.18 -159.9,155.18 C 1041.44,310.41 975,241.39 975,156.04 Z m 250,0 v -0.85 c 0,-51.45 -37.73,-94.31 -90.88,-94.31 -53.15,0 -90,42 -90,93.45 v 0.86 c 0,51.44 37.72,94.31 90.89,94.31 53.17,0 89.99,-41.97 89.99,-93.46 z"
     id="path12" />
  <path
     class="cls-1"
     d="m 1307.25,156.04 v -0.85 C 1307.25,69.88 1373.69,0 1464.58,0 c 54,0 86.59,14.58 117.89,41.15 l -41.59,50.16 c -23.14,-19.29 -43.72,-30.43 -78.44,-30.43 -48,0 -86.18,42.44 -86.18,93.45 v 0.86 c 0,54.87 37.73,95.17 90.89,95.17 24,0 45.44,-6 62.16,-18 v -42.84 h -66.45 v -57 h 130.33 v 130.31 c -30.87,26.15 -73.31,47.58 -128.19,47.58 -93.45,0 -157.75,-65.59 -157.75,-154.37 z"
     id="path14" />
  <path
     class="cls-1"
     d="m 1627.48,5.18 h 66 v 300.09 h -66 z"
     id="path16" />
  <path
     class="cls-1"
     d="m 1723.07,156.04 v -0.85 C 1723.07,69.88 1787.37,0 1879.54,0 c 56.59,0 90.45,18.86 118.32,46.3 l -42,48.44 c -23.14,-21 -46.72,-33.86 -76.73,-33.86 -50.58,0 -87,42 -87,93.45 v 0.86 c 0,51.44 35.59,94.31 87,94.31 34.3,0 55.3,-13.72 78.88,-35.15 l 42,42.44 c -30.86,33 -65.16,53.58 -123,53.58 -88.35,0.04 -153.94,-68.12 -153.94,-154.33 z"
     id="path18" />
  <path
     class="cls-1"
     d="M 17.88,375.36 H 0 v -11.91 h 48.68 v 11.91 H 30.8 V 422.2 H 17.88 Z"
     id="path20" />
  <path
     class="cls-1"
     d="m 67,363.45 h 12.9 v 23.24 h 23.83 v -23.24 h 12.93 V 422.2 H 103.73 V 398.61 H 79.9 V 422.2 H 67 Z"
     id="path22" />
  <path
     class="cls-1"
     d="m 139.15,363.45 h 44.31 v 11.49 H 152 v 11.92 h 27.69 v 11.5 H 152 v 12.34 h 31.89 v 11.5 h -44.74 z"
     id="path24" />
  <path
     class="cls-1"
     d="m 257.48,363.04 h 11.92 l 25.18,59.17 h -13.52 l -5.37,-13.17 h -24.84 l -5.37,13.18 H 232.3 Z m 13.6,34.58 -7.81,-19.06 -7.8,19.06 z"
     id="path26" />
  <path
     class="cls-1"
     d="m 309,397.04 v -33.59 h 12.93 v 33.23 c 0,9.57 4.78,14.52 12.67,14.52 7.89,0 12.67,-4.78 12.67,-14.1 v -33.65 h 12.93 v 33.15 c 0,17.79 -10,26.52 -25.77,26.52 -15.77,0 -25.43,-8.81 -25.43,-26.08 z"
     id="path28" />
  <path
     class="cls-1"
     d="m 395.45,375.36 h -17.87 v -11.91 h 48.67 v 11.91 h -17.87 v 46.84 h -12.93 z"
     id="path30" />
  <path
     class="cls-1"
     d="m 439.43,393.04 v -0.17 c 0,-16.7 13.18,-30.38 31.3,-30.38 18.12,0 31.14,13.51 31.14,30.21 v 0.17 c 0,16.7 -13.18,30.38 -31.3,30.38 -18.12,0 -31.14,-13.56 -31.14,-30.21 z m 48.93,0 v -0.17 c 0,-10.07 -7.39,-18.46 -17.79,-18.46 -10.4,0 -17.63,8.22 -17.63,18.29 v 0.17 c 0,10.07 7.39,18.46 17.79,18.46 10.4,0 17.63,-8.29 17.63,-18.29 z"
     id="path32" />
  <path
     class="cls-1"
     d="m 521.76,363.45 h 13.93 l 15.44,24.84 15.44,-24.84 h 13.94 v 58.75 h -12.84 v -38.36 l -16.54,25.1 h -0.33 l -16.37,-24.85 v 38.11 h -12.67 z"
     id="path34" />
  <path
     class="cls-1"
     d="m 623.14,363.04 h 11.92 l 25.18,59.17 h -13.52 l -5.37,-13.17 h -24.84 l -5.37,13.18 H 598 Z m 13.6,34.58 -7.81,-19.06 -7.81,19.06 z"
     id="path36" />
  <path
     class="cls-1"
     d="m 683.82,375.36 h -17.88 v -11.91 h 48.68 v 11.91 h -17.88 v 46.84 h -12.92 z"
     id="path38" />
  <path
     class="cls-1"
     d="m 732.91,363.45 h 44.32 v 11.49 h -31.48 v 11.92 h 27.7 v 11.5 h -27.7 v 12.34 h 31.9 v 11.5 h -44.74 z"
     id="path40" />
  <path
     class="cls-1"
     d="m 797.53,363.45 h 22.92 c 18.46,0 31.22,12.67 31.22,29.2 v 0.17 c 0,16.54 -12.76,29.38 -31.22,29.38 h -22.92 z m 12.93,11.66 v 35.42 h 10 c 10.57,0 17.7,-7.13 17.7,-17.54 v -0.17 c 0,-10.41 -7.13,-17.71 -17.7,-17.71 z"
     id="path42" />
  <path
     class="cls-1"
     d="m 925.27,363.04 h 11.92 l 25.17,59.17 h -13.51 l -5.37,-13.17 h -24.84 l -5.37,13.18 h -13.18 z m 13.59,34.58 -7.8,-19.06 -7.81,19.06 z"
     id="path44" />
  <path
     class="cls-1"
     d="m 979.82,363.45 h 24 c 14,0 22.49,8.31 22.49,20.31 v 0.17 c 0,13.59 -10.57,20.64 -23.75,20.64 h -9.82 v 17.63 h -12.92 z m 23.18,29.59 c 6.46,0 10.24,-3.86 10.24,-8.89 v -0.11 c 0,-5.79 -4,-8.9 -10.49,-8.9 h -10 v 18 z"
     id="path46" />
  <path
     class="cls-1"
     d="m 1044.27,363.45 h 24 c 14,0 22.5,8.31 22.5,20.31 v 0.17 c 0,13.59 -10.58,20.64 -23.75,20.64 h -9.82 v 17.63 h -12.93 z m 23.17,29.59 c 6.46,0 10.23,-3.86 10.23,-8.89 v -0.11 c 0,-5.79 -4,-8.9 -10.49,-8.9 h -10 v 18 z"
     id="path48" />
  <path
     class="cls-1"
     d="m 1108.73,363.45 h 12.92 v 47 h 29.29 v 11.75 h -42.21 z"
     id="path50" />
  <path
     class="cls-1"
     d="m 1169.65,363.45 h 12.93 v 58.75 h -12.93 z"
     id="path52" />
  <path
     class="cls-1"
     d="m 1203.06,393.04 v -0.17 c 0,-16.7 12.58,-30.38 30.63,-30.38 11.08,0 17.71,3.69 23.16,9.06 l -8.22,9.49 c -4.53,-4.11 -9.15,-6.63 -15,-6.63 -9.9,0 -17,8.22 -17,18.29 v 0.17 c 0,10.07 7,18.46 17,18.46 6.72,0 10.83,-2.68 15.45,-6.88 l 8.22,8.31 c -6,6.46 -12.75,10.49 -24.09,10.49 -17.31,-0.05 -30.15,-13.39 -30.15,-30.21 z"
     id="path54" />
  <path
     class="cls-1"
     d="m 1296.13,363.04 h 11.92 l 25.17,59.17 h -13.51 l -5.37,-13.17 h -24.84 l -5.37,13.18 H 1271 Z m 13.59,34.58 -7.8,-19.06 -7.81,19.06 z"
     id="path56" />
  <path
     class="cls-1"
     d="m 1356.81,375.36 h -17.88 v -11.91 h 48.68 v 11.91 h -17.88 v 46.84 h -12.92 z"
     id="path58" />
  <path
     class="cls-1"
     d="m 1406.49,363.45 h 12.92 v 58.75 h -12.92 z"
     id="path60" />
  <path
     class="cls-1"
     d="m 1439.89,393.04 v -0.17 c 0,-16.7 13.18,-30.38 31.31,-30.38 18.13,0 31.13,13.51 31.13,30.21 v 0.17 c 0,16.7 -13.17,30.38 -31.3,30.38 -18.13,0 -31.14,-13.56 -31.14,-30.21 z m 48.93,0 v -0.17 c 0,-10.07 -7.38,-18.46 -17.79,-18.46 -10.41,0 -17.63,8.22 -17.63,18.29 v 0.17 c 0,10.07 7.39,18.46 17.8,18.46 10.41,0 17.62,-8.29 17.62,-18.29 z"
     id="path62" />
  <path
     class="cls-1"
     d="m 1522.22,363.45 h 11.92 l 27.52,36.17 v -36.17 h 12.76 v 58.75 h -11 L 1535,384.85 v 37.35 h -12.76 z"
     id="path64" />
  <path
     class="cls-1"
     d="m 1630.48,363.45 h 44.32 v 11.49 h -31.48 v 11.92 H 1671 v 11.5 h -27.7 v 12.34 h 31.89 v 11.5 h -44.73 z"
     id="path66" />
  <path
     class="cls-1"
     d="m 1695.1,363.45 h 11.9 l 27.53,36.17 v -36.17 h 12.76 v 58.75 h -11 l -28.45,-37.35 v 37.35 h -12.74 z"
     id="path68" />
  <path
     class="cls-1"
     d="m 1767.19,393.04 v -0.17 c 0,-16.7 13,-30.38 30.81,-30.38 10.57,0 17,2.85 23.07,8.06 l -8.14,9.82 c -4.53,-3.78 -8.56,-6 -15.35,-6 -9.41,0 -16.87,8.31 -16.87,18.29 v 0.17 c 0,10.74 7.38,18.63 17.79,18.63 a 20.64,20.64 0 0 0 12.17,-3.52 v -8.4 h -13 v -11.17 h 25.51 v 25.52 a 38.12,38.12 0 0 1 -25.09,9.31 c -18.31,0 -30.9,-12.84 -30.9,-30.16 z"
     id="path70" />
  <path
     class="cls-1"
     d="m 1844.57,363.45 h 12.93 v 58.75 h -12.93 z"
     id="path72" />
  <path
     class="cls-1"
     d="m 1880.57,363.45 h 11.92 l 27.51,36.17 v -36.17 h 12.76 v 58.75 h -11 l -28.45,-37.35 v 37.35 h -12.76 z"
     id="path74" />
  <path
     class="cls-1"
     d="m 1955.27,363.45 h 44.31 v 11.49 h -31.47 v 11.92 h 27.69 v 11.5 h -27.69 V 410.7 H 2000 v 11.5 h -44.73 z"
     id="path76" />
  <metadata
     id="metadata896">
    <rdf:RDF>
      <cc:Work
         rdf:about="">
        <dc:title>Artboard 1</dc:title>
      </cc:Work>
    </rdf:RDF>
  </metadata>
</svg>
