<svg width="220" height="39" viewBox="0 0 220 39" fill="none" xmlns="http://www.w3.org/2000/svg">
<path d="M71.1299 3.13096H57.1133H56.3251V9.00367L57.3404 10.7963C57.7598 11.5367 58.1208 12.3067 58.4255 13.0974V5.23142H71.1299C76.3952 5.23142 80.6786 9.51484 80.6786 14.7801C80.6786 20.0453 76.3952 24.3288 71.1299 24.3288H58.4255V20.5183H58.3828C58.4103 20.1328 58.4255 19.7439 58.4255 19.3513C58.4255 16.4496 57.6598 13.7282 56.3251 11.3715C53.5392 6.45274 48.2616 3.13096 42.2052 3.13096H42.2051V3.11414H2.15686V5.21449H15.9308V35.5718H18.0313V5.21449H34.2545H42.2051V5.23142H42.2052C49.9909 5.23142 56.3251 11.5656 56.3251 19.3513C56.3251 27.1372 49.9909 33.4714 42.2052 33.4714C34.4193 33.4714 28.0853 27.1373 28.0853 19.3513C28.0853 13.7686 31.3424 8.93281 36.056 6.64298H32.1327C28.3882 9.61341 25.9847 14.2003 25.9847 19.3513C25.9847 28.3096 33.2469 35.5718 42.2052 35.5718C48.2616 35.5718 53.5392 32.25 56.3251 27.3312V35.5718H58.4255V26.4293H71.1299C77.5532 26.4293 82.7791 21.2034 82.7791 14.7801C82.7791 8.35672 77.5532 3.13096 71.1299 3.13096ZM56.7548 26.5171C56.7379 26.551 56.7203 26.5849 56.7033 26.6189C56.7204 26.5849 56.738 26.5512 56.7548 26.5171ZM57.4387 24.9225C57.4374 24.9261 57.4362 24.9297 57.4348 24.9334C57.4362 24.9297 57.4374 24.9261 57.4387 24.9225ZM57.1288 25.7022C57.1148 25.7353 57.1007 25.7682 57.0863 25.8012C57.1007 25.7682 57.1148 25.7353 57.1288 25.7022Z" fill="#2968C8"/>
<path d="M85.4398 3.40533H92.5595V29.2951H108.694V35.7676H85.4398V3.40533Z" fill="#2968C8"/>
<path d="M107.306 19.6789V19.5865C107.306 10.3864 114.565 2.85059 124.551 2.85059C134.537 2.85059 141.703 10.2939 141.703 19.494V19.5865C141.703 28.7866 134.444 36.3223 124.458 36.3223C114.472 36.3223 107.306 28.879 107.306 19.6789ZM134.259 19.6789V19.5865C134.259 14.0386 130.191 9.41554 124.458 9.41554C118.726 9.41554 114.749 13.9464 114.749 19.494V19.5865C114.749 25.1343 118.818 29.7573 124.551 29.7573C130.283 29.7573 134.259 25.2267 134.259 19.6789Z" fill="#2968C8"/>
<path d="M143.134 19.6789V19.5865C143.134 10.3864 150.3 2.85059 160.101 2.85059C165.926 2.85059 169.44 4.42251 172.815 7.28876L168.331 12.6981C165.834 10.6176 163.615 9.41554 159.871 9.41554C154.692 9.41554 150.578 13.9925 150.578 19.494V19.5865C150.578 25.5042 154.646 29.8499 160.379 29.8499C162.968 29.8499 165.279 29.2026 167.082 27.9083V23.2849H159.917V17.1362H173.971V31.1905C170.642 34.0108 166.065 36.3223 160.148 36.3223C150.069 36.3223 143.134 29.2489 143.134 19.6789Z" fill="#2968C8"/>
<path d="M184.789 3.40533H177.669V35.7676H184.789V3.40533Z" fill="#2968C8"/>
<path d="M187.978 19.6789V19.5865C187.978 10.3864 194.912 2.85059 204.852 2.85059C210.955 2.85059 214.607 4.88472 217.612 7.84351L213.081 13.0679C210.585 10.8023 208.042 9.41554 204.806 9.41554C199.351 9.41554 195.421 13.9464 195.421 19.494V19.5865C195.421 25.1343 199.258 29.7573 204.806 29.7573C208.504 29.7573 210.77 28.2778 213.313 25.9665L217.843 30.5434C214.515 34.1034 210.816 36.3223 204.575 36.3223C195.051 36.3223 187.978 28.9716 187.978 19.6789Z" fill="#2968C8"/>
</svg>
