<svg id="visual" xmlns="http://www.w3.org/2000/svg" viewBox="0 0 22 22"><defs><style>.cls-1{fill:#454952;}</style></defs><title>Actor</title><circle class="cls-1" cx="7.32" cy="4.82" r="3.82"/><circle class="cls-1" cx="14.68" cy="12.19" r="3.82"/><path class="cls-1" d="M18.07,15.68a4.83,4.83,0,0,1-6.78,0A6.32,6.32,0,0,0,8.37,21H21A6.31,6.31,0,0,0,18.07,15.68Z"/><path class="cls-1" d="M9.81,12.19a4.84,4.84,0,0,1,1.46-3.47,5.23,5.23,0,0,0-.56-.4,4.85,4.85,0,0,1-6.78,0A6.28,6.28,0,0,0,1,13.63h9.05A4.88,4.88,0,0,1,9.81,12.19Z"/></svg>