<svg id="visual" xmlns="http://www.w3.org/2000/svg" viewBox="0 0 22 22"><defs><style>.cls-1{fill:none;stroke:#008fb8;stroke-miterlimit:10;stroke-width:2px;}.cls-2{fill:#008fb8;}</style></defs><title>FloatMetaAttr</title><path class="cls-1" d="M17,19H5V3h8.3L17,6.7Z"/><polyline class="cls-1" points="13 3 13 7 17 7"/><path class="cls-2" d="M7.41,14.53H8.88v1.61H7.41Z"/><path class="cls-2" d="M10.31,12.87a4.85,4.85,0,0,1,.54-2.56,1.8,1.8,0,0,1,1.63-.85,1.79,1.79,0,0,1,1.63.85,4.83,4.83,0,0,1,.54,2.56,4.84,4.84,0,0,1-.54,2.55,1.81,1.81,0,0,1-1.63.85,1.82,1.82,0,0,1-1.63-.85A4.84,4.84,0,0,1,10.31,12.87Zm2.17-2.31c-.3,0-.52.18-.65.55a5.3,5.3,0,0,0-.21,1.76c0,.25,0,.47,0,.68l1.51-2.42v0C13,10.74,12.78,10.56,12.48,10.56Zm-.65,4.06c.13.37.35.55.65.55s.52-.18.66-.55a5.32,5.32,0,0,0,.21-1.75c0-.31,0-.58,0-.82l-1.54,2.44S11.81,14.58,11.83,14.62Z"/></svg>