<svg id="visual" xmlns="http://www.w3.org/2000/svg" viewBox="0 0 22 22"><defs><style>.cls-1{fill:#cfd1d2;}.cls-2{fill:#fbfbfd;}</style></defs><title>unknown</title><circle class="cls-1" cx="11" cy="11" r="10"/><path class="cls-2" d="M12,14.17H9.64V12.8a3.62,3.62,0,0,1,.28-1.5,4.41,4.41,0,0,1,1-1.31l.8-.79a4.28,4.28,0,0,0,.76-.9,1.52,1.52,0,0,0,.2-.74,1,1,0,0,0-.41-.89A2,2,0,0,0,11,6.36a4.31,4.31,0,0,0-1.56.32,7.09,7.09,0,0,0-1.67.94V5.24a8.1,8.1,0,0,1,1.76-.75,6.57,6.57,0,0,1,1.79-.26,4.31,4.31,0,0,1,2.82.84,2.81,2.81,0,0,1,1,2.3,2.72,2.72,0,0,1-.3,1.26A6,6,0,0,1,13.75,10l-.78.77a3.56,3.56,0,0,0-.77,1,2.08,2.08,0,0,0-.17.91,1.34,1.34,0,0,1,0,.19,1.85,1.85,0,0,1,0,.23ZM9.64,15.22H12v2.51H9.64Z"/></svg>