<?xml version="1.0" encoding="UTF-8" standalone="no"?>
<svg
   xmlns:dc="http://purl.org/dc/elements/1.1/"
   xmlns:cc="http://creativecommons.org/ns#"
   xmlns:rdf="http://www.w3.org/1999/02/22-rdf-syntax-ns#"
   xmlns:svg="http://www.w3.org/2000/svg"
   xmlns="http://www.w3.org/2000/svg"
   xmlns:sodipodi="http://sodipodi.sourceforge.net/DTD/sodipodi-0.dtd"
   xmlns:inkscape="http://www.inkscape.org/namespaces/inkscape"
   aria-hidden="true"
   data-prefix="fas"
   data-icon="link"
   class="svg-inline--fa fa-link fa-w-16"
   role="img"
   viewBox="0 0 512 512"
   version="1.1"
   id="svg4"
   sodipodi:docname="link-solid_modified.svg"
   inkscape:export-filename="C:\Users\Sfo\Pictures\Icons\link-solid.png"
   inkscape:export-xdpi="3.1216173"
   inkscape:export-ydpi="3.1216173"
   inkscape:version="0.92.3 (2405546, 2018-03-11)">
  <metadata
     id="metadata10">
    <rdf:RDF>
      <cc:Work
         rdf:about="">
        <dc:format>image/svg+xml</dc:format>
        <dc:type
           rdf:resource="http://purl.org/dc/dcmitype/StillImage" />
        <dc:title></dc:title>
      </cc:Work>
    </rdf:RDF>
  </metadata>
  <defs
     id="defs8" />
  <sodipodi:namedview
     pagecolor="#ffffff"
     bordercolor="#666666"
     borderopacity="1"
     objecttolerance="10"
     gridtolerance="10"
     guidetolerance="10"
     inkscape:pageopacity="0"
     inkscape:pageshadow="2"
     inkscape:window-width="1920"
     inkscape:window-height="1137"
     id="namedview6"
     showgrid="false"
     inkscape:zoom="0.4609375"
     inkscape:cx="256"
     inkscape:cy="256"
     inkscape:window-x="1672"
     inkscape:window-y="-8"
     inkscape:window-maximized="1"
     inkscape:current-layer="svg4" />
  <path
     style="fill:currentColor"
     d="m 358.64062,13.927734 c -44.20441,-0.197783 -85.6188,23.957452 -113.05229,57.621291 -27.62887,28.946045 -61.36413,54.143165 -78.82271,90.980275 -22.91195,50.80097 -11.91112,115.59856 28.63214,154.31518 5.89468,6.03357 12.44971,11.62474 20.12568,15.25318 8.65563,-4.86169 13.61899,-14.09516 21.37264,-20.09523 4.95528,-5.74791 11.39416,-14.65911 6.61954,-22.04345 -8.42526,-7.54818 -18.12405,-14.21585 -23.375,-24.58593 -21.49145,-33.47119 -16.36171,-82.21765 13.81993,-108.8441 21.99754,-22.40731 44.61396,-44.21939 66.53145,-66.69305 17.48474,-16.079657 41.24458,-26.004919 65.20917,-23.7109 35.37783,2.177266 68.91383,27.841741 77.15495,62.85222 9.05205,33.31454 -3.44527,71.29812 -30.89323,92.3763 -4.29612,3.27716 -6.21211,8.97656 -3.17555,13.763 5.85943,16.11655 6.6101,33.33198 8.93922,50.11004 1.27862,4.10524 5.95614,-1.19859 7.47461,-2.92383 8.68914,-10.41509 19.66701,-18.66212 28.68525,-28.83006 18.04382,-18.3557 33.55529,-40.29278 39.62335,-65.65822 C 509.03105,130.82762 483.93871,64.313801 432.45508,34.46875 410.375,20.927087 384.57461,13.624607 358.64062,13.927734 Z M 295.59766,180.36914 c -8.51606,5.53907 -13.75659,14.73325 -21.70704,20.92774 -4.5309,5.57917 -10.45321,14.90625 -4.56835,21.35546 10.79504,9.09479 21.70175,18.86396 27.17773,32.23633 16.93652,34.34164 8.00887,79.70166 -21.88751,104.04245 -23.57954,23.02581 -46.01094,47.29565 -70.43671,69.43607 -26.00335,20.56497 -64.08296,23.40801 -93.05469,7.42773 -24.855459,-12.97985 -42.4053,-38.84839 -44.517574,-66.9082 -2.90305,-29.51577 9.960883,-60.1141 33.509764,-78.26563 4.0008,-3.29093 6.32567,-8.98499 3.15625,-13.6582 -5.823211,-15.84782 -6.722128,-32.94594 -8.822264,-49.41016 -0.528723,-4.96881 -5.676992,-0.4236 -7.261719,1.71875 -8.348563,10.12837 -19.181805,18.21108 -27.978516,28.09571 -19.155084,19.43993 -35.717547,42.59681 -41.408203,69.65625 -13.8864806,55.85668 10.598965,119.87417 60.304645,149.76108 46.571677,29.59889 111.603237,28.57451 155.624877,-5.68318 25.01377,-19.11055 44.35994,-44.31525 67.83634,-65.13832 23.20449,-22.44023 45.34938,-48.45557 51.82593,-80.96497 10.69338,-44.86811 -2.13224,-95.54782 -35.28581,-128.31627 -6.29303,-6.66401 -13.33508,-12.8877 -21.7259,-16.76381 z"
     id="path2"
     inkscape:connector-curvature="0"
     inkscape:export-xdpi="3.1733139"
     inkscape:export-ydpi="3.1733139" />
</svg>
