<svg id="visual" xmlns="http://www.w3.org/2000/svg" viewBox="0 0 22 22"><defs><style>.cls-1{fill:#008fb8;}</style></defs><title>c_1</title><path class="cls-1" d="M12.42,4l4,4V18H5.77V4h6.65m.83-2H3.77V20H18.38V7.12L13.25,2Z"/><path class="cls-1" d="M12.82,15.29a3.7,3.7,0,0,1-.86.32,4.19,4.19,0,0,1-1,.1,3.27,3.27,0,0,1-2.7-1.16,5.3,5.3,0,0,1-.93-3.37A5.32,5.32,0,0,1,8.31,7.8,3.24,3.24,0,0,1,11,6.64a4.34,4.34,0,0,1,1,.1,3.47,3.47,0,0,1,.85.32V9a3.55,3.55,0,0,0-.86-.6,2,2,0,0,0-.87-.19,1.59,1.59,0,0,0-1.43.75,4.21,4.21,0,0,0-.48,2.24,4.22,4.22,0,0,0,.48,2.23,1.59,1.59,0,0,0,1.43.75A2,2,0,0,0,12,14a3.55,3.55,0,0,0,.86-.6Z"/></svg>