<svg id="visual" xmlns="http://www.w3.org/2000/svg" viewBox="0 0 22 22"><defs><style>.cls-1{fill:none;stroke:#fbfbfd;stroke-miterlimit:10;}.cls-2{fill:#fbfbfd;}</style></defs><title>newElement</title><line class="cls-1" x1="17" y1="3" x2="17" y2="9"/><line class="cls-1" x1="14" y1="6" x2="20" y2="6"/><line class="cls-1" x1="14.88" y1="8.12" x2="19.12" y2="3.88"/><line class="cls-1" x1="19.12" y1="8.12" x2="14.88" y2="3.88"/><path class="cls-2" d="M15,9.45A3.92,3.92,0,0,1,14.38,9H5v2H15Z"/><rect class="cls-2" x="5" y="15" width="10" height="2"/><rect class="cls-2" x="5" y="12" width="10" height="2"/><path class="cls-2" d="M5,8h8.55A4,4,0,0,1,13,6H5Z"/><path class="cls-2" d="M17,10a4.09,4.09,0,0,1-1-.14V18H4V5h9.14a4,4,0,0,1,1.24-2H2V20H18V9.86A4.09,4.09,0,0,1,17,10Z"/></svg>